<svg width="232" height="109" viewBox="0 0 232 109" fill="none" xmlns="http://www.w3.org/2000/svg">
<path d="M191.152 62.2531C191.916 61.9378 192.51 61.4117 192.931 60.6747C193.35 59.9349 193.607 58.9523 193.696 57.7241C193.786 56.9671 193.857 56.2898 193.902 55.6892C193.947 55.0886 193.978 54.4872 193.997 53.8825C194.015 53.2805 194.017 52.6104 194.002 51.8747C194.041 50.0948 193.644 48.7685 192.811 47.8984C191.975 47.0255 190.694 46.5466 188.962 46.4558L185.03 46.2497L184.183 62.4208L188.314 62.6373C189.441 62.6964 190.389 62.5684 191.152 62.2558L191.152 62.2531Z" fill="#F2F2F2"/>
<path d="M43.8029 87.6886L47.4606 87.8803C48.4584 87.9325 49.2977 87.8177 49.9783 87.5411C50.6564 87.2617 51.1824 86.7967 51.5539 86.1405C51.9253 85.487 52.1516 84.616 52.2331 83.5247C52.314 82.856 52.3752 82.2535 52.4139 81.7199C52.4553 81.1891 52.4832 80.6548 52.4978 80.1199C52.515 79.5852 52.5164 78.9931 52.5047 78.341C52.5416 76.7629 52.1879 75.5868 51.4489 74.8159C50.7099 74.045 49.5726 73.6193 48.0396 73.539L44.5567 73.3565L43.8057 87.686L43.8029 87.6886Z" fill="#F2F2F2"/>
<path d="M38.7765 68.2783C38.9463 68.1257 39.1604 68.0534 39.4159 68.0668L43.2135 68.2658C45.1941 64.1274 44.3277 57.2447 44.0743 56.2651C43.9531 55.7985 43.7458 54.9693 43.3719 54.231L43.1275 58.8938C43.0692 60.0052 43.2467 61.0966 43.6357 62.113L39.7413 61.9089C37.8452 61.8095 36.0348 62.4441 34.645 63.6956C33.2526 64.947 32.4338 66.6753 32.3347 68.5679L32.2639 69.9181C33.8702 71.1733 36.1922 71.9437 38.3529 71.7285L38.5016 68.8911C38.515 68.636 38.6065 68.4336 38.7792 68.2784L38.7765 68.2783Z" fill="#F2F2F2"/>
<path d="M125.819 31.9729C125.981 32.5332 126.294 32.9938 126.755 33.3544C127.217 33.715 127.856 33.9154 128.671 33.9582C129.437 33.9983 130.07 33.8646 130.566 33.5541C131.063 33.2463 131.446 32.8196 131.715 32.2818C131.983 31.7441 132.133 31.1894 132.163 30.6149C132.315 29.5192 132.419 28.5179 132.466 27.6106C132.514 26.7032 132.517 25.7182 132.475 24.6608C132.474 23.7509 132.243 22.9098 131.777 22.1424C131.313 21.3751 130.506 20.9614 129.355 20.901C128.204 20.8407 127.3 21.1648 126.782 21.8806C126.265 22.5964 125.934 23.4082 125.789 24.3104C125.686 25.3602 125.61 26.3387 125.562 27.2488C125.515 28.1588 125.487 29.1613 125.477 30.2645C125.544 30.8441 125.657 31.4126 125.822 31.973L125.819 31.9729Z" fill="#F2F2F2"/>
<path d="M160.935 48.847C160.471 48.0798 159.638 47.6646 158.441 47.6019C157.244 47.5392 156.445 47.8688 155.903 48.5833C155.362 49.2979 155.041 50.1101 154.945 51.0149C154.842 52.0647 154.766 53.0433 154.718 53.9533C154.671 54.8633 154.642 55.8659 154.633 56.969C154.649 57.5459 154.754 58.1167 154.94 58.6756C155.127 59.2372 155.45 59.709 155.912 60.094C156.372 60.4788 156.987 60.6886 157.753 60.7288C158.566 60.7714 159.212 60.6249 159.686 60.2917C160.159 59.9558 160.53 59.5203 160.801 58.9827C161.069 58.4449 161.241 57.8914 161.319 57.3194C161.474 56.2239 161.575 55.2251 161.622 54.3151C161.67 53.4051 161.673 52.4227 161.631 51.3653C161.63 50.4555 161.399 49.6143 160.935 48.847Z" fill="#F2F2F2"/>
<path d="M146.576 80.3612C146.251 79.6605 145.783 79.1272 145.174 78.7696C144.564 78.4119 143.852 78.2104 143.04 78.1678C142.227 78.1252 141.533 78.253 140.889 78.545C140.246 78.837 139.719 79.3155 139.312 79.9805C138.905 80.6456 138.649 81.5205 138.546 82.608C138.471 83.5812 138.411 84.5202 138.363 85.4248C138.316 86.3295 138.276 87.2937 138.247 88.3151C138.229 89.94 138.592 91.1461 139.333 91.9279C140.071 92.7096 141.044 93.1347 142.255 93.1981C143.465 93.2616 144.509 92.9448 145.325 92.2419C146.144 91.5419 146.617 90.3796 146.748 88.7606C146.847 87.7429 146.922 86.7832 146.969 85.8759C147.017 84.9685 147.042 84.0331 147.047 83.0535C147.058 81.9639 146.901 81.0647 146.579 80.3614L146.576 80.3612Z" fill="#F2F2F2"/>
<path d="M218.003 84.1046C217.679 83.4038 217.21 82.8706 216.601 82.5129C215.991 82.1552 215.279 81.9537 214.467 81.9111C213.654 81.8686 212.96 81.9964 212.316 82.2884C211.673 82.5803 211.146 83.0588 210.739 83.7239C210.332 84.389 210.076 85.2638 209.973 86.3513C209.898 87.3245 209.838 88.2635 209.79 89.1682C209.743 90.0728 209.703 91.0371 209.674 92.0584C209.659 93.6835 210.019 94.8895 210.76 95.6713C211.499 96.4529 212.471 96.878 213.682 96.9415C214.892 97.0049 215.936 96.6881 216.752 95.9853C217.571 95.2853 218.045 94.123 218.175 92.504C218.274 91.4863 218.349 90.5265 218.397 89.6192C218.444 88.7118 218.469 87.7764 218.474 86.7969C218.486 85.7073 218.328 84.808 218.006 84.1047L218.003 84.1046Z" fill="#F2F2F2"/>
<path d="M231.136 87.1105C231.192 83.9317 230.524 81.0891 229.157 78.6675C228.424 77.3667 227.524 76.2159 226.471 75.2185C226.897 74.9555 227.296 74.6481 227.668 74.2907C228.991 73.0222 229.771 71.3188 229.867 69.496L230.06 65.8076C230.151 64.0627 229.627 62.3905 228.578 61.0381C228.981 60.1952 229.218 59.2762 229.268 58.3259L229.447 54.9113C229.5 53.8912 229.343 52.887 228.987 51.9532C230.01 50.7631 230.611 49.2657 230.696 47.655L230.889 43.9639C230.989 42.0499 230.349 40.2209 229.088 38.8116C229.078 38.8003 229.068 38.789 229.057 38.7777C227.785 37.3786 226.029 36.5544 224.114 36.4541L205.748 35.4915C203.82 35.3904 201.982 36.0344 200.569 37.3036C200.425 37.4333 200.291 37.5663 200.16 37.7047C199.729 37.4291 199.282 37.1661 198.817 36.9237C196.268 35.5977 193.231 34.8355 189.783 34.6548L179.558 34.1189C177.629 34.0179 175.791 34.6618 174.382 35.9285C172.967 37.1975 172.133 38.9573 172.033 40.8794L172.023 41.0646C171.724 40.691 171.406 40.327 171.071 39.9784C168.608 37.424 165.322 35.844 161.28 35.2687L171.249 23.5111C171.3 23.0993 171.408 22.685 171.589 22.2773C171.922 21.5222 172.451 20.9092 173.089 20.4689C173.279 19.8705 173.395 19.2467 173.429 18.6052C173.66 14.2054 170.538 10.8412 166.006 10.6037L160.901 10.3362C158.925 10.2326 157.185 10.6475 155.728 11.5752C154.872 12.1198 154.058 12.8362 153.311 13.6989C153.3 13.7144 153.286 13.7271 153.274 13.7427L146.194 22.0931C145.725 18.6903 144.294 15.6785 141.98 13.2773C139.087 10.2777 135.061 8.6239 130.013 8.35934C124.964 8.09477 120.799 9.31119 117.587 11.9747C116.956 12.4988 116.379 13.0661 115.845 13.6681C115.523 12.3106 114.849 11.064 113.852 10.0292C112.432 8.56314 110.506 7.69504 108.432 7.58637L79.6091 6.07582C77.5409 5.96742 75.5931 6.54637 73.971 7.75344C72.8539 8.58857 71.4397 10.0999 70.835 12.6335C70.724 10.8404 70.03 9.15929 68.8195 7.81455C67.4072 6.25465 65.4436 5.33343 63.2947 5.22081L54.3118 4.75004C53.4297 4.70381 52.5767 4.76947 51.7775 4.94293C50.8637 5.14 49.9603 5.49912 49.0919 6.0135C48.964 6.08755 48.8411 6.16725 48.718 6.25232L31.7181 18.0156C29.8211 19.1679 28.5103 21.0238 28.0908 23.1607C27.6988 25.1348 28.0528 27.1803 29.0862 28.9195C29.1556 29.0362 29.2304 29.1532 29.3081 29.2649L33.2599 35.0118C33.2599 35.0118 33.2725 35.0286 33.2775 35.0369C34.4311 36.6963 36.0326 37.8354 37.9079 38.3321C40.0862 38.9119 42.3399 38.5186 44.2659 37.2225L43.9234 43.7591C44.0549 44.4389 44.0288 45.1428 43.8412 45.7898C43.8331 45.7894 43.8254 45.7836 43.8174 45.7805L43.6556 48.8676C45.5696 50.3246 46.8198 52.662 47.3469 55.8283C48.0423 60.0047 48.0466 64.7075 46.7797 68.4528L48.4795 68.5418C50.7574 68.6612 52.6774 69.1279 54.2421 69.9421C55.8068 70.7563 56.9825 71.8892 57.767 73.3355C58.5516 74.7817 58.926 76.5403 58.8878 78.6056C58.8586 79.6269 58.8225 80.5214 58.7824 81.2865C58.7423 82.0515 58.6854 82.9315 58.609 83.9261C58.4019 86.0768 57.8483 87.8405 56.9512 89.2121C56.054 90.5837 54.8024 91.5679 53.1985 92.1702C51.5948 92.7699 49.6538 93.0127 47.3785 92.8935L38.1456 92.4096C37.8901 92.3962 37.6849 92.2966 37.5326 92.1164C37.3776 91.9333 37.3075 91.7277 37.3196 91.4969L38.1668 75.3312C36.8916 75.3747 35.5845 75.2039 34.3252 74.8418C33.5415 74.615 32.7777 74.3166 32.0523 73.9555L31.1499 91.1735C31.0564 92.9587 31.6396 94.6959 32.7919 96.0699C34.0533 97.5761 35.8407 98.4638 37.8228 98.5677L47.0558 99.0516C50.1756 99.2151 52.9729 98.8422 55.3771 97.9426C56.1006 97.671 56.7889 97.3517 57.4365 96.9846C57.5346 97.1189 57.6329 97.2506 57.7422 97.3775C59.0036 98.8837 60.791 99.7714 62.7731 99.8753L79.3242 100.743C81.0374 100.833 82.6714 100.323 83.9954 99.2971C84.3486 99.504 84.7102 99.706 85.0888 99.8927C87.3705 101.022 90.0369 101.654 93.2428 101.822C96.0721 101.97 98.6885 101.653 101.019 100.878C102.742 100.306 104.271 99.501 105.597 98.4857C106.618 99.4786 107.798 100.326 109.132 101.018C111.455 102.227 114.186 102.92 117.249 103.08C119.363 103.191 121.395 103.02 123.293 102.568C125.327 102.082 127.181 101.286 128.797 100.2C129.13 99.9774 129.444 99.7408 129.753 99.4959C130.869 100.647 132.186 101.61 133.691 102.37C135.998 103.533 138.684 104.204 141.672 104.36C144.66 104.517 147.402 104.133 149.82 103.215C150.651 102.901 151.434 102.522 152.172 102.087C152.237 102.174 152.306 102.258 152.374 102.34C153.636 103.846 155.423 104.734 157.402 104.837L161.584 105.056C163.553 105.16 165.415 104.471 166.829 103.116C166.835 103.108 166.843 103.103 166.849 103.098C166.858 103.088 166.869 103.08 166.877 103.07C166.885 103.079 166.89 103.087 166.898 103.095C168.169 104.608 170.019 105.499 172.108 105.608L175.836 105.803C177.818 105.907 179.686 105.211 181.1 103.845C181.438 103.518 181.74 103.16 182.003 102.778C182.225 103.185 182.487 103.573 182.792 103.934C182.797 103.939 182.805 103.948 182.81 103.954C184.072 105.449 185.852 106.328 187.823 106.432L192.422 106.673C194.401 106.776 196.269 106.083 197.681 104.719C197.681 104.719 197.681 104.719 197.681 104.717C198.647 103.782 199.318 102.614 199.633 101.336C201.004 103.365 202.843 104.971 205.116 106.118C207.422 107.281 210.108 107.952 213.096 108.109C216.084 108.265 218.826 107.881 221.244 106.964C224.015 105.914 226.271 104.183 227.957 101.824C229.563 99.5719 230.52 96.8118 230.797 93.6231C230.902 92.5518 230.986 91.458 231.043 90.3735C231.1 89.289 231.133 88.1925 231.138 87.1133L231.136 87.1105ZM178.197 41.2051C178.212 40.9179 178.316 40.6865 178.511 40.5137C178.706 40.3408 178.945 40.2618 179.232 40.2769L189.458 40.8128C192.026 40.9474 194.194 41.4755 195.961 42.3945C197.727 43.3135 199.052 44.5889 199.94 46.2236C200.828 47.8583 201.25 49.84 201.206 52.1742C201.172 53.3272 201.133 54.3346 201.088 55.199C201.043 56.0634 200.977 57.0559 200.891 58.1793C200.659 60.6086 200.034 62.5947 199.02 64.1432C198.006 65.6917 196.593 66.8047 194.783 67.4824C192.973 68.1628 190.783 68.4329 188.214 68.2983L177.792 67.7522C177.502 67.7369 177.273 67.6253 177.101 67.4198C176.928 67.2142 176.846 66.9784 176.86 66.7181L178.197 41.2051ZM117.832 26.9136C117.906 25.9592 118.001 24.8121 118.12 23.4751C118.416 20.6131 119.553 18.3604 121.538 16.7121C123.523 15.0664 126.239 14.3312 129.69 14.5121C133.141 14.6929 135.752 15.7046 137.532 17.5503C139.31 19.3958 140.195 21.7545 140.187 24.6316C140.211 25.9761 140.202 27.1277 140.152 28.0833C140.102 29.039 139.996 30.1371 139.834 31.3776C139.538 34.2397 138.364 36.4689 136.312 38.0625C134.257 39.6587 131.603 40.3703 128.344 40.1995C125.084 40.0286 122.458 39.0404 120.608 37.2395C118.755 35.4412 117.81 33.1009 117.769 30.2212C117.737 28.9733 117.76 27.8708 117.835 26.9137L117.832 26.9136ZM62.2307 59.8977C62.2057 60.3755 62.0143 60.7854 61.662 61.1276C61.3069 61.4697 60.8673 61.6244 60.3402 61.5967L50.9969 61.1071C50.5182 61.082 50.1081 60.8801 49.7664 60.5042C49.4248 60.1256 49.2691 59.7002 49.2943 59.2197L51.084 25.071L40.843 32.0875C40.3953 32.3978 39.9452 32.4953 39.4956 32.3776C39.0434 32.257 38.6619 31.9732 38.3509 31.5262L34.3991 25.7793C34.1338 25.3347 34.0507 24.862 34.1497 24.3638C34.2486 23.8656 34.5436 23.4854 35.0374 23.2233L52.2389 11.3198C52.5366 11.1443 52.8178 11.0271 53.0852 10.9684C53.3526 10.9098 53.6556 10.8907 53.9918 10.9083L62.9747 11.3791C63.5018 11.4067 63.9233 11.5984 64.242 11.9488C64.5579 12.3019 64.7048 12.7403 64.6773 13.2664L62.2334 59.8978L62.2307 59.8977ZM80.553 93.7626C80.5409 93.9935 80.4495 94.1933 80.2791 94.3566C80.1059 94.5225 79.8917 94.5974 79.6361 94.584L63.0851 93.7166C62.8296 93.7033 62.6245 93.6037 62.4721 93.4234C62.3172 93.2403 62.2471 93.0348 62.2592 92.8039L63.4439 70.1982C63.4572 69.9432 63.5487 69.7407 63.7214 69.5856C63.8912 69.433 64.1053 69.3608 64.3608 69.3741L80.6322 70.2269C80.8877 70.2403 81.0931 70.3345 81.246 70.504C81.4015 70.6764 81.4714 70.8873 81.458 71.1423L81.2866 74.412C81.2733 74.667 81.1816 74.8721 81.009 75.0273C80.8363 75.1825 80.6252 75.2494 80.3697 75.2361L69.254 74.6535L69.008 79.3486L79.3571 79.891C79.6126 79.9044 79.8179 80.0013 79.9701 80.1842C80.125 80.3673 80.1944 80.5863 80.1811 80.8413L80.0224 83.8693C80.0103 84.1002 79.9189 84.3 79.7458 84.4632C79.5753 84.6292 79.3611 84.7041 79.1056 84.6907L68.7564 84.1484L68.5031 88.9831L79.8957 89.5801C80.1512 89.5935 80.3568 89.685 80.5122 89.8574C80.6652 90.0269 80.7349 90.2405 80.7215 90.4955L80.5502 93.7652L80.553 93.7626ZM102.906 92.5976C101.94 93.6857 100.657 94.4959 99.0573 95.0285C97.4572 95.5584 95.623 95.7718 93.5574 95.6636C91.2337 95.5418 89.3227 95.1105 87.8243 94.3698C86.3259 93.6291 85.2093 92.7038 84.4745 91.5967C83.7396 90.4895 83.3823 89.3321 83.3997 88.1244C83.4094 87.9392 83.4936 87.774 83.6521 87.6316C83.8106 87.4892 83.9947 87.4234 84.2045 87.4344L88.5937 87.6645C88.9164 87.6814 89.1662 87.7537 89.3322 87.8781C89.501 88.0027 89.6491 88.1612 89.7791 88.3565C89.9464 88.7152 90.1898 89.0617 90.509 89.4042C90.8282 89.7466 91.2637 90.0305 91.81 90.2583C92.3591 90.4836 93.0263 90.6182 93.817 90.6596C95.1644 90.7302 96.192 90.5741 96.8996 90.194C97.6047 89.811 97.9786 89.2626 98.0163 88.5432C98.0443 88.009 97.8813 87.5698 97.527 87.2282C97.1702 86.8838 96.5886 86.5572 95.7769 86.2482C94.9678 85.9393 93.8848 85.608 92.5277 85.2596C90.7801 84.7965 89.3019 84.2372 88.0904 83.5788C86.8789 82.9231 85.9728 82.0977 85.3725 81.0999C84.7721 80.1021 84.5094 78.8878 84.5849 77.4489C84.6603 76.01 85.126 74.7908 85.9857 73.7215C86.8456 72.6494 88.0125 71.8411 89.4843 71.2884C90.9559 70.7383 92.6802 70.5137 94.6543 70.6172C96.2572 70.7012 97.6582 70.9846 98.8548 71.4645C100.051 71.9472 101.049 72.5567 101.849 73.2958C102.649 74.0349 103.243 74.8036 103.632 75.6046C104.022 76.4056 104.208 77.1745 104.191 77.9192C104.181 78.1044 104.108 78.2702 103.973 78.4139C103.839 78.5603 103.655 78.6233 103.424 78.6112L98.8246 78.3701C98.5691 78.3568 98.3509 78.2996 98.1703 78.1959C97.9896 78.0922 97.8334 77.9333 97.7044 77.7192C97.5913 77.2019 97.2489 76.7371 96.6773 76.3222C96.1056 75.91 95.3439 75.6763 94.3891 75.6262C93.3671 75.5727 92.5616 75.7108 91.9752 76.0408C91.3862 76.3706 91.075 76.9061 91.036 77.6497C91.0117 78.1141 91.1464 78.5276 91.443 78.8904C91.7366 79.2558 92.2453 79.5839 92.9635 79.8773C93.6817 80.1706 94.6736 80.4891 95.9338 80.8351C98.0271 81.3405 99.7091 81.9212 100.98 82.58C102.248 83.2387 103.168 84.0541 103.735 85.0259C104.299 85.9976 104.546 87.1896 104.472 88.6043C104.39 90.1801 103.867 91.512 102.901 92.6027L102.906 92.5976ZM101.098 62.2577C97.9023 63.6003 94.1272 64.1561 89.7676 63.9277C85.4079 63.6992 81.5398 62.7885 78.5934 61.2209C75.6496 59.6534 73.4549 57.6891 72.0194 55.3366C70.5812 52.984 69.884 50.4898 69.9251 47.8513C69.9477 47.4218 70.1117 47.0697 70.4146 46.7975C70.7174 46.5254 71.0825 46.4018 71.5156 46.4245L81.1466 46.9293C81.7678 46.9618 82.2538 47.1058 82.6016 47.3662C82.9494 47.624 83.2062 47.974 83.3773 48.4136C83.7499 49.5368 84.2779 50.4743 84.9585 51.2287C85.639 51.9831 86.4262 52.5546 87.3205 52.9353C88.2121 53.3158 89.236 53.539 90.3844 53.5992C91.7264 53.6695 92.9867 53.4476 94.1678 52.9361C95.349 52.422 96.3159 51.622 97.0688 50.5336C97.8215 49.4479 98.2393 48.1131 98.322 46.5346C98.3971 45.1012 98.1397 43.8387 97.5467 42.7524C96.9537 41.6661 96.1127 40.7822 95.0183 40.103C93.9241 39.4212 92.636 39.0414 91.1514 38.9636C90.003 38.9035 89.0602 38.9859 88.3283 39.2114C87.5937 39.4367 86.9771 39.7274 86.4782 40.0862C85.9794 40.445 85.5295 40.7444 85.1338 40.9875C84.7354 41.2304 84.2982 41.3394 83.8195 41.3143L74.4036 40.8208C73.9733 40.7983 73.6103 40.6231 73.3147 40.2954C73.019 39.9676 72.8824 39.589 72.9049 39.1595L76.8044 14.2573C76.9361 13.5455 77.2306 13.0199 77.6796 12.6854C78.1315 12.3484 78.6652 12.1987 79.2892 12.2314L108.112 13.7419C108.639 13.7696 109.074 13.9619 109.415 14.3136C109.757 14.668 109.912 15.1068 109.885 15.633L109.531 22.3763C109.504 22.9024 109.301 23.3225 108.926 23.6393C108.548 23.956 108.098 24.0993 107.571 24.0717L86.7275 22.9793L85.3093 32.1837C86.3986 31.5705 87.6605 31.0606 89.1004 30.6542C90.5372 30.253 92.5025 30.1138 94.9956 30.2444C97.2467 30.3624 99.3964 30.8708 101.439 31.7692C103.482 32.6677 105.293 33.877 106.869 35.3997C108.448 36.9199 109.65 38.6975 110.481 40.7331C111.311 42.7658 111.662 45.0265 111.531 47.5122C111.353 50.9081 110.367 53.8793 108.578 56.4208C106.786 58.9649 104.295 60.907 101.101 62.2524L101.098 62.2577ZM113.782 87.1003C113.766 88.7495 114.108 89.9491 114.816 90.6942C115.521 91.4418 116.514 91.8464 117.791 91.9134C118.859 91.9693 119.777 91.786 120.544 91.3605C121.311 90.935 121.879 90.1276 122.243 88.9381C122.353 88.5939 122.5 88.3647 122.681 88.245C122.863 88.128 123.103 88.076 123.404 88.0918L128.108 88.3383C128.318 88.3493 128.492 88.4284 128.638 88.576C128.781 88.7235 128.836 88.8987 128.801 89.1068C128.709 90.4021 128.363 91.5522 127.763 92.5571C127.163 93.562 126.356 94.3999 125.341 95.0789C124.326 95.7579 123.16 96.254 121.841 96.5698C120.519 96.8827 119.091 97.0017 117.558 96.9214C115.374 96.8069 113.511 96.3486 111.97 95.5491C110.429 94.7469 109.257 93.6277 108.459 92.1915C107.66 90.7552 107.27 89.0012 107.283 86.9347C107.309 85.9831 107.352 84.9624 107.409 83.8726C107.466 82.7827 107.531 81.739 107.608 80.7443C107.808 78.7306 108.385 77.0407 109.341 75.6723C110.297 74.3038 111.585 73.3026 113.201 72.6659C114.818 72.0292 116.708 71.7676 118.868 71.8808C120.401 71.9611 121.808 72.226 123.09 72.6781C124.369 73.1301 125.48 73.7455 126.415 74.5267C127.353 75.308 128.068 76.2284 128.56 77.2879C129.052 78.35 129.276 79.53 129.232 80.8278C129.243 81.0383 129.172 81.2096 129.014 81.3413C128.853 81.4728 128.672 81.5333 128.462 81.5223L123.759 81.2758C123.457 81.26 123.229 81.1862 123.072 81.0487C122.917 80.9141 122.79 80.6678 122.693 80.3128C122.431 79.069 121.946 78.1983 121.238 77.709C120.53 77.2169 119.641 76.9442 118.573 76.8883C117.296 76.8213 116.266 77.1227 115.487 77.7898C114.704 78.4594 114.237 79.6139 114.083 81.256C113.914 83.1529 113.812 85.1018 113.777 87.1L113.782 87.1003ZM128.98 63.8266C128.621 64.2411 128.267 64.5591 127.921 64.7778C127.573 64.9991 127.063 65.0936 126.394 65.0585L121.289 64.7909C120.186 64.7331 119.66 64.2264 119.71 63.2708C119.725 62.9835 119.833 62.7281 120.039 62.4966L157.99 17.726C158.346 17.3113 158.7 16.9961 159.048 16.7748C159.394 16.5533 159.906 16.459 160.576 16.4941L165.681 16.7616C166.783 16.8194 167.309 17.3262 167.259 18.2818C167.244 18.5691 167.134 18.8271 166.93 19.056L128.98 63.8239L128.98 63.8266ZM153.216 89.3069C153.036 91.4132 152.462 93.1436 151.493 94.5006C150.524 95.8576 149.232 96.8397 147.619 97.4524C146.002 98.0648 144.125 98.3164 141.989 98.2045C139.854 98.0926 138.011 97.6461 136.469 96.868C134.927 96.09 133.75 94.9759 132.941 93.5284C132.133 92.0782 131.738 90.297 131.754 88.1821C131.782 87.1849 131.824 86.1804 131.877 85.1737C131.93 84.167 131.993 83.1636 132.069 82.1663C132.273 80.0854 132.857 78.3529 133.827 76.9771C134.798 75.5986 136.097 74.5899 137.724 73.9565C139.353 73.3205 141.212 73.0572 143.304 73.1668C145.397 73.2765 147.244 73.734 148.788 74.5363C150.332 75.3387 151.518 76.4749 152.347 77.9477C153.179 79.4206 153.576 81.2019 153.534 83.2912C153.528 84.2922 153.499 85.2948 153.446 86.3041C153.394 87.3135 153.317 88.3135 153.219 89.307L153.216 89.3069ZM149.761 64.0516C147.909 62.2264 146.941 59.8741 146.852 56.9919C146.868 55.7465 146.902 54.6446 146.952 53.6862C147.002 52.7279 147.086 51.5856 147.205 50.2459C147.549 47.3406 148.712 45.0624 150.697 43.4167C152.682 41.7711 155.374 41.0346 158.776 41.2129C162.178 41.3912 164.838 42.4055 166.616 44.251C168.394 46.0938 169.301 48.4806 169.34 51.4059C169.363 52.7504 169.352 53.9019 169.302 54.8575C169.251 55.8132 169.145 56.9113 168.986 58.1519C168.642 61.0114 167.443 63.2501 165.39 64.8706C163.336 66.4885 160.679 67.2133 157.422 67.0426C154.165 66.8719 151.61 65.8739 149.758 64.0514L149.761 64.0516ZM177.072 98.786C177.059 99.041 176.967 99.2516 176.794 99.4174C176.623 99.5835 176.409 99.6584 176.153 99.645L172.426 99.4496C172.055 99.4302 171.785 99.3245 171.623 99.1276C171.458 98.9332 171.354 98.7986 171.312 98.7264L163.485 85.4143L162.821 98.0741C162.809 98.305 162.715 98.5047 162.545 98.668C162.372 98.8339 162.16 98.9089 161.905 98.8956L157.723 98.6764C157.467 98.663 157.262 98.5634 157.109 98.3831C156.955 98.2001 156.884 97.9945 156.897 97.7636L158.081 75.158C158.095 74.9029 158.186 74.7005 158.359 74.5453C158.531 74.3902 158.743 74.3205 158.998 74.3339L162.691 74.5274C163.086 74.5481 163.367 74.6516 163.533 74.8326C163.698 75.0163 163.802 75.1536 163.842 75.2499L171.644 89.0506L172.333 75.9049C172.346 75.6498 172.438 75.4474 172.608 75.2921C172.78 75.1396 172.992 75.0672 173.25 75.0808L177.429 75.2998C177.685 75.3132 177.89 75.4074 178.043 75.5769C178.199 75.7493 178.268 75.9602 178.255 76.2152L177.072 98.786ZM201.719 81.1758C201.707 81.4093 201.616 81.6064 201.443 81.7723C201.272 81.9384 201.058 82.0133 200.802 81.9999L194.6 81.6749L193.656 99.6901C193.644 99.921 193.553 100.121 193.38 100.284C193.209 100.45 192.995 100.525 192.74 100.512L188.141 100.271C187.885 100.257 187.68 100.158 187.525 99.9771C187.373 99.7942 187.302 99.5886 187.315 99.3578L188.259 81.3425L182.057 81.0175C181.801 81.0041 181.596 80.9045 181.441 80.7241C181.289 80.5412 181.216 80.3355 181.228 80.1019L181.423 76.3813C181.437 76.1262 181.531 75.9239 181.701 75.7686C181.873 75.6162 182.085 75.5438 182.343 75.5573L201.089 76.5397C201.344 76.5531 201.55 76.6473 201.702 76.8169C201.858 76.9892 201.928 77.2001 201.914 77.4552L201.719 81.1758ZM203.291 68.7924C203.118 68.5868 203.036 68.351 203.05 68.0906L204.387 42.5777C204.402 42.2905 204.506 42.059 204.701 41.8862C204.896 41.7134 205.135 41.6344 205.422 41.6495L223.789 42.612C224.077 42.6271 224.309 42.7308 224.482 42.9229C224.655 43.115 224.734 43.3561 224.719 43.6433L224.526 47.3344C224.511 47.6216 224.407 47.8531 224.214 48.026C224.022 48.199 223.781 48.2778 223.493 48.2628L210.946 47.6052L210.669 52.9043L222.349 53.5165C222.637 53.5315 222.868 53.6433 223.041 53.8488C223.214 54.0544 223.295 54.3009 223.28 54.5908L223.101 58.0054C223.087 58.2658 222.981 58.4917 222.788 58.6781C222.595 58.8645 222.353 58.9514 222.065 58.9363L210.385 58.3242L210.099 63.779L222.96 64.453C223.248 64.4681 223.48 64.5718 223.653 64.7666C223.826 64.9587 223.908 65.1999 223.893 65.4871L223.699 69.1755C223.686 69.4359 223.582 69.662 223.386 69.8482C223.193 70.0346 222.951 70.1215 222.664 70.1064L203.985 69.1275C203.695 69.1123 203.466 69.0007 203.293 68.7952L203.291 68.7924ZM224.643 93.0502C224.463 95.1565 223.889 96.8869 222.92 98.244C221.951 99.601 220.659 100.583 219.047 101.196C217.431 101.808 215.552 102.06 213.417 101.948C211.281 101.836 209.438 101.389 207.896 100.611C206.354 99.8334 205.177 98.7192 204.368 97.2717C203.56 95.8215 203.165 94.0404 203.181 91.9255C203.209 90.9283 203.251 89.9237 203.304 88.917C203.357 87.9104 203.42 86.907 203.497 85.9096C203.7 83.8288 204.284 82.0962 205.255 80.7204C206.225 79.3419 207.524 78.3333 209.151 77.6998C210.778 77.0664 212.639 76.8005 214.732 76.9102C216.824 77.0198 218.672 77.4774 220.215 78.2797C221.759 79.082 222.945 80.2182 223.774 81.691C224.606 83.1639 225.003 84.9452 224.961 87.0345C224.955 88.0356 224.927 89.0381 224.874 90.0475C224.821 91.0568 224.744 92.0568 224.646 93.0504L224.643 93.0502Z" fill="#F2F2F2"/>
<path d="M24.5701 58.0747C24.8953 58.6624 25.2464 59.168 25.6259 59.5944C26.0054 60.0207 26.4232 60.3334 26.8846 60.5352C27.3432 60.7369 27.8517 60.812 28.41 60.7605C28.9655 60.7089 29.5778 60.5014 30.2444 60.1325C30.872 59.7859 31.3566 59.3914 31.7008 58.9464C32.0424 58.5013 32.2616 58.0229 32.3587 57.5085C32.4529 56.9966 32.433 56.4518 32.2932 55.8765C32.156 55.304 31.9149 54.7073 31.5724 54.089C31.2817 53.565 30.9533 53.0902 30.5869 52.6699C30.2207 52.247 29.8086 51.9293 29.3482 51.7087C28.8904 51.4908 28.3745 51.4019 27.8062 51.4394C27.2379 51.4769 26.6038 51.6886 25.9041 52.0719C25.2681 52.4235 24.7806 52.8233 24.4389 53.271C24.0971 53.7215 23.8829 54.2056 23.7965 54.7232C23.71 55.2409 23.7355 55.7833 23.8733 56.3451C24.0109 56.9095 24.2424 57.4842 24.5676 58.0719L24.5701 58.0747ZM26.3071 54.1603C26.4101 53.9961 26.5602 53.8587 26.7574 53.7506C26.9685 53.6324 27.1765 53.576 27.3814 53.576C27.5864 53.576 27.7878 53.643 27.9856 53.7799C28.1834 53.9168 28.3911 54.1215 28.6032 54.3964C28.8179 54.6742 29.0448 55.0279 29.2839 55.4577C29.5079 55.8651 29.6831 56.2269 29.8068 56.543C29.9305 56.859 29.9997 57.1345 30.0115 57.372C30.026 57.6096 29.9829 57.8146 29.8822 57.987C29.7841 58.1595 29.6198 58.3098 29.3921 58.4351C29.195 58.5432 29.0029 58.6058 28.8188 58.6204C28.6319 58.6348 28.4404 58.5844 28.2391 58.4635C28.0404 58.3427 27.8244 58.143 27.5989 57.8647C27.3735 57.5864 27.124 57.2018 26.8554 56.7167C26.6215 56.2926 26.4467 55.9227 26.3313 55.6017C26.216 55.2807 26.1551 55.003 26.1515 54.7632C26.1477 54.5261 26.1987 54.3242 26.3017 54.1601L26.3071 54.1603Z" fill="white"/>
<path d="M21.705 44.304C21.6133 44.4069 21.5487 44.5085 21.5137 44.6089C21.4761 44.7092 21.4485 44.8235 21.4258 44.9489L18.7884 65.7879C18.7662 65.9537 18.773 66.0805 18.8062 66.1684C18.842 66.2564 18.9091 66.3138 19.0102 66.3406C19.1113 66.3674 19.2469 66.353 19.4169 66.3C19.5868 66.247 19.8024 66.1479 20.0607 66.0053C20.2884 65.88 20.4777 65.7661 20.6261 65.6635C20.7744 65.5609 20.8929 65.4595 20.9818 65.3591C21.0707 65.2588 21.1352 65.1599 21.1782 65.0599C21.2212 64.9598 21.2514 64.8457 21.2694 64.7093L23.9095 43.8704C23.9283 43.7179 23.9186 43.5936 23.8886 43.4978C23.8558 43.4019 23.7889 43.3419 23.6876 43.3177C23.6371 43.3043 23.5779 43.3012 23.5128 43.3086L21.7333 44.2786C21.7333 44.2786 21.7163 44.2938 21.7105 44.3016L21.705 44.304Z" fill="white"/>
<path d="M15.0102 58.2197C15.5658 58.1681 16.1781 57.9606 16.8447 57.5918C17.4723 57.2451 17.9568 56.8506 18.3011 56.4057C18.6427 55.9606 18.8646 55.4823 18.959 54.9677C19.0532 54.4558 19.0332 53.911 18.8935 53.3357C18.7563 52.7633 18.5152 52.1665 18.1728 51.5456C17.8821 51.0216 17.5537 50.5468 17.1875 50.1238C16.8213 49.7009 16.4065 49.383 15.9486 49.1652C15.4908 48.9474 14.975 48.8585 14.4066 48.896C13.8383 48.9335 13.2043 49.1452 12.5046 49.5285C11.8686 49.8801 11.3811 50.2798 11.0394 50.7276C10.7002 51.1782 10.4861 51.6623 10.3969 52.1798C10.3103 52.7002 10.336 53.2399 10.4736 53.8043C10.6113 54.366 10.8427 54.9434 11.1679 55.5311C11.4931 56.1188 11.8441 56.6245 12.2236 57.0508C12.6031 57.4772 13.0236 57.7899 13.4823 57.9916C13.941 58.1933 14.4494 58.2684 15.0077 58.2169L15.0102 58.2197ZM14.2073 55.3243C13.9819 55.046 13.735 54.6616 13.4638 54.1763C13.2298 53.7522 13.055 53.3824 12.937 53.0612C12.8217 52.7403 12.7607 52.4625 12.7571 52.2227C12.7534 51.9857 12.8044 51.7838 12.9074 51.6196C13.0104 51.4554 13.1605 51.3179 13.3577 51.2098C13.5688 51.0916 13.7794 51.0354 13.9844 51.0354C14.1893 51.0353 14.3908 51.1024 14.5886 51.2393C14.7864 51.3762 14.9941 51.5809 15.2088 51.8586C15.4236 52.1337 15.6505 52.4874 15.8894 52.9199C16.1135 53.3273 16.2887 53.6891 16.4123 54.0052C16.536 54.3212 16.6052 54.5967 16.617 54.8342C16.6315 55.0718 16.5884 55.2769 16.4877 55.4492C16.387 55.6216 16.2254 55.772 15.9976 55.8973C15.8005 56.0054 15.6111 56.0682 15.4243 56.0826C15.2374 56.097 15.0459 56.0466 14.8446 55.9257C14.646 55.8049 14.4299 55.6052 14.2045 55.3269L14.2073 55.3243Z" fill="white"/>
<path d="M38.1613 75.3336L38.3502 71.7284C36.1867 71.9461 33.8673 71.1758 32.2612 69.918C31.8285 69.5804 31.4462 69.2077 31.1352 68.8119C29.8588 67.181 29.9838 65.4648 30.3893 64.159L36.9573 60.5355C38.7319 59.5572 40.4926 57.3506 41.0557 55.407C41.0557 55.407 41.4875 53.9088 41.8134 52.7845C42.5231 52.9294 43.0171 53.5394 43.3692 54.2308C43.7431 54.9691 43.9503 55.801 44.0716 56.265C44.325 57.2446 45.1915 64.1245 43.2108 68.2657L46.7716 68.4523C48.0386 64.7071 48.0342 60.0043 47.3389 55.8278C46.8117 52.6616 45.5588 50.324 43.6476 48.8672C42.0968 47.6849 40.1112 47.0802 37.7244 47.0816L37.5244 45.0846C39.8188 44.7876 42.3861 45.2532 43.8094 45.7801C43.8174 45.7805 43.8252 45.7863 43.8331 45.7894C44.0206 45.1451 44.0467 44.4412 43.9153 43.7587C43.8304 43.3209 43.6829 42.8932 43.4635 42.4995C42.9043 41.4876 41.9826 40.7556 40.8695 40.4335L31.2305 37.6618C29.2804 37.102 26.4726 37.4179 24.698 38.3962L2.86154 50.4363C0.770242 51.5918 0.00913163 54.2276 1.16456 56.3151L9.22807 70.8805C9.78723 71.8923 10.7088 72.627 11.8221 72.9465C12.9353 73.2659 14.1045 73.1361 15.1182 72.5754L26.5099 66.2949C26.5557 67.942 27.1208 69.2529 27.6551 70.1207C28.6342 71.7145 30.21 73.0353 32.0471 73.9526C32.7725 74.3136 33.5334 74.6146 34.3199 74.8388C35.5793 75.2009 36.8864 75.3717 38.1616 75.3282L38.1613 75.3336ZM12.2262 57.0536C11.8467 56.6273 11.4956 56.1217 11.1704 55.534C10.8452 54.9463 10.6139 54.3688 10.4761 53.8071C10.3385 53.2427 10.3129 52.703 10.3995 52.1826C10.4859 51.665 10.7001 51.1809 11.0419 50.7304C11.3836 50.2826 11.8711 49.8829 12.5071 49.5313C13.207 49.1453 13.8409 48.9363 14.4092 48.8988C14.9775 48.8613 15.4932 48.9529 15.9512 49.168C16.409 49.3858 16.8237 49.7064 17.19 50.1266C17.5564 50.5469 17.8848 51.0217 18.1754 51.5484C18.5179 52.1666 18.759 52.7634 18.896 53.3386C19.0359 53.9112 19.0559 54.456 18.9615 54.9705C18.8673 55.4824 18.6453 55.9607 18.3036 56.4085C17.9594 56.8534 17.4749 57.248 16.8472 57.5946C16.1779 57.9633 15.5684 58.1709 15.0128 58.2226C14.4574 58.2715 13.9489 58.1964 13.4874 57.9973C13.026 57.7954 12.6082 57.4828 12.2287 57.0565L12.2262 57.0536ZM23.7992 54.7234C23.8856 54.2057 24.0998 53.7216 24.4416 53.2712C24.7833 52.8234 25.2708 52.4236 25.9068 52.072C26.6067 51.6861 27.2406 51.4771 27.8089 51.4396C28.3772 51.402 28.8902 51.4935 29.3509 51.7088C29.8114 51.9267 30.2234 52.2471 30.5896 52.6701C30.9559 53.0904 31.287 53.5653 31.5751 54.0892C31.9176 54.7074 32.1585 55.3068 32.2959 55.8766C32.433 56.4518 32.4558 56.994 32.3614 57.5086C32.267 58.0232 32.0479 58.4989 31.7035 58.9465C31.3593 59.3915 30.8747 59.786 30.2471 60.1327C29.5805 60.5015 28.9682 60.709 28.4126 60.7606C27.8571 60.8123 27.3488 60.7345 26.8872 60.5353C26.4259 60.3335 26.0081 60.0209 25.6286 59.5945C25.2491 59.1682 24.898 58.6626 24.5728 58.0749C24.2476 57.4871 24.0136 56.9096 23.8785 56.348C23.7409 55.7836 23.7153 55.2439 23.8017 54.7262L23.7992 54.7234ZM22.0661 43.9999C22.2144 43.8973 22.4038 43.7834 22.6315 43.6581C22.8898 43.5155 23.1053 43.4164 23.2753 43.3634C23.3629 43.3384 23.4394 43.3209 23.5072 43.3136C23.575 43.3064 23.6314 43.3094 23.682 43.3228C23.7831 43.3496 23.85 43.4097 23.8829 43.5029C23.9156 43.5988 23.9226 43.723 23.9038 43.8755L21.2637 64.7144C21.2459 64.8481 21.2155 64.9649 21.1725 65.065C21.1295 65.165 21.065 65.2639 20.9761 65.3642C20.8873 65.4645 20.7688 65.5633 20.6204 65.6686C20.4721 65.7712 20.2827 65.8851 20.055 66.0104C19.7967 66.153 19.5812 66.2521 19.4112 66.3051C19.2412 66.3581 19.1056 66.3725 19.0045 66.3457C18.9035 66.3189 18.8362 66.2642 18.8005 66.1735C18.7674 66.0856 18.7607 65.9561 18.7827 65.793L21.4201 44.9539C21.4429 44.8286 21.4731 44.7145 21.5081 44.614C21.543 44.5135 21.6078 44.4093 21.6993 44.3091C21.7051 44.3013 21.7163 44.2938 21.7221 44.286C21.8107 44.1911 21.9235 44.0974 22.0606 44.0023L22.0661 43.9999Z" fill="#F85600"/>
<path d="M26.3367 55.602C26.452 55.923 26.6268 56.2929 26.8608 56.717C27.1294 57.2021 27.3763 57.5838 27.6043 57.865C27.8298 58.1433 28.043 58.3456 28.2445 58.4638C28.4431 58.5846 28.6373 58.6351 28.8241 58.6207C29.0084 58.6034 29.2004 58.5435 29.3975 58.4354C29.6252 58.31 29.7895 58.1598 29.8875 57.9873C29.9856 57.8148 30.0287 57.6098 30.0169 57.3723C30.0023 57.1346 29.9359 56.8593 29.8122 56.5432C29.6885 56.2272 29.5133 55.8654 29.2893 55.458C29.0502 55.0282 28.8234 54.6718 28.6086 54.3967C28.3938 54.1216 28.1889 53.9144 27.991 53.7802C27.7931 53.646 27.5918 53.5762 27.3868 53.5763C27.1818 53.5763 26.9738 53.6354 26.7628 53.7508C26.5656 53.8589 26.4182 53.9966 26.3125 54.1606C26.2095 54.3248 26.1585 54.5267 26.1622 54.7638C26.1658 55.0035 26.2268 55.2813 26.3421 55.6023L26.3367 55.602Z" fill="#F85600"/>
<path d="M15.4244 56.0799C15.6087 56.0627 15.8006 56.0027 15.9978 55.8946C16.2255 55.7693 16.3871 55.6189 16.4878 55.4466C16.5859 55.274 16.629 55.069 16.6171 54.8315C16.6026 54.5939 16.5335 54.3184 16.4125 54.0025C16.2888 53.6864 16.1136 53.3246 15.8895 52.9172C15.6505 52.4874 15.4237 52.131 15.2089 51.8559C14.9942 51.5782 14.7892 51.3736 14.5887 51.2366C14.3909 51.0997 14.1895 51.0327 13.9845 51.0327C13.7796 51.0327 13.5715 51.0918 13.3578 51.2071C13.1607 51.3152 13.0132 51.4528 12.9075 51.6169C12.8045 51.7811 12.7535 51.983 12.7573 52.2201C12.7609 52.4598 12.8191 52.7374 12.9371 53.0586C13.0525 53.3796 13.2273 53.7494 13.4639 54.1737C13.7325 54.6588 13.9794 55.0405 14.2074 55.3217C14.4329 55.6 14.6461 55.8023 14.8476 55.9205C15.0462 56.0413 15.2404 56.0918 15.4273 56.0774L15.4244 56.0799Z" fill="#F85600"/>
<path d="M198.452 30.3527C198.452 30.3527 198.687 31.2264 198.671 31.0668C198.795 31.7462 198.836 32.4078 199.075 33.0368C199.561 35.1296 202.409 36.4767 204.37 34.7194C203.835 35.1974 205.365 33.8483 205.524 33.5928C205.809 33.134 206.081 32.5318 206.232 32.0148C206.469 31.2035 206.453 30.2687 206.389 29.4308C206.316 28.4687 206.169 27.5028 206.017 26.5473C205.997 26.4197 205.948 26.1237 205.924 26.0148C205.922 25.6782 205.921 25.0268 205.824 25.6435C206.208 23.1548 205.131 20.7699 202.404 20.3605C199.656 19.95 197.95 21.9333 197.585 24.4122C197.342 26.0684 197.665 27.7865 198.151 29.3732C198.249 29.6988 198.359 30.0248 198.447 30.3525L198.452 30.3527Z" fill="#00DCE9"/>
<path d="M171.586 22.2771C171.406 22.6849 171.298 23.0991 171.246 23.511C170.988 25.5621 172.237 27.5576 174.328 28.219C173.333 27.903 174.15 28.1666 174.44 28.3352C174.451 28.3411 174.456 28.3441 174.464 28.3499C174.474 28.3612 174.481 28.3724 174.494 28.3865C174.869 28.7991 175.318 29.1807 175.733 29.5551C177.188 30.8642 178.644 31.6861 180.621 31.9027C183.747 32.247 185.541 27.7676 183.334 25.7138C181.432 23.9398 180.1 21.7085 177.838 20.3167C176.299 19.372 174.443 19.5278 173.086 20.4714C172.451 20.9119 171.922 21.5249 171.586 22.2798L171.586 22.2771Z" fill="#00DCE9"/>
<path d="M183.551 8.35491C184.618 9.03803 185.801 9.47686 186.964 9.96316C186.911 9.9496 187.533 10.2325 187.598 10.2683C187.85 10.3999 188.096 10.542 188.34 10.6867C188.494 10.7782 188.645 10.8749 188.797 10.9717C189.807 12.3221 191.514 12.8503 193.123 12.2482C194.724 11.6484 195.947 9.66675 195.366 7.94314C194.384 5.02219 191.482 2.96162 188.544 1.85742C187.82 1.05769 186.706 0.547087 185.709 0.529833C184.043 0.504468 182.543 1.65331 182.056 3.2294C181.981 3.46508 181.91 3.70358 181.84 3.94222C181.354 5.60987 182.097 7.42812 183.546 8.35463L183.551 8.35491Z" fill="#00DCE9"/>
<path d="M62.972 11.3789L53.9891 10.9081C53.6529 10.8905 53.3499 10.9096 53.0825 10.9683C52.8151 11.027 52.5339 11.1441 52.2362 11.3196L35.0347 23.2231C34.5409 23.4853 34.2459 23.8655 34.147 24.3637C34.0481 24.8619 34.1312 25.3346 34.3964 25.7792L38.3482 31.526C38.659 31.9757 39.0406 32.2595 39.4929 32.3774C39.9424 32.4979 40.3925 32.4003 40.8404 32.0873L51.0813 25.0708L49.2916 59.2196C49.2666 59.6974 49.4248 60.1256 49.7637 60.5041C50.1052 60.8827 50.5155 61.0818 50.9942 61.1069L60.3375 61.5966C60.8646 61.6242 61.3044 61.4669 61.6593 61.1275C62.0116 60.7853 62.2029 60.3781 62.228 59.8975L64.6719 13.2661C64.6995 12.74 64.5525 12.3016 64.2366 11.9486C63.9179 11.5981 63.4964 11.4064 62.9693 11.3788L62.972 11.3789Z" fill="#F85600"/>
<path d="M110.479 40.7356C109.647 38.7028 108.443 36.925 106.867 35.4023C105.288 33.8821 103.477 32.6701 101.437 31.7718C99.3936 30.8733 97.2466 30.3651 94.9928 30.247C92.4996 30.1163 90.5344 30.2556 89.0975 30.6567C87.6578 31.0604 86.3959 31.5703 85.3065 32.1862L86.7247 22.9818L107.568 24.0742C108.095 24.1018 108.548 23.9586 108.923 23.6418C109.301 23.3279 109.501 22.905 109.529 22.3788L109.882 15.6355C109.91 15.1094 109.752 14.6704 109.412 14.3161C109.069 13.9643 108.637 13.7721 108.11 13.7445L79.2864 12.2339C78.6624 12.2012 78.1285 12.3536 77.6768 12.6879C77.2276 13.0251 76.9332 13.548 76.8015 14.2598L72.9021 39.162C72.8796 39.5915 73.0162 39.9702 73.3118 40.2979C73.6075 40.6256 73.9705 40.8008 74.4008 40.8233L83.8166 41.3168C84.2954 41.3419 84.7326 41.2329 85.131 40.99C85.5265 40.7496 85.9765 40.4475 86.4754 40.0887C86.9741 39.7326 87.5909 39.4392 88.3254 39.2139C89.0573 38.9885 90.0002 38.906 91.1486 38.9662C92.6332 39.044 93.9239 39.4239 95.0155 40.1056C96.1097 40.7874 96.9507 41.6714 97.5438 42.7549C98.1369 43.8412 98.3945 45.101 98.3192 46.5372C98.2366 48.113 97.8188 49.4477 97.0659 50.5361C96.3104 51.6244 95.3462 52.4245 94.1649 52.9386C92.9864 53.4529 91.7236 53.6721 90.3815 53.6017C89.2331 53.5416 88.2091 53.321 87.3177 52.9378C86.4234 52.5572 85.6362 51.9856 84.9556 51.2312C84.2751 50.4769 83.7471 49.5393 83.3745 48.4162C83.2062 47.974 82.9466 47.6266 82.5987 47.3688C82.2509 47.111 81.765 46.9644 81.1438 46.9318L71.5127 46.4271C71.0797 46.4044 70.7144 46.5306 70.4117 46.8001C70.109 47.0695 69.9448 47.4243 69.9223 47.8538C69.8813 50.4897 70.5783 52.9865 72.0165 55.3392C73.4547 57.6918 75.647 59.6533 78.5906 61.2234C81.5343 62.7909 85.2599 63.6941 89.7648 63.9302C94.2696 64.1663 97.8995 63.6028 101.096 62.2602C104.289 60.9175 106.78 58.9726 108.572 56.4286C110.364 53.8845 111.348 50.9158 111.525 47.52C111.656 45.0342 111.305 42.7736 110.476 40.7409L110.479 40.7356Z" fill="#F85600"/>
<path d="M167.257 18.2817C167.307 17.326 166.781 16.8193 165.678 16.7615L160.573 16.494C159.904 16.4589 159.392 16.5532 159.046 16.7746C158.697 16.9959 158.343 17.3139 157.987 17.7259L120.037 62.4965C119.833 62.7254 119.723 62.9834 119.708 63.2706C119.657 64.2263 120.184 64.733 121.286 64.7908L126.391 65.0583C127.061 65.0934 127.57 65.0017 127.919 64.7777C128.265 64.5562 128.619 64.2383 128.977 63.8264L166.927 19.0585C167.131 18.8296 167.242 18.5716 167.257 18.2844L167.257 18.2817Z" fill="#F85600"/>
<path d="M168.989 58.1547C169.148 56.9168 169.254 55.8187 169.304 54.8604C169.354 53.902 169.366 52.7559 169.342 51.4087C169.301 48.4833 168.396 46.0967 166.618 44.2538C164.841 42.411 162.229 41.3966 158.779 41.2158C155.328 41.0349 152.682 41.7711 150.699 43.4195C148.714 45.0652 147.551 47.3434 147.208 50.2487C147.089 51.5857 147.005 52.7334 146.955 53.6891C146.904 54.6447 146.871 55.7466 146.854 56.9947C146.943 59.8769 147.912 62.2292 149.764 64.0544C151.615 65.8769 154.168 66.8747 157.428 67.0456C160.687 67.2164 163.341 66.4914 165.395 64.8736C167.448 63.2531 168.647 61.0144 168.991 58.1549L168.989 58.1547ZM161.319 57.3194C161.241 57.8914 161.069 58.4476 160.801 58.9827C160.532 59.5205 160.162 59.956 159.686 60.2917C159.212 60.6276 158.568 60.7715 157.753 60.7288C156.984 60.6885 156.372 60.4761 155.912 60.094C155.452 59.7092 155.127 59.2372 154.94 58.6756C154.754 58.114 154.649 57.5459 154.633 56.969C154.642 55.8659 154.671 54.8633 154.718 53.9533C154.766 53.0433 154.842 52.0647 154.945 51.0149C155.039 50.11 155.359 49.2977 155.903 48.5833C156.445 47.8688 157.29 47.5416 158.441 47.6019C159.592 47.6622 160.469 48.0796 160.935 48.847C161.399 49.6143 161.63 50.4555 161.631 51.3653C161.673 52.4227 161.67 53.4051 161.622 54.3151C161.575 55.2251 161.474 56.2239 161.319 57.3194Z" fill="#F85600"/>
<path d="M120.605 37.2394C122.458 39.0404 125.036 40.0261 128.341 40.1993C131.647 40.3726 134.254 39.6586 136.309 38.0624C138.361 36.4687 139.535 34.2395 139.831 31.3775C139.99 30.1395 140.099 29.0416 140.149 28.0832C140.199 27.1249 140.211 25.9761 140.185 24.6315C140.19 21.7542 139.305 19.3955 137.53 17.5501C135.752 15.7073 133.141 14.6929 129.687 14.5119C126.234 14.331 123.52 15.0636 121.535 16.7119C119.55 18.3603 118.413 20.6129 118.117 23.475C117.999 24.812 117.904 25.9591 117.829 26.9135C117.755 27.8679 117.732 28.9703 117.764 30.221C117.804 33.1006 118.752 35.4411 120.603 37.2392L120.605 37.2394ZM125.789 24.3104C125.934 23.4082 126.265 22.5964 126.782 21.8806C127.3 21.1648 128.158 20.8383 129.355 20.901C130.552 20.9638 131.313 21.3751 131.777 22.1424C132.241 22.9096 132.474 23.7509 132.475 24.6608C132.514 25.7181 132.514 26.7006 132.466 27.6106C132.419 28.5206 132.318 29.5194 132.163 30.6149C132.133 31.1894 131.983 31.7441 131.715 32.2818C131.446 32.8196 131.063 33.2437 130.566 33.5541C130.07 33.8619 129.437 33.9983 128.671 33.9582C127.856 33.9154 127.217 33.715 126.755 33.3544C126.294 32.9938 125.981 32.5332 125.819 31.9729C125.657 31.4126 125.541 30.8439 125.475 30.2644C125.484 29.1612 125.512 28.156 125.56 27.2486C125.607 26.3413 125.683 25.36 125.787 24.3103L125.789 24.3104Z" fill="#F85600"/>
<path d="M177.792 67.7522L188.214 68.2983C190.783 68.4329 192.973 68.1601 194.783 67.4824C196.593 66.8047 198.006 65.6917 199.02 64.1432C200.034 62.5974 200.659 60.6086 200.891 58.1793C200.977 57.0559 201.043 56.0634 201.088 55.199C201.133 54.3346 201.172 53.3272 201.206 52.1742C201.25 49.8427 200.828 47.8583 199.94 46.2236C199.052 44.5889 197.727 43.3135 195.961 42.3945C194.194 41.4755 192.026 40.9474 189.458 40.8128L179.232 40.2769C178.942 40.2617 178.703 40.3407 178.511 40.5137C178.318 40.6866 178.212 40.9179 178.197 41.2051L176.86 66.7181C176.846 66.9784 176.925 67.2141 177.101 67.4198C177.273 67.6253 177.505 67.7371 177.792 67.7522ZM185.031 46.247L188.963 46.4531C190.695 46.5439 191.975 47.0255 192.811 47.8957C193.644 48.7658 194.042 50.0921 194.002 51.872C194.015 52.6076 194.015 53.2778 193.997 53.8799C193.979 54.4819 193.947 55.0832 193.902 55.6865C193.857 56.2871 193.789 56.9646 193.696 57.7214C193.604 58.9495 193.348 59.932 192.932 60.672C192.51 61.4117 191.919 61.9379 191.152 62.2504C190.386 62.5655 189.438 62.6908 188.314 62.6319L184.183 62.4154L185.031 46.2444L185.031 46.247Z" fill="#00DCE9"/>
<path d="M223.384 69.8454C223.577 69.659 223.683 69.4331 223.697 69.1727L223.89 65.4843C223.905 65.197 223.826 64.956 223.65 64.7637C223.477 64.5716 223.245 64.4653 222.957 64.4502L210.096 63.7762L210.382 58.3214L222.062 58.9335C222.35 58.9486 222.592 58.8617 222.785 58.6753C222.978 58.4889 223.085 58.263 223.098 58.0026L223.277 54.588C223.292 54.2981 223.211 54.0515 223.038 53.846C222.866 53.6404 222.634 53.5287 222.347 53.5136L210.666 52.9015L210.944 47.6024L223.49 48.2599C223.778 48.275 224.019 48.1962 224.212 48.0232C224.404 47.8502 224.508 47.6188 224.523 47.3316L224.717 43.6405C224.732 43.3532 224.653 43.1122 224.479 42.9201C224.306 42.7279 224.074 42.6243 223.786 42.6092L205.42 41.6467C205.129 41.6314 204.891 41.7104 204.698 41.8834C204.506 42.0563 204.399 42.2876 204.384 42.5749L203.047 68.0878C203.034 68.3482 203.113 68.5838 203.288 68.7895C203.461 68.9951 203.692 69.1068 203.98 69.1219L222.658 70.1008C222.946 70.1159 223.188 70.0289 223.381 69.8426L223.384 69.8454Z" fill="#00DCE9"/>
<path d="M39.4159 68.0668C39.1604 68.0534 38.9463 68.1257 38.7765 68.2783C38.6067 68.4309 38.5123 68.6359 38.4989 68.8909L37.3142 91.4966C37.3021 91.7274 37.3721 91.9357 37.5272 92.1161C37.6794 92.299 37.8847 92.3959 38.1402 92.4093L47.3732 92.8932C49.6511 93.0126 51.592 92.7724 53.1931 92.1699C54.797 91.5676 56.0488 90.5807 56.9458 89.2118C57.8428 87.8429 58.3964 86.0792 58.6036 83.9258C58.68 82.9312 58.7371 82.0486 58.777 81.2862C58.817 80.5238 58.8532 79.6266 58.8825 78.6053C58.9207 76.5373 58.5462 74.7814 57.7617 73.3352C56.9746 71.8861 55.8014 70.756 54.2367 69.9418C52.672 69.1276 50.7521 68.6609 48.4741 68.5415L39.4159 68.0668ZM51.4461 74.8185C52.1851 75.5894 52.5388 76.7654 52.5019 78.3436C52.5136 78.9956 52.5122 79.5877 52.495 80.1225C52.4804 80.6574 52.4526 81.1889 52.4111 81.7224C52.3724 82.2561 52.3113 82.8558 52.2302 83.5272C52.1489 84.6158 51.9253 85.487 51.5511 86.1431C51.1796 86.7992 50.6536 87.2643 49.9755 87.5437C49.2976 87.8204 48.4582 87.9352 47.4577 87.8828L43.8001 87.6911L44.551 73.3616L48.0339 73.5441C49.5669 73.6244 50.7043 74.0501 51.4433 74.821L51.4461 74.8185Z" fill="#00DCE9"/>
<path d="M79.8984 89.5802L68.5058 88.9832L68.7591 84.1485L79.1082 84.6909C79.3637 84.7043 79.5782 84.6267 79.7485 84.4633C79.9217 84.2974 80.013 84.1003 80.0251 83.8695L80.1838 80.8414C80.1971 80.5864 80.1277 80.3674 79.9728 80.1843C79.8206 80.0014 79.6153 79.9045 79.3598 79.8911L69.0107 79.3487L69.2567 74.6536L80.3723 75.2362C80.6279 75.2496 80.8419 75.18 81.0117 75.0274C81.1815 74.8748 81.2758 74.6698 81.2893 74.4121L81.4607 71.1424C81.474 70.8874 81.4042 70.6765 81.2487 70.5041C81.0958 70.3346 80.8904 70.2404 80.6349 70.227L64.3635 69.3743C64.108 69.3609 63.8939 69.4331 63.7241 69.5857C63.5514 69.7409 63.4599 69.9433 63.4465 70.1984L62.2618 92.804C62.2497 93.0349 62.3197 93.2431 62.4748 93.4235C62.627 93.6065 62.8323 93.7034 63.0878 93.7168L79.6388 94.5842C79.8943 94.5976 80.1088 94.52 80.2818 94.3568C80.4523 94.1907 80.5436 93.9936 80.5557 93.7628L80.727 90.4931C80.7404 90.2381 80.6707 90.0245 80.5178 89.855C80.3623 89.6826 80.1567 89.5911 79.9012 89.5777L79.8984 89.5802Z" fill="#00DCE9"/>
<path d="M100.986 82.5749C99.7148 81.9162 98.0327 81.3354 95.9395 80.83C94.6766 80.4839 93.6847 80.1654 92.9692 79.8722C92.251 79.5788 91.7423 79.2507 91.4486 78.8853C91.1522 78.5199 91.0173 78.109 91.0417 77.6446C91.0805 76.9037 91.3944 76.3683 91.9809 76.0357C92.5699 75.7059 93.3728 75.5676 94.3948 75.6211C95.3468 75.671 96.1114 75.9022 96.683 76.3171C97.2546 76.732 97.597 77.1968 97.7101 77.7141C97.839 77.9309 97.9925 78.0896 98.1759 78.1908C98.3566 78.2945 98.5747 78.3517 98.8302 78.3651L103.429 78.6061C103.661 78.6182 103.845 78.5525 103.979 78.4088C104.113 78.2651 104.187 78.102 104.196 77.9141C104.211 77.1719 104.025 76.4004 103.638 75.5995C103.248 74.8011 102.655 74.0298 101.855 73.2907C101.055 72.5516 100.057 71.9394 98.8604 71.4594C97.6639 70.9795 96.2629 70.6961 94.66 70.6121C92.6859 70.5087 90.9616 70.7332 89.49 71.2833C88.0183 71.8334 86.8512 72.6443 85.9914 73.7164C85.1315 74.7884 84.6645 76.0318 84.5905 77.4438C84.5165 78.8558 84.7777 80.0997 85.3781 81.0948C85.9786 82.0899 86.8845 82.9181 88.0961 83.5737C89.3077 84.2294 90.7859 84.7887 92.5334 85.2545C93.8877 85.6054 94.9706 85.9367 95.7825 86.2431C96.5943 86.5521 97.1757 86.8814 97.5327 87.2231C97.8868 87.5674 98.05 88.0039 98.022 88.5381C97.9843 89.2576 97.613 89.8061 96.9053 90.1889C96.1977 90.569 95.1701 90.7252 93.8226 90.6545C93.0319 90.6131 92.3648 90.4785 91.8156 90.2533C91.2692 90.0281 90.8364 89.7443 90.5147 89.3991C90.1955 89.0566 89.9522 88.7074 89.7848 88.3514C89.6546 88.1588 89.5065 88.0003 89.3379 87.873C89.1691 87.7484 88.9221 87.6763 88.5994 87.6594L84.2101 87.4293C84.0004 87.4183 83.8161 87.4868 83.6577 87.6265C83.4964 87.7715 83.4151 87.9341 83.4054 88.1193C83.3879 89.3271 83.7451 90.4871 84.4801 91.5916C85.2148 92.7014 86.3315 93.624 87.8299 94.3647C89.3283 95.1054 91.2394 95.5367 93.5631 95.6585C95.6313 95.7669 97.4629 95.5533 99.0629 95.0234C100.663 94.4909 101.946 93.6806 102.912 92.5925C103.878 91.5045 104.401 90.1699 104.483 88.5941C104.558 87.1794 104.31 85.9874 103.746 85.0157C103.179 84.0439 102.262 83.2287 100.991 82.5699L100.986 82.5749Z" fill="#00DCE9"/>
<path d="M115.492 77.7901C116.271 77.123 117.301 76.8216 118.579 76.8885C119.646 76.9445 120.535 77.2172 121.243 77.7092C121.951 78.1985 122.434 79.0664 122.698 80.3131C122.795 80.6681 122.923 80.9117 123.077 81.049C123.235 81.1864 123.463 81.2603 123.764 81.2761L128.468 81.5226C128.678 81.5336 128.859 81.4731 129.019 81.3416C129.177 81.2099 129.251 81.0388 129.238 80.8281C129.282 79.5302 129.057 78.3503 128.566 77.2881C128.074 76.2287 127.359 75.3083 126.421 74.527C125.483 73.7456 124.374 73.1303 123.095 72.6784C121.814 72.229 120.406 71.9614 118.873 71.8811C116.714 71.7679 114.826 72.0297 113.207 72.6662C111.587 73.3028 110.302 74.3041 109.346 75.6725C108.39 77.041 107.813 78.7309 107.613 80.7446C107.537 81.7393 107.471 82.783 107.414 83.8728C107.357 84.9627 107.314 85.9834 107.289 86.9349C107.275 89.0042 107.666 90.7555 108.464 92.1917C109.263 93.6279 110.431 94.7471 111.975 95.5494C113.516 96.3515 115.38 96.8072 117.564 96.9217C119.097 97.002 120.524 96.8857 121.846 96.5701C123.165 96.2542 124.334 95.7583 125.346 95.0792C126.361 94.4002 127.168 93.5596 127.768 92.5574C128.368 91.5525 128.714 90.4024 128.807 89.1071C128.839 88.8988 128.786 88.7211 128.643 88.5763C128.497 88.4286 128.323 88.3495 128.113 88.3385L123.409 88.092C123.108 88.0762 122.868 88.1283 122.687 88.2453C122.505 88.3623 122.358 88.5941 122.249 88.9383C121.881 90.1277 121.316 90.9352 120.549 91.3607C119.783 91.7862 118.864 91.9696 117.797 91.9136C116.519 91.8467 115.526 91.4394 114.821 90.6944C114.113 89.9494 113.769 88.7496 113.788 87.1005C113.822 85.1023 113.924 83.1561 114.094 81.2565C114.25 79.6119 114.715 78.4573 115.497 77.7903L115.492 77.7901Z" fill="#00DCE9"/>
<path d="M152.345 77.9448C151.513 76.4719 150.327 75.333 148.786 74.5335C147.244 73.734 145.416 73.2748 143.302 73.164C141.188 73.0532 139.351 73.3177 137.721 73.9536C136.091 74.5896 134.792 75.5956 133.825 76.9742C132.855 78.3527 132.27 80.0826 132.067 82.1634C131.99 83.1608 131.927 84.1615 131.874 85.1709C131.821 86.1802 131.78 87.1821 131.752 88.1793C131.735 90.2942 132.13 92.0753 132.939 93.5255C133.747 94.9757 134.924 96.0872 136.466 96.8652C138.009 97.6432 139.849 98.0896 141.987 98.2016C144.125 98.3137 146.002 98.0621 147.617 97.4496C149.232 96.837 150.524 95.8523 151.491 94.4978C152.46 93.1408 153.033 91.4104 153.214 89.3041C153.312 88.3105 153.388 87.3078 153.441 86.3012C153.494 85.2945 153.522 84.2892 153.529 83.2882C153.568 81.1988 153.174 79.4149 152.342 77.9447L152.345 77.9448ZM146.746 88.7578C146.615 90.3768 146.141 91.5391 145.323 92.2391C144.506 92.9393 143.481 93.2597 142.252 93.1953C141.023 93.1309 140.069 92.7094 139.33 91.9251C138.589 91.1433 138.229 89.9373 138.244 88.3123C138.273 87.2909 138.313 86.3293 138.361 85.422C138.408 84.5146 138.468 83.581 138.543 82.6051C138.646 81.5203 138.902 80.6428 139.309 79.9777C139.716 79.3153 140.243 78.8342 140.887 78.5422C141.53 78.2502 142.249 78.1237 143.037 78.165C143.825 78.2063 144.561 78.4091 145.171 78.7667C145.781 79.1244 146.249 79.655 146.574 80.3584C146.898 81.0618 147.053 81.9583 147.042 83.0505C147.037 84.0274 147.012 84.9682 146.964 85.8729C146.917 86.7775 146.842 87.74 146.743 88.7577L146.746 88.7578Z" fill="#00DCE9"/>
<path d="M177.429 75.2998L173.25 75.0808C172.994 75.0674 172.78 75.1396 172.608 75.2921C172.438 75.4474 172.346 75.6498 172.333 75.9049L171.644 89.0506L163.842 75.2499C163.802 75.1536 163.698 75.0163 163.533 74.8326C163.367 74.649 163.086 74.5481 162.691 74.5274L158.998 74.3339C158.743 74.3205 158.529 74.3927 158.359 74.5453C158.189 74.6979 158.095 74.9029 158.081 75.158L156.897 97.7636C156.884 97.9945 156.954 98.2027 157.109 98.3831C157.262 98.5661 157.467 98.663 157.723 98.6764L161.905 98.8956C162.16 98.9089 162.372 98.8312 162.545 98.668C162.715 98.502 162.809 98.305 162.821 98.0741L163.485 85.4143L171.312 98.7264C171.354 98.7986 171.458 98.9305 171.623 99.1276C171.788 99.322 172.055 99.4302 172.426 99.4496L176.153 99.645C176.409 99.6584 176.623 99.5808 176.794 99.4174C176.967 99.2516 177.059 99.0437 177.072 98.786L178.255 76.2152C178.268 75.9602 178.199 75.7493 178.043 75.5769C177.89 75.4074 177.685 75.3132 177.429 75.2998Z" fill="#00DCE9"/>
<path d="M201.089 76.5397L182.343 75.5573C182.087 75.5439 181.873 75.6162 181.701 75.7686C181.531 75.9239 181.437 76.1262 181.423 76.3813L181.228 80.1019C181.216 80.3355 181.289 80.5412 181.441 80.7241C181.596 80.9072 181.799 81.0039 182.057 81.0175L188.259 81.3425L187.315 99.3578C187.302 99.5886 187.372 99.7969 187.525 99.9771C187.68 100.16 187.882 100.257 188.141 100.271L192.74 100.512C192.995 100.525 193.209 100.447 193.38 100.284C193.553 100.118 193.644 99.921 193.656 99.6901L194.6 81.6749L200.802 81.9999C201.058 82.0133 201.272 81.9357 201.443 81.7723C201.616 81.6064 201.707 81.4093 201.719 81.1758L201.914 77.4552C201.928 77.2001 201.858 76.9892 201.702 76.8169C201.55 76.6473 201.344 76.5531 201.089 76.5397Z" fill="#00DCE9"/>
<path d="M223.772 81.6882C222.94 80.2152 221.754 79.0763 220.213 78.2768C218.672 77.4774 216.843 77.0181 214.729 76.9073C212.615 76.7966 210.778 77.061 209.148 77.697C207.518 78.333 206.22 79.3389 205.252 80.7176C204.282 82.0961 203.698 83.8259 203.494 85.9068C203.418 86.9041 203.354 87.9049 203.301 88.9142C203.249 89.9236 203.207 90.9254 203.179 91.9226C203.162 94.0375 203.557 95.8187 204.366 97.2689C205.174 98.719 206.351 99.8305 207.894 100.609C209.436 101.387 211.276 101.833 213.414 101.945C215.552 102.057 217.429 101.805 219.044 101.193C220.659 100.58 221.951 99.5956 222.918 98.2411C223.887 96.8841 224.46 95.1537 224.641 93.0474C224.739 92.0539 224.816 91.0512 224.868 90.0445C224.921 89.0378 224.95 88.0326 224.956 87.0316C224.996 84.9421 224.601 83.1583 223.769 81.688L223.772 81.6882ZM218.175 92.5013C218.045 94.1203 217.571 95.2826 216.752 95.9826C215.936 96.6828 214.911 97.0032 213.682 96.9388C212.453 96.8744 211.499 96.4529 210.76 95.6686C210.019 94.8868 209.659 93.6808 209.674 92.0558C209.703 91.0344 209.743 90.0728 209.79 89.1655C209.838 88.2581 209.898 87.3245 209.973 86.3486C210.076 85.2638 210.332 84.3863 210.739 83.7212C211.146 83.0588 211.673 82.5777 212.317 82.2857C212.96 81.9937 213.679 81.8672 214.467 81.9085C215.255 81.9498 215.991 82.1526 216.601 82.5102C217.211 82.8679 217.679 83.3985 218.003 84.1019C218.328 84.8053 218.483 85.7018 218.472 86.794C218.467 87.7709 218.441 88.7117 218.394 89.6164C218.347 90.521 218.272 91.4835 218.173 92.5012L218.175 92.5013Z" fill="#00DCE9"/>
</svg>
