<svg width="231" height="109" viewBox="0 0 231 109" fill="none" xmlns="http://www.w3.org/2000/svg">
<path d="M190.767 62.2516C191.531 61.9363 192.125 61.4102 192.546 60.6732C192.965 59.9334 193.222 58.9509 193.31 57.7227C193.401 56.9656 193.472 56.2883 193.517 55.6877C193.562 55.0871 193.593 54.4858 193.612 53.8811C193.63 53.2791 193.632 52.6089 193.617 51.8733C193.656 50.0934 193.259 48.767 192.426 47.8969C191.59 47.024 190.309 46.5451 188.577 46.4543L184.645 46.2483L183.798 62.4193L187.929 62.6358C189.056 62.6949 190.004 62.5669 190.767 62.2543L190.767 62.2516Z" fill="#F2F2F2"/>
<path d="M43.4179 87.6871L47.0756 87.8788C48.0734 87.9311 48.9127 87.8163 49.5933 87.5397C50.2714 87.2603 50.7974 86.7952 51.1689 86.1391C51.5403 85.4856 51.7666 84.6145 51.8481 83.5232C51.9289 82.8545 51.9902 82.252 52.0289 81.7184C52.0702 81.1876 52.0982 80.6534 52.1128 80.1185C52.13 79.5837 52.1314 78.9916 52.1197 78.3396C52.1566 76.7614 51.8029 75.5854 51.0639 74.8145C50.3249 74.0436 49.1876 73.6179 47.6546 73.5375L44.1717 73.355L43.4207 87.6846L43.4179 87.6871Z" fill="#F2F2F2"/>
<path d="M38.3915 68.2768C38.5613 68.1242 38.7754 68.052 39.0309 68.0654L42.8284 68.2644C44.8091 64.1259 43.9427 57.2433 43.6893 56.2636C43.5681 55.797 43.3608 54.9678 42.9869 54.2295L42.7425 58.8924C42.6842 60.0037 42.8617 61.0951 43.2507 62.1115L39.3563 61.9074C37.4602 61.808 35.6497 62.4426 34.26 63.6942C32.8676 64.9456 32.0488 66.6739 31.9496 68.5664L31.8789 69.9167C33.4852 71.1718 35.8072 71.9422 37.9679 71.7271L38.1166 68.8896C38.13 68.6346 38.2215 68.4321 38.3941 68.2769L38.3915 68.2768Z" fill="#F2F2F2"/>
<path d="M125.434 31.9714C125.596 32.5317 125.909 32.9923 126.37 33.3529C126.832 33.7136 127.471 33.914 128.286 33.9567C129.052 33.9969 129.685 33.8631 130.181 33.5527C130.678 33.2449 131.061 32.8182 131.33 32.2804C131.598 31.7426 131.748 31.1879 131.778 30.6134C131.93 29.5178 132.034 28.5165 132.081 27.6091C132.129 26.7018 132.132 25.7167 132.09 24.6594C132.089 23.7495 131.858 22.9083 131.392 22.1409C130.928 21.3736 130.121 20.9599 128.97 20.8996C127.819 20.8392 126.915 21.1633 126.397 21.8791C125.88 22.595 125.549 23.4067 125.404 24.309C125.301 25.3587 125.225 26.3373 125.177 27.2473C125.13 28.1573 125.102 29.1599 125.092 30.263C125.159 30.8426 125.272 31.4111 125.437 31.9716L125.434 31.9714Z" fill="#F2F2F2"/>
<path d="M160.55 48.8456C160.086 48.0783 159.253 47.6632 158.056 47.6004C156.859 47.5377 156.06 47.8673 155.518 48.5818C154.977 49.2964 154.656 50.1087 154.56 51.0135C154.457 52.0632 154.381 53.0418 154.333 53.9518C154.286 54.8618 154.257 55.8644 154.248 56.9676C154.264 57.5444 154.369 58.1152 154.555 58.6741C154.742 59.2357 155.065 59.7076 155.527 60.0925C155.987 60.4773 156.602 60.6872 157.368 60.7273C158.181 60.7699 158.827 60.6235 159.301 60.2903C159.774 59.9544 160.145 59.5189 160.416 58.9812C160.684 58.4435 160.856 57.8899 160.934 57.318C161.089 56.2224 161.19 55.2237 161.237 54.3136C161.285 53.4036 161.288 52.4213 161.246 51.3639C161.245 50.454 161.014 49.6128 160.55 48.8456Z" fill="#F2F2F2"/>
<path d="M146.191 80.3598C145.866 79.659 145.398 79.1257 144.789 78.7681C144.179 78.4104 143.467 78.2089 142.655 78.1663C141.842 78.1238 141.148 78.2516 140.504 78.5436C139.861 78.8355 139.334 79.314 138.927 79.9791C138.52 80.6442 138.264 81.519 138.161 82.6065C138.085 83.5797 138.025 84.5187 137.978 85.4233C137.931 86.328 137.891 87.2923 137.862 88.3136C137.844 89.9386 138.207 91.1447 138.948 91.9264C139.686 92.7081 140.659 93.1332 141.869 93.1967C143.08 93.2601 144.124 92.9433 144.94 92.2405C145.759 91.5405 146.232 90.3782 146.363 88.7592C146.462 87.7415 146.537 86.7817 146.584 85.8744C146.632 84.967 146.657 84.0316 146.662 83.0521C146.673 81.9625 146.516 81.0632 146.194 80.3599L146.191 80.3598Z" fill="#F2F2F2"/>
<path d="M217.618 84.1031C217.294 83.4024 216.825 82.8691 216.216 82.5114C215.606 82.1538 214.894 81.9522 214.082 81.9097C213.269 81.8671 212.575 81.9949 211.931 82.2869C211.288 82.5789 210.761 83.0573 210.354 83.7224C209.947 84.3875 209.691 85.2624 209.588 86.3499C209.513 87.323 209.453 88.262 209.405 89.1667C209.358 90.0713 209.318 91.0356 209.289 92.057C209.274 93.682 209.634 94.888 210.375 95.6698C211.114 96.4514 212.086 96.8766 213.297 96.94C214.507 97.0034 215.551 96.6867 216.367 95.9838C217.186 95.2838 217.66 94.1215 217.79 92.5025C217.889 91.4848 217.964 90.5251 218.012 89.6177C218.059 88.7104 218.084 87.7749 218.089 86.7954C218.101 85.7058 217.943 84.8065 217.621 84.1033L217.618 84.1031Z" fill="#F2F2F2"/>
<path d="M230.751 87.109C230.807 83.9302 230.139 81.0877 228.772 78.6661C228.039 77.3652 227.139 76.2144 226.086 75.2171C226.512 74.9541 226.911 74.6466 227.283 74.2892C228.606 73.0207 229.386 71.3173 229.482 69.4946L229.675 65.8061C229.766 64.0613 229.242 62.3891 228.193 61.0367C228.596 60.1937 228.833 59.2748 228.883 58.3245L229.062 54.9099C229.115 53.8898 228.958 52.8855 228.602 51.9517C229.625 50.7617 230.226 49.2642 230.311 47.6536L230.504 43.9625C230.604 42.0485 229.964 40.2195 228.703 38.8102C228.693 38.7989 228.682 38.7876 228.672 38.7763C227.4 37.3771 225.644 36.5529 223.729 36.4526L205.363 35.49C203.435 35.389 201.597 36.0329 200.184 37.3021C200.04 37.4318 199.906 37.5648 199.775 37.7033C199.344 37.4277 198.897 37.1647 198.432 36.9223C195.883 35.5962 192.846 34.8341 189.398 34.6534L179.173 34.1175C177.244 34.0164 175.406 34.6603 173.997 35.927C172.582 37.1961 171.748 38.9559 171.647 40.8779L171.638 41.0632C171.339 40.6895 171.021 40.3256 170.686 39.9769C168.223 37.4225 164.937 35.8425 160.895 35.2673L170.864 23.5097C170.915 23.0978 171.023 22.6836 171.204 22.2758C171.537 21.5207 172.066 20.9078 172.704 20.4674C172.894 19.8691 173.01 19.2453 173.044 18.6037C173.275 14.2039 170.153 10.8397 165.621 10.6022L160.516 10.3347C158.54 10.2311 156.8 10.646 155.343 11.5737C154.487 12.1183 153.673 12.8347 152.926 13.6974C152.915 13.7129 152.901 13.7256 152.889 13.7412L145.809 22.0916C145.34 18.6888 143.909 15.6771 141.595 13.2758C138.702 10.2762 134.676 8.62243 129.627 8.35787C124.579 8.09331 120.414 9.30973 117.202 11.9732C116.571 12.4973 115.994 13.0647 115.46 13.6666C115.138 12.3092 114.464 11.0626 113.467 10.0278C112.047 8.56168 110.121 7.69358 108.047 7.58491L79.2241 6.07435C77.1559 5.96596 75.2081 6.54491 73.586 7.75197C72.4689 8.58711 71.0547 10.0985 70.45 12.6321C70.339 10.8389 69.645 9.15783 68.4345 7.81308C67.0222 6.25319 65.0586 5.33197 62.9097 5.21935L53.9268 4.74858C53.0447 4.70235 52.1917 4.76801 51.3925 4.94147C50.4787 5.13853 49.5753 5.49765 48.7069 6.01204C48.579 6.08609 48.4561 6.16579 48.333 6.25086L31.3331 18.0141C29.4361 19.1664 28.1253 21.0224 27.7058 23.1592C27.3138 25.1333 27.6678 27.1788 28.7012 28.918C28.7706 29.0347 28.8454 29.1517 28.9231 29.2634L32.8749 35.0103C32.8749 35.0103 32.8875 35.0271 32.8925 35.0354C34.0461 36.6948 35.6476 37.834 37.5229 38.3306C39.7012 38.9105 41.9549 38.5171 43.8809 37.221L43.5384 43.7576C43.6699 44.4375 43.6438 45.1414 43.4562 45.7883C43.4481 45.7879 43.4403 45.7821 43.4324 45.779L43.2706 48.8661C45.1846 50.3231 46.4348 52.6605 46.9619 55.8268C47.6573 60.0032 47.6616 64.7061 46.3947 68.4513L48.0944 68.5404C50.3724 68.6598 52.2924 69.1265 53.8571 69.9406C55.4217 70.7548 56.5975 71.8878 57.382 73.334C58.1665 74.7803 58.5409 76.5388 58.5028 78.6041C58.4736 79.6255 58.4375 80.5199 58.3974 81.285C58.3573 82.0501 58.3004 82.93 58.224 83.9247C58.0169 86.0753 57.4633 87.8391 56.5662 89.2106C55.669 90.5822 54.4174 91.5664 52.8135 92.1688C51.2098 92.7684 49.2688 93.0113 46.9935 92.892L37.7605 92.4082C37.505 92.3948 37.2999 92.2952 37.1475 92.1149C36.9926 91.9318 36.9225 91.7263 36.9346 91.4954L37.7818 75.3297C36.5066 75.3732 35.1995 75.2025 33.9401 74.8404C33.1565 74.6136 32.3927 74.3151 31.6673 73.9541L30.7649 91.1721C30.6714 92.9572 31.2545 94.6944 32.4069 96.0684C33.6683 97.5746 35.4557 98.4624 37.4378 98.5663L46.6708 99.0501C49.7906 99.2136 52.5879 98.8407 54.9921 97.9411C55.7156 97.6695 56.4039 97.3502 57.0515 96.9831C57.1496 97.1175 57.2479 97.2491 57.3572 97.376C58.6186 98.8822 60.406 99.77 62.3881 99.8739L78.9392 100.741C80.6524 100.831 82.2864 100.322 83.6104 99.2956C83.9636 99.5025 84.3252 99.7045 84.7038 99.8913C86.9855 101.02 89.6519 101.653 92.8578 101.821C95.6871 101.969 98.3035 101.651 100.634 100.877C102.357 100.305 103.886 99.4995 105.212 98.4842C106.233 99.4772 107.413 100.325 108.747 101.017C111.07 102.226 113.801 102.918 116.864 103.079C118.978 103.19 121.01 103.019 122.908 102.566C124.942 102.081 126.796 101.284 128.412 100.198C128.745 99.9759 129.059 99.7394 129.368 99.4945C130.484 100.646 131.801 101.608 133.306 102.368C135.613 103.531 138.299 104.202 141.287 104.359C144.275 104.515 147.016 104.131 149.435 103.214C150.266 102.899 151.049 102.52 151.787 102.085C151.852 102.172 151.921 102.256 151.989 102.338C153.25 103.844 155.038 104.732 157.017 104.836L161.199 105.055C163.168 105.158 165.03 104.47 166.444 103.115C166.45 103.107 166.458 103.102 166.464 103.097C166.473 103.086 166.484 103.079 166.492 103.069C166.5 103.077 166.505 103.085 166.513 103.094C167.784 104.606 169.634 105.497 171.723 105.607L175.451 105.802C177.433 105.906 179.301 105.21 180.715 103.844C181.053 103.517 181.355 103.158 181.618 102.777C181.84 103.184 182.102 103.572 182.407 103.932C182.412 103.938 182.42 103.946 182.425 103.952C183.687 105.448 185.467 106.327 187.438 106.43L192.037 106.671C194.016 106.775 195.884 106.081 197.296 104.718C197.296 104.718 197.296 104.718 197.296 104.715C198.262 103.781 198.933 102.613 199.248 101.334C200.619 103.363 202.458 104.97 204.731 106.117C207.037 107.28 209.723 107.951 212.711 108.107C215.699 108.264 218.441 107.88 220.859 106.962C223.63 105.912 225.886 104.181 227.571 101.823C229.178 99.5705 230.135 96.8103 230.412 93.6216C230.517 92.5504 230.601 91.4565 230.658 90.372C230.715 89.2875 230.748 88.191 230.753 87.1119L230.751 87.109ZM177.812 41.2037C177.827 40.9164 177.931 40.685 178.126 40.5122C178.321 40.3394 178.56 40.2604 178.847 40.2754L189.073 40.8113C191.641 40.9459 193.809 41.4741 195.576 42.3931C197.342 43.312 198.667 44.5874 199.555 46.2221C200.443 47.8568 200.865 49.8386 200.821 52.1727C200.787 53.3258 200.748 54.3332 200.703 55.1975C200.657 56.0619 200.592 57.0545 200.506 58.1778C200.274 60.6071 199.649 62.5932 198.635 64.1417C197.621 65.6902 196.208 66.8033 194.398 67.481C192.588 68.1613 190.398 68.4315 187.829 68.2969L177.407 67.7507C177.117 67.7355 176.888 67.6239 176.716 67.4183C176.543 67.2128 176.461 66.977 176.475 66.7166L177.812 41.2037ZM117.447 26.9121C117.521 25.9577 117.616 24.8106 117.735 23.4736C118.031 20.6116 119.168 18.3589 121.153 16.7106C123.138 15.0649 125.854 14.3298 129.305 14.5106C132.756 14.6914 135.367 15.7031 137.147 17.5488C138.925 19.3943 139.81 21.753 139.802 24.6301C139.826 25.9746 139.817 27.1262 139.767 28.0819C139.717 29.0375 139.611 30.1356 139.449 31.3761C139.153 34.2382 137.979 36.4674 135.927 38.0611C133.872 39.6573 131.218 40.3688 127.959 40.198C124.699 40.0272 122.073 39.0389 120.223 37.2381C118.37 35.4397 117.425 33.0995 117.384 30.2198C117.352 28.9718 117.375 27.8694 117.45 26.9123L117.447 26.9121ZM61.8457 59.8962C61.8207 60.374 61.6293 60.7839 61.2769 61.1262C60.9219 61.4683 60.4823 61.6229 59.9552 61.5953L50.6119 61.1056C50.1332 61.0805 49.7231 60.8787 49.3814 60.5028C49.0398 60.1242 48.8841 59.6988 48.9093 59.2183L50.699 25.0695L40.458 32.086C40.0103 32.3963 39.5602 32.4939 39.1106 32.3761C38.6584 32.2555 38.2769 31.9717 37.9659 31.5247L34.0141 25.7779C33.7488 25.3333 33.6657 24.8605 33.7647 24.3624C33.8636 23.8642 34.1586 23.4839 34.6524 23.2218L51.8538 11.3183C52.1516 11.1428 52.4328 11.0256 52.7002 10.967C52.9676 10.9083 53.2706 10.8892 53.6068 10.9068L62.5897 11.3776C63.1168 11.4052 63.5383 11.5969 63.857 11.9474C64.1729 12.3004 64.3198 12.7388 64.2923 13.265L61.8484 59.8964L61.8457 59.8962ZM80.168 93.7612C80.1559 93.992 80.0645 94.1918 79.8941 94.3552C79.7209 94.5211 79.5066 94.596 79.2511 94.5826L62.7001 93.7152C62.4446 93.7018 62.2395 93.6022 62.0871 93.4219C61.9322 93.2389 61.862 93.0333 61.8741 92.8024L63.0589 70.1968C63.0722 69.9417 63.1637 69.7393 63.3364 69.5841C63.5062 69.4315 63.7203 69.3593 63.9758 69.3727L80.2472 70.2254C80.5027 70.2388 80.7081 70.333 80.861 70.5026C81.0165 70.6749 81.0863 70.8858 81.073 71.1408L80.9016 74.4105C80.8883 74.6655 80.7966 74.8707 80.624 75.0258C80.4513 75.181 80.2402 75.248 79.9847 75.2346L68.869 74.652L68.623 79.3471L78.9721 79.8895C79.2276 79.9029 79.4329 79.9998 79.5851 80.1827C79.74 80.3658 79.8094 80.5848 79.7961 80.8398L79.6374 83.8679C79.6253 84.0987 79.5339 84.2985 79.3608 84.4617C79.1903 84.6278 78.9761 84.7027 78.7206 84.6893L68.3714 84.1469L68.1181 88.9816L79.5107 89.5787C79.7662 89.592 79.9717 89.6836 80.1272 89.8559C80.2802 90.0254 80.3499 90.2391 80.3365 90.4941L80.1651 93.7637L80.168 93.7612ZM102.521 92.5962C101.555 93.6842 100.272 94.4945 98.6723 95.027C97.0722 95.5569 95.2379 95.7703 93.1724 95.6621C90.8487 95.5403 88.9377 95.1091 87.4393 94.3684C85.9409 93.6277 84.8243 92.7024 84.0895 91.5952C83.3546 90.488 82.9972 89.3307 83.0147 88.123C83.0244 87.9377 83.1086 87.7726 83.2671 87.6301C83.4255 87.4877 83.6097 87.422 83.8195 87.433L88.2087 87.663C88.5314 87.6799 88.7811 87.7522 88.9472 87.8767C89.116 88.0013 89.2641 88.1598 89.3941 88.355C89.5614 88.7137 89.8048 89.0603 90.124 89.4027C90.4432 89.7451 90.8787 90.0291 91.425 90.2569C91.9741 90.4822 92.6413 90.6167 93.432 90.6582C94.7794 90.7288 95.807 90.5727 96.5146 90.1925C97.2197 89.8096 97.5936 89.2612 97.6313 88.5418C97.6593 88.0075 97.4963 87.5683 97.142 87.2267C96.7852 86.8823 96.2036 86.5557 95.3919 86.2467C94.5828 85.9378 93.4998 85.6065 92.1427 85.2581C90.3951 84.7951 88.9169 84.2358 87.7054 83.5774C86.4939 82.9217 85.5878 82.0963 84.9875 81.0984C84.3871 80.1006 84.1244 78.8863 84.1998 77.4474C84.2752 76.0086 84.741 74.7894 85.6007 73.72C86.4605 72.648 87.6275 71.8397 89.0993 71.2869C90.5709 70.7369 92.2952 70.5123 94.2693 70.6157C95.8722 70.6997 97.2732 70.9831 98.4698 71.4631C99.6661 71.9457 100.664 72.5552 101.464 73.2943C102.264 74.0334 102.858 74.8021 103.247 75.6031C103.637 76.4042 103.823 77.173 103.806 77.9177C103.796 78.103 103.723 78.2687 103.588 78.4124C103.454 78.5588 103.27 78.6218 103.039 78.6097L98.4396 78.3687C98.1841 78.3553 97.9659 78.2981 97.7853 78.1944C97.6046 78.0907 97.4484 77.9318 97.3194 77.7178C97.2063 77.2004 96.8639 76.7356 96.2923 76.3207C95.7206 75.9085 94.9588 75.6748 94.0041 75.6248C92.9821 75.5712 92.1766 75.7093 91.5902 76.0393C91.0012 76.3691 90.69 76.9047 90.651 77.6482C90.6267 78.1127 90.7614 78.5262 91.0579 78.889C91.3516 79.2543 91.8603 79.5824 92.5785 79.8758C93.2967 80.1691 94.2886 80.4876 95.5488 80.8336C97.642 81.339 99.3241 81.9198 100.595 82.5786C101.863 83.2372 102.783 84.0526 103.35 85.0244C103.914 85.9961 104.161 87.1881 104.087 88.6028C104.005 90.1786 103.482 91.5106 102.516 92.6013L102.521 92.5962ZM100.713 62.2562C97.5173 63.5988 93.7422 64.1547 89.3826 63.9262C85.0229 63.6977 81.1548 62.7871 78.2084 61.2194C75.2646 59.652 73.0699 57.6877 71.6344 55.3352C70.1962 52.9825 69.4989 50.4883 69.5401 47.8498C69.5626 47.4203 69.7267 47.0682 70.0295 46.7961C70.3324 46.5239 70.6975 46.4004 71.1305 46.4231L80.7616 46.9278C81.3828 46.9604 81.8688 47.1043 82.2166 47.3648C82.5644 47.6226 82.8212 47.9725 82.9923 48.4122C83.3649 49.5353 83.8929 50.4728 84.5735 51.2272C85.254 51.9816 86.0412 52.5531 86.9355 52.9338C87.8271 53.3143 88.851 53.5375 89.9994 53.5977C91.3414 53.6681 92.6017 53.4461 93.7828 52.9346C94.964 52.4205 95.9309 51.6206 96.6838 50.5321C97.4364 49.4464 97.8543 48.1116 97.937 46.5332C98.0121 45.0997 97.7547 43.8372 97.1617 42.7509C96.5686 41.6647 95.7277 40.7807 94.6333 40.1016C93.5391 39.4197 92.251 39.04 90.7664 38.9622C89.618 38.902 88.6751 38.9845 87.9433 39.2099C87.2087 39.4352 86.5921 39.7259 86.0932 40.0847C85.5944 40.4435 85.1445 40.7429 84.7488 40.986C84.3504 41.2289 83.9132 41.3379 83.4345 41.3128L74.0186 40.8193C73.5883 40.7968 73.2253 40.6216 72.9296 40.2939C72.634 39.9661 72.4974 39.5875 72.5199 39.158L76.4194 14.2558C76.5511 13.544 76.8456 13.0184 77.2946 12.6839C77.7465 12.3469 78.2802 12.1972 78.9042 12.2299L107.727 13.7405C108.254 13.7681 108.689 13.9605 109.03 14.3121C109.372 14.6665 109.527 15.1053 109.5 15.6315L109.146 22.3748C109.119 22.901 108.916 23.321 108.541 23.6378C108.163 23.9545 107.713 24.0978 107.186 24.0702L86.3425 22.9778L84.9243 32.1822C86.0136 31.569 87.2755 31.0591 88.7154 30.6527C90.1522 30.2516 92.1175 30.1123 94.6106 30.243C96.8617 30.3609 99.0114 30.8693 101.054 31.7678C103.097 32.6662 104.908 33.8755 106.484 35.3983C108.063 36.9184 109.265 38.6961 110.096 40.7316C110.926 42.7643 111.277 45.025 111.146 47.5108C110.968 50.9066 109.982 53.8778 108.193 56.4193C106.401 58.9634 103.91 60.9055 100.716 62.251L100.713 62.2562ZM113.397 87.0988C113.381 88.748 113.723 89.9477 114.431 90.6927C115.136 91.4403 116.129 91.845 117.406 91.9119C118.474 91.9679 119.392 91.7845 120.159 91.359C120.926 90.9335 121.494 90.1261 121.858 88.9366C121.968 88.5924 122.115 88.3632 122.296 88.2435C122.478 88.1265 122.718 88.0745 123.019 88.0903L127.723 88.3368C127.933 88.3478 128.107 88.4269 128.253 88.5745C128.396 88.722 128.451 88.8972 128.416 89.1053C128.324 90.4006 127.978 91.5507 127.378 92.5556C126.778 93.5605 125.971 94.3985 124.956 95.0775C123.941 95.7565 122.775 96.2525 121.456 96.5683C120.134 96.8813 118.706 97.0003 117.173 96.9199C114.989 96.8055 113.126 96.3471 111.585 95.5476C110.044 94.7455 108.872 93.6262 108.074 92.19C107.275 90.7538 106.885 88.9998 106.898 86.9332C106.924 85.9816 106.967 84.961 107.024 83.8711C107.081 82.7812 107.146 81.7375 107.223 80.7429C107.423 78.7291 108 77.0393 108.956 75.6708C109.912 74.3023 111.2 73.3012 112.816 72.6645C114.433 72.0278 116.323 71.7662 118.483 71.8793C120.016 71.9597 121.423 72.2246 122.705 72.6767C123.984 73.1286 125.095 73.7441 126.03 74.5252C126.968 75.3066 127.683 76.227 128.175 77.2864C128.667 78.3485 128.891 79.5285 128.847 80.8264C128.858 81.0369 128.787 81.2081 128.629 81.3398C128.468 81.4714 128.287 81.5319 128.077 81.5209L123.374 81.2744C123.072 81.2586 122.844 81.1847 122.687 81.0472C122.532 80.9126 122.405 80.6664 122.307 80.3113C122.046 79.0675 121.561 78.1968 120.853 77.7075C120.145 77.2155 119.256 76.9428 118.188 76.8868C116.911 76.8199 115.881 77.1212 115.102 77.7883C114.319 78.458 113.852 79.6125 113.698 81.2545C113.529 83.1514 113.427 85.1003 113.392 87.0985L113.397 87.0988ZM128.595 63.8251C128.236 64.2397 127.882 64.5576 127.536 64.7764C127.188 64.9977 126.678 65.0921 126.009 65.057L120.904 64.7895C119.801 64.7317 119.275 64.225 119.325 63.2693C119.34 62.9821 119.448 62.7266 119.654 62.4952L157.605 17.7246C157.961 17.3098 158.315 16.9946 158.663 16.7733C159.009 16.5519 159.521 16.4576 160.191 16.4927L165.296 16.7602C166.398 16.818 166.924 17.3247 166.874 18.2804C166.859 18.5676 166.749 18.8256 166.545 19.0545L128.595 63.8224L128.595 63.8251ZM152.831 89.3054C152.651 91.4117 152.077 93.1421 151.108 94.4992C150.139 95.8562 148.847 96.8383 147.234 97.451C145.617 98.0633 143.74 98.3149 141.604 98.203C139.469 98.0911 137.626 97.6446 136.084 96.8666C134.542 96.0886 133.365 94.9744 132.556 93.5269C131.748 92.0767 131.353 90.2956 131.369 88.1807C131.397 87.1835 131.439 86.1789 131.492 85.1722C131.545 84.1656 131.608 83.1622 131.684 82.1648C131.888 80.0839 132.472 78.3514 133.442 76.9756C134.413 75.5971 135.711 74.5885 137.339 73.955C138.968 73.319 140.827 73.0557 142.919 73.1654C145.012 73.275 146.859 73.7326 148.403 74.5349C149.947 75.3372 151.133 76.4734 151.962 77.9462C152.794 79.4191 153.191 81.2004 153.149 83.2897C153.143 84.2907 153.114 85.2933 153.061 86.3027C153.009 87.312 152.932 88.312 152.834 89.3056L152.831 89.3054ZM149.376 64.0501C147.524 62.2249 146.556 59.8727 146.467 56.9904C146.483 55.745 146.517 54.6431 146.567 53.6848C146.617 52.7264 146.701 51.5841 146.82 50.2444C147.164 47.3391 148.327 45.0609 150.312 43.4153C152.297 41.7696 154.989 41.0332 158.391 41.2115C161.793 41.3898 164.453 42.404 166.231 44.2495C168.009 46.0924 168.916 48.4791 168.955 51.4045C168.978 52.7489 168.967 53.9004 168.917 54.8561C168.866 55.8117 168.76 56.9098 168.601 58.1505C168.257 61.01 167.058 63.2486 165.005 64.8692C162.951 66.487 160.294 67.2118 157.037 67.0412C153.78 66.8705 151.225 65.8724 149.373 64.05L149.376 64.0501ZM176.687 98.7845C176.674 99.0396 176.582 99.2501 176.409 99.416C176.238 99.582 176.024 99.6569 175.768 99.6435L172.041 99.4482C171.67 99.4287 171.4 99.3231 171.238 99.1261C171.073 98.9318 170.969 98.7971 170.927 98.7249L163.1 85.4129L162.436 98.0727C162.424 98.3035 162.33 98.5032 162.16 98.6665C161.987 98.8324 161.775 98.9075 161.52 98.8941L157.337 98.6749C157.082 98.6615 156.877 98.5619 156.724 98.3817C156.57 98.1986 156.499 97.993 156.512 97.7622L157.696 75.1565C157.71 74.9015 157.801 74.699 157.974 74.5439C158.146 74.3887 158.358 74.319 158.613 74.3324L162.306 74.5259C162.701 74.5467 162.982 74.6502 163.147 74.8312C163.313 75.0148 163.417 75.1521 163.457 75.2485L171.259 89.0491L171.948 75.9034C171.961 75.6484 172.053 75.4459 172.223 75.2906C172.395 75.1381 172.607 75.0658 172.865 75.0793L177.044 75.2983C177.3 75.3117 177.505 75.4059 177.658 75.5755C177.814 75.7478 177.883 75.9587 177.87 76.2138L176.687 98.7845ZM201.334 81.1743C201.322 81.4079 201.231 81.605 201.058 81.7709C200.887 81.9369 200.673 82.0118 200.417 81.9984L194.215 81.6734L193.271 99.6887C193.259 99.9195 193.168 100.119 192.995 100.283C192.824 100.449 192.61 100.523 192.355 100.51L187.756 100.269C187.5 100.256 187.295 100.156 187.14 99.9757C186.988 99.7927 186.917 99.5872 186.93 99.3563L187.874 81.341L181.672 81.016C181.416 81.0026 181.211 80.903 181.056 80.7226C180.904 80.5397 180.831 80.334 180.843 80.1004L181.038 76.3798C181.052 76.1248 181.146 75.9225 181.316 75.7672C181.488 75.6147 181.7 75.5423 181.958 75.5559L200.704 76.5383C200.959 76.5517 201.164 76.6459 201.317 76.8154C201.473 76.9878 201.543 77.1987 201.529 77.4537L201.334 81.1743ZM202.906 68.7909C202.733 68.5853 202.651 68.3495 202.665 68.0892L204.002 42.5762C204.017 42.289 204.121 42.0576 204.316 41.8848C204.511 41.7119 204.75 41.6329 205.037 41.648L223.404 42.6106C223.692 42.6256 223.924 42.7293 224.097 42.9214C224.27 43.1136 224.349 43.3546 224.334 43.6418L224.141 47.3329C224.126 47.6202 224.022 47.8516 223.829 48.0246C223.637 48.1975 223.396 48.2764 223.108 48.2613L210.561 47.6038L210.284 52.9029L221.964 53.515C222.252 53.5301 222.483 53.6418 222.656 53.8474C222.829 54.0529 222.91 54.2994 222.895 54.5894L222.716 58.004C222.702 58.2644 222.596 58.4903 222.403 58.6767C222.21 58.863 221.968 58.95 221.68 58.9349L210 58.3227L209.714 63.7775L222.575 64.4515C222.863 64.4666 223.094 64.5703 223.268 64.7651C223.441 64.9572 223.523 65.1984 223.508 65.4856L223.314 69.1741C223.301 69.4344 223.197 69.6605 223.001 69.8468C222.808 70.0331 222.566 70.1201 222.279 70.105L203.6 69.1261C203.31 69.1109 203.081 68.9993 202.908 68.7937L202.906 68.7909ZM224.258 93.0488C224.078 95.1551 223.504 96.8855 222.535 98.2425C221.566 99.5995 220.274 100.582 218.662 101.194C217.046 101.807 215.167 102.058 213.032 101.946C210.896 101.834 209.053 101.388 207.511 100.61C205.969 99.8319 204.792 98.7177 203.983 97.2702C203.175 95.82 202.78 94.0389 202.796 91.924C202.824 90.9268 202.866 89.9222 202.919 88.9156C202.972 87.9089 203.035 86.9055 203.112 85.9082C203.315 83.8273 203.899 82.0948 204.87 80.719C205.84 79.3405 207.139 78.3318 208.766 77.6983C210.393 77.0649 212.254 76.7991 214.346 76.9087C216.439 77.0184 218.287 77.4759 219.83 78.2782C221.374 79.0805 222.56 80.2167 223.389 81.6895C224.221 83.1625 224.618 84.9437 224.576 87.0331C224.57 88.0341 224.542 89.0367 224.489 90.046C224.436 91.0553 224.359 92.0554 224.261 93.0489L224.258 93.0488Z" fill="#F2F2F2"/>
<path d="M24.1851 58.0733C24.5103 58.661 24.8614 59.1666 25.2409 59.5929C25.6204 60.0193 26.0382 60.3319 26.4995 60.5337C26.9582 60.7354 27.4667 60.8105 28.0249 60.759C28.5805 60.7074 29.1928 60.4999 29.8594 60.1311C30.487 59.7844 30.9716 59.3899 31.3158 58.9449C31.6574 58.4999 31.8766 58.0214 31.9737 57.507C32.0679 56.9951 32.0479 56.4503 31.9082 55.875C31.771 55.3025 31.5299 54.7058 31.1874 54.0876C30.8966 53.5636 30.5682 53.0888 30.2019 52.6685C29.8357 52.2455 29.4236 51.9278 28.9632 51.7072C28.5054 51.4894 27.9895 51.4004 27.4212 51.4379C26.8529 51.4755 26.2188 51.6872 25.5191 52.0704C24.8831 52.422 24.3956 52.8218 24.0539 53.2696C23.7121 53.72 23.4979 54.2041 23.4115 54.7218C23.325 55.2395 23.3505 55.7819 23.4883 56.3436C23.6259 56.908 23.8574 57.4827 24.1826 58.0704L24.1851 58.0733ZM25.9221 54.1589C26.0251 53.9947 26.1752 53.8572 26.3724 53.7491C26.5835 53.6309 26.7914 53.5745 26.9964 53.5745C27.2014 53.5745 27.4028 53.6416 27.6006 53.7785C27.7984 53.9153 28.0061 54.12 28.2182 54.395C28.4329 54.6727 28.6598 55.0264 28.8989 55.4562C29.1229 55.8636 29.2981 56.2255 29.4218 56.5415C29.5455 56.8575 29.6147 57.133 29.6265 57.3705C29.641 57.6082 29.5979 57.8132 29.4972 57.9856C29.3991 58.1581 29.2348 58.3083 29.0071 58.4336C28.81 58.5417 28.6179 58.6044 28.4338 58.6189C28.2469 58.6334 28.0554 58.583 27.8541 58.462C27.6554 58.3413 27.4394 58.1415 27.2139 57.8632C26.9885 57.5849 26.739 57.2004 26.4704 56.7152C26.2365 56.2911 26.0617 55.9212 25.9463 55.6003C25.831 55.2793 25.7701 55.0015 25.7664 54.7617C25.7627 54.5247 25.8137 54.3228 25.9167 54.1586L25.9221 54.1589Z" fill="white"/>
<path d="M21.32 44.3025C21.2283 44.4054 21.1636 44.507 21.1287 44.6074C21.0911 44.7078 21.0635 44.8221 21.0408 44.9474L18.4033 65.7865C18.3812 65.9522 18.388 66.0791 18.4212 66.1669C18.457 66.255 18.5241 66.3123 18.6252 66.3391C18.7263 66.366 18.8619 66.3515 19.0318 66.2985C19.2018 66.2455 19.4174 66.1465 19.6757 66.0039C19.9034 65.8785 20.0927 65.7646 20.241 65.662C20.3894 65.5594 20.5079 65.458 20.5968 65.3577C20.6857 65.2573 20.7502 65.1584 20.7932 65.0584C20.8362 64.9584 20.8664 64.8442 20.8844 64.7079L23.5245 43.8689C23.5433 43.7165 23.5336 43.5922 23.5036 43.4964C23.4708 43.4004 23.4038 43.3404 23.3026 43.3162C23.2521 43.3028 23.1929 43.2997 23.1278 43.3071L21.3483 44.2771C21.3483 44.2771 21.3313 44.2923 21.3255 44.3001L21.32 44.3025Z" fill="white"/>
<path d="M14.6252 58.2183C15.1808 58.1666 15.7931 57.9592 16.4596 57.5903C17.0873 57.2437 17.5718 56.8491 17.9161 56.4042C18.2576 55.9591 18.4796 55.4808 18.574 54.9662C18.6682 54.4543 18.6482 53.9096 18.5085 53.3343C18.3713 52.7618 18.1302 52.165 17.7878 51.5441C17.4971 51.0201 17.1687 50.5453 16.8025 50.1224C16.4363 49.6994 16.0215 49.3815 15.5636 49.1637C15.1058 48.9459 14.5899 48.857 14.0216 48.8945C13.4533 48.932 12.8193 49.1437 12.1196 49.527C11.4836 49.8786 10.996 50.2783 10.6543 50.7261C10.3152 51.1767 10.101 51.6608 10.0119 52.1783C9.9253 52.6987 9.95095 53.2384 10.0886 53.8028C10.2263 54.3646 10.4577 54.942 10.7829 55.5297C11.108 56.1174 11.4591 56.623 11.8386 57.0493C12.2181 57.4757 12.6386 57.7884 13.0973 57.9901C13.556 58.1918 14.0644 58.2669 14.6227 58.2154L14.6252 58.2183ZM13.8223 55.3229C13.5968 55.0446 13.35 54.6602 13.0788 54.1749C12.8448 53.7508 12.67 53.3809 12.552 53.0598C12.4367 52.7388 12.3757 52.461 12.3721 52.2213C12.3683 51.9842 12.4194 51.7823 12.5224 51.6181C12.6254 51.4539 12.7755 51.3164 12.9727 51.2083C13.1838 51.0902 13.3944 51.0339 13.5994 51.0339C13.8043 51.0339 14.0058 51.101 14.2036 51.2378C14.4014 51.3747 14.6091 51.5794 14.8238 51.8572C15.0386 52.1322 15.2655 52.486 15.5044 52.9184C15.7284 53.3258 15.9037 53.6877 16.0273 54.0037C16.151 54.3197 16.2202 54.5952 16.232 54.8327C16.2465 55.0704 16.2034 55.2754 16.1027 55.4478C16.0019 55.6201 15.8403 55.7705 15.6126 55.8958C15.4155 56.004 15.2261 56.0667 15.0393 56.0811C14.8524 56.0956 14.6609 56.0452 14.4596 55.9242C14.261 55.8035 14.0449 55.6037 13.8194 55.3254L13.8223 55.3229Z" fill="white"/>
<path d="M37.7763 75.3321L37.9652 71.7269C35.8017 71.9446 33.4823 71.1743 31.8762 69.9165C31.4435 69.5789 31.0612 69.2062 30.7502 68.8104C29.4738 67.1796 29.5988 65.4634 30.0043 64.1575L36.5723 60.534C38.3469 59.5557 40.1076 57.3492 40.6706 55.4056C40.6706 55.4056 41.1025 53.9073 41.4284 52.7831C42.1381 52.9279 42.6321 53.538 42.9842 54.2294C43.3581 54.9677 43.5653 55.7995 43.6866 56.2635C43.94 57.2431 44.8065 64.1231 42.8258 68.2642L46.3866 68.4509C47.6536 64.7056 47.6492 60.0028 46.9539 55.8264C46.4267 52.6601 45.1738 50.3225 43.2626 48.8657C41.7118 47.6835 39.7262 47.0787 37.3394 47.0802L37.1394 45.0831C39.4338 44.7861 42.001 45.2518 43.4244 45.7786C43.4324 45.779 43.4402 45.7848 43.4481 45.7879C43.6356 45.1436 43.6617 44.4397 43.5303 43.7572C43.4454 43.3194 43.2979 42.8917 43.0785 42.498C42.5193 41.4862 41.5976 40.7542 40.4845 40.432L30.8455 37.6604C28.8954 37.1006 26.0876 37.4164 24.313 38.3947L2.47653 50.4348C0.385233 51.5904 -0.375878 54.2262 0.779551 56.3136L8.84306 70.879C9.40222 71.8908 10.3238 72.6255 11.437 72.945C12.5503 73.2644 13.7194 73.1346 14.7332 72.574L26.1249 66.2934C26.1707 67.9405 26.7358 69.2514 27.2701 70.1193C28.2491 71.713 29.825 73.0338 31.662 73.9511C32.3875 74.3121 33.1484 74.6131 33.9349 74.8374C35.1942 75.1995 36.5014 75.3703 37.7766 75.3267L37.7763 75.3321ZM11.8411 57.0522C11.4617 56.6258 11.1106 56.1202 10.7854 55.5325C10.4602 54.9448 10.2289 54.3674 10.0911 53.8056C9.9535 53.2412 9.92784 52.7015 10.0144 52.1812C10.1009 51.6635 10.3151 51.1794 10.6569 50.729C10.9986 50.2812 11.4861 49.8814 12.1221 49.5298C12.8219 49.1439 13.4559 48.9348 14.0242 48.8973C14.5925 48.8598 15.1082 48.9515 15.5662 49.1666C16.024 49.3844 16.4387 49.7049 16.805 50.1252C17.1714 50.5455 17.4998 51.0203 17.7904 51.547C18.1328 52.1652 18.374 52.7619 18.511 53.3371C18.6509 53.9097 18.6709 54.4545 18.5765 54.9691C18.4823 55.481 18.2603 55.9592 17.9186 56.407C17.5744 56.852 17.0899 57.2465 16.4622 57.5931C15.7929 57.9618 15.1833 58.1695 14.6278 58.2211C14.0724 58.2701 13.5639 58.195 13.1024 57.9958C12.641 57.794 12.2232 57.4813 11.8437 57.055L11.8411 57.0522ZM23.4142 54.7219C23.5006 54.2042 23.7148 53.7202 24.0566 53.2697C24.3983 52.8219 24.8858 52.4222 25.5218 52.0706C26.2217 51.6846 26.8556 51.4756 27.4239 51.4381C27.9922 51.4006 28.5052 51.4921 28.9659 51.7073C29.4264 51.9253 29.8384 52.2457 30.2046 52.6686C30.5709 53.0889 30.902 53.5639 31.1901 54.0877C31.5326 54.7059 31.7735 55.3054 31.9109 55.8752C32.0479 56.4503 32.0708 56.9926 31.9764 57.5071C31.882 58.0217 31.6629 58.4974 31.3185 58.9451C30.9742 59.39 30.4897 59.7846 29.8621 60.1312C29.1955 60.5001 28.5832 60.7075 28.0276 60.7592C27.4721 60.8108 26.9637 60.733 26.5022 60.5339C26.0409 60.332 25.623 60.0194 25.2436 59.5931C24.8641 59.1667 24.513 58.6611 24.1878 58.0734C23.8626 57.4857 23.6286 56.9081 23.4935 56.3466C23.3559 55.7821 23.3302 55.2424 23.4167 54.7247L23.4142 54.7219ZM21.6811 43.9984C21.8294 43.8958 22.0188 43.7819 22.2465 43.6566C22.5048 43.514 22.7203 43.4149 22.8903 43.3619C22.9779 43.3369 23.0544 43.3194 23.1222 43.3122C23.19 43.305 23.2464 43.3079 23.297 43.3213C23.398 43.3482 23.465 43.4082 23.4979 43.5014C23.5306 43.5974 23.5376 43.7216 23.5188 43.874L20.8787 64.7129C20.8609 64.8466 20.8305 64.9635 20.7875 65.0635C20.7445 65.1635 20.68 65.2624 20.5911 65.3628C20.5023 65.4631 20.3838 65.5619 20.2354 65.6671C20.0871 65.7697 19.8977 65.8836 19.67 66.009C19.4117 66.1516 19.1962 66.2506 19.0262 66.3036C18.8562 66.3566 18.7206 66.3711 18.6195 66.3442C18.5185 66.3174 18.4512 66.2627 18.4155 66.172C18.3823 66.0841 18.3757 65.9546 18.3977 65.7916L21.0351 44.9525C21.0579 44.8272 21.0881 44.713 21.1231 44.6125C21.158 44.5121 21.2228 44.4078 21.3143 44.3076C21.3201 44.2998 21.3313 44.2923 21.3371 44.2846C21.4257 44.1896 21.5385 44.0959 21.6756 44.0008L21.6811 43.9984Z" fill="#F85600"/>
<path d="M25.9517 55.6005C26.067 55.9215 26.2418 56.2914 26.4758 56.7155C26.7443 57.2006 26.9913 57.5824 27.2193 57.8635C27.4447 58.1418 27.658 58.3441 27.8594 58.4623C28.0581 58.5831 28.2523 58.6337 28.4391 58.6192C28.6234 58.602 28.8154 58.542 29.0125 58.4339C29.2402 58.3086 29.4045 58.1584 29.5025 57.9858C29.6006 57.8133 29.6437 57.6083 29.6319 57.3708C29.6173 57.1332 29.5509 56.8578 29.4272 56.5418C29.3035 56.2257 29.1283 55.8639 28.9042 55.4565C28.6652 55.0267 28.4384 54.6703 28.2236 54.3952C28.0088 54.1202 27.8039 53.9129 27.606 53.7787C27.4081 53.6445 27.2067 53.5748 27.0018 53.5748C26.7968 53.5748 26.5888 53.6339 26.3777 53.7494C26.1806 53.8575 26.0332 53.9951 25.9275 54.1592C25.8245 54.3233 25.7734 54.5252 25.7772 54.7623C25.7808 55.0021 25.8418 55.2798 25.9571 55.6008L25.9517 55.6005Z" fill="#F85600"/>
<path d="M15.0394 56.0785C15.2237 56.0612 15.4156 56.0013 15.6128 55.8932C15.8405 55.7678 16.0021 55.6175 16.1028 55.4451C16.2009 55.2726 16.244 55.0676 16.2321 54.8301C16.2176 54.5924 16.1485 54.3169 16.0275 54.001C15.9038 53.685 15.7286 53.3232 15.5045 52.9157C15.2655 52.486 15.0387 52.1295 14.8239 51.8545C14.6092 51.5767 14.4042 51.3722 14.2037 51.2352C14.0059 51.0983 13.8045 51.0312 13.5995 51.0312C13.3946 51.0312 13.1865 51.0903 12.9728 51.2056C12.7756 51.3138 12.6282 51.4514 12.5225 51.6154C12.4195 51.7796 12.3685 51.9815 12.3722 52.2186C12.3759 52.4584 12.4341 52.736 12.5521 53.0571C12.6675 53.3781 12.8423 53.7479 13.0789 54.1722C13.3475 54.6573 13.5944 55.0391 13.8224 55.3202C14.0479 55.5985 14.2611 55.8008 14.4626 55.919C14.6612 56.0398 14.8554 56.0904 15.0423 56.0759L15.0394 56.0785Z" fill="#F85600"/>
<path d="M198.067 30.3513C198.067 30.3513 198.302 31.225 198.286 31.0653C198.41 31.7447 198.451 32.4064 198.69 33.0353C199.176 35.1281 202.024 36.4752 203.985 34.7179C203.45 35.196 204.98 33.8468 205.139 33.5913C205.424 33.1325 205.696 32.5304 205.847 32.0134C206.084 31.2021 206.068 30.2672 206.004 29.4294C205.931 28.4672 205.784 27.5013 205.632 26.5458C205.612 26.4182 205.563 26.1222 205.539 26.0133C205.537 25.6768 205.536 25.0253 205.439 25.642C205.823 23.1534 204.746 20.7685 202.019 20.3591C199.271 19.9486 197.565 21.9319 197.2 24.4108C196.957 26.0669 197.28 27.7851 197.766 29.3718C197.864 29.6973 197.974 30.0234 198.062 30.351L198.067 30.3513Z" fill="#FFB510"/>
<path d="M171.201 22.2757C171.021 22.6834 170.913 23.0977 170.861 23.5095C170.603 25.5606 171.852 27.5561 173.943 28.2175C172.948 27.9016 173.765 28.1651 174.055 28.3338C174.066 28.3397 174.071 28.3427 174.079 28.3484C174.089 28.3597 174.096 28.3709 174.109 28.385C174.484 28.7977 174.933 29.1792 175.348 29.5536C176.803 30.8627 178.259 31.6847 180.236 31.9013C183.362 32.2455 185.156 27.7661 182.949 25.7124C181.047 23.9383 179.715 21.707 177.453 20.3152C175.914 19.3705 174.058 19.5263 172.701 20.47C172.066 20.9104 171.537 21.5234 171.201 22.2783L171.201 22.2757Z" fill="#FFB510"/>
<path d="M183.166 8.35345C184.233 9.03657 185.416 9.47539 186.579 9.9617C186.526 9.94814 187.148 10.2311 187.213 10.2668C187.465 10.3984 187.711 10.5405 187.955 10.6852C188.109 10.7767 188.26 10.8735 188.412 10.9702C189.422 12.3207 191.129 12.8489 192.738 12.2468C194.339 11.647 195.562 9.66529 194.981 7.94168C193.999 5.02073 191.097 2.96016 188.159 1.85596C187.435 1.05623 186.321 0.545622 185.324 0.528368C183.658 0.503003 182.158 1.65184 181.671 3.22794C181.596 3.46361 181.525 3.70211 181.455 3.94075C180.969 5.6084 181.712 7.42665 183.161 8.35316L183.166 8.35345Z" fill="#FFB510"/>
<path d="M62.587 11.3775L53.6041 10.9067C53.2679 10.8891 52.9649 10.9082 52.6975 10.9668C52.4301 11.0255 52.1489 11.1427 51.8512 11.3182L34.6497 23.2216C34.1559 23.4838 33.8609 23.864 33.762 24.3622C33.663 24.8604 33.7461 25.3331 34.0114 25.7777L37.9632 31.5246C38.274 31.9742 38.6556 32.258 39.1079 32.376C39.5573 32.4964 40.0074 32.3989 40.4553 32.0859L50.6963 25.0694L48.9066 59.2181C48.8816 59.6959 49.0398 60.1242 49.3787 60.5026C49.7202 60.8812 50.1305 61.0804 50.6092 61.1055L59.9525 61.5951C60.4796 61.6228 60.9194 61.4655 61.2743 61.126C61.6266 60.7838 61.8178 60.3766 61.843 59.8961L64.2869 13.2647C64.3144 12.7385 64.1675 12.3001 63.8516 11.9471C63.5329 11.5966 63.1114 11.4049 62.5843 11.3773L62.587 11.3775Z" fill="#F85600"/>
<path d="M110.094 40.7342C109.262 38.7013 108.058 36.9235 106.482 35.4008C104.903 33.8806 103.092 32.6686 101.052 31.7703C99.0086 30.8718 96.8616 30.3636 94.6078 30.2455C92.1146 30.1149 90.1494 30.2541 88.7125 30.6553C87.2728 31.059 86.0109 31.5689 84.9215 32.1847L86.3397 22.9804L107.183 24.0727C107.71 24.1004 108.163 23.9572 108.538 23.6404C108.916 23.3264 109.116 22.9035 109.144 22.3774L109.497 15.634C109.525 15.1079 109.367 14.6689 109.027 14.3146C108.684 13.9629 108.252 13.7706 107.724 13.743L78.9014 12.2325C78.2774 12.1998 77.7435 12.3521 77.2918 12.6865C76.8426 13.0236 76.5482 13.5466 76.4165 14.2584L72.5171 39.1606C72.4946 39.5901 72.6312 39.9687 72.9268 40.2964C73.2225 40.6242 73.5855 40.7993 74.0158 40.8219L83.4316 41.3153C83.9104 41.3404 84.3476 41.2315 84.746 40.9885C85.1415 40.7482 85.5915 40.446 86.0904 40.0872C86.5891 39.7311 87.2059 39.4378 87.9404 39.2125C88.6723 38.987 89.6151 38.9045 90.7636 38.9647C92.2481 39.0425 93.5389 39.4224 94.6305 40.1041C95.7247 40.786 96.5657 41.6699 97.1588 42.7535C97.7519 43.8397 98.0095 45.0996 97.9342 46.5357C97.8516 48.1115 97.4338 49.4463 96.6809 50.5347C95.9254 51.623 94.9611 52.423 93.7799 52.9372C92.6014 53.4515 91.3386 53.6706 89.9965 53.6003C88.8481 53.5401 87.8241 53.3195 86.9326 52.9363C86.0384 52.5557 85.2512 51.9841 84.5706 51.2298C83.8901 50.4754 83.3621 49.5379 82.9895 48.4147C82.8212 47.9725 82.5616 47.6251 82.2137 47.3673C81.8659 47.1095 81.38 46.9629 80.7587 46.9304L71.1277 46.4256C70.6947 46.4029 70.3294 46.5291 70.0267 46.7986C69.724 47.0681 69.5598 47.4229 69.5373 47.8524C69.4963 50.4882 70.1933 52.9851 71.6315 55.3377C73.0697 57.6903 75.2619 59.6518 78.2055 61.222C81.1493 62.7895 84.8749 63.6927 89.3797 63.9287C93.8846 64.1648 97.5145 63.6014 100.71 62.2587C103.904 60.916 106.395 58.9712 108.187 56.4271C109.979 53.883 110.963 50.9144 111.14 47.5186C111.271 45.0328 110.92 42.7721 110.091 40.7394L110.094 40.7342Z" fill="#F85600"/>
<path d="M166.872 18.2802C166.922 17.3246 166.395 16.8178 165.293 16.76L160.188 16.4925C159.518 16.4574 159.007 16.5517 158.661 16.7732C158.312 16.9945 157.958 17.3124 157.602 17.7244L119.652 62.495C119.448 62.7239 119.338 62.9819 119.323 63.2692C119.272 64.2248 119.799 64.7315 120.901 64.7893L126.006 65.0569C126.676 65.092 127.185 65.0002 127.534 64.7762C127.88 64.5548 128.234 64.2368 128.592 63.825L166.542 19.057C166.746 18.8281 166.857 18.5701 166.872 18.2829L166.872 18.2802Z" fill="#F85600"/>
<path d="M168.604 58.1533C168.763 56.9153 168.869 55.8172 168.919 54.8589C168.969 53.9005 168.981 52.7544 168.957 51.4073C168.916 48.4818 168.011 46.0952 166.233 44.2524C164.456 42.4095 161.844 41.3951 158.394 41.2143C154.943 41.0335 152.297 41.7696 150.314 43.4181C148.329 45.0637 147.166 47.342 146.823 50.2473C146.704 51.5843 146.62 52.7319 146.57 53.6876C146.519 54.6433 146.486 55.7451 146.469 56.9933C146.558 59.8755 147.527 62.2278 149.379 64.0529C151.23 65.8754 153.783 66.8733 157.043 67.0441C160.302 67.2149 162.956 66.49 165.01 64.8721C167.063 63.2516 168.262 61.0129 168.606 58.1534L168.604 58.1533ZM160.934 57.318C160.856 57.8899 160.684 58.4462 160.416 58.9812C160.147 59.519 159.777 59.9545 159.301 60.2903C158.827 60.6261 158.183 60.7701 157.368 60.7273C156.599 60.687 155.987 60.4746 155.527 60.0925C155.067 59.7077 154.742 59.2357 154.555 58.6741C154.369 58.1125 154.264 57.5444 154.248 56.9676C154.257 55.8644 154.286 54.8618 154.333 53.9518C154.381 53.0418 154.457 52.0632 154.56 51.0135C154.654 50.1085 154.974 49.2962 155.518 48.5818C156.06 47.8673 156.905 47.5401 158.056 47.6004C159.207 47.6608 160.084 48.0782 160.55 48.8456C161.014 49.6128 161.245 50.454 161.246 51.3639C161.288 52.4213 161.285 53.4036 161.237 54.3136C161.19 55.2237 161.089 56.2224 160.934 57.318Z" fill="#F85600"/>
<path d="M120.22 37.2379C122.073 39.0389 124.651 40.0246 127.956 40.1979C131.262 40.3711 133.869 39.6571 135.924 38.0609C137.976 36.4673 139.15 34.238 139.446 31.376C139.605 30.138 139.714 29.0401 139.764 28.0817C139.814 27.1234 139.826 25.9746 139.8 24.63C139.805 21.7527 138.92 19.3941 137.145 17.5487C135.367 15.7058 132.756 14.6914 129.302 14.5105C125.849 14.3295 123.135 15.0621 121.15 16.7104C119.165 18.3588 118.028 20.6114 117.732 23.4735C117.614 24.8105 117.519 25.9576 117.444 26.912C117.37 27.8664 117.347 28.9688 117.379 30.2195C117.419 33.0992 118.367 35.4396 120.218 37.2378L120.22 37.2379ZM125.404 24.309C125.549 23.4067 125.88 22.595 126.397 21.8791C126.915 21.1633 127.773 20.8369 128.97 20.8996C130.167 20.9623 130.928 21.3736 131.392 22.1409C131.856 22.9082 132.089 23.7495 132.09 24.6594C132.129 25.7166 132.129 26.6991 132.081 27.6091C132.034 28.5191 131.933 29.5179 131.778 30.6134C131.748 31.1879 131.598 31.7426 131.33 32.2804C131.061 32.8182 130.678 33.2422 130.181 33.5527C129.685 33.8604 129.052 33.9969 128.286 33.9567C127.471 33.914 126.832 33.7136 126.37 33.3529C125.909 32.9923 125.596 32.5317 125.434 31.9714C125.272 31.4111 125.156 30.8424 125.09 30.2629C125.099 29.1597 125.127 28.1545 125.175 27.2472C125.222 26.3398 125.298 25.3586 125.402 24.3088L125.404 24.309Z" fill="#F85600"/>
<path d="M177.407 67.7507L187.829 68.2969C190.398 68.4315 192.588 68.1587 194.398 67.481C196.208 66.8033 197.621 65.6902 198.635 64.1417C199.649 62.5959 200.274 60.6071 200.506 58.1778C200.592 57.0545 200.657 56.0619 200.703 55.1975C200.748 54.3332 200.787 53.3258 200.821 52.1727C200.865 49.8412 200.443 47.8568 199.555 46.2221C198.667 44.5874 197.342 43.312 195.576 42.3931C193.809 41.4741 191.641 40.9459 189.073 40.8113L178.847 40.2754C178.557 40.2602 178.318 40.3392 178.126 40.5122C177.933 40.6851 177.827 40.9164 177.812 41.2037L176.475 66.7166C176.461 66.977 176.54 67.2126 176.716 67.4183C176.888 67.6239 177.12 67.7356 177.407 67.7507ZM184.646 46.2456L188.578 46.4516C190.31 46.5424 191.59 47.024 192.426 47.8943C193.259 48.7643 193.657 50.0907 193.617 51.8706C193.63 52.6061 193.63 53.2764 193.612 53.8784C193.594 54.4804 193.562 55.0817 193.517 55.685C193.472 56.2856 193.404 56.9631 193.311 57.72C193.219 58.948 192.963 59.9306 192.547 60.6705C192.125 61.4102 191.534 61.9364 190.767 62.2489C190.001 62.5641 189.053 62.6894 187.929 62.6305L183.798 62.414L184.646 46.2429L184.646 46.2456Z" fill="#FFB510"/>
<path d="M222.999 69.8439C223.192 69.6576 223.298 69.4316 223.312 69.1712L223.505 65.4828C223.52 65.1956 223.441 64.9546 223.265 64.7623C223.092 64.5702 222.86 64.4638 222.572 64.4487L209.711 63.7747L209.997 58.3199L221.677 58.9321C221.965 58.9471 222.207 58.8602 222.4 58.6738C222.593 58.4875 222.7 58.2615 222.713 58.0011L222.892 54.5865C222.907 54.2966 222.826 54.0501 222.653 53.8445C222.481 53.639 222.249 53.5273 221.962 53.5122L210.281 52.9L210.559 47.6009L223.105 48.2585C223.393 48.2736 223.634 48.1947 223.827 48.0217C224.019 47.8488 224.123 47.6173 224.138 47.3301L224.332 43.639C224.347 43.3518 224.268 43.1107 224.094 42.9186C223.921 42.7265 223.689 42.6228 223.401 42.6077L205.035 41.6452C204.744 41.63 204.506 41.709 204.313 41.8819C204.121 42.0549 204.014 42.2862 203.999 42.5734L202.662 68.0863C202.649 68.3467 202.728 68.5824 202.903 68.7881C203.076 68.9936 203.307 69.1053 203.595 69.1204L222.273 70.0993C222.561 70.1144 222.803 70.0275 222.996 69.8411L222.999 69.8439Z" fill="#FFB510"/>
<path d="M39.0309 68.0654C38.7754 68.052 38.5613 68.1242 38.3915 68.2768C38.2216 68.4294 38.1273 68.6344 38.1139 68.8894L36.9292 91.4951C36.9171 91.726 36.9871 91.9342 37.1422 92.1146C37.2944 92.2976 37.4997 92.3945 37.7552 92.4079L46.9881 92.8917C49.2661 93.0111 51.207 92.771 52.8081 92.1685C54.412 91.5661 55.6638 90.5792 56.5608 89.2103C57.4578 87.8415 58.0114 86.0777 58.2186 83.9244C58.295 82.9297 58.352 82.0471 58.392 81.2847C58.432 80.5223 58.4682 79.6252 58.4974 78.6038C58.5357 76.5358 58.1612 74.78 57.3767 73.3337C56.5896 71.8847 55.4164 70.7545 53.8517 69.9403C52.287 69.1262 50.3671 68.6595 48.0891 68.5401L39.0309 68.0654ZM51.0611 74.817C51.8001 75.5879 52.1538 76.7639 52.1169 78.3421C52.1286 78.9941 52.1272 79.5863 52.11 80.121C52.0954 80.6559 52.0676 81.1875 52.0261 81.721C51.9874 82.2546 51.9263 82.8544 51.8452 83.5258C51.7639 84.6144 51.5402 85.4856 51.1661 86.1416C50.7946 86.7978 50.2686 87.2628 49.5905 87.5422C48.9126 87.8189 48.0732 87.9338 47.0727 87.8813L43.415 87.6896L44.166 73.3601L47.6489 73.5426C49.1819 73.623 50.3192 74.0487 51.0582 74.8196L51.0611 74.817Z" fill="#FFB510"/>
<path d="M79.5134 89.5788L68.1207 88.9817L68.3741 84.147L78.7232 84.6894C78.9787 84.7028 79.1932 84.6252 79.3635 84.4619C79.5367 84.296 79.628 84.0989 79.6401 83.868L79.7988 80.84C79.8121 80.5849 79.7427 80.366 79.5878 80.1829C79.4356 79.9999 79.2303 79.903 78.9748 79.8896L68.6257 79.3473L68.8717 74.6522L79.9873 75.2347C80.2428 75.2481 80.4568 75.1786 80.6267 75.026C80.7965 74.8734 80.8908 74.6683 80.9043 74.4106L81.0757 71.141C81.089 70.886 81.0192 70.675 80.8637 70.5027C80.7108 70.3332 80.5054 70.2389 80.2499 70.2256L63.9785 69.3728C63.723 69.3594 63.5089 69.4316 63.3391 69.5843C63.1664 69.7394 63.0749 69.9419 63.0615 70.1969L61.8768 92.8026C61.8647 93.0334 61.9347 93.2417 62.0898 93.4221C62.242 93.605 62.4473 93.7019 62.7028 93.7153L79.2538 94.5827C79.5093 94.5961 79.7238 94.5185 79.8968 94.3553C80.0673 94.1893 80.1586 93.9922 80.1707 93.7613L80.342 90.4917C80.3554 90.2366 80.2857 90.023 80.1327 89.8535C79.9773 89.6812 79.7717 89.5896 79.5162 89.5762L79.5134 89.5788Z" fill="#FFB510"/>
<path d="M100.601 82.5735C99.3298 81.9147 97.6477 81.3339 95.5544 80.8285C94.2916 80.4824 93.2996 80.1639 92.5842 79.8707C91.866 79.5773 91.3573 79.2492 91.0636 78.8839C90.7672 78.5184 90.6323 78.1076 90.6567 77.6432C90.6955 76.9022 91.0094 76.3669 91.5959 76.0342C92.1849 75.7044 92.9877 75.5661 94.0097 75.6197C94.9618 75.6696 95.7264 75.9008 96.298 76.3156C96.8695 76.7305 97.2119 77.1953 97.3251 77.7127C97.454 77.9294 97.6074 78.0882 97.7909 78.1893C97.9716 78.293 98.1897 78.3502 98.4452 78.3636L103.044 78.6046C103.276 78.6167 103.46 78.551 103.594 78.4073C103.728 78.2636 103.802 78.1006 103.811 77.9126C103.826 77.1705 103.64 76.3989 103.253 75.598C102.863 74.7997 102.27 74.0283 101.47 73.2892C100.67 72.5501 99.6719 71.9379 98.4754 71.458C97.2789 70.978 95.8779 70.6946 94.275 70.6106C92.3009 70.5072 90.5766 70.7318 89.105 71.2818C87.6333 71.8319 86.4662 72.6429 85.6064 73.7149C84.7465 74.787 84.2795 76.0303 84.2055 77.4423C84.1315 78.8544 84.3926 80.0982 84.9931 81.0933C85.5936 82.0885 86.4995 82.9166 87.7111 83.5723C88.9227 84.228 90.4009 84.7873 92.1484 85.253C93.5027 85.604 94.5856 85.9353 95.3975 86.2416C96.2093 86.5506 96.7907 86.8799 97.1477 87.2216C97.5018 87.5659 97.665 88.0024 97.637 88.5367C97.5993 89.2561 97.228 89.8046 96.5203 90.1874C95.8127 90.5676 94.7851 90.7237 93.4376 90.6531C92.6469 90.6116 91.9798 90.4771 91.4306 90.2518C90.8842 90.0267 90.4514 89.7429 90.1296 89.3976C89.8105 89.0552 89.5672 88.7059 89.3998 88.3499C89.2696 88.1574 89.1215 87.9989 88.9529 87.8716C88.7841 87.747 88.5371 87.6748 88.2144 87.6579L83.8251 87.4279C83.6153 87.4169 83.4311 87.4853 83.2727 87.625C83.1114 87.77 83.0301 87.9326 83.0204 88.1179C83.0029 89.3256 83.3601 90.4856 84.0951 91.5901C84.8298 92.7 85.9465 93.6225 87.4449 94.3633C88.9433 95.104 90.8544 95.5352 93.1781 95.657C95.2463 95.7654 97.0779 95.5518 98.6779 95.0219C100.278 94.4894 101.561 93.6791 102.527 92.5911C103.493 91.5031 104.016 90.1684 104.098 88.5926C104.173 87.1779 103.925 85.986 103.361 85.0143C102.794 84.0424 101.877 83.2272 100.606 82.5684L100.601 82.5735Z" fill="#FFB510"/>
<path d="M115.107 77.7886C115.886 77.1215 116.916 76.8201 118.194 76.8871C119.261 76.943 120.15 77.2157 120.858 77.7078C121.566 78.1971 122.049 79.0649 122.313 80.3116C122.41 80.6667 122.538 80.9102 122.692 81.0475C122.85 81.185 123.078 81.2588 123.379 81.2746L128.083 81.5211C128.293 81.5321 128.474 81.4716 128.634 81.3401C128.792 81.2084 128.866 81.0373 128.853 80.8266C128.897 79.5288 128.672 78.3488 128.181 77.2867C127.689 76.2272 126.974 75.3068 126.036 74.5255C125.098 73.7442 123.989 73.1289 122.71 72.6769C121.429 72.2275 120.021 71.96 118.488 71.8796C116.329 71.7664 114.441 72.0282 112.822 72.6647C111.202 73.3013 109.917 74.3026 108.961 75.6711C108.005 77.0395 107.428 78.7294 107.228 80.7432C107.152 81.7378 107.086 82.7815 107.029 83.8714C106.972 84.9613 106.929 85.9819 106.904 86.9335C106.89 89.0027 107.281 90.7541 108.079 92.1903C108.878 93.6265 110.046 94.7456 111.59 95.5479C113.131 96.3501 114.995 96.8058 117.179 96.9202C118.712 97.0005 120.139 96.8842 121.461 96.5686C122.78 96.2528 123.949 95.7569 124.961 95.0777C125.976 94.3987 126.783 93.5581 127.383 92.5559C127.983 91.551 128.329 90.4009 128.422 89.1056C128.454 88.8973 128.401 88.7196 128.258 88.5748C128.112 88.4272 127.938 88.3481 127.728 88.3371L123.024 88.0906C122.723 88.0748 122.483 88.1268 122.302 88.2438C122.12 88.3608 121.973 88.5927 121.864 88.9369C121.496 90.1263 120.931 90.9338 120.164 91.3593C119.398 91.7848 118.479 91.9681 117.412 91.9122C116.134 91.8452 115.141 91.4379 114.436 90.693C113.728 89.9479 113.384 88.7482 113.403 87.0991C113.437 85.1009 113.539 83.1547 113.709 81.2551C113.865 79.6105 114.33 78.4558 115.112 77.7889L115.107 77.7886Z" fill="#FFB510"/>
<path d="M151.96 77.9434C151.128 76.4704 149.942 75.3315 148.401 74.532C146.859 73.7326 145.031 73.2733 142.917 73.1625C140.803 73.0518 138.966 73.3162 137.336 73.9522C135.706 74.5882 134.407 75.5941 133.44 76.9728C132.47 78.3513 131.885 80.0811 131.682 82.162C131.605 83.1593 131.542 84.1601 131.489 85.1694C131.436 86.1788 131.395 87.1806 131.367 88.1778C131.35 90.2927 131.745 92.0739 132.554 93.5241C133.362 94.9742 134.539 96.0857 136.081 96.8637C137.624 97.6418 139.464 98.0881 141.602 98.2002C143.74 98.3122 145.617 98.0607 147.232 97.4481C148.847 96.8356 150.139 95.8508 151.106 94.4963C152.075 93.1393 152.648 91.4089 152.829 89.3026C152.927 88.3091 153.003 87.3064 153.056 86.2997C153.109 85.293 153.137 84.2878 153.144 83.2868C153.183 81.1973 152.789 79.4135 151.957 77.9432L151.96 77.9434ZM146.361 88.7564C146.23 90.3754 145.756 91.5376 144.938 92.2377C144.121 92.9378 143.096 93.2583 141.867 93.1938C140.638 93.1294 139.684 92.7079 138.945 91.9236C138.204 91.1418 137.844 89.9359 137.859 88.3108C137.888 87.2895 137.928 86.3279 137.976 85.4205C138.023 84.5132 138.083 83.5796 138.158 82.6037C138.261 81.5189 138.517 80.6413 138.924 79.9762C139.331 79.3138 139.858 78.8327 140.502 78.5407C141.145 78.2488 141.864 78.1222 142.652 78.1635C143.44 78.2048 144.176 78.4076 144.786 78.7653C145.396 79.1229 145.864 79.6535 146.189 80.3569C146.513 81.0604 146.668 81.9568 146.657 83.0491C146.652 84.0259 146.627 84.9668 146.579 85.8714C146.532 86.7761 146.457 87.7385 146.358 88.7562L146.361 88.7564Z" fill="#FFB510"/>
<path d="M177.044 75.2983L172.865 75.0793C172.609 75.0659 172.395 75.1381 172.223 75.2906C172.053 75.4459 171.961 75.6484 171.948 75.9034L171.259 89.0491L163.457 75.2485C163.417 75.1521 163.313 75.0148 163.147 74.8312C162.982 74.6475 162.701 74.5467 162.306 74.5259L158.613 74.3324C158.358 74.319 158.144 74.3912 157.974 74.5439C157.804 74.6965 157.71 74.9015 157.696 75.1565L156.512 97.7622C156.499 97.993 156.569 98.2013 156.724 98.3817C156.877 98.5646 157.082 98.6615 157.337 98.6749L161.52 98.8941C161.775 98.9075 161.987 98.8297 162.16 98.6665C162.33 98.5005 162.424 98.3035 162.436 98.0727L163.1 85.4129L170.927 98.7249C170.969 98.7971 171.073 98.9291 171.238 99.1261C171.403 99.3205 171.67 99.4287 172.041 99.4482L175.768 99.6435C176.024 99.6569 176.238 99.5793 176.409 99.416C176.582 99.2501 176.674 99.0422 176.687 98.7845L177.87 76.2138C177.883 75.9587 177.814 75.7478 177.658 75.5755C177.505 75.4059 177.3 75.3117 177.044 75.2983Z" fill="#FFB510"/>
<path d="M200.704 76.5383L181.958 75.5559C181.702 75.5425 181.488 75.6147 181.316 75.7672C181.146 75.9225 181.052 76.1248 181.038 76.3798L180.843 80.1004C180.831 80.334 180.904 80.5397 181.056 80.7226C181.211 80.9057 181.414 81.0025 181.672 81.016L187.874 81.341L186.93 99.3563C186.917 99.5872 186.987 99.7954 187.14 99.9757C187.295 100.159 187.497 100.256 187.756 100.269L192.355 100.51C192.61 100.523 192.824 100.446 192.995 100.283C193.168 100.117 193.259 99.9195 193.271 99.6887L194.215 81.6734L200.417 81.9984C200.673 82.0118 200.887 81.9342 201.058 81.7709C201.231 81.605 201.322 81.4079 201.334 81.1743L201.529 77.4537C201.543 77.1987 201.473 76.9878 201.317 76.8154C201.164 76.6459 200.959 76.5517 200.704 76.5383Z" fill="#FFB510"/>
<path d="M223.387 81.6867C222.555 80.2138 221.369 79.0749 219.828 78.2754C218.287 77.4759 216.458 77.0167 214.344 76.9059C212.23 76.7951 210.393 77.0595 208.763 77.6955C207.133 78.3315 205.835 79.3375 204.867 80.7161C203.897 82.0946 203.313 83.8244 203.109 85.9053C203.033 86.9027 202.969 87.9034 202.916 88.9128C202.864 89.9221 202.822 90.924 202.794 91.9212C202.777 94.0361 203.172 95.8172 203.981 97.2674C204.789 98.7176 205.966 99.8291 207.509 100.607C209.051 101.385 210.891 101.831 213.029 101.944C215.167 102.056 217.044 101.804 218.659 101.191C220.274 100.579 221.566 99.5941 222.533 98.2397C223.502 96.8826 224.075 95.1522 224.256 93.0459C224.354 92.0524 224.431 91.0497 224.483 90.043C224.536 89.0364 224.565 88.0311 224.571 87.0301C224.611 84.9406 224.216 83.1568 223.384 81.6866L223.387 81.6867ZM217.79 92.4998C217.66 94.1188 217.186 95.2811 216.367 95.9811C215.551 96.6813 214.526 97.0017 213.297 96.9373C212.068 96.8729 211.114 96.4514 210.375 95.6671C209.634 94.8853 209.274 93.6794 209.289 92.0543C209.318 91.0329 209.358 90.0713 209.405 89.164C209.453 88.2567 209.513 87.323 209.588 86.3472C209.691 85.2624 209.947 84.3848 210.354 83.7197C210.761 83.0573 211.288 82.5762 211.932 82.2842C212.575 81.9922 213.294 81.8657 214.082 81.907C214.87 81.9483 215.606 82.1511 216.216 82.5087C216.826 82.8664 217.294 83.397 217.618 84.1004C217.943 84.8038 218.098 85.7003 218.087 86.7926C218.081 87.7694 218.056 88.7102 218.009 89.6149C217.962 90.5196 217.887 91.482 217.788 92.4997L217.79 92.4998Z" fill="#FFB510"/>
</svg>
