<svg width="1154" height="220" viewBox="0 0 1154 220" fill="none" xmlns="http://www.w3.org/2000/svg">
<path d="M1054.9 14.1301C1054.06 15.9101 1052.3 17.0101 1050.42 17.3401C1048.67 17.6401 1046.45 17.2901 1045.18 15.8701C1044.67 15.3001 1044.21 14.9301 1043.72 14.2101C1043.5 13.8901 1043.33 13.5401 1043.16 13.1901C1042.93 12.7801 1042.67 12.3801 1042.37 12.0001C1042.29 11.9001 1042.21 11.8001 1042.13 11.7001C1042.18 11.7601 1042.23 11.8201 1042.29 11.8801C1042.29 11.8801 1042.28 11.8601 1042.27 11.8601C1042.22 11.8001 1042.17 11.7401 1042.11 11.6801C1041.22 10.5501 1040.61 9.33005 1040.56 7.78005C1040.5 6.21005 1041.13 4.29005 1042.25 3.15005C1043.46 1.93005 1045.09 0.990053 1046.86 1.00005C1048.65 1.01005 1050.06 1.62006 1051.49 2.69006C1052.65 3.56006 1053.7 4.73006 1054.43 5.98006C1055.97 8.62006 1056.2 11.3201 1054.88 14.1301M1013.38 26.5401C1011.6 29.1001 1007.99 30.1601 1005.17 28.6001C1004.57 28.2701 1003.7 27.9401 1003.18 27.5101C1002.53 27.2801 1001.89 27.0501 1001.25 26.7801C999.538 26.0601 997.988 25.3601 996.588 24.0701C994.498 22.1601 994.188 18.9801 995.788 16.6901C997.508 14.2101 1000.32 13.8701 1002.99 14.8801C1001.54 14.3301 1002.78 14.7501 1003.06 14.8301C1003.43 14.9301 1003.79 15.0101 1004.16 15.0801C1004.28 15.1001 1004.41 15.1201 1004.53 15.1401C1004.61 15.1501 1004.66 15.1601 1004.71 15.1701C1004.96 15.2001 1005.27 15.2301 1005.66 15.2601C1005.85 15.2701 1006.04 15.3001 1006.22 15.3401C1008.47 15.7401 1010.7 16.6301 1012.45 18.1101C1014.9 20.1901 1015.13 23.9901 1013.37 26.5201M1051.36 60.7001C1047.29 62.0201 1043.56 64.6001 1038.93 64.7001C1033.68 64.8101 1031.8 58.1101 1035.92 55.1601C1037.66 53.9101 1039.74 53.1901 1041.54 52.0001C1043.46 50.7301 1045.44 49.6301 1047.61 48.8301C1050.77 47.6701 1054.45 49.7901 1055.43 52.9001C1056.45 56.1401 1054.58 59.6801 1051.36 60.7201M1101.26 48.8201C1100.29 51.4501 1097.26 53.4301 1094.39 52.5901C1092.34 51.9901 1090.68 50.8201 1088.86 49.7601C1088.14 49.3401 1087.41 48.9201 1086.68 48.5401C1086.35 48.3701 1086.01 48.2201 1085.68 48.0501C1085.56 47.9901 1085.48 47.9401 1085.41 47.9001C1080.69 46.8101 1080.39 39.6601 1085.12 38.2901C1087.96 37.4601 1090.54 38.0301 1093.21 39.1201C1094.94 39.8301 1096.86 40.5701 1098.48 41.5101C1101.06 43.0201 1102.33 45.9701 1101.28 48.8301M984.848 58.4601C981.138 60.2101 977.818 58.1401 976.238 54.7301C976.628 55.5801 976.088 54.7701 975.808 54.3501C975.688 54.2301 975.388 53.9101 975.248 53.7701C974.268 52.7101 973.288 51.6301 972.398 50.5001C971.628 49.5201 970.828 48.3701 970.448 47.1601C970.208 46.3901 970.048 45.4201 970.018 44.6101C970.008 44.1601 970.778 41.2201 970.518 42.2601C971.498 38.4501 976.138 37.7701 978.478 39.9701C979.298 40.5501 979.898 41.3401 980.608 42.0801C980.458 41.9001 981.468 42.7901 981.468 42.7901C981.848 43.1201 982.258 43.4401 982.648 43.7601C984.558 45.3301 986.388 47.2001 987.458 49.4501C989.068 52.8301 988.588 56.7001 984.848 58.4701M959.658 11.8801C960.318 15.6901 957.488 19.3501 953.538 19.4901C949.578 19.6301 946.078 17.9701 942.248 17.3401C937.808 16.6101 936.328 9.57006 940.488 7.41006C943.118 6.04006 945.608 5.86005 948.488 6.28005C949.318 6.40005 950.188 6.50005 950.988 6.71005C951.018 6.71005 951.038 6.72006 951.058 6.73006C951.068 6.73006 951.078 6.73006 951.098 6.73006C951.598 6.70006 952.828 6.35005 951.328 6.78005C955.098 5.69005 958.968 7.99005 959.648 11.8901M1114.87 90.2301C1115.57 92.5901 1114.66 95.2601 1112.58 96.6001C1111.33 97.4001 1109.53 97.6901 1107.97 97.3001C1103.41 98.3601 1098.11 98.2001 1094.47 95.3901C1092.32 93.7301 1092.2 90.2601 1093.69 88.1901C1095.19 86.1101 1097.74 85.3601 1100.11 86.1901C1100.38 86.1901 1100.64 86.1801 1100.91 86.1601C1101.33 86.1401 1101.75 86.1101 1102.18 86.0701C1102.29 86.0601 1103.3 85.9001 1103.22 85.9201C1105.07 85.5601 1106.89 85.1301 1108.78 85.0901C1111.34 85.0401 1113.77 86.6901 1114.55 89.1601C1114.66 89.5101 1114.77 89.8701 1114.87 90.2201M1144.14 51.9701C1137.83 48.7601 1134.46 42.1501 1134.06 35.2401C1133.76 30.1401 1140.65 28.2401 1143.38 32.3001C1145.43 35.3401 1146.33 39.4201 1149.76 41.1601C1156.76 44.7201 1151.13 55.5201 1144.14 51.9601" stroke="#F85600" stroke-miterlimit="10"/>
<path d="M99.101 205.774C99.941 203.994 101.701 202.894 103.581 202.564C105.331 202.264 107.551 202.614 108.821 204.034C109.331 204.604 109.791 204.974 110.281 205.694C110.501 206.014 110.671 206.364 110.841 206.714C111.071 207.124 111.331 207.524 111.631 207.904C111.711 208.004 111.791 208.104 111.871 208.204C111.821 208.144 111.771 208.084 111.711 208.024C111.711 208.024 111.721 208.044 111.731 208.044C111.781 208.104 111.831 208.164 111.891 208.224C112.781 209.354 113.391 210.574 113.441 212.124C113.501 213.694 112.871 215.614 111.751 216.754C110.541 217.974 108.911 218.914 107.141 218.904C105.351 218.894 103.941 218.284 102.511 217.214C101.351 216.344 100.301 215.174 99.571 213.924C98.031 211.284 97.801 208.584 99.121 205.774M140.621 193.364C142.401 190.804 146.011 189.744 148.831 191.304C149.431 191.634 150.301 191.964 150.821 192.394C151.471 192.624 152.111 192.854 152.751 193.124C154.461 193.844 156.011 194.544 157.411 195.834C159.501 197.744 159.811 200.924 158.211 203.214C156.491 205.694 153.681 206.034 151.011 205.024C152.461 205.574 151.221 205.154 150.941 205.074C150.571 204.974 150.211 204.894 149.841 204.824C149.721 204.804 149.591 204.784 149.471 204.764C149.391 204.754 149.341 204.744 149.291 204.734C149.041 204.704 148.731 204.674 148.341 204.644C148.151 204.634 147.961 204.604 147.781 204.564C145.531 204.164 143.301 203.274 141.551 201.794C139.101 199.714 138.871 195.914 140.631 193.384M102.641 159.204C106.711 157.884 110.441 155.304 115.071 155.204C120.321 155.094 122.201 161.794 118.081 164.744C116.341 165.994 114.261 166.714 112.461 167.904C110.541 169.174 108.561 170.274 106.391 171.074C103.231 172.234 99.551 170.114 98.571 167.004C97.551 163.764 99.421 160.224 102.641 159.184M52.741 171.084C53.711 168.454 56.741 166.474 59.611 167.314C61.661 167.914 63.321 169.084 65.141 170.144C65.861 170.564 66.591 170.984 67.321 171.364C67.651 171.534 67.991 171.684 68.321 171.854C68.441 171.914 68.521 171.964 68.591 172.004C73.311 173.094 73.611 180.244 68.881 181.614C66.041 182.444 63.461 181.874 60.791 180.784C59.061 180.074 57.141 179.334 55.521 178.394C52.941 176.884 51.671 173.934 52.721 171.074M169.151 161.444C172.861 159.694 176.181 161.764 177.761 165.174C177.371 164.324 177.911 165.134 178.191 165.554C178.311 165.674 178.611 165.994 178.751 166.134C179.731 167.194 180.711 168.274 181.601 169.404C182.371 170.384 183.171 171.534 183.551 172.744C183.791 173.514 183.951 174.484 183.981 175.294C183.991 175.744 183.221 178.684 183.481 177.644C182.501 181.454 177.861 182.134 175.521 179.934C174.701 179.354 174.101 178.564 173.391 177.824C173.541 178.004 172.531 177.114 172.531 177.114C172.151 176.784 171.741 176.464 171.351 176.144C169.441 174.574 167.611 172.704 166.541 170.454C164.931 167.074 165.411 163.204 169.151 161.434M194.341 208.024C193.681 204.214 196.511 200.554 200.461 200.414C204.421 200.274 207.921 201.934 211.751 202.564C216.191 203.294 217.671 210.334 213.511 212.494C210.881 213.864 208.391 214.044 205.511 213.624C204.681 213.504 203.811 213.404 203.011 213.194C202.981 213.194 202.961 213.184 202.941 213.174C202.931 213.174 202.921 213.174 202.901 213.174C202.401 213.204 201.171 213.554 202.671 213.124C198.901 214.214 195.031 211.914 194.351 208.014M39.131 129.674C38.431 127.314 39.341 124.644 41.421 123.304C42.671 122.504 44.471 122.214 46.031 122.604C50.591 121.544 55.891 121.704 59.531 124.514C61.681 126.174 61.801 129.644 60.311 131.714C58.811 133.794 56.261 134.544 53.891 133.714C53.621 133.714 53.361 133.724 53.091 133.744C52.671 133.764 52.251 133.794 51.821 133.834C51.711 133.844 50.701 134.004 50.781 133.984C48.931 134.344 47.111 134.774 45.221 134.814C42.661 134.864 40.231 133.214 39.451 130.744C39.341 130.394 39.231 130.034 39.131 129.684M9.86102 167.934C16.171 171.144 19.541 177.754 19.941 184.664C20.241 189.764 13.351 191.664 10.621 187.604C8.57102 184.564 7.67102 180.484 4.24102 178.744C-2.75898 175.184 2.87102 164.384 9.86102 167.944" stroke="#F85600" stroke-miterlimit="10"/>
<path d="M241.243 74.6916C240.305 74.51 222.623 80.3473 220.902 81.0871C220.422 81.2888 220.193 81.7932 220.287 82.3043C221.928 91.0939 229.179 104.665 230.893 106.366C232.77 109.13 234.917 111.699 237.192 114.12C234.64 114.712 222.495 120.812 221.786 121.269C221.536 121.397 220.01 122.385 219.72 122.843C217.931 124.457 216.662 126.494 217.08 129.036C217.735 133.031 221.989 134.1 225.405 134.497C231.001 135.149 237.354 133.522 239.353 140.045C240.676 144.363 240.568 149.837 245.247 152.278C248.589 154.02 252.579 152.453 254.287 149.265C254.341 149.158 255.056 147.96 255.299 147.557C257.676 143.636 257.77 137.954 257.831 133.482C257.845 132.459 257.946 131.41 258.04 130.361C265.122 134.45 271.273 136.871 274.142 137.456C276.552 138.196 291.162 140.462 292.127 140.442C292.715 140.428 293.221 140.032 293.336 139.453C294.875 131.545 294.889 112.943 293.606 112.775C267.877 109.393 255.549 95.6602 253.179 91.6924C250.452 87.1194 248.069 81.0467 247.036 75.2162C246.664 73.1112 241.614 74.6983 241.257 74.6849" fill="#00DCE9"/>
<path d="M277.538 69.7353C272.447 70.1859 267.269 70.1859 262.233 71.1341C260.511 71.4569 258.877 73.4408 258.992 75.2162C259.377 81.2014 265.122 85.9224 269.443 89.5404C273.129 92.6272 284.033 97.7987 290.419 99.3455C292.674 99.8902 294.295 98.6461 294.038 96.6824C294.025 96.5748 294.902 89.0024 294.916 87.1194C294.949 82.7616 295.179 78.2491 294.7 73.925C294.49 72.042 293.525 69.8563 291.398 69.4327C286.659 68.4912 282.264 69.3183 277.531 69.7353M287.665 79.352C287.618 81.7865 285.518 83.804 283.074 83.7569C280.637 83.7098 278.605 81.6116 278.652 79.1839C278.699 76.7495 280.799 74.732 283.243 74.779C285.68 74.8261 287.712 76.9243 287.665 79.352Z" fill="#00DCE9"/>
<path d="M911.757 137.308C912.696 137.49 930.377 131.653 932.099 130.913C932.578 130.711 932.808 130.207 932.713 129.696C931.072 120.906 923.822 107.335 922.107 105.634C920.23 102.87 918.083 100.301 915.808 97.8797C918.36 97.2879 930.505 91.1883 931.214 90.731C931.464 90.6033 932.99 89.6147 933.28 89.1574C935.069 87.5434 936.338 85.5057 935.92 82.9637C935.265 78.969 931.012 77.8997 927.596 77.503C921.999 76.8506 915.646 78.4781 913.647 71.9548C912.324 67.6374 912.432 62.1632 907.754 59.7221C904.412 57.9803 900.422 59.5472 898.714 62.7349C898.66 62.8424 897.944 64.0395 897.701 64.443C895.325 68.3637 895.23 74.0463 895.169 78.5184C895.156 79.5406 895.054 80.5897 894.96 81.6388C887.878 77.55 881.727 75.129 878.858 74.5439C876.448 73.8042 861.838 71.5379 860.873 71.5581C860.285 71.5715 859.779 71.9683 859.664 72.5466C858.125 80.4552 858.112 99.0566 859.394 99.2247C885.123 102.607 897.451 116.34 899.821 120.308C902.548 124.881 904.932 130.953 905.965 136.784C906.336 138.889 911.386 137.302 911.744 137.315" fill="#00DCE9"/>
<path d="M875.462 142.265C880.553 141.814 885.731 141.814 890.767 140.866C892.489 140.543 894.123 138.559 894.008 136.784C893.623 130.799 887.878 126.078 883.557 122.46C879.871 119.373 868.968 114.201 862.581 112.655C860.326 112.11 858.706 113.354 858.962 115.318C858.976 115.425 858.098 122.998 858.085 124.881C858.051 129.238 857.821 133.751 858.301 138.075C858.51 139.958 859.475 142.144 861.602 142.567C866.341 143.509 870.736 142.682 875.469 142.265M865.335 132.648C865.383 130.214 867.482 128.196 869.926 128.243C872.363 128.29 874.396 130.388 874.348 132.816C874.301 135.251 872.201 137.268 869.757 137.221C867.32 137.174 865.288 135.076 865.335 132.648Z" fill="#00DCE9"/>
</svg>
