<svg width="297" height="151" viewBox="0 0 297 151" fill="none" xmlns="http://www.w3.org/2000/svg">
<path d="M99.101 136.774C99.941 134.994 101.701 133.894 103.581 133.564C105.331 133.264 107.551 133.614 108.821 135.034C109.331 135.604 109.791 135.974 110.281 136.694C110.501 137.014 110.671 137.364 110.841 137.714C111.071 138.124 111.331 138.524 111.631 138.904C111.711 139.004 111.791 139.104 111.871 139.204C111.821 139.144 111.771 139.084 111.711 139.024C111.711 139.024 111.721 139.044 111.731 139.044C111.781 139.104 111.831 139.164 111.891 139.224C112.781 140.354 113.391 141.574 113.441 143.124C113.501 144.694 112.871 146.614 111.751 147.754C110.541 148.974 108.911 149.914 107.141 149.904C105.351 149.894 103.941 149.284 102.511 148.214C101.351 147.344 100.301 146.174 99.571 144.924C98.031 142.284 97.801 139.584 99.121 136.774M140.621 124.364C142.401 121.804 146.011 120.744 148.831 122.304C149.431 122.634 150.301 122.964 150.821 123.394C151.471 123.624 152.111 123.854 152.751 124.124C154.461 124.844 156.011 125.544 157.411 126.834C159.501 128.744 159.811 131.924 158.211 134.214C156.491 136.694 153.681 137.034 151.011 136.024C152.461 136.574 151.221 136.154 150.941 136.074C150.571 135.974 150.211 135.894 149.841 135.824C149.721 135.804 149.591 135.784 149.471 135.764C149.391 135.754 149.341 135.744 149.291 135.734C149.041 135.704 148.731 135.674 148.341 135.644C148.151 135.634 147.961 135.604 147.781 135.564C145.531 135.164 143.301 134.274 141.551 132.794C139.101 130.714 138.871 126.914 140.631 124.384M102.641 90.204C106.711 88.884 110.441 86.304 115.071 86.204C120.321 86.094 122.201 92.794 118.081 95.744C116.341 96.994 114.261 97.714 112.461 98.904C110.541 100.174 108.561 101.274 106.391 102.074C103.231 103.234 99.551 101.114 98.571 98.004C97.551 94.7639 99.421 91.224 102.641 90.184M52.741 102.084C53.711 99.4539 56.741 97.4739 59.611 98.3139C61.661 98.9139 63.321 100.084 65.141 101.144C65.861 101.564 66.591 101.984 67.321 102.364C67.651 102.534 67.991 102.684 68.321 102.854C68.441 102.914 68.521 102.964 68.591 103.004C73.311 104.094 73.611 111.244 68.881 112.614C66.041 113.444 63.461 112.874 60.791 111.784C59.061 111.074 57.141 110.334 55.521 109.394C52.941 107.884 51.671 104.934 52.721 102.074M169.151 92.444C172.861 90.694 176.181 92.764 177.761 96.174C177.371 95.324 177.911 96.134 178.191 96.554C178.311 96.674 178.611 96.994 178.751 97.134C179.731 98.194 180.711 99.274 181.601 100.404C182.371 101.384 183.171 102.534 183.551 103.744C183.791 104.514 183.951 105.484 183.981 106.294C183.991 106.744 183.221 109.684 183.481 108.644C182.501 112.454 177.861 113.134 175.521 110.934C174.701 110.354 174.101 109.564 173.391 108.824C173.541 109.004 172.531 108.114 172.531 108.114C172.151 107.784 171.741 107.464 171.351 107.144C169.441 105.574 167.611 103.704 166.541 101.454C164.931 98.074 165.411 94.204 169.151 92.434M194.341 139.024C193.681 135.214 196.511 131.554 200.461 131.414C204.421 131.274 207.921 132.934 211.751 133.564C216.191 134.294 217.671 141.334 213.511 143.494C210.881 144.864 208.391 145.044 205.511 144.624C204.681 144.504 203.811 144.404 203.011 144.194C202.981 144.194 202.961 144.184 202.941 144.174C202.931 144.174 202.921 144.174 202.901 144.174C202.401 144.204 201.171 144.554 202.671 144.124C198.901 145.214 195.031 142.914 194.351 139.014M39.131 60.6739C38.431 58.3139 39.341 55.6439 41.421 54.3039C42.671 53.5039 44.471 53.2139 46.031 53.6039C50.591 52.5439 55.891 52.7039 59.531 55.5139C61.681 57.1739 61.801 60.6439 60.311 62.7139C58.811 64.7939 56.261 65.5439 53.891 64.7139C53.621 64.7139 53.361 64.7239 53.091 64.7439C52.671 64.7639 52.251 64.7939 51.821 64.8339C51.711 64.8439 50.701 65.0039 50.781 64.9839C48.931 65.3439 47.111 65.7739 45.221 65.8139C42.661 65.8639 40.231 64.2139 39.451 61.7439C39.341 61.3939 39.231 61.0339 39.131 60.6839M9.86102 98.9339C16.171 102.144 19.541 108.754 19.941 115.664C20.241 120.764 13.351 122.664 10.621 118.604C8.57102 115.564 7.67102 111.484 4.24102 109.744C-2.75898 106.184 2.87102 95.3839 9.86102 98.9439" stroke="#F85600" stroke-miterlimit="10"/>
<path d="M238.889 63.8452C232.202 57.4142 225.34 53.7911 217.294 51.7984C217.672 59.7767 218.177 67.7551 217.536 75.6881C217.173 80.1868 219.785 83.1532 224.276 83.4023C232.172 83.8476 240.814 84.2251 249.66 84.2175C247.728 76.8279 245.351 70.0573 238.882 63.8376" fill="#FFA901"/>
<path d="M232.685 51.4889C237.002 53.8515 240.354 56.7877 243.139 60.1541C243.403 60.4108 243.675 60.6674 243.931 60.9165C249.947 66.8116 255.963 75.0768 256.658 83.6816C266.342 83.0023 275.83 81.4398 284.019 78.2922C294.436 74.2842 297.863 65.5812 294.126 58.7426C286.616 58.8785 279.098 59.0295 271.595 58.8483C267.142 58.7351 266.817 51.8965 271.331 51.889C278.66 51.8739 286.012 51.4889 293.357 51.4587C296.436 47.2016 298.361 42.3481 295.832 37.7438C293.598 33.6829 290.866 31.6298 287.62 30.5731C280.593 34.634 273.626 38.6722 266.923 43.3596C263.081 46.0467 258.899 40.5592 262.522 37.5626C268.621 32.5054 275.837 28.0596 283.129 24.3157C283.423 19.5076 282.948 14.707 279.053 11.9821C274.373 8.70622 270.712 8.19295 266.727 9.14401C263.391 15.658 259.616 21.0927 256.627 28.6257C255.216 32.1959 249.442 31.8336 249.827 27.8784C250.657 19.3491 256.182 11.816 260.53 4.42644C259.171 2.50167 257.427 0.99205 255.035 0.43349C251.163 -0.479831 247.872 0.101373 245.041 1.67138C243.931 9.57425 241.614 17.296 241.131 25.297C240.874 29.6296 234.27 29.4862 234.383 25.1158C234.572 17.4922 236.512 10.1404 237.765 2.67528C232.987 0.31272 227.733 -0.857237 223.084 2.396C218.358 5.71717 217.204 38.3175 217 45.4731C222.555 46.4317 228.043 48.9452 232.685 51.4889Z" fill="#FFA901"/>
</svg>
