<svg width="436" height="80" viewBox="0 0 436 80" fill="none" xmlns="http://www.w3.org/2000/svg">
<path d="M403.958 49.1127C401.254 46.8497 399.697 43.538 399.697 40.0055C399.697 36.473 401.254 33.1613 403.958 30.8983L423.211 14.8586C424.546 13.7436 426.059 12.9598 427.648 12.5183C426.533 5.45329 420.396 0 413.033 0H23.1774C15.7923 0 9.63248 5.48641 8.55065 12.5845C10.063 13.0371 11.5091 13.7878 12.7786 14.8475L32.0307 30.8873C34.7463 33.1503 36.2918 36.462 36.2918 39.9945C36.2918 43.527 34.7353 46.8387 32.0307 49.1017L12.7786 65.1414C11.4981 66.2012 10.063 66.9629 8.53961 67.4155C9.62144 74.5136 15.7812 80 23.1664 80H413.021C420.385 80 426.522 74.5467 427.637 67.4817C426.048 67.0402 424.535 66.2564 423.199 65.1525L403.947 49.1127H403.958Z" fill="#F85600"/>
<path d="M27.295 36.5945L8.04285 20.5547C5.15062 18.1372 0.75708 20.2015 0.75708 23.9658V56.0453C0.75708 59.8096 5.15062 61.8739 8.04285 59.4563L27.295 43.4166C29.4255 41.6393 29.4255 38.3607 27.295 36.5834V36.5945Z" fill="#00DCE9"/>
<path d="M408.705 36.5945L427.957 20.5547C430.85 18.1372 435.243 20.2015 435.243 23.9658V56.0453C435.243 59.8096 430.85 61.8739 427.957 59.4563L408.705 43.4166C406.575 41.6393 406.575 38.3607 408.705 36.5834V36.5945Z" fill="#00DCE9"/>
<path d="M97.8014 54.1245C97.5033 54.1245 97.2715 54.0362 97.0838 53.8485C96.8962 53.6608 96.8079 53.418 96.8079 53.1309V27.0898C96.8079 26.7918 96.8962 26.56 97.0838 26.3723C97.2715 26.1846 97.5144 26.0963 97.8014 26.0963H108.421C111.755 26.0963 114.393 26.869 116.314 28.4035C118.235 29.9379 119.195 32.1457 119.195 35.0379C119.195 36.9919 118.731 38.6146 117.793 39.9282C116.855 41.2419 115.607 42.2133 114.029 42.8536L119.681 52.866C119.758 53.0316 119.802 53.1751 119.802 53.3076C119.802 53.5173 119.725 53.716 119.559 53.8926C119.394 54.0693 119.195 54.1576 118.963 54.1576H114.515C114.029 54.1576 113.676 54.0362 113.433 53.7823C113.19 53.5284 113.024 53.2965 112.914 53.0758L108.024 43.9023H103.177V53.153C103.177 53.4511 103.078 53.6829 102.901 53.8706C102.714 54.0582 102.471 54.1465 102.184 54.1465H97.8124L97.8014 54.1245ZM103.166 38.7802H108.3C109.768 38.7802 110.861 38.449 111.567 37.7756C112.274 37.1133 112.627 36.175 112.627 34.9717C112.627 33.7685 112.285 32.8191 111.589 32.1236C110.894 31.4282 109.801 31.086 108.3 31.086H103.166V38.7802Z" fill="white"/>
<path d="M125.123 54.1245C124.825 54.1245 124.593 54.0362 124.405 53.8485C124.218 53.6608 124.13 53.418 124.13 53.1309V27.0898C124.13 26.7918 124.218 26.56 124.405 26.3723C124.593 26.1846 124.836 26.0963 125.123 26.0963H143.271C143.569 26.0963 143.801 26.1957 143.989 26.3723C144.176 26.5489 144.265 26.8028 144.265 27.0898V30.2912C144.265 30.5561 144.165 30.7879 143.989 30.9756C143.812 31.1632 143.558 31.2516 143.271 31.2516H130.289V37.5438H142.388C142.686 37.5438 142.918 37.6432 143.106 37.8198C143.293 38.0075 143.382 38.2503 143.382 38.5373V41.5068C143.382 41.7718 143.282 42.0036 143.106 42.1912C142.929 42.3789 142.675 42.4672 142.388 42.4672H130.289V48.9582H143.591C143.889 48.9582 144.121 49.0575 144.309 49.2342C144.497 49.4108 144.585 49.6647 144.585 49.9517V53.1199C144.585 53.418 144.486 53.6498 144.309 53.8374C144.121 54.0251 143.878 54.1134 143.591 54.1134H125.123V54.1245Z" fill="white"/>
<path d="M159.454 54.5219C156.893 54.5219 154.752 54.1465 153.03 53.3959C151.308 52.6452 150.005 51.6738 149.122 50.4705C148.239 49.2673 147.775 47.9868 147.72 46.6289C147.72 46.4192 147.797 46.2205 147.963 46.0439C148.128 45.8673 148.327 45.7789 148.559 45.7789H152.842C153.184 45.7789 153.46 45.8562 153.648 45.9997C153.836 46.1432 154.012 46.3309 154.167 46.5406C154.354 46.9932 154.652 47.4348 155.072 47.8653C155.48 48.2958 156.054 48.6491 156.772 48.9251C157.49 49.201 158.384 49.3446 159.454 49.3446C161.188 49.3446 162.49 49.0686 163.362 48.5056C164.234 47.9426 164.665 47.1809 164.665 46.2205C164.665 45.525 164.433 44.9621 163.958 44.5426C163.495 44.112 162.755 43.7257 161.751 43.3835C160.746 43.0413 159.421 42.6659 157.765 42.2575C155.767 41.827 154.056 41.275 152.654 40.5906C151.252 39.9062 150.193 39.0341 149.486 37.9523C148.78 36.8704 148.426 35.5237 148.426 33.923C148.426 32.3223 148.868 30.8983 149.751 29.6619C150.634 28.4256 151.871 27.4431 153.471 26.7366C155.072 26.0301 156.982 25.6768 159.201 25.6768C160.989 25.6768 162.567 25.9197 163.947 26.3944C165.327 26.8801 166.475 27.4983 167.392 28.282C168.308 29.0548 169.014 29.8827 169.489 30.7658C169.975 31.649 170.229 32.499 170.251 33.3269C170.251 33.5366 170.173 33.7353 170.008 33.912C169.853 34.0886 169.644 34.1769 169.412 34.1769H164.93C164.665 34.1769 164.422 34.1217 164.212 34.0113C164.003 33.9009 163.826 33.7133 163.693 33.4483C163.528 32.7529 163.053 32.1457 162.269 31.6269C161.486 31.108 160.459 30.8431 159.201 30.8431C157.942 30.8431 156.86 31.086 156.099 31.5606C155.337 32.0464 154.962 32.7749 154.962 33.7685C154.962 34.4087 155.16 34.9496 155.547 35.3912C155.933 35.8328 156.584 36.2191 157.512 36.5503C158.428 36.8815 159.653 37.2568 161.177 37.6542C163.528 38.1399 165.438 38.7139 166.906 39.3763C168.374 40.0497 169.456 40.8997 170.151 41.9594C170.847 43.0192 171.189 44.3439 171.189 45.9445C171.189 47.7329 170.692 49.2673 169.688 50.5478C168.683 51.8283 167.314 52.8108 165.559 53.4952C163.815 54.1797 161.773 54.5219 159.454 54.5219Z" fill="white"/>
<path d="M176.477 54.1245C176.179 54.1245 175.947 54.0362 175.759 53.8485C175.571 53.6608 175.483 53.418 175.483 53.1309V27.0898C175.483 26.7918 175.571 26.56 175.759 26.3723C175.947 26.1846 176.19 26.0963 176.477 26.0963H194.625C194.923 26.0963 195.155 26.1957 195.342 26.3723C195.53 26.5489 195.618 26.8028 195.618 27.0898V30.2912C195.618 30.5561 195.519 30.7879 195.342 30.9756C195.166 31.1632 194.912 31.2516 194.625 31.2516H181.643V37.5438H193.742C194.04 37.5438 194.272 37.6432 194.459 37.8198C194.647 38.0075 194.735 38.2503 194.735 38.5373V41.5068C194.735 41.7718 194.636 42.0036 194.459 42.1912C194.283 42.3789 194.029 42.4672 193.742 42.4672H181.643V48.9582H194.945C195.243 48.9582 195.475 49.0575 195.663 49.2342C195.85 49.4108 195.939 49.6647 195.939 49.9517V53.1199C195.939 53.418 195.839 53.6498 195.663 53.8374C195.475 54.0251 195.232 54.1134 194.945 54.1134H176.477V54.1245Z" fill="white"/>
<path d="M201.712 54.1245C201.414 54.1245 201.182 54.0362 200.994 53.8485C200.807 53.6608 200.718 53.418 200.718 53.1309V27.0898C200.718 26.7918 200.807 26.56 200.994 26.3723C201.182 26.1846 201.425 26.0963 201.712 26.0963H212.332C215.665 26.0963 218.304 26.869 220.224 28.4035C222.145 29.9379 223.106 32.1457 223.106 35.0379C223.106 36.9919 222.642 38.6146 221.704 39.9282C220.765 41.2419 219.518 42.2133 217.939 42.8536L223.591 52.866C223.669 53.0316 223.713 53.1751 223.713 53.3076C223.713 53.5173 223.636 53.716 223.47 53.8926C223.304 54.0693 223.106 54.1576 222.874 54.1576H218.425C217.939 54.1576 217.586 54.0362 217.343 53.7823C217.1 53.5284 216.935 53.2965 216.824 53.0758L211.934 43.9023H207.088V53.153C207.088 53.4511 206.989 53.6829 206.812 53.8706C206.624 54.0582 206.381 54.1465 206.094 54.1465H201.723L201.712 54.1245ZM207.088 38.7802H212.221C213.689 38.7802 214.782 38.449 215.489 37.7756C216.195 37.1133 216.548 36.175 216.548 34.9717C216.548 33.7685 216.206 32.8191 215.511 32.1236C214.815 31.4282 213.722 31.086 212.221 31.086H207.088V38.7802Z" fill="white"/>
<path d="M235.249 54.1245C234.818 54.1245 234.476 54.0141 234.222 53.7823C233.968 53.5504 233.791 53.2855 233.681 52.9654L225.269 27.2885C225.247 27.1561 225.225 27.0346 225.225 26.9242C225.225 26.7145 225.302 26.5158 225.468 26.3392C225.634 26.1626 225.832 26.0742 226.064 26.0742H230.27C230.667 26.0742 230.988 26.1846 231.208 26.4164C231.429 26.6483 231.573 26.847 231.628 27.0346L237.876 46.6289L244.091 27.0346C244.168 26.847 244.323 26.6372 244.532 26.4164C244.742 26.1846 245.051 26.0742 245.449 26.0742H249.655C249.897 26.0742 250.096 26.1626 250.251 26.3392C250.416 26.5158 250.494 26.7035 250.494 26.9242C250.494 27.0346 250.482 27.1561 250.449 27.2885L242.038 52.9654C241.96 53.2855 241.795 53.5615 241.541 53.7823C241.287 54.0141 240.934 54.1245 240.481 54.1245H235.238H235.249Z" fill="white"/>
<path d="M255.516 54.1245C255.218 54.1245 254.986 54.0362 254.799 53.8485C254.611 53.6608 254.523 53.418 254.523 53.1309V27.0898C254.523 26.7918 254.611 26.56 254.799 26.3723C254.986 26.1846 255.229 26.0963 255.516 26.0963H273.664C273.963 26.0963 274.194 26.1957 274.382 26.3723C274.57 26.5489 274.658 26.8028 274.658 27.0898V30.2912C274.658 30.5561 274.559 30.7879 274.382 30.9756C274.205 31.1632 273.952 31.2516 273.664 31.2516H260.683V37.5438H272.781C273.079 37.5438 273.311 37.6432 273.499 37.8198C273.687 38.0075 273.775 38.2503 273.775 38.5373V41.5068C273.775 41.7718 273.676 42.0036 273.499 42.1912C273.322 42.3789 273.068 42.4672 272.781 42.4672H260.683V48.9582H273.985C274.283 48.9582 274.514 49.0575 274.702 49.2342C274.89 49.4108 274.978 49.6647 274.978 49.9517V53.1199C274.978 53.418 274.879 53.6498 274.702 53.8374C274.514 54.0251 274.272 54.1134 273.985 54.1134H255.516V54.1245Z" fill="white"/>
<path d="M297.984 54.5219C296.482 54.5219 295.069 54.3342 293.733 53.9589C292.398 53.5835 291.206 53.0206 290.168 52.2589C289.13 51.4972 288.302 50.5589 287.706 49.4329C287.11 48.3069 286.779 47.0043 286.724 45.503C286.724 45.2601 286.801 45.0614 286.967 44.8848C287.132 44.7082 287.342 44.6198 287.607 44.6198H292.177C292.519 44.6198 292.795 44.7192 292.994 44.8958C293.193 45.0835 293.347 45.3484 293.458 45.7017C293.59 46.5627 293.866 47.2471 294.296 47.788C294.727 48.3179 295.268 48.7153 295.919 48.9692C296.571 49.2231 297.31 49.3446 298.138 49.3446C299.661 49.3446 300.832 48.8478 301.648 47.8653C302.465 46.8828 302.874 45.4809 302.874 43.6594V31.4061H289.528C289.263 31.4061 289.031 31.3067 288.843 31.1301C288.656 30.9425 288.567 30.7217 288.567 30.4457V27.0788C288.567 26.7807 288.656 26.5489 288.843 26.3613C289.031 26.1736 289.252 26.0853 289.528 26.0853H308.393C308.691 26.0853 308.923 26.1846 309.111 26.3613C309.299 26.5489 309.387 26.7918 309.387 27.0788V43.825C309.387 46.1212 308.901 48.064 307.941 49.6536C306.98 51.2433 305.645 52.4465 303.934 53.2745C302.223 54.1024 300.236 54.5219 297.961 54.5219H297.984Z" fill="white"/>
<path d="M312.809 54.1245C312.566 54.1245 312.367 54.0362 312.213 53.8595C312.058 53.6829 311.97 53.4952 311.97 53.2745C311.97 53.142 311.981 53.0206 312.014 52.9102L321.552 27.1561C321.629 26.858 321.795 26.6041 322.038 26.3944C322.28 26.1846 322.612 26.0742 323.042 26.0742H328.175C328.606 26.0742 328.937 26.1846 329.18 26.3944C329.423 26.6041 329.577 26.858 329.666 27.1561L339.203 52.9102C339.225 53.0206 339.247 53.142 339.247 53.2745C339.247 53.4842 339.17 53.6829 339.005 53.8595C338.839 54.0362 338.64 54.1245 338.409 54.1245H334.247C333.849 54.1245 333.551 54.0362 333.364 53.8485C333.176 53.6608 333.055 53.4842 332.999 53.3297L331.277 48.8478H319.984L318.262 53.3297C318.207 53.4952 318.086 53.6608 317.898 53.8485C317.71 54.0362 317.412 54.1245 317.015 54.1245H312.809ZM321.419 43.6594H329.71L325.581 32.1236L321.419 43.6594ZM323.462 24.0762C323.031 24.0762 322.821 23.8664 322.821 23.4359C322.821 23.2262 322.888 23.0495 323.02 22.9171L326.431 18.7885C326.674 18.4683 326.895 18.2586 327.094 18.1703C327.292 18.082 327.568 18.0268 327.91 18.0268H332.834C333.342 18.0268 333.596 18.2917 333.596 18.8326C333.596 19.0203 333.529 19.1748 333.397 19.3183L328.231 23.5242C328.021 23.7119 327.8 23.8554 327.59 23.9437C327.381 24.0431 327.094 24.0872 326.751 24.0872H323.462V24.0762Z" fill="white"/>
</svg>
