<svg width="212" height="81" viewBox="0 0 212 81" fill="none" xmlns="http://www.w3.org/2000/svg">
<path d="M137.819 20.2471C138.608 19.2768 138.629 17.8953 137.871 16.9004L137.878 16.8899C137.068 15.8282 135.605 15.5083 134.428 16.1376L133.293 16.7422C132.962 17.0129 132.486 16.9988 132.173 16.7106C130.71 15.3536 129.121 14.1408 127.429 13.0897C127.024 12.8401 126.904 12.3058 127.161 11.905L128.676 8.81852C129.269 7.68304 128.902 6.09056 127.82 5.40155C126.777 4.73714 125.402 4.94104 124.599 5.87964L121.716 9.61651C121.508 9.94344 121.103 10.0911 120.736 9.97156C118.051 9.09623 115.221 8.57947 112.317 8.46697C111.883 8.45292 111.531 8.11192 111.499 7.67953C111.499 7.67953 110.851 4.29771 110.473 2.30098C110.234 1.03192 109.053 0.163609 107.756 0.31126L107.7 0.318287C106.494 0.455388 105.585 1.46783 105.575 2.67361L105.694 8.14004C105.726 8.57244 105.434 8.95913 105.011 9.0435C102.706 9.50401 100.468 10.2247 98.3322 11.1984C97.9621 11.3672 97.5216 11.2477 97.2855 10.9137L94.607 8.05919C93.7894 7.18738 92.4501 7.05027 91.4704 7.73929C90.5012 8.42127 90.1734 9.70791 90.7021 10.766L92.2387 13.849C92.503 14.2182 92.429 14.7314 92.0695 15.0126C90.2615 16.4258 88.6333 18.0183 87.1989 19.7654C86.9403 20.0804 86.624 20.0313 86.1586 19.959L86.0887 19.9483L82.7512 19.1362C81.8913 18.9253 80.9996 19.3014 80.5485 20.0607C80.1045 20.8095 80.1961 21.7587 80.7776 22.409L82.9486 24.8382C83.3186 25.0702 83.4561 25.5412 83.2693 25.9315C82.864 26.7681 82.4975 27.6294 82.1697 28.5082C81.6093 30.0093 82.3142 31.7283 83.812 32.3084C84.175 32.449 84.5521 32.5123 84.9187 32.5052C86.0852 32.4806 87.1707 31.76 87.5971 30.6034C89.3487 25.8611 92.4642 21.8009 96.6123 18.8585C100.849 15.8528 105.846 14.2639 111.066 14.2498C121.022 14.2322 130.033 20.0854 134.048 29.1726C134.675 30.5929 136.3 31.3452 137.759 30.8038C139.334 30.2167 140.078 28.4379 139.412 26.9193C138.696 25.2916 137.85 23.7484 136.892 22.2965C136.652 21.9309 136.73 21.4458 137.068 21.1681L137.819 20.2471Z" fill="white"/>
<path fill-rule="evenodd" clip-rule="evenodd" d="M207.801 57.5629C211.082 55.1233 212.872 57.345 211.575 60.3928L211.565 60.3999C210.969 61.799 209.496 63.1138 207.321 64.0664C206.521 64.418 205.718 64.7097 204.918 64.9488C202.986 65.5288 201.076 65.7855 199.24 65.7187C197.009 65.6378 194.891 65.0824 192.974 64.0524C190.74 62.8501 188.858 60.9131 187.515 58.4734C186.472 60.428 185.203 62.3087 183.561 63.9645C181.175 66.369 178.263 67.624 175.578 67.5291C174.581 67.4939 173.615 67.2725 172.716 66.8541C171.754 66.4042 170.894 65.7503 170.165 64.9031C168.751 63.2649 168.036 61.1276 168.156 58.8883L169.467 34.1645C169.499 33.5493 169.023 33.029 168.406 33.0079C166.728 32.9482 164.896 32.913 162.725 32.913C161.146 32.9095 159.852 31.6615 159.814 30.0796C159.775 28.5539 160.977 27.2778 162.496 27.1161C163.599 27.0001 164.734 27.0177 165.833 27.0353C167.349 27.0599 168.917 27.0845 169.89 26.7154C171 26.2935 171.937 24.8382 172.403 22.8238C172.762 21.2595 174.323 20.2857 175.892 20.6443C177.46 21.0029 178.436 22.5637 178.077 24.1245C177.844 25.137 177.523 26.0826 177.129 26.9474C176.974 27.2919 177.203 27.6856 177.58 27.7102C178.993 27.7946 180.501 27.8755 182.225 27.9458C183.786 28.0126 185.079 29.264 185.094 30.8214C185.108 32.4877 183.73 33.8094 182.08 33.7497H182.066C179.786 33.6548 177.883 33.5458 176.089 33.4333C175.677 33.4087 175.321 33.7251 175.3 34.1364L173.971 59.1976C173.932 59.9253 174.154 60.6213 174.577 61.1135C174.767 61.335 174.975 61.5002 175.187 61.5986C176.325 62.1295 178.182 61.1381 179.426 59.8831C182.211 57.0708 183.726 53.0492 185.189 49.1576C185.205 49.1193 185.222 49.0809 185.239 49.0435C185.248 49.0226 185.257 49.002 185.266 48.9819C185.309 48.8307 185.358 48.6831 185.421 48.5389C191.099 35.7394 198.084 34.0344 202.941 34.857C205.905 35.3597 208.551 37.3248 209.852 39.986C210.997 42.3272 210.955 44.8618 209.728 47.1222C207.744 50.7818 203.617 52.8629 197.457 53.2988C196.953 53.3339 196.456 53.3761 195.963 53.4183L195.891 53.4243C194.67 53.5279 193.432 53.6329 192.167 53.6398C191.962 53.6433 191.821 53.8401 191.888 54.037C192.692 56.2904 194.063 58.034 195.744 58.9375C197.813 60.0483 200.167 60.3577 202.049 59.9991C202.049 59.9991 204.728 59.8479 207.801 57.5629ZM192.551 47.291C192.41 47.53 192.59 47.8323 192.868 47.8218H192.872C193.696 47.7866 194.556 47.7163 195.459 47.639C195.98 47.5933 196.502 47.5511 197.03 47.5124C201.076 47.2242 203.621 46.166 204.597 44.3662C204.921 43.7721 204.925 43.1744 204.611 42.5346C204.139 41.5749 203.05 40.7734 201.957 40.5871L201.93 40.5827C201.733 40.5511 201.45 40.5056 201.094 40.4922C199.899 40.45 197.887 40.7769 195.554 43.1885C194.514 44.2607 193.51 45.6352 192.551 47.291Z" fill="white"/>
<path fill-rule="evenodd" clip-rule="evenodd" d="M160.801 35.8027C158.711 35.9714 159.031 39.2653 159.031 39.2653L158.82 50.8486C158.806 51.2282 158.33 51.3864 158.09 51.0911L147.482 38.056C146.795 37.1877 145.685 36.7272 144.599 36.9381C143.267 37.1948 142.309 38.3197 142.242 39.6415L142.129 60.6495C142.128 60.6651 142.127 60.6805 142.127 60.6959C142.127 60.7143 142.126 60.7327 142.126 60.751C142.126 60.793 142.127 60.835 142.129 60.878C142.15 61.6232 141.558 62.249 140.807 62.2701C140.317 62.2841 139.99 62.0451 139.834 61.901C139.683 61.7568 139.422 61.4439 139.412 60.9553L139.165 52.1035C139.179 51.0876 139.101 43.1815 133.966 38.724C132.264 37.2475 130.252 36.323 127.947 35.9573C126.784 35.771 125.593 35.7991 124.447 36.0839C123.566 36.3019 122.629 36.6886 122.167 37.3705C121.156 38.854 121.342 41.6593 125.276 41.5855C127.298 41.5503 128.895 42.0284 130.129 43.0936C130.488 43.403 130.809 43.758 131.094 44.1412C131.429 44.5911 131.055 45.2204 130.506 45.129C129.734 45.0024 128.93 44.9603 128.106 45.0235C123.298 45.3927 119.397 49.2104 118.942 53.9983C118.396 59.7425 122.823 64.6992 128.521 64.9031C130.118 64.9593 131.637 64.6359 133.001 64.0172C133.575 63.7571 134.248 63.9821 134.566 64.5234C134.907 65.1035 135.334 65.6413 135.838 66.1194C137.117 67.3252 138.76 68.0107 140.504 68.074C140.659 68.081 140.814 68.081 140.973 68.074C144.885 67.965 147.99 64.7344 147.951 60.8428L148.532 49.3475C148.55 49.0241 148.959 48.894 149.16 49.1471L159.62 62.3333C160.445 63.3774 161.89 63.7395 163.13 63.1665C164.145 62.6989 164.776 61.6654 164.815 60.5546L164.762 41.8421C164.875 36.3862 162.89 35.6234 160.801 35.7956V35.8027ZM128.729 59.0921C126.435 59.0113 124.197 57.0673 124.278 54.7788C124.359 52.4902 126.756 50.0576 129.05 50.1384C131.344 50.2193 133.406 52.8137 133.325 55.0987C133.244 57.3837 131.024 59.1695 128.729 59.0886V59.0921Z" fill="white"/>
<path fill-rule="evenodd" clip-rule="evenodd" d="M123.193 67.1143C123.908 67.4271 124.789 67.7119 125.846 67.8806L125.854 67.8947C128.084 68.2497 126.495 72.6018 122.181 72.0499C119.978 71.7686 117.067 70.2078 113.592 66.1792C113.589 66.1739 113.585 66.1695 113.582 66.165C113.578 66.1607 113.575 66.1563 113.571 66.1511C112.176 64.3266 110.917 62.3122 109.825 60.1608L107.95 56.4697C107.675 55.9283 107.136 55.5662 106.526 55.5205C106.241 55.4994 105.962 55.4748 105.684 55.4502C105.616 55.4451 105.549 55.4393 105.481 55.4334C105.407 55.427 105.333 55.4205 105.257 55.415C104.842 55.3799 104.486 55.7068 104.486 56.1216V60.7655C104.348 63.395 104.161 64.8679 102.963 66.5026C101.49 68.5169 99.312 69.9406 96.7533 69.9406C96.3692 69.9406 95.9709 69.916 95.5691 69.8668C93.7999 69.6524 92.288 68.429 91.1884 66.9983C90.6527 66.3057 90.2228 65.4796 89.895 64.534C88.9082 65.107 87.8403 65.6237 86.6844 66.014C85.2676 66.4885 83.8156 66.7276 82.4164 66.7276C80.8411 66.7276 79.3362 66.4253 78.0146 65.8276C77.8524 65.7538 77.6903 65.673 77.5317 65.5886C74.0814 63.9715 70.5466 60.5475 66.9764 55.3483C65.7147 53.5097 64.6011 51.6782 63.6918 50.0716C63.505 49.7412 63.0362 49.7201 62.8248 50.0365L56.4141 59.5105C55.896 60.2768 55.0431 60.7514 54.1162 60.7866C53.1893 60.8217 52.3012 60.4175 51.7232 59.6933L44.9107 51.1403C44.731 50.9118 44.3645 51.0032 44.3116 51.2915L42.3345 62.365C41.975 66.0878 39.6137 69.3676 34.9969 69.9125C31.973 70.2676 30.091 67.4728 28.2478 64.425C28.1632 64.323 28.0857 64.2176 28.0152 64.1051C25.8654 60.6952 22.7323 57.9532 19.1304 56.1322C18.5341 57.681 18.0276 59.0294 17.5725 60.2409C15.5102 65.7308 14.5039 68.4096 10.9787 74.1837C5.68872 81.0141 2.07631 80.4868 0.966146 80.0896C0.705348 79.9947 0.462167 79.8083 0.285952 79.5412C-0.302602 78.6553 -0.172208 76.8871 2.51684 74.6442C5.64995 72.0323 7.95485 67.7506 8.40596 66.8752C8.45882 66.7733 8.48702 66.7135 8.48702 66.7135C10.154 63.402 11.7259 59.6089 13.4246 54.7295C13.5338 54.4167 13.3541 54.1038 13.0263 54.0335C11.7541 53.7698 11.1514 53.7136 9.93199 53.7171C8.64914 53.7241 7.37334 53.4781 6.20327 52.9543C5.11074 52.4621 4.06049 51.7098 3.98295 50.6236C3.81732 48.3034 6.60856 47.9273 6.60856 47.9273C9.30114 47.6952 11.8351 47.9976 14.6475 48.4546C15.2643 48.5565 15.8634 48.205 16.0713 47.6214C16.7934 45.6014 17.5002 43.5784 18.2031 41.5665L18.3586 41.1215C18.7531 39.9831 19.1511 38.8483 19.5492 37.7135L19.5498 37.7115C19.7938 37.0144 20.0665 36.4211 20.3193 35.8713C20.4719 35.5394 20.6172 35.2233 20.7446 34.9098C21.8512 32.1748 23.3103 29.475 25.52 29.7703C29.2744 30.2729 29.9612 33.8872 30.3843 36.1135C30.4021 36.207 30.4194 36.298 30.4364 36.3862C31.4624 41.6959 31.8333 46.0306 32.1918 50.2197L32.2048 50.3723C32.5084 53.9086 32.8231 57.5745 33.5413 61.9045C33.6647 62.6462 34.3026 63.1805 35.0568 63.1665C35.8462 63.1524 36.47 62.5021 36.5405 61.7217C36.5476 61.6373 36.5581 61.5529 36.5722 61.4685L39.226 42.5522C39.4868 41.1004 40.7908 40.095 42.2287 40.1653C43.1274 40.1266 44.0297 40.4992 44.6323 41.255L53.4008 52.4516C53.5982 52.7047 53.9894 52.6906 54.1726 52.4234L62.0459 39.8946C62.6345 39.0228 63.6495 38.5376 64.6997 38.6255C65.75 38.7134 66.6698 39.3602 67.1068 40.3164C67.1082 40.3194 67.1156 40.3523 67.129 40.4125C67.3205 41.2695 68.7494 47.6632 71.8153 52.1141C72.2594 52.7644 72.7069 53.3796 73.151 53.9632C73.4929 54.4096 74.1731 54.4026 74.4902 53.9386C75.4947 52.4727 76.9925 51.1579 78.9062 50.0962C80.4005 49.2666 81.9512 48.6655 83.4526 48.0854L83.633 48.0154C84.3805 47.7251 85.0901 47.4495 85.7786 47.1468C86.9628 46.6266 87.9179 46.0817 88.6333 45.5157C89.243 45.0341 89.2853 44.1763 88.739 43.6209L88.7284 43.6104C88.1011 42.9741 87.0368 42.6928 85.5742 42.7772C83.657 42.8862 82.0922 43.5084 80.8657 44.563C79.5511 45.695 77.2533 45.8426 76.5167 43.4311C76.1502 42.2253 76.9185 40.9808 77.7784 40.0352C78.8181 38.8927 80.1679 38.0736 81.6446 37.6131C82.7653 37.2651 83.9671 37.0541 85.2394 36.9803C89.2747 36.7518 91.6431 38.274 92.9224 39.5887C95.763 42.51 95.5938 46.6441 95.5374 47.3824L95.0792 56.4837C95.0757 56.5716 95.0687 56.6595 95.0546 56.7474C94.7832 58.709 94.829 62.1998 95.7982 63.4583C95.9639 63.6692 96.0802 63.7184 96.2669 63.7395C97.4723 63.8871 97.9339 63.5005 98.2547 63.0645C98.6 62.5935 98.7551 61.9502 98.6811 61.3033C98.6705 61.1873 98.6564 61.0678 98.6564 60.9483V40.3446C98.6564 40.0879 98.6318 39.8313 98.6036 39.5782C98.593 39.4692 98.5859 39.3602 98.5859 39.2477C98.593 37.6518 98.8467 36.3616 100.447 36.3616H100.528C105.247 36.3897 107.189 36.5304 109.828 37.0612C113.709 37.8416 116.715 40.3621 117.677 43.642C118.773 47.3824 116.926 51.752 113.286 54.1284L115.009 57.5278C116.021 59.5175 117.191 61.3631 118.488 63.0048C119.478 64.2598 120.278 65.0788 120.888 65.6132C120.888 65.6132 121.635 66.4288 123.193 67.1143ZM21.4776 50.8415C23.0424 51.6114 24.5402 52.5219 25.9429 53.5554L25.9394 53.5519C26.2284 53.7628 26.6301 53.5378 26.5984 53.1828C26.5244 52.3602 26.4539 51.5516 26.387 50.7466C26.0839 47.1893 25.7948 43.7964 25.1323 39.8243C25.0724 39.8172 25.0513 39.8172 25.0513 39.8172C25.0442 39.8172 25.0301 39.8172 24.9702 39.8102C24.7328 40.4829 24.4969 41.1583 24.2606 41.8347C24.1214 42.233 23.9822 42.6317 23.8424 43.0303L23.7291 43.3553C22.9207 45.6738 22.1081 48.0044 21.2697 50.3318C21.1992 50.5286 21.2873 50.7466 21.4776 50.8415ZM89.1337 57.6227C89.1725 56.8845 89.236 56.3291 89.2677 56.0759L89.2712 56.0724L89.4086 53.3199C89.4439 52.6449 88.7531 52.1774 88.1329 52.4516L88.1187 52.4586C87.2588 52.8348 86.3918 53.1722 85.5531 53.4956L85.52 53.5085C84.1543 54.038 82.8654 54.5378 81.7292 55.169C80.1186 56.0619 79.0472 57.1763 78.8639 58.1465C78.73 58.8496 79.1882 59.8479 80.175 60.4034C80.8516 60.6952 81.486 60.8463 82.071 60.8463C82.2649 60.8463 82.4552 60.8674 82.6384 60.9026C83.3363 60.878 84.0799 60.7409 84.813 60.4948C86.2297 60.0167 87.5408 59.1941 88.7602 58.3082C88.9822 58.1465 89.1197 57.8969 89.1337 57.6227ZM106.163 49.6463C108.133 49.815 109.117 49.8713 110.001 49.3229H110.005C111.527 48.3737 112.461 46.5562 112.084 45.2626C111.749 44.1166 110.347 43.083 108.676 42.7456L108.662 42.7427C107.339 42.4773 106.606 42.3305 105.328 42.2499C104.863 42.2218 104.472 42.5839 104.472 43.0479V48.771C104.472 49.1893 104.792 49.5373 105.212 49.5689C105.433 49.5854 105.647 49.6033 105.856 49.6208C105.96 49.6295 106.062 49.6381 106.163 49.6463Z" fill="white"/>
</svg>
