<svg width="39" height="39" viewBox="0 0 39 39" fill="none" xmlns="http://www.w3.org/2000/svg">
<path d="M36.8098 0.294922H3.00564C1.8467 0.294922 0.908447 1.23318 0.908447 2.39211V36.1963C0.908447 37.3538 1.8467 38.2935 3.00564 38.2935H21.2055V23.5776H16.2537V17.8427H21.2055V13.6127C21.2055 8.70504 24.2025 6.03265 28.5819 6.03265C30.6791 6.03265 32.4816 6.18926 33.007 6.25903V11.3888H29.9701C27.5896 11.3888 27.1283 12.5221 27.1283 14.1822V17.8441H32.8077L32.0687 23.579H27.1297V38.2949H36.8127C37.9702 38.2949 38.9099 37.3552 38.9099 36.1977V2.39211C38.9099 1.23318 37.9702 0.294922 36.8127 0.294922H36.8098Z" fill="white"/>
</svg>
