<svg width="38" height="39" viewBox="0 0 38 39" fill="none" xmlns="http://www.w3.org/2000/svg">
<path d="M27.1361 38.2949H11.6695C5.7517 38.2949 0.909912 33.4531 0.909912 27.5353V11.0545C0.909912 5.13671 5.7517 0.294922 11.6695 0.294922H27.1353C33.0532 0.294922 37.8949 5.13671 37.8949 11.0545V27.5345C37.8949 33.4523 33.0532 38.2941 27.1353 38.2941L27.1361 38.2949ZM27.1361 35.4514C29.239 35.4514 31.2238 34.6243 32.7249 33.1233C34.2259 31.6222 35.053 29.6374 35.053 27.5345V11.0545C35.053 8.95161 34.2259 6.96685 32.7249 5.46578C31.2238 3.96472 29.239 3.13767 27.1361 3.13767H11.6695C9.56661 3.13767 7.58184 3.96472 6.08077 5.46578C4.57971 6.96685 3.75266 8.95161 3.75266 11.0545V27.5345C3.75266 29.6374 4.57971 31.6222 6.08077 33.1233C7.58184 34.6243 9.56661 35.4514 11.6695 35.4514H27.1361Z" fill="white"/>
<path d="M29.6449 19.1482C29.6449 24.7735 25.0854 29.3329 19.4602 29.3329C13.835 29.3329 9.2755 24.7735 9.2755 19.1482C9.2755 13.523 13.835 8.96351 19.4602 8.96351C25.0854 8.96351 29.6449 13.523 29.6449 19.1482ZM19.4111 12.4874C15.7278 12.4874 12.7423 15.4729 12.7423 19.1562C12.7423 22.8394 15.7278 25.8249 19.4111 25.8249C23.0943 25.8249 26.0798 22.8394 26.0798 19.1562C26.0798 15.4729 23.0943 12.4874 19.4111 12.4874Z" fill="white"/>
<path d="M29.8083 11.2163C31.14 11.2163 32.2197 10.1367 32.2197 8.80492C32.2197 7.47315 31.14 6.39354 29.8083 6.39354C28.4765 6.39354 27.3969 7.47315 27.3969 8.80492C27.3969 10.1367 28.4765 11.2163 29.8083 11.2163Z" fill="white"/>
</svg>
