<svg width="1900" height="19" viewBox="0 0 1900 19" fill="none" xmlns="http://www.w3.org/2000/svg">
<path d="M1900 1.15194C1877.38 1.15194 1877.38 18.2949 1854.75 18.2949C1832.12 18.2949 1832.14 1.15194 1809.51 1.15194C1786.88 1.15194 1786.89 18.2949 1764.26 18.2949C1741.63 18.2949 1741.64 1.15194 1719.01 1.15194C1696.38 1.15194 1696.4 18.2949 1673.78 18.2949C1651.16 18.2949 1651.16 1.15194 1628.54 1.15194C1605.92 1.15194 1605.92 18.2949 1583.29 18.2949C1560.67 18.2949 1560.68 1.15194 1538.05 1.15194C1515.42 1.15194 1515.43 18.2949 1492.81 18.2949C1470.19 18.2949 1470.19 1.15194 1447.58 1.15194C1424.96 1.15194 1424.96 18.2949 1402.34 18.2949C1379.72 18.2949 1379.72 1.15194 1357.1 1.15194C1334.48 1.15194 1334.49 18.2949 1311.87 18.2949C1289.25 18.2949 1289.25 1.15194 1266.63 1.15194C1244.01 1.15194 1244.01 18.2949 1221.39 18.2949C1198.78 18.2949 1198.78 1.15194 1176.16 1.15194C1153.54 1.15194 1153.54 18.2949 1130.92 18.2949C1108.3 18.2949 1108.3 1.15194 1085.69 1.15194C1063.07 1.15194 1063.08 18.2949 1040.46 18.2949C1017.84 18.2949 1017.84 1.15194 995.225 1.15194C972.607 1.15194 972.597 18.2949 949.979 18.2949C927.361 18.2949 927.361 1.15194 904.742 1.15194C882.124 1.15194 882.124 18.2949 859.506 18.2949C836.888 18.2949 836.888 1.15194 814.27 1.15194C791.652 1.15194 791.652 18.2949 769.024 18.2949C746.395 18.2949 746.406 1.15194 723.788 1.15194C701.17 1.15194 701.17 18.2949 678.552 18.2949C655.933 18.2949 655.934 1.15194 633.315 1.15194C610.697 1.15194 610.697 18.2949 588.069 18.2949C565.44 18.2949 565.451 1.15194 542.833 1.15194C520.215 1.15194 520.215 18.2949 497.597 18.2949C474.979 18.2949 474.979 1.15194 452.361 1.15194C429.743 1.15194 429.743 18.2949 407.125 18.2949C384.506 18.2949 384.506 1.15194 361.888 1.15194C339.27 1.15194 339.27 18.2949 316.652 18.2949C294.034 18.2949 294.034 1.15194 271.416 1.15194C248.798 1.15194 248.798 18.2949 226.18 18.2949C203.562 18.2949 203.562 1.15194 180.944 1.15194C158.326 1.15194 158.326 18.2949 135.708 18.2949C113.09 18.2949 113.09 1.15194 90.4721 1.15194C67.8541 1.15194 67.8541 18.2949 45.2361 18.2949C22.618 18.2949 22.618 1.15194 0 1.15194V0.0269279H1900V1.15194Z" fill="#F4E3B3"/>
</svg>
