<svg width="55" height="39" viewBox="0 0 55 39" fill="none" xmlns="http://www.w3.org/2000/svg">
<path d="M28.0842 0.294922C33.2254 0.450617 38.7612 0.599824 44.2948 0.798767C45.641 0.847422 47.0087 0.931757 48.318 1.21936C50.9778 1.80321 52.5878 3.56019 53.3749 6.14104C53.8301 7.6342 54.015 9.16195 54.1609 10.7038C54.521 14.5129 54.5502 18.3328 54.4507 22.1495C54.3804 24.8482 54.1479 27.5447 53.9058 30.2348C53.7911 31.5139 53.3933 32.7519 52.8354 33.9185C51.7931 36.1004 50.0015 37.2984 47.6596 37.6152C45.9859 37.8411 44.2894 37.9547 42.6006 37.9947C36.7891 38.1309 30.9775 38.2758 25.1649 38.2942C21.1115 38.3071 17.0569 38.1493 13.0045 38.0033C11.2778 37.9417 9.54895 37.7784 7.83522 37.5514C4.85107 37.1567 2.90056 35.5057 2.02586 32.5875C1.58148 31.1063 1.3847 29.5936 1.23874 28.0648C0.85923 24.0968 0.847336 20.119 0.950052 16.1455C1.01601 13.5917 1.24955 11.0389 1.48633 8.49376C1.60851 7.18658 2.00748 5.92372 2.58268 4.73547C3.60876 2.61845 5.35816 1.43344 7.6352 1.10691C9.27973 0.871209 10.9513 0.772818 12.6142 0.718758C17.6375 0.553332 22.6619 0.439804 28.0831 0.294922H28.0842ZM22.1224 26.8322C26.8689 24.247 31.5754 21.6824 36.3349 19.0897C31.5657 16.5931 26.8592 14.1312 22.1224 11.652V26.8322Z" fill="white"/>
</svg>
