<svg width="1214" height="200" viewBox="0 0 1214 200" fill="none" xmlns="http://www.w3.org/2000/svg">
<path d="M1200.77 45.4508C1197.75 36.1815 1189.07 29.4767 1178.8 29.4767C1173.51 29.4767 1168.66 31.2688 1164.77 34.2504C1164.38 21.3507 1153.83 11 1140.82 11C1131.01 11 1122.59 16.9014 1118.87 25.3365C1114.93 21.6597 1109.65 19.3887 1103.84 19.3887C1092.21 19.3887 1082.69 28.3953 1081.84 39.812C1079.28 38.6842 1076.45 38.0508 1073.47 38.0508C1068 38.0508 1063.04 40.1673 1059.32 43.6124C1056.04 39.2095 1050.82 36.336 1044.9 36.336C1037.92 36.336 1031.88 40.3218 1028.91 46.146C1028.26 46.0533 1027.62 45.9761 1026.95 45.9761C1019.8 45.9761 1013.99 51.7848 1013.99 58.9376C1013.99 66.0904 1019.8 71.8991 1026.95 71.8991C1029.95 71.8991 1032.68 70.8795 1034.88 69.1801C1037.73 71.1112 1041.2 72.239 1044.9 72.239C1048.61 72.239 1052.26 71.034 1055.16 69.0102C1058.71 75.4678 1065.57 79.8398 1073.47 79.8398C1077.76 79.8398 1081.76 78.5421 1085.09 76.3175C1089.12 82.9759 1096.39 87.4406 1104.75 87.4406C1110.76 87.4406 1116.21 85.1078 1120.31 81.3383C1124.51 88.3057 1132.14 92.9867 1140.89 92.9867C1149.63 92.9867 1156.52 88.7692 1160.83 82.3579C1163.98 85.494 1168.32 87.4406 1173.11 87.4406C1179.88 87.4406 1185.73 83.5784 1188.62 77.9396C1191 79.16 1193.69 79.8552 1196.53 79.8552C1206.17 79.8552 1213.99 72.0382 1213.99 62.3981C1213.99 54.2103 1208.34 47.351 1200.73 45.4662L1200.77 45.4508Z" fill="white"/>
<path d="M106.11 65.0715C119.1 69.4057 120.965 80.9761 123.558 92.3241C132.264 78.136 145.427 92.9539 141.759 104.759C141.364 104.895 141.908 104.821 142.056 104.425C145.328 95.4606 169.469 103.907 169.975 114.242C170.704 129.035 150.774 130.493 141.154 125.146C151.477 146.002 106.48 143.755 110.469 127.64C105.357 148.299 50.8514 149.62 51.8393 126.097C51.5306 133.37 14.7945 140.396 17.2765 122.404C-11.8284 131.876 1.61889 92.9292 15.6342 108.537C8.78089 96.6954 24.7348 92.8304 31.7857 101.091C19.0423 86.1623 54.3336 70.4677 63.5825 88.0269C57.9146 76.6048 73.6463 71.8877 76.9804 83.2111C74.8811 71.6655 87.3899 65.1085 97.071 64.1207C100.343 63.7873 103.356 64.1577 106.098 65.0715H106.11Z" fill="white"/>
<path d="M707 100C707 155.228 662.228 200 607 200C551.772 200 507 155.228 507 100C507 44.7715 551.772 0 607 0C662.228 0 707 44.7715 707 100Z" fill="#7BD3FF"/>
<path d="M679 100C679 139.764 646.764 172 607 172C567.235 172 535 139.764 535 100C535 60.2355 567.235 28 607 28C646.764 28 679 60.2355 679 100Z" fill="#9CDDFF"/>
<path d="M637 100C637 116.569 623.569 130 607 130C590.431 130 577 116.569 577 100C577 83.4315 590.431 70 607 70C623.569 70 637 83.4315 637 100Z" fill="#D9F1FE"/>
</svg>
