<svg width="1531" height="218" viewBox="0 0 1531 218" fill="none" xmlns="http://www.w3.org/2000/svg">
<path d="M1431.58 133.625C1430.74 135.405 1428.98 136.505 1427.1 136.835C1425.35 137.135 1423.13 136.785 1421.86 135.365C1421.35 134.795 1420.89 134.425 1420.4 133.705C1420.18 133.385 1420.01 133.035 1419.84 132.685C1419.61 132.275 1419.35 131.875 1419.05 131.495C1418.97 131.395 1418.89 131.295 1418.81 131.195C1418.86 131.255 1418.91 131.315 1418.97 131.375C1418.97 131.375 1418.96 131.355 1418.95 131.355C1418.9 131.295 1418.85 131.235 1418.79 131.175C1417.9 130.045 1417.29 128.825 1417.24 127.275C1417.18 125.705 1417.81 123.785 1418.93 122.645C1420.14 121.425 1421.77 120.485 1423.54 120.495C1425.33 120.505 1426.74 121.115 1428.17 122.185C1429.33 123.055 1430.38 124.225 1431.11 125.475C1432.65 128.115 1432.88 130.815 1431.56 133.625M1390.06 146.035C1388.28 148.595 1384.67 149.655 1381.85 148.095C1381.25 147.765 1380.38 147.435 1379.86 147.005C1379.21 146.775 1378.57 146.545 1377.93 146.275C1376.22 145.555 1374.67 144.855 1373.27 143.565C1371.18 141.655 1370.87 138.475 1372.47 136.185C1374.19 133.705 1377 133.365 1379.67 134.375C1378.22 133.825 1379.46 134.245 1379.74 134.325C1380.11 134.425 1380.47 134.505 1380.84 134.575C1380.96 134.595 1381.09 134.615 1381.21 134.635C1381.29 134.645 1381.34 134.655 1381.39 134.665C1381.64 134.695 1381.95 134.725 1382.34 134.755C1382.53 134.765 1382.72 134.795 1382.9 134.835C1385.15 135.235 1387.38 136.125 1389.13 137.605C1391.58 139.685 1391.81 143.485 1390.05 146.015M1428.04 180.195C1423.97 181.515 1420.24 184.095 1415.61 184.195C1410.36 184.305 1408.48 177.605 1412.6 174.655C1414.34 173.405 1416.42 172.685 1418.22 171.495C1420.14 170.225 1422.12 169.125 1424.29 168.325C1427.45 167.165 1431.13 169.285 1432.11 172.395C1433.13 175.635 1431.26 179.175 1428.04 180.215M1477.94 168.315C1476.97 170.945 1473.94 172.925 1471.07 172.085C1469.02 171.485 1467.36 170.315 1465.54 169.255C1464.82 168.835 1464.09 168.415 1463.36 168.035C1463.03 167.865 1462.69 167.715 1462.36 167.545C1462.24 167.485 1462.16 167.435 1462.09 167.395C1457.37 166.305 1457.07 159.155 1461.8 157.785C1464.64 156.955 1467.22 157.525 1469.89 158.615C1471.62 159.325 1473.54 160.065 1475.16 161.005C1477.74 162.515 1479.01 165.465 1477.96 168.325M1361.53 177.955C1357.82 179.705 1354.5 177.635 1352.92 174.225C1353.31 175.075 1352.77 174.265 1352.49 173.845C1352.37 173.725 1352.07 173.405 1351.93 173.265C1350.95 172.205 1349.97 171.125 1349.08 169.995C1348.31 169.015 1347.51 167.865 1347.13 166.655C1346.89 165.885 1346.73 164.915 1346.7 164.105C1346.69 163.655 1347.46 160.715 1347.2 161.755C1348.18 157.945 1352.82 157.265 1355.16 159.465C1355.98 160.045 1356.58 160.835 1357.29 161.575C1357.14 161.395 1358.15 162.285 1358.15 162.285C1358.53 162.615 1358.94 162.935 1359.33 163.255C1361.24 164.825 1363.07 166.695 1364.14 168.945C1365.75 172.325 1365.27 176.195 1361.53 177.965M1336.34 131.375C1337 135.185 1334.17 138.845 1330.22 138.985C1326.26 139.125 1322.76 137.465 1318.93 136.835C1314.49 136.105 1313.01 129.065 1317.17 126.905C1319.8 125.535 1322.29 125.355 1325.17 125.775C1326 125.895 1326.87 125.995 1327.67 126.205C1327.7 126.205 1327.72 126.215 1327.74 126.225C1327.75 126.225 1327.76 126.225 1327.78 126.225C1328.28 126.195 1329.51 125.845 1328.01 126.275C1331.78 125.185 1335.65 127.485 1336.33 131.385M1491.55 209.725C1492.25 212.085 1491.34 214.755 1489.26 216.095C1488.01 216.895 1486.21 217.185 1484.65 216.795C1480.09 217.855 1474.79 217.695 1471.15 214.885C1469 213.225 1468.88 209.755 1470.37 207.685C1471.87 205.605 1474.42 204.855 1476.79 205.685C1477.06 205.685 1477.32 205.675 1477.59 205.655C1478.01 205.635 1478.43 205.605 1478.86 205.565C1478.97 205.555 1479.98 205.395 1479.9 205.415C1481.75 205.055 1483.57 204.625 1485.46 204.585C1488.02 204.535 1490.45 206.185 1491.23 208.655C1491.34 209.005 1491.45 209.365 1491.55 209.715M1520.82 171.465C1514.51 168.255 1511.14 161.645 1510.74 154.735C1510.44 149.635 1517.33 147.735 1520.06 151.795C1522.11 154.835 1523.01 158.915 1526.44 160.655C1533.44 164.215 1527.81 175.015 1520.82 171.455" stroke="#F85600" stroke-miterlimit="10"/>
<path d="M98.7778 84.2684C99.6178 82.4884 101.378 81.3884 103.258 81.0584C105.008 80.7584 107.228 81.1084 108.498 82.5284C109.008 83.0984 109.468 83.4684 109.958 84.1884C110.178 84.5084 110.348 84.8584 110.518 85.2084C110.748 85.6184 111.008 86.0184 111.308 86.3984C111.388 86.4984 111.468 86.5984 111.548 86.6984C111.498 86.6384 111.448 86.5784 111.388 86.5184C111.388 86.5184 111.398 86.5384 111.408 86.5384C111.458 86.5984 111.508 86.6584 111.568 86.7184C112.458 87.8484 113.068 89.0684 113.118 90.6184C113.178 92.1884 112.548 94.1084 111.428 95.2484C110.218 96.4684 108.588 97.4084 106.818 97.3984C105.028 97.3884 103.618 96.7784 102.188 95.7084C101.028 94.8384 99.9778 93.6684 99.2478 92.4184C97.7078 89.7784 97.4778 87.0784 98.7978 84.2684M140.298 71.8584C142.078 69.2984 145.688 68.2384 148.508 69.7984C149.108 70.1284 149.978 70.4584 150.498 70.8884C151.148 71.1184 151.788 71.3484 152.428 71.6184C154.138 72.3384 155.688 73.0384 157.088 74.3284C159.178 76.2384 159.488 79.4184 157.888 81.7084C156.168 84.1884 153.358 84.5284 150.688 83.5184C152.138 84.0684 150.898 83.6484 150.618 83.5684C150.248 83.4684 149.888 83.3884 149.518 83.3184C149.398 83.2984 149.268 83.2784 149.148 83.2584C149.068 83.2484 149.018 83.2384 148.968 83.2284C148.718 83.1984 148.408 83.1684 148.018 83.1384C147.828 83.1284 147.638 83.0984 147.458 83.0584C145.208 82.6584 142.978 81.7684 141.228 80.2884C138.778 78.2084 138.548 74.4084 140.308 71.8784M102.318 37.6984C106.388 36.3784 110.118 33.7984 114.748 33.6984C119.998 33.5884 121.878 40.2884 117.758 43.2384C116.018 44.4884 113.938 45.2084 112.138 46.3984C110.218 47.6684 108.238 48.7684 106.068 49.5684C102.908 50.7284 99.2278 48.6084 98.2478 45.4984C97.2278 42.2584 99.0978 38.7184 102.318 37.6784M52.4178 49.5784C53.3878 46.9484 56.4178 44.9684 59.2878 45.8084C61.3378 46.4084 62.9978 47.5784 64.8178 48.6384C65.5378 49.0584 66.2678 49.4784 66.9978 49.8584C67.3278 50.0284 67.6678 50.1784 67.9978 50.3484C68.1178 50.4084 68.1978 50.4584 68.2678 50.4984C72.9878 51.5884 73.2878 58.7384 68.5578 60.1084C65.7178 60.9384 63.1378 60.3684 60.4678 59.2784C58.7378 58.5684 56.8178 57.8284 55.1978 56.8884C52.6178 55.3784 51.3478 52.4284 52.3978 49.5684M168.828 39.9384C172.538 38.1884 175.858 40.2584 177.438 43.6684C177.048 42.8184 177.588 43.6284 177.868 44.0484C177.988 44.1684 178.288 44.4884 178.428 44.6284C179.408 45.6884 180.388 46.7684 181.278 47.8984C182.048 48.8784 182.848 50.0284 183.228 51.2384C183.468 52.0084 183.628 52.9784 183.658 53.7884C183.668 54.2384 182.898 57.1784 183.158 56.1384C182.178 59.9484 177.538 60.6284 175.198 58.4284C174.378 57.8484 173.778 57.0584 173.068 56.3184C173.218 56.4984 172.208 55.6084 172.208 55.6084C171.828 55.2784 171.418 54.9584 171.028 54.6384C169.118 53.0684 167.288 51.1984 166.218 48.9484C164.608 45.5684 165.088 41.6984 168.828 39.9284M194.018 86.5184C193.358 82.7084 196.188 79.0484 200.138 78.9084C204.098 78.7684 207.598 80.4284 211.428 81.0584C215.868 81.7884 217.348 88.8284 213.188 90.9884C210.558 92.3584 208.068 92.5384 205.188 92.1184C204.358 91.9984 203.488 91.8984 202.688 91.6884C202.658 91.6884 202.638 91.6784 202.618 91.6684C202.608 91.6684 202.598 91.6684 202.578 91.6684C202.078 91.6984 200.848 92.0484 202.348 91.6184C198.578 92.7084 194.708 90.4084 194.028 86.5084M38.8078 8.16839C38.1078 5.80839 39.0178 3.13839 41.0978 1.79839C42.3478 0.998388 44.1478 0.708388 45.7078 1.09839C50.2678 0.0383895 55.5678 0.198391 59.2078 3.00839C61.3578 4.66839 61.4778 8.13839 59.9878 10.2084C58.4878 12.2884 55.9378 13.0384 53.5678 12.2084C53.2978 12.2084 53.0378 12.2184 52.7678 12.2384C52.3478 12.2584 51.9278 12.2884 51.4978 12.3284C51.3878 12.3384 50.3778 12.4984 50.4578 12.4784C48.6078 12.8384 46.7878 13.2684 44.8978 13.3084C42.3378 13.3584 39.9078 11.7084 39.1278 9.23839C39.0178 8.88839 38.9078 8.52839 38.8078 8.17839M9.53781 46.4284C15.8478 49.6384 19.2178 56.2484 19.6178 63.1584C19.9178 68.2584 13.0278 70.1584 10.2978 66.0984C8.2478 63.0584 7.34781 58.9784 3.91781 57.2384C-3.08219 53.6784 2.54781 42.8784 9.53781 46.4384" stroke="#F85600" stroke-miterlimit="10"/>
</svg>
