<svg width="1522" height="114" viewBox="0 0 1522 114" fill="none" xmlns="http://www.w3.org/2000/svg">
<path d="M21.8895 92.7919C15.2019 86.3609 8.34066 82.7378 0.294376 80.7451C0.671782 88.7234 1.17751 96.7018 0.535916 104.635C0.173607 109.134 2.78525 112.1 7.27638 112.349C15.1717 112.794 23.8143 113.172 32.6607 113.164C30.7284 105.775 28.3507 99.004 21.882 92.7843" fill="#FFA901"/>
<path d="M15.685 80.4356C20.0025 82.7982 23.3539 85.7344 26.1391 89.1008C26.4033 89.3575 26.675 89.6141 26.9317 89.8632C32.9475 95.7583 38.9633 104.023 39.6578 112.628C49.342 111.949 58.83 110.387 67.0197 107.239C77.4361 103.231 80.8629 94.5279 77.1266 87.6894C69.6162 87.8252 62.0983 87.9762 54.5955 87.795C50.1421 87.6818 49.8175 80.8432 54.3313 80.8357C61.6605 80.8206 69.0124 80.4356 76.3567 80.4054C79.4363 76.1483 81.3611 71.2949 78.8325 66.6905C76.5982 62.6296 73.8658 60.5765 70.6201 59.5198C63.5928 63.5807 56.6259 67.6189 49.9232 72.3063C46.0812 74.9934 41.8996 69.506 45.5227 66.5094C51.6215 61.4521 58.8375 57.0063 66.129 53.2624C66.4234 48.4543 65.9478 43.6537 62.053 40.9288C57.3732 37.6529 53.7124 37.1397 49.727 38.0907C46.3907 44.6047 42.6166 50.0394 39.6276 57.5724C38.2161 61.1427 32.4418 60.7803 32.8267 56.8251C33.657 48.2958 39.1822 40.7628 43.53 33.3732C42.1713 31.4484 40.4277 29.9388 38.0349 29.3802C34.1627 28.4669 30.8718 29.0481 28.0412 30.6181C26.9317 38.521 24.6144 46.2427 24.1313 54.2437C23.8747 58.5763 17.2701 58.4329 17.3833 54.0625C17.572 46.4389 19.5119 39.0871 20.7649 31.622C15.9869 29.2594 10.7334 28.0895 6.08378 31.3427C1.35866 34.6639 0.203799 67.2642 0 74.4198C5.55541 75.3784 11.0429 77.8919 15.685 80.4356Z" fill="#FFA901"/>
<path d="M1500.11 20.3722C1506.8 26.8032 1513.66 30.4263 1521.71 32.419C1521.33 24.4406 1520.82 16.4623 1521.46 8.52921C1521.83 4.03053 1519.21 1.06412 1514.72 0.815034C1506.83 0.369699 1498.19 -0.00771124 1489.34 -0.000164991C1491.27 7.38944 1493.65 14.1601 1500.12 20.3797" fill="#FFA901"/>
<path d="M1506.32 32.7284C1502 30.3659 1498.65 27.4297 1495.86 24.0632C1495.6 23.8066 1495.32 23.5499 1495.07 23.3009C1489.05 17.4058 1483.04 9.1406 1482.34 0.535755C1472.66 1.21508 1463.17 2.77755 1454.98 5.92511C1444.56 9.93315 1441.14 18.6361 1444.87 25.4747C1452.38 25.3388 1459.9 25.1879 1467.4 25.369C1471.86 25.4823 1472.18 32.3208 1467.67 32.3284C1460.34 32.3435 1452.99 32.7284 1445.64 32.7586C1442.56 37.0158 1440.64 41.8692 1443.17 46.4736C1445.4 50.5344 1448.13 52.5875 1451.38 53.6443C1458.41 49.5834 1465.37 45.5451 1472.08 40.8578C1475.92 38.1706 1480.1 43.6581 1476.48 46.6547C1470.38 51.7119 1463.16 56.1578 1455.87 59.9016C1455.58 64.7098 1456.05 69.5104 1459.95 72.2353C1464.63 75.5111 1468.29 76.0244 1472.27 75.0733C1475.61 68.5593 1479.38 63.1247 1482.37 55.5917C1483.78 52.0214 1489.56 52.3837 1489.17 56.3389C1488.34 64.8683 1482.82 72.4013 1478.47 79.7909C1479.83 81.7157 1481.57 83.2253 1483.97 83.7839C1487.84 84.6972 1491.13 84.116 1493.96 82.546C1495.07 74.6431 1497.39 66.9214 1497.87 58.9204C1498.13 54.5878 1504.73 54.7312 1504.62 59.1015C1504.43 66.7251 1502.49 74.077 1501.24 81.5421C1506.01 83.9046 1511.27 85.0746 1515.92 81.8213C1520.64 78.5002 1521.8 45.8999 1522 38.7443C1516.44 37.7857 1510.96 35.2722 1506.32 32.7284Z" fill="#FFA901"/>
</svg>
