<svg width="1154" height="220" viewBox="0 0 1154 220" fill="none" xmlns="http://www.w3.org/2000/svg">
<path d="M915.11 79.3723C921.798 85.8033 928.659 89.4264 936.705 91.4191C936.328 83.4407 935.822 75.4624 936.464 67.5293C936.826 63.0306 934.214 60.0642 929.723 59.8152C921.828 59.3698 913.185 58.9924 904.339 59C906.271 66.3896 908.649 73.1602 915.118 79.3799" fill="#FFA901"/>
<path d="M921.315 91.7286C916.997 89.366 913.646 86.4298 910.861 83.0633C910.596 82.8067 910.325 82.5501 910.068 82.301C904.052 76.4059 898.036 68.1407 897.342 59.5359C887.658 60.2152 878.17 61.7777 869.98 64.9252C859.564 68.9333 856.137 77.6362 859.873 84.4748C867.384 84.339 874.901 84.188 882.404 84.3692C886.858 84.4824 887.182 91.321 882.668 91.3285C875.339 91.3436 867.987 91.7286 860.643 91.7588C857.563 96.0159 855.639 100.869 858.167 105.474C860.402 109.535 863.134 111.588 866.38 112.644C873.407 108.583 880.374 104.545 887.077 99.8579C890.919 97.1708 895.1 102.658 891.477 105.655C885.378 110.712 878.162 115.158 870.871 118.902C870.576 123.71 871.052 128.511 874.947 131.235C879.627 134.511 883.287 135.025 887.273 134.073C890.609 127.559 894.383 122.125 897.372 114.592C898.784 111.022 904.558 111.384 904.173 115.339C903.343 123.868 897.818 131.401 893.47 138.791C894.828 140.716 896.572 142.225 898.965 142.784C902.837 143.697 906.128 143.116 908.959 141.546C910.068 133.643 912.385 125.922 912.868 117.921C913.125 113.588 919.73 113.731 919.616 118.102C919.428 125.725 917.488 133.077 916.235 140.542C921.013 142.905 926.266 144.075 930.916 140.821C935.641 137.5 936.796 104.9 937 97.7444C931.444 96.7858 925.957 94.2723 921.315 91.7286Z" fill="#FFA901"/>
<path d="M1054.9 14.1302C1054.06 15.9102 1052.3 17.0102 1050.42 17.3402C1048.67 17.6402 1046.45 17.2902 1045.18 15.8702C1044.67 15.3002 1044.21 14.9302 1043.72 14.2102C1043.5 13.8902 1043.33 13.5402 1043.16 13.1902C1042.93 12.7802 1042.67 12.3802 1042.37 12.0002C1042.29 11.9002 1042.21 11.8002 1042.13 11.7002C1042.18 11.7602 1042.23 11.8202 1042.29 11.8802C1042.29 11.8802 1042.28 11.8602 1042.27 11.8602C1042.22 11.8002 1042.17 11.7402 1042.11 11.6802C1041.22 10.5502 1040.61 9.33024 1040.56 7.78024C1040.5 6.21024 1041.13 4.29024 1042.25 3.15024C1043.46 1.93024 1045.09 0.990237 1046.86 1.00024C1048.65 1.01024 1050.06 1.62024 1051.49 2.69024C1052.65 3.56024 1053.7 4.73024 1054.43 5.98024C1055.97 8.62024 1056.2 11.3202 1054.88 14.1302M1013.38 26.5402C1011.6 29.1002 1007.99 30.1602 1005.17 28.6002C1004.57 28.2702 1003.7 27.9402 1003.18 27.5102C1002.53 27.2802 1001.89 27.0502 1001.25 26.7802C999.538 26.0602 997.988 25.3602 996.588 24.0702C994.498 22.1602 994.188 18.9802 995.788 16.6902C997.508 14.2102 1000.32 13.8702 1002.99 14.8802C1001.54 14.3302 1002.78 14.7502 1003.06 14.8302C1003.43 14.9302 1003.79 15.0102 1004.16 15.0802C1004.28 15.1002 1004.41 15.1202 1004.53 15.1402C1004.61 15.1502 1004.66 15.1602 1004.71 15.1702C1004.96 15.2002 1005.27 15.2302 1005.66 15.2602C1005.85 15.2702 1006.04 15.3002 1006.22 15.3402C1008.47 15.7402 1010.7 16.6302 1012.45 18.1102C1014.9 20.1902 1015.13 23.9902 1013.37 26.5202M1051.36 60.7002C1047.29 62.0202 1043.56 64.6002 1038.93 64.7002C1033.68 64.8102 1031.8 58.1102 1035.92 55.1602C1037.66 53.9102 1039.74 53.1902 1041.54 52.0002C1043.46 50.7302 1045.44 49.6302 1047.61 48.8302C1050.77 47.6702 1054.45 49.7902 1055.43 52.9002C1056.45 56.1402 1054.58 59.6802 1051.36 60.7202M1101.26 48.8202C1100.29 51.4502 1097.26 53.4302 1094.39 52.5902C1092.34 51.9902 1090.68 50.8202 1088.86 49.7602C1088.14 49.3402 1087.41 48.9202 1086.68 48.5402C1086.35 48.3702 1086.01 48.2202 1085.68 48.0502C1085.56 47.9902 1085.48 47.9402 1085.41 47.9002C1080.69 46.8102 1080.39 39.6602 1085.12 38.2902C1087.96 37.4602 1090.54 38.0302 1093.21 39.1202C1094.94 39.8302 1096.86 40.5702 1098.48 41.5102C1101.06 43.0202 1102.33 45.9702 1101.28 48.8302M984.848 58.4602C981.138 60.2102 977.818 58.1402 976.238 54.7302C976.628 55.5802 976.088 54.7702 975.808 54.3502C975.688 54.2302 975.388 53.9102 975.248 53.7702C974.268 52.7102 973.288 51.6302 972.398 50.5002C971.628 49.5202 970.828 48.3702 970.448 47.1602C970.208 46.3902 970.048 45.4202 970.018 44.6102C970.008 44.1602 970.778 41.2202 970.518 42.2602C971.498 38.4502 976.138 37.7702 978.478 39.9702C979.298 40.5502 979.898 41.3402 980.608 42.0802C980.458 41.9002 981.468 42.7902 981.468 42.7902C981.848 43.1202 982.258 43.4402 982.648 43.7602C984.558 45.3302 986.388 47.2002 987.458 49.4502C989.068 52.8302 988.588 56.7002 984.848 58.4702M959.658 11.8802C960.318 15.6902 957.488 19.3502 953.538 19.4902C949.578 19.6302 946.078 17.9702 942.248 17.3402C937.808 16.6102 936.328 9.57024 940.488 7.41024C943.118 6.04024 945.608 5.86024 948.488 6.28024C949.318 6.40024 950.188 6.50024 950.988 6.71024C951.018 6.71024 951.038 6.72024 951.058 6.73024C951.068 6.73024 951.078 6.73024 951.098 6.73024C951.598 6.70024 952.828 6.35024 951.328 6.78024C955.098 5.69024 958.968 7.99024 959.648 11.8902M1114.87 90.2302C1115.57 92.5902 1114.66 95.2602 1112.58 96.6002C1111.33 97.4002 1109.53 97.6902 1107.97 97.3002C1103.41 98.3602 1098.11 98.2002 1094.47 95.3902C1092.32 93.7302 1092.2 90.2602 1093.69 88.1902C1095.19 86.1102 1097.74 85.3602 1100.11 86.1902C1100.38 86.1902 1100.64 86.1802 1100.91 86.1602C1101.33 86.1402 1101.75 86.1102 1102.18 86.0702C1102.29 86.0602 1103.3 85.9002 1103.22 85.9202C1105.07 85.5602 1106.89 85.1302 1108.78 85.0902C1111.34 85.0402 1113.77 86.6902 1114.55 89.1602C1114.66 89.5102 1114.77 89.8702 1114.87 90.2202M1144.14 51.9702C1137.83 48.7602 1134.46 42.1502 1134.06 35.2402C1133.76 30.1402 1140.65 28.2402 1143.38 32.3002C1145.43 35.3402 1146.33 39.4202 1149.76 41.1602C1156.76 44.7202 1151.13 55.5202 1144.14 51.9602" stroke="#F85600" stroke-miterlimit="10"/>
<path d="M99.1009 205.774C99.9409 203.994 101.701 202.894 103.581 202.564C105.331 202.264 107.551 202.614 108.821 204.034C109.331 204.604 109.791 204.974 110.281 205.694C110.501 206.014 110.671 206.364 110.841 206.714C111.071 207.124 111.331 207.524 111.631 207.904C111.711 208.004 111.791 208.104 111.871 208.204C111.821 208.144 111.771 208.084 111.711 208.024C111.711 208.024 111.721 208.044 111.731 208.044C111.781 208.104 111.831 208.164 111.891 208.224C112.781 209.354 113.391 210.574 113.441 212.124C113.501 213.694 112.871 215.614 111.751 216.754C110.541 217.974 108.911 218.914 107.141 218.904C105.351 218.894 103.941 218.284 102.511 217.214C101.351 216.344 100.301 215.174 99.5709 213.924C98.0309 211.284 97.8009 208.584 99.1209 205.774M140.621 193.364C142.401 190.804 146.011 189.744 148.831 191.304C149.431 191.634 150.301 191.964 150.821 192.394C151.471 192.624 152.111 192.854 152.751 193.124C154.461 193.844 156.011 194.544 157.411 195.834C159.501 197.744 159.811 200.924 158.211 203.214C156.491 205.694 153.681 206.034 151.011 205.024C152.461 205.574 151.221 205.154 150.941 205.074C150.571 204.974 150.211 204.894 149.841 204.824C149.721 204.804 149.591 204.784 149.471 204.764C149.391 204.754 149.341 204.744 149.291 204.734C149.041 204.704 148.731 204.674 148.341 204.644C148.151 204.634 147.961 204.604 147.781 204.564C145.531 204.164 143.301 203.274 141.551 201.794C139.101 199.714 138.871 195.914 140.631 193.384M102.641 159.204C106.711 157.884 110.441 155.304 115.071 155.204C120.321 155.094 122.201 161.794 118.081 164.744C116.341 165.994 114.261 166.714 112.461 167.904C110.541 169.174 108.561 170.274 106.391 171.074C103.231 172.234 99.5509 170.114 98.5709 167.004C97.5509 163.764 99.4209 160.224 102.641 159.184M52.7409 171.084C53.7109 168.454 56.7409 166.474 59.6109 167.314C61.6609 167.914 63.3209 169.084 65.1409 170.144C65.8609 170.564 66.5909 170.984 67.3209 171.364C67.6509 171.534 67.9909 171.684 68.3209 171.854C68.4409 171.914 68.5209 171.964 68.5909 172.004C73.3109 173.094 73.6109 180.244 68.8809 181.614C66.0409 182.444 63.4609 181.874 60.7909 180.784C59.0609 180.074 57.1409 179.334 55.5209 178.394C52.9409 176.884 51.6709 173.934 52.7209 171.074M169.151 161.444C172.861 159.694 176.181 161.764 177.761 165.174C177.371 164.324 177.911 165.134 178.191 165.554C178.311 165.674 178.611 165.994 178.751 166.134C179.731 167.194 180.711 168.274 181.601 169.404C182.371 170.384 183.171 171.534 183.551 172.744C183.791 173.514 183.951 174.484 183.981 175.294C183.991 175.744 183.221 178.684 183.481 177.644C182.501 181.454 177.861 182.134 175.521 179.934C174.701 179.354 174.101 178.564 173.391 177.824C173.541 178.004 172.531 177.114 172.531 177.114C172.151 176.784 171.741 176.464 171.351 176.144C169.441 174.574 167.611 172.704 166.541 170.454C164.931 167.074 165.411 163.204 169.151 161.434M194.341 208.024C193.681 204.214 196.511 200.554 200.461 200.414C204.421 200.274 207.921 201.934 211.751 202.564C216.191 203.294 217.671 210.334 213.511 212.494C210.881 213.864 208.391 214.044 205.511 213.624C204.681 213.504 203.811 213.404 203.011 213.194C202.981 213.194 202.961 213.184 202.941 213.174C202.931 213.174 202.921 213.174 202.901 213.174C202.401 213.204 201.171 213.554 202.671 213.124C198.901 214.214 195.031 211.914 194.351 208.014M39.1309 129.674C38.4309 127.314 39.3409 124.644 41.4209 123.304C42.6709 122.504 44.4709 122.214 46.0309 122.604C50.5909 121.544 55.8909 121.704 59.5309 124.514C61.6809 126.174 61.8009 129.644 60.3109 131.714C58.8109 133.794 56.2609 134.544 53.8909 133.714C53.6209 133.714 53.3609 133.724 53.0909 133.744C52.6709 133.764 52.2509 133.794 51.8209 133.834C51.7109 133.844 50.7009 134.004 50.7809 133.984C48.9309 134.344 47.1109 134.774 45.2209 134.814C42.6609 134.864 40.2309 133.214 39.4509 130.744C39.3409 130.394 39.2309 130.034 39.1309 129.684M9.8609 167.934C16.1709 171.144 19.5409 177.754 19.9409 184.664C20.2409 189.764 13.3509 191.664 10.6209 187.604C8.57089 184.564 7.6709 180.484 4.2409 178.744C-2.7591 175.184 2.8709 164.384 9.8609 167.944" stroke="#F85600" stroke-miterlimit="10"/>
<path d="M238.889 132.845C232.202 126.414 225.34 122.791 217.294 120.798C217.671 128.777 218.177 136.755 217.536 144.688C217.173 149.187 219.785 152.153 224.276 152.402C232.171 152.848 240.814 153.225 249.66 153.218C247.728 145.828 245.35 139.057 238.882 132.838" fill="#FFA901"/>
<path d="M232.685 120.489C237.002 122.851 240.354 125.788 243.139 129.154C243.403 129.411 243.675 129.667 243.931 129.916C249.947 135.812 255.963 144.077 256.657 152.682C266.342 152.002 275.83 150.44 284.019 147.292C294.436 143.284 297.863 134.581 294.126 127.743C286.616 127.879 279.098 128.029 271.595 127.848C267.142 127.735 266.817 120.897 271.331 120.889C278.66 120.874 286.012 120.489 293.356 120.459C296.436 116.202 298.361 111.348 295.832 106.744C293.598 102.683 290.866 100.63 287.62 99.5731C280.593 103.634 273.626 107.672 266.923 112.36C263.081 115.047 258.899 109.559 262.522 106.563C268.621 101.505 275.837 97.0596 283.129 93.3157C283.423 88.5076 282.948 83.707 279.053 80.9821C274.373 77.7062 270.712 77.1929 266.727 78.144C263.39 84.658 259.616 90.0927 256.627 97.6257C255.216 101.196 249.441 100.834 249.826 96.8784C250.657 88.3491 256.182 80.816 260.53 73.4264C259.171 71.5017 257.427 69.9921 255.035 69.4335C251.162 68.5202 247.871 69.1014 245.041 70.6714C243.931 78.5743 241.614 86.296 241.131 94.297C240.874 98.6296 234.27 98.4862 234.383 94.1158C234.572 86.4922 236.512 79.1404 237.765 71.6753C232.987 69.3127 227.733 68.1428 223.083 71.396C218.358 74.7172 217.203 107.317 217 114.473C222.555 115.432 228.043 117.945 232.685 120.489Z" fill="#FFA901"/>
</svg>
