<svg width="30" height="28" viewBox="0 0 30 28" fill="none" xmlns="http://www.w3.org/2000/svg">
<path d="M22.2923 12.2887C21.9548 12.6016 21.6173 12.9698 21.3044 13.3932C21.0773 13.7061 20.8871 14.019 20.7153 14.332C21.6971 14.8474 22.5193 15.4856 23.1145 16.2219C23.3845 15.9519 23.6483 15.6512 23.8938 15.3137C24.9246 13.9209 25.3542 12.4359 25.0044 11.7119C25.0351 11.6935 25.0658 11.6812 25.0964 11.6628C26.8329 10.6381 29.3426 7.39212 27.7349 3.9498C25.9432 0.108635 22.6298 -0.204304 20.4883 0.0779544C19.9422 0.151587 19.7704 0.826552 20.1876 1.18244C21.47 2.26239 22.1696 3.72276 22.4211 4.80884C22.6298 5.71084 22.3905 6.8276 21.9364 7.52711C21.7032 7.883 21.1632 7.79096 21.0589 7.37985C20.2612 4.21365 18.4327 3.47732 18.4327 3.47732C16.911 4.92543 16.8128 7.52097 18.1443 9.79131C19.077 11.3744 20.6846 12.1905 22.2861 12.2887H22.2923Z" fill="#F85600"/>
<path d="M4.22776 11.6628C4.22776 11.6628 4.28912 11.6935 4.3198 11.7119C3.97004 12.4421 4.39957 13.9209 5.43042 15.3137C5.682 15.6512 5.94585 15.9519 6.2097 16.2219C6.81103 15.4917 7.62713 14.8474 8.60889 14.332C8.44322 14.019 8.253 13.7061 8.01983 13.3932C7.70689 12.9698 7.36941 12.6016 7.03193 12.2887C8.6273 12.1844 10.2411 11.3683 11.1738 9.79131C12.5053 7.52711 12.4071 4.92543 10.8854 3.47732C10.8854 3.47732 9.05682 4.21365 8.25914 7.37985C8.15483 7.79096 7.61485 7.87687 7.38168 7.52711C6.92762 6.8276 6.68217 5.71698 6.89694 4.80884C7.14851 3.72276 7.84802 2.26239 9.13046 1.18244C9.55384 0.826552 9.3759 0.151587 8.82979 0.0779544C6.68831 -0.204304 3.37485 0.108635 1.58312 3.9498C-0.0183851 7.39212 2.49126 10.6442 4.22776 11.6628Z" fill="#F85600"/>
<path d="M29.1401 23.9349L26.5691 21.867C25.9003 21.3271 25.0596 21.0325 24.2006 21.0325H22.8507C22.9795 20.4619 23.047 19.9403 23.0715 19.5476H24.759C25.4953 19.5476 26.2009 19.2285 26.6918 18.6763L28.2258 16.9459C28.3731 16.7803 28.367 16.5287 28.2136 16.3691C28.0786 16.228 27.8577 16.2035 27.692 16.3017L25.8328 17.4245C25.4278 17.67 24.9676 17.7988 24.4951 17.7988H22.7647C22.1082 16.4121 20.5005 15.2708 18.3897 14.6449C18.5922 14.4118 18.715 14.1111 18.715 13.7797C18.715 13.0434 18.1198 12.4421 17.3773 12.4421C16.6348 12.4421 16.0396 13.0373 16.0396 13.7797C16.0396 13.927 16.0703 14.0681 16.1133 14.2031C15.6408 14.154 15.1561 14.1234 14.659 14.1234C14.162 14.1234 13.6773 14.154 13.2048 14.2031C13.2477 14.0681 13.2784 13.927 13.2784 13.7797C13.2784 13.0434 12.6832 12.4421 11.9408 12.4421C11.1983 12.4421 10.6031 13.0373 10.6031 13.7797C10.6031 14.1111 10.732 14.4118 10.9283 14.6449C8.81752 15.2708 7.20374 16.4121 6.55332 17.7988H4.82295C4.35048 17.7988 3.89028 17.67 3.4853 17.4245L1.62607 16.3017C1.4604 16.1973 1.2395 16.228 1.10451 16.3691C0.95111 16.5287 0.944974 16.7803 1.09224 16.9459L2.62625 18.6763C3.11713 19.2285 3.81664 19.5476 4.5591 19.5476H6.24652C6.27106 19.9403 6.33242 20.4619 6.46741 21.0325H5.11748C4.2523 21.0325 3.4178 21.3271 2.74897 21.867L0.177968 23.9349C-0.0245212 24.1006 -0.0613375 24.4012 0.104336 24.6099C0.245465 24.7878 0.497043 24.8369 0.699532 24.7326L3.5712 23.217C4.11731 22.9286 4.72478 22.7752 5.33838 22.7752H7.09329C7.23442 23.0452 7.39396 23.2967 7.57804 23.536L5.74336 25.1744C5.21566 25.6468 5.19725 26.4691 5.70654 26.9661L6.67604 27.9049C6.76194 27.9908 6.88466 28.0215 7.00125 27.9847C7.21601 27.9233 7.31419 27.684 7.20374 27.4877L6.69445 26.6041C6.60854 26.4507 6.65149 26.2605 6.79262 26.1561L8.96478 24.6344C9.01387 24.6589 9.06296 24.6835 9.11205 24.7019C11.5665 25.6346 11.996 26.7084 14.6468 26.7084C17.2975 26.7084 17.7209 25.6346 20.1815 24.7019C20.2367 24.6835 20.2796 24.6528 20.3287 24.6344L22.5009 26.1561C22.642 26.2543 22.685 26.4507 22.5991 26.6041L22.0898 27.4877C21.9793 27.6779 22.0775 27.9233 22.2923 27.9847C22.4089 28.0154 22.5316 27.9847 22.6175 27.9049L23.587 26.9661C24.0963 26.4691 24.084 25.6468 23.5502 25.1744L21.7155 23.536C21.8996 23.2967 22.0652 23.039 22.2002 22.7752H23.9551C24.5687 22.7752 25.1762 22.9286 25.7223 23.217L28.594 24.7326C28.7965 24.8369 29.0481 24.7878 29.1892 24.6099C29.3549 24.4074 29.3242 24.1006 29.1156 23.9349H29.1401Z" fill="#F85600"/>
</svg>
