<svg width="372" height="69" viewBox="0 0 372 69" fill="none" xmlns="http://www.w3.org/2000/svg">
<path d="M345.215 42.0495C342.899 40.112 341.566 37.2766 341.566 34.2521C341.566 31.2276 342.899 28.3922 345.215 26.4546L361.698 12.7217C362.842 11.7671 364.136 11.096 365.497 10.718C364.543 4.66902 359.288 0 352.984 0H19.1959C12.8729 0 7.59897 4.69738 6.67273 10.7747C7.96758 11.1622 9.20572 11.8049 10.2926 12.7122L26.776 26.4452C29.101 28.3827 30.4242 31.2182 30.4242 34.2426C30.4242 37.2671 29.0916 40.1025 26.776 42.0401L10.2926 55.7731C9.19627 56.6804 7.96758 57.3326 6.66328 57.7201C7.58952 63.7974 12.8634 68.4947 19.1865 68.4947H352.974C359.278 68.4947 364.533 63.8257 365.488 57.7768C364.127 57.3987 362.832 56.7277 361.688 55.7825L345.205 42.0495H345.215Z" fill="#F85600"/>
<path d="M22.7213 31.3316L6.23796 17.5986C3.76168 15.5287 0 17.2962 0 20.5191V47.9851C0 51.208 3.76168 52.9754 6.23796 50.9056L22.7213 37.1726C24.5454 35.6509 24.5454 32.8438 22.7213 31.3221V31.3316Z" fill="#FFA901"/>
<path d="M349.279 31.3316L365.762 17.5986C368.238 15.5287 372 17.2962 372 20.5191V47.9851C372 51.208 368.238 52.9754 365.762 50.9056L349.279 37.1726C347.455 35.6509 347.455 32.8438 349.279 31.3221V31.3316Z" fill="#FFA901"/>
<path d="M83.0878 46.3405C82.8326 46.3405 82.6341 46.2649 82.4734 46.1042C82.3128 45.9435 82.2372 45.7356 82.2372 45.4899V23.1939C82.2372 22.9387 82.3128 22.7402 82.4734 22.5795C82.6341 22.4189 82.842 22.3433 83.0878 22.3433H92.1801C95.0344 22.3433 97.2933 23.0049 98.9379 24.3186C100.582 25.6324 101.405 27.5226 101.405 29.9989C101.405 31.6718 101.008 33.0612 100.204 34.1859C99.401 35.3106 98.333 36.1424 96.9814 36.6906L101.821 45.263C101.887 45.4048 101.925 45.5277 101.925 45.6411C101.925 45.8207 101.858 45.9908 101.717 46.142C101.575 46.2932 101.405 46.3689 101.206 46.3689H97.3973C96.9814 46.3689 96.679 46.2649 96.471 46.0475C96.2631 45.8301 96.1213 45.6316 96.0268 45.4426L91.8398 37.5885H87.6906V45.5088C87.6906 45.764 87.6056 45.9624 87.4544 46.1231C87.2937 46.2838 87.0857 46.3594 86.84 46.3594H83.0972L83.0878 46.3405ZM87.6812 33.203H92.0761C93.3332 33.203 94.2689 32.9194 94.8737 32.3429C95.4786 31.7758 95.7811 30.9724 95.7811 29.9422C95.7811 28.912 95.4881 28.0992 94.8927 27.5037C94.2972 26.9083 93.3615 26.6153 92.0761 26.6153H87.6812V33.203Z" fill="white"/>
<path d="M106.48 46.3405C106.225 46.3405 106.026 46.2649 105.866 46.1042C105.705 45.9435 105.63 45.7356 105.63 45.4899V23.1939C105.63 22.9387 105.705 22.7402 105.866 22.5795C106.026 22.4189 106.234 22.3433 106.48 22.3433H122.018C122.274 22.3433 122.472 22.4283 122.633 22.5795C122.793 22.7308 122.869 22.9481 122.869 23.1939V25.9348C122.869 26.1616 122.784 26.3601 122.633 26.5208C122.481 26.6815 122.264 26.7571 122.018 26.7571H110.903V32.1444H121.262C121.517 32.1444 121.716 32.2295 121.877 32.3807C122.037 32.5414 122.113 32.7493 122.113 32.995V35.5375C122.113 35.7643 122.028 35.9628 121.877 36.1235C121.725 36.2842 121.508 36.3598 121.262 36.3598H110.903V41.9172H122.292C122.548 41.9172 122.746 42.0023 122.907 42.1535C123.067 42.3047 123.143 42.5221 123.143 42.7679V45.4804C123.143 45.7356 123.058 45.9341 122.907 46.0948C122.746 46.2554 122.538 46.3311 122.292 46.3311H106.48V46.3405Z" fill="white"/>
<path d="M135.874 46.6808C133.681 46.6808 131.848 46.3594 130.373 45.7167C128.899 45.074 127.784 44.2423 127.028 43.2121C126.271 42.1819 125.875 41.0855 125.827 39.923C125.827 39.7434 125.893 39.5733 126.035 39.422C126.177 39.2708 126.347 39.1952 126.546 39.1952H130.213C130.506 39.1952 130.742 39.2614 130.903 39.3842C131.063 39.5071 131.215 39.6678 131.347 39.8474C131.508 40.2349 131.763 40.6129 132.122 40.9815C132.472 41.3501 132.963 41.6526 133.577 41.8889C134.192 42.1252 134.957 42.248 135.874 42.248C137.358 42.248 138.473 42.0117 139.22 41.5297C139.967 41.0477 140.335 40.3955 140.335 39.5733C140.335 38.9778 140.137 38.4958 139.73 38.1366C139.333 37.768 138.7 37.4372 137.84 37.1442C136.98 36.8512 135.846 36.5299 134.428 36.1802C132.717 35.8116 131.252 35.339 130.052 34.753C128.852 34.167 127.944 33.4204 127.34 32.4941C126.735 31.5679 126.432 30.4148 126.432 29.0443C126.432 27.6739 126.81 26.4546 127.566 25.3961C128.322 24.3375 129.381 23.4963 130.751 22.8914C132.122 22.2865 133.757 21.9841 135.657 21.9841C137.188 21.9841 138.539 22.192 139.721 22.5984C140.902 23.0143 141.885 23.5436 142.67 24.2146C143.454 24.8762 144.059 25.5851 144.466 26.3412C144.881 27.0973 145.099 27.8251 145.118 28.534C145.118 28.7135 145.052 28.8837 144.91 29.0349C144.777 29.1861 144.598 29.2617 144.399 29.2617H140.562C140.335 29.2617 140.127 29.2145 139.948 29.1199C139.768 29.0254 139.617 28.8648 139.504 28.6379C139.362 28.0425 138.955 27.5226 138.284 27.0784C137.613 26.6342 136.734 26.4074 135.657 26.4074C134.579 26.4074 133.653 26.6153 133.001 27.0217C132.349 27.4376 132.027 28.0614 132.027 28.912C132.027 29.4602 132.198 29.9233 132.528 30.3014C132.859 30.6794 133.417 31.0102 134.211 31.2938C134.995 31.5773 136.044 31.8987 137.349 32.2389C139.362 32.6548 140.997 33.1463 142.254 33.7134C143.511 34.2899 144.437 35.0177 145.033 35.925C145.628 36.8323 145.921 37.9665 145.921 39.337C145.921 40.8681 145.496 42.1819 144.636 43.2782C143.776 44.3746 142.604 45.2158 141.101 45.8018C139.607 46.3878 137.859 46.6808 135.874 46.6808Z" fill="white"/>
<path d="M150.448 46.3405C150.193 46.3405 149.995 46.2649 149.834 46.1042C149.673 45.9435 149.598 45.7356 149.598 45.4899V23.1939C149.598 22.9387 149.673 22.7402 149.834 22.5795C149.995 22.4189 150.203 22.3433 150.448 22.3433H165.987C166.242 22.3433 166.44 22.4283 166.601 22.5795C166.762 22.7308 166.837 22.9481 166.837 23.1939V25.9348C166.837 26.1616 166.752 26.3601 166.601 26.5208C166.45 26.6815 166.232 26.7571 165.987 26.7571H154.872V32.1444H165.23C165.486 32.1444 165.684 32.2295 165.845 32.3807C166.005 32.5414 166.081 32.7493 166.081 32.995V35.5375C166.081 35.7643 165.996 35.9628 165.845 36.1235C165.694 36.2842 165.476 36.3598 165.23 36.3598H154.872V41.9172H166.261C166.516 41.9172 166.714 42.0023 166.875 42.1535C167.036 42.3047 167.111 42.5221 167.111 42.7679V45.4804C167.111 45.7356 167.026 45.9341 166.875 46.0948C166.714 46.2554 166.506 46.3311 166.261 46.3311H150.448V46.3405Z" fill="white"/>
<path d="M172.054 46.3405C171.799 46.3405 171.601 46.2649 171.44 46.1042C171.279 45.9435 171.204 45.7356 171.204 45.4899V23.1939C171.204 22.9387 171.279 22.7402 171.44 22.5795C171.601 22.4189 171.809 22.3433 172.054 22.3433H181.147C184.001 22.3433 186.26 23.0049 187.904 24.3186C189.549 25.6324 190.371 27.5226 190.371 29.9989C190.371 31.6718 189.974 33.0612 189.171 34.1859C188.368 35.3106 187.3 36.1424 185.948 36.6906L190.787 45.263C190.853 45.4048 190.891 45.5277 190.891 45.6411C190.891 45.8207 190.825 45.9908 190.683 46.142C190.541 46.2932 190.371 46.3689 190.173 46.3689H186.364C185.948 46.3689 185.646 46.2649 185.438 46.0475C185.23 45.8301 185.088 45.6316 184.993 45.4426L180.806 37.5885H176.657V45.5088C176.657 45.764 176.572 45.9624 176.421 46.1231C176.26 46.2838 176.052 46.3594 175.807 46.3594H172.064L172.054 46.3405ZM176.657 33.203H181.052C182.309 33.203 183.245 32.9194 183.85 32.3429C184.455 31.7758 184.757 30.9724 184.757 29.9422C184.757 28.912 184.464 28.0992 183.869 27.5037C183.273 26.9083 182.338 26.6153 181.052 26.6153H176.657V33.203Z" fill="white"/>
<path d="M200.768 46.3405C200.399 46.3405 200.106 46.246 199.889 46.0475C199.672 45.849 199.52 45.6222 199.426 45.3481L192.224 23.364C192.205 23.2506 192.186 23.1466 192.186 23.0521C192.186 22.8725 192.252 22.7024 192.394 22.5512C192.536 22.4 192.706 22.3243 192.904 22.3243H196.505C196.846 22.3243 197.12 22.4189 197.309 22.6173C197.498 22.8158 197.621 22.986 197.668 23.1466L203.017 39.923L208.339 23.1466C208.405 22.986 208.537 22.8064 208.717 22.6173C208.896 22.4189 209.161 22.3243 209.501 22.3243H213.102C213.31 22.3243 213.48 22.4 213.612 22.5512C213.754 22.7024 213.82 22.8631 213.82 23.0521C213.82 23.1466 213.811 23.2506 213.783 23.364L206.581 45.3481C206.514 45.6222 206.373 45.8585 206.155 46.0475C205.938 46.246 205.635 46.3405 205.248 46.3405H200.758H200.768Z" fill="white"/>
<path d="M218.121 46.3405C217.866 46.3405 217.667 46.2649 217.506 46.1042C217.346 45.9435 217.27 45.7356 217.27 45.4899V23.1939C217.27 22.9387 217.346 22.7402 217.506 22.5795C217.667 22.4189 217.875 22.3433 218.121 22.3433H233.659C233.914 22.3433 234.113 22.4283 234.273 22.5795C234.434 22.7308 234.51 22.9481 234.51 23.1939V25.9348C234.51 26.1616 234.425 26.3601 234.273 26.5208C234.122 26.6815 233.905 26.7571 233.659 26.7571H222.544V32.1444H232.903C233.158 32.1444 233.357 32.2295 233.517 32.3807C233.678 32.5414 233.754 32.7493 233.754 32.995V35.5375C233.754 35.7643 233.668 35.9628 233.517 36.1235C233.366 36.2842 233.149 36.3598 232.903 36.3598H222.544V41.9172H233.933C234.188 41.9172 234.387 42.0023 234.547 42.1535C234.708 42.3047 234.784 42.5221 234.784 42.7679V45.4804C234.784 45.7356 234.699 45.9341 234.547 46.0948C234.387 46.2554 234.179 46.3311 233.933 46.3311H218.121V46.3405Z" fill="white"/>
<path d="M254.481 46.6808C253.195 46.6808 251.985 46.5201 250.842 46.1987C249.698 45.8774 248.677 45.3954 247.789 44.7432C246.9 44.0911 246.192 43.2877 245.681 42.3236C245.171 41.3596 244.887 40.2443 244.84 38.9589C244.84 38.751 244.906 38.5809 245.048 38.4296C245.19 38.2784 245.369 38.2028 245.596 38.2028H249.509C249.802 38.2028 250.038 38.2879 250.208 38.4391C250.379 38.5998 250.511 38.8266 250.605 39.129C250.719 39.8663 250.955 40.4522 251.324 40.9154C251.692 41.369 252.156 41.7093 252.713 41.9267C253.271 42.1441 253.904 42.248 254.613 42.248C255.917 42.248 256.919 41.8227 257.618 40.9815C258.318 40.1403 258.668 38.94 258.668 37.3805V26.8894H247.241C247.014 26.8894 246.815 26.8043 246.655 26.6531C246.494 26.4924 246.418 26.3034 246.418 26.0671V23.1844C246.418 22.9292 246.494 22.7308 246.655 22.5701C246.815 22.4094 247.004 22.3338 247.241 22.3338H263.393C263.648 22.3338 263.847 22.4189 264.008 22.5701C264.168 22.7308 264.244 22.9387 264.244 23.1844V37.5223C264.244 39.4882 263.828 41.1517 263.006 42.5127C262.183 43.8737 261.04 44.9039 259.575 45.6127C258.11 46.3216 256.409 46.6808 254.462 46.6808H254.481Z" fill="white"/>
<path d="M267.174 46.3405C266.966 46.3405 266.796 46.2649 266.663 46.1137C266.531 45.9624 266.456 45.8018 266.456 45.6127C266.456 45.4993 266.465 45.3954 266.493 45.3008L274.659 23.2506C274.726 22.9954 274.867 22.778 275.075 22.5984C275.283 22.4189 275.567 22.3243 275.935 22.3243H280.33C280.699 22.3243 280.982 22.4189 281.19 22.5984C281.398 22.778 281.531 22.9954 281.606 23.2506L289.772 45.3008C289.791 45.3954 289.81 45.4993 289.81 45.6127C289.81 45.7923 289.744 45.9624 289.602 46.1137C289.46 46.2649 289.29 46.3405 289.092 46.3405H285.529C285.188 46.3405 284.933 46.2649 284.772 46.1042C284.612 45.9435 284.508 45.7923 284.461 45.66L282.986 41.8227H273.317L271.843 45.66C271.796 45.8018 271.692 45.9435 271.531 46.1042C271.37 46.2649 271.115 46.3405 270.775 46.3405H267.174ZM274.546 37.3805H281.644L278.109 27.5037L274.546 37.3805ZM276.294 20.6136C275.926 20.6136 275.746 20.4341 275.746 20.0654C275.746 19.8859 275.803 19.7346 275.916 19.6212L278.837 16.0864C279.045 15.8123 279.234 15.6327 279.404 15.5571C279.574 15.4815 279.81 15.4342 280.103 15.4342H284.319C284.754 15.4342 284.971 15.6611 284.971 16.1242C284.971 16.2849 284.914 16.4172 284.801 16.5401L280.378 20.1411C280.198 20.3017 280.009 20.4246 279.829 20.5002C279.65 20.5853 279.404 20.6231 279.111 20.6231H276.294V20.6136Z" fill="white"/>
</svg>
