<svg width="39" height="39" viewBox="0 0 39 39" fill="none" xmlns="http://www.w3.org/2000/svg">
<path fill-rule="evenodd" clip-rule="evenodd" d="M19.5 0.294922C9.0063 0.294922 0.5 8.80122 0.5 19.2949C0.5 29.7886 9.0063 38.2949 19.5 38.2949C29.9937 38.2949 38.5 29.7882 38.5 19.2949C38.5 8.8016 29.9929 0.294922 19.5 0.294922ZM27.382 26.9063C27.0749 27.4102 26.4187 27.5679 25.9167 27.2605C21.9012 24.8064 16.8472 24.252 10.8945 25.6117C10.3207 25.7435 9.7492 25.3837 9.61848 24.8106C9.48662 24.2368 9.84496 23.6653 10.4195 23.5346C16.9335 22.0454 22.521 22.686 27.0282 25.4403C27.5309 25.7469 27.6886 26.4036 27.3816 26.9059L27.382 26.9063ZM29.4742 22.2502C29.0882 22.8776 28.2674 23.0744 27.6407 22.6891C23.0454 19.8645 16.0378 19.046 10.6012 20.6964C9.89626 20.9092 9.15108 20.5117 8.93714 19.8083C8.7251 19.103 9.12258 18.3597 9.82634 18.1454C16.0371 16.261 23.7575 17.1738 29.0357 20.4171C29.6623 20.8028 29.8596 21.6239 29.4742 22.2502ZM31.8462 16.842C31.3951 17.602 30.4132 17.8528 29.6547 17.4018C24.1425 14.1284 15.051 13.8275 9.78872 15.4242C8.9436 15.6807 8.05022 15.2035 7.7941 14.3587C7.53836 13.5132 8.01488 12.6202 8.86038 12.3633C14.9005 10.5298 24.942 10.8844 31.2876 14.6509C32.048 15.1024 32.2969 16.0835 31.8462 16.8424V16.842Z" fill="white"/>
</svg>
