<svg width="48" height="39" viewBox="0 0 48 39" fill="none" xmlns="http://www.w3.org/2000/svg">
<path d="M42.3452 0.294922H6.15476C3.03899 0.294922 0.5 2.32611 0.5 4.81873V33.7711C0.5 36.2637 3.03899 38.2949 6.15476 38.2949H42.3452C45.461 38.2949 48 36.2637 48 33.7711V4.81873C48 2.32611 45.461 0.294922 42.3452 0.294922ZM37.8271 16.8747C37.5726 16.8928 37.3125 16.9064 37.0467 16.9064C34.078 16.9064 31.4711 15.6849 29.9557 13.8392V24.2756C29.9557 28.5371 25.6354 31.9887 20.3143 31.9887C14.9932 31.9887 10.6729 28.5325 10.6729 24.2756C10.6729 20.0187 14.9932 16.5625 20.3143 16.5625C20.5179 16.5625 20.7101 16.5761 20.908 16.5852V20.3852C20.7101 20.3671 20.5179 20.3354 20.3143 20.3354C17.5943 20.3354 15.3946 22.0997 15.3946 24.2711C15.3946 26.4425 17.6 28.2068 20.3143 28.2068C23.0286 28.2068 25.4318 26.4923 25.4318 24.3163C25.4318 24.2304 25.4771 6.58754 25.4771 6.58754H30.0179C30.4476 9.83564 33.7217 12.4006 37.8214 12.6359V16.8611L37.8271 16.8747Z" fill="white"/>
</svg>
