<svg width="220" height="220" viewBox="0 0 220 220" fill="none" xmlns="http://www.w3.org/2000/svg">
<path d="M198.11 20.3724C204.798 26.8034 211.659 30.4265 219.706 32.4192C219.328 24.4409 218.822 16.4625 219.464 8.52945C219.826 4.03077 217.215 1.06436 212.724 0.815277C204.828 0.369942 196.186 -0.00746918 187.339 7.62939e-05C189.272 7.38968 191.649 14.1603 198.118 20.38" fill="#FFA901"/>
<path d="M204.315 32.7287C199.998 30.3661 196.646 27.4299 193.861 24.0635C193.597 23.8068 193.325 23.5502 193.068 23.3011C187.052 17.406 181.037 9.14084 180.342 0.535995C170.658 1.21532 161.17 2.77779 152.98 5.92535C142.564 9.93339 139.137 18.6364 142.873 25.4749C150.384 25.3391 157.902 25.1881 165.405 25.3693C169.858 25.4825 170.182 32.3211 165.669 32.3286C158.339 32.3437 150.988 32.7287 143.643 32.7589C140.564 37.016 138.639 41.8694 141.168 46.4738C143.402 50.5347 146.134 52.5878 149.38 53.6445C156.407 49.5836 163.374 45.5454 170.077 40.858C173.919 38.1709 178.1 43.6583 174.477 46.6549C168.378 51.7122 161.162 56.158 153.871 59.9019C153.577 64.71 154.052 69.5106 157.947 72.2355C162.627 75.5114 166.288 76.0246 170.273 75.0736C173.609 68.5596 177.383 63.1249 180.372 55.5919C181.784 52.0217 187.558 52.384 187.173 56.3392C186.343 64.8685 180.818 72.4016 176.47 79.7912C177.829 81.7159 179.572 83.2255 181.965 83.7841C185.837 84.6974 189.128 84.1162 191.959 82.5462C193.068 74.6433 195.386 66.9216 195.869 58.9206C196.125 54.588 202.73 54.7314 202.617 59.1018C202.428 66.7254 200.488 74.0772 199.235 81.5423C204.013 83.9049 209.267 85.0748 213.916 81.8216C218.641 78.5004 219.796 45.9001 220 38.7445C214.445 37.7859 208.957 35.2724 204.315 32.7287Z" fill="#FFA901"/>
<path d="M99.0698 205.719C99.9098 203.939 101.67 202.839 103.55 202.509C105.3 202.209 107.52 202.559 108.79 203.979C109.3 204.549 109.76 204.919 110.25 205.639C110.47 205.959 110.64 206.309 110.81 206.659C111.04 207.069 111.3 207.469 111.6 207.849C111.68 207.949 111.76 208.049 111.84 208.149C111.79 208.089 111.74 208.029 111.68 207.969C111.68 207.969 111.69 207.989 111.7 207.989C111.75 208.049 111.8 208.109 111.86 208.169C112.75 209.299 113.36 210.519 113.41 212.069C113.47 213.639 112.84 215.559 111.72 216.699C110.51 217.919 108.88 218.859 107.11 218.849C105.32 218.839 103.91 218.229 102.48 217.159C101.32 216.289 100.27 215.119 99.5398 213.869C97.9998 211.229 97.7698 208.529 99.0898 205.719M140.59 193.309C142.37 190.749 145.98 189.689 148.8 191.249C149.4 191.579 150.27 191.909 150.79 192.339C151.44 192.569 152.08 192.799 152.72 193.069C154.43 193.789 155.98 194.489 157.38 195.779C159.47 197.689 159.78 200.869 158.18 203.159C156.46 205.639 153.65 205.979 150.98 204.969C152.43 205.519 151.19 205.099 150.91 205.019C150.54 204.919 150.18 204.839 149.81 204.769C149.69 204.749 149.56 204.729 149.44 204.709C149.36 204.699 149.31 204.689 149.26 204.679C149.01 204.649 148.7 204.619 148.31 204.589C148.12 204.579 147.93 204.549 147.75 204.509C145.5 204.109 143.27 203.219 141.52 201.739C139.07 199.659 138.84 195.859 140.6 193.329M102.61 159.149C106.68 157.829 110.41 155.249 115.04 155.149C120.29 155.039 122.17 161.739 118.05 164.689C116.31 165.939 114.23 166.659 112.43 167.849C110.51 169.119 108.53 170.219 106.36 171.019C103.2 172.179 99.5198 170.059 98.5398 166.949C97.5198 163.709 99.3898 160.169 102.61 159.129M52.7098 171.029C53.6798 168.399 56.7098 166.419 59.5798 167.259C61.6298 167.859 63.2898 169.029 65.1098 170.089C65.8298 170.509 66.5598 170.929 67.2898 171.309C67.6198 171.479 67.9598 171.629 68.2898 171.799C68.4098 171.859 68.4898 171.909 68.5598 171.949C73.2798 173.039 73.5798 180.189 68.8498 181.559C66.0098 182.389 63.4298 181.819 60.7598 180.729C59.0298 180.019 57.1098 179.279 55.4898 178.339C52.9098 176.829 51.6398 173.879 52.6898 171.019M169.12 161.389C172.83 159.639 176.15 161.709 177.73 165.119C177.34 164.269 177.88 165.079 178.16 165.499C178.28 165.619 178.58 165.939 178.72 166.079C179.7 167.139 180.68 168.219 181.57 169.349C182.34 170.329 183.14 171.479 183.52 172.689C183.76 173.459 183.92 174.429 183.95 175.239C183.96 175.689 183.19 178.629 183.45 177.589C182.47 181.399 177.83 182.079 175.49 179.879C174.67 179.299 174.07 178.509 173.36 177.769C173.51 177.949 172.5 177.059 172.5 177.059C172.12 176.729 171.71 176.409 171.32 176.089C169.41 174.519 167.58 172.649 166.51 170.399C164.9 167.019 165.38 163.149 169.12 161.379M194.31 207.969C193.65 204.159 196.48 200.499 200.43 200.359C204.39 200.219 207.89 201.879 211.72 202.509C216.16 203.239 217.64 210.279 213.48 212.439C210.85 213.809 208.36 213.989 205.48 213.569C204.65 213.449 203.78 213.349 202.98 213.139C202.95 213.139 202.93 213.129 202.91 213.119C202.9 213.119 202.89 213.119 202.87 213.119C202.37 213.149 201.14 213.499 202.64 213.069C198.87 214.159 195 211.859 194.32 207.959M39.0998 129.619C38.3998 127.259 39.3098 124.589 41.3898 123.249C42.6398 122.449 44.4398 122.159 45.9998 122.549C50.5598 121.489 55.8598 121.649 59.4998 124.459C61.6498 126.119 61.7698 129.589 60.2798 131.659C58.7798 133.739 56.2298 134.489 53.8598 133.659C53.5898 133.659 53.3298 133.669 53.0598 133.689C52.6398 133.709 52.2198 133.739 51.7898 133.779C51.6798 133.789 50.6698 133.949 50.7498 133.929C48.8998 134.289 47.0798 134.719 45.1898 134.759C42.6298 134.809 40.1998 133.159 39.4198 130.689C39.3098 130.339 39.1998 129.979 39.0998 129.629M9.82978 167.879C16.1398 171.089 19.5098 177.699 19.9098 184.609C20.2098 189.709 13.3198 191.609 10.5898 187.549C8.53978 184.509 7.63978 180.429 4.20978 178.689C-2.79022 175.129 2.83978 164.329 9.82978 167.889" stroke="#F85600" stroke-miterlimit="10"/>
</svg>
