<svg width="220" height="221" viewBox="0 0 220 221" fill="none" xmlns="http://www.w3.org/2000/svg">
<path d="M195.757 78.3084C196.695 78.49 214.377 72.6527 216.099 71.9129C216.578 71.7112 216.807 71.2068 216.713 70.6957C215.072 61.9061 207.821 48.3351 206.107 46.6336C204.23 43.8697 202.083 41.3007 199.808 38.8797C202.36 38.2879 214.505 32.1883 215.214 31.731C215.464 31.6033 216.99 30.6147 217.28 30.1574C219.069 28.5434 220.338 26.5057 219.92 23.9637C219.265 19.969 215.012 18.8997 211.595 18.503C205.999 17.8506 199.646 19.4781 197.647 12.9548C196.324 8.63737 196.432 3.16323 191.753 0.722051C188.412 -1.01972 184.422 0.5472 182.714 3.73485C182.66 3.84245 181.944 5.0395 181.701 5.443C179.324 9.36367 179.23 15.0463 179.169 19.5184C179.156 20.5406 179.054 21.5897 178.96 22.6388C171.878 18.55 165.727 16.129 162.858 15.5439C160.448 14.8042 145.838 12.5379 144.873 12.5581C144.285 12.5715 143.779 12.9683 143.664 13.5466C142.125 21.4552 142.111 40.0566 143.394 40.2247C169.123 43.6074 181.451 57.3398 183.821 61.3076C186.548 65.8806 188.931 71.9533 189.964 77.7838C190.336 79.8888 195.386 78.3017 195.743 78.3151" fill="#00DCE9"/>
<path d="M159.462 83.2647C164.553 82.8141 169.731 82.8141 174.767 81.8659C176.489 81.5431 178.123 79.5592 178.008 77.7838C177.623 71.7986 171.878 67.0776 167.557 63.4596C163.871 60.3728 152.967 55.2013 146.581 53.6545C144.326 53.1098 142.706 54.3539 142.962 56.3176C142.976 56.4252 142.098 63.9976 142.084 65.8806C142.051 70.2384 141.821 74.7509 142.3 79.075C142.51 80.958 143.475 83.1437 145.602 83.5673C150.341 84.5088 154.736 83.6817 159.469 83.2647M149.335 73.648C149.383 71.2135 151.482 69.196 153.926 69.2431C156.363 69.2902 158.395 71.3884 158.348 73.8161C158.301 76.2505 156.201 78.268 153.757 78.221C151.32 78.1739 149.288 76.0757 149.335 73.648Z" fill="#00DCE9"/>
<path d="M99.0698 206.719C99.9098 204.939 101.67 203.839 103.55 203.509C105.3 203.209 107.52 203.559 108.79 204.979C109.3 205.549 109.76 205.919 110.25 206.639C110.47 206.959 110.64 207.309 110.81 207.659C111.04 208.069 111.3 208.469 111.6 208.849C111.68 208.949 111.76 209.049 111.84 209.149C111.79 209.089 111.74 209.029 111.68 208.969C111.68 208.969 111.69 208.989 111.7 208.989C111.75 209.049 111.8 209.109 111.86 209.169C112.75 210.299 113.36 211.519 113.41 213.069C113.47 214.639 112.84 216.559 111.72 217.699C110.51 218.919 108.88 219.859 107.11 219.849C105.32 219.839 103.91 219.229 102.48 218.159C101.32 217.289 100.27 216.119 99.5398 214.869C97.9998 212.229 97.7698 209.529 99.0898 206.719M140.59 194.309C142.37 191.749 145.98 190.689 148.8 192.249C149.4 192.579 150.27 192.909 150.79 193.339C151.44 193.569 152.08 193.799 152.72 194.069C154.43 194.789 155.98 195.489 157.38 196.779C159.47 198.689 159.78 201.869 158.18 204.159C156.46 206.639 153.65 206.979 150.98 205.969C152.43 206.519 151.19 206.099 150.91 206.019C150.54 205.919 150.18 205.839 149.81 205.769C149.69 205.749 149.56 205.729 149.44 205.709C149.36 205.699 149.31 205.689 149.26 205.679C149.01 205.649 148.7 205.619 148.31 205.589C148.12 205.579 147.93 205.549 147.75 205.509C145.5 205.109 143.27 204.219 141.52 202.739C139.07 200.659 138.84 196.859 140.6 194.329M102.61 160.149C106.68 158.829 110.41 156.249 115.04 156.149C120.29 156.039 122.17 162.739 118.05 165.689C116.31 166.939 114.23 167.659 112.43 168.849C110.51 170.119 108.53 171.219 106.36 172.019C103.2 173.179 99.5198 171.059 98.5398 167.949C97.5198 164.709 99.3898 161.169 102.61 160.129M52.7098 172.029C53.6798 169.399 56.7098 167.419 59.5798 168.259C61.6298 168.859 63.2898 170.029 65.1098 171.089C65.8298 171.509 66.5598 171.929 67.2898 172.309C67.6198 172.479 67.9598 172.629 68.2898 172.799C68.4098 172.859 68.4898 172.909 68.5598 172.949C73.2798 174.039 73.5798 181.189 68.8498 182.559C66.0098 183.389 63.4298 182.819 60.7598 181.729C59.0298 181.019 57.1098 180.279 55.4898 179.339C52.9098 177.829 51.6398 174.879 52.6898 172.019M169.12 162.389C172.83 160.639 176.15 162.709 177.73 166.119C177.34 165.269 177.88 166.079 178.16 166.499C178.28 166.619 178.58 166.939 178.72 167.079C179.7 168.139 180.68 169.219 181.57 170.349C182.34 171.329 183.14 172.479 183.52 173.689C183.76 174.459 183.92 175.429 183.95 176.239C183.96 176.689 183.19 179.629 183.45 178.589C182.47 182.399 177.83 183.079 175.49 180.879C174.67 180.299 174.07 179.509 173.36 178.769C173.51 178.949 172.5 178.059 172.5 178.059C172.12 177.729 171.71 177.409 171.32 177.089C169.41 175.519 167.58 173.649 166.51 171.399C164.9 168.019 165.38 164.149 169.12 162.379M194.31 208.969C193.65 205.159 196.48 201.499 200.43 201.359C204.39 201.219 207.89 202.879 211.72 203.509C216.16 204.239 217.64 211.279 213.48 213.439C210.85 214.809 208.36 214.989 205.48 214.569C204.65 214.449 203.78 214.349 202.98 214.139C202.95 214.139 202.93 214.129 202.91 214.119C202.9 214.119 202.89 214.119 202.87 214.119C202.37 214.149 201.14 214.499 202.64 214.069C198.87 215.159 195 212.859 194.32 208.959M39.0998 130.619C38.3998 128.259 39.3098 125.589 41.3898 124.249C42.6398 123.449 44.4398 123.159 45.9998 123.549C50.5598 122.489 55.8598 122.649 59.4998 125.459C61.6498 127.119 61.7698 130.589 60.2798 132.659C58.7798 134.739 56.2298 135.489 53.8598 134.659C53.5898 134.659 53.3298 134.669 53.0598 134.689C52.6398 134.709 52.2198 134.739 51.7898 134.779C51.6798 134.789 50.6698 134.949 50.7498 134.929C48.8998 135.289 47.0798 135.719 45.1898 135.759C42.6298 135.809 40.1998 134.159 39.4198 131.689C39.3098 131.339 39.1998 130.979 39.0998 130.629M9.82978 168.879C16.1398 172.089 19.5098 178.699 19.9098 185.609C20.2098 190.709 13.3198 192.609 10.5898 188.549C8.53978 185.509 7.63978 181.429 4.20978 179.689C-2.79022 176.129 2.83978 165.329 9.82978 168.889" stroke="#F85600" stroke-miterlimit="10"/>
</svg>
