<svg width="330" height="173" viewBox="0 0 330 173" fill="none" xmlns="http://www.w3.org/2000/svg">
<path d="M174.007 102.26C174.799 102.407 175.371 102.817 175.723 103.492C176.104 104.167 176.221 104.9 176.075 105.692L175.371 109.256C175.136 110.283 174.74 111.28 174.183 112.248C173.625 113.187 172.936 114.023 172.115 114.756C171.323 115.489 170.413 116.091 169.387 116.56C168.389 117 167.333 117.22 166.219 117.22C166.072 117.22 165.911 117.22 165.735 117.22C165.559 117.22 165.397 117.205 165.251 117.176C162.904 116.853 161.085 115.827 159.795 114.096C158.768 112.659 158.211 110.957 158.123 108.992C158.123 108.611 158.064 108.303 157.947 108.068C157.829 107.833 157.697 107.643 157.551 107.496V107.452C157.433 107.305 157.169 107.144 156.759 106.968C156.348 106.792 155.82 106.704 155.175 106.704C154.764 106.704 154.397 106.748 154.075 106.836C153.752 106.895 153.503 106.968 153.327 107.056H153.283C153.165 107.115 153.107 107.144 153.107 107.144L153.063 107.188C152.828 107.335 152.637 107.496 152.491 107.672C152.373 107.819 152.285 107.951 152.227 108.068C152.197 108.127 152.183 108.171 152.183 108.2C152.183 108.229 152.168 108.273 152.139 108.332C151.845 109.007 151.537 109.681 151.215 110.356C150.892 111.001 150.54 111.603 150.159 112.16C149.631 112.923 148.985 113.612 148.223 114.228C147.489 114.844 146.683 115.372 145.803 115.812C144.923 116.252 143.984 116.589 142.987 116.824C142.019 117.059 141.036 117.176 140.039 117.176C138.337 117.176 136.783 116.941 135.375 116.472C133.996 115.973 132.808 115.299 131.811 114.448C130.813 113.568 130.036 112.512 129.479 111.28C128.921 110.048 128.643 108.684 128.643 107.188C128.613 106.249 128.745 105.237 129.039 104.152C129.361 103.037 129.875 102.011 130.579 101.072C131.283 100.104 132.207 99.2973 133.351 98.652C134.524 97.9773 135.976 97.596 137.707 97.508C138.939 97.4493 140.039 97.6253 141.007 98.036C141.975 98.4173 142.796 99.004 143.471 99.796C144.615 101.263 144.967 102.905 144.527 104.724C144.38 105.223 144.16 105.619 143.867 105.912C143.427 106.499 142.855 106.909 142.151 107.144C141.447 107.379 140.728 107.379 139.995 107.144C139.144 106.821 138.499 106.308 138.059 105.604V105.56C138 105.501 137.956 105.443 137.927 105.384C137.927 105.296 137.897 105.223 137.839 105.164C137.839 105.135 137.824 105.105 137.795 105.076V105.032C137.648 104.797 137.487 104.636 137.311 104.548C137.164 104.46 137.017 104.387 136.871 104.328C136.695 104.269 136.533 104.255 136.387 104.284C135.829 104.313 135.419 104.504 135.155 104.856C134.92 105.208 134.773 105.487 134.715 105.692C134.597 106.015 134.539 106.337 134.539 106.66V107.056V107.1V107.144C134.539 108.083 134.744 108.831 135.155 109.388C135.565 109.945 136.064 110.371 136.651 110.664C137.237 110.957 137.839 111.148 138.455 111.236C139.1 111.295 139.628 111.324 140.039 111.324C141.065 111.324 142.077 111.089 143.075 110.62C144.072 110.151 144.82 109.549 145.319 108.816C145.7 108.259 146.052 107.584 146.375 106.792C146.727 106 147.035 105.208 147.299 104.416C147.592 103.595 147.827 102.832 148.003 102.128C148.208 101.424 148.355 100.867 148.443 100.456C149.411 96.056 151.112 92.6533 153.547 90.248C156.011 87.8427 159.017 86.6253 162.567 86.596C162.713 86.596 162.963 86.596 163.315 86.596C163.696 86.5667 164.136 86.5813 164.635 86.64C164.664 86.6693 164.693 86.684 164.723 86.684C165.251 86.7427 165.808 86.8453 166.395 86.992C167.011 87.1093 167.612 87.3147 168.199 87.608C168.932 87.96 169.431 88.5173 169.695 89.28C169.959 90.0427 169.915 90.7907 169.563 91.524C169.211 92.2573 168.668 92.7413 167.935 92.976C167.641 93.064 167.392 93.196 167.187 93.372C167.011 93.5187 166.864 93.68 166.747 93.856C166.629 94.0027 166.541 94.1493 166.483 94.296C166.453 94.4133 166.439 94.4867 166.439 94.516L164.459 104.988C164.4 105.223 164.356 105.384 164.327 105.472C164.327 105.531 164.297 105.633 164.239 105.78C164.209 105.927 164.165 106.191 164.107 106.572C163.96 107.452 163.916 108.244 163.975 108.948C164.063 109.652 164.253 110.209 164.547 110.62C164.635 110.767 164.781 110.913 164.987 111.06C165.192 111.177 165.529 111.265 165.999 111.324C166.439 111.383 166.864 111.368 167.275 111.28C167.685 111.192 168.067 111.031 168.419 110.796C168.771 110.532 169.079 110.18 169.343 109.74C169.607 109.271 169.797 108.699 169.915 108.024L170.707 104.592C170.912 103.771 171.308 103.14 171.895 102.7C172.481 102.26 173.185 102.113 174.007 102.26ZM160.367 95C160.396 94.824 160.381 94.6187 160.323 94.384C160.293 94.1493 160.161 93.9587 159.927 93.812C159.604 93.636 159.296 93.592 159.003 93.68C158.739 93.7387 158.519 93.8267 158.343 93.944C157.492 94.5893 156.788 95.3813 156.231 96.32C155.673 97.2293 155.219 98.1973 154.867 99.224C154.837 99.312 154.808 99.4733 154.779 99.708C154.749 99.9133 154.793 100.133 154.911 100.368C155.028 100.691 155.233 100.896 155.527 100.984H155.615C155.644 100.984 155.659 100.999 155.659 101.028C155.688 101.028 155.717 101.028 155.747 101.028C155.923 101.057 156.201 101.087 156.583 101.116C156.964 101.145 157.375 101.116 157.815 101.028C157.844 100.999 157.903 100.984 157.991 100.984C158.284 100.925 158.592 100.764 158.915 100.5C159.237 100.236 159.457 99.7813 159.575 99.136L160.367 95ZM188.973 102.436C189.736 102.583 190.293 102.964 190.645 103.58C191.026 104.196 191.144 104.885 190.997 105.648L190.425 109.212C190.19 110.356 189.765 111.412 189.149 112.38C188.562 113.319 187.844 114.14 186.993 114.844C186.142 115.519 185.189 116.047 184.133 116.428C183.106 116.809 182.021 117 180.877 117C179.44 117 178.061 116.721 176.741 116.164C175.421 115.577 174.262 114.771 173.265 113.744C172.326 112.747 171.622 111.617 171.153 110.356C170.684 109.065 170.478 107.716 170.537 106.308V106.132C170.566 105.927 170.581 105.721 170.581 105.516C170.581 105.281 170.61 105.047 170.669 104.812L170.713 104.636L171.285 101.776C171.402 101.16 171.505 100.515 171.593 99.84C171.681 99.1653 171.769 98.5053 171.857 97.86C171.945 97.1853 172.018 96.5693 172.077 96.012C172.136 95.4547 172.194 94.9707 172.253 94.56C172.282 94.4133 172.297 94.252 172.297 94.076C172.297 93.9 172.312 93.724 172.341 93.548C172.429 92.9027 172.546 92.228 172.693 91.524C172.869 90.82 173.089 90.1307 173.353 89.456C173.617 88.752 173.94 88.092 174.321 87.476C174.732 86.86 175.216 86.3027 175.773 85.804C177.386 84.396 179.366 83.8973 181.713 84.308C182.857 84.5427 183.81 85.0707 184.573 85.892C185.336 86.684 185.79 87.696 185.937 88.928C186.084 90.072 185.937 91.26 185.497 92.492C185.497 92.5507 185.482 92.5947 185.453 92.624C185.248 93.2107 184.984 93.7973 184.661 94.384C184.368 94.9413 184.016 95.4987 183.605 96.056C183.048 96.76 182.446 97.3907 181.801 97.948C181.185 98.476 180.584 98.9453 179.997 99.356C179.205 99.972 178.589 100.559 178.149 101.116C177.768 101.497 177.43 101.937 177.137 102.436C176.814 103.023 176.609 103.477 176.521 103.8C176.404 104.181 176.301 104.563 176.213 104.944C176.154 105.267 176.096 105.633 176.037 106.044C175.978 106.455 175.978 106.851 176.037 107.232H176.081C176.14 107.877 176.286 108.435 176.521 108.904C176.756 109.344 177.005 109.696 177.269 109.96C178.237 110.987 179.44 111.5 180.877 111.5C181.874 111.5 182.754 111.177 183.517 110.532C184.309 109.887 184.822 109.065 185.057 108.068L185.717 104.592C185.864 103.829 186.245 103.243 186.861 102.832C187.506 102.421 188.21 102.289 188.973 102.436ZM177.489 91.48C177.137 92.2427 176.902 92.976 176.785 93.68C176.668 94.384 176.8 94.8387 177.181 95.044C177.562 95.2787 178.046 95.1907 178.633 94.78C179.22 94.34 179.748 93.768 180.217 93.064C180.716 92.3013 180.994 91.5973 181.053 90.952C181.141 90.2773 180.936 89.808 180.437 89.544C179.909 89.28 179.381 89.3387 178.853 89.72C178.354 90.072 177.9 90.6587 177.489 91.48ZM203.883 102.436C204.646 102.583 205.203 102.964 205.555 103.58C205.937 104.196 206.054 104.885 205.907 105.648L205.335 109.212C205.101 110.356 204.675 111.412 204.059 112.38C203.473 113.319 202.754 114.14 201.903 114.844C201.053 115.519 200.099 116.047 199.043 116.428C198.017 116.809 196.931 117 195.787 117C194.35 117 192.971 116.721 191.651 116.164C190.331 115.577 189.173 114.771 188.175 113.744C187.237 112.747 186.533 111.617 186.063 110.356C185.594 109.065 185.389 107.716 185.447 106.308V106.132C185.477 105.927 185.491 105.721 185.491 105.516C185.491 105.281 185.521 105.047 185.579 104.812L185.623 104.636L186.195 101.776C186.313 101.16 186.415 100.515 186.503 99.84C186.591 99.1653 186.679 98.5053 186.767 97.86C186.855 97.1853 186.929 96.5693 186.987 96.012C187.046 95.4547 187.105 94.9707 187.163 94.56C187.193 94.4133 187.207 94.252 187.207 94.076C187.207 93.9 187.222 93.724 187.251 93.548C187.339 92.9027 187.457 92.228 187.603 91.524C187.779 90.82 187.999 90.1307 188.263 89.456C188.527 88.752 188.85 88.092 189.231 87.476C189.642 86.86 190.126 86.3027 190.683 85.804C192.297 84.396 194.277 83.8973 196.623 84.308C197.767 84.5427 198.721 85.0707 199.483 85.892C200.246 86.684 200.701 87.696 200.847 88.928C200.994 90.072 200.847 91.26 200.407 92.492C200.407 92.5507 200.393 92.5947 200.363 92.624C200.158 93.2107 199.894 93.7973 199.571 94.384C199.278 94.9413 198.926 95.4987 198.515 96.056C197.958 96.76 197.357 97.3907 196.711 97.948C196.095 98.476 195.494 98.9453 194.907 99.356C194.115 99.972 193.499 100.559 193.059 101.116C192.678 101.497 192.341 101.937 192.047 102.436C191.725 103.023 191.519 103.477 191.431 103.8C191.314 104.181 191.211 104.563 191.123 104.944C191.065 105.267 191.006 105.633 190.947 106.044C190.889 106.455 190.889 106.851 190.947 107.232H190.991C191.05 107.877 191.197 108.435 191.431 108.904C191.666 109.344 191.915 109.696 192.179 109.96C193.147 110.987 194.35 111.5 195.787 111.5C196.785 111.5 197.665 111.177 198.427 110.532C199.219 109.887 199.733 109.065 199.967 108.068L200.627 104.592C200.774 103.829 201.155 103.243 201.771 102.832C202.417 102.421 203.121 102.289 203.883 102.436ZM192.399 91.48C192.047 92.2427 191.813 92.976 191.695 93.68C191.578 94.384 191.71 94.8387 192.091 95.044C192.473 95.2787 192.957 95.1907 193.543 94.78C194.13 94.34 194.658 93.768 195.127 93.064C195.626 92.3013 195.905 91.5973 195.963 90.952C196.051 90.2773 195.846 89.808 195.347 89.544C194.819 89.28 194.291 89.3387 193.763 89.72C193.265 90.072 192.81 90.6587 192.399 91.48ZM85.283 135.292C84.931 136.377 84.2563 137.169 83.259 137.668C82.291 138.167 81.279 138.255 80.223 137.932C79.695 137.756 79.2403 137.492 78.859 137.14C78.4777 136.788 78.1697 136.377 77.935 135.908C77.7003 135.439 77.5537 134.94 77.495 134.412C77.4657 133.884 77.539 133.356 77.715 132.828C78.067 131.743 78.727 130.951 79.695 130.452C80.6923 129.953 81.719 129.88 82.775 130.232C83.303 130.408 83.7577 130.672 84.139 131.024C84.5203 131.347 84.8283 131.743 85.063 132.212C85.2977 132.681 85.4297 133.18 85.459 133.708C85.5177 134.236 85.459 134.764 85.283 135.292ZM90.387 147.436C91.1497 147.583 91.707 147.964 92.059 148.58C92.411 149.196 92.5137 149.885 92.367 150.648L91.883 154.212C91.619 155.415 91.2083 156.5 90.651 157.468C90.0937 158.407 89.4337 159.213 88.671 159.888C87.9083 160.563 87.0283 161.091 86.031 161.472C85.063 161.824 84.0363 162 82.951 162C80.4283 162 78.3897 161.179 76.835 159.536C75.9843 158.627 75.3537 157.541 74.943 156.28C74.5617 155.019 74.4003 153.611 74.459 152.056L74.503 151.924C74.503 151.777 74.503 151.616 74.503 151.44C74.503 151.264 74.5177 151.073 74.547 150.868C74.6937 149.049 74.855 147.524 75.031 146.292C75.207 145.031 75.3683 144.077 75.515 143.432C75.6617 142.904 75.8817 142.303 76.175 141.628C76.4977 140.924 76.9817 140.411 77.627 140.088L77.891 139.956C78.7123 139.663 79.5043 139.648 80.267 139.912C80.795 140.059 81.235 140.323 81.587 140.704C81.9683 141.056 82.2617 141.481 82.467 141.98C82.5843 142.332 82.6283 142.699 82.599 143.08C82.5697 143.461 82.4963 143.828 82.379 144.18C82.291 144.532 82.1883 144.855 82.071 145.148C81.9537 145.441 81.851 145.661 81.763 145.808C81.7337 145.837 81.719 145.867 81.719 145.896C81.719 145.925 81.7043 145.955 81.675 145.984C81.499 146.307 81.3083 146.732 81.103 147.26C80.8977 147.788 80.6923 148.433 80.487 149.196L80.179 150.868C80.1497 151.015 80.1203 151.147 80.091 151.264C80.091 151.352 80.0763 151.455 80.047 151.572C80.0177 151.631 80.003 151.719 80.003 151.836C80.003 151.953 80.003 152.071 80.003 152.188L79.959 152.364C79.9297 153.127 79.9883 153.801 80.135 154.388C80.2817 154.975 80.5163 155.429 80.839 155.752C81.3377 156.251 82.0417 156.5 82.951 156.5C83.567 156.5 84.0803 156.368 84.491 156.104C84.931 155.84 85.283 155.532 85.547 155.18C85.8403 154.828 86.0603 154.461 86.207 154.08C86.3537 153.669 86.4563 153.332 86.515 153.068L87.175 149.592C87.3217 148.829 87.703 148.243 88.319 147.832C88.935 147.421 89.6243 147.289 90.387 147.436ZM113.542 147.392C114.305 147.539 114.877 147.935 115.258 148.58C115.639 149.196 115.757 149.871 115.61 150.604L114.994 154.168C114.73 155.341 114.334 156.397 113.806 157.336C113.278 158.275 112.633 159.096 111.87 159.8C111.107 160.475 110.257 161.003 109.318 161.384C108.379 161.736 107.367 161.927 106.282 161.956H106.062C105.211 161.956 104.449 161.883 103.774 161.736C103.099 161.56 102.498 161.34 101.97 161.076C101.471 160.812 101.031 160.519 100.65 160.196C100.298 159.873 100.005 159.551 99.77 159.228C99.154 158.436 98.7287 157.585 98.494 156.676C98.2887 155.737 98.1713 154.872 98.142 154.08C98.142 153.288 98.186 152.613 98.274 152.056C98.3913 151.469 98.4647 151.117 98.494 151L98.626 150.428C98.6553 150.281 98.714 150.047 98.802 149.724C98.9193 149.372 99.022 148.991 99.11 148.58C99.2273 148.14 99.3007 147.715 99.33 147.304C99.3593 146.893 99.33 146.541 99.242 146.248C99.1247 145.984 98.978 145.764 98.802 145.588C98.6553 145.412 98.5087 145.28 98.362 145.192C98.186 145.075 97.9953 145.001 97.79 144.972C97.174 144.855 96.6167 144.913 96.118 145.148C95.6487 145.353 95.3407 145.515 95.194 145.632C95.1353 145.691 95.0767 145.749 95.018 145.808C94.9593 145.837 94.9007 145.881 94.842 145.94C94.4607 146.321 94.1087 146.791 93.786 147.348C93.4927 147.876 93.2287 148.448 92.994 149.064C92.7887 149.651 92.6127 150.223 92.466 150.78C92.3193 151.337 92.202 151.807 92.114 152.188C92.114 152.188 92.0847 152.247 92.026 152.364L91.674 154.212C91.41 155.356 90.97 156.412 90.354 157.38C89.7673 158.319 89.0487 159.14 88.198 159.844C87.3767 160.519 86.4527 161.047 85.426 161.428C84.37 161.809 83.27 162 82.126 162C81.3633 162 80.718 161.736 80.19 161.208C79.6327 160.68 79.354 160.035 79.354 159.272C79.354 158.509 79.6327 157.864 80.19 157.336C80.718 156.779 81.3633 156.5 82.126 156.5C83.094 156.5 83.974 156.177 84.766 155.532C85.558 154.887 86.0713 154.065 86.306 153.068L86.966 149.636L87.054 149.108C87.054 149.049 87.054 149.005 87.054 148.976C87.0833 148.917 87.098 148.859 87.098 148.8C87.3327 147.568 87.3913 146.512 87.274 145.632C87.186 144.723 87.0833 144.048 86.966 143.608C86.6727 142.992 86.614 142.361 86.79 141.716C86.966 141.071 87.3473 140.543 87.934 140.132C88.4327 139.809 88.9607 139.663 89.518 139.692C90.0753 139.721 90.5887 139.897 91.058 140.22C91.146 140.308 91.234 140.381 91.322 140.44C91.3807 140.499 91.4247 140.557 91.454 140.616C91.4833 140.645 91.5273 140.689 91.586 140.748C91.674 140.865 91.7913 140.968 91.938 141.056C92.0847 141.144 92.246 141.203 92.422 141.232C92.6567 141.261 92.8473 141.232 92.994 141.144C93.17 141.056 93.3167 140.983 93.434 140.924C93.434 140.924 93.4633 140.895 93.522 140.836C93.5807 140.807 93.7127 140.719 93.918 140.572C94.1527 140.396 94.4167 140.235 94.71 140.088C96.5287 139.296 98.3767 139.208 100.254 139.824C102.161 140.499 103.481 141.672 104.214 143.344C104.566 144.077 104.771 144.825 104.83 145.588C104.918 146.351 104.933 147.069 104.874 147.744C104.815 148.419 104.713 149.02 104.566 149.548C104.449 150.047 104.346 150.413 104.258 150.648L103.818 152.32C103.759 152.555 103.715 152.804 103.686 153.068C103.657 153.332 103.642 153.611 103.642 153.904C103.642 154.051 103.671 154.285 103.73 154.608C103.789 154.901 103.921 155.195 104.126 155.488C104.331 155.781 104.625 156.031 105.006 156.236C105.417 156.412 105.959 156.471 106.634 156.412C107.162 156.324 107.602 156.148 107.954 155.884C108.306 155.591 108.599 155.283 108.834 154.96C109.069 154.608 109.245 154.256 109.362 153.904C109.479 153.552 109.567 153.259 109.626 153.024L110.286 149.592C110.433 148.829 110.814 148.243 111.43 147.832C112.075 147.392 112.779 147.245 113.542 147.392ZM133.399 147.392C134.132 147.597 134.69 148.023 135.071 148.668C135.452 149.313 135.555 150.017 135.379 150.78C134.851 152.863 134.059 154.623 133.003 156.06C131.976 157.497 130.803 158.656 129.483 159.536C128.192 160.416 126.814 161.047 125.347 161.428C123.88 161.809 122.458 162 121.079 162C120.844 162 120.61 162 120.375 162C120.14 162 119.906 161.985 119.671 161.956C118.292 161.839 117.016 161.501 115.843 160.944C114.67 160.387 113.658 159.683 112.807 158.832C111.956 157.952 111.296 156.955 110.827 155.84C110.358 154.696 110.123 153.479 110.123 152.188V151.836V151.44C110.152 150.443 110.27 149.548 110.475 148.756C110.71 147.964 110.856 147.451 110.915 147.216C111.208 146.277 111.634 145.368 112.191 144.488C112.778 143.579 113.467 142.772 114.259 142.068C115.08 141.364 115.99 140.792 116.987 140.352C118.014 139.912 119.128 139.692 120.331 139.692C120.918 139.633 121.592 139.677 122.355 139.824C123.147 139.971 123.924 140.279 124.687 140.748H124.731C125.2 141.012 125.64 141.364 126.051 141.804C126.462 142.215 126.784 142.684 127.019 143.212C127.254 143.711 127.4 144.253 127.459 144.84C127.518 145.397 127.459 145.969 127.283 146.556C127.136 146.996 126.946 147.363 126.711 147.656C126.506 147.949 126.271 148.199 126.007 148.404C125.772 148.609 125.538 148.771 125.303 148.888C125.068 148.976 124.863 149.049 124.687 149.108H124.643L124.247 149.24C123.66 149.328 123.059 149.284 122.443 149.108C121.915 148.932 121.46 148.653 121.079 148.272C120.698 147.861 120.419 147.407 120.243 146.908C120.214 146.732 120.155 146.585 120.067 146.468C119.92 146.204 119.7 146.013 119.407 145.896C119.378 145.867 119.348 145.852 119.319 145.852C119.29 145.852 119.26 145.837 119.231 145.808C118.967 145.749 118.718 145.779 118.483 145.896C118.278 145.984 118.102 146.072 117.955 146.16C117.544 146.512 117.178 146.923 116.855 147.392C116.562 147.832 116.342 148.301 116.195 148.8L116.151 149.02C116.151 149.079 116.136 149.137 116.107 149.196C116.078 149.255 116.048 149.328 116.019 149.416C115.99 149.475 115.96 149.548 115.931 149.636C115.931 149.636 115.902 149.797 115.843 150.12C115.814 150.443 115.799 150.839 115.799 151.308C115.799 151.748 115.843 152.232 115.931 152.76C116.048 153.288 116.254 153.772 116.547 154.212C117.134 155.063 117.896 155.693 118.835 156.104C119.803 156.485 121.02 156.573 122.487 156.368C123.103 156.28 123.778 156.119 124.511 155.884C125.274 155.62 126.007 155.224 126.711 154.696C127.415 154.168 128.06 153.479 128.647 152.628C129.234 151.777 129.703 150.692 130.055 149.372C130.231 148.639 130.642 148.081 131.287 147.7C131.932 147.319 132.636 147.216 133.399 147.392ZM148.368 147.436C149.13 147.583 149.688 147.964 150.04 148.58C150.421 149.196 150.538 149.885 150.392 150.648L149.82 154.212C149.585 155.356 149.16 156.412 148.544 157.38C147.957 158.319 147.238 159.14 146.388 159.844C145.537 160.519 144.584 161.047 143.528 161.428C142.501 161.809 141.416 162 140.272 162C138.834 162 137.456 161.721 136.136 161.164C134.816 160.577 133.657 159.771 132.66 158.744C131.721 157.747 131.017 156.617 130.548 155.356C130.078 154.065 129.873 152.716 129.932 151.308V151.132C129.961 150.927 129.976 150.721 129.976 150.516C129.976 150.281 130.005 150.047 130.064 149.812L130.108 149.636L130.68 146.776C130.797 146.16 130.9 145.515 130.988 144.84C131.076 144.165 131.164 143.505 131.252 142.86C131.34 142.185 131.413 141.569 131.472 141.012C131.53 140.455 131.589 139.971 131.648 139.56C131.677 139.413 131.692 139.252 131.692 139.076C131.692 138.9 131.706 138.724 131.736 138.548C131.824 137.903 131.941 137.228 132.088 136.524C132.264 135.82 132.484 135.131 132.748 134.456C133.012 133.752 133.334 133.092 133.716 132.476C134.126 131.86 134.61 131.303 135.168 130.804C136.781 129.396 138.761 128.897 141.108 129.308C142.252 129.543 143.205 130.071 143.968 130.892C144.73 131.684 145.185 132.696 145.332 133.928C145.478 135.072 145.332 136.26 144.892 137.492C144.892 137.551 144.877 137.595 144.848 137.624C144.642 138.211 144.378 138.797 144.056 139.384C143.762 139.941 143.41 140.499 143 141.056C142.442 141.76 141.841 142.391 141.196 142.948C140.58 143.476 139.978 143.945 139.392 144.356C138.6 144.972 137.984 145.559 137.544 146.116C137.162 146.497 136.825 146.937 136.532 147.436C136.209 148.023 136.004 148.477 135.916 148.8C135.798 149.181 135.696 149.563 135.608 149.944C135.549 150.267 135.49 150.633 135.432 151.044C135.373 151.455 135.373 151.851 135.432 152.232H135.476C135.534 152.877 135.681 153.435 135.916 153.904C136.15 154.344 136.4 154.696 136.664 154.96C137.632 155.987 138.834 156.5 140.272 156.5C141.269 156.5 142.149 156.177 142.912 155.532C143.704 154.887 144.217 154.065 144.452 153.068L145.112 149.592C145.258 148.829 145.64 148.243 146.256 147.832C146.901 147.421 147.605 147.289 148.368 147.436ZM136.884 136.48C136.532 137.243 136.297 137.976 136.18 138.68C136.062 139.384 136.194 139.839 136.576 140.044C136.957 140.279 137.441 140.191 138.028 139.78C138.614 139.34 139.142 138.768 139.612 138.064C140.11 137.301 140.389 136.597 140.448 135.952C140.536 135.277 140.33 134.808 139.832 134.544C139.304 134.28 138.776 134.339 138.248 134.72C137.749 135.072 137.294 135.659 136.884 136.48ZM173.882 147.436C174.644 147.583 175.216 147.964 175.598 148.58C175.979 149.196 176.096 149.885 175.95 150.648L175.334 154.212C175.07 155.385 174.659 156.456 174.102 157.424C173.574 158.363 172.914 159.184 172.122 159.888C171.359 160.563 170.479 161.091 169.482 161.472C168.514 161.824 167.487 162 166.402 162C165.932 162 165.478 161.956 165.038 161.868H164.862C164.803 161.868 164.759 161.868 164.73 161.868C164.73 161.839 164.7 161.824 164.642 161.824C163.586 161.56 162.676 161.076 161.914 160.372C161.474 159.961 161.078 159.712 160.726 159.624C160.55 159.565 160.388 159.536 160.242 159.536H160.154C159.89 159.536 159.655 159.58 159.45 159.668C159.244 159.727 159.068 159.8 158.922 159.888C158.775 160.005 158.643 160.108 158.526 160.196L158.482 160.24C158.13 160.563 157.748 160.827 157.338 161.032C156.956 161.237 156.604 161.413 156.282 161.56C155.959 161.677 155.68 161.765 155.446 161.824C155.24 161.883 155.123 161.912 155.094 161.912C154.859 161.941 154.639 161.971 154.434 162C154.228 162 154.008 162 153.774 162C152.424 162 151.163 161.765 149.99 161.296C148.846 160.797 147.848 160.079 146.998 159.14C145.472 157.468 144.68 155.444 144.622 153.068V152.892V152.76C144.651 152.085 144.724 151.352 144.842 150.56C144.959 149.768 145.047 149.196 145.106 148.844L145.15 148.668C145.15 148.551 145.164 148.463 145.194 148.404L145.414 147.084C145.502 146.585 145.56 146.101 145.59 145.632C145.648 145.133 145.707 144.679 145.766 144.268L145.81 143.036C145.81 142.801 145.824 142.625 145.854 142.508C145.883 142.42 145.898 142.347 145.898 142.288C145.927 142.2 145.956 142.112 145.986 142.024C146.279 141.115 146.836 140.455 147.658 140.044C148.508 139.604 149.374 139.531 150.254 139.824C151.134 140.147 151.779 140.719 152.19 141.54C152.6 142.361 152.659 143.227 152.366 144.136C152.307 144.224 152.263 144.327 152.234 144.444C152.204 144.532 152.16 144.62 152.102 144.708C151.955 145.001 151.808 145.309 151.662 145.632C151.515 145.955 151.368 146.321 151.222 146.732C151.104 147.143 150.972 147.597 150.826 148.096L150.518 149.856C150.488 149.944 150.474 150.032 150.474 150.12C150.474 150.208 150.459 150.281 150.43 150.34L150.386 150.604C150.386 150.633 150.356 150.809 150.298 151.132C150.239 151.425 150.195 151.733 150.166 152.056V152.452C150.019 153.684 150.312 154.667 151.046 155.4C151.691 156.133 152.6 156.5 153.774 156.5C154.595 156.5 155.343 156.177 156.018 155.532C156.692 154.857 157.132 154.036 157.338 153.068L157.822 150.78V150.604C157.851 150.545 157.866 150.487 157.866 150.428C157.866 150.34 157.88 150.267 157.91 150.208L158.042 149.592L158.218 148.8C158.218 148.653 158.232 148.521 158.262 148.404C158.262 148.375 158.262 148.345 158.262 148.316C158.291 148.287 158.306 148.257 158.306 148.228L158.482 147.172C158.57 146.644 158.643 146.116 158.702 145.588C158.76 145.06 158.804 144.561 158.834 144.092L158.878 142.992C158.907 142.904 158.922 142.831 158.922 142.772C158.922 142.684 158.936 142.596 158.966 142.508C158.966 142.42 158.966 142.347 158.966 142.288C158.995 142.2 159.024 142.112 159.054 142.024C159.376 141.115 159.948 140.455 160.77 140.044C161.591 139.604 162.442 139.531 163.322 139.824C164.202 140.147 164.847 140.719 165.258 141.54C165.698 142.361 165.756 143.227 165.434 144.136C165.375 144.371 165.287 144.561 165.17 144.708C165.023 145.001 164.876 145.309 164.73 145.632C164.583 145.925 164.436 146.277 164.29 146.688C164.172 147.099 164.055 147.553 163.938 148.052L163.454 150.692L163.41 150.912L163.366 151.044C163.336 151.191 163.292 151.44 163.234 151.792C163.204 152.115 163.19 152.481 163.19 152.892C163.19 153.273 163.219 153.684 163.278 154.124C163.366 154.535 163.512 154.887 163.718 155.18L163.806 155.268C163.835 155.327 163.879 155.385 163.938 155.444C164.172 155.679 164.436 155.884 164.73 156.06C165.023 156.236 165.404 156.368 165.874 156.456H165.918C166.24 156.485 166.534 156.485 166.798 156.456C167.355 156.397 167.824 156.236 168.206 155.972C168.587 155.708 168.895 155.4 169.13 155.048C169.364 154.696 169.54 154.344 169.658 153.992C169.804 153.611 169.907 153.303 169.966 153.068L170.626 149.592C170.772 148.829 171.154 148.243 171.77 147.832C172.415 147.421 173.119 147.289 173.882 147.436ZM202.538 144.928C203.3 145.133 203.858 145.559 204.21 146.204C204.591 146.849 204.679 147.553 204.474 148.316C204.21 149.284 203.814 150.149 203.286 150.912C202.758 151.645 202.142 152.291 201.438 152.848C200.763 153.405 200.015 153.889 199.194 154.3C198.402 154.681 197.61 154.989 196.818 155.224C196.583 155.283 196.363 155.356 196.158 155.444C195.747 155.591 195.41 155.796 195.146 156.06C194.911 156.295 194.75 156.529 194.662 156.764C194.603 156.969 194.559 157.101 194.53 157.16C194.119 158.832 193.298 160.167 192.066 161.164C190.834 162.161 189.352 162.66 187.622 162.66C185.774 162.66 184.234 162.235 183.002 161.384C181.799 160.504 180.992 159.272 180.582 157.688C180.582 157.6 180.567 157.541 180.538 157.512C180.538 157.424 180.508 157.204 180.45 156.852C180.42 156.5 180.435 156.075 180.494 155.576C180.552 155.048 180.684 154.476 180.89 153.86C181.095 153.215 181.432 152.584 181.902 151.968C182.43 151.323 183.046 150.751 183.75 150.252C183.808 150.252 183.867 150.223 183.926 150.164C183.984 150.105 184.043 150.061 184.102 150.032C184.16 150.003 184.219 149.973 184.278 149.944C184.424 149.827 184.571 149.651 184.718 149.416C184.894 149.152 184.996 148.844 185.026 148.492C185.055 148.111 185.026 147.744 184.938 147.392C184.85 147.04 184.674 146.732 184.41 146.468C184.175 146.204 183.867 146.028 183.486 145.94C183.398 145.911 183.266 145.896 183.09 145.896C182.532 145.896 182.063 146.028 181.682 146.292C181.3 146.527 180.992 146.805 180.758 147.128C180.318 147.832 179.995 148.536 179.79 149.24C179.584 149.915 179.452 150.34 179.394 150.516C179.394 150.575 179.379 150.619 179.35 150.648L178.69 154.212C178.426 155.385 178.015 156.456 177.458 157.424C176.9 158.363 176.226 159.184 175.434 159.888C174.671 160.563 173.806 161.091 172.838 161.472C171.87 161.824 170.843 162 169.758 162C168.995 162 168.35 161.736 167.822 161.208C167.264 160.651 166.986 159.991 166.986 159.228C166.986 158.465 167.264 157.82 167.822 157.292C168.35 156.764 168.995 156.5 169.758 156.5C170.374 156.5 170.902 156.368 171.342 156.104C171.752 155.84 172.09 155.532 172.354 155.18C172.618 154.828 172.823 154.461 172.97 154.08C173.116 153.669 173.219 153.332 173.278 153.068L173.938 149.724V149.592C174.114 148.653 174.436 147.597 174.906 146.424C175.375 145.251 176.02 144.151 176.842 143.124C177.047 142.889 177.326 142.596 177.678 142.244C178.03 141.892 178.47 141.54 178.998 141.188C179.526 140.807 180.142 140.455 180.846 140.132C181.55 139.78 182.342 139.501 183.222 139.296C183.251 139.296 183.28 139.296 183.31 139.296C183.339 139.267 183.383 139.252 183.442 139.252H183.486C183.955 139.135 184.395 139.061 184.806 139.032C185.216 138.973 185.598 138.944 185.95 138.944H186.258C186.932 138.915 187.475 138.929 187.886 138.988C188.326 139.017 188.59 139.047 188.678 139.076C189.44 139.223 190.042 139.604 190.482 140.22C190.922 140.836 191.068 141.525 190.922 142.288C190.775 142.875 190.54 143.329 190.218 143.652L190.042 143.828C189.895 144.004 189.734 144.268 189.558 144.62C189.411 144.972 189.484 145.397 189.778 145.896C190.042 146.307 190.306 146.703 190.57 147.084C190.834 147.465 191.098 147.817 191.362 148.14C191.508 148.316 191.655 148.492 191.802 148.668C191.948 148.844 192.095 149.035 192.242 149.24C192.271 149.299 192.344 149.387 192.462 149.504C192.608 149.621 192.784 149.739 192.99 149.856C193.224 149.944 193.488 150.017 193.782 150.076C194.075 150.135 194.427 150.12 194.838 150.032C195.278 149.915 195.718 149.768 196.158 149.592C196.627 149.416 197.052 149.211 197.434 148.976C197.844 148.712 198.196 148.404 198.49 148.052C198.812 147.7 199.047 147.304 199.194 146.864C199.399 146.101 199.824 145.544 200.47 145.192C201.115 144.811 201.804 144.723 202.538 144.928ZM189.734 155.62C189.763 155.297 189.734 154.975 189.646 154.652C189.587 154.388 189.47 154.139 189.294 153.904C189.118 153.64 188.854 153.435 188.502 153.288C187.944 153.2 187.49 153.259 187.138 153.464C186.815 153.64 186.536 153.86 186.302 154.124C186.038 154.447 185.832 154.813 185.686 155.224C185.627 155.312 185.598 155.4 185.598 155.488C185.598 155.547 185.598 155.605 185.598 155.664C185.51 156.221 185.671 156.691 186.082 157.072C186.463 157.424 186.932 157.6 187.49 157.6C188.076 157.6 188.59 157.409 189.03 157.028C189.44 156.647 189.675 156.177 189.734 155.62ZM208.861 135.292C208.509 136.377 207.834 137.169 206.837 137.668C205.869 138.167 204.857 138.255 203.801 137.932C203.273 137.756 202.818 137.492 202.437 137.14C202.056 136.788 201.748 136.377 201.513 135.908C201.278 135.439 201.132 134.94 201.073 134.412C201.044 133.884 201.117 133.356 201.293 132.828C201.645 131.743 202.305 130.951 203.273 130.452C204.27 129.953 205.297 129.88 206.353 130.232C206.881 130.408 207.336 130.672 207.717 131.024C208.098 131.347 208.406 131.743 208.641 132.212C208.876 132.681 209.008 133.18 209.037 133.708C209.096 134.236 209.037 134.764 208.861 135.292ZM213.965 147.436C214.728 147.583 215.285 147.964 215.637 148.58C215.989 149.196 216.092 149.885 215.945 150.648L215.461 154.212C215.197 155.415 214.786 156.5 214.229 157.468C213.672 158.407 213.012 159.213 212.249 159.888C211.486 160.563 210.606 161.091 209.609 161.472C208.641 161.824 207.614 162 206.529 162C204.006 162 201.968 161.179 200.413 159.536C199.562 158.627 198.932 157.541 198.521 156.28C198.14 155.019 197.978 153.611 198.037 152.056L198.081 151.924C198.081 151.777 198.081 151.616 198.081 151.44C198.081 151.264 198.096 151.073 198.125 150.868C198.272 149.049 198.433 147.524 198.609 146.292C198.785 145.031 198.946 144.077 199.093 143.432C199.24 142.904 199.46 142.303 199.753 141.628C200.076 140.924 200.56 140.411 201.205 140.088L201.469 139.956C202.29 139.663 203.082 139.648 203.845 139.912C204.373 140.059 204.813 140.323 205.165 140.704C205.546 141.056 205.84 141.481 206.045 141.98C206.162 142.332 206.206 142.699 206.177 143.08C206.148 143.461 206.074 143.828 205.957 144.18C205.869 144.532 205.766 144.855 205.649 145.148C205.532 145.441 205.429 145.661 205.341 145.808C205.312 145.837 205.297 145.867 205.297 145.896C205.297 145.925 205.282 145.955 205.253 145.984C205.077 146.307 204.886 146.732 204.681 147.26C204.476 147.788 204.27 148.433 204.065 149.196L203.757 150.868C203.728 151.015 203.698 151.147 203.669 151.264C203.669 151.352 203.654 151.455 203.625 151.572C203.596 151.631 203.581 151.719 203.581 151.836C203.581 151.953 203.581 152.071 203.581 152.188L203.537 152.364C203.508 153.127 203.566 153.801 203.713 154.388C203.86 154.975 204.094 155.429 204.417 155.752C204.916 156.251 205.62 156.5 206.529 156.5C207.145 156.5 207.658 156.368 208.069 156.104C208.509 155.84 208.861 155.532 209.125 155.18C209.418 154.828 209.638 154.461 209.785 154.08C209.932 153.669 210.034 153.332 210.093 153.068L210.753 149.592C210.9 148.829 211.281 148.243 211.897 147.832C212.513 147.421 213.202 147.289 213.965 147.436ZM240.68 148.096C240.944 148.8 240.915 149.504 240.592 150.208C240.269 150.883 239.741 151.352 239.008 151.616C236.661 152.467 234.593 152.995 232.804 153.2C232.775 153.229 232.716 153.244 232.628 153.244C231.807 153.361 231.205 153.596 230.824 153.948C230.589 154.153 230.399 154.403 230.252 154.696C230.105 154.989 230.003 155.195 229.944 155.312C229.944 155.312 229.929 155.327 229.9 155.356V155.4V155.356C229.049 157.439 227.729 159.067 225.94 160.24C224.18 161.413 222.141 162 219.824 162C218.504 162 217.272 161.751 216.128 161.252C214.984 160.753 213.987 160.064 213.136 159.184C212.285 158.304 211.611 157.277 211.112 156.104C210.643 154.901 210.408 153.611 210.408 152.232C210.408 152.027 210.423 151.836 210.452 151.66C210.452 151.455 210.467 151.249 210.496 151.044H210.452C210.481 150.985 210.496 150.927 210.496 150.868C210.496 150.809 210.511 150.751 210.54 150.692V150.648V150.56C210.599 150.208 210.643 149.885 210.672 149.592C210.731 149.269 210.789 149.02 210.848 148.844L210.892 148.668C210.892 148.551 210.907 148.463 210.936 148.404L211.156 147.084C211.244 146.585 211.303 146.101 211.332 145.632C211.391 145.133 211.449 144.679 211.508 144.268L211.552 143.036C211.552 142.801 211.567 142.625 211.596 142.508C211.625 142.42 211.64 142.347 211.64 142.288C211.669 142.2 211.699 142.112 211.728 142.024C212.021 141.115 212.579 140.455 213.4 140.044C214.251 139.604 215.116 139.531 215.996 139.824C216.876 140.147 217.521 140.719 217.932 141.54C218.343 142.361 218.401 143.227 218.108 144.136C218.049 144.224 218.005 144.327 217.976 144.444C217.947 144.532 217.903 144.62 217.844 144.708C217.697 145.001 217.551 145.309 217.404 145.632C217.257 145.955 217.111 146.321 216.964 146.732C216.847 147.143 216.715 147.597 216.568 148.096L216.26 149.856C216.231 149.944 216.216 150.032 216.216 150.12C216.216 150.208 216.201 150.281 216.172 150.34L216.128 150.604C216.128 150.633 216.113 150.721 216.084 150.868C216.055 150.985 216.025 151.147 215.996 151.352L215.952 151.484C215.952 151.631 215.937 151.763 215.908 151.88C215.908 151.968 215.908 152.085 215.908 152.232C215.908 153.464 216.275 154.491 217.008 155.312C217.771 156.104 218.709 156.5 219.824 156.5C220.763 156.5 221.54 156.353 222.156 156.06C222.772 155.767 223.285 155.415 223.696 155.004C223.813 154.887 223.975 154.637 224.18 154.256C224.385 153.875 224.473 153.479 224.444 153.068V152.98C224.444 152.951 224.429 152.921 224.4 152.892C224.341 152.628 224.209 152.393 224.004 152.188C223.828 151.983 223.667 151.821 223.52 151.704C223.461 151.675 223.417 151.645 223.388 151.616C223.359 151.587 223.315 151.557 223.256 151.528C223.109 151.411 222.977 151.308 222.86 151.22C222.743 151.103 222.625 151 222.508 150.912C221.569 150.061 220.909 149.049 220.528 147.876C220.176 146.703 220.161 145.544 220.484 144.4C220.777 143.344 221.305 142.464 222.068 141.76C222.86 141.027 223.813 140.543 224.928 140.308C225.632 140.161 226.277 140.132 226.864 140.22C227.451 140.279 227.979 140.425 228.448 140.66C228.917 140.865 229.313 141.115 229.636 141.408C229.988 141.701 230.267 141.98 230.472 142.244C230.912 142.801 231.235 143.432 231.44 144.136C231.645 144.84 231.763 145.588 231.792 146.38C231.792 146.468 231.807 146.571 231.836 146.688C231.865 146.776 231.895 146.879 231.924 146.996C231.983 147.113 232.056 147.201 232.144 147.26C232.261 147.377 232.408 147.465 232.584 147.524C232.76 147.583 233.009 147.583 233.332 147.524C233.919 147.407 234.52 147.26 235.136 147.084C235.781 146.908 236.456 146.688 237.16 146.424C237.864 146.16 238.553 146.189 239.228 146.512C239.932 146.835 240.416 147.363 240.68 148.096ZM226.952 148.052C227.245 147.905 227.392 147.656 227.392 147.304C227.421 146.923 227.363 146.497 227.216 146.028C227.069 145.588 226.835 145.236 226.512 144.972C226.219 144.708 225.867 144.649 225.456 144.796C225.075 144.943 224.869 145.236 224.84 145.676C224.811 146.087 224.913 146.483 225.148 146.864C225.441 147.333 225.749 147.685 226.072 147.92C226.395 148.125 226.688 148.169 226.952 148.052ZM258.008 147.392C258.742 147.597 259.299 148.023 259.68 148.668C260.091 149.313 260.194 150.017 259.988 150.78C259.46 152.863 258.668 154.623 257.612 156.06C256.586 157.497 255.412 158.656 254.092 159.536C252.802 160.416 251.423 161.047 249.956 161.428C248.49 161.809 247.067 162 245.688 162C245.454 162 245.219 162 244.984 162C244.75 162 244.515 161.985 244.28 161.956C242.96 161.839 241.728 161.531 240.584 161.032C239.47 160.504 238.487 159.844 237.636 159.052C236.815 158.231 236.155 157.292 235.656 156.236C235.158 155.18 234.864 154.036 234.776 152.804C234.747 152.628 234.732 152.423 234.732 152.188C234.732 151.924 234.732 151.689 234.732 151.484V151.44C234.732 151.264 234.747 151.132 234.776 151.044C234.835 150.105 234.952 149.284 235.128 148.58C235.334 147.876 235.48 147.407 235.568 147.172C235.832 146.233 236.228 145.324 236.756 144.444C237.314 143.535 237.974 142.728 238.736 142.024C239.499 141.32 240.379 140.748 241.376 140.308C242.374 139.868 243.474 139.648 244.676 139.648C245.146 139.619 245.674 139.648 246.26 139.736C246.876 139.795 247.492 139.956 248.108 140.22C248.724 140.455 249.296 140.807 249.824 141.276C250.382 141.745 250.822 142.347 251.144 143.08C251.291 143.432 251.408 143.843 251.496 144.312C251.584 144.781 251.599 145.28 251.54 145.808C251.511 146.336 251.394 146.893 251.188 147.48C250.983 148.037 250.675 148.595 250.264 149.152L250.132 149.284C250.103 149.343 249.927 149.533 249.604 149.856C249.282 150.179 248.812 150.531 248.196 150.912C247.61 151.293 246.862 151.645 245.952 151.968C245.043 152.291 244.002 152.481 242.828 152.54H242.784C242.579 152.54 242.3 152.569 241.948 152.628C241.626 152.687 241.391 152.848 241.244 153.112C241.098 153.405 241.068 153.684 241.156 153.948C241.244 154.183 241.332 154.373 241.42 154.52C242.007 155.283 242.755 155.84 243.664 156.192C244.603 156.515 245.747 156.573 247.096 156.368C247.712 156.28 248.387 156.119 249.12 155.884C249.883 155.62 250.616 155.224 251.32 154.696C252.024 154.168 252.67 153.479 253.256 152.628C253.843 151.777 254.312 150.692 254.664 149.372C254.84 148.639 255.251 148.081 255.896 147.7C256.542 147.319 257.246 147.216 258.008 147.392ZM242.828 144.84C242.242 145.192 241.772 145.603 241.42 146.072C241.098 146.541 241.039 146.981 241.244 147.392C241.42 147.803 241.787 148.037 242.344 148.096C242.902 148.125 243.518 148.023 244.192 147.788C244.838 147.583 245.322 147.245 245.644 146.776C245.996 146.277 246.055 145.764 245.82 145.236C245.586 144.737 245.175 144.473 244.588 144.444C244.002 144.385 243.415 144.517 242.828 144.84Z" fill="white"/>
<path d="M11.8152 152.041C11.3185 151.828 10.8099 151.651 10.4077 151.509C10.0765 151.272 9.69803 151.083 9.31953 150.905C9.15394 150.823 9.00018 150.752 8.85824 150.681C6.29158 149.261 2.92061 150.089 1.1819 152.585C-0.533156 155.057 -0.131005 158.582 2.06899 160.439C3.46469 161.622 5.29803 162.438 7.33244 162.804C7.52168 162.852 7.71093 162.875 7.88835 162.887L8.62168 162.958C8.62168 162.958 8.64534 162.958 8.65717 162.958C8.66899 162.958 8.68082 162.958 8.69265 162.958L8.97652 163.005C9.23674 163.053 9.49695 163.112 9.75717 163.183L9.93459 163.23L10.112 162.662V163.277C10.2303 163.325 10.384 163.408 10.6088 163.384C11.141 163.514 11.6733 163.585 12.1819 163.585C13.9443 163.585 15.4701 162.793 16.4754 161.338C18.0131 159.126 17.6819 156.11 15.7066 154.312C14.512 153.224 13.2346 152.632 11.8034 152.029L11.8152 152.041ZM10.4314 161.29C10.4314 161.29 10.3249 161.267 10.2658 161.267C10.2303 161.267 10.2066 161.267 10.1711 161.267C9.8991 161.196 9.62706 161.137 9.3077 161.077L8.06577 160.924C7.97115 160.924 7.86469 160.9 7.73459 160.876C5.99588 160.569 4.4819 159.895 3.34641 158.937C1.89158 157.707 1.65502 155.353 2.80233 153.697C3.94964 152.053 6.24426 151.473 7.91201 152.396C8.0776 152.49 8.26684 152.585 8.46792 152.68C8.77545 152.833 9.13029 152.999 9.3905 153.2L9.6034 153.318C10.0883 153.484 10.5733 153.661 11.0464 153.862C12.3002 154.395 13.4238 154.903 14.3937 155.79C15.6475 156.926 15.8486 158.854 14.8787 160.25C13.9088 161.645 12.3238 162.024 10.4195 161.302L10.4314 161.29Z" fill="#F85600"/>
<path d="M34.6668 133.885C33.9453 132.962 33.1529 132.087 32.3131 131.188C32.2185 131.094 32.0883 130.952 32.0056 130.857C31.8163 130.573 31.6625 130.36 31.5088 130.218C30.6808 128.728 29.4625 127.628 28.0787 127.131C26.7066 126.634 25.2163 126.729 23.7851 127.403C22.3539 128.077 21.3249 129.166 20.84 130.526C20.284 132.099 20.4378 133.944 21.2894 135.718C22.0582 137.351 23.3711 138.912 25.2991 140.497L25.6066 140.745C25.8077 140.899 25.997 141.065 26.198 141.23C26.5056 141.502 26.7303 141.691 26.8959 141.81C27.0142 141.94 27.1324 142.058 27.2507 142.188C27.6529 142.638 28.0668 143.087 28.5045 143.395C29.3443 144.175 30.5152 144.625 31.7453 144.625C32.2303 144.625 32.6916 144.554 33.141 144.424C34.655 143.986 35.7787 142.874 36.2518 141.384C36.2636 141.36 36.2754 141.325 36.2873 141.289L36.3228 141.136C36.5593 140.39 36.7367 139.148 36.7367 139.03C36.7131 138.309 36.5711 137.445 36.3582 136.783C36.0034 135.647 35.2701 134.63 34.6787 133.873L34.6668 133.885ZM28.055 140.248C27.9486 140.166 27.5464 139.823 27.4991 139.763C27.4991 139.763 27.4991 139.763 27.4873 139.752C27.298 139.586 27.1088 139.432 26.8486 139.219L26.5529 138.971C24.8615 137.587 23.7142 136.239 23.0754 134.879C22.4486 133.566 22.3185 132.253 22.7088 131.176C23.0281 130.301 23.6787 129.615 24.6486 129.166C25.6185 128.716 26.5529 128.645 27.44 128.965C28.5163 129.355 29.4389 130.289 30.0539 131.602C30.1012 131.72 30.2195 131.791 30.3378 131.851C30.3969 131.933 30.4561 132.016 30.5034 132.087C30.5152 132.099 30.5862 132.182 30.598 132.194C30.669 132.265 30.8464 132.454 30.9883 132.608C31.7099 133.388 32.4668 134.216 33.1529 135.091C33.6496 135.718 34.241 136.534 34.5012 137.374C34.6668 137.883 34.7733 138.545 34.7851 139.054C34.7851 139.219 34.584 140.047 34.4303 140.651C34.1937 141.585 33.5195 142.271 32.6088 142.543C31.6271 142.827 30.5271 142.59 29.7582 141.881C29.3916 141.62 29.0604 141.254 28.7174 140.875C28.5636 140.698 28.4099 140.532 28.2443 140.355C28.1969 140.308 28.1496 140.272 28.0905 140.237L28.055 140.248Z" fill="#F85600"/>
<path d="M61.5518 163.739C61.2443 161.823 59.884 159.717 57.5185 159.327C56.4894 159.161 55.4604 158.877 54.3959 158.594C52.5625 158.097 50.6582 157.576 48.5292 157.647C46.8023 157.706 45.1937 158.523 44.1056 159.859C42.9937 161.219 42.5324 162.994 42.8281 164.72C43.1238 166.436 44.0937 167.879 45.5486 168.801C46.7432 169.546 48.1862 169.866 49.6292 169.676C49.7593 169.676 49.9013 169.676 50.0668 169.641C50.1615 169.617 50.3034 169.594 50.398 169.57C50.9421 169.7 51.4862 169.771 52.0185 169.854L52.3378 169.901C53.1066 170.008 53.8045 170.067 54.4668 170.067C56.1701 170.067 57.6604 169.7 59.1625 168.919C60.984 167.973 61.883 165.998 61.5281 163.762L61.5518 163.739ZM52.6453 167.938L52.3142 167.89C51.8056 167.819 51.2733 167.748 50.741 167.607C50.7174 167.607 50.6109 167.583 50.5873 167.583C50.5754 167.583 50.54 167.583 50.5163 167.583C50.4572 167.583 50.4099 167.583 50.3744 167.583C50.2679 167.547 50.1496 167.547 50.0314 167.583C48.8722 167.926 47.6303 167.748 46.6249 167.122C45.6432 166.507 44.9926 165.525 44.7916 164.366C44.5905 163.207 44.9099 162.012 45.655 161.077C46.3884 160.167 47.4765 159.623 48.6238 159.587C50.4099 159.528 52.1131 159.977 53.9346 160.474C54.9873 160.758 56.0754 161.054 57.2109 161.243C58.6066 161.468 59.4346 162.804 59.6238 164.034C59.8013 165.111 59.541 166.495 58.2873 167.145C56.5959 168.02 54.9045 168.257 52.6453 167.926V167.938Z" fill="#F85600"/>
<path d="M318.294 144.843C318.791 145.056 319.299 145.233 319.701 145.375C320.033 145.612 320.411 145.801 320.79 145.978C320.955 146.061 321.109 146.132 321.251 146.203C323.818 147.622 327.189 146.794 328.927 144.299C330.642 141.827 330.24 138.302 328.04 136.445C326.644 135.262 324.811 134.446 322.777 134.079C322.587 134.032 322.398 134.008 322.221 133.997L321.487 133.926C321.487 133.926 321.464 133.926 321.452 133.926C321.44 133.926 321.428 133.926 321.416 133.926L321.133 133.878C320.872 133.831 320.612 133.772 320.352 133.701L320.175 133.654L319.997 134.221L319.997 133.606C319.879 133.559 319.725 133.476 319.5 133.5C318.968 133.37 318.436 133.299 317.927 133.299C316.165 133.299 314.639 134.091 313.634 135.546C312.096 137.758 312.427 140.774 314.403 142.572C315.597 143.66 316.875 144.251 318.306 144.855L318.294 144.843ZM319.678 135.593C319.678 135.593 319.784 135.617 319.843 135.617C319.879 135.617 319.903 135.617 319.938 135.617C320.21 135.688 320.482 135.747 320.801 135.806L322.043 135.96C322.138 135.96 322.244 135.984 322.375 136.007C324.113 136.315 325.627 136.989 326.763 137.947C328.218 139.177 328.454 141.531 327.307 143.187C326.159 144.831 323.865 145.411 322.197 144.488C322.032 144.393 321.842 144.299 321.641 144.204C321.334 144.05 320.979 143.885 320.719 143.684L320.506 143.565C320.021 143.4 319.536 143.222 319.063 143.021C317.809 142.489 316.685 141.981 315.715 141.093C314.462 139.958 314.261 138.03 315.23 136.634C316.2 135.239 317.785 134.86 319.69 135.582L319.678 135.593Z" fill="#F85600"/>
<path d="M295.442 162.999C296.164 163.921 296.956 164.797 297.796 165.696C297.891 165.79 298.021 165.932 298.104 166.027C298.293 166.311 298.447 166.524 298.6 166.665C299.428 168.156 300.647 169.256 302.03 169.753C303.403 170.249 304.893 170.155 306.324 169.481C307.755 168.806 308.784 167.718 309.269 166.358C309.825 164.785 309.671 162.94 308.82 161.165C308.051 159.533 306.738 157.972 304.81 156.387L304.503 156.139C304.301 155.985 304.112 155.819 303.911 155.654C303.604 155.382 303.379 155.192 303.213 155.074C303.095 154.944 302.977 154.826 302.858 154.696C302.456 154.246 302.042 153.797 301.605 153.489C300.765 152.708 299.594 152.259 298.364 152.259C297.879 152.259 297.418 152.33 296.968 152.46C295.454 152.898 294.33 154.01 293.857 155.5C293.846 155.524 293.834 155.559 293.822 155.594L293.786 155.748C293.55 156.493 293.372 157.735 293.372 157.854C293.396 158.575 293.538 159.439 293.751 160.101C294.106 161.236 294.839 162.254 295.43 163.011L295.442 162.999ZM302.054 156.635C302.161 156.718 302.563 157.061 302.61 157.12C302.61 157.12 302.61 157.12 302.622 157.132C302.811 157.298 303 157.451 303.261 157.664L303.556 157.913C305.248 159.297 306.395 160.645 307.034 162.005C307.661 163.318 307.791 164.631 307.4 165.707C307.081 166.583 306.43 167.269 305.461 167.718C304.491 168.168 303.556 168.239 302.669 167.919C301.593 167.529 300.67 166.594 300.055 165.282C300.008 165.163 299.89 165.092 299.771 165.033C299.712 164.95 299.653 164.868 299.606 164.797C299.594 164.785 299.523 164.702 299.511 164.69C299.44 164.619 299.263 164.43 299.121 164.276C298.399 163.496 297.642 162.668 296.956 161.792C296.459 161.165 295.868 160.349 295.608 159.51C295.442 159.001 295.336 158.339 295.324 157.83C295.324 157.664 295.525 156.836 295.679 156.233C295.915 155.299 296.59 154.613 297.5 154.341C298.482 154.057 299.582 154.293 300.351 155.003C300.718 155.263 301.049 155.63 301.392 156.008C301.546 156.186 301.699 156.351 301.865 156.529C301.912 156.576 301.959 156.612 302.019 156.647L302.054 156.635Z" fill="#F85600"/>
<path d="M268.557 133.145C268.865 135.061 270.225 137.167 272.591 137.557C273.62 137.722 274.649 138.006 275.713 138.29C277.547 138.787 279.451 139.307 281.58 139.236C283.307 139.177 284.915 138.361 286.004 137.025C287.115 135.664 287.577 133.89 287.281 132.163C286.985 130.448 286.015 129.005 284.561 128.083C283.366 127.338 281.923 127.018 280.48 127.207C280.35 127.207 280.208 127.207 280.042 127.243C279.948 127.267 279.806 127.29 279.711 127.314C279.167 127.184 278.623 127.113 278.091 127.03L277.771 126.983C277.002 126.876 276.305 126.817 275.642 126.817C273.939 126.817 272.449 127.184 270.947 127.964C269.125 128.911 268.226 130.886 268.581 133.121L268.557 133.145ZM277.464 128.946L277.795 128.993C278.304 129.064 278.836 129.135 279.368 129.277C279.392 129.277 279.498 129.301 279.522 129.301C279.534 129.301 279.569 129.301 279.593 129.301C279.652 129.301 279.699 129.301 279.735 129.301C279.841 129.336 279.959 129.336 280.078 129.301C281.237 128.958 282.479 129.135 283.484 129.762C284.466 130.377 285.116 131.359 285.318 132.518C285.519 133.677 285.199 134.872 284.454 135.806C283.721 136.717 282.633 137.261 281.485 137.297C279.699 137.356 277.996 136.906 276.175 136.41C275.122 136.126 274.034 135.83 272.898 135.641C271.502 135.416 270.675 134.079 270.485 132.849C270.308 131.773 270.568 130.389 271.822 129.739C273.513 128.863 275.205 128.627 277.464 128.958L277.464 128.946Z" fill="#F85600"/>
<path d="M230.774 56.0264C224.02 56.0264 220.46 59.1371 217.597 61.6328C215.031 63.8683 213.174 65.4887 209.081 65.4887C204.989 65.4887 203.132 63.8683 200.565 61.6328C197.703 59.1371 194.142 56.0264 187.389 56.0264C180.635 56.0264 177.075 59.1371 174.212 61.6328C171.646 63.8683 169.789 65.4887 165.708 65.4887C161.627 65.4887 159.77 63.8683 157.204 61.6328C154.341 59.1371 150.781 56.0264 144.027 56.0264C137.274 56.0264 133.713 59.1371 130.851 61.6328C128.284 63.8683 126.439 65.4887 122.347 65.4887C118.254 65.4887 116.409 63.8683 113.842 61.6328C110.98 59.1371 107.42 56.0264 100.666 56.0264C98.7026 56.0264 97.1177 57.6113 97.1177 59.5748C97.1177 61.5382 98.7026 63.1231 100.666 63.1231C104.759 63.1231 106.604 64.7436 109.17 66.9791C112.033 69.4748 115.593 72.5855 122.347 72.5855C129.1 72.5855 132.661 69.4748 135.523 66.9791C138.09 64.7436 139.935 63.1231 144.027 63.1231C148.12 63.1231 149.977 64.7436 152.532 66.9791C155.394 69.4748 158.954 72.5855 165.708 72.5855C172.462 72.5855 176.022 69.4748 178.884 66.9791C181.451 64.7436 183.308 63.1231 187.389 63.1231C191.469 63.1231 193.338 64.7436 195.905 66.9791C198.767 69.4748 202.327 72.5855 209.081 72.5855C215.835 72.5855 219.395 69.4748 222.257 66.9791C224.824 64.7436 226.681 63.1231 230.774 63.1231C232.737 63.1231 234.322 61.5382 234.322 59.5748C234.322 57.6113 232.737 56.0264 230.774 56.0264Z" fill="#F85600"/>
<path d="M192.122 0.23266C191.532 -0.172164 190.716 -0.0343517 190.299 0.55135C190.1 0.835588 190.021 1.18012 190.082 1.52465C190.143 1.86918 190.334 2.16203 190.62 2.36014C195.984 6.06384 197.651 10.1035 195.585 14.3498C193.979 17.6401 190.429 19.7675 186.532 19.7675H183.182C184.64 18.6564 185.838 17.2439 186.697 15.6246L190.386 8.61337C190.594 8.21716 190.586 7.7262 190.343 7.33861C190.108 6.95101 189.674 6.70984 189.223 6.70984H167.446C165.736 6.70984 163.991 6.95962 162.325 7.43335C162.169 7.45058 162.012 7.49364 161.856 7.57116C155.616 9.51776 150.833 14.5135 149.41 20.6289C148.394 24.9958 148.776 31.1629 156.345 35.6763C156.449 35.7624 156.57 35.8313 156.631 35.8485C158.141 36.7271 159.895 37.5195 161.83 38.1999L171.994 48.6048C172.237 48.8546 172.584 49.001 172.931 49.001C173.062 49.001 173.183 48.9838 173.313 48.9407C173.782 48.7943 174.129 48.4067 174.216 47.9329C174.259 47.7004 175.362 42.1793 183.677 41.1715C184.059 41.1198 184.397 40.9131 184.614 40.5944C184.822 40.2671 184.883 39.8795 184.77 39.5178C184.736 39.3972 181.107 27.6745 166.17 30.8356C165.293 30.1724 163.132 28.3722 162.802 26.4428C162.672 25.659 162.88 24.9011 163.427 24.1948C163.471 24.1345 163.523 24.0828 163.566 24.0225C163.957 25.5298 164.937 27.5712 167.446 28.5359C167.758 28.6564 168.123 28.6478 168.444 28.51C168.765 28.3722 169.017 28.1138 169.138 27.7951C169.269 27.4678 169.26 27.1233 169.121 26.8046C168.982 26.4859 168.722 26.2447 168.401 26.1155C166.526 25.392 166.048 23.6952 165.944 22.5582C166.205 22.4893 166.474 22.429 166.743 22.3946L168.8 25.616C170.206 27.821 172.619 29.1302 175.24 29.1302H176.664C177.384 29.1302 177.974 28.5531 177.974 27.8382C177.974 27.1233 177.384 26.5376 176.664 26.5376H175.24C173.513 26.5376 171.933 25.6762 171.004 24.2292L169.798 22.3429H170.527L170.666 22.5496C172.081 24.6599 174.45 25.9174 177.011 25.9174H180.049C180.769 25.9174 181.351 25.3317 181.351 24.6168C181.351 23.9019 180.769 23.3162 180.049 23.3162H177.011C175.926 23.3162 174.876 22.9631 174.016 22.3343H186.541C191.436 22.3343 195.915 19.6297 197.946 15.4523C199.812 11.628 200.307 5.87435 192.122 0.20682V0.23266ZM163.419 31.9381C164.321 32.7564 165.076 33.2473 165.172 33.3162C165.476 33.5057 165.831 33.5746 166.179 33.4885C176.004 31.1974 180.144 36.1328 181.637 38.8804C176.065 40.0432 173.539 43.1956 172.437 45.3403L163.488 36.1758C163.349 36.0294 163.167 35.9174 162.976 35.8485C162.134 35.5643 161.318 35.2456 160.537 34.9097C161.83 34.2034 162.802 33.1956 163.41 31.9381H163.419ZM160.224 26.8735C160.381 27.8037 160.789 28.7598 161.431 29.6986C161.04 31.6452 159.764 32.7908 157.43 33.2904C152.882 30.4825 150.989 26.7012 151.797 22.0242C153.428 23.5057 156.102 25.0475 160.198 25.2542C160.12 25.7796 160.129 26.3222 160.224 26.8735ZM161.353 22.6099C161.353 22.6099 161.318 22.653 161.301 22.6788C161.231 22.6788 161.162 22.6788 161.092 22.6788C156.527 22.6788 153.984 20.8098 152.621 19.1302C154.14 15.3317 157.325 12.1706 161.24 10.5427C161.509 13.5229 162.507 17.2439 165.554 19.1905C165.84 19.3713 166.196 19.4316 166.534 19.3627C166.873 19.2938 167.177 19.0871 167.35 18.8115C167.541 18.5186 167.602 18.1741 167.533 17.8296C167.455 17.4936 167.255 17.2008 166.96 17.0199C164.634 15.5298 163.948 12.3085 163.792 9.73309C165.007 9.44886 166.239 9.30243 167.446 9.30243H187.07L184.371 14.4187C182.635 17.7176 179.224 19.7675 175.474 19.7675H167.402C166.265 19.7675 165.146 20.0087 164.087 20.4738C162.985 20.9734 162.03 21.7141 161.335 22.6099H161.353Z" fill="white"/>
<path d="M178.894 15.9518C180.326 15.9518 181.49 14.7976 181.49 13.3764C181.49 11.9552 180.326 10.7924 178.894 10.7924C177.462 10.7924 176.29 11.9466 176.29 13.3764C176.29 14.8062 177.454 15.9518 178.894 15.9518Z" fill="white"/>
</svg>
