<svg width="331" height="176" viewBox="0 0 331 176" fill="none" xmlns="http://www.w3.org/2000/svg">
<path d="M124.075 105.392C124.838 105.539 125.424 105.935 125.835 106.58C126.246 107.196 126.378 107.885 126.231 108.648L125.571 112.212C125.307 113.327 124.867 114.368 124.251 115.336C123.664 116.275 122.946 117.096 122.095 117.8C121.244 118.475 120.291 119.017 119.235 119.428C118.208 119.809 117.123 120 115.979 120C114.864 120 113.794 119.824 112.767 119.472C111.77 119.12 110.846 118.621 109.995 117.976C109.174 117.331 108.47 116.568 107.883 115.688C107.296 114.808 106.856 113.855 106.563 112.828H106.519V112.696C106.431 112.432 106.299 112.227 106.123 112.08C105.947 111.904 105.786 111.787 105.639 111.728C105.434 111.64 105.228 111.596 105.023 111.596C104.554 111.596 104.187 111.713 103.923 111.948C103.688 112.153 103.527 112.344 103.439 112.52C103.41 112.549 103.395 112.579 103.395 112.608C103.395 112.608 103.38 112.623 103.351 112.652V112.696C102.647 114.045 101.811 115.204 100.843 116.172C99.9042 117.111 98.8922 117.888 97.8069 118.504C96.7216 119.12 95.5922 119.575 94.4189 119.868C93.2749 120.132 92.1456 120.264 91.0309 120.264C90.8549 120.264 90.6642 120.249 90.4589 120.22C90.2829 120.22 90.1069 120.22 89.9309 120.22C89.5202 120.22 89.1096 120.205 88.6989 120.176C88.3176 120.147 87.9216 120.103 87.5109 120.044C85.7509 119.78 84.1816 119.223 82.8029 118.372C81.4536 117.521 80.3096 116.392 79.3709 114.984C78.2562 113.312 77.5669 111.361 77.3029 109.132C77.0389 106.873 77.2296 104.541 77.8749 102.136C78.1389 101.168 78.4469 100.244 78.7989 99.364C78.8282 99.3347 78.8429 99.3053 78.8429 99.276C79.4002 97.78 80.1482 96.416 81.0869 95.184C82.0256 93.952 83.0522 92.9107 84.1669 92.06C85.3109 91.18 86.5136 90.52 87.7749 90.08C89.0362 89.64 90.2829 89.464 91.5149 89.552C92.0136 89.552 92.5856 89.64 93.2309 89.816C93.9056 89.9627 94.5656 90.2267 95.2109 90.608C95.8856 90.96 96.5162 91.444 97.1029 92.06C97.6896 92.676 98.1736 93.4387 98.5549 94.348C99.0242 95.4627 99.1856 96.68 99.0389 98C98.8922 99.2907 98.4669 100.523 97.7629 101.696C96.8536 103.221 95.6069 104.409 94.0229 105.26C93.1722 105.671 92.4096 105.935 91.7349 106.052C91.0896 106.169 90.5176 106.199 90.0189 106.14C89.1389 105.993 88.4936 105.729 88.0829 105.348C87.6722 104.967 87.3936 104.629 87.2469 104.336C87.0709 103.925 86.9536 103.5 86.8949 103.06C86.8656 102.591 86.9242 102.136 87.0709 101.696C87.3349 100.904 87.7896 100.288 88.4349 99.848C89.1096 99.3787 89.8282 99.1587 90.5909 99.188C90.9429 99.2467 91.2802 99.232 91.6029 99.144C91.8669 99.0853 92.1309 98.968 92.3949 98.792C92.6882 98.616 92.9082 98.3373 93.0549 97.956C93.0842 97.9267 93.0989 97.8827 93.0989 97.824C93.1282 97.7947 93.1429 97.736 93.1429 97.648C93.2602 97.2667 93.2602 96.9147 93.1429 96.592C92.9962 96.2987 92.8349 96.0787 92.6589 95.932C92.4829 95.7853 92.2922 95.668 92.0869 95.58C91.8522 95.492 91.6176 95.4333 91.3829 95.404H91.1189C90.6789 95.3747 90.1802 95.4627 89.6229 95.668C89.0949 95.844 88.5522 96.1373 87.9949 96.548C87.4376 96.9293 86.8949 97.4133 86.3669 98C85.8682 98.5573 85.4136 99.2027 85.0029 99.936C84.9736 99.9947 84.9442 100.068 84.9149 100.156C84.9149 100.244 84.8856 100.317 84.8269 100.376C84.2696 101.373 83.8442 102.459 83.5509 103.632C83.1402 105.216 82.9936 106.727 83.1109 108.164C83.2282 109.572 83.6242 110.76 84.2989 111.728C85.2082 113.136 86.5722 113.972 88.3909 114.236C88.4789 114.236 88.5669 114.251 88.6549 114.28C88.7429 114.28 88.8456 114.28 88.9629 114.28C89.1976 114.309 89.4176 114.339 89.6229 114.368C89.8282 114.368 90.0482 114.368 90.2829 114.368H90.3709H90.7229C91.0456 114.339 91.3536 114.309 91.6469 114.28C91.9402 114.251 92.2336 114.207 92.5269 114.148C93.7589 113.913 94.8002 113.488 95.6509 112.872C96.5016 112.227 97.2056 111.523 97.7629 110.76C98.3202 109.968 98.7456 109.191 99.0389 108.428C99.3322 107.665 99.5376 107.035 99.6549 106.536C99.7136 106.184 99.7722 105.891 99.8309 105.656C100.007 104.747 100.3 103.779 100.711 102.752C101.122 101.696 101.752 100.684 102.603 99.716C103.248 98.9827 103.967 98.44 104.759 98.088C105.551 97.7067 106.299 97.4427 107.003 97.296C107.736 97.1493 108.382 97.076 108.939 97.076C109.526 97.076 109.922 97.0907 110.127 97.12C111.183 97.1787 112.122 97.3693 112.943 97.692C113.764 98.0147 114.454 98.4253 115.011 98.924C115.598 99.3933 116.067 99.936 116.419 100.552C116.771 101.139 117.02 101.725 117.167 102.312C117.431 103.339 117.46 104.365 117.255 105.392C117.079 106.389 116.698 107.313 116.111 108.164L115.847 108.428C115.818 108.487 115.788 108.531 115.759 108.56C115.759 108.56 115.744 108.589 115.715 108.648H115.671C115.29 109.059 114.894 109.396 114.483 109.66C114.072 109.924 113.75 110.115 113.515 110.232C113.486 110.232 113.471 110.247 113.471 110.276C113.471 110.276 113.456 110.276 113.427 110.276C113.368 110.276 113.31 110.305 113.251 110.364C113.134 110.423 113.002 110.511 112.855 110.628C112.738 110.745 112.635 110.892 112.547 111.068C112.518 111.097 112.459 111.229 112.371 111.464C112.312 111.669 112.298 111.919 112.327 112.212C112.386 112.505 112.547 112.828 112.811 113.18C113.075 113.503 113.544 113.811 114.219 114.104C114.336 114.163 114.41 114.192 114.439 114.192C114.908 114.368 115.422 114.456 115.979 114.456C116.947 114.456 117.827 114.133 118.619 113.488C119.411 112.843 119.924 112.021 120.159 111.024L120.819 107.592C120.966 106.829 121.347 106.243 121.963 105.832C122.608 105.392 123.312 105.245 124.075 105.392ZM109.379 106.404C110.2 106.257 110.86 105.949 111.359 105.48C111.887 105.011 112.078 104.409 111.931 103.676C111.814 103.001 111.432 102.576 110.787 102.4C110.142 102.195 109.408 102.165 108.587 102.312C107.59 102.488 106.842 102.825 106.343 103.324C105.844 103.823 105.624 104.395 105.683 105.04V105.128C105.742 105.187 105.771 105.26 105.771 105.348C105.8 105.436 105.83 105.509 105.859 105.568C106.123 106.037 106.607 106.331 107.311 106.448C108.015 106.565 108.704 106.551 109.379 106.404ZM131.351 93.292C130.999 94.3773 130.325 95.1693 129.327 95.668C128.359 96.1667 127.347 96.2547 126.291 95.932C125.763 95.756 125.309 95.492 124.927 95.14C124.546 94.788 124.238 94.3773 124.003 93.908C123.769 93.4387 123.622 92.94 123.563 92.412C123.534 91.884 123.607 91.356 123.783 90.828C124.135 89.7427 124.795 88.9507 125.763 88.452C126.761 87.9533 127.787 87.88 128.843 88.232C129.371 88.408 129.826 88.672 130.207 89.024C130.589 89.3467 130.897 89.7427 131.131 90.212C131.366 90.6813 131.498 91.18 131.527 91.708C131.586 92.236 131.527 92.764 131.351 93.292ZM136.455 105.436C137.218 105.583 137.775 105.964 138.127 106.58C138.479 107.196 138.582 107.885 138.435 108.648L137.951 112.212C137.687 113.415 137.277 114.5 136.719 115.468C136.162 116.407 135.502 117.213 134.739 117.888C133.977 118.563 133.097 119.091 132.099 119.472C131.131 119.824 130.105 120 129.019 120C126.497 120 124.458 119.179 122.903 117.536C122.053 116.627 121.422 115.541 121.011 114.28C120.63 113.019 120.469 111.611 120.527 110.056L120.571 109.924C120.571 109.777 120.571 109.616 120.571 109.44C120.571 109.264 120.586 109.073 120.615 108.868C120.762 107.049 120.923 105.524 121.099 104.292C121.275 103.031 121.437 102.077 121.583 101.432C121.73 100.904 121.95 100.303 122.243 99.628C122.566 98.924 123.05 98.4107 123.695 98.088L123.959 97.956C124.781 97.6627 125.573 97.648 126.335 97.912C126.863 98.0587 127.303 98.3227 127.655 98.704C128.037 99.056 128.33 99.4813 128.535 99.98C128.653 100.332 128.697 100.699 128.667 101.08C128.638 101.461 128.565 101.828 128.447 102.18C128.359 102.532 128.257 102.855 128.139 103.148C128.022 103.441 127.919 103.661 127.831 103.808C127.802 103.837 127.787 103.867 127.787 103.896C127.787 103.925 127.773 103.955 127.743 103.984C127.567 104.307 127.377 104.732 127.171 105.26C126.966 105.788 126.761 106.433 126.555 107.196L126.247 108.868C126.218 109.015 126.189 109.147 126.159 109.264C126.159 109.352 126.145 109.455 126.115 109.572C126.086 109.631 126.071 109.719 126.071 109.836C126.071 109.953 126.071 110.071 126.071 110.188L126.027 110.364C125.998 111.127 126.057 111.801 126.203 112.388C126.35 112.975 126.585 113.429 126.907 113.752C127.406 114.251 128.11 114.5 129.019 114.5C129.635 114.5 130.149 114.368 130.559 114.104C130.999 113.84 131.351 113.532 131.615 113.18C131.909 112.828 132.129 112.461 132.275 112.08C132.422 111.669 132.525 111.332 132.583 111.068L133.243 107.592C133.39 106.829 133.771 106.243 134.387 105.832C135.003 105.421 135.693 105.289 136.455 105.436ZM162.69 105.436C163.453 105.583 164.01 105.964 164.362 106.58C164.744 107.196 164.876 107.885 164.758 108.648L164.186 112.212C163.922 113.415 163.512 114.5 162.954 115.468C162.397 116.407 161.722 117.213 160.93 117.888C160.168 118.563 159.302 119.091 158.334 119.472C157.366 119.824 156.34 120 155.254 120C154.55 120 153.92 119.941 153.362 119.824C153.128 119.765 152.937 119.721 152.79 119.692C152.761 119.663 152.732 119.648 152.702 119.648C152.204 119.501 151.764 119.311 151.382 119.076C151.001 118.812 150.664 118.548 150.37 118.284L150.238 118.152C149.916 117.829 149.593 117.624 149.27 117.536C148.977 117.448 148.684 117.433 148.39 117.492C148.126 117.521 147.892 117.609 147.686 117.756C147.481 117.873 147.32 117.976 147.202 118.064C147.144 118.093 147.1 118.123 147.07 118.152C147.07 118.181 147.041 118.211 146.982 118.24C146.513 118.621 146.073 118.915 145.662 119.12C145.252 119.296 144.988 119.413 144.87 119.472C143.932 119.824 142.964 120 141.966 120C140.646 120 139.429 119.765 138.314 119.296C137.229 118.797 136.276 118.123 135.454 117.272C134.662 116.392 134.032 115.351 133.562 114.148C133.122 112.945 132.902 111.64 132.902 110.232C132.902 110.056 132.917 109.675 132.946 109.088C133.005 108.472 133.152 107.739 133.386 106.888C133.621 106.037 133.988 105.128 134.486 104.16C134.985 103.163 135.674 102.209 136.554 101.3C137.464 100.42 138.373 99.7307 139.282 99.232C140.221 98.704 141.145 98.3227 142.054 98.088C142.465 98 142.934 97.8973 143.462 97.78C143.902 97.7213 144.43 97.6627 145.046 97.604C145.662 97.516 146.352 97.5013 147.114 97.56C147.613 97.5893 148.185 97.648 148.83 97.736C149.476 97.7947 150.121 97.8973 150.766 98.044C151.441 98.1613 152.101 98.3373 152.746 98.572C153.421 98.7773 154.022 99.056 154.55 99.408C154.785 99.5253 155.005 99.6867 155.21 99.892V99.936C155.709 100.376 156.046 100.933 156.222 101.608C156.428 102.283 156.413 102.972 156.178 103.676C156.002 104.145 155.753 104.556 155.43 104.908C155.137 105.26 154.785 105.539 154.374 105.744C153.964 105.949 153.524 106.081 153.054 106.14C152.614 106.169 152.16 106.111 151.69 105.964C151.104 105.788 150.634 105.495 150.282 105.084H150.238C150.238 105.055 150.224 105.04 150.194 105.04C150.194 105.04 150.194 105.025 150.194 104.996C150.106 104.908 149.916 104.761 149.622 104.556C149.358 104.321 149.006 104.101 148.566 103.896C148.126 103.661 147.598 103.471 146.982 103.324C146.396 103.177 145.721 103.133 144.958 103.192C144.02 103.251 143.198 103.441 142.494 103.764C141.79 104.087 141.116 104.571 140.47 105.216C139.972 105.715 139.576 106.257 139.282 106.844C139.018 107.431 138.813 107.973 138.666 108.472C138.549 108.941 138.476 109.352 138.446 109.704C138.417 110.027 138.402 110.188 138.402 110.188V110.232C138.402 110.672 138.446 111.112 138.534 111.552C138.652 111.992 138.813 112.417 139.018 112.828C139.253 113.209 139.532 113.547 139.854 113.84C140.206 114.104 140.632 114.295 141.13 114.412C142.01 114.588 142.832 114.529 143.594 114.236C144.24 114.001 144.841 113.532 145.398 112.828C145.956 112.095 146.308 110.936 146.454 109.352L146.542 108.912C146.572 108.853 146.586 108.809 146.586 108.78C146.586 108.721 146.601 108.663 146.63 108.604C146.777 107.841 147.144 107.24 147.73 106.8C148.346 106.36 149.036 106.199 149.798 106.316C150.561 106.463 151.162 106.844 151.602 107.46C152.042 108.047 152.204 108.721 152.086 109.484C152.057 109.631 152.028 109.763 151.998 109.88C151.998 109.968 151.998 110.085 151.998 110.232C151.998 110.467 152.028 110.833 152.086 111.332C152.145 111.801 152.277 112.271 152.482 112.74C152.717 113.209 153.04 113.62 153.45 113.972C153.89 114.324 154.492 114.5 155.254 114.5C155.87 114.5 156.384 114.368 156.794 114.104C157.234 113.84 157.586 113.532 157.85 113.18C158.114 112.828 158.32 112.461 158.466 112.08C158.613 111.669 158.716 111.332 158.774 111.068L159.434 107.592C159.581 106.829 159.962 106.243 160.578 105.832C161.224 105.421 161.928 105.289 162.69 105.436ZM185.907 105.392C186.67 105.539 187.242 105.935 187.623 106.58C188.005 107.196 188.122 107.871 187.975 108.604L187.359 112.168C187.095 113.341 186.699 114.397 186.171 115.336C185.643 116.275 184.998 117.096 184.235 117.8C183.473 118.475 182.622 119.003 181.683 119.384C180.745 119.736 179.733 119.927 178.647 119.956H178.427C177.577 119.956 176.814 119.883 176.139 119.736C175.465 119.56 174.863 119.34 174.335 119.076C173.837 118.812 173.397 118.519 173.015 118.196C172.663 117.873 172.37 117.551 172.135 117.228C171.519 116.436 171.094 115.585 170.859 114.676C170.654 113.737 170.537 112.872 170.507 112.08C170.507 111.288 170.551 110.613 170.639 110.056C170.757 109.469 170.83 109.117 170.859 109L170.991 108.428C171.021 108.281 171.079 108.047 171.167 107.724C171.285 107.372 171.387 106.991 171.475 106.58C171.593 106.14 171.666 105.715 171.695 105.304C171.725 104.893 171.695 104.541 171.607 104.248C171.49 103.984 171.343 103.764 171.167 103.588C171.021 103.412 170.874 103.28 170.727 103.192C170.551 103.075 170.361 103.001 170.155 102.972C169.539 102.855 168.982 102.913 168.483 103.148C168.014 103.353 167.706 103.515 167.559 103.632C167.501 103.691 167.442 103.749 167.383 103.808C167.325 103.837 167.266 103.881 167.207 103.94C166.826 104.321 166.474 104.791 166.151 105.348C165.858 105.876 165.594 106.448 165.359 107.064C165.154 107.651 164.978 108.223 164.831 108.78C164.685 109.337 164.567 109.807 164.479 110.188C164.479 110.188 164.45 110.247 164.391 110.364L164.039 112.212C163.775 113.356 163.335 114.412 162.719 115.38C162.133 116.319 161.414 117.14 160.563 117.844C159.742 118.519 158.818 119.047 157.791 119.428C156.735 119.809 155.635 120 154.491 120C153.729 120 153.083 119.736 152.555 119.208C151.998 118.68 151.719 118.035 151.719 117.272C151.719 116.509 151.998 115.864 152.555 115.336C153.083 114.779 153.729 114.5 154.491 114.5C155.459 114.5 156.339 114.177 157.131 113.532C157.923 112.887 158.437 112.065 158.671 111.068L159.331 107.636L159.419 107.108C159.419 107.049 159.419 107.005 159.419 106.976C159.449 106.917 159.463 106.859 159.463 106.8C159.698 105.568 159.757 104.512 159.639 103.632C159.551 102.723 159.449 102.048 159.331 101.608C159.038 100.992 158.979 100.361 159.155 99.716C159.331 99.0707 159.713 98.5427 160.299 98.132C160.798 97.8093 161.326 97.6627 161.883 97.692C162.441 97.7213 162.954 97.8973 163.423 98.22C163.511 98.308 163.599 98.3813 163.687 98.44C163.746 98.4987 163.79 98.5573 163.819 98.616C163.849 98.6453 163.893 98.6893 163.951 98.748C164.039 98.8653 164.157 98.968 164.303 99.056C164.45 99.144 164.611 99.2027 164.787 99.232C165.022 99.2613 165.213 99.232 165.359 99.144C165.535 99.056 165.682 98.9827 165.799 98.924C165.799 98.924 165.829 98.8947 165.887 98.836C165.946 98.8067 166.078 98.7187 166.283 98.572C166.518 98.396 166.782 98.2347 167.075 98.088C168.894 97.296 170.742 97.208 172.619 97.824C174.526 98.4987 175.846 99.672 176.579 101.344C176.931 102.077 177.137 102.825 177.195 103.588C177.283 104.351 177.298 105.069 177.239 105.744C177.181 106.419 177.078 107.02 176.931 107.548C176.814 108.047 176.711 108.413 176.623 108.648L176.183 110.32C176.125 110.555 176.081 110.804 176.051 111.068C176.022 111.332 176.007 111.611 176.007 111.904C176.007 112.051 176.037 112.285 176.095 112.608C176.154 112.901 176.286 113.195 176.491 113.488C176.697 113.781 176.99 114.031 177.371 114.236C177.782 114.412 178.325 114.471 178.999 114.412C179.527 114.324 179.967 114.148 180.319 113.884C180.671 113.591 180.965 113.283 181.199 112.96C181.434 112.608 181.61 112.256 181.727 111.904C181.845 111.552 181.933 111.259 181.991 111.024L182.651 107.592C182.798 106.829 183.179 106.243 183.795 105.832C184.441 105.392 185.145 105.245 185.907 105.392ZM205.592 105.392C206.326 105.597 206.883 106.023 207.264 106.668C207.646 107.313 207.748 108.017 207.572 108.78C207.044 110.863 206.252 112.623 205.196 114.06C204.17 115.497 202.996 116.656 201.676 117.536C200.386 118.416 199.007 119.047 197.54 119.428C196.074 119.809 194.651 120 193.272 120C193.038 120 192.803 120 192.568 120C192.334 120 192.099 119.985 191.864 119.956C190.486 119.839 189.21 119.501 188.036 118.944C186.863 118.387 185.851 117.683 185 116.832C184.15 115.952 183.49 114.955 183.02 113.84C182.551 112.696 182.316 111.479 182.316 110.188V109.836V109.44C182.346 108.443 182.463 107.548 182.668 106.756C182.903 105.964 183.05 105.451 183.108 105.216C183.402 104.277 183.827 103.368 184.384 102.488C184.971 101.579 185.66 100.772 186.452 100.068C187.274 99.364 188.183 98.792 189.18 98.352C190.207 97.912 191.322 97.692 192.524 97.692C193.111 97.6333 193.786 97.6773 194.548 97.824C195.34 97.9707 196.118 98.2787 196.88 98.748H196.924C197.394 99.012 197.834 99.364 198.244 99.804C198.655 100.215 198.978 100.684 199.212 101.212C199.447 101.711 199.594 102.253 199.652 102.84C199.711 103.397 199.652 103.969 199.476 104.556C199.33 104.996 199.139 105.363 198.904 105.656C198.699 105.949 198.464 106.199 198.2 106.404C197.966 106.609 197.731 106.771 197.496 106.888C197.262 106.976 197.056 107.049 196.88 107.108H196.836L196.44 107.24C195.854 107.328 195.252 107.284 194.636 107.108C194.108 106.932 193.654 106.653 193.272 106.272C192.891 105.861 192.612 105.407 192.436 104.908C192.407 104.732 192.348 104.585 192.26 104.468C192.114 104.204 191.894 104.013 191.6 103.896C191.571 103.867 191.542 103.852 191.512 103.852C191.483 103.852 191.454 103.837 191.424 103.808C191.16 103.749 190.911 103.779 190.676 103.896C190.471 103.984 190.295 104.072 190.148 104.16C189.738 104.512 189.371 104.923 189.048 105.392C188.755 105.832 188.535 106.301 188.388 106.8L188.344 107.02C188.344 107.079 188.33 107.137 188.3 107.196C188.271 107.255 188.242 107.328 188.212 107.416C188.183 107.475 188.154 107.548 188.124 107.636C188.124 107.636 188.095 107.797 188.036 108.12C188.007 108.443 187.992 108.839 187.992 109.308C187.992 109.748 188.036 110.232 188.124 110.76C188.242 111.288 188.447 111.772 188.74 112.212C189.327 113.063 190.09 113.693 191.028 114.104C191.996 114.485 193.214 114.573 194.68 114.368C195.296 114.28 195.971 114.119 196.704 113.884C197.467 113.62 198.2 113.224 198.904 112.696C199.608 112.168 200.254 111.479 200.84 110.628C201.427 109.777 201.896 108.692 202.248 107.372C202.424 106.639 202.835 106.081 203.48 105.7C204.126 105.319 204.83 105.216 205.592 105.392ZM195.472 122.64C195.883 123.315 196.03 124.092 195.912 124.972C195.824 125.881 195.487 126.673 194.9 127.348C194.607 127.759 194.27 128.14 193.888 128.492C193.566 128.815 193.155 129.123 192.656 129.416C192.187 129.709 191.63 129.944 190.984 130.12C190.632 130.179 190.251 130.193 189.84 130.164C189.459 130.164 189.151 130.047 188.916 129.812C188.77 129.665 188.696 129.475 188.696 129.24C188.726 129.005 188.784 128.771 188.872 128.536C188.96 128.272 189.092 128.023 189.268 127.788C189.327 127.671 189.356 127.612 189.356 127.612C189.562 127.319 189.708 127.04 189.796 126.776C189.914 126.541 190.002 126.321 190.06 126.116C190.119 125.881 190.163 125.676 190.192 125.5C190.192 125.5 190.178 125.471 190.148 125.412C190.148 125.236 190.192 124.899 190.28 124.4C190.398 123.931 190.618 123.447 190.94 122.948C191.322 122.361 191.791 121.921 192.348 121.628C192.906 121.335 193.522 121.335 194.196 121.628H194.24H194.284L194.372 121.716C194.666 121.863 194.959 122.068 195.252 122.332C195.311 122.449 195.34 122.493 195.34 122.464C195.37 122.523 195.414 122.581 195.472 122.64ZM231.913 105.436C232.676 105.583 233.233 105.964 233.585 106.58C233.966 107.196 234.098 107.885 233.981 108.648L233.409 112.212C233.145 113.415 232.734 114.5 232.177 115.468C231.62 116.407 230.945 117.213 230.153 117.888C229.39 118.563 228.525 119.091 227.557 119.472C226.589 119.824 225.562 120 224.477 120C223.773 120 223.142 119.941 222.585 119.824C222.35 119.765 222.16 119.721 222.013 119.692C221.984 119.663 221.954 119.648 221.925 119.648C221.426 119.501 220.986 119.311 220.605 119.076C220.224 118.812 219.886 118.548 219.593 118.284L219.461 118.152C219.138 117.829 218.816 117.624 218.493 117.536C218.2 117.448 217.906 117.433 217.613 117.492C217.349 117.521 217.114 117.609 216.909 117.756C216.704 117.873 216.542 117.976 216.425 118.064C216.366 118.093 216.322 118.123 216.293 118.152C216.293 118.181 216.264 118.211 216.205 118.24C215.736 118.621 215.296 118.915 214.885 119.12C214.474 119.296 214.21 119.413 214.093 119.472C213.154 119.824 212.186 120 211.189 120C209.869 120 208.652 119.765 207.537 119.296C206.452 118.797 205.498 118.123 204.677 117.272C203.885 116.392 203.254 115.351 202.785 114.148C202.345 112.945 202.125 111.64 202.125 110.232C202.125 110.056 202.14 109.675 202.169 109.088C202.228 108.472 202.374 107.739 202.609 106.888C202.844 106.037 203.21 105.128 203.709 104.16C204.208 103.163 204.897 102.209 205.777 101.3C206.686 100.42 207.596 99.7307 208.505 99.232C209.444 98.704 210.368 98.3227 211.277 98.088C211.688 98 212.157 97.8973 212.685 97.78C213.125 97.7213 213.653 97.6627 214.269 97.604C214.885 97.516 215.574 97.5013 216.337 97.56C216.836 97.5893 217.408 97.648 218.053 97.736C218.698 97.7947 219.344 97.8973 219.989 98.044C220.664 98.1613 221.324 98.3373 221.969 98.572C222.644 98.7773 223.245 99.056 223.773 99.408C224.008 99.5253 224.228 99.6867 224.433 99.892V99.936C224.932 100.376 225.269 100.933 225.445 101.608C225.65 102.283 225.636 102.972 225.401 103.676C225.225 104.145 224.976 104.556 224.653 104.908C224.36 105.26 224.008 105.539 223.597 105.744C223.186 105.949 222.746 106.081 222.277 106.14C221.837 106.169 221.382 106.111 220.913 105.964C220.326 105.788 219.857 105.495 219.505 105.084H219.461C219.461 105.055 219.446 105.04 219.417 105.04C219.417 105.04 219.417 105.025 219.417 104.996C219.329 104.908 219.138 104.761 218.845 104.556C218.581 104.321 218.229 104.101 217.789 103.896C217.349 103.661 216.821 103.471 216.205 103.324C215.618 103.177 214.944 103.133 214.181 103.192C213.242 103.251 212.421 103.441 211.717 103.764C211.013 104.087 210.338 104.571 209.693 105.216C209.194 105.715 208.798 106.257 208.505 106.844C208.241 107.431 208.036 107.973 207.889 108.472C207.772 108.941 207.698 109.352 207.669 109.704C207.64 110.027 207.625 110.188 207.625 110.188V110.232C207.625 110.672 207.669 111.112 207.757 111.552C207.874 111.992 208.036 112.417 208.241 112.828C208.476 113.209 208.754 113.547 209.077 113.84C209.429 114.104 209.854 114.295 210.353 114.412C211.233 114.588 212.054 114.529 212.817 114.236C213.462 114.001 214.064 113.532 214.621 112.828C215.178 112.095 215.53 110.936 215.677 109.352L215.765 108.912C215.794 108.853 215.809 108.809 215.809 108.78C215.809 108.721 215.824 108.663 215.853 108.604C216 107.841 216.366 107.24 216.953 106.8C217.569 106.36 218.258 106.199 219.021 106.316C219.784 106.463 220.385 106.844 220.825 107.46C221.265 108.047 221.426 108.721 221.309 109.484C221.28 109.631 221.25 109.763 221.221 109.88C221.221 109.968 221.221 110.085 221.221 110.232C221.221 110.467 221.25 110.833 221.309 111.332C221.368 111.801 221.5 112.271 221.705 112.74C221.94 113.209 222.262 113.62 222.673 113.972C223.113 114.324 223.714 114.5 224.477 114.5C225.093 114.5 225.606 114.368 226.017 114.104C226.457 113.84 226.809 113.532 227.073 113.18C227.337 112.828 227.542 112.461 227.689 112.08C227.836 111.669 227.938 111.332 227.997 111.068L228.657 107.592C228.804 106.829 229.185 106.243 229.801 105.832C230.446 105.421 231.15 105.289 231.913 105.436ZM257.286 102.928C258.049 103.133 258.606 103.559 258.958 104.204C259.339 104.849 259.427 105.553 259.222 106.316C258.958 107.284 258.562 108.149 258.034 108.912C257.506 109.645 256.89 110.291 256.186 110.848C255.511 111.405 254.763 111.889 253.942 112.3C253.15 112.681 252.358 112.989 251.566 113.224C251.331 113.283 251.111 113.356 250.906 113.444C250.495 113.591 250.158 113.796 249.894 114.06C249.659 114.295 249.498 114.529 249.41 114.764C249.351 114.969 249.307 115.101 249.278 115.16C248.867 116.832 248.046 118.167 246.814 119.164C245.582 120.161 244.101 120.66 242.37 120.66C240.522 120.66 238.982 120.235 237.75 119.384C236.547 118.504 235.741 117.272 235.33 115.688C235.33 115.6 235.315 115.541 235.286 115.512C235.286 115.424 235.257 115.204 235.198 114.852C235.169 114.5 235.183 114.075 235.242 113.576C235.301 113.048 235.433 112.476 235.638 111.86C235.843 111.215 236.181 110.584 236.65 109.968C237.178 109.323 237.794 108.751 238.498 108.252C238.557 108.252 238.615 108.223 238.674 108.164C238.733 108.105 238.791 108.061 238.85 108.032C238.909 108.003 238.967 107.973 239.026 107.944C239.173 107.827 239.319 107.651 239.466 107.416C239.642 107.152 239.745 106.844 239.774 106.492C239.803 106.111 239.774 105.744 239.686 105.392C239.598 105.04 239.422 104.732 239.158 104.468C238.923 104.204 238.615 104.028 238.234 103.94C238.146 103.911 238.014 103.896 237.838 103.896C237.281 103.896 236.811 104.028 236.43 104.292C236.049 104.527 235.741 104.805 235.506 105.128C235.066 105.832 234.743 106.536 234.538 107.24C234.333 107.915 234.201 108.34 234.142 108.516C234.142 108.575 234.127 108.619 234.098 108.648L233.438 112.212C233.174 113.385 232.763 114.456 232.206 115.424C231.649 116.363 230.974 117.184 230.182 117.888C229.419 118.563 228.554 119.091 227.586 119.472C226.618 119.824 225.591 120 224.506 120C223.743 120 223.098 119.736 222.57 119.208C222.013 118.651 221.734 117.991 221.734 117.228C221.734 116.465 222.013 115.82 222.57 115.292C223.098 114.764 223.743 114.5 224.506 114.5C225.122 114.5 225.65 114.368 226.09 114.104C226.501 113.84 226.838 113.532 227.102 113.18C227.366 112.828 227.571 112.461 227.718 112.08C227.865 111.669 227.967 111.332 228.026 111.068L228.686 107.724V107.592C228.862 106.653 229.185 105.597 229.654 104.424C230.123 103.251 230.769 102.151 231.59 101.124C231.795 100.889 232.074 100.596 232.426 100.244C232.778 99.892 233.218 99.54 233.746 99.188C234.274 98.8067 234.89 98.4547 235.594 98.132C236.298 97.78 237.09 97.5013 237.97 97.296C237.999 97.296 238.029 97.296 238.058 97.296C238.087 97.2667 238.131 97.252 238.19 97.252H238.234C238.703 97.1347 239.143 97.0613 239.554 97.032C239.965 96.9733 240.346 96.944 240.698 96.944H241.006C241.681 96.9147 242.223 96.9293 242.634 96.988C243.074 97.0173 243.338 97.0467 243.426 97.076C244.189 97.2227 244.79 97.604 245.23 98.22C245.67 98.836 245.817 99.5253 245.67 100.288C245.523 100.875 245.289 101.329 244.966 101.652L244.79 101.828C244.643 102.004 244.482 102.268 244.306 102.62C244.159 102.972 244.233 103.397 244.526 103.896C244.79 104.307 245.054 104.703 245.318 105.084C245.582 105.465 245.846 105.817 246.11 106.14C246.257 106.316 246.403 106.492 246.55 106.668C246.697 106.844 246.843 107.035 246.99 107.24C247.019 107.299 247.093 107.387 247.21 107.504C247.357 107.621 247.533 107.739 247.738 107.856C247.973 107.944 248.237 108.017 248.53 108.076C248.823 108.135 249.175 108.12 249.586 108.032C250.026 107.915 250.466 107.768 250.906 107.592C251.375 107.416 251.801 107.211 252.182 106.976C252.593 106.712 252.945 106.404 253.238 106.052C253.561 105.7 253.795 105.304 253.942 104.864C254.147 104.101 254.573 103.544 255.218 103.192C255.863 102.811 256.553 102.723 257.286 102.928ZM244.482 113.62C244.511 113.297 244.482 112.975 244.394 112.652C244.335 112.388 244.218 112.139 244.042 111.904C243.866 111.64 243.602 111.435 243.25 111.288C242.693 111.2 242.238 111.259 241.886 111.464C241.563 111.64 241.285 111.86 241.05 112.124C240.786 112.447 240.581 112.813 240.434 113.224C240.375 113.312 240.346 113.4 240.346 113.488C240.346 113.547 240.346 113.605 240.346 113.664C240.258 114.221 240.419 114.691 240.83 115.072C241.211 115.424 241.681 115.6 242.238 115.6C242.825 115.6 243.338 115.409 243.778 115.028C244.189 114.647 244.423 114.177 244.482 113.62ZM122.514 150.392C123.277 150.539 123.864 150.935 124.274 151.58C124.714 152.196 124.861 152.885 124.714 153.648L124.01 157.212C123.57 159.236 122.602 160.937 121.106 162.316C119.64 163.695 117.924 164.545 115.958 164.868C115.577 164.927 115.064 164.956 114.418 164.956C113.773 164.956 113.157 164.956 112.57 164.956C112.072 164.956 111.676 165.029 111.382 165.176C111.118 165.352 110.913 165.543 110.766 165.748C110.59 165.983 110.458 166.232 110.37 166.496C110.165 167.464 109.916 168.417 109.622 169.356C109.358 170.295 109.021 171.145 108.61 171.908C108.229 172.7 107.745 173.375 107.158 173.932C106.572 174.519 105.868 174.959 105.046 175.252C104.401 175.457 103.726 175.56 103.022 175.56C101.497 175.56 100.192 175.017 99.1063 173.932C98.4023 173.169 97.9329 172.275 97.6983 171.248C97.4636 170.251 97.5076 169.253 97.8303 168.256C97.9183 167.992 98.0796 167.567 98.3143 166.98C98.5783 166.393 98.9889 165.719 99.5463 164.956C99.6343 164.839 99.7223 164.707 99.8103 164.56C99.9863 164.296 100.045 164.003 99.9863 163.68C99.9569 163.533 99.8983 163.401 99.8103 163.284C99.7223 163.167 99.6343 163.064 99.5463 162.976C99.4289 162.888 99.3116 162.815 99.1943 162.756C97.7863 162.052 96.6716 160.996 95.8503 159.588C95.0289 158.18 94.6036 156.537 94.5743 154.66C94.5743 154.455 94.5889 154.029 94.6183 153.384C94.6476 152.739 94.7649 151.991 94.9703 151.14C95.1756 150.289 95.4983 149.38 95.9383 148.412C96.4076 147.444 97.0676 146.535 97.9183 145.684C98.7983 144.804 99.7076 144.115 100.646 143.616C101.585 143.117 102.509 142.751 103.418 142.516C104.328 142.281 105.208 142.164 106.058 142.164C106.938 142.135 107.76 142.149 108.522 142.208C108.874 142.237 109.314 142.311 109.842 142.428C110.4 142.516 110.972 142.648 111.558 142.824C112.174 143 112.776 143.22 113.362 143.484C113.978 143.748 114.536 144.041 115.034 144.364C115.68 144.775 116.076 145.361 116.222 146.124C116.369 146.857 116.222 147.547 115.782 148.192C115.577 148.544 115.298 148.823 114.946 149.028L114.682 149.16C114.448 149.307 114.228 149.512 114.022 149.776C113.817 150.011 113.641 150.451 113.494 151.096L112.306 156.904C112.277 157.051 112.248 157.344 112.218 157.784C112.218 158.195 112.336 158.547 112.57 158.84C112.834 159.104 113.113 159.28 113.406 159.368C113.729 159.456 114.081 159.5 114.462 159.5H114.682C115.621 159.441 116.457 159.089 117.19 158.444C117.924 157.769 118.393 156.963 118.598 156.024L119.302 152.592C119.449 151.829 119.83 151.243 120.446 150.832C121.062 150.392 121.752 150.245 122.514 150.392ZM105.574 167.992C105.809 167.347 105.941 166.76 105.97 166.232C106 165.733 105.838 165.396 105.486 165.22C105.164 165.073 104.768 165.147 104.298 165.44C103.858 165.733 103.448 166.188 103.066 166.804C102.744 167.361 102.553 167.919 102.494 168.476C102.465 169.063 102.7 169.473 103.198 169.708C103.668 169.943 104.122 169.855 104.562 169.444C105.002 169.063 105.34 168.579 105.574 167.992ZM108.038 150.04C108.097 149.835 108.112 149.571 108.082 149.248C108.082 148.896 107.965 148.573 107.73 148.28C107.496 147.987 107.158 147.811 106.718 147.752C106.308 147.693 106.044 147.664 105.926 147.664C105.076 147.723 104.328 147.913 103.682 148.236C103.037 148.529 102.421 148.969 101.834 149.556C101.365 150.055 101.013 150.583 100.778 151.14C100.544 151.697 100.368 152.225 100.25 152.724C100.133 153.281 100.074 153.853 100.074 154.44V154.528V154.616C100.074 154.704 100.074 154.807 100.074 154.924C100.104 155.041 100.118 155.159 100.118 155.276C100.118 155.335 100.133 155.379 100.162 155.408C100.192 156.141 100.456 156.772 100.954 157.3C101.013 157.359 101.042 157.388 101.042 157.388C101.482 157.828 102.01 158.121 102.626 158.268C103.272 158.415 103.888 158.415 104.474 158.268C104.885 158.151 105.222 157.989 105.486 157.784C105.78 157.549 106.029 157.3 106.234 157.036C106.234 157.007 106.249 156.977 106.278 156.948C106.278 156.948 106.293 156.919 106.322 156.86C106.44 156.655 106.542 156.42 106.63 156.156C106.748 155.863 106.836 155.584 106.894 155.32C106.982 155.056 107.056 154.821 107.114 154.616C107.173 154.411 107.202 154.279 107.202 154.22L108.038 150.04ZM144.012 150.436C144.775 150.583 145.362 150.964 145.772 151.58C146.183 152.196 146.315 152.885 146.168 153.648L145.508 157.212C145.244 158.356 144.804 159.412 144.188 160.38C143.602 161.319 142.883 162.14 142.032 162.844C141.182 163.519 140.228 164.047 139.172 164.428C138.146 164.809 137.06 165 135.916 165C134.802 165 133.731 164.824 132.704 164.472C131.707 164.12 130.783 163.621 129.932 162.976C129.111 162.331 128.407 161.568 127.82 160.688C127.234 159.808 126.794 158.855 126.5 157.828C126.412 157.535 126.324 157.315 126.236 157.168C126.178 157.021 126.134 156.933 126.104 156.904C125.958 156.728 125.767 156.611 125.532 156.552H125.312C124.902 156.523 124.594 156.655 124.388 156.948C124.183 157.212 124.051 157.447 123.992 157.652C123.934 157.769 123.89 157.916 123.86 158.092C123.831 158.239 123.787 158.371 123.728 158.488C123.054 160.512 121.954 162.111 120.428 163.284C118.932 164.428 117.187 165 115.192 165C114.43 165 113.784 164.736 113.256 164.208C112.699 163.651 112.42 162.991 112.42 162.228C112.42 161.465 112.699 160.82 113.256 160.292C113.784 159.764 114.43 159.5 115.192 159.5C115.808 159.5 116.336 159.368 116.776 159.104C117.187 158.84 117.524 158.532 117.788 158.18C118.052 157.828 118.258 157.461 118.404 157.08C118.551 156.669 118.654 156.332 118.712 156.068L119.372 152.592C119.402 152.475 119.446 152.269 119.504 151.976C119.592 151.507 119.695 150.979 119.812 150.392C119.959 149.805 120.135 149.204 120.34 148.588C120.575 147.943 120.868 147.297 121.22 146.652C121.572 146.007 122.012 145.376 122.54 144.76C123.186 144.027 123.904 143.484 124.696 143.132C125.488 142.751 126.236 142.487 126.94 142.34C127.674 142.193 128.319 142.12 128.876 142.12C129.463 142.12 129.859 142.135 130.064 142.164C131.12 142.223 132.059 142.413 132.88 142.736C133.702 143.059 134.391 143.469 134.948 143.968C135.535 144.437 136.004 144.98 136.356 145.596C136.708 146.183 136.958 146.769 137.104 147.356C137.368 148.383 137.398 149.395 137.192 150.392C137.016 151.389 136.635 152.313 136.048 153.164C135.96 153.252 135.887 153.355 135.828 153.472C135.77 153.501 135.726 153.531 135.696 153.56C135.696 153.589 135.682 153.619 135.652 153.648L135.608 153.692C135.256 154.073 134.86 154.396 134.42 154.66C134.01 154.924 133.687 155.115 133.452 155.232C133.452 155.261 133.438 155.276 133.408 155.276H133.364C133.364 155.276 133.306 155.305 133.188 155.364C133.071 155.423 132.954 155.511 132.836 155.628C132.719 155.745 132.602 155.892 132.484 156.068C132.455 156.097 132.396 156.229 132.308 156.464C132.25 156.669 132.25 156.919 132.308 157.212C132.367 157.505 132.528 157.828 132.792 158.18C133.056 158.503 133.511 158.811 134.156 159.104C134.274 159.163 134.362 159.192 134.42 159.192C134.831 159.397 135.33 159.5 135.916 159.5C136.884 159.5 137.764 159.177 138.556 158.532C139.348 157.857 139.862 157.036 140.096 156.068L140.8 152.592C140.947 151.829 141.328 151.243 141.944 150.832C142.56 150.421 143.25 150.289 144.012 150.436ZM129.36 151.448C130.182 151.272 130.842 150.949 131.34 150.48C131.868 150.011 132.059 149.424 131.912 148.72C131.766 148.045 131.37 147.605 130.724 147.4C130.108 147.195 129.375 147.165 128.524 147.312C127.527 147.488 126.779 147.84 126.28 148.368C125.782 148.867 125.562 149.439 125.62 150.084C125.65 150.407 125.782 150.685 126.016 150.92C126.28 151.125 126.588 151.287 126.94 151.404C127.292 151.492 127.674 151.551 128.084 151.58C128.524 151.58 128.95 151.536 129.36 151.448ZM170.296 150.436C171.059 150.583 171.616 150.964 171.968 151.58C172.349 152.196 172.481 152.885 172.364 153.648L171.792 157.212C171.528 158.415 171.117 159.5 170.56 160.468C170.003 161.407 169.328 162.213 168.536 162.888C167.773 163.563 166.908 164.091 165.94 164.472C164.972 164.824 163.945 165 162.86 165C162.156 165 161.525 164.941 160.968 164.824C160.733 164.765 160.543 164.721 160.396 164.692C160.367 164.663 160.337 164.648 160.308 164.648C159.809 164.501 159.369 164.311 158.988 164.076C158.607 163.812 158.269 163.548 157.976 163.284L157.844 163.152C157.521 162.829 157.199 162.624 156.876 162.536C156.583 162.448 156.289 162.433 155.996 162.492C155.732 162.521 155.497 162.609 155.292 162.756C155.087 162.873 154.925 162.976 154.808 163.064C154.749 163.093 154.705 163.123 154.676 163.152C154.676 163.181 154.647 163.211 154.588 163.24C154.119 163.621 153.679 163.915 153.268 164.12C152.857 164.296 152.593 164.413 152.476 164.472C151.537 164.824 150.569 165 149.572 165C148.252 165 147.035 164.765 145.92 164.296C144.835 163.797 143.881 163.123 143.06 162.272C142.268 161.392 141.637 160.351 141.168 159.148C140.728 157.945 140.508 156.64 140.508 155.232C140.508 155.056 140.523 154.675 140.552 154.088C140.611 153.472 140.757 152.739 140.992 151.888C141.227 151.037 141.593 150.128 142.092 149.16C142.591 148.163 143.28 147.209 144.16 146.3C145.069 145.42 145.979 144.731 146.888 144.232C147.827 143.704 148.751 143.323 149.66 143.088C150.071 143 150.54 142.897 151.068 142.78C151.508 142.721 152.036 142.663 152.652 142.604C153.268 142.516 153.957 142.501 154.72 142.56C155.219 142.589 155.791 142.648 156.436 142.736C157.081 142.795 157.727 142.897 158.372 143.044C159.047 143.161 159.707 143.337 160.352 143.572C161.027 143.777 161.628 144.056 162.156 144.408C162.391 144.525 162.611 144.687 162.816 144.892V144.936C163.315 145.376 163.652 145.933 163.828 146.608C164.033 147.283 164.019 147.972 163.784 148.676C163.608 149.145 163.359 149.556 163.036 149.908C162.743 150.26 162.391 150.539 161.98 150.744C161.569 150.949 161.129 151.081 160.66 151.14C160.22 151.169 159.765 151.111 159.296 150.964C158.709 150.788 158.24 150.495 157.888 150.084H157.844C157.844 150.055 157.829 150.04 157.8 150.04C157.8 150.04 157.8 150.025 157.8 149.996C157.712 149.908 157.521 149.761 157.228 149.556C156.964 149.321 156.612 149.101 156.172 148.896C155.732 148.661 155.204 148.471 154.588 148.324C154.001 148.177 153.327 148.133 152.564 148.192C151.625 148.251 150.804 148.441 150.1 148.764C149.396 149.087 148.721 149.571 148.076 150.216C147.577 150.715 147.181 151.257 146.888 151.844C146.624 152.431 146.419 152.973 146.272 153.472C146.155 153.941 146.081 154.352 146.052 154.704C146.023 155.027 146.008 155.188 146.008 155.188V155.232C146.008 155.672 146.052 156.112 146.14 156.552C146.257 156.992 146.419 157.417 146.624 157.828C146.859 158.209 147.137 158.547 147.46 158.84C147.812 159.104 148.237 159.295 148.736 159.412C149.616 159.588 150.437 159.529 151.2 159.236C151.845 159.001 152.447 158.532 153.004 157.828C153.561 157.095 153.913 155.936 154.06 154.352L154.148 153.912C154.177 153.853 154.192 153.809 154.192 153.78C154.192 153.721 154.207 153.663 154.236 153.604C154.383 152.841 154.749 152.24 155.336 151.8C155.952 151.36 156.641 151.199 157.404 151.316C158.167 151.463 158.768 151.844 159.208 152.46C159.648 153.047 159.809 153.721 159.692 154.484C159.663 154.631 159.633 154.763 159.604 154.88C159.604 154.968 159.604 155.085 159.604 155.232C159.604 155.467 159.633 155.833 159.692 156.332C159.751 156.801 159.883 157.271 160.088 157.74C160.323 158.209 160.645 158.62 161.056 158.972C161.496 159.324 162.097 159.5 162.86 159.5C163.476 159.5 163.989 159.368 164.4 159.104C164.84 158.84 165.192 158.532 165.456 158.18C165.72 157.828 165.925 157.461 166.072 157.08C166.219 156.669 166.321 156.332 166.38 156.068L167.04 152.592C167.187 151.829 167.568 151.243 168.184 150.832C168.829 150.421 169.533 150.289 170.296 150.436ZM152.344 140.404C151.904 140.111 151.596 139.729 151.42 139.26C151.273 138.761 151.259 138.277 151.376 137.808C151.523 137.339 151.757 136.987 152.08 136.752C152.432 136.517 152.799 136.356 153.18 136.268C153.855 136.121 154.397 135.769 154.808 135.212C155.219 134.625 155.585 134.039 155.908 133.452C155.967 133.276 156.04 133.173 156.128 133.144C156.216 133.115 156.289 133.027 156.348 132.88C156.495 132.675 156.7 132.513 156.964 132.396C157.228 132.249 157.507 132.161 157.8 132.132C158.123 132.073 158.431 132.073 158.724 132.132C159.017 132.161 159.267 132.235 159.472 132.352C159.853 132.557 160.132 132.792 160.308 133.056C160.513 133.291 160.645 133.525 160.704 133.76C160.792 133.995 160.821 134.229 160.792 134.464C160.792 134.699 160.777 134.889 160.748 135.036C160.66 136.033 160.352 136.943 159.824 137.764C159.296 138.556 158.607 139.245 157.756 139.832C156.817 140.272 155.879 140.536 154.94 140.624C154.001 140.683 153.136 140.609 152.344 140.404ZM188.892 140.844C187.836 140.492 187.058 139.817 186.56 138.82C186.09 137.823 186.032 136.796 186.384 135.74C186.736 134.684 187.396 133.907 188.364 133.408C189.361 132.88 190.388 132.792 191.444 133.144C191.972 133.32 192.426 133.584 192.808 133.936C193.189 134.288 193.497 134.699 193.732 135.168C193.966 135.637 194.098 136.136 194.128 136.664C194.186 137.192 194.128 137.72 193.952 138.248C193.6 139.304 192.925 140.096 191.928 140.624C190.96 141.123 189.948 141.196 188.892 140.844ZM199.1 150.392C199.862 150.539 200.449 150.935 200.86 151.58C201.27 152.196 201.402 152.885 201.256 153.648L200.552 157.212C200.288 158.385 199.877 159.456 199.32 160.424C198.792 161.363 198.132 162.184 197.34 162.888C196.577 163.563 195.697 164.091 194.7 164.472C193.732 164.824 192.705 165 191.62 165C189.097 165 187.058 164.179 185.504 162.536C185.269 162.301 185.064 162.052 184.888 161.788C183.861 162.756 182.658 163.533 181.28 164.12C179.93 164.707 178.508 165 177.012 165C175.428 165 173.961 164.736 172.612 164.208C171.262 163.68 170.104 162.903 169.136 161.876C168.256 160.967 167.581 159.94 167.112 158.796C166.672 157.623 166.481 156.391 166.54 155.1C166.569 154.865 166.584 154.631 166.584 154.396C166.584 154.132 166.613 153.853 166.672 153.56H166.716V153.472L166.804 152.9C166.833 152.812 166.848 152.709 166.848 152.592L167.508 149.336C167.566 149.072 167.552 148.867 167.464 148.72C167.405 148.544 167.317 148.412 167.2 148.324C167.082 148.207 166.936 148.133 166.76 148.104C166.144 147.957 165.63 147.649 165.22 147.18C164.809 146.681 164.604 146.095 164.604 145.42C164.604 144.657 164.882 144.012 165.44 143.484C165.968 142.927 166.613 142.648 167.376 142.648H167.508C167.625 142.648 167.757 142.633 167.904 142.604C168.05 142.575 168.197 142.516 168.344 142.428C168.52 142.311 168.666 142.135 168.784 141.9C168.93 141.665 169.048 141.328 169.136 140.888L169.356 139.788C169.444 139.289 169.502 138.805 169.532 138.336C169.59 137.867 169.634 137.427 169.664 137.016C169.693 136.547 169.708 136.107 169.708 135.696C169.708 135.52 169.722 135.344 169.752 135.168C169.781 134.992 169.825 134.816 169.884 134.64C170.265 133.672 170.881 132.983 171.732 132.572C171.761 132.543 171.79 132.528 171.82 132.528L171.864 132.484C171.893 132.484 171.908 132.484 171.908 132.484C171.937 132.455 171.966 132.44 171.996 132.44C172.436 132.235 172.905 132.132 173.404 132.132C173.902 132.132 174.372 132.22 174.812 132.396C175.281 132.572 175.677 132.836 176 133.188C176.352 133.511 176.586 133.921 176.704 134.42C176.792 134.919 176.806 135.359 176.748 135.74C176.718 136.121 176.66 136.459 176.572 136.752C176.484 137.045 176.381 137.28 176.264 137.456C176.176 137.603 176.132 137.676 176.132 137.676C176.073 137.735 176.029 137.779 176 137.808C176 137.837 175.97 137.881 175.912 137.94H175.956C175.897 137.999 175.868 138.028 175.868 138.028L175.824 138.072C175.501 138.483 175.266 138.908 175.12 139.348L175.032 139.524V139.612C174.973 139.817 174.9 140.081 174.812 140.404C174.753 140.727 174.709 141.049 174.68 141.372V141.416C174.68 141.651 174.753 141.915 174.9 142.208C175.046 142.501 175.398 142.648 175.956 142.648H176.088C176.146 142.648 176.278 142.648 176.484 142.648C176.718 142.648 176.953 142.619 177.188 142.56C177.217 142.56 177.232 142.56 177.232 142.56C177.232 142.531 177.246 142.516 177.276 142.516H177.408C177.613 142.487 177.818 142.487 178.024 142.516C178.229 142.516 178.449 142.56 178.684 142.648C179.446 142.883 180.004 143.367 180.356 144.1C180.708 144.833 180.752 145.581 180.488 146.344C180.253 147.019 179.842 147.547 179.256 147.928C178.669 148.28 178.038 148.412 177.364 148.324C177.041 148.265 176.748 148.236 176.484 148.236C176.22 148.207 176.073 148.192 176.044 148.192C175.34 148.221 174.738 148.368 174.24 148.632C173.829 148.867 173.521 149.189 173.316 149.6C173.11 149.981 172.964 150.333 172.876 150.656V150.744L172.788 151.228L172.128 154.528C172.098 154.645 172.084 154.763 172.084 154.88C172.084 154.997 172.084 155.129 172.084 155.276C172.025 156.361 172.362 157.285 173.096 158.048C174.064 159.016 175.369 159.5 177.012 159.5C177.745 159.5 178.434 159.368 179.08 159.104C179.725 158.84 180.297 158.503 180.796 158.092C181.294 157.652 181.705 157.168 182.028 156.64C182.38 156.112 182.614 155.599 182.732 155.1L183.392 151.844C183.509 150.553 183.641 149.453 183.788 148.544C183.934 147.605 184.052 146.887 184.14 146.388C184.286 145.86 184.521 145.259 184.844 144.584C185.166 143.88 185.636 143.367 186.252 143.044C186.369 142.985 186.472 142.941 186.56 142.912C187.352 142.589 188.144 142.56 188.936 142.824C189.464 143 189.904 143.279 190.256 143.66C190.637 144.012 190.916 144.437 191.092 144.936C191.209 145.288 191.253 145.655 191.224 146.036C191.224 146.417 191.165 146.784 191.048 147.136C190.96 147.488 190.857 147.811 190.74 148.104C190.622 148.397 190.52 148.617 190.432 148.764C190.373 148.823 190.344 148.881 190.344 148.94C190.168 149.263 189.962 149.688 189.728 150.216C189.522 150.744 189.332 151.389 189.156 152.152L188.848 153.824C188.818 153.971 188.789 154.103 188.76 154.22C188.76 154.337 188.73 154.44 188.672 154.528C188.672 154.616 188.672 154.719 188.672 154.836C188.672 154.924 188.657 155.041 188.628 155.188V155.32C188.54 156.875 188.833 158.019 189.508 158.752C190.006 159.251 190.71 159.5 191.62 159.5C192.236 159.5 192.749 159.368 193.16 159.104C193.6 158.84 193.952 158.532 194.216 158.18C194.509 157.799 194.729 157.417 194.876 157.036C195.022 156.625 195.125 156.288 195.184 156.024L195.844 152.592C195.99 151.829 196.372 151.243 196.988 150.832C197.633 150.392 198.337 150.245 199.1 150.392ZM224.501 147.928C225.263 148.133 225.821 148.559 226.173 149.204C226.554 149.849 226.642 150.553 226.437 151.316C226.173 152.284 225.777 153.149 225.249 153.912C224.721 154.645 224.105 155.291 223.401 155.848C222.726 156.405 221.978 156.889 221.157 157.3C220.365 157.681 219.573 157.989 218.781 158.224C218.546 158.283 218.326 158.356 218.121 158.444C217.71 158.591 217.373 158.796 217.109 159.06C216.874 159.295 216.713 159.529 216.625 159.764C216.566 159.969 216.522 160.101 216.493 160.16C216.082 161.832 215.261 163.167 214.029 164.164C212.797 165.161 211.315 165.66 209.585 165.66C207.737 165.66 206.197 165.235 204.965 164.384C203.762 163.504 202.955 162.272 202.545 160.688C202.545 160.6 202.53 160.541 202.501 160.512C202.501 160.424 202.471 160.204 202.413 159.852C202.383 159.5 202.398 159.075 202.457 158.576C202.515 158.048 202.647 157.476 202.853 156.86C203.058 156.215 203.395 155.584 203.865 154.968C204.393 154.323 205.009 153.751 205.713 153.252C205.771 153.252 205.83 153.223 205.889 153.164C205.947 153.105 206.006 153.061 206.065 153.032C206.123 153.003 206.182 152.973 206.241 152.944C206.387 152.827 206.534 152.651 206.681 152.416C206.857 152.152 206.959 151.844 206.989 151.492C207.018 151.111 206.989 150.744 206.901 150.392C206.813 150.04 206.637 149.732 206.373 149.468C206.138 149.204 205.83 149.028 205.449 148.94C205.361 148.911 205.229 148.896 205.053 148.896C204.495 148.896 204.026 149.028 203.645 149.292C203.263 149.527 202.955 149.805 202.721 150.128C202.281 150.832 201.958 151.536 201.753 152.24C201.547 152.915 201.415 153.34 201.357 153.516C201.357 153.575 201.342 153.619 201.313 153.648L200.653 157.212C200.389 158.385 199.978 159.456 199.421 160.424C198.863 161.363 198.189 162.184 197.397 162.888C196.634 163.563 195.769 164.091 194.801 164.472C193.833 164.824 192.806 165 191.721 165C190.958 165 190.313 164.736 189.785 164.208C189.227 163.651 188.949 162.991 188.949 162.228C188.949 161.465 189.227 160.82 189.785 160.292C190.313 159.764 190.958 159.5 191.721 159.5C192.337 159.5 192.865 159.368 193.305 159.104C193.715 158.84 194.053 158.532 194.317 158.18C194.581 157.828 194.786 157.461 194.933 157.08C195.079 156.669 195.182 156.332 195.241 156.068L195.901 152.724V152.592C196.077 151.653 196.399 150.597 196.869 149.424C197.338 148.251 197.983 147.151 198.805 146.124C199.01 145.889 199.289 145.596 199.641 145.244C199.993 144.892 200.433 144.54 200.961 144.188C201.489 143.807 202.105 143.455 202.809 143.132C203.513 142.78 204.305 142.501 205.185 142.296C205.214 142.296 205.243 142.296 205.273 142.296C205.302 142.267 205.346 142.252 205.405 142.252H205.449C205.918 142.135 206.358 142.061 206.769 142.032C207.179 141.973 207.561 141.944 207.913 141.944H208.221C208.895 141.915 209.438 141.929 209.849 141.988C210.289 142.017 210.553 142.047 210.641 142.076C211.403 142.223 212.005 142.604 212.445 143.22C212.885 143.836 213.031 144.525 212.885 145.288C212.738 145.875 212.503 146.329 212.181 146.652L212.005 146.828C211.858 147.004 211.697 147.268 211.521 147.62C211.374 147.972 211.447 148.397 211.741 148.896C212.005 149.307 212.269 149.703 212.533 150.084C212.797 150.465 213.061 150.817 213.325 151.14C213.471 151.316 213.618 151.492 213.765 151.668C213.911 151.844 214.058 152.035 214.205 152.24C214.234 152.299 214.307 152.387 214.425 152.504C214.571 152.621 214.747 152.739 214.953 152.856C215.187 152.944 215.451 153.017 215.745 153.076C216.038 153.135 216.39 153.12 216.801 153.032C217.241 152.915 217.681 152.768 218.121 152.592C218.59 152.416 219.015 152.211 219.397 151.976C219.807 151.712 220.159 151.404 220.453 151.052C220.775 150.7 221.01 150.304 221.157 149.864C221.362 149.101 221.787 148.544 222.433 148.192C223.078 147.811 223.767 147.723 224.501 147.928ZM211.697 158.62C211.726 158.297 211.697 157.975 211.609 157.652C211.55 157.388 211.433 157.139 211.257 156.904C211.081 156.64 210.817 156.435 210.465 156.288C209.907 156.2 209.453 156.259 209.101 156.464C208.778 156.64 208.499 156.86 208.265 157.124C208.001 157.447 207.795 157.813 207.649 158.224C207.59 158.312 207.561 158.4 207.561 158.488C207.561 158.547 207.561 158.605 207.561 158.664C207.473 159.221 207.634 159.691 208.045 160.072C208.426 160.424 208.895 160.6 209.453 160.6C210.039 160.6 210.553 160.409 210.993 160.028C211.403 159.647 211.638 159.177 211.697 158.62ZM235.708 137.808C236.383 137.955 236.925 138.219 237.336 138.6C237.776 138.952 237.996 139.363 237.996 139.832C237.996 140.184 237.864 140.507 237.6 140.8C237.336 141.093 236.969 141.343 236.5 141.548L236.456 141.592C236.368 141.621 236.28 141.651 236.192 141.68C236.104 141.709 236.016 141.739 235.928 141.768C235.781 141.827 235.605 141.871 235.4 141.9C235.224 141.9 235.048 141.915 234.872 141.944C234.637 141.973 234.344 141.988 233.992 141.988C233.669 141.959 233.376 141.871 233.112 141.724C232.848 141.577 232.672 141.621 232.584 141.856C232.437 142.061 232.481 142.223 232.716 142.34C232.863 142.487 232.995 142.633 233.112 142.78C233.229 142.927 233.332 143.103 233.42 143.308C233.537 143.484 233.655 143.689 233.772 143.924C233.801 143.953 233.816 143.983 233.816 144.012C233.816 144.041 233.831 144.071 233.86 144.1C233.86 144.159 233.86 144.203 233.86 144.232C233.889 144.232 233.904 144.247 233.904 144.276C234.197 145.039 234.3 145.743 234.212 146.388C234.124 147.004 233.86 147.429 233.42 147.664C232.951 147.928 232.393 147.899 231.748 147.576C231.103 147.253 230.531 146.74 230.032 146.036C229.915 145.86 229.783 145.625 229.636 145.332C229.489 145.039 229.401 144.745 229.372 144.452C229.372 144.188 229.255 144.056 229.02 144.056C228.756 144.056 228.624 144.188 228.624 144.452C228.595 144.628 228.536 144.804 228.448 144.98C228.389 145.127 228.316 145.303 228.228 145.508C228.14 145.713 228.023 145.919 227.876 146.124C227.377 146.799 226.82 147.297 226.204 147.62C225.588 147.913 225.045 147.928 224.576 147.664C224.107 147.4 223.843 146.916 223.784 146.212C223.725 145.508 223.872 144.745 224.224 143.924L224.488 143.396C224.664 143.103 224.825 142.853 224.972 142.648C225.06 142.531 225.148 142.428 225.236 142.34C225.441 142.193 225.471 142.017 225.324 141.812C225.207 141.577 225.031 141.548 224.796 141.724C224.561 141.841 224.312 141.915 224.048 141.944C223.813 141.973 223.579 141.988 223.344 141.988C223.285 141.988 223.241 141.988 223.212 141.988C223.183 141.959 223.153 141.944 223.124 141.944H223.08C222.2 141.856 221.467 141.621 220.88 141.24C220.293 140.829 220 140.36 220 139.832C220 139.451 220.132 139.113 220.396 138.82C220.689 138.497 221.071 138.233 221.54 138.028C221.892 137.911 222.215 137.837 222.508 137.808C222.831 137.749 223.109 137.691 223.344 137.632C223.403 137.632 223.476 137.632 223.564 137.632C223.681 137.632 223.813 137.617 223.96 137.588C224.077 137.588 224.18 137.603 224.268 137.632C224.385 137.632 224.473 137.632 224.532 137.632H224.752C224.957 137.749 225.133 137.705 225.28 137.5C225.397 137.265 225.353 137.089 225.148 136.972C224.825 136.708 224.561 136.341 224.356 135.872C224.268 135.667 224.18 135.476 224.092 135.3C224.033 135.095 223.975 134.904 223.916 134.728C223.857 134.493 223.828 134.317 223.828 134.2C223.799 134.171 223.784 134.141 223.784 134.112C223.725 133.613 223.755 133.173 223.872 132.792C224.019 132.411 224.253 132.132 224.576 131.956C224.987 131.721 225.456 131.721 225.984 131.956C226.541 132.161 227.069 132.543 227.568 133.1C227.568 133.1 227.583 133.129 227.612 133.188L227.876 133.452C228.023 133.687 228.14 133.907 228.228 134.112C228.316 134.317 228.389 134.493 228.448 134.64C228.536 134.816 228.595 134.992 228.624 135.168C228.624 135.432 228.756 135.564 229.02 135.564C229.255 135.564 229.372 135.432 229.372 135.168C229.401 134.933 229.46 134.699 229.548 134.464C229.665 134.229 229.783 134.024 229.9 133.848C230.017 133.613 230.179 133.393 230.384 133.188C230.384 133.159 230.399 133.129 230.428 133.1C230.927 132.543 231.44 132.161 231.968 131.956C232.525 131.721 233.009 131.721 233.42 131.956C233.743 132.132 233.963 132.411 234.08 132.792C234.227 133.173 234.271 133.613 234.212 134.112V134.2C234.183 134.288 234.168 134.376 234.168 134.464C234.168 134.552 234.153 134.64 234.124 134.728C234.007 135.051 233.889 135.359 233.772 135.652C233.684 135.828 233.537 136.077 233.332 136.4C233.156 136.693 232.921 136.928 232.628 137.104C232.423 137.251 232.379 137.427 232.496 137.632C232.613 137.867 232.775 137.911 232.98 137.764C233.215 137.735 233.479 137.705 233.772 137.676C234.007 137.647 234.285 137.647 234.608 137.676C234.931 137.676 235.297 137.72 235.708 137.808Z" fill="white"/>
<path d="M12.5799 155.041C12.0832 154.828 11.5746 154.651 11.1724 154.509C10.8412 154.272 10.4627 154.083 10.0842 153.905C9.91865 153.823 9.76489 153.752 9.62295 153.681C7.05628 152.261 3.68532 153.089 1.94661 155.585C0.231554 158.057 0.633705 161.582 2.8337 163.439C4.2294 164.622 6.06274 165.438 8.09715 165.804C8.28639 165.852 8.47564 165.875 8.65306 165.887L9.38639 165.958C9.38639 165.958 9.41005 165.958 9.42188 165.958C9.4337 165.958 9.44553 165.958 9.45736 165.958L9.74123 166.005C10.0014 166.053 10.2617 166.112 10.5219 166.183L10.6993 166.23L10.8767 165.662V166.277C10.995 166.325 11.1488 166.408 11.3735 166.384C11.9057 166.514 12.438 166.585 12.9466 166.585C14.709 166.585 16.2348 165.793 17.2402 164.338C18.7778 162.126 18.4466 159.11 16.4713 157.312C15.2767 156.224 13.9993 155.632 12.5681 155.029L12.5799 155.041ZM11.1961 164.29C11.1961 164.29 11.0896 164.267 11.0305 164.267C10.995 164.267 10.9713 164.267 10.9359 164.267C10.6638 164.196 10.3918 164.137 10.0724 164.077L8.83048 163.924C8.73585 163.924 8.6294 163.9 8.4993 163.876C6.76059 163.569 5.24661 162.895 4.11112 161.937C2.65629 160.707 2.41973 158.353 3.56704 156.697C4.71435 155.053 7.00897 154.473 8.67671 155.396C8.84231 155.49 9.03155 155.585 9.23263 155.68C9.54016 155.833 9.89499 155.999 10.1552 156.2L10.3681 156.318C10.8531 156.484 11.338 156.661 11.8111 156.862C13.0649 157.395 14.1885 157.903 15.1584 158.79C16.4122 159.926 16.6133 161.854 15.6434 163.25C14.6735 164.645 13.0885 165.024 11.1842 164.302L11.1961 164.29Z" fill="#F85600"/>
<path d="M35.4316 136.885C34.71 135.962 33.9176 135.087 33.0778 134.188C32.9832 134.094 32.8531 133.952 32.7703 133.857C32.581 133.573 32.4272 133.36 32.2735 133.218C31.4455 131.728 30.2272 130.628 28.8434 130.131C27.4713 129.634 25.981 129.729 24.5498 130.403C23.1186 131.077 22.0896 132.166 21.6047 133.526C21.0488 135.099 21.2025 136.944 22.0541 138.718C22.8229 140.351 24.1359 141.912 26.0638 143.497L26.3713 143.745C26.5724 143.899 26.7617 144.065 26.9627 144.23C27.2703 144.502 27.495 144.691 27.6606 144.81C27.7789 144.94 27.8971 145.058 28.0154 145.188C28.4176 145.638 28.8316 146.087 29.2692 146.395C30.109 147.175 31.2799 147.625 32.51 147.625C32.995 147.625 33.4563 147.554 33.9057 147.424C35.4197 146.986 36.5434 145.874 37.0165 144.384C37.0283 144.36 37.0402 144.325 37.052 144.289L37.0875 144.136C37.324 143.39 37.5014 142.148 37.5014 142.03C37.4778 141.309 37.3358 140.445 37.1229 139.783C36.7681 138.647 36.0348 137.63 35.4434 136.873L35.4316 136.885ZM28.8197 143.248C28.7133 143.166 28.3111 142.823 28.2638 142.763C28.2638 142.763 28.2638 142.763 28.252 142.752C28.0627 142.586 27.8735 142.432 27.6133 142.219L27.3176 141.971C25.6262 140.587 24.4789 139.239 23.8402 137.879C23.2133 136.566 23.0832 135.253 23.4735 134.176C23.7928 133.301 24.4434 132.615 25.4133 132.166C26.3832 131.716 27.3176 131.645 28.2047 131.965C29.281 132.355 30.2036 133.289 30.8186 134.602C30.866 134.72 30.9842 134.791 31.1025 134.851C31.1617 134.933 31.2208 135.016 31.2681 135.087C31.2799 135.099 31.3509 135.182 31.3627 135.194C31.4337 135.265 31.6111 135.454 31.7531 135.608C32.4746 136.388 33.2316 137.216 33.9176 138.091C34.4143 138.718 35.0057 139.534 35.266 140.374C35.4315 140.883 35.538 141.545 35.5498 142.054C35.5498 142.219 35.3488 143.047 35.195 143.651C34.9584 144.585 34.2842 145.271 33.3735 145.543C32.3918 145.827 31.2918 145.59 30.5229 144.881C30.1563 144.62 29.8251 144.254 29.4821 143.875C29.3283 143.698 29.1746 143.532 29.009 143.355C28.9617 143.308 28.9143 143.272 28.8552 143.237L28.8197 143.248Z" fill="#F85600"/>
<path d="M62.3165 166.739C62.009 164.823 60.6488 162.717 58.2832 162.327C57.2541 162.161 56.2251 161.877 55.1606 161.594C53.3273 161.097 51.423 160.576 49.2939 160.647C47.567 160.706 45.9584 161.523 44.8703 162.859C43.7584 164.219 43.2971 165.994 43.5928 167.72C43.8885 169.436 44.8584 170.879 46.3133 171.801C47.5079 172.546 48.9509 172.866 50.3939 172.676C50.524 172.676 50.666 172.676 50.8316 172.641C50.9262 172.617 51.0681 172.594 51.1627 172.57C51.7068 172.7 52.2509 172.771 52.7832 172.854L53.1025 172.901C53.8713 173.008 54.5692 173.067 55.2316 173.067C56.9348 173.067 58.4251 172.7 59.9273 171.919C61.7488 170.973 62.6477 168.998 62.2928 166.762L62.3165 166.739ZM53.41 170.938L53.0789 170.89C52.5703 170.819 52.038 170.748 51.5057 170.607C51.4821 170.607 51.3756 170.583 51.352 170.583C51.3402 170.583 51.3047 170.583 51.281 170.583C51.2219 170.583 51.1746 170.583 51.1391 170.583C51.0326 170.547 50.9143 170.547 50.7961 170.583C49.6369 170.926 48.395 170.748 47.3896 170.122C46.4079 169.507 45.7574 168.525 45.5563 167.366C45.3552 166.207 45.6746 165.012 46.4197 164.077C47.1531 163.167 48.2412 162.623 49.3885 162.587C51.1746 162.528 52.8778 162.977 54.6993 163.474C55.752 163.758 56.8402 164.054 57.9756 164.243C59.3713 164.468 60.1993 165.804 60.3885 167.034C60.566 168.111 60.3057 169.495 59.052 170.145C57.3606 171.02 55.6692 171.257 53.41 170.926V170.938Z" fill="#F85600"/>
<path d="M319.059 147.843C319.555 148.056 320.064 148.233 320.466 148.375C320.797 148.612 321.176 148.801 321.554 148.978C321.72 149.061 321.874 149.132 322.016 149.203C324.582 150.622 327.953 149.794 329.692 147.299C331.407 144.827 331.005 141.302 328.805 139.445C327.409 138.262 325.576 137.446 323.541 137.079C323.352 137.032 323.163 137.008 322.986 136.997L322.252 136.926C322.252 136.926 322.229 136.926 322.217 136.926C322.205 136.926 322.193 136.926 322.181 136.926L321.897 136.878C321.637 136.831 321.377 136.772 321.117 136.701L320.939 136.654L320.762 137.221L320.762 136.606C320.644 136.559 320.49 136.476 320.265 136.5C319.733 136.37 319.201 136.299 318.692 136.299C316.93 136.299 315.404 137.091 314.398 138.546C312.861 140.758 313.192 143.774 315.167 145.572C316.362 146.66 317.639 147.251 319.07 147.855L319.059 147.843ZM320.443 138.593C320.443 138.593 320.549 138.617 320.608 138.617C320.644 138.617 320.667 138.617 320.703 138.617C320.975 138.688 321.247 138.747 321.566 138.806L322.808 138.96C322.903 138.96 323.009 138.984 323.139 139.007C324.878 139.315 326.392 139.989 327.527 140.947C328.982 142.177 329.219 144.531 328.072 146.187C326.924 147.831 324.63 148.411 322.962 147.488C322.796 147.393 322.607 147.299 322.406 147.204C322.098 147.05 321.744 146.885 321.483 146.684L321.27 146.565C320.786 146.4 320.301 146.222 319.827 146.021C318.574 145.489 317.45 144.981 316.48 144.093C315.226 142.958 315.025 141.03 315.995 139.634C316.965 138.239 318.55 137.86 320.454 138.582L320.443 138.593Z" fill="#F85600"/>
<path d="M296.207 165.999C296.929 166.921 297.721 167.797 298.561 168.696C298.655 168.79 298.786 168.932 298.868 169.027C299.058 169.311 299.211 169.524 299.365 169.665C300.193 171.156 301.411 172.256 302.795 172.753C304.167 173.249 305.658 173.155 307.089 172.481C308.52 171.806 309.549 170.718 310.034 169.358C310.59 167.785 310.436 165.94 309.584 164.165C308.816 162.533 307.503 160.972 305.575 159.387L305.267 159.139C305.066 158.985 304.877 158.819 304.676 158.654C304.368 158.382 304.144 158.192 303.978 158.074C303.86 157.944 303.741 157.826 303.623 157.696C303.221 157.246 302.807 156.797 302.369 156.489C301.53 155.708 300.359 155.259 299.129 155.259C298.644 155.259 298.182 155.33 297.733 155.46C296.219 155.898 295.095 157.01 294.622 158.5C294.61 158.524 294.598 158.559 294.587 158.594L294.551 158.748C294.315 159.493 294.137 160.735 294.137 160.854C294.161 161.575 294.303 162.439 294.516 163.101C294.871 164.236 295.604 165.254 296.195 166.011L296.207 165.999ZM302.819 159.635C302.925 159.718 303.327 160.061 303.375 160.12C303.375 160.12 303.375 160.12 303.387 160.132C303.576 160.298 303.765 160.451 304.025 160.664L304.321 160.913C306.012 162.297 307.16 163.645 307.798 165.005C308.425 166.318 308.555 167.631 308.165 168.707C307.846 169.583 307.195 170.269 306.225 170.718C305.255 171.168 304.321 171.239 303.434 170.919C302.358 170.529 301.435 169.594 300.82 168.282C300.773 168.163 300.654 168.092 300.536 168.033C300.477 167.95 300.418 167.868 300.371 167.797C300.359 167.785 300.288 167.702 300.276 167.69C300.205 167.619 300.027 167.43 299.886 167.276C299.164 166.496 298.407 165.668 297.721 164.792C297.224 164.165 296.633 163.349 296.373 162.51C296.207 162.001 296.101 161.339 296.089 160.83C296.089 160.664 296.29 159.836 296.444 159.233C296.68 158.299 297.354 157.613 298.265 157.341C299.247 157.057 300.347 157.293 301.116 158.003C301.482 158.263 301.814 158.63 302.157 159.008C302.31 159.186 302.464 159.351 302.63 159.529C302.677 159.576 302.724 159.612 302.783 159.647L302.819 159.635Z" fill="#F85600"/>
<path d="M269.322 136.145C269.63 138.061 270.99 140.167 273.355 140.557C274.384 140.722 275.414 141.006 276.478 141.29C278.311 141.787 280.216 142.307 282.345 142.236C284.072 142.177 285.68 141.361 286.768 140.025C287.88 138.664 288.341 136.89 288.046 135.163C287.75 133.448 286.78 132.005 285.325 131.083C284.131 130.338 282.688 130.018 281.245 130.207C281.115 130.207 280.973 130.207 280.807 130.243C280.712 130.267 280.57 130.29 280.476 130.314C279.932 130.184 279.388 130.113 278.855 130.03L278.536 129.983C277.767 129.876 277.069 129.817 276.407 129.817C274.704 129.817 273.214 130.184 271.711 130.964C269.89 131.911 268.991 133.886 269.346 136.121L269.322 136.145ZM278.229 131.946L278.56 131.993C279.068 132.064 279.601 132.135 280.133 132.277C280.157 132.277 280.263 132.301 280.287 132.301C280.298 132.301 280.334 132.301 280.358 132.301C280.417 132.301 280.464 132.301 280.5 132.301C280.606 132.336 280.724 132.336 280.843 132.301C282.002 131.958 283.244 132.135 284.249 132.762C285.231 133.377 285.881 134.359 286.082 135.518C286.283 136.677 285.964 137.872 285.219 138.806C284.486 139.717 283.397 140.261 282.25 140.297C280.464 140.356 278.761 139.906 276.939 139.41C275.887 139.126 274.798 138.83 273.663 138.641C272.267 138.416 271.439 137.079 271.25 135.849C271.073 134.773 271.333 133.389 272.587 132.739C274.278 131.863 275.969 131.627 278.229 131.958L278.229 131.946Z" fill="#F85600"/>
<path d="M231.538 59.0273C224.785 59.0273 221.224 62.1381 218.362 64.6338C215.795 66.8693 213.938 68.4897 209.846 68.4897C205.753 68.4897 203.896 66.8693 201.33 64.6338C198.467 62.1381 194.907 59.0273 188.153 59.0273C181.4 59.0273 177.839 62.1381 174.977 64.6338C172.41 66.8693 170.553 68.4897 166.473 68.4897C162.392 68.4897 160.535 66.8693 157.968 64.6338C155.106 62.1381 151.546 59.0273 144.792 59.0273C138.038 59.0273 134.478 62.1381 131.616 64.6338C129.049 66.8693 127.204 68.4897 123.111 68.4897C119.019 68.4897 117.174 66.8693 114.607 64.6338C111.745 62.1381 108.185 59.0273 101.431 59.0273C99.4673 59.0273 97.8824 60.6123 97.8824 62.5757C97.8824 64.5392 99.4673 66.1241 101.431 66.1241C105.523 66.1241 107.368 67.7445 109.935 69.98C112.797 72.4757 116.358 75.5865 123.111 75.5865C129.865 75.5865 133.425 72.4757 136.288 69.98C138.854 67.7445 140.7 66.1241 144.792 66.1241C148.885 66.1241 150.742 67.7445 153.296 69.98C156.159 72.4757 159.719 75.5865 166.473 75.5865C173.226 75.5865 176.787 72.4757 179.649 69.98C182.216 67.7445 184.073 66.1241 188.153 66.1241C192.234 66.1241 194.103 67.7445 196.669 69.98C199.532 72.4757 203.092 75.5865 209.846 75.5865C216.6 75.5865 220.16 72.4757 223.022 69.98C225.589 67.7445 227.446 66.1241 231.538 66.1241C233.502 66.1241 235.087 64.5392 235.087 62.5757C235.087 60.6123 233.502 59.0273 231.538 59.0273Z" fill="#F85600"/>
<path d="M160.897 18.4391C160.383 18.0133 159.739 17.8285 159.088 17.9008C158.453 17.9732 157.874 18.2945 157.472 18.8007C157.054 19.3309 156.861 19.9978 156.941 20.6807C157.014 21.3476 157.343 21.9421 157.85 22.3679C158.292 22.7294 158.831 22.9223 159.386 22.9223C159.474 22.9223 159.57 22.9223 159.659 22.9062C161.002 22.7536 161.966 21.5082 161.814 20.1263C161.741 19.4595 161.412 18.865 160.905 18.4391H160.897Z" fill="white"/>
<path d="M147.374 21.7734C147.301 21.1065 146.972 20.512 146.465 20.0862C145.951 19.6604 145.299 19.4756 144.656 19.5479C143.313 19.7005 142.349 20.9458 142.501 22.3277C142.574 22.9946 142.903 23.5891 143.41 24.0149C143.852 24.3765 144.391 24.5693 144.946 24.5693C145.034 24.5693 145.13 24.5693 145.219 24.5532C145.87 24.4809 146.457 24.1435 146.859 23.6213C147.261 23.099 147.446 22.4402 147.366 21.7734H147.374Z" fill="white"/>
<path d="M158.268 26.1521C157.609 26.0074 156.957 26.4252 156.813 27.076C156.427 28.8194 154.972 30.129 153.203 30.3299C151.434 30.5388 149.721 29.5907 148.95 27.9758C148.66 27.3652 147.928 27.1081 147.317 27.3974C146.714 27.6866 146.449 28.4177 146.747 29.0283C147.856 31.3502 150.204 32.7964 152.728 32.7964C152.978 32.7964 153.227 32.7803 153.484 32.7562C156.29 32.4349 158.59 30.3701 159.201 27.6063C159.273 27.2849 159.217 26.9635 159.04 26.6823C158.863 26.4091 158.59 26.2163 158.276 26.144L158.268 26.1521Z" fill="white"/>
<path d="M163.55 11.1842C158.967 12.1322 150.236 9.77016 147.446 6.82158C147.14 6.50021 146.682 6.37166 146.248 6.4761C145.814 6.58858 145.476 6.92602 145.372 7.35987C145.356 7.41611 143.756 13.2972 138.513 15.1772C138.208 15.2897 137.959 15.5147 137.822 15.8039C137.685 16.0931 137.669 16.4306 137.774 16.7359C137.951 17.226 138.409 17.5473 138.924 17.5473C138.972 17.5473 139.02 17.5473 139.068 17.5473C139.165 17.5393 139.253 17.5152 139.342 17.4831C143.852 15.8601 146.103 12.1242 147.124 9.73802C151.329 12.7027 159.361 14.5586 164.049 13.5864C164.37 13.5222 164.644 13.3374 164.821 13.0642C164.998 12.791 165.062 12.4616 164.998 12.1483C164.861 11.4895 164.218 11.0717 163.55 11.2003V11.1842Z" fill="white"/>
<path d="M199.755 24.1838C199.715 15.5067 192.993 8.05092 184.326 7.14304C178.111 6.48423 172.129 9.22392 168.511 14.3016C168.294 13.466 168.021 12.6305 167.667 11.827C167.723 11.827 167.788 11.819 167.844 11.811C172.499 11.2807 174.429 7.40014 174.509 7.23142C174.702 6.83774 174.662 6.37175 174.421 6.01825C174.187 5.68081 173.842 5.47191 173.391 5.47995C173.166 5.42371 172.065 5.0461 170.232 2.86077C169.412 1.88059 168.728 1.28605 167.884 0.828101C164.676 -0.923372 161.822 0.362113 160.415 2.41889C160.198 2.73223 160.013 3.0777 159.868 3.43924C156.789 1.81632 153.356 1.16554 149.906 1.55922C146.481 1.9529 143.297 3.35086 140.668 5.6085C140.443 5.29516 140.194 5.01396 139.921 4.7649C138.087 3.0777 135.016 2.46709 132.291 4.90148C131.575 5.54422 131.044 6.26731 130.457 7.40818C129.155 9.96308 128.142 10.5898 127.981 10.6701C127.579 10.7585 127.241 11.0397 127.089 11.4253C126.928 11.827 127 12.293 127.273 12.6305C127.386 12.7751 130.168 16.1093 134.807 15.5871C134.847 15.5871 134.887 15.579 134.928 15.571C134.735 16.6235 134.638 17.684 134.638 18.7365C131.929 19.6122 130.152 22.3278 130.481 25.18C130.666 26.7869 131.462 28.225 132.733 29.2293C134.003 30.2336 135.579 30.6915 137.187 30.5067C137.187 30.5067 137.187 30.5067 137.195 30.5067C140.274 36.0504 146.007 39.3926 152.222 39.3926C152.881 39.3926 153.54 39.3525 154.208 39.2802C158.775 38.7579 162.835 36.4762 165.705 32.8688C167.755 39.481 173.448 44.1891 180.354 44.9122C180.965 44.9765 181.576 45.0086 182.179 45.0086C188.459 45.0086 194.231 41.6021 197.287 35.9861C197.287 35.9861 197.295 35.9861 197.303 35.9861C200.623 36.3477 203.614 33.9133 203.96 30.5951C204.257 27.7429 202.464 25.0434 199.747 24.1918L199.755 24.1838ZM165.086 30.0327C163.526 29.4944 162.489 27.9358 162.666 26.2566C162.827 24.7542 163.88 23.541 165.311 23.1554L165.014 25.9754C164.877 27.3011 164.901 28.6588 165.086 30.0247V30.0327ZM165.689 20.6165C162.851 20.8897 160.535 23.1554 160.238 26.0075C159.981 28.4419 161.219 30.7397 163.333 31.9127C160.897 34.6765 157.593 36.436 153.934 36.8538C145.838 37.7858 138.489 31.9449 137.565 23.8543L137.163 20.3514C136.238 12.2528 142.075 4.91755 150.172 3.99361C158.276 3.06966 165.617 8.90255 166.541 16.9931L166.614 17.6519C166.22 18.5999 165.898 19.5962 165.681 20.6246L165.689 20.6165ZM134.815 21.2994L135.137 24.1195C135.289 25.4451 135.603 26.7628 136.085 28.0563C134.445 27.8715 133.103 26.5699 132.91 24.8988C132.741 23.3964 133.505 21.9824 134.823 21.2994H134.815ZM201.532 30.33C201.355 32.0091 200.02 33.3187 198.38 33.5196C198.846 32.218 199.152 30.8924 199.289 29.5748L199.586 26.7547C200.905 27.4296 201.685 28.8356 201.532 30.338V30.33ZM197.23 25.8147L196.861 29.3177C196.008 37.4242 188.724 43.3134 180.611 42.4698C172.499 41.6181 166.598 34.3311 167.45 26.2325L167.82 22.7295C168.616 15.1452 175.048 9.48905 182.517 9.48905C183.032 9.48905 183.546 9.51316 184.069 9.5694C192.181 10.421 198.083 17.7081 197.23 25.8067V25.8147Z" fill="white"/>
<path d="M189.745 25.0915C188.41 24.9389 187.188 25.9592 187.043 27.3411C186.971 28.008 187.156 28.6587 187.566 29.181C187.976 29.7032 188.563 30.0326 189.214 30.0969C189.303 30.1049 189.383 30.113 189.472 30.113C190.034 30.113 190.581 29.9121 191.023 29.5425C191.53 29.1167 191.851 28.5141 191.916 27.8473C191.988 27.1804 191.803 26.5297 191.393 26.0074C190.983 25.4852 190.396 25.1558 189.737 25.0915H189.745Z" fill="white"/>
<path d="M177.468 26.3368C177.612 24.9549 176.64 23.7177 175.289 23.573C173.946 23.4284 172.732 24.4408 172.587 25.8226C172.443 27.2045 173.416 28.4418 174.766 28.5864C174.847 28.5945 174.935 28.6025 175.016 28.6025C176.254 28.6025 177.331 27.6304 177.468 26.3368Z" fill="white"/>
<path d="M187.156 32.9651C186.545 32.6839 185.813 32.9491 185.532 33.5516C184.776 35.1665 183.088 36.1306 181.303 35.9458C179.526 35.7611 178.063 34.4675 177.661 32.7321C177.588 32.4108 177.395 32.1456 177.114 31.9689C176.841 31.8002 176.511 31.7439 176.189 31.8162C175.53 31.9689 175.12 32.6277 175.273 33.2865C175.916 36.0423 178.232 38.083 181.038 38.3802C181.271 38.4043 181.496 38.4124 181.729 38.4124C184.278 38.4124 186.641 36.9341 187.735 34.588C188.016 33.9774 187.759 33.2463 187.148 32.9651H187.156Z" fill="white"/>
<path d="M180.788 11.7546C180.563 11.377 180.177 11.1681 179.695 11.1601C179.253 11.1762 178.851 11.4333 178.65 11.8269C178.617 11.8832 175.787 17.2742 170.256 17.9732C169.588 18.0615 169.114 18.6721 169.194 19.339C169.267 19.9014 169.709 20.3433 170.28 20.3995C170.376 20.4075 170.465 20.4075 170.561 20.3995C175.321 19.7969 178.328 16.6314 179.84 14.5265C183.305 18.3347 190.742 21.8859 195.526 21.9501H195.542C195.863 21.9501 196.161 21.8296 196.394 21.6047C196.627 21.3797 196.756 21.0744 196.764 20.745C196.772 20.0781 196.233 19.5238 195.558 19.5077C190.879 19.4434 182.871 15.2415 180.788 11.7627V11.7546Z" fill="white"/>
</svg>
