<svg width="217" height="99" viewBox="0 0 217 99" fill="none" xmlns="http://www.w3.org/2000/svg">
<path d="M98.7778 84.7738C99.6178 82.9938 101.378 81.8938 103.258 81.5638C105.008 81.2638 107.228 81.6138 108.498 83.0338C109.008 83.6038 109.468 83.9738 109.958 84.6938C110.178 85.0138 110.348 85.3638 110.518 85.7138C110.748 86.1238 111.008 86.5238 111.308 86.9038C111.388 87.0038 111.468 87.1038 111.548 87.2038C111.498 87.1438 111.448 87.0838 111.388 87.0238C111.388 87.0238 111.398 87.0438 111.408 87.0438C111.458 87.1038 111.508 87.1638 111.568 87.2238C112.458 88.3538 113.068 89.5738 113.118 91.1238C113.178 92.6938 112.548 94.6138 111.428 95.7538C110.218 96.9738 108.588 97.9138 106.818 97.9038C105.028 97.8938 103.618 97.2838 102.188 96.2138C101.028 95.3438 99.9778 94.1738 99.2478 92.9238C97.7078 90.2838 97.4778 87.5838 98.7978 84.7738M140.298 72.3638C142.078 69.8038 145.688 68.7438 148.508 70.3038C149.108 70.6338 149.978 70.9638 150.498 71.3938C151.148 71.6238 151.788 71.8538 152.428 72.1238C154.138 72.8438 155.688 73.5438 157.088 74.8338C159.178 76.7438 159.488 79.9238 157.888 82.2138C156.168 84.6938 153.358 85.0338 150.688 84.0238C152.138 84.5738 150.898 84.1538 150.618 84.0738C150.248 83.9738 149.888 83.8938 149.518 83.8238C149.398 83.8038 149.268 83.7838 149.148 83.7638C149.068 83.7538 149.018 83.7438 148.968 83.7338C148.718 83.7038 148.408 83.6738 148.018 83.6438C147.828 83.6338 147.638 83.6038 147.458 83.5638C145.208 83.1638 142.978 82.2738 141.228 80.7938C138.778 78.7138 138.548 74.9138 140.308 72.3838M102.318 38.2038C106.388 36.8838 110.118 34.3038 114.748 34.2038C119.998 34.0938 121.878 40.7938 117.758 43.7438C116.018 44.9938 113.938 45.7138 112.138 46.9038C110.218 48.1738 108.238 49.2738 106.068 50.0738C102.908 51.2338 99.2278 49.1138 98.2478 46.0038C97.2278 42.7638 99.0978 39.2238 102.318 38.1838M52.4178 50.0838C53.3878 47.4538 56.4178 45.4738 59.2878 46.3138C61.3378 46.9138 62.9978 48.0838 64.8178 49.1438C65.5378 49.5638 66.2678 49.9838 66.9978 50.3638C67.3278 50.5338 67.6678 50.6838 67.9978 50.8538C68.1178 50.9138 68.1978 50.9638 68.2678 51.0038C72.9878 52.0938 73.2878 59.2438 68.5578 60.6138C65.7178 61.4438 63.1378 60.8738 60.4678 59.7838C58.7378 59.0738 56.8178 58.3338 55.1978 57.3938C52.6178 55.8838 51.3478 52.9338 52.3978 50.0738M168.828 40.4438C172.538 38.6938 175.858 40.7638 177.438 44.1738C177.048 43.3238 177.588 44.1338 177.868 44.5538C177.988 44.6738 178.288 44.9938 178.428 45.1338C179.408 46.1938 180.388 47.2738 181.278 48.4038C182.048 49.3838 182.848 50.5338 183.228 51.7438C183.468 52.5138 183.628 53.4838 183.658 54.2938C183.668 54.7438 182.898 57.6838 183.158 56.6438C182.178 60.4538 177.538 61.1338 175.198 58.9338C174.378 58.3538 173.778 57.5638 173.068 56.8238C173.218 57.0038 172.208 56.1138 172.208 56.1138C171.828 55.7838 171.418 55.4638 171.028 55.1438C169.118 53.5738 167.288 51.7038 166.218 49.4538C164.608 46.0738 165.088 42.2038 168.828 40.4338M194.018 87.0238C193.358 83.2138 196.188 79.5538 200.138 79.4138C204.098 79.2738 207.598 80.9338 211.428 81.5638C215.868 82.2938 217.348 89.3338 213.188 91.4938C210.558 92.8638 208.068 93.0438 205.188 92.6238C204.358 92.5038 203.488 92.4038 202.688 92.1938C202.658 92.1938 202.638 92.1838 202.618 92.1738C202.608 92.1738 202.598 92.1738 202.578 92.1738C202.078 92.2038 200.848 92.5538 202.348 92.1238C198.578 93.2138 194.708 90.9138 194.028 87.0138M38.8078 8.67376C38.1078 6.31376 39.0178 3.64376 41.0978 2.30376C42.3478 1.50376 44.1478 1.21376 45.7078 1.60376C50.2678 0.543761 55.5678 0.703762 59.2078 3.51376C61.3578 5.17376 61.4778 8.64376 59.9878 10.7138C58.4878 12.7938 55.9378 13.5438 53.5678 12.7138C53.2978 12.7138 53.0378 12.7238 52.7678 12.7438C52.3478 12.7638 51.9278 12.7938 51.4978 12.8338C51.3878 12.8438 50.3778 13.0038 50.4578 12.9838C48.6078 13.3438 46.7878 13.7738 44.8978 13.8138C42.3378 13.8638 39.9078 12.2138 39.1278 9.74376C39.0178 9.39376 38.9078 9.03376 38.8078 8.68376M9.53781 46.9338C15.8478 50.1438 19.2178 56.7538 19.6178 63.6638C19.9178 68.7638 13.0278 70.6638 10.2978 66.6038C8.2478 63.5638 7.34781 59.4838 3.91781 57.7438C-3.08219 54.1838 2.54781 43.3838 9.53781 46.9438" stroke="#F85600" stroke-miterlimit="10"/>
</svg>
