<svg width="330" height="176" viewBox="0 0 330 176" fill="none" xmlns="http://www.w3.org/2000/svg">
<path d="M56.5549 116.832C57.3176 117.067 57.9189 117.521 58.3589 118.196C58.7989 118.871 59.0043 119.589 58.9749 120.352C58.9749 120.763 58.9163 121.129 58.7989 121.452C58.6816 121.833 58.4763 122.185 58.1829 122.508C57.7136 123.065 57.1269 123.447 56.4229 123.652C55.7483 123.887 55.0443 123.887 54.3109 123.652C53.7829 123.476 53.3429 123.212 52.9909 122.86V122.904C52.9616 122.904 52.9469 122.889 52.9469 122.86C52.9469 122.86 52.9323 122.831 52.9029 122.772C52.9029 122.772 52.8736 122.743 52.8149 122.684C52.6683 122.537 52.4189 122.303 52.0669 121.98C51.7443 121.657 51.4069 121.349 51.0549 121.056L51.0109 121.012C51.0109 121.012 50.9816 120.983 50.9229 120.924C50.8643 120.895 50.8203 120.865 50.7909 120.836C50.7616 120.807 50.7176 120.777 50.6589 120.748L50.5709 120.66C50.4536 120.601 50.3656 120.543 50.3069 120.484C49.9256 120.22 49.5589 119.985 49.2069 119.78C48.8549 119.575 48.4589 119.428 48.0189 119.34C47.6083 119.252 47.1243 119.237 46.5669 119.296C46.0096 119.355 45.3203 119.501 44.4989 119.736C43.7069 119.971 42.9296 120.073 42.1669 120.044C41.4336 120.015 40.7736 119.941 40.1869 119.824C39.6003 119.707 39.0869 119.575 38.6469 119.428C38.2363 119.281 37.9723 119.179 37.8549 119.12C35.9483 118.211 34.4523 116.905 33.3669 115.204C32.2816 113.532 31.5923 111.581 31.2989 109.352C31.0349 107.123 31.1963 104.717 31.7829 102.136C32.6923 98.1173 34.2909 95.0227 36.5789 92.852C38.8963 90.6813 41.7123 89.596 45.0269 89.596C45.7016 89.596 46.4203 89.64 47.1829 89.728C49.6176 90.08 51.6269 91.0773 53.2109 92.72C54.8243 94.3333 55.8949 96.4747 56.4229 99.144C56.6869 100.464 56.7896 101.843 56.7309 103.28C56.7016 104.688 56.5256 106.14 56.2029 107.636C56.1443 107.929 56.0709 108.208 55.9829 108.472C55.9243 108.736 55.8656 109 55.8069 109.264C55.7776 109.352 55.7483 109.44 55.7189 109.528C55.6896 109.587 55.6603 109.66 55.6309 109.748C55.5136 110.129 55.3229 110.643 55.0589 111.288C54.7949 111.933 54.4576 112.461 54.0469 112.872C53.6363 113.283 53.3869 113.737 53.2989 114.236C53.2109 114.735 53.3723 115.233 53.7829 115.732C53.9589 115.937 54.1789 116.113 54.4429 116.26C54.7069 116.377 54.9563 116.465 55.1909 116.524C55.4843 116.612 55.7629 116.671 56.0269 116.7L56.5549 116.832ZM48.3269 108.208C48.5616 108.443 48.7963 108.575 49.0309 108.604C49.2363 108.633 49.4416 108.56 49.6469 108.384C49.8816 108.179 50.0869 107.783 50.2629 107.196C50.2923 107.049 50.3216 106.917 50.3509 106.8C50.3803 106.653 50.4096 106.507 50.4389 106.36C50.7029 105.275 50.8496 104.219 50.8789 103.192C50.9083 102.165 50.8349 101.197 50.6589 100.288C50.0723 97.472 48.6349 95.9027 46.3469 95.58C46.1123 95.5213 45.8776 95.492 45.6429 95.492C45.4376 95.492 45.2323 95.492 45.0269 95.492C43.8536 95.492 42.8416 95.7413 41.9909 96.24C41.1403 96.7093 40.4069 97.34 39.7909 98.132C39.2043 98.8947 38.7349 99.7453 38.3829 100.684C38.0309 101.623 37.7523 102.547 37.5469 103.456C37.1363 105.216 36.9896 106.844 37.1069 108.34C37.2536 109.807 37.6496 111.024 38.2949 111.992C39.0869 113.165 40.2603 113.928 41.8149 114.28H41.9909C42.0203 114.28 42.1669 114.28 42.4309 114.28C42.7243 114.28 43.0029 114.221 43.2669 114.104C43.5309 113.987 43.7216 113.781 43.8389 113.488C43.9856 113.195 43.9563 112.769 43.7509 112.212C43.5456 111.831 43.3696 111.508 43.2229 111.244C43.1056 110.98 43.0176 110.789 42.9589 110.672C42.6363 109.939 42.6069 109.191 42.8709 108.428C43.1349 107.665 43.6483 107.123 44.4109 106.8C45.1443 106.448 45.8923 106.404 46.6549 106.668C47.4176 106.932 47.9749 107.445 48.3269 108.208ZM87.2783 105.436C88.0409 105.583 88.613 105.964 88.9943 106.58C89.3756 107.196 89.4929 107.885 89.3463 108.648L88.7303 112.212C88.4663 113.385 88.0556 114.456 87.4983 115.424C86.9703 116.363 86.3103 117.184 85.5183 117.888C84.7556 118.563 83.8756 119.091 82.8783 119.472C81.9103 119.824 80.8836 120 79.7983 120C79.3289 120 78.8743 119.956 78.4343 119.868H78.2583C78.1996 119.868 78.1556 119.868 78.1263 119.868C78.1263 119.839 78.0969 119.824 78.0383 119.824C76.9823 119.56 76.0729 119.076 75.3103 118.372C74.8703 117.961 74.4743 117.712 74.1223 117.624C73.9463 117.565 73.7849 117.536 73.6383 117.536H73.5503C73.2863 117.536 73.0516 117.58 72.8463 117.668C72.6409 117.727 72.4649 117.8 72.3183 117.888C72.1716 118.005 72.0396 118.108 71.9223 118.196L71.8783 118.24C71.5263 118.563 71.1449 118.827 70.7343 119.032C70.3529 119.237 70.0009 119.413 69.6783 119.56C69.3556 119.677 69.0769 119.765 68.8423 119.824C68.6369 119.883 68.5196 119.912 68.4903 119.912C68.2556 119.941 68.0356 119.971 67.8303 120C67.6249 120 67.4049 120 67.1703 120C65.8209 120 64.5596 119.765 63.3863 119.296C62.2423 118.797 61.2449 118.079 60.3943 117.14C58.8689 115.468 58.0769 113.444 58.0183 111.068V110.892V110.76C58.0476 110.085 58.1209 109.352 58.2383 108.56C58.3556 107.768 58.4436 107.196 58.5023 106.844L58.5463 106.668C58.5463 106.551 58.5609 106.463 58.5903 106.404L58.8103 105.084C58.8983 104.585 58.9569 104.101 58.9863 103.632C59.0449 103.133 59.1036 102.679 59.1623 102.268L59.2063 101.036C59.2063 100.801 59.2209 100.625 59.2503 100.508C59.2796 100.42 59.2943 100.347 59.2943 100.288C59.3236 100.2 59.3529 100.112 59.3823 100.024C59.6756 99.1147 60.2329 98.4547 61.0543 98.044C61.9049 97.604 62.7703 97.5307 63.6503 97.824C64.5303 98.1467 65.1756 98.7187 65.5863 99.54C65.9969 100.361 66.0556 101.227 65.7623 102.136C65.7036 102.224 65.6596 102.327 65.6303 102.444C65.6009 102.532 65.5569 102.62 65.4983 102.708C65.3516 103.001 65.2049 103.309 65.0583 103.632C64.9116 103.955 64.7649 104.321 64.6183 104.732C64.5009 105.143 64.3689 105.597 64.2223 106.096L63.9143 107.856C63.8849 107.944 63.8703 108.032 63.8703 108.12C63.8703 108.208 63.8556 108.281 63.8263 108.34L63.7823 108.604C63.7823 108.633 63.7529 108.809 63.6943 109.132C63.6356 109.425 63.5916 109.733 63.5623 110.056V110.452C63.4156 111.684 63.7089 112.667 64.4423 113.4C65.0876 114.133 65.9969 114.5 67.1703 114.5C67.9916 114.5 68.7396 114.177 69.4143 113.532C70.0889 112.857 70.5289 112.036 70.7343 111.068L71.2183 108.78V108.604C71.2476 108.545 71.2623 108.487 71.2623 108.428C71.2623 108.34 71.2769 108.267 71.3063 108.208L71.4383 107.592L71.6143 106.8C71.6143 106.653 71.6289 106.521 71.6583 106.404C71.6583 106.375 71.6583 106.345 71.6583 106.316C71.6876 106.287 71.7023 106.257 71.7023 106.228L71.8783 105.172C71.9663 104.644 72.0396 104.116 72.0983 103.588C72.1569 103.06 72.2009 102.561 72.2303 102.092L72.2743 100.992C72.3036 100.904 72.3183 100.831 72.3183 100.772C72.3183 100.684 72.3329 100.596 72.3623 100.508C72.3623 100.42 72.3623 100.347 72.3623 100.288C72.3916 100.2 72.4209 100.112 72.4503 100.024C72.7729 99.1147 73.3449 98.4547 74.1663 98.044C74.9876 97.604 75.8383 97.5307 76.7183 97.824C77.5983 98.1467 78.2436 98.7187 78.6543 99.54C79.0943 100.361 79.1529 101.227 78.8303 102.136C78.7716 102.371 78.6836 102.561 78.5663 102.708C78.4196 103.001 78.2729 103.309 78.1263 103.632C77.9796 103.925 77.8329 104.277 77.6863 104.688C77.5689 105.099 77.4516 105.553 77.3343 106.052L76.8503 108.692L76.8063 108.912L76.7623 109.044C76.7329 109.191 76.6889 109.44 76.6303 109.792C76.6009 110.115 76.5863 110.481 76.5863 110.892C76.5863 111.273 76.6156 111.684 76.6743 112.124C76.7623 112.535 76.9089 112.887 77.1143 113.18L77.2023 113.268C77.2316 113.327 77.2756 113.385 77.3343 113.444C77.5689 113.679 77.8329 113.884 78.1263 114.06C78.4196 114.236 78.8009 114.368 79.2703 114.456H79.3143C79.6369 114.485 79.9303 114.485 80.1943 114.456C80.7516 114.397 81.2209 114.236 81.6023 113.972C81.9836 113.708 82.2916 113.4 82.5263 113.048C82.7609 112.696 82.9369 112.344 83.0543 111.992C83.2009 111.611 83.3036 111.303 83.3623 111.068L84.0223 107.592C84.1689 106.829 84.5503 106.243 85.1663 105.832C85.8116 105.421 86.5156 105.289 87.2783 105.436ZM113.249 105.436C114.012 105.583 114.569 105.964 114.921 106.58C115.302 107.196 115.434 107.885 115.317 108.648L114.745 112.212C114.481 113.415 114.07 114.5 113.513 115.468C112.956 116.407 112.281 117.213 111.489 117.888C110.726 118.563 109.861 119.091 108.893 119.472C107.925 119.824 106.898 120 105.813 120C105.109 120 104.478 119.941 103.921 119.824C103.686 119.765 103.496 119.721 103.349 119.692C103.32 119.663 103.29 119.648 103.261 119.648C102.762 119.501 102.322 119.311 101.941 119.076C101.56 118.812 101.222 118.548 100.929 118.284L100.797 118.152C100.474 117.829 100.152 117.624 99.8289 117.536C99.5356 117.448 99.2423 117.433 98.9489 117.492C98.6849 117.521 98.4503 117.609 98.2449 117.756C98.0396 117.873 97.8783 117.976 97.7609 118.064C97.7023 118.093 97.6583 118.123 97.6289 118.152C97.6289 118.181 97.5996 118.211 97.5409 118.24C97.0716 118.621 96.6316 118.915 96.2209 119.12C95.8103 119.296 95.5463 119.413 95.4289 119.472C94.4903 119.824 93.5223 120 92.5249 120C91.2049 120 89.9876 119.765 88.8729 119.296C87.7876 118.797 86.8343 118.123 86.0129 117.272C85.2209 116.392 84.5903 115.351 84.1209 114.148C83.6809 112.945 83.4609 111.64 83.4609 110.232C83.4609 110.056 83.4756 109.675 83.5049 109.088C83.5636 108.472 83.7103 107.739 83.9449 106.888C84.1796 106.037 84.5463 105.128 85.0449 104.16C85.5436 103.163 86.2329 102.209 87.1129 101.3C88.0223 100.42 88.9316 99.7307 89.8409 99.232C90.7796 98.704 91.7036 98.3227 92.6129 98.088C93.0236 98 93.4929 97.8973 94.0209 97.78C94.4609 97.7213 94.9889 97.6627 95.6049 97.604C96.2209 97.516 96.9103 97.5013 97.6729 97.56C98.1716 97.5893 98.7436 97.648 99.3889 97.736C100.034 97.7947 100.68 97.8973 101.325 98.044C102 98.1613 102.66 98.3373 103.305 98.572C103.98 98.7773 104.581 99.056 105.109 99.408C105.344 99.5253 105.564 99.6867 105.769 99.892V99.936C106.268 100.376 106.605 100.933 106.781 101.608C106.986 102.283 106.972 102.972 106.737 103.676C106.561 104.145 106.312 104.556 105.989 104.908C105.696 105.26 105.344 105.539 104.933 105.744C104.522 105.949 104.082 106.081 103.613 106.14C103.173 106.169 102.718 106.111 102.249 105.964C101.662 105.788 101.193 105.495 100.841 105.084H100.797C100.797 105.055 100.782 105.04 100.753 105.04C100.753 105.04 100.753 105.025 100.753 104.996C100.665 104.908 100.474 104.761 100.181 104.556C99.9169 104.321 99.5649 104.101 99.1249 103.896C98.6849 103.661 98.1569 103.471 97.5409 103.324C96.9543 103.177 96.2796 103.133 95.5169 103.192C94.5783 103.251 93.7569 103.441 93.0529 103.764C92.3489 104.087 91.6743 104.571 91.0289 105.216C90.5303 105.715 90.1343 106.257 89.8409 106.844C89.5769 107.431 89.3716 107.973 89.2249 108.472C89.1076 108.941 89.0343 109.352 89.0049 109.704C88.9756 110.027 88.9609 110.188 88.9609 110.188V110.232C88.9609 110.672 89.0049 111.112 89.0929 111.552C89.2103 111.992 89.3716 112.417 89.5769 112.828C89.8116 113.209 90.0903 113.547 90.4129 113.84C90.7649 114.104 91.1903 114.295 91.6889 114.412C92.5689 114.588 93.3903 114.529 94.1529 114.236C94.7983 114.001 95.3996 113.532 95.9569 112.828C96.5143 112.095 96.8663 110.936 97.0129 109.352L97.1009 108.912C97.1303 108.853 97.1449 108.809 97.1449 108.78C97.1449 108.721 97.1596 108.663 97.1889 108.604C97.3356 107.841 97.7023 107.24 98.2889 106.8C98.9049 106.36 99.5943 106.199 100.357 106.316C101.12 106.463 101.721 106.844 102.161 107.46C102.601 108.047 102.762 108.721 102.645 109.484C102.616 109.631 102.586 109.763 102.557 109.88C102.557 109.968 102.557 110.085 102.557 110.232C102.557 110.467 102.586 110.833 102.645 111.332C102.704 111.801 102.836 112.271 103.041 112.74C103.276 113.209 103.598 113.62 104.009 113.972C104.449 114.324 105.05 114.5 105.813 114.5C106.429 114.5 106.942 114.368 107.353 114.104C107.793 113.84 108.145 113.532 108.409 113.18C108.673 112.828 108.878 112.461 109.025 112.08C109.172 111.669 109.274 111.332 109.333 111.068L109.993 107.592C110.14 106.829 110.521 106.243 111.137 105.832C111.782 105.421 112.486 105.289 113.249 105.436ZM134.618 105.436C135.38 105.583 135.967 105.964 136.378 106.58C136.788 107.196 136.92 107.885 136.774 108.648L136.114 112.212C135.85 113.356 135.41 114.412 134.794 115.38C134.207 116.319 133.488 117.14 132.638 117.844C131.787 118.519 130.834 119.047 129.778 119.428C128.751 119.809 127.666 120 126.522 120C125.407 120 124.336 119.824 123.31 119.472C122.312 119.12 121.388 118.621 120.538 117.976C119.716 117.331 119.012 116.568 118.426 115.688C117.839 114.808 117.399 113.855 117.106 112.828C117.018 112.535 116.93 112.315 116.842 112.168C116.783 112.021 116.739 111.933 116.71 111.904C116.563 111.728 116.372 111.611 116.138 111.552H115.918C115.507 111.523 115.199 111.655 114.994 111.948C114.788 112.212 114.656 112.447 114.598 112.652C114.539 112.769 114.495 112.916 114.466 113.092C114.436 113.239 114.392 113.371 114.334 113.488C113.659 115.512 112.559 117.111 111.034 118.284C109.538 119.428 107.792 120 105.798 120C105.035 120 104.39 119.736 103.862 119.208C103.304 118.651 103.026 117.991 103.026 117.228C103.026 116.465 103.304 115.82 103.862 115.292C104.39 114.764 105.035 114.5 105.798 114.5C106.414 114.5 106.942 114.368 107.382 114.104C107.792 113.84 108.13 113.532 108.394 113.18C108.658 112.828 108.863 112.461 109.01 112.08C109.156 111.669 109.259 111.332 109.318 111.068L109.978 107.592C110.007 107.475 110.051 107.269 110.11 106.976C110.198 106.507 110.3 105.979 110.418 105.392C110.564 104.805 110.74 104.204 110.946 103.588C111.18 102.943 111.474 102.297 111.826 101.652C112.178 101.007 112.618 100.376 113.146 99.76C113.791 99.0267 114.51 98.484 115.302 98.132C116.094 97.7507 116.842 97.4867 117.546 97.34C118.279 97.1933 118.924 97.12 119.482 97.12C120.068 97.12 120.464 97.1347 120.67 97.164C121.726 97.2227 122.664 97.4133 123.486 97.736C124.307 98.0587 124.996 98.4693 125.554 98.968C126.14 99.4373 126.61 99.98 126.962 100.596C127.314 101.183 127.563 101.769 127.71 102.356C127.974 103.383 128.003 104.395 127.798 105.392C127.622 106.389 127.24 107.313 126.654 108.164C126.566 108.252 126.492 108.355 126.434 108.472C126.375 108.501 126.331 108.531 126.302 108.56C126.302 108.589 126.287 108.619 126.258 108.648L126.214 108.692C125.862 109.073 125.466 109.396 125.026 109.66C124.615 109.924 124.292 110.115 124.058 110.232C124.058 110.261 124.043 110.276 124.014 110.276H123.97C123.97 110.276 123.911 110.305 123.794 110.364C123.676 110.423 123.559 110.511 123.442 110.628C123.324 110.745 123.207 110.892 123.09 111.068C123.06 111.097 123.002 111.229 122.914 111.464C122.855 111.669 122.855 111.919 122.914 112.212C122.972 112.505 123.134 112.828 123.398 113.18C123.662 113.503 124.116 113.811 124.762 114.104C124.879 114.163 124.967 114.192 125.026 114.192C125.436 114.397 125.935 114.5 126.522 114.5C127.49 114.5 128.37 114.177 129.162 113.532C129.954 112.857 130.467 112.036 130.702 111.068L131.406 107.592C131.552 106.829 131.934 106.243 132.55 105.832C133.166 105.421 133.855 105.289 134.618 105.436ZM119.966 106.448C120.787 106.272 121.447 105.949 121.946 105.48C122.474 105.011 122.664 104.424 122.518 103.72C122.371 103.045 121.975 102.605 121.33 102.4C120.714 102.195 119.98 102.165 119.13 102.312C118.132 102.488 117.384 102.84 116.886 103.368C116.387 103.867 116.167 104.439 116.226 105.084C116.255 105.407 116.387 105.685 116.622 105.92C116.886 106.125 117.194 106.287 117.546 106.404C117.898 106.492 118.279 106.551 118.69 106.58C119.13 106.58 119.555 106.536 119.966 106.448ZM149.849 105.436C150.612 105.583 151.184 105.964 151.565 106.58C151.946 107.196 152.064 107.885 151.917 108.648L151.301 112.212C151.066 113.356 150.641 114.412 150.025 115.38C149.438 116.319 148.72 117.14 147.869 117.844C147.018 118.519 146.065 119.047 145.009 119.428C143.982 119.809 142.897 120 141.753 120C140.169 120 138.702 119.736 137.353 119.208C136.033 118.68 134.889 117.903 133.921 116.876C133.041 115.967 132.366 114.94 131.897 113.796C131.457 112.623 131.266 111.391 131.325 110.1C131.354 109.865 131.369 109.631 131.369 109.396C131.369 109.132 131.398 108.868 131.457 108.604V108.56C131.486 108.56 131.501 108.545 131.501 108.516L131.589 107.9C131.618 107.841 131.633 107.739 131.633 107.592L132.293 104.38C132.352 104.116 132.337 103.911 132.249 103.764C132.161 103.588 132.058 103.456 131.941 103.368C131.824 103.251 131.677 103.177 131.501 103.148H131.545C130.929 103.001 130.416 102.693 130.005 102.224C129.594 101.725 129.389 101.139 129.389 100.464C129.389 99.7013 129.668 99.056 130.225 98.528C130.753 98 131.398 97.736 132.161 97.736H132.293C132.41 97.736 132.542 97.7213 132.689 97.692C132.836 97.6627 132.982 97.5893 133.129 97.472C133.305 97.3547 133.452 97.1787 133.569 96.944C133.716 96.7093 133.833 96.372 133.921 95.932L134.141 94.832C134.229 94.3627 134.288 93.8933 134.317 93.424C134.376 92.9547 134.42 92.5147 134.449 92.104C134.478 91.6347 134.493 91.1947 134.493 90.784C134.493 90.4027 134.552 90.0507 134.669 89.728C134.816 89.2293 135.05 88.8187 135.373 88.496C135.725 88.144 136.106 87.8507 136.517 87.616C136.517 87.616 136.546 87.6013 136.605 87.572H136.649C136.678 87.5427 136.708 87.528 136.737 87.528C137.177 87.3227 137.646 87.22 138.145 87.22C138.644 87.1907 139.113 87.264 139.553 87.44C140.022 87.616 140.418 87.88 140.741 88.232C141.093 88.584 141.328 88.9947 141.445 89.464C141.562 89.9627 141.592 90.4173 141.533 90.828C141.504 91.2093 141.43 91.5467 141.313 91.84C141.225 92.104 141.122 92.324 141.005 92.5C140.917 92.6467 140.873 92.7347 140.873 92.764C140.844 92.8227 140.785 92.896 140.697 92.984C140.668 93.0133 140.653 93.0427 140.653 93.072C140.653 93.072 140.638 93.0867 140.609 93.116C140.609 93.116 140.594 93.1307 140.565 93.16C140.242 93.512 140.008 93.9373 139.861 94.436C139.832 94.436 139.817 94.4507 139.817 94.48V94.612C139.788 94.612 139.773 94.6267 139.773 94.656V94.7C139.714 94.876 139.641 95.1253 139.553 95.448C139.494 95.7707 139.465 96.0933 139.465 96.416V96.46C139.465 96.6947 139.524 96.9733 139.641 97.296C139.788 97.5893 140.154 97.736 140.741 97.736H140.829C140.888 97.736 141.02 97.736 141.225 97.736C141.46 97.7067 141.694 97.6627 141.929 97.604H142.017C142.017 97.5747 142.032 97.56 142.061 97.56H142.149C142.56 97.5307 142.985 97.5747 143.425 97.692C144.188 97.9267 144.745 98.4107 145.097 99.144C145.449 99.8773 145.493 100.625 145.229 101.388C144.994 102.063 144.584 102.591 143.997 102.972C143.44 103.324 142.824 103.456 142.149 103.368C141.826 103.309 141.533 103.28 141.269 103.28C141.005 103.251 140.858 103.236 140.829 103.236C140.418 103.265 140.066 103.324 139.773 103.412C139.509 103.471 139.26 103.559 139.025 103.676C138.614 103.911 138.292 104.233 138.057 104.644C137.852 105.025 137.72 105.377 137.661 105.7L137.617 105.744L137.529 106.272L136.913 109.528C136.884 109.645 136.869 109.777 136.869 109.924C136.869 110.041 136.854 110.173 136.825 110.32C136.825 111.405 137.177 112.315 137.881 113.048C138.321 113.517 138.878 113.884 139.553 114.148C140.228 114.383 140.961 114.5 141.753 114.5C142.75 114.5 143.63 114.177 144.393 113.532C145.185 112.887 145.698 112.065 145.933 111.068L146.593 107.592C146.74 106.829 147.121 106.243 147.737 105.832C148.382 105.421 149.086 105.289 149.849 105.436ZM192.13 102.972C192.864 103.177 193.392 103.588 193.714 104.204C194.037 104.82 194.096 105.509 193.89 106.272C193.626 107.24 193.23 108.105 192.702 108.868C192.174 109.601 191.558 110.247 190.854 110.804C190.15 111.361 189.388 111.845 188.566 112.256C187.774 112.637 186.982 112.945 186.19 113.18C185.985 113.239 185.78 113.312 185.574 113.4C185.398 113.459 185.208 113.547 185.002 113.664C184.826 113.752 184.68 113.869 184.562 114.016C184.328 114.28 184.166 114.529 184.078 114.764C183.99 114.969 183.932 115.087 183.902 115.116C183.492 116.788 182.67 118.137 181.438 119.164C180.206 120.161 178.725 120.66 176.994 120.66C175.146 120.66 173.606 120.235 172.374 119.384C171.172 118.504 170.365 117.272 169.954 115.688C169.925 115.629 169.91 115.556 169.91 115.468C169.881 115.38 169.852 115.16 169.822 114.808C169.793 114.456 169.808 114.031 169.866 113.532C169.925 113.004 170.057 112.432 170.262 111.816C170.468 111.171 170.805 110.54 171.274 109.924C171.509 109.601 171.788 109.293 172.11 109C172.433 108.707 172.77 108.443 173.122 108.208C173.122 108.208 173.181 108.179 173.298 108.12C173.474 108.003 173.577 107.929 173.606 107.9C173.812 107.724 173.958 107.548 174.046 107.372C174.222 107.108 174.325 106.8 174.354 106.448C174.413 106.067 174.398 105.7 174.31 105.348C174.222 104.996 174.046 104.688 173.782 104.424C173.548 104.16 173.225 103.984 172.814 103.896C172.726 103.867 172.609 103.852 172.462 103.852C172.345 103.852 172.242 103.867 172.154 103.896C172.066 103.896 171.978 103.896 171.89 103.896C171.362 104.013 170.922 104.263 170.57 104.644C170.248 104.996 169.925 105.451 169.602 106.008C169.309 106.536 168.972 107.137 168.59 107.812C168.238 108.457 167.798 109.147 167.27 109.88C166.86 110.32 166.464 110.643 166.082 110.848C165.994 111.317 165.877 111.787 165.73 112.256C165.613 112.696 165.437 113.136 165.202 113.576V113.62V113.664C165.144 113.723 165.114 113.781 165.114 113.84C164.733 114.749 164.234 115.585 163.618 116.348C163.002 117.111 162.298 117.771 161.506 118.328C160.714 118.856 159.849 119.267 158.91 119.56C158.001 119.853 157.048 120 156.05 120C154.701 120 153.44 119.751 152.266 119.252C151.093 118.753 150.052 118.064 149.142 117.184C148.262 116.304 147.558 115.277 147.03 114.104C146.532 112.931 146.268 111.669 146.238 110.32V109.968C146.297 108.912 146.4 107.988 146.546 107.196C146.693 106.404 146.84 105.744 146.986 105.216C147.162 104.6 147.368 104.057 147.602 103.588C147.984 102.708 148.482 101.901 149.098 101.168C149.714 100.435 150.404 99.8187 151.166 99.32C151.958 98.792 152.809 98.3813 153.718 98.088C154.657 97.7947 155.61 97.648 156.578 97.648C157.546 97.648 158.47 97.7947 159.35 98.088C160.26 98.352 161.096 98.7333 161.858 99.232C162.621 99.7013 163.296 100.288 163.882 100.992C164.498 101.667 165.012 102.415 165.422 103.236C165.804 102.415 166.214 101.711 166.654 101.124C167.094 100.508 167.52 100.009 167.93 99.628C168.341 99.2173 168.708 98.9093 169.03 98.704C169.353 98.4693 169.573 98.3227 169.69 98.264C170.101 98.0587 170.541 97.868 171.01 97.692C171.48 97.516 171.993 97.3693 172.55 97.252C172.609 97.2227 172.653 97.208 172.682 97.208C172.712 97.208 172.741 97.1933 172.77 97.164H172.858C173.298 97.076 173.724 97.0173 174.134 96.988C174.545 96.9293 174.941 96.8853 175.322 96.856H175.63C176.305 96.8267 176.848 96.8413 177.258 96.9C177.698 96.9587 177.962 97.0027 178.05 97.032C178.813 97.1787 179.414 97.56 179.854 98.176C180.294 98.792 180.441 99.4813 180.294 100.244C180.148 100.831 179.913 101.285 179.59 101.608C179.502 101.696 179.429 101.755 179.37 101.784C179.224 101.96 179.077 102.224 178.93 102.576C178.784 102.928 178.842 103.353 179.106 103.852C179.4 104.263 179.678 104.673 179.942 105.084C180.206 105.465 180.47 105.817 180.734 106.14C180.881 106.287 181.028 106.463 181.174 106.668C181.321 106.844 181.468 107.02 181.614 107.196C181.644 107.255 181.717 107.343 181.834 107.46C181.981 107.577 182.157 107.695 182.362 107.812C182.597 107.9 182.861 107.973 183.154 108.032C183.448 108.091 183.8 108.076 184.21 107.988C184.65 107.871 185.105 107.724 185.574 107.548C186.044 107.372 186.484 107.167 186.894 106.932C187.334 106.668 187.701 106.36 187.994 106.008C188.317 105.656 188.537 105.26 188.654 104.82C188.86 104.057 189.3 103.515 189.974 103.192C190.678 102.84 191.397 102.767 192.13 102.972ZM159.262 106.624C159.35 106.595 159.453 106.536 159.57 106.448C159.658 106.389 159.746 106.316 159.834 106.228C159.922 106.111 159.996 105.979 160.054 105.832C160.113 105.685 160.128 105.524 160.098 105.348C160.098 105.143 160.025 104.937 159.878 104.732C159.468 104.233 158.984 103.852 158.426 103.588C157.869 103.324 157.253 103.192 156.578 103.192C155.698 103.192 154.892 103.456 154.158 103.984C153.425 104.512 152.897 105.201 152.574 106.052C152.457 106.375 152.34 106.727 152.222 107.108C152.134 107.431 152.046 107.827 151.958 108.296C151.87 108.736 151.812 109.22 151.782 109.748V109.792C151.782 109.851 151.768 109.924 151.738 110.012C151.738 110.071 151.738 110.129 151.738 110.188C151.738 111.391 152.149 112.403 152.97 113.224C153.821 114.045 154.848 114.456 156.05 114.456C156.578 114.456 157.106 114.339 157.634 114.104C158.104 113.869 158.426 113.62 158.602 113.356C158.778 113.092 158.881 112.843 158.91 112.608C158.91 112.197 158.837 111.889 158.69 111.684C158.602 111.567 158.529 111.479 158.47 111.42C158.06 111.097 157.752 110.701 157.546 110.232C157.37 109.733 157.341 109.22 157.458 108.692C157.576 108.193 157.796 107.768 158.118 107.416C158.441 107.035 158.822 106.771 159.262 106.624ZM179.106 113.62C179.136 113.268 179.106 112.931 179.018 112.608C178.96 112.344 178.828 112.095 178.622 111.86C178.446 111.596 178.182 111.405 177.83 111.288C177.273 111.171 176.818 111.215 176.466 111.42C176.144 111.596 175.865 111.816 175.63 112.08C175.366 112.403 175.161 112.769 175.014 113.18C174.985 113.297 174.97 113.4 174.97 113.488C174.97 113.547 174.956 113.605 174.926 113.664C174.897 113.899 174.912 114.148 174.97 114.412C175.058 114.647 175.22 114.867 175.454 115.072C175.836 115.424 176.305 115.6 176.862 115.6C177.449 115.571 177.948 115.365 178.358 114.984C178.828 114.632 179.062 114.177 179.062 113.62H179.106ZM228.958 103.896C229.604 104.307 229.985 104.893 230.102 105.656C230.249 106.389 230.117 107.079 229.706 107.724C229.12 108.604 228.489 109.352 227.814 109.968C227.169 110.584 226.509 111.112 225.834 111.552C225.16 111.992 224.47 112.344 223.766 112.608C223.092 112.872 222.432 113.077 221.786 113.224C221.757 113.253 221.713 113.268 221.654 113.268C221.596 113.268 221.566 113.283 221.566 113.312H221.522C220.437 113.517 219.63 113.796 219.102 114.148C218.604 114.471 218.266 114.735 218.09 114.94C218.032 114.999 217.988 115.043 217.958 115.072C217.958 115.101 217.944 115.131 217.914 115.16C217.592 115.571 217.254 115.952 216.902 116.304C216.14 117.067 215.362 117.697 214.57 118.196C213.808 118.665 213.03 119.032 212.238 119.296C211.476 119.56 210.713 119.751 209.95 119.868C209.188 119.956 208.454 120 207.75 120H207.354C206.445 119.971 205.756 120.117 205.286 120.44H205.242H205.198C204.934 120.645 204.744 120.895 204.626 121.188C204.509 121.481 204.421 121.716 204.362 121.892C204.333 121.951 204.318 121.995 204.318 122.024C204.318 122.053 204.304 122.097 204.274 122.156C204.245 122.303 204.216 122.42 204.186 122.508C204.186 122.625 204.172 122.743 204.142 122.86V122.904C203.79 124.811 203.453 126.277 203.13 127.304C202.837 128.331 202.588 129.049 202.382 129.46C202.353 129.607 202.28 129.797 202.162 130.032L202.118 130.076C201.678 130.78 201.077 131.279 200.314 131.572C199.552 131.865 198.774 131.88 197.982 131.616C197.102 131.323 196.442 130.765 196.002 129.944C195.533 129.152 195.416 128.301 195.65 127.392C195.738 126.835 196.032 126.248 196.53 125.632C197 125.045 197.528 124.151 198.114 122.948C198.525 122.009 198.848 121.027 199.082 120C199.141 119.677 199.214 119.325 199.302 118.944C199.361 118.533 199.434 118.123 199.522 117.712V117.624L201.678 106.668H201.722C201.781 106.316 201.84 106.023 201.898 105.788V105.744C202.045 105.099 202.118 104.38 202.118 103.588C202.148 102.796 202.06 102.239 201.854 101.916C201.444 101.3 201.312 100.625 201.458 99.892C201.605 99.1293 202.001 98.5427 202.646 98.132C202.822 97.9853 203.057 97.868 203.35 97.78C203.497 97.7507 203.746 97.736 204.098 97.736C204.48 97.7067 204.876 97.7947 205.286 98C205.433 98.0587 205.565 98.132 205.682 98.22C205.8 98.2787 205.917 98.3813 206.034 98.528C206.152 98.6453 206.225 98.7333 206.254 98.792C206.342 98.88 206.43 98.968 206.518 99.056C206.636 99.1147 206.768 99.1587 206.914 99.188H206.958C207.046 99.2173 207.149 99.2173 207.266 99.188C207.354 99.1587 207.457 99.1293 207.574 99.1C207.721 99.0707 207.882 98.9827 208.058 98.836C208.322 98.66 208.601 98.4987 208.894 98.352C209.188 98.2053 209.452 98.1027 209.686 98.044C210.126 97.8973 210.61 97.7947 211.138 97.736C211.696 97.648 212.312 97.648 212.986 97.736C214.981 98.0587 216.638 98.9387 217.958 100.376C219.308 101.813 220.144 103.617 220.466 105.788C220.613 106.199 220.818 106.521 221.082 106.756C221.317 106.961 221.61 107.079 221.962 107.108C222.314 107.137 222.769 106.961 223.326 106.58C223.649 106.345 223.957 106.067 224.25 105.744C224.544 105.421 224.837 105.055 225.13 104.644C225.541 103.999 226.113 103.617 226.846 103.5C227.609 103.353 228.313 103.485 228.958 103.896ZM207.574 114.5C208.806 114.5 209.833 114.353 210.654 114.06C211.476 113.737 212.253 113.195 212.986 112.432C213.485 111.933 213.866 111.391 214.13 110.804C214.424 110.217 214.629 109.689 214.746 109.22C214.893 108.721 214.981 108.311 215.01 107.988C215.04 107.636 215.054 107.46 215.054 107.46V107.416C215.054 106.683 214.922 105.964 214.658 105.26C214.394 104.556 213.94 103.999 213.294 103.588H213.25C213.25 103.588 213.221 103.573 213.162 103.544C212.664 103.221 212.004 103.075 211.182 103.104C210.361 103.133 209.613 103.412 208.938 103.94C208.616 104.175 208.352 104.483 208.146 104.864C207.941 105.216 207.765 105.553 207.618 105.876C207.472 106.257 207.354 106.653 207.266 107.064C207.178 107.24 207.134 107.416 207.134 107.592L207.09 107.724L206.914 108.736C206.914 108.736 206.9 108.765 206.87 108.824L206.122 112.696L206.078 112.784C206.078 112.872 206.064 113.019 206.034 113.224C206.034 113.4 206.078 113.591 206.166 113.796C206.254 113.972 206.401 114.133 206.606 114.28C206.841 114.427 207.164 114.5 207.574 114.5ZM253.628 105.436C254.391 105.583 254.948 105.964 255.3 106.58C255.681 107.196 255.813 107.885 255.696 108.648L255.124 112.212C254.86 113.415 254.449 114.5 253.892 115.468C253.335 116.407 252.66 117.213 251.868 117.888C251.105 118.563 250.24 119.091 249.272 119.472C248.304 119.824 247.277 120 246.192 120C245.488 120 244.857 119.941 244.3 119.824C244.065 119.765 243.875 119.721 243.728 119.692C243.699 119.663 243.669 119.648 243.64 119.648C243.141 119.501 242.701 119.311 242.32 119.076C241.939 118.812 241.601 118.548 241.308 118.284L241.176 118.152C240.853 117.829 240.531 117.624 240.208 117.536C239.915 117.448 239.621 117.433 239.328 117.492C239.064 117.521 238.829 117.609 238.624 117.756C238.419 117.873 238.257 117.976 238.14 118.064C238.081 118.093 238.037 118.123 238.008 118.152C238.008 118.181 237.979 118.211 237.92 118.24C237.451 118.621 237.011 118.915 236.6 119.12C236.189 119.296 235.925 119.413 235.808 119.472C234.869 119.824 233.901 120 232.904 120C231.584 120 230.367 119.765 229.252 119.296C228.167 118.797 227.213 118.123 226.392 117.272C225.6 116.392 224.969 115.351 224.5 114.148C224.06 112.945 223.84 111.64 223.84 110.232C223.84 110.056 223.855 109.675 223.884 109.088C223.943 108.472 224.089 107.739 224.324 106.888C224.559 106.037 224.925 105.128 225.424 104.16C225.923 103.163 226.612 102.209 227.492 101.3C228.401 100.42 229.311 99.7307 230.22 99.232C231.159 98.704 232.083 98.3227 232.992 98.088C233.403 98 233.872 97.8973 234.4 97.78C234.84 97.7213 235.368 97.6627 235.984 97.604C236.6 97.516 237.289 97.5013 238.052 97.56C238.551 97.5893 239.123 97.648 239.768 97.736C240.413 97.7947 241.059 97.8973 241.704 98.044C242.379 98.1613 243.039 98.3373 243.684 98.572C244.359 98.7773 244.96 99.056 245.488 99.408C245.723 99.5253 245.943 99.6867 246.148 99.892V99.936C246.647 100.376 246.984 100.933 247.16 101.608C247.365 102.283 247.351 102.972 247.116 103.676C246.94 104.145 246.691 104.556 246.368 104.908C246.075 105.26 245.723 105.539 245.312 105.744C244.901 105.949 244.461 106.081 243.992 106.14C243.552 106.169 243.097 106.111 242.628 105.964C242.041 105.788 241.572 105.495 241.22 105.084H241.176C241.176 105.055 241.161 105.04 241.132 105.04C241.132 105.04 241.132 105.025 241.132 104.996C241.044 104.908 240.853 104.761 240.56 104.556C240.296 104.321 239.944 104.101 239.504 103.896C239.064 103.661 238.536 103.471 237.92 103.324C237.333 103.177 236.659 103.133 235.896 103.192C234.957 103.251 234.136 103.441 233.432 103.764C232.728 104.087 232.053 104.571 231.408 105.216C230.909 105.715 230.513 106.257 230.22 106.844C229.956 107.431 229.751 107.973 229.604 108.472C229.487 108.941 229.413 109.352 229.384 109.704C229.355 110.027 229.34 110.188 229.34 110.188V110.232C229.34 110.672 229.384 111.112 229.472 111.552C229.589 111.992 229.751 112.417 229.956 112.828C230.191 113.209 230.469 113.547 230.792 113.84C231.144 114.104 231.569 114.295 232.068 114.412C232.948 114.588 233.769 114.529 234.532 114.236C235.177 114.001 235.779 113.532 236.336 112.828C236.893 112.095 237.245 110.936 237.392 109.352L237.48 108.912C237.509 108.853 237.524 108.809 237.524 108.78C237.524 108.721 237.539 108.663 237.568 108.604C237.715 107.841 238.081 107.24 238.668 106.8C239.284 106.36 239.973 106.199 240.736 106.316C241.499 106.463 242.1 106.844 242.54 107.46C242.98 108.047 243.141 108.721 243.024 109.484C242.995 109.631 242.965 109.763 242.936 109.88C242.936 109.968 242.936 110.085 242.936 110.232C242.936 110.467 242.965 110.833 243.024 111.332C243.083 111.801 243.215 112.271 243.42 112.74C243.655 113.209 243.977 113.62 244.388 113.972C244.828 114.324 245.429 114.5 246.192 114.5C246.808 114.5 247.321 114.368 247.732 114.104C248.172 113.84 248.524 113.532 248.788 113.18C249.052 112.828 249.257 112.461 249.404 112.08C249.551 111.669 249.653 111.332 249.712 111.068L250.372 107.592C250.519 106.829 250.9 106.243 251.516 105.832C252.161 105.421 252.865 105.289 253.628 105.436ZM274.997 105.436C275.759 105.583 276.346 105.964 276.757 106.58C277.167 107.196 277.299 107.885 277.153 108.648L276.493 112.212C276.229 113.356 275.789 114.412 275.173 115.38C274.586 116.319 273.867 117.14 273.017 117.844C272.166 118.519 271.213 119.047 270.157 119.428C269.13 119.809 268.045 120 266.901 120C265.786 120 264.715 119.824 263.689 119.472C262.691 119.12 261.767 118.621 260.917 117.976C260.095 117.331 259.391 116.568 258.805 115.688C258.218 114.808 257.778 113.855 257.485 112.828C257.397 112.535 257.309 112.315 257.221 112.168C257.162 112.021 257.118 111.933 257.089 111.904C256.942 111.728 256.751 111.611 256.517 111.552H256.297C255.886 111.523 255.578 111.655 255.373 111.948C255.167 112.212 255.035 112.447 254.977 112.652C254.918 112.769 254.874 112.916 254.845 113.092C254.815 113.239 254.771 113.371 254.713 113.488C254.038 115.512 252.938 117.111 251.413 118.284C249.917 119.428 248.171 120 246.177 120C245.414 120 244.769 119.736 244.241 119.208C243.683 118.651 243.405 117.991 243.405 117.228C243.405 116.465 243.683 115.82 244.241 115.292C244.769 114.764 245.414 114.5 246.177 114.5C246.793 114.5 247.321 114.368 247.761 114.104C248.171 113.84 248.509 113.532 248.773 113.18C249.037 112.828 249.242 112.461 249.389 112.08C249.535 111.669 249.638 111.332 249.697 111.068L250.357 107.592C250.386 107.475 250.43 107.269 250.489 106.976C250.577 106.507 250.679 105.979 250.797 105.392C250.943 104.805 251.119 104.204 251.325 103.588C251.559 102.943 251.853 102.297 252.205 101.652C252.557 101.007 252.997 100.376 253.525 99.76C254.17 99.0267 254.889 98.484 255.681 98.132C256.473 97.7507 257.221 97.4867 257.925 97.34C258.658 97.1933 259.303 97.12 259.861 97.12C260.447 97.12 260.843 97.1347 261.049 97.164C262.105 97.2227 263.043 97.4133 263.865 97.736C264.686 98.0587 265.375 98.4693 265.933 98.968C266.519 99.4373 266.989 99.98 267.341 100.596C267.693 101.183 267.942 101.769 268.089 102.356C268.353 103.383 268.382 104.395 268.177 105.392C268.001 106.389 267.619 107.313 267.033 108.164C266.945 108.252 266.871 108.355 266.813 108.472C266.754 108.501 266.71 108.531 266.681 108.56C266.681 108.589 266.666 108.619 266.637 108.648L266.593 108.692C266.241 109.073 265.845 109.396 265.405 109.66C264.994 109.924 264.671 110.115 264.437 110.232C264.437 110.261 264.422 110.276 264.393 110.276H264.349C264.349 110.276 264.29 110.305 264.173 110.364C264.055 110.423 263.938 110.511 263.821 110.628C263.703 110.745 263.586 110.892 263.469 111.068C263.439 111.097 263.381 111.229 263.293 111.464C263.234 111.669 263.234 111.919 263.293 112.212C263.351 112.505 263.513 112.828 263.777 113.18C264.041 113.503 264.495 113.811 265.141 114.104C265.258 114.163 265.346 114.192 265.405 114.192C265.815 114.397 266.314 114.5 266.901 114.5C267.869 114.5 268.749 114.177 269.541 113.532C270.333 112.857 270.846 112.036 271.081 111.068L271.785 107.592C271.931 106.829 272.313 106.243 272.929 105.832C273.545 105.421 274.234 105.289 274.997 105.436ZM260.345 106.448C261.166 106.272 261.826 105.949 262.325 105.48C262.853 105.011 263.043 104.424 262.897 103.72C262.75 103.045 262.354 102.605 261.709 102.4C261.093 102.195 260.359 102.165 259.509 102.312C258.511 102.488 257.763 102.84 257.265 103.368C256.766 103.867 256.546 104.439 256.605 105.084C256.634 105.407 256.766 105.685 257.001 105.92C257.265 106.125 257.573 106.287 257.925 106.404C258.277 106.492 258.658 106.551 259.069 106.58C259.509 106.58 259.934 106.536 260.345 106.448ZM301.28 105.436C302.043 105.583 302.6 105.964 302.952 106.58C303.334 107.196 303.466 107.885 303.348 108.648L302.776 112.212C302.512 113.415 302.102 114.5 301.544 115.468C300.987 116.407 300.312 117.213 299.52 117.888C298.758 118.563 297.892 119.091 296.924 119.472C295.956 119.824 294.93 120 293.844 120C293.14 120 292.51 119.941 291.952 119.824C291.718 119.765 291.527 119.721 291.38 119.692C291.351 119.663 291.322 119.648 291.292 119.648C290.794 119.501 290.354 119.311 289.972 119.076C289.591 118.812 289.254 118.548 288.96 118.284L288.828 118.152C288.506 117.829 288.183 117.624 287.86 117.536C287.567 117.448 287.274 117.433 286.98 117.492C286.716 117.521 286.482 117.609 286.276 117.756C286.071 117.873 285.91 117.976 285.792 118.064C285.734 118.093 285.69 118.123 285.66 118.152C285.66 118.181 285.631 118.211 285.572 118.24C285.103 118.621 284.663 118.915 284.252 119.12C283.842 119.296 283.578 119.413 283.46 119.472C282.522 119.824 281.554 120 280.556 120C279.236 120 278.019 119.765 276.904 119.296C275.819 118.797 274.866 118.123 274.044 117.272C273.252 116.392 272.622 115.351 272.152 114.148C271.712 112.945 271.492 111.64 271.492 110.232C271.492 110.056 271.507 109.675 271.536 109.088C271.595 108.472 271.742 107.739 271.976 106.888C272.211 106.037 272.578 105.128 273.076 104.16C273.575 103.163 274.264 102.209 275.144 101.3C276.054 100.42 276.963 99.7307 277.872 99.232C278.811 98.704 279.735 98.3227 280.644 98.088C281.055 98 281.524 97.8973 282.052 97.78C282.492 97.7213 283.02 97.6627 283.636 97.604C284.252 97.516 284.942 97.5013 285.704 97.56C286.203 97.5893 286.775 97.648 287.42 97.736C288.066 97.7947 288.711 97.8973 289.356 98.044C290.031 98.1613 290.691 98.3373 291.336 98.572C292.011 98.7773 292.612 99.056 293.14 99.408C293.375 99.5253 293.595 99.6867 293.8 99.892V99.936C294.299 100.376 294.636 100.933 294.812 101.608C295.018 102.283 295.003 102.972 294.768 103.676C294.592 104.145 294.343 104.556 294.02 104.908C293.727 105.26 293.375 105.539 292.964 105.744C292.554 105.949 292.114 106.081 291.644 106.14C291.204 106.169 290.75 106.111 290.28 105.964C289.694 105.788 289.224 105.495 288.872 105.084H288.828C288.828 105.055 288.814 105.04 288.784 105.04C288.784 105.04 288.784 105.025 288.784 104.996C288.696 104.908 288.506 104.761 288.212 104.556C287.948 104.321 287.596 104.101 287.156 103.896C286.716 103.661 286.188 103.471 285.572 103.324C284.986 103.177 284.311 103.133 283.548 103.192C282.61 103.251 281.788 103.441 281.084 103.764C280.38 104.087 279.706 104.571 279.06 105.216C278.562 105.715 278.166 106.257 277.872 106.844C277.608 107.431 277.403 107.973 277.256 108.472C277.139 108.941 277.066 109.352 277.036 109.704C277.007 110.027 276.992 110.188 276.992 110.188V110.232C276.992 110.672 277.036 111.112 277.124 111.552C277.242 111.992 277.403 112.417 277.608 112.828C277.843 113.209 278.122 113.547 278.444 113.84C278.796 114.104 279.222 114.295 279.72 114.412C280.6 114.588 281.422 114.529 282.184 114.236C282.83 114.001 283.431 113.532 283.988 112.828C284.546 112.095 284.898 110.936 285.044 109.352L285.132 108.912C285.162 108.853 285.176 108.809 285.176 108.78C285.176 108.721 285.191 108.663 285.22 108.604C285.367 107.841 285.734 107.24 286.32 106.8C286.936 106.36 287.626 106.199 288.388 106.316C289.151 106.463 289.752 106.844 290.192 107.46C290.632 108.047 290.794 108.721 290.676 109.484C290.647 109.631 290.618 109.763 290.588 109.88C290.588 109.968 290.588 110.085 290.588 110.232C290.588 110.467 290.618 110.833 290.676 111.332C290.735 111.801 290.867 112.271 291.072 112.74C291.307 113.209 291.63 113.62 292.04 113.972C292.48 114.324 293.082 114.5 293.844 114.5C294.46 114.5 294.974 114.368 295.384 114.104C295.824 113.84 296.176 113.532 296.44 113.18C296.704 112.828 296.91 112.461 297.056 112.08C297.203 111.669 297.306 111.332 297.364 111.068L298.024 107.592C298.171 106.829 298.552 106.243 299.168 105.832C299.814 105.421 300.518 105.289 301.28 105.436ZM113.999 152.064C114.439 152.68 114.586 153.369 114.439 154.132C114.322 154.865 113.955 155.452 113.339 155.892C112.225 156.684 111.066 157.344 109.863 157.872C108.661 158.4 107.502 158.84 106.387 159.192H106.299C105.713 159.397 105.361 159.705 105.243 160.116C105.155 160.527 105.126 160.835 105.155 161.04V161.128V161.216C105.39 162.595 105.39 164.164 105.155 165.924C104.921 167.831 104.363 169.532 103.483 171.028C102.603 172.553 101.533 173.683 100.271 174.416C99.2447 175.003 98.174 175.296 97.0593 175.296C96.1207 175.296 95.2553 175.105 94.4633 174.724C93.0847 174.137 92.102 173.257 91.5153 172.084C90.9287 170.911 90.606 169.561 90.5473 168.036C90.4593 166.54 90.562 164.941 90.8553 163.24C91.1193 161.509 91.4127 159.808 91.7353 158.136L92.7913 152.548C93.0553 150.759 93.334 149.043 93.6273 147.4C93.7447 146.696 93.8767 145.977 94.0233 145.244C94.17 144.511 94.3167 143.792 94.4633 143.088C94.61 142.384 94.7567 141.724 94.9033 141.108C95.0793 140.492 95.2407 139.949 95.3873 139.48C95.798 138.16 96.3553 136.869 97.0593 135.608C97.7927 134.347 98.7313 133.379 99.8753 132.704C100.491 132.352 101.283 132.103 102.251 131.956C103.249 131.78 104.393 131.971 105.683 132.528C105.918 132.645 106.182 132.821 106.475 133.056C106.798 133.291 107.091 133.613 107.355 134.024C107.619 134.405 107.839 134.889 108.015 135.476C108.221 136.063 108.338 136.767 108.367 137.588C108.397 138.761 108.235 140.081 107.883 141.548C107.531 143.015 107.018 144.525 106.343 146.08C106.255 146.256 106.094 146.579 105.859 147.048C105.625 147.488 105.317 148.016 104.935 148.632C104.554 149.248 104.099 149.893 103.571 150.568C103.043 151.243 102.471 151.888 101.855 152.504C101.738 152.651 101.621 152.797 101.503 152.944C101.415 153.091 101.342 153.252 101.283 153.428C101.225 153.604 101.225 153.78 101.283 153.956C101.371 154.308 101.621 154.513 102.031 154.572C102.442 154.631 102.882 154.601 103.351 154.484C103.762 154.367 104.158 154.235 104.539 154.088C104.95 153.941 105.361 153.78 105.771 153.604C106.505 153.34 107.238 153.032 107.971 152.68C108.734 152.328 109.467 151.903 110.171 151.404C110.787 150.964 111.462 150.817 112.195 150.964C112.958 151.081 113.559 151.448 113.999 152.064ZM99.7873 164.296C99.9633 162.8 99.8753 161.627 99.5233 160.776C99.2007 159.925 98.702 159.559 98.0273 159.676C97.822 159.705 97.6313 159.808 97.4553 159.984C97.3087 160.16 97.1767 160.365 97.0593 160.6C96.9713 160.805 96.8833 161.025 96.7953 161.26C96.7367 161.465 96.6927 161.627 96.6633 161.744V161.788C96.6633 161.817 96.6487 161.832 96.6193 161.832C96.6193 161.832 96.6193 161.847 96.6193 161.876C96.3847 163.372 96.2233 164.604 96.1353 165.572C96.0473 166.54 96.0033 167.317 96.0033 167.904C96.0327 168.491 96.0913 168.916 96.1793 169.18C96.2967 169.444 96.4287 169.605 96.5753 169.664C96.81 169.752 96.986 169.781 97.1033 169.752C97.2207 169.752 97.3527 169.708 97.4993 169.62C97.9393 169.385 98.3793 168.872 98.8193 168.08C99.2593 167.288 99.5527 166.335 99.6993 165.22C99.7287 165.044 99.7433 164.883 99.7433 164.736C99.7433 164.589 99.758 164.443 99.7873 164.296ZM98.8193 148.632C98.9953 148.691 99.186 148.603 99.3913 148.368C99.626 148.133 99.8753 147.781 100.139 147.312C100.433 146.813 100.726 146.241 101.019 145.596C101.342 144.921 101.679 144.188 102.031 143.396C102.354 142.633 102.618 141.9 102.823 141.196C103.058 140.463 103.205 139.832 103.263 139.304C103.351 138.747 103.351 138.292 103.263 137.94C103.205 137.559 103.043 137.339 102.779 137.28C102.222 137.163 101.65 137.617 101.063 138.644C100.506 139.641 100.007 140.947 99.5673 142.56C99.3327 143.352 99.1273 144.1 98.9513 144.804C98.8047 145.508 98.6873 146.139 98.5993 146.696C98.5407 147.253 98.5113 147.708 98.5113 148.06C98.5407 148.383 98.6433 148.573 98.8193 148.632ZM138.901 150.436C139.664 150.583 140.221 150.964 140.573 151.58C140.955 152.196 141.087 152.885 140.969 153.648L140.397 157.212C140.133 158.415 139.723 159.5 139.165 160.468C138.608 161.407 137.933 162.213 137.141 162.888C136.379 163.563 135.513 164.091 134.545 164.472C133.577 164.824 132.551 165 131.465 165C130.761 165 130.131 164.941 129.573 164.824C129.339 164.765 129.148 164.721 129.001 164.692C128.972 164.663 128.943 164.648 128.913 164.648C128.415 164.501 127.975 164.311 127.593 164.076C127.212 163.812 126.875 163.548 126.581 163.284L126.449 163.152C126.127 162.829 125.804 162.624 125.481 162.536C125.188 162.448 124.895 162.433 124.601 162.492C124.337 162.521 124.103 162.609 123.897 162.756C123.692 162.873 123.531 162.976 123.413 163.064C123.355 163.093 123.311 163.123 123.281 163.152C123.281 163.181 123.252 163.211 123.193 163.24C122.724 163.621 122.284 163.915 121.873 164.12C121.463 164.296 121.199 164.413 121.081 164.472C120.143 164.824 119.175 165 118.177 165C116.857 165 115.64 164.765 114.525 164.296C113.44 163.797 112.487 163.123 111.665 162.272C110.873 161.392 110.243 160.351 109.773 159.148C109.333 157.945 109.113 156.64 109.113 155.232C109.113 155.056 109.128 154.675 109.157 154.088C109.216 153.472 109.363 152.739 109.597 151.888C109.832 151.037 110.199 150.128 110.697 149.16C111.196 148.163 111.885 147.209 112.765 146.3C113.675 145.42 114.584 144.731 115.493 144.232C116.432 143.704 117.356 143.323 118.265 143.088C118.676 143 119.145 142.897 119.673 142.78C120.113 142.721 120.641 142.663 121.257 142.604C121.873 142.516 122.563 142.501 123.325 142.56C123.824 142.589 124.396 142.648 125.041 142.736C125.687 142.795 126.332 142.897 126.977 143.044C127.652 143.161 128.312 143.337 128.957 143.572C129.632 143.777 130.233 144.056 130.761 144.408C130.996 144.525 131.216 144.687 131.421 144.892V144.936C131.92 145.376 132.257 145.933 132.433 146.608C132.639 147.283 132.624 147.972 132.389 148.676C132.213 149.145 131.964 149.556 131.641 149.908C131.348 150.26 130.996 150.539 130.585 150.744C130.175 150.949 129.735 151.081 129.265 151.14C128.825 151.169 128.371 151.111 127.901 150.964C127.315 150.788 126.845 150.495 126.493 150.084H126.449C126.449 150.055 126.435 150.04 126.405 150.04C126.405 150.04 126.405 150.025 126.405 149.996C126.317 149.908 126.127 149.761 125.833 149.556C125.569 149.321 125.217 149.101 124.777 148.896C124.337 148.661 123.809 148.471 123.193 148.324C122.607 148.177 121.932 148.133 121.169 148.192C120.231 148.251 119.409 148.441 118.705 148.764C118.001 149.087 117.327 149.571 116.681 150.216C116.183 150.715 115.787 151.257 115.493 151.844C115.229 152.431 115.024 152.973 114.877 153.472C114.76 153.941 114.687 154.352 114.657 154.704C114.628 155.027 114.613 155.188 114.613 155.188V155.232C114.613 155.672 114.657 156.112 114.745 156.552C114.863 156.992 115.024 157.417 115.229 157.828C115.464 158.209 115.743 158.547 116.065 158.84C116.417 159.104 116.843 159.295 117.341 159.412C118.221 159.588 119.043 159.529 119.805 159.236C120.451 159.001 121.052 158.532 121.609 157.828C122.167 157.095 122.519 155.936 122.665 154.352L122.753 153.912C122.783 153.853 122.797 153.809 122.797 153.78C122.797 153.721 122.812 153.663 122.841 153.604C122.988 152.841 123.355 152.24 123.941 151.8C124.557 151.36 125.247 151.199 126.009 151.316C126.772 151.463 127.373 151.844 127.813 152.46C128.253 153.047 128.415 153.721 128.297 154.484C128.268 154.631 128.239 154.763 128.209 154.88C128.209 154.968 128.209 155.085 128.209 155.232C128.209 155.467 128.239 155.833 128.297 156.332C128.356 156.801 128.488 157.271 128.693 157.74C128.928 158.209 129.251 158.62 129.661 158.972C130.101 159.324 130.703 159.5 131.465 159.5C132.081 159.5 132.595 159.368 133.005 159.104C133.445 158.84 133.797 158.532 134.061 158.18C134.325 157.828 134.531 157.461 134.677 157.08C134.824 156.669 134.927 156.332 134.985 156.068L135.645 152.592C135.792 151.829 136.173 151.243 136.789 150.832C137.435 150.421 138.139 150.289 138.901 150.436ZM173.822 150.392C174.585 150.539 175.171 150.935 175.582 151.58C176.022 152.196 176.169 152.871 176.022 153.604L175.318 157.168C175.054 158.341 174.658 159.397 174.13 160.336C173.602 161.275 172.957 162.096 172.194 162.8C171.431 163.475 170.566 164.003 169.598 164.384C168.659 164.736 167.662 164.927 166.606 164.956H166.386C165.535 164.956 164.773 164.883 164.098 164.736C163.423 164.56 162.822 164.34 162.294 164.076C161.795 163.812 161.355 163.519 160.974 163.196C160.622 162.873 160.329 162.551 160.094 162.228C159.478 161.436 159.053 160.585 158.818 159.676C158.583 158.737 158.466 157.872 158.466 157.08C158.466 156.288 158.51 155.613 158.598 155.056C158.715 154.469 158.789 154.117 158.818 154L158.95 153.428C158.979 153.281 159.038 153.047 159.126 152.724C159.243 152.372 159.346 151.991 159.434 151.58C159.551 151.14 159.625 150.715 159.654 150.304C159.683 149.893 159.654 149.541 159.566 149.248C159.449 148.984 159.302 148.764 159.126 148.588C158.979 148.412 158.833 148.28 158.686 148.192C158.51 148.075 158.319 148.001 158.114 147.972C157.498 147.855 156.941 147.913 156.442 148.148C155.973 148.353 155.665 148.515 155.518 148.632C155.459 148.691 155.401 148.749 155.342 148.808C155.283 148.837 155.225 148.881 155.166 148.94C154.785 149.321 154.433 149.791 154.11 150.348C153.817 150.876 153.553 151.448 153.318 152.064C153.113 152.651 152.922 153.223 152.746 153.78C152.599 154.337 152.482 154.807 152.394 155.188C152.306 155.628 152.233 156.053 152.174 156.464C152.115 156.816 152.057 157.197 151.998 157.608C151.969 157.989 151.954 158.327 151.954 158.62C151.925 159.207 151.925 159.676 151.954 160.028C151.983 160.351 151.954 160.673 151.866 160.996C151.807 161.172 151.763 161.289 151.734 161.348C151.587 161.817 151.367 162.228 151.074 162.58C150.781 162.932 150.429 163.211 150.018 163.416C149.637 163.592 149.211 163.709 148.742 163.768C148.302 163.797 147.862 163.739 147.422 163.592C146.63 163.328 146.014 162.859 145.574 162.184C145.163 161.48 145.002 160.732 145.09 159.94V159.896C145.119 159.632 145.207 159.251 145.354 158.752C145.53 158.253 145.779 157.711 146.102 157.124C146.307 156.713 146.483 156.215 146.63 155.628C146.806 155.012 146.938 154.484 147.026 154.044L147.422 152.108C147.422 151.991 147.451 151.785 147.51 151.492C147.569 151.199 147.598 150.876 147.598 150.524C147.627 150.143 147.613 149.761 147.554 149.38C147.495 148.999 147.363 148.676 147.158 148.412C146.982 148.207 146.777 148.045 146.542 147.928C146.337 147.811 146.117 147.737 145.882 147.708C145.677 147.649 145.486 147.635 145.31 147.664C145.134 147.664 145.002 147.664 144.914 147.664C144.533 147.752 144.137 147.913 143.726 148.148C143.345 148.383 142.993 148.749 142.67 149.248C142.289 149.776 141.981 150.377 141.746 151.052C141.511 151.727 141.321 152.357 141.174 152.944C140.998 153.648 140.851 154.352 140.734 155.056L140.294 157.212C140.03 158.356 139.59 159.412 138.974 160.38C138.387 161.319 137.669 162.14 136.818 162.844C135.997 163.519 135.073 164.047 134.046 164.428C132.99 164.809 131.89 165 130.746 165C129.983 165 129.338 164.736 128.81 164.208C128.253 163.68 127.974 163.035 127.974 162.272C127.974 161.509 128.253 160.864 128.81 160.336C129.338 159.779 129.983 159.5 130.746 159.5C131.714 159.5 132.594 159.177 133.386 158.532C134.178 157.887 134.691 157.065 134.926 156.068L135.058 155.364L135.542 152.856L135.718 151.8C135.953 150.539 136.011 149.453 135.894 148.544C135.806 147.635 135.689 146.96 135.542 146.52C135.513 146.461 135.483 146.388 135.454 146.3C135.425 146.212 135.41 146.139 135.41 146.08H135.366C135.249 145.523 135.293 144.98 135.498 144.452C135.703 143.895 136.055 143.455 136.554 143.132C137.023 142.809 137.522 142.663 138.05 142.692C138.607 142.692 139.106 142.839 139.546 143.132C139.575 143.161 139.619 143.205 139.678 143.264C139.766 143.293 139.854 143.367 139.942 143.484C140.059 143.601 140.133 143.689 140.162 143.748C140.279 143.836 140.397 143.939 140.514 144.056C140.661 144.144 140.822 144.203 140.998 144.232C141.203 144.261 141.394 144.247 141.57 144.188C141.746 144.1 141.893 144.012 142.01 143.924C142.127 143.807 142.215 143.733 142.274 143.704H142.318C142.465 143.557 142.641 143.425 142.846 143.308C143.081 143.191 143.315 143.073 143.55 142.956C144.694 142.545 145.867 142.413 147.07 142.56C147.187 142.56 147.275 142.575 147.334 142.604C147.51 142.633 147.745 142.692 148.038 142.78C148.361 142.868 148.683 143 149.006 143.176C149.358 143.352 149.71 143.587 150.062 143.88C150.414 144.144 150.722 144.496 150.986 144.936C151.25 145.376 151.426 145.875 151.514 146.432C151.807 145.904 152.174 145.405 152.614 144.936C152.995 144.525 153.45 144.129 153.978 143.748C154.506 143.337 155.151 143.015 155.914 142.78C155.943 142.751 155.987 142.736 156.046 142.736L156.574 142.604C157.894 142.311 159.229 142.384 160.578 142.824C162.485 143.499 163.805 144.672 164.538 146.344C164.89 147.077 165.095 147.825 165.154 148.588C165.242 149.351 165.257 150.069 165.198 150.744C165.139 151.419 165.037 152.02 164.89 152.548C164.743 153.047 164.626 153.413 164.538 153.648L164.142 155.32C164.083 155.555 164.039 155.804 164.01 156.068C163.981 156.332 163.966 156.611 163.966 156.904C163.966 157.051 163.995 157.285 164.054 157.608C164.113 157.901 164.245 158.195 164.45 158.488C164.655 158.781 164.949 159.031 165.33 159.236C165.741 159.412 166.283 159.471 166.958 159.412C167.486 159.324 167.926 159.148 168.278 158.884C168.63 158.591 168.923 158.283 169.158 157.96C169.393 157.608 169.569 157.256 169.686 156.904C169.803 156.552 169.891 156.259 169.95 156.024L170.61 152.592C170.757 151.829 171.138 151.243 171.754 150.832C172.399 150.392 173.089 150.245 173.822 150.392ZM186.272 150.436C187.034 150.583 187.592 150.964 187.944 151.58C188.296 152.196 188.398 152.885 188.252 153.648L187.768 157.212C187.504 158.415 187.093 159.5 186.536 160.468C185.978 161.407 185.318 162.213 184.556 162.888C183.793 163.563 182.913 164.091 181.916 164.472C180.948 164.824 179.921 165 178.836 165C176.313 165 174.274 164.179 172.72 162.536C171.869 161.627 171.238 160.541 170.828 159.28C170.446 158.019 170.285 156.611 170.344 155.056L170.388 154.924C170.388 154.777 170.388 154.616 170.388 154.44C170.388 154.264 170.402 154.073 170.432 153.868C170.578 152.049 170.74 150.524 170.916 149.292C171.092 148.031 171.253 147.077 171.4 146.432C171.546 145.904 171.766 145.303 172.06 144.628C172.382 143.924 172.866 143.411 173.512 143.088L173.776 142.956C174.597 142.663 175.389 142.648 176.152 142.912C176.68 143.059 177.12 143.323 177.472 143.704C177.853 144.056 178.146 144.481 178.352 144.98C178.469 145.332 178.513 145.699 178.484 146.08C178.454 146.461 178.381 146.828 178.264 147.18C178.176 147.532 178.073 147.855 177.956 148.148C177.838 148.441 177.736 148.661 177.648 148.808C177.618 148.837 177.604 148.867 177.604 148.896C177.604 148.925 177.589 148.955 177.56 148.984C177.384 149.307 177.193 149.732 176.988 150.26C176.782 150.788 176.577 151.433 176.372 152.196L176.064 153.868C176.034 154.015 176.005 154.147 175.976 154.264C175.976 154.352 175.961 154.455 175.932 154.572C175.902 154.631 175.888 154.719 175.888 154.836C175.888 154.953 175.888 155.071 175.888 155.188L175.844 155.364C175.814 156.127 175.873 156.801 176.02 157.388C176.166 157.975 176.401 158.429 176.724 158.752C177.222 159.251 177.926 159.5 178.836 159.5C179.452 159.5 179.965 159.368 180.376 159.104C180.816 158.84 181.168 158.532 181.432 158.18C181.725 157.828 181.945 157.461 182.092 157.08C182.238 156.669 182.341 156.332 182.4 156.068L183.06 152.592C183.206 151.829 183.588 151.243 184.204 150.832C184.82 150.421 185.509 150.289 186.272 150.436ZM174.26 140.404C173.82 140.111 173.512 139.729 173.336 139.26C173.189 138.761 173.174 138.277 173.292 137.808C173.438 137.339 173.673 136.987 173.996 136.752C174.348 136.517 174.714 136.356 175.096 136.268C175.77 136.121 176.313 135.769 176.724 135.212C177.134 134.625 177.501 134.039 177.824 133.452C177.882 133.276 177.956 133.173 178.044 133.144C178.132 133.115 178.205 133.027 178.264 132.88C178.41 132.675 178.616 132.513 178.88 132.396C179.144 132.249 179.422 132.161 179.716 132.132C180.038 132.073 180.346 132.073 180.64 132.132C180.933 132.161 181.182 132.235 181.388 132.352C181.769 132.557 182.048 132.792 182.224 133.056C182.429 133.291 182.561 133.525 182.62 133.76C182.708 133.995 182.737 134.229 182.708 134.464C182.708 134.699 182.693 134.889 182.664 135.036C182.576 136.033 182.268 136.943 181.74 137.764C181.212 138.556 180.522 139.245 179.672 139.832C178.733 140.272 177.794 140.536 176.856 140.624C175.917 140.683 175.052 140.609 174.26 140.404ZM201.327 150.436C202.089 150.583 202.647 150.964 202.999 151.58C203.38 152.196 203.497 152.885 203.351 153.648L202.779 157.212C202.544 158.356 202.119 159.412 201.503 160.38C200.916 161.319 200.197 162.14 199.347 162.844C198.496 163.519 197.543 164.047 196.487 164.428C195.46 164.809 194.375 165 193.231 165C191.793 165 190.415 164.721 189.095 164.164C187.775 163.577 186.616 162.771 185.619 161.744C184.68 160.747 183.976 159.617 183.507 158.356C183.037 157.065 182.832 155.716 182.891 154.308V154.132C182.92 153.927 182.935 153.721 182.935 153.516C182.935 153.281 182.964 153.047 183.023 152.812L183.067 152.636L183.639 149.776C183.756 149.16 183.859 148.515 183.947 147.84C184.035 147.165 184.123 146.505 184.211 145.86C184.299 145.185 184.372 144.569 184.431 144.012C184.489 143.455 184.548 142.971 184.607 142.56C184.636 142.413 184.651 142.252 184.651 142.076C184.651 141.9 184.665 141.724 184.695 141.548C184.783 140.903 184.9 140.228 185.047 139.524C185.223 138.82 185.443 138.131 185.707 137.456C185.971 136.752 186.293 136.092 186.675 135.476C187.085 134.86 187.569 134.303 188.127 133.804C189.74 132.396 191.72 131.897 194.067 132.308C195.211 132.543 196.164 133.071 196.927 133.892C197.689 134.684 198.144 135.696 198.291 136.928C198.437 138.072 198.291 139.26 197.851 140.492C197.851 140.551 197.836 140.595 197.807 140.624C197.601 141.211 197.337 141.797 197.015 142.384C196.721 142.941 196.369 143.499 195.959 144.056C195.401 144.76 194.8 145.391 194.155 145.948C193.539 146.476 192.937 146.945 192.351 147.356C191.559 147.972 190.943 148.559 190.503 149.116C190.121 149.497 189.784 149.937 189.491 150.436C189.168 151.023 188.963 151.477 188.875 151.8C188.757 152.181 188.655 152.563 188.567 152.944C188.508 153.267 188.449 153.633 188.391 154.044C188.332 154.455 188.332 154.851 188.391 155.232H188.435C188.493 155.877 188.64 156.435 188.875 156.904C189.109 157.344 189.359 157.696 189.623 157.96C190.591 158.987 191.793 159.5 193.231 159.5C194.228 159.5 195.108 159.177 195.871 158.532C196.663 157.887 197.176 157.065 197.411 156.068L198.071 152.592C198.217 151.829 198.599 151.243 199.215 150.832C199.86 150.421 200.564 150.289 201.327 150.436ZM189.843 139.48C189.491 140.243 189.256 140.976 189.139 141.68C189.021 142.384 189.153 142.839 189.535 143.044C189.916 143.279 190.4 143.191 190.987 142.78C191.573 142.34 192.101 141.768 192.571 141.064C193.069 140.301 193.348 139.597 193.407 138.952C193.495 138.277 193.289 137.808 192.791 137.544C192.263 137.28 191.735 137.339 191.207 137.72C190.708 138.072 190.253 138.659 189.843 139.48ZM208.625 138.292C208.273 139.377 207.598 140.169 206.601 140.668C205.633 141.167 204.621 141.255 203.565 140.932C203.037 140.756 202.582 140.492 202.201 140.14C201.819 139.788 201.511 139.377 201.277 138.908C201.042 138.439 200.895 137.94 200.837 137.412C200.807 136.884 200.881 136.356 201.057 135.828C201.409 134.743 202.069 133.951 203.037 133.452C204.034 132.953 205.061 132.88 206.117 133.232C206.645 133.408 207.099 133.672 207.481 134.024C207.862 134.347 208.17 134.743 208.405 135.212C208.639 135.681 208.771 136.18 208.801 136.708C208.859 137.236 208.801 137.764 208.625 138.292ZM213.729 150.436C214.491 150.583 215.049 150.964 215.401 151.58C215.753 152.196 215.855 152.885 215.709 153.648L215.225 157.212C214.961 158.415 214.55 159.5 213.993 160.468C213.435 161.407 212.775 162.213 212.013 162.888C211.25 163.563 210.37 164.091 209.373 164.472C208.405 164.824 207.378 165 206.293 165C203.77 165 201.731 164.179 200.177 162.536C199.326 161.627 198.695 160.541 198.285 159.28C197.903 158.019 197.742 156.611 197.801 155.056L197.845 154.924C197.845 154.777 197.845 154.616 197.845 154.44C197.845 154.264 197.859 154.073 197.889 153.868C198.035 152.049 198.197 150.524 198.373 149.292C198.549 148.031 198.71 147.077 198.857 146.432C199.003 145.904 199.223 145.303 199.517 144.628C199.839 143.924 200.323 143.411 200.969 143.088L201.233 142.956C202.054 142.663 202.846 142.648 203.609 142.912C204.137 143.059 204.577 143.323 204.929 143.704C205.31 144.056 205.603 144.481 205.809 144.98C205.926 145.332 205.97 145.699 205.941 146.08C205.911 146.461 205.838 146.828 205.721 147.18C205.633 147.532 205.53 147.855 205.413 148.148C205.295 148.441 205.193 148.661 205.105 148.808C205.075 148.837 205.061 148.867 205.061 148.896C205.061 148.925 205.046 148.955 205.017 148.984C204.841 149.307 204.65 149.732 204.445 150.26C204.239 150.788 204.034 151.433 203.829 152.196L203.521 153.868C203.491 154.015 203.462 154.147 203.433 154.264C203.433 154.352 203.418 154.455 203.389 154.572C203.359 154.631 203.345 154.719 203.345 154.836C203.345 154.953 203.345 155.071 203.345 155.188L203.301 155.364C203.271 156.127 203.33 156.801 203.477 157.388C203.623 157.975 203.858 158.429 204.181 158.752C204.679 159.251 205.383 159.5 206.293 159.5C206.909 159.5 207.422 159.368 207.833 159.104C208.273 158.84 208.625 158.532 208.889 158.18C209.182 157.828 209.402 157.461 209.549 157.08C209.695 156.669 209.798 156.332 209.857 156.068L210.517 152.592C210.663 151.829 211.045 151.243 211.661 150.832C212.277 150.421 212.966 150.289 213.729 150.436ZM239.964 150.436C240.726 150.583 241.284 150.964 241.636 151.58C242.017 152.196 242.149 152.885 242.032 153.648L241.46 157.212C241.196 158.415 240.785 159.5 240.228 160.468C239.67 161.407 238.996 162.213 238.204 162.888C237.441 163.563 236.576 164.091 235.608 164.472C234.64 164.824 233.613 165 232.528 165C231.824 165 231.193 164.941 230.636 164.824C230.401 164.765 230.21 164.721 230.064 164.692C230.034 164.663 230.005 164.648 229.976 164.648C229.477 164.501 229.037 164.311 228.656 164.076C228.274 163.812 227.937 163.548 227.644 163.284L227.512 163.152C227.189 162.829 226.866 162.624 226.544 162.536C226.25 162.448 225.957 162.433 225.664 162.492C225.4 162.521 225.165 162.609 224.96 162.756C224.754 162.873 224.593 162.976 224.476 163.064C224.417 163.093 224.373 163.123 224.344 163.152C224.344 163.181 224.314 163.211 224.256 163.24C223.786 163.621 223.346 163.915 222.936 164.12C222.525 164.296 222.261 164.413 222.144 164.472C221.205 164.824 220.237 165 219.24 165C217.92 165 216.702 164.765 215.588 164.296C214.502 163.797 213.549 163.123 212.728 162.272C211.936 161.392 211.305 160.351 210.836 159.148C210.396 157.945 210.176 156.64 210.176 155.232C210.176 155.056 210.19 154.675 210.22 154.088C210.278 153.472 210.425 152.739 210.66 151.888C210.894 151.037 211.261 150.128 211.76 149.16C212.258 148.163 212.948 147.209 213.828 146.3C214.737 145.42 215.646 144.731 216.556 144.232C217.494 143.704 218.418 143.323 219.328 143.088C219.738 143 220.208 142.897 220.736 142.78C221.176 142.721 221.704 142.663 222.32 142.604C222.936 142.516 223.625 142.501 224.388 142.56C224.886 142.589 225.458 142.648 226.104 142.736C226.749 142.795 227.394 142.897 228.04 143.044C228.714 143.161 229.374 143.337 230.02 143.572C230.694 143.777 231.296 144.056 231.824 144.408C232.058 144.525 232.278 144.687 232.484 144.892V144.936C232.982 145.376 233.32 145.933 233.496 146.608C233.701 147.283 233.686 147.972 233.452 148.676C233.276 149.145 233.026 149.556 232.704 149.908C232.41 150.26 232.058 150.539 231.648 150.744C231.237 150.949 230.797 151.081 230.328 151.14C229.888 151.169 229.433 151.111 228.964 150.964C228.377 150.788 227.908 150.495 227.556 150.084H227.512C227.512 150.055 227.497 150.04 227.468 150.04C227.468 150.04 227.468 150.025 227.468 149.996C227.38 149.908 227.189 149.761 226.896 149.556C226.632 149.321 226.28 149.101 225.84 148.896C225.4 148.661 224.872 148.471 224.256 148.324C223.669 148.177 222.994 148.133 222.232 148.192C221.293 148.251 220.472 148.441 219.768 148.764C219.064 149.087 218.389 149.571 217.744 150.216C217.245 150.715 216.849 151.257 216.556 151.844C216.292 152.431 216.086 152.973 215.94 153.472C215.822 153.941 215.749 154.352 215.72 154.704C215.69 155.027 215.676 155.188 215.676 155.188V155.232C215.676 155.672 215.72 156.112 215.808 156.552C215.925 156.992 216.086 157.417 216.292 157.828C216.526 158.209 216.805 158.547 217.128 158.84C217.48 159.104 217.905 159.295 218.404 159.412C219.284 159.588 220.105 159.529 220.868 159.236C221.513 159.001 222.114 158.532 222.672 157.828C223.229 157.095 223.581 155.936 223.728 154.352L223.816 153.912C223.845 153.853 223.86 153.809 223.86 153.78C223.86 153.721 223.874 153.663 223.904 153.604C224.05 152.841 224.417 152.24 225.004 151.8C225.62 151.36 226.309 151.199 227.072 151.316C227.834 151.463 228.436 151.844 228.876 152.46C229.316 153.047 229.477 153.721 229.36 154.484C229.33 154.631 229.301 154.763 229.272 154.88C229.272 154.968 229.272 155.085 229.272 155.232C229.272 155.467 229.301 155.833 229.36 156.332C229.418 156.801 229.55 157.271 229.756 157.74C229.99 158.209 230.313 158.62 230.724 158.972C231.164 159.324 231.765 159.5 232.528 159.5C233.144 159.5 233.657 159.368 234.068 159.104C234.508 158.84 234.86 158.532 235.124 158.18C235.388 157.828 235.593 157.461 235.74 157.08C235.886 156.669 235.989 156.332 236.048 156.068L236.708 152.592C236.854 151.829 237.236 151.243 237.852 150.832C238.497 150.421 239.201 150.289 239.964 150.436Z" fill="white"/>
<path d="M11.6976 155.04C11.2008 154.827 10.6922 154.65 10.29 154.508C9.95885 154.271 9.58035 154.082 9.20186 153.904C9.03627 153.822 8.8825 153.751 8.74057 153.68C6.1739 152.26 2.80293 153.088 1.06422 155.584C-0.650831 158.056 -0.248681 161.581 1.95132 163.438C3.34702 164.621 5.18035 165.437 7.21476 165.803C7.40401 165.851 7.59325 165.874 7.77067 165.886L8.50401 165.957C8.50401 165.957 8.52766 165.957 8.53949 165.957C8.55132 165.957 8.56315 165.957 8.57498 165.957L8.85885 166.004C9.11906 166.052 9.37928 166.111 9.63949 166.182L9.81691 166.229L9.99433 165.661V166.276C10.1126 166.324 10.2664 166.407 10.4911 166.383C11.0234 166.513 11.5556 166.584 12.0642 166.584C13.8266 166.584 15.3524 165.792 16.3578 164.337C17.8954 162.125 17.5642 159.109 15.589 157.311C14.3943 156.223 13.1169 155.631 11.6857 155.028L11.6976 155.04ZM10.3137 164.289C10.3137 164.289 10.2072 164.266 10.1481 164.266C10.1126 164.266 10.089 164.266 10.0535 164.266C9.78143 164.195 9.50938 164.136 9.19003 164.076L7.94809 163.923C7.85347 163.923 7.74702 163.899 7.61691 163.875C5.8782 163.568 4.36422 162.894 3.22874 161.936C1.7739 160.706 1.53734 158.352 2.68465 156.696C3.83196 155.052 6.12659 154.472 7.79433 155.395C7.95992 155.489 8.14917 155.584 8.35024 155.679C8.65777 155.832 9.01261 155.998 9.27282 156.199L9.48573 156.317C9.97067 156.483 10.4556 156.66 10.9287 156.861C12.1825 157.394 13.3062 157.902 14.276 158.789C15.5298 159.925 15.7309 161.853 14.761 163.249C13.7911 164.644 12.2062 165.023 10.3019 164.301L10.3137 164.289Z" fill="#F85600"/>
<path d="M34.5492 136.884C33.8277 135.961 33.0352 135.086 32.1954 134.187C32.1008 134.093 31.9707 133.951 31.8879 133.856C31.6986 133.572 31.5449 133.359 31.3911 133.217C30.5631 131.727 29.3449 130.627 27.961 130.13C26.5889 129.633 25.0986 129.728 23.6674 130.402C22.2363 131.076 21.2072 132.165 20.7223 133.525C20.1664 135.098 20.3201 136.943 21.1717 138.717C21.9406 140.35 23.2535 141.911 25.1814 143.496L25.489 143.744C25.69 143.898 25.8793 144.064 26.0803 144.229C26.3879 144.501 26.6126 144.69 26.7782 144.809C26.8965 144.939 27.0148 145.057 27.133 145.187C27.5352 145.637 27.9492 146.086 28.3868 146.394C29.2266 147.174 30.3976 147.624 31.6277 147.624C32.1126 147.624 32.5739 147.553 33.0234 147.423C34.5373 146.985 35.661 145.873 36.1341 144.383C36.1459 144.359 36.1578 144.324 36.1696 144.288L36.2051 144.135C36.4416 143.389 36.6191 142.147 36.6191 142.029C36.5954 141.308 36.4535 140.444 36.2406 139.782C35.8857 138.646 35.1524 137.629 34.561 136.872L34.5492 136.884ZM27.9373 143.247C27.8309 143.165 27.4287 142.822 27.3814 142.763C27.3814 142.763 27.3814 142.763 27.3696 142.751C27.1803 142.585 26.9911 142.431 26.7309 142.218L26.4352 141.97C24.7438 140.586 23.5965 139.238 22.9578 137.878C22.3309 136.565 22.2008 135.252 22.5911 134.175C22.9105 133.3 23.561 132.614 24.5309 132.165C25.5008 131.715 26.4352 131.644 27.3223 131.964C28.3986 132.354 29.3212 133.288 29.9363 134.601C29.9836 134.72 30.1019 134.79 30.2201 134.85C30.2793 134.932 30.3384 135.015 30.3857 135.086C30.3976 135.098 30.4685 135.181 30.4803 135.193C30.5513 135.264 30.7287 135.453 30.8707 135.607C31.5922 136.387 32.3492 137.215 33.0352 138.09C33.532 138.717 34.1234 139.533 34.3836 140.373C34.5492 140.882 34.6556 141.544 34.6674 142.053C34.6674 142.218 34.4664 143.046 34.3126 143.65C34.076 144.584 33.4019 145.27 32.4911 145.542C31.5094 145.826 30.4094 145.589 29.6406 144.88C29.2739 144.62 28.9427 144.253 28.5997 143.874C28.4459 143.697 28.2922 143.531 28.1266 143.354C28.0793 143.307 28.032 143.271 27.9728 143.236L27.9373 143.247Z" fill="#F85600"/>
<path d="M61.4341 166.738C61.1266 164.822 59.7664 162.716 57.4008 162.326C56.3717 162.16 55.3427 161.876 54.2782 161.593C52.4449 161.096 50.5406 160.575 48.4115 160.646C46.6847 160.706 45.076 161.522 43.9879 162.858C42.8761 164.218 42.4148 165.993 42.7105 167.72C43.0062 169.435 43.9761 170.878 45.4309 171.8C46.6255 172.545 48.0685 172.865 49.5115 172.675C49.6416 172.675 49.7836 172.675 49.9492 172.64C50.0438 172.616 50.1857 172.593 50.2804 172.569C50.8244 172.699 51.3685 172.77 51.9008 172.853L52.2201 172.9C52.989 173.007 53.6868 173.066 54.3492 173.066C56.0524 173.066 57.5427 172.699 59.0449 171.918C60.8664 170.972 61.7653 168.997 61.4105 166.761L61.4341 166.738ZM52.5277 170.937L52.1965 170.889C51.6879 170.818 51.1556 170.747 50.6234 170.606C50.5997 170.606 50.4933 170.582 50.4696 170.582C50.4578 170.582 50.4223 170.582 50.3986 170.582C50.3395 170.582 50.2922 170.582 50.2567 170.582C50.1502 170.546 50.032 170.546 49.9137 170.582C48.7545 170.925 47.5126 170.747 46.5072 170.121C45.5255 169.506 44.875 168.524 44.6739 167.365C44.4728 166.206 44.7922 165.011 45.5373 164.076C46.2707 163.166 47.3588 162.622 48.5062 162.586C50.2922 162.527 51.9954 162.976 53.8169 163.473C54.8696 163.757 55.9578 164.053 57.0933 164.242C58.489 164.467 59.3169 165.803 59.5062 167.033C59.6836 168.11 59.4234 169.494 58.1696 170.144C56.4782 171.02 54.7868 171.256 52.5277 170.925V170.937Z" fill="#F85600"/>
<path d="M318.176 147.842C318.673 148.055 319.182 148.232 319.584 148.374C319.915 148.611 320.293 148.8 320.672 148.977C320.838 149.06 320.991 149.131 321.133 149.202C323.7 150.621 327.071 149.794 328.81 147.298C330.525 144.826 330.122 141.301 327.922 139.444C326.527 138.261 324.693 137.445 322.659 137.078C322.47 137.031 322.281 137.007 322.103 136.996L321.37 136.925C321.37 136.925 321.346 136.925 321.334 136.925C321.322 136.925 321.311 136.925 321.299 136.925L321.015 136.877C320.755 136.83 320.495 136.771 320.234 136.7L320.057 136.653L319.879 137.22L319.879 136.605C319.761 136.558 319.607 136.475 319.383 136.499C318.85 136.369 318.318 136.298 317.81 136.298C316.047 136.298 314.521 137.09 313.516 138.545C311.978 140.757 312.31 143.773 314.285 145.571C315.479 146.659 316.757 147.251 318.188 147.854L318.176 147.842ZM319.56 138.592C319.56 138.592 319.667 138.616 319.726 138.616C319.761 138.616 319.785 138.616 319.82 138.616C320.092 138.687 320.364 138.746 320.684 138.805L321.926 138.959C322.02 138.959 322.127 138.983 322.257 139.006C323.996 139.314 325.51 139.988 326.645 140.946C328.1 142.176 328.336 144.53 327.189 146.186C326.042 147.83 323.747 148.41 322.079 147.487C321.914 147.392 321.725 147.298 321.524 147.203C321.216 147.049 320.861 146.884 320.601 146.683L320.388 146.564C319.903 146.399 319.418 146.221 318.945 146.02C317.691 145.488 316.568 144.98 315.598 144.092C314.344 142.957 314.143 141.029 315.113 139.633C316.083 138.238 317.668 137.859 319.572 138.581L319.56 138.592Z" fill="#F85600"/>
<path d="M295.325 165.998C296.046 166.92 296.839 167.796 297.678 168.695C297.773 168.789 297.903 168.931 297.986 169.026C298.175 169.31 298.329 169.523 298.483 169.664C299.311 171.155 300.529 172.255 301.913 172.752C303.285 173.248 304.775 173.154 306.206 172.48C307.638 171.805 308.667 170.717 309.151 169.357C309.707 167.784 309.554 165.939 308.702 164.164C307.933 162.532 306.62 160.971 304.692 159.386L304.385 159.138C304.184 158.984 303.995 158.818 303.793 158.653C303.486 158.381 303.261 158.191 303.096 158.073C302.977 157.943 302.859 157.825 302.741 157.695C302.339 157.245 301.925 156.796 301.487 156.488C300.647 155.707 299.476 155.258 298.246 155.258C297.761 155.258 297.3 155.329 296.85 155.459C295.336 155.897 294.213 157.009 293.74 158.499C293.728 158.523 293.716 158.558 293.704 158.594L293.669 158.747C293.432 159.492 293.255 160.734 293.255 160.853C293.278 161.574 293.42 162.438 293.633 163.1C293.988 164.235 294.721 165.253 295.313 166.01L295.325 165.998ZM301.936 159.634C302.043 159.717 302.445 160.06 302.492 160.119C302.492 160.119 302.492 160.119 302.504 160.131C302.693 160.297 302.883 160.451 303.143 160.663L303.439 160.912C305.13 162.296 306.277 163.644 306.916 165.004C307.543 166.317 307.673 167.63 307.283 168.706C306.963 169.582 306.313 170.268 305.343 170.717C304.373 171.167 303.439 171.238 302.551 170.918C301.475 170.528 300.553 169.594 299.938 168.281C299.89 168.162 299.772 168.091 299.654 168.032C299.595 167.949 299.535 167.867 299.488 167.796C299.476 167.784 299.405 167.701 299.393 167.689C299.322 167.618 299.145 167.429 299.003 167.275C298.282 166.495 297.525 165.667 296.839 164.791C296.342 164.164 295.75 163.348 295.49 162.509C295.325 162 295.218 161.338 295.206 160.829C295.206 160.663 295.407 159.835 295.561 159.232C295.798 158.298 296.472 157.612 297.383 157.34C298.364 157.056 299.464 157.292 300.233 158.002C300.6 158.262 300.931 158.629 301.274 159.007C301.428 159.185 301.582 159.351 301.747 159.528C301.795 159.575 301.842 159.611 301.901 159.646L301.936 159.634Z" fill="#F85600"/>
<path d="M268.44 136.144C268.747 138.06 270.107 140.166 272.473 140.556C273.502 140.721 274.531 141.005 275.596 141.289C277.429 141.786 279.333 142.306 281.462 142.235C283.189 142.176 284.798 141.36 285.886 140.024C286.998 138.663 287.459 136.889 287.163 135.162C286.868 133.447 285.898 132.004 284.443 131.082C283.248 130.337 281.805 130.017 280.362 130.206C280.232 130.206 280.09 130.206 279.925 130.242C279.83 130.266 279.688 130.289 279.593 130.313C279.049 130.183 278.505 130.112 277.973 130.029L277.654 129.982C276.885 129.875 276.187 129.816 275.525 129.816C273.821 129.816 272.331 130.183 270.829 130.963C269.007 131.91 268.108 133.885 268.463 136.12L268.44 136.144ZM277.346 131.945L277.677 131.992C278.186 132.063 278.718 132.134 279.25 132.276C279.274 132.276 279.381 132.3 279.404 132.3C279.416 132.3 279.451 132.3 279.475 132.3C279.534 132.3 279.582 132.3 279.617 132.3C279.724 132.335 279.842 132.335 279.96 132.3C281.119 131.957 282.361 132.134 283.367 132.761C284.348 133.376 284.999 134.358 285.2 135.517C285.401 136.676 285.082 137.871 284.336 138.805C283.603 139.716 282.515 140.26 281.368 140.296C279.582 140.355 277.878 139.905 276.057 139.409C275.004 139.125 273.916 138.829 272.781 138.64C271.385 138.415 270.557 137.078 270.368 135.848C270.19 134.772 270.45 133.388 271.704 132.738C273.396 131.862 275.087 131.626 277.346 131.957L277.346 131.945Z" fill="#F85600"/>
<path d="M230.656 59.0264C223.902 59.0264 220.342 62.1371 217.48 64.6328C214.913 66.8683 213.056 68.4887 208.963 68.4887C204.871 68.4887 203.014 66.8683 200.447 64.6328C197.585 62.1371 194.025 59.0264 187.271 59.0264C180.517 59.0264 176.957 62.1371 174.095 64.6328C171.528 66.8683 169.671 68.4887 165.59 68.4887C161.51 68.4887 159.653 66.8683 157.086 64.6328C154.224 62.1371 150.663 59.0264 143.91 59.0264C137.156 59.0264 133.596 62.1371 130.733 64.6328C128.167 66.8683 126.322 68.4887 122.229 68.4887C118.137 68.4887 116.291 66.8683 113.725 64.6328C110.862 62.1371 107.302 59.0264 100.548 59.0264C98.5849 59.0264 97 60.6113 97 62.5748C97 64.5382 98.5849 66.1231 100.548 66.1231C104.641 66.1231 106.486 67.7436 109.053 69.9791C111.915 72.4748 115.475 75.5855 122.229 75.5855C128.983 75.5855 132.543 72.4748 135.405 69.9791C137.972 67.7436 139.817 66.1231 143.91 66.1231C148.002 66.1231 149.859 67.7436 152.414 69.9791C155.276 72.4748 158.837 75.5855 165.59 75.5855C172.344 75.5855 175.904 72.4748 178.767 69.9791C181.333 67.7436 183.19 66.1231 187.271 66.1231C191.352 66.1231 193.22 67.7436 195.787 69.9791C198.649 72.4748 202.21 75.5855 208.963 75.5855C215.717 75.5855 219.277 72.4748 222.14 69.9791C224.706 67.7436 226.563 66.1231 230.656 66.1231C232.619 66.1231 234.204 64.5382 234.204 62.5748C234.204 60.6113 232.619 59.0264 230.656 59.0264Z" fill="#F85600"/>
<path d="M187.35 19.4586V8.54859C187.35 3.86859 183.54 0.0585938 178.86 0.0585938H150.9C146.22 0.0585938 142.41 3.86859 142.41 8.54859V19.4586C140.27 21.1086 139 23.6686 139 26.3586V43.3386C139 44.0986 139.62 44.7186 140.38 44.7186H143.79C144.55 44.7186 145.17 44.0986 145.17 43.3386V41.6286H184.61V43.3386C184.61 44.0986 185.23 44.7186 185.99 44.7186H189.4C190.16 44.7186 190.78 44.0986 190.78 43.3386V26.3586C190.78 23.6686 189.51 21.1086 187.37 19.4586H187.35ZM150.42 11.8286H160.01C160.81 11.8286 161.47 12.4886 161.47 13.2886V17.5086H148.96V13.2886C148.96 12.4786 149.62 11.8286 150.42 11.8286ZM168.28 13.2886C168.28 12.4786 168.94 11.8286 169.74 11.8286H179.33C180.13 11.8286 180.79 12.4886 180.79 13.2886V17.5086H168.28V13.2886ZM184.6 18.0286C184.25 17.9186 183.9 17.8386 183.55 17.7786V13.2786C183.55 10.9586 181.66 9.06859 179.34 9.06859H169.75C167.43 9.06859 165.54 10.9586 165.54 13.2786V17.6386H164.23V13.2786C164.23 10.9586 162.34 9.06859 160.02 9.06859H150.43C148.11 9.06859 146.22 10.9586 146.22 13.2786V17.7786C145.86 17.8386 145.51 17.9286 145.17 18.0286V8.54859C145.17 5.37859 147.75 2.80859 150.91 2.80859H178.86C182.03 2.80859 184.6 5.38859 184.6 8.54859V18.0286ZM141.75 35.2286V26.3586C141.75 23.0686 144.43 20.3986 147.71 20.3986H182.04C185.33 20.3986 188 23.0786 188 26.3586V35.2286H141.75ZM185.97 38.8786H143.78C143.02 38.8786 142.4 39.4986 142.4 40.2586V41.9686H141.74V37.9786H188V41.9686H187.34V40.2586C187.34 39.4986 186.72 38.8786 185.96 38.8786H185.97Z" fill="white"/>
<path d="M181.76 24.8186H147.38C146.62 24.8186 146 25.4386 146 26.1986C146 26.9586 146.62 27.5786 147.38 27.5786H181.76C182.52 27.5786 183.14 26.9586 183.14 26.1986C183.14 25.4386 182.52 24.8186 181.76 24.8186Z" fill="white"/>
</svg>
