<svg width="1900" height="643" viewBox="0 0 1900 643" fill="none" xmlns="http://www.w3.org/2000/svg">
<path d="M1900 17.1459C1877.38 17.1459 1877.38 0.00292969 1854.75 0.00292969C1832.12 0.00292969 1832.14 17.1459 1809.51 17.1459C1786.88 17.1459 1786.89 0.00292969 1764.26 0.00292969C1741.63 0.00292969 1741.64 17.1459 1719.01 17.1459C1696.38 17.1459 1696.4 0.00292969 1673.78 0.00292969C1651.16 0.00292969 1651.16 17.1459 1628.54 17.1459C1605.92 17.1459 1605.92 0.00292969 1583.29 0.00292969C1560.67 0.00292969 1560.68 17.1459 1538.05 17.1459C1515.42 17.1459 1515.43 0.00292969 1492.81 0.00292969C1470.19 0.00292969 1470.19 17.1459 1447.58 17.1459C1424.96 17.1459 1424.96 0.00292969 1402.34 0.00292969C1379.72 0.00292969 1379.72 17.1459 1357.1 17.1459C1334.49 17.1459 1334.49 0.00292969 1311.87 0.00292969C1289.25 0.00292969 1289.25 17.1459 1266.63 17.1459C1244.01 17.1459 1244.01 0.00292969 1221.39 0.00292969C1198.78 0.00292969 1198.78 17.1459 1176.16 17.1459C1153.54 17.1459 1153.54 0.00292969 1130.92 0.00292969C1108.3 0.00292969 1108.3 17.1459 1085.69 17.1459C1063.07 17.1459 1063.08 0.00292969 1040.46 0.00292969C1017.84 0.00292969 1017.84 17.1459 995.225 17.1459C972.607 17.1459 972.597 0.00292969 949.979 0.00292969C927.361 0.00292969 927.361 17.1459 904.742 17.1459C882.125 17.1459 882.125 0.00292969 859.506 0.00292969C836.888 0.00292969 836.888 17.1459 814.27 17.1459C791.652 17.1459 791.652 0.00292969 769.024 0.00292969C746.395 0.00292969 746.406 17.1459 723.788 17.1459C701.17 17.1459 701.17 0.00292969 678.552 0.00292969C655.934 0.00292969 655.934 17.1459 633.315 17.1459C610.698 17.1459 610.697 0.00292969 588.069 0.00292969C565.44 0.00292969 565.451 17.1459 542.833 17.1459C520.215 17.1459 520.215 0.00292969 497.597 0.00292969C474.979 0.00292969 474.979 17.1459 452.361 17.1459C429.743 17.1459 429.743 0.00292969 407.125 0.00292969C384.506 0.00292969 384.506 17.1459 361.888 17.1459C339.27 17.1459 339.27 0.00292969 316.652 0.00292969C294.034 0.00292969 294.034 17.1459 271.416 17.1459C248.798 17.1459 248.798 0.00292969 226.18 0.00292969C203.562 0.00292969 203.562 17.1459 180.944 17.1459C158.326 17.1459 158.326 0.00292969 135.708 0.00292969C113.09 0.00292969 113.09 17.1459 90.4721 17.1459C67.8541 17.1459 67.8541 0.00292969 45.2361 0.00292969C22.618 0.00292969 22.618 17.1459 0 17.1459V18.2709H1900V17.1459Z" fill="#6CCCFF"/>
<rect y="18" width="1900" height="624" fill="#6CCCFF"/>
<path d="M270.601 628.774C271.441 626.994 273.201 625.894 275.081 625.564C276.831 625.264 279.051 625.614 280.321 627.034C280.831 627.604 281.291 627.974 281.781 628.694C282.001 629.014 282.171 629.364 282.341 629.714C282.571 630.124 282.831 630.524 283.131 630.904C283.211 631.004 283.291 631.104 283.371 631.204C283.321 631.144 283.271 631.084 283.211 631.024C283.211 631.024 283.221 631.044 283.231 631.044C283.281 631.104 283.331 631.164 283.391 631.224C284.281 632.354 284.891 633.574 284.941 635.124C285.001 636.694 284.371 638.614 283.251 639.754C282.041 640.974 280.411 641.914 278.641 641.904C276.851 641.894 275.441 641.284 274.011 640.214C272.851 639.344 271.801 638.174 271.071 636.924C269.531 634.284 269.301 631.584 270.621 628.774M312.121 616.364C313.901 613.804 317.511 612.744 320.331 614.304C320.931 614.634 321.801 614.964 322.321 615.394C322.971 615.624 323.611 615.854 324.251 616.124C325.961 616.844 327.511 617.544 328.911 618.834C331.001 620.744 331.311 623.924 329.711 626.214C327.991 628.694 325.181 629.034 322.511 628.024C323.961 628.574 322.721 628.154 322.441 628.074C322.071 627.974 321.711 627.894 321.341 627.824C321.221 627.804 321.091 627.784 320.971 627.764C320.891 627.754 320.841 627.744 320.791 627.734C320.541 627.704 320.231 627.674 319.841 627.644C319.651 627.634 319.461 627.604 319.281 627.564C317.031 627.164 314.801 626.274 313.051 624.794C310.601 622.714 310.371 618.914 312.131 616.384M274.141 582.204C278.211 580.884 281.941 578.304 286.571 578.204C291.821 578.094 293.701 584.794 289.581 587.744C287.841 588.994 285.761 589.714 283.961 590.904C282.041 592.174 280.061 593.274 277.891 594.074C274.731 595.234 271.051 593.114 270.071 590.004C269.051 586.764 270.921 583.224 274.141 582.184M224.241 594.084C225.211 591.454 228.241 589.474 231.111 590.314C233.161 590.914 234.821 592.084 236.641 593.144C237.361 593.564 238.091 593.984 238.821 594.364C239.151 594.534 239.491 594.684 239.821 594.854C239.941 594.914 240.021 594.964 240.091 595.004C244.811 596.094 245.111 603.244 240.381 604.614C237.541 605.444 234.961 604.874 232.291 603.784C230.561 603.074 228.641 602.334 227.021 601.394C224.441 599.884 223.171 596.934 224.221 594.074M340.651 584.444C344.361 582.694 347.681 584.764 349.261 588.174C348.871 587.324 349.411 588.134 349.691 588.554C349.811 588.674 350.111 588.994 350.251 589.134C351.231 590.194 352.211 591.274 353.101 592.404C353.871 593.384 354.671 594.534 355.051 595.744C355.291 596.514 355.451 597.484 355.481 598.294C355.491 598.744 354.721 601.684 354.981 600.644C354.001 604.454 349.361 605.134 347.021 602.934C346.201 602.354 345.601 601.564 344.891 600.824C345.041 601.004 344.031 600.114 344.031 600.114C343.651 599.784 343.241 599.464 342.851 599.144C340.941 597.574 339.111 595.704 338.041 593.454C336.431 590.074 336.911 586.204 340.651 584.434M365.841 631.024C365.181 627.214 368.011 623.554 371.961 623.414C375.921 623.274 379.421 624.934 383.251 625.564C387.691 626.294 389.171 633.334 385.011 635.494C382.381 636.864 379.891 637.044 377.011 636.624C376.181 636.504 375.311 636.404 374.511 636.194C374.481 636.194 374.461 636.184 374.441 636.174C374.431 636.174 374.421 636.174 374.401 636.174C373.901 636.204 372.671 636.554 374.171 636.124C370.401 637.214 366.531 634.914 365.851 631.014M210.631 552.674C209.931 550.314 210.841 547.644 212.921 546.304C214.171 545.504 215.971 545.214 217.531 545.604C222.091 544.544 227.391 544.704 231.031 547.514C233.181 549.174 233.301 552.644 231.811 554.714C230.311 556.794 227.761 557.544 225.391 556.714C225.121 556.714 224.861 556.724 224.591 556.744C224.171 556.764 223.751 556.794 223.321 556.834C223.211 556.844 222.201 557.004 222.281 556.984C220.431 557.344 218.611 557.774 216.721 557.814C214.161 557.864 211.731 556.214 210.951 553.744C210.841 553.394 210.731 553.034 210.631 552.684M181.361 590.934C187.671 594.144 191.041 600.754 191.441 607.664C191.741 612.764 184.851 614.664 182.121 610.604C180.071 607.564 179.171 603.484 175.741 601.744C168.741 598.184 174.371 587.384 181.361 590.944" stroke="white" stroke-miterlimit="10"/>
<path d="M1631.4 428.131C1630.56 429.911 1628.8 431.011 1626.92 431.341C1625.17 431.641 1622.95 431.291 1621.68 429.871C1621.17 429.301 1620.71 428.931 1620.22 428.211C1620 427.891 1619.83 427.541 1619.66 427.191C1619.43 426.781 1619.17 426.381 1618.87 426.001C1618.79 425.901 1618.71 425.801 1618.63 425.701C1618.68 425.761 1618.73 425.821 1618.79 425.881C1618.79 425.881 1618.78 425.861 1618.77 425.861C1618.72 425.801 1618.67 425.741 1618.61 425.681C1617.72 424.551 1617.11 423.331 1617.06 421.781C1617 420.211 1617.63 418.291 1618.75 417.151C1619.96 415.931 1621.59 414.991 1623.36 415.001C1625.15 415.011 1626.56 415.621 1627.99 416.691C1629.15 417.561 1630.2 418.731 1630.93 419.981C1632.47 422.621 1632.7 425.321 1631.38 428.131M1589.88 440.541C1588.1 443.101 1584.49 444.161 1581.67 442.601C1581.07 442.271 1580.2 441.941 1579.68 441.511C1579.03 441.281 1578.39 441.051 1577.75 440.781C1576.04 440.061 1574.49 439.361 1573.09 438.071C1571 436.161 1570.69 432.981 1572.29 430.691C1574.01 428.211 1576.82 427.871 1579.49 428.881C1578.04 428.331 1579.28 428.751 1579.56 428.831C1579.93 428.931 1580.29 429.011 1580.66 429.081C1580.78 429.101 1580.91 429.121 1581.03 429.141C1581.11 429.151 1581.16 429.161 1581.21 429.171C1581.46 429.201 1581.77 429.231 1582.16 429.261C1582.35 429.271 1582.54 429.301 1582.72 429.341C1584.97 429.741 1587.2 430.631 1588.95 432.111C1591.4 434.191 1591.63 437.991 1589.87 440.521M1627.86 474.701C1623.79 476.021 1620.06 478.601 1615.43 478.701C1610.18 478.811 1608.3 472.111 1612.42 469.161C1614.16 467.911 1616.24 467.191 1618.04 466.001C1619.96 464.731 1621.94 463.631 1624.11 462.831C1627.27 461.671 1630.95 463.791 1631.93 466.901C1632.95 470.141 1631.08 473.681 1627.86 474.721M1677.76 462.821C1676.79 465.451 1673.76 467.431 1670.89 466.591C1668.84 465.991 1667.18 464.821 1665.36 463.761C1664.64 463.341 1663.91 462.921 1663.18 462.541C1662.85 462.371 1662.51 462.221 1662.18 462.051C1662.06 461.991 1661.98 461.941 1661.91 461.901C1657.19 460.811 1656.89 453.661 1661.62 452.291C1664.46 451.461 1667.04 452.031 1669.71 453.121C1671.44 453.831 1673.36 454.571 1674.98 455.511C1677.56 457.021 1678.83 459.971 1677.78 462.831M1561.35 472.461C1557.64 474.211 1554.32 472.141 1552.74 468.731C1553.13 469.581 1552.59 468.771 1552.31 468.351C1552.19 468.231 1551.89 467.911 1551.75 467.771C1550.77 466.711 1549.79 465.631 1548.9 464.501C1548.13 463.521 1547.33 462.371 1546.95 461.161C1546.71 460.391 1546.55 459.421 1546.52 458.611C1546.51 458.161 1547.28 455.221 1547.02 456.261C1548 452.451 1552.64 451.771 1554.98 453.971C1555.8 454.551 1556.4 455.341 1557.11 456.081C1556.96 455.901 1557.97 456.791 1557.97 456.791C1558.35 457.121 1558.76 457.441 1559.15 457.761C1561.06 459.331 1562.89 461.201 1563.96 463.451C1565.57 466.831 1565.09 470.701 1561.35 472.471M1536.16 425.881C1536.82 429.691 1533.99 433.351 1530.04 433.491C1526.08 433.631 1522.58 431.971 1518.75 431.341C1514.31 430.611 1512.83 423.571 1516.99 421.411C1519.62 420.041 1522.11 419.861 1524.99 420.281C1525.82 420.401 1526.69 420.501 1527.49 420.711C1527.52 420.711 1527.54 420.721 1527.56 420.731C1527.57 420.731 1527.58 420.731 1527.6 420.731C1528.1 420.701 1529.33 420.351 1527.83 420.781C1531.6 419.691 1535.47 421.991 1536.15 425.891M1691.37 504.231C1692.07 506.591 1691.16 509.261 1689.08 510.601C1687.83 511.401 1686.03 511.691 1684.47 511.301C1679.91 512.361 1674.61 512.201 1670.97 509.391C1668.82 507.731 1668.7 504.261 1670.19 502.191C1671.69 500.111 1674.24 499.361 1676.61 500.191C1676.88 500.191 1677.14 500.181 1677.41 500.161C1677.83 500.141 1678.25 500.111 1678.68 500.071C1678.79 500.061 1679.8 499.901 1679.72 499.921C1681.57 499.561 1683.39 499.131 1685.28 499.091C1687.84 499.041 1690.27 500.691 1691.05 503.161C1691.16 503.511 1691.27 503.871 1691.37 504.221M1720.64 465.971C1714.33 462.761 1710.96 456.151 1710.56 449.241C1710.26 444.141 1717.15 442.241 1719.88 446.301C1721.93 449.341 1722.83 453.421 1726.26 455.161C1733.26 458.721 1727.63 469.521 1720.64 465.961" stroke="white" stroke-miterlimit="10"/>
<path d="M380.061 307.419C379.916 299.374 373.364 292.899 365.285 292.899C365.217 292.899 365.157 292.908 365.089 292.908C363.843 284.07 356.276 277.262 347.088 277.262C337.901 277.262 330.427 283.984 329.114 292.746C326.273 291.039 322.946 290.058 319.388 290.058C315.831 290.058 312.845 290.946 310.098 292.498C309.885 286.245 304.766 281.246 298.462 281.246C298.334 281.246 298.206 281.263 298.069 281.263C298.069 281.084 298.087 280.905 298.087 280.725C298.087 270.386 289.701 262 279.37 262C271.794 262 265.276 266.504 262.325 272.971C260.218 270.872 257.317 269.575 254.101 269.575C249.844 269.575 246.133 271.862 244.094 275.274C240.417 271.751 235.427 269.575 229.933 269.575C219.337 269.575 210.618 277.629 209.561 287.951C208.435 287.661 207.257 287.491 206.046 287.491C198.684 287.491 192.627 293.087 191.902 300.261C187.824 301.601 185 304.407 185 307.675C185 312.23 190.477 315.924 197.225 315.924C197.549 315.924 197.865 315.907 198.189 315.89C200.228 317.844 202.992 319.055 206.046 319.055C206.472 319.055 206.899 319.03 207.308 318.978C209.271 322.894 213.306 325.598 217.989 325.598C220.642 325.598 223.074 324.728 225.061 323.269C228.073 325.445 231.767 326.733 235.768 326.733C242.49 326.733 248.359 323.099 251.55 317.707C253.785 320.599 257.283 322.467 261.216 322.467C264.278 322.467 267.068 321.333 269.209 319.482C270.523 322.382 273.432 324.404 276.827 324.404C278.44 324.404 279.933 323.943 281.212 323.15C284.249 325.394 288.003 326.733 292.072 326.733C297.148 326.733 301.738 324.677 305.056 321.35C308.528 325.377 313.664 327.927 319.405 327.927C324.609 327.927 329.327 325.829 332.748 322.425C335.094 325.411 338.728 327.339 342.823 327.339C346.918 327.339 350.526 325.428 352.872 322.459C354.903 325.052 358.059 326.733 361.608 326.733C364.534 326.733 367.187 325.59 369.175 323.739C370.83 325.01 372.903 325.778 375.155 325.778C380.589 325.778 385 321.367 385 315.933C385 312.29 383.021 309.125 380.086 307.419H380.061Z" fill="white"/>
<path d="M1713 280.536C1713 271.668 1705.81 264.473 1696.94 264.473C1696.15 264.473 1695.38 264.552 1694.62 264.657C1691.74 253.791 1681.84 245.773 1670.06 245.773C1664.61 245.773 1659.57 247.491 1655.43 250.418C1653.84 238.886 1643.96 230 1632 230C1622.94 230 1615.09 235.082 1611.11 242.548C1606.71 239.438 1601.36 237.597 1595.57 237.597C1584.64 237.597 1575.24 244.126 1571.04 253.493C1568.95 252.626 1566.65 252.135 1564.24 252.135C1554.45 252.135 1546.52 260.065 1546.52 269.854C1546.52 271.413 1546.74 272.921 1547.13 274.358C1544.61 276.417 1543 279.537 1543 283.042C1543 289.237 1548.02 294.258 1554.22 294.258C1555.44 294.258 1556.63 294.057 1557.73 293.689C1559.64 299.639 1565.21 303.959 1571.8 303.959C1575.46 303.959 1578.81 302.618 1581.38 300.419C1585.09 303.047 1589.61 304.598 1594.49 304.598C1598.72 304.598 1602.68 303.433 1606.07 301.418C1607.78 302.714 1609.9 303.486 1612.22 303.486C1614.26 303.486 1616.16 302.881 1617.76 301.847C1620.64 306.71 1625.92 309.988 1632 309.988C1638.07 309.988 1643.14 306.842 1646.06 302.127C1648.61 304.476 1652.01 305.93 1655.74 305.93C1660.44 305.93 1664.59 303.661 1667.2 300.164C1670.54 305.229 1676.27 308.568 1682.79 308.568C1690.89 308.568 1697.76 303.415 1700.36 296.212C1707.58 294.635 1712.98 288.212 1712.98 280.527L1713 280.536Z" fill="white"/>
</svg>
