<svg width="1086" height="588" viewBox="0 0 1086 588" fill="none" xmlns="http://www.w3.org/2000/svg">
<path fill-rule="evenodd" clip-rule="evenodd" d="M1.21358 271.597C30.5929 40.4425 171.433 -1.58255 254.034 0.064194C361.767 2.21202 458.762 136.573 488.932 142.284C656.458 173.996 875.862 -69.3298 1009.68 50.977C1256.47 272.843 851.12 547.472 505.216 583.404C235.467 611.427 -14.6249 473.62 1.21358 271.597Z" fill="#FFA901"/>
<path d="M552.899 258.13C552.059 259.91 550.299 261.01 548.419 261.34C546.669 261.64 544.449 261.29 543.179 259.87C542.669 259.3 542.209 258.93 541.719 258.21C541.499 257.89 541.329 257.54 541.159 257.19C540.929 256.78 540.669 256.38 540.369 256C540.289 255.9 540.209 255.8 540.129 255.7C540.179 255.76 540.229 255.82 540.289 255.88C540.289 255.88 540.279 255.86 540.269 255.86C540.219 255.8 540.169 255.74 540.109 255.68C539.219 254.55 538.609 253.33 538.559 251.78C538.499 250.21 539.129 248.29 540.249 247.15C541.459 245.93 543.089 244.99 544.859 245C546.649 245.01 548.059 245.62 549.489 246.69C550.649 247.56 551.699 248.73 552.429 249.98C553.969 252.62 554.199 255.32 552.879 258.13M511.379 270.54C509.599 273.1 505.989 274.16 503.169 272.6C502.569 272.27 501.699 271.94 501.179 271.51C500.529 271.28 499.889 271.05 499.249 270.78C497.539 270.06 495.989 269.36 494.589 268.07C492.499 266.16 492.189 262.98 493.789 260.69C495.509 258.21 498.319 257.87 500.989 258.88C499.539 258.33 500.779 258.75 501.059 258.83C501.429 258.93 501.789 259.01 502.159 259.08C502.279 259.1 502.409 259.12 502.529 259.14C502.609 259.15 502.659 259.16 502.709 259.17C502.959 259.2 503.269 259.23 503.659 259.26C503.849 259.27 504.039 259.3 504.219 259.34C506.469 259.74 508.699 260.63 510.449 262.11C512.899 264.19 513.129 267.99 511.369 270.52M549.359 304.7C545.289 306.02 541.559 308.6 536.929 308.7C531.679 308.81 529.799 302.11 533.919 299.16C535.659 297.91 537.739 297.19 539.539 296C541.459 294.73 543.439 293.63 545.609 292.83C548.769 291.67 552.449 293.79 553.429 296.9C554.449 300.14 552.579 303.68 549.359 304.72M599.259 292.82C598.289 295.45 595.259 297.43 592.389 296.59C590.339 295.99 588.679 294.82 586.859 293.76C586.139 293.34 585.409 292.92 584.679 292.54C584.349 292.37 584.009 292.22 583.679 292.05C583.559 291.99 583.479 291.94 583.409 291.9C578.689 290.81 578.389 283.66 583.119 282.29C585.959 281.46 588.539 282.03 591.209 283.12C592.939 283.83 594.859 284.57 596.479 285.51C599.059 287.02 600.329 289.97 599.279 292.83M482.849 302.46C479.139 304.21 475.819 302.14 474.239 298.73C474.629 299.58 474.089 298.77 473.809 298.35C473.689 298.23 473.389 297.91 473.249 297.77C472.269 296.71 471.289 295.63 470.399 294.5C469.629 293.52 468.829 292.37 468.449 291.16C468.209 290.39 468.049 289.42 468.019 288.61C468.009 288.16 468.779 285.22 468.519 286.26C469.499 282.45 474.139 281.77 476.479 283.97C477.299 284.55 477.899 285.34 478.609 286.08C478.459 285.9 479.469 286.79 479.469 286.79C479.849 287.12 480.259 287.44 480.649 287.76C482.559 289.33 484.389 291.2 485.459 293.45C487.069 296.83 486.589 300.7 482.849 302.47M457.659 255.88C458.319 259.69 455.489 263.35 451.539 263.49C447.579 263.63 444.079 261.97 440.249 261.34C435.809 260.61 434.329 253.57 438.489 251.41C441.119 250.04 443.609 249.86 446.489 250.28C447.319 250.4 448.189 250.5 448.989 250.71C449.019 250.71 449.039 250.72 449.059 250.73C449.069 250.73 449.079 250.73 449.099 250.73C449.599 250.7 450.829 250.35 449.329 250.78C453.099 249.69 456.969 251.99 457.649 255.89M612.869 334.23C613.569 336.59 612.659 339.26 610.579 340.6C609.329 341.4 607.529 341.69 605.969 341.3C601.409 342.36 596.109 342.2 592.469 339.39C590.319 337.73 590.199 334.26 591.689 332.19C593.189 330.11 595.739 329.36 598.109 330.19C598.379 330.19 598.639 330.18 598.909 330.16C599.329 330.14 599.749 330.11 600.179 330.07C600.289 330.06 601.299 329.9 601.219 329.92C603.069 329.56 604.889 329.13 606.779 329.09C609.339 329.04 611.769 330.69 612.549 333.16C612.659 333.51 612.769 333.87 612.869 334.22M642.139 295.97C635.829 292.76 632.459 286.15 632.059 279.24C631.759 274.14 638.649 272.24 641.379 276.3C643.429 279.34 644.329 283.42 647.759 285.16C654.759 288.72 649.129 299.52 642.139 295.96" stroke="#F85600" stroke-miterlimit="10"/>
<path d="M847.899 135.13C847.059 136.91 845.299 138.01 843.419 138.34C841.669 138.64 839.449 138.29 838.179 136.87C837.669 136.3 837.209 135.93 836.719 135.21C836.499 134.89 836.329 134.54 836.159 134.19C835.929 133.78 835.669 133.38 835.369 133C835.289 132.9 835.209 132.8 835.129 132.7C835.179 132.76 835.229 132.82 835.289 132.88C835.289 132.88 835.279 132.86 835.269 132.86C835.219 132.8 835.169 132.74 835.109 132.68C834.219 131.55 833.609 130.33 833.559 128.78C833.499 127.21 834.129 125.29 835.249 124.15C836.459 122.93 838.089 121.99 839.859 122C841.649 122.01 843.059 122.62 844.489 123.69C845.649 124.56 846.699 125.73 847.429 126.98C848.969 129.62 849.199 132.32 847.879 135.13M806.379 147.54C804.599 150.1 800.989 151.16 798.169 149.6C797.569 149.27 796.699 148.94 796.179 148.51C795.529 148.28 794.889 148.05 794.249 147.78C792.539 147.06 790.989 146.36 789.589 145.07C787.499 143.16 787.189 139.98 788.789 137.69C790.509 135.21 793.319 134.87 795.989 135.88C794.539 135.33 795.779 135.75 796.059 135.83C796.429 135.93 796.789 136.01 797.159 136.08C797.279 136.1 797.409 136.12 797.529 136.14C797.609 136.15 797.659 136.16 797.709 136.17C797.959 136.2 798.269 136.23 798.659 136.26C798.849 136.27 799.039 136.3 799.219 136.34C801.469 136.74 803.699 137.63 805.449 139.11C807.899 141.19 808.129 144.99 806.369 147.52M844.359 181.7C840.289 183.02 836.559 185.6 831.929 185.7C826.679 185.81 824.799 179.11 828.919 176.16C830.659 174.91 832.739 174.19 834.539 173C836.459 171.73 838.439 170.63 840.609 169.83C843.769 168.67 847.449 170.79 848.429 173.9C849.449 177.14 847.579 180.68 844.359 181.72M894.259 169.82C893.289 172.45 890.259 174.43 887.389 173.59C885.339 172.99 883.679 171.82 881.859 170.76C881.139 170.34 880.409 169.92 879.679 169.54C879.349 169.37 879.009 169.22 878.679 169.05C878.559 168.99 878.479 168.94 878.409 168.9C873.689 167.81 873.389 160.66 878.119 159.29C880.959 158.46 883.539 159.03 886.209 160.12C887.939 160.83 889.859 161.57 891.479 162.51C894.059 164.02 895.329 166.97 894.279 169.83M777.849 179.46C774.139 181.21 770.819 179.14 769.239 175.73C769.629 176.58 769.089 175.77 768.809 175.35C768.689 175.23 768.389 174.91 768.249 174.77C767.269 173.71 766.289 172.63 765.399 171.5C764.629 170.52 763.829 169.37 763.449 168.16C763.209 167.39 763.049 166.42 763.019 165.61C763.009 165.16 763.779 162.22 763.519 163.26C764.499 159.45 769.139 158.77 771.479 160.97C772.299 161.55 772.899 162.34 773.609 163.08C773.459 162.9 774.469 163.79 774.469 163.79C774.849 164.12 775.259 164.44 775.649 164.76C777.559 166.33 779.389 168.2 780.459 170.45C782.069 173.83 781.589 177.7 777.849 179.47M752.659 132.88C753.319 136.69 750.489 140.35 746.539 140.49C742.579 140.63 739.079 138.97 735.249 138.34C730.809 137.61 729.329 130.57 733.489 128.41C736.119 127.04 738.609 126.86 741.489 127.28C742.319 127.4 743.189 127.5 743.989 127.71C744.019 127.71 744.039 127.72 744.059 127.73C744.069 127.73 744.079 127.73 744.099 127.73C744.599 127.7 745.829 127.35 744.329 127.78C748.099 126.69 751.969 128.99 752.649 132.89M907.869 211.23C908.569 213.59 907.659 216.26 905.579 217.6C904.329 218.4 902.529 218.69 900.969 218.3C896.409 219.36 891.109 219.2 887.469 216.39C885.319 214.73 885.199 211.26 886.689 209.19C888.189 207.11 890.739 206.36 893.109 207.19C893.379 207.19 893.639 207.18 893.909 207.16C894.329 207.14 894.749 207.11 895.179 207.07C895.289 207.06 896.299 206.9 896.219 206.92C898.069 206.56 899.889 206.13 901.779 206.09C904.339 206.04 906.769 207.69 907.549 210.16C907.659 210.51 907.769 210.87 907.869 211.22M937.139 172.97C930.829 169.76 927.459 163.15 927.059 156.24C926.759 151.14 933.649 149.24 936.379 153.3C938.429 156.34 939.329 160.42 942.759 162.16C949.759 165.72 944.129 176.52 937.139 172.96" stroke="#F85600" stroke-miterlimit="10"/>
<path d="M256.899 345.13C256.059 346.91 254.299 348.01 252.419 348.34C250.669 348.64 248.449 348.29 247.179 346.87C246.669 346.3 246.209 345.93 245.719 345.21C245.499 344.89 245.329 344.54 245.159 344.19C244.929 343.78 244.669 343.38 244.369 343C244.289 342.9 244.209 342.8 244.129 342.7C244.179 342.76 244.229 342.82 244.289 342.88C244.289 342.88 244.279 342.86 244.269 342.86C244.219 342.8 244.169 342.74 244.109 342.68C243.219 341.55 242.609 340.33 242.559 338.78C242.499 337.21 243.129 335.29 244.249 334.15C245.459 332.93 247.089 331.99 248.859 332C250.649 332.01 252.059 332.62 253.489 333.69C254.649 334.56 255.699 335.73 256.429 336.98C257.969 339.62 258.199 342.32 256.879 345.13M215.379 357.54C213.599 360.1 209.989 361.16 207.169 359.6C206.569 359.27 205.699 358.94 205.179 358.51C204.529 358.28 203.889 358.05 203.249 357.78C201.539 357.06 199.989 356.36 198.589 355.07C196.499 353.16 196.189 349.98 197.789 347.69C199.509 345.21 202.319 344.87 204.989 345.88C203.539 345.33 204.779 345.75 205.059 345.83C205.429 345.93 205.789 346.01 206.159 346.08C206.279 346.1 206.409 346.12 206.529 346.14C206.609 346.15 206.659 346.16 206.709 346.17C206.959 346.2 207.269 346.23 207.659 346.26C207.849 346.27 208.039 346.3 208.219 346.34C210.469 346.74 212.699 347.63 214.449 349.11C216.899 351.19 217.129 354.99 215.369 357.52M253.359 391.7C249.289 393.02 245.559 395.6 240.929 395.7C235.679 395.81 233.799 389.11 237.919 386.16C239.659 384.91 241.739 384.19 243.539 383C245.459 381.73 247.439 380.63 249.609 379.83C252.769 378.67 256.449 380.79 257.429 383.9C258.449 387.14 256.579 390.68 253.359 391.72M303.259 379.82C302.289 382.45 299.259 384.43 296.389 383.59C294.339 382.99 292.679 381.82 290.859 380.76C290.139 380.34 289.409 379.92 288.679 379.54C288.349 379.37 288.009 379.22 287.679 379.05C287.559 378.99 287.479 378.94 287.409 378.9C282.689 377.81 282.389 370.66 287.119 369.29C289.959 368.46 292.539 369.03 295.209 370.12C296.939 370.83 298.859 371.57 300.479 372.51C303.059 374.02 304.329 376.97 303.279 379.83M186.849 389.46C183.139 391.21 179.819 389.14 178.239 385.73C178.629 386.58 178.089 385.77 177.809 385.35C177.689 385.23 177.389 384.91 177.249 384.77C176.269 383.71 175.289 382.63 174.399 381.5C173.629 380.52 172.829 379.37 172.449 378.16C172.209 377.39 172.049 376.42 172.019 375.61C172.009 375.16 172.779 372.22 172.519 373.26C173.499 369.45 178.139 368.77 180.479 370.97C181.299 371.55 181.899 372.34 182.609 373.08C182.459 372.9 183.469 373.79 183.469 373.79C183.849 374.12 184.259 374.44 184.649 374.76C186.559 376.33 188.389 378.2 189.459 380.45C191.069 383.83 190.589 387.7 186.849 389.47M161.659 342.88C162.319 346.69 159.489 350.35 155.539 350.49C151.579 350.63 148.079 348.97 144.249 348.34C139.809 347.61 138.329 340.57 142.489 338.41C145.119 337.04 147.609 336.86 150.489 337.28C151.319 337.4 152.189 337.5 152.989 337.71C153.019 337.71 153.039 337.72 153.059 337.73C153.069 337.73 153.079 337.73 153.099 337.73C153.599 337.7 154.829 337.35 153.329 337.78C157.099 336.69 160.969 338.99 161.649 342.89M316.869 421.23C317.569 423.59 316.659 426.26 314.579 427.6C313.329 428.4 311.529 428.69 309.969 428.3C305.409 429.36 300.109 429.2 296.469 426.39C294.319 424.73 294.199 421.26 295.689 419.19C297.189 417.11 299.739 416.36 302.109 417.19C302.379 417.19 302.639 417.18 302.909 417.16C303.329 417.14 303.749 417.11 304.179 417.07C304.289 417.06 305.299 416.9 305.219 416.92C307.069 416.56 308.889 416.13 310.779 416.09C313.339 416.04 315.769 417.69 316.549 420.16C316.659 420.51 316.769 420.87 316.869 421.22M346.139 382.97C339.829 379.76 336.459 373.15 336.059 366.24C335.759 361.14 342.649 359.24 345.379 363.3C347.429 366.34 348.329 370.42 351.759 372.16C358.759 375.72 353.129 386.52 346.139 382.96" stroke="#F85600" stroke-miterlimit="10"/>
</svg>
