<svg width="80" height="86" viewBox="0 0 80 86" fill="none" xmlns="http://www.w3.org/2000/svg">
<path d="M21.8895 64.7919C15.2019 58.3609 8.34066 54.7378 0.294376 52.7451C0.671782 60.7234 1.17751 68.7018 0.535916 76.6349C0.173607 81.1335 2.78525 84.0999 7.27638 84.349C15.1717 84.7944 23.8143 85.1718 32.6607 85.1642C30.7284 77.7746 28.3507 71.004 21.882 64.7843" fill="#FFA901"/>
<path d="M15.685 52.4356C20.0025 54.7982 23.3539 57.7344 26.1391 61.1008C26.4033 61.3575 26.675 61.6141 26.9317 61.8632C32.9475 67.7583 38.9633 76.0235 39.6578 84.6283C49.342 83.949 58.83 82.3865 67.0197 79.239C77.4361 75.2309 80.8629 66.5279 77.1266 59.6894C69.6162 59.8252 62.0983 59.9762 54.5955 59.795C50.1421 59.6818 49.8175 52.8432 54.3313 52.8357C61.6605 52.8206 69.0124 52.4356 76.3567 52.4054C79.4363 48.1483 81.3611 43.2949 78.8325 38.6905C76.5982 34.6296 73.8658 32.5765 70.6201 31.5198C63.5928 35.5807 56.6259 39.6189 49.9232 44.3063C46.0812 46.9934 41.8996 41.506 45.5227 38.5094C51.6215 33.4521 58.8375 29.0063 66.129 25.2624C66.4234 20.4543 65.9478 15.6537 62.053 12.9288C57.3732 9.65294 53.7124 9.13966 49.727 10.0907C46.3907 16.6047 42.6166 22.0394 39.6276 29.5724C38.2161 33.1427 32.4418 32.7803 32.8267 28.8251C33.657 20.2958 39.1822 12.7628 43.53 5.37316C42.1713 3.44839 40.4277 1.93877 38.0349 1.38021C34.1627 0.466885 30.8718 1.04809 28.0412 2.6181C26.9317 10.521 24.6144 18.2427 24.1313 26.2437C23.8747 30.5763 17.2701 30.4329 17.3833 26.0625C17.572 18.4389 19.5119 11.0871 20.7649 3.62199C15.9869 1.25944 10.7334 0.0894796 6.08378 3.34272C1.35866 6.66388 0.203799 39.2642 0 46.4198C5.55541 47.3784 11.0429 49.8919 15.685 52.4356Z" fill="#FFA901"/>
</svg>
