<svg width="78" height="84" viewBox="0 0 78 84" fill="none" xmlns="http://www.w3.org/2000/svg">
<path d="M24.2431 5.69161C23.3047 5.51003 5.62309 11.3473 3.90152 12.0871C3.42218 12.2888 3.19263 12.7932 3.28715 13.3043C4.92771 22.0939 12.1786 35.6649 13.8934 37.3664C15.7702 40.1303 17.9171 42.6993 20.1923 45.1203C17.6403 45.7121 5.49482 51.8117 4.78593 52.269C4.53614 52.3967 3.01035 53.3853 2.72005 53.8426C0.93096 55.4566 -0.338278 57.4943 0.0803005 60.0363C0.735173 64.031 4.98847 65.1003 8.40461 65.497C14.0014 66.1494 20.3544 64.5219 22.3527 71.0452C23.676 75.3626 23.568 80.8368 28.2466 83.2779C31.5885 85.0197 35.5785 83.4528 37.2865 80.2651C37.3405 80.1575 38.0562 78.9605 38.2992 78.557C40.6757 74.6363 40.7702 68.9537 40.8309 64.4816C40.8444 63.4594 40.9457 62.4103 41.0402 61.3612C48.1223 65.45 54.2727 67.871 57.142 68.456C59.5522 69.1958 74.1619 71.4621 75.1274 71.4419C75.7147 71.4285 76.2211 71.0317 76.3358 70.4534C77.8751 62.5448 77.8886 43.9434 76.6059 43.7753C50.8768 40.3926 38.549 26.6602 36.1793 22.6924C33.4518 18.1194 31.0686 12.0467 30.0357 6.21616C29.6643 4.11123 24.6144 5.69833 24.2566 5.68488" fill="#00DCE9"/>
<path d="M60.5379 0.735281C55.4474 1.18586 50.2692 1.18586 45.2328 2.13408C43.5112 2.45688 41.8774 4.44076 41.9922 6.21616C42.377 12.2014 48.1223 16.9224 52.4431 20.5404C56.1293 23.6272 67.0326 28.7987 73.4193 30.3455C75.6742 30.8902 77.2945 29.6461 77.038 27.6824C77.0245 27.5748 77.9021 20.0024 77.9156 18.1194C77.9494 13.7616 78.1789 9.24913 77.6996 4.92496C77.4903 3.04196 76.5249 0.856331 74.3982 0.432656C69.6588 -0.508844 65.2638 0.318331 60.5311 0.735281M70.6648 10.352C70.6175 12.7865 68.5179 14.804 66.0739 14.7569C63.6367 14.7098 61.6046 12.6116 61.6518 10.1839C61.6991 7.74946 63.7987 5.73196 66.2427 5.77903C68.6799 5.82611 70.712 7.92431 70.6648 10.352Z" fill="#00DCE9"/>
</svg>
