<svg width="126" height="120" viewBox="0 0 126 120" fill="none" xmlns="http://www.w3.org/2000/svg">
<path d="M118.958 37.0937C118.34 33.7224 117.202 30.5245 115.662 27.5868C115.261 27.6952 114.752 27.7711 114.34 27.7711C113.689 27.7711 112.996 27.5542 112.389 27.3266C111.695 27.0664 111.001 26.7521 110.329 26.4269C110.242 26.3835 110.025 26.2859 109.95 26.2426C109.7 26.1667 109.212 26.0258 109.7 26.0908C107.771 25.8415 106.231 24.5298 106.524 22.4268C106.773 20.5514 108.237 19.6842 109.895 19.6951C107.684 17.4511 105.158 15.5107 102.372 13.9606C101.537 14.9145 99.9223 15.3156 98.8274 14.5459C97.7542 13.798 97.0063 12.6814 96.5185 11.4239C94.2745 10.6976 91.9439 10.1665 89.5048 9.9063C87.933 9.7437 86.3828 9.6895 84.8326 9.7437V9.64614L77.7106 8.21522C77.5914 8.08514 77.4613 7.93338 77.3095 7.75993C75.3691 5.44011 73.4721 3.8466 71.1848 2.58913C64.9733 -0.803876 57.9271 -0.446147 52.5612 3.10946C48.7563 2.1772 44.7996 1.91703 40.832 2.37232C36.8862 2.82761 33.1029 3.955 29.6232 5.71112C23.596 3.47803 16.6691 4.71382 11.4007 9.41849C9.44947 11.1529 7.9752 13.1367 6.59848 15.8359C6.45756 16.1178 6.32748 16.3563 6.21908 16.5405C4.17027 17.8956 2.53339 19.8685 1.6228 22.2317C0.0943276 26.1992 0.809785 30.7196 3.48733 34.0367C4.32203 35.0774 5.39522 36.1289 6.65269 37.1262C5.64454 39.7929 5.24345 42.6981 5.59034 45.6683C6.15403 50.5681 8.58225 54.9584 12.4522 58.0262C14.436 59.5981 16.6691 60.7363 19.0214 61.3867C22.9781 66.3515 28.1923 70.0156 34.0352 72.0752H28.344C27.0866 72.0752 25.905 72.4655 24.8968 73.1809C24.2898 72.8882 23.6502 72.6389 22.9781 72.4438C21.6773 72.0644 20.2681 71.8692 18.8046 71.8692C16.6908 71.8692 14.7612 72.2595 13.0701 73.0292C11.108 73.9289 9.54704 75.2839 8.41965 77.0943C7.37898 78.7636 6.79361 80.7257 6.69605 82.9155C6.69605 82.9588 6.69605 83.0022 6.69605 83.0347C6.68521 83.696 6.67437 84.3897 6.67437 85.116C6.67437 85.8423 6.67437 86.5253 6.69605 87.154C6.69605 87.1974 6.69605 87.2299 6.69605 87.2624C6.79361 89.4847 7.37898 91.4576 8.41965 93.127C9.5362 94.9048 11.0972 96.2707 13.0593 97.1596C13.3303 97.2788 13.6121 97.3764 13.894 97.4848C13.5796 97.8533 13.2761 98.2436 13.0051 98.6664C11.9319 100.325 11.3357 102.276 11.2381 104.466C11.2381 104.509 11.2381 104.553 11.2381 104.596C11.2273 105.268 11.2164 105.984 11.2164 106.721C11.2164 107.458 11.2164 108.173 11.2381 108.835C11.2381 108.878 11.2381 108.921 11.2381 108.954C11.3357 111.144 11.9102 113.095 12.94 114.753C14.0457 116.542 15.6067 117.908 17.5797 118.818C19.2816 119.599 21.2328 120 23.3901 120C25.5473 120 27.5093 119.599 29.2438 118.808C29.3956 118.743 29.5365 118.645 29.6882 118.569C30.7181 119.35 31.9539 119.783 33.2872 119.783H36.084C37.1572 119.783 38.187 119.501 39.0868 118.981C40.019 119.501 41.0814 119.783 42.2196 119.783H45.1031C45.4066 119.783 45.6885 119.74 45.9812 119.696C46.2738 119.74 46.5557 119.783 46.8592 119.783H49.5259C51.2712 119.783 52.8647 119.122 53.9704 117.93C54.003 117.962 54.0246 117.995 54.0572 118.016C55.1845 119.154 56.7239 119.772 58.3824 119.772H61.0491C61.8405 119.772 62.6101 119.621 63.3147 119.317C64.0302 119.61 64.789 119.772 65.5804 119.772H68.4422C69.8297 119.772 71.1306 119.306 72.1712 118.461C73.2227 119.306 74.5127 119.772 75.9003 119.772H78.8055C79.9871 119.772 81.1036 119.425 82.0575 118.808C82.1443 118.84 82.2093 118.894 82.296 118.927C83.9546 119.642 85.83 119.989 88.0414 119.989C90.0035 119.989 91.8138 119.675 93.4181 119.035C95.2827 118.298 96.822 117.192 97.9819 115.729C98.99 114.471 99.6296 112.986 99.8789 111.382C99.9331 111.382 99.9982 111.371 100.052 111.36C100.215 111.393 100.378 111.415 100.54 111.436C101.7 111.566 102.871 111.36 103.922 110.84C104.215 110.688 104.508 110.515 104.768 110.32L106.242 109.214C107.597 108.249 108.475 106.764 108.66 105.105C108.681 105.073 108.703 105.03 108.725 104.997C109.386 103.75 109.592 102.298 109.288 100.921C109.245 100.726 109.191 100.531 109.126 100.336L108.529 98.5797C108.475 98.417 108.389 98.2761 108.324 98.1135H109.288C110.871 98.1135 112.356 97.4956 113.462 96.3899C114.578 95.2734 115.185 93.7991 115.185 92.2381C115.185 91.501 115.044 90.7638 114.773 90.0809L109.776 76.3788C109.429 75.3381 108.822 74.4059 107.977 73.6579C107.836 73.5278 107.662 73.4302 107.51 73.311C109.093 71.9234 110.557 70.395 111.868 68.7147C118.882 66.6876 124.335 60.5845 125.137 52.8879C125.776 46.8174 123.305 40.9853 118.958 37.1262V37.0937ZM93.8517 82.4927C93.8626 82.6228 93.8301 82.7312 93.7325 82.8179C93.6349 82.9046 93.5265 82.948 93.3965 82.948H90.4696C90.2853 82.948 90.1335 82.9046 90.036 82.8288C89.9384 82.7529 89.8517 82.6011 89.7758 82.3843C89.5699 81.6146 89.2446 81.0943 88.7893 80.8125C88.3341 80.5306 87.7704 80.3897 87.1091 80.3897C86.3178 80.3897 85.689 80.6065 85.2229 81.0509C84.7568 81.4954 84.5074 82.2217 84.4641 83.2515C84.4207 84.4331 84.4207 85.6472 84.4641 86.8939C84.5074 87.9237 84.7568 88.65 85.2229 89.0944C85.689 89.5389 86.3178 89.7557 87.1091 89.7557C87.7704 89.7557 88.3341 89.6148 88.8002 89.3221C89.2663 89.0294 89.5915 88.509 89.7758 87.7611C89.83 87.5443 89.9167 87.3925 90.0251 87.3166C90.1335 87.2407 90.2853 87.1974 90.4696 87.1974H93.3965C93.5265 87.1974 93.6349 87.2407 93.7325 87.3275C93.8301 87.4142 93.8626 87.5226 93.8517 87.6527C93.8409 88.4657 93.6566 89.192 93.3206 89.8316C92.9845 90.4711 92.5076 91.024 91.9005 91.4793C91.2934 91.9346 90.5888 92.2815 89.7758 92.5199C88.9628 92.7584 88.0847 92.8777 87.1308 92.8777L86.6972 93.7449C86.7839 93.7015 86.9031 93.669 87.0549 93.6473C87.2067 93.6256 87.3259 93.6148 87.4126 93.6148C87.933 93.6148 88.3449 93.7882 88.6593 94.1351C88.9736 94.482 89.1254 94.9373 89.1254 95.501C89.1254 96.0647 88.9411 96.5092 88.5725 96.8777C88.204 97.2463 87.6836 97.4306 87.0224 97.4306C86.6321 97.4306 86.2744 97.3655 85.96 97.2355C85.6457 97.1054 85.418 96.9536 85.2879 96.7802C85.1579 96.6067 85.1687 96.455 85.3096 96.3249L85.6999 95.978C85.83 95.8587 85.9384 95.8262 86.0359 95.8587C86.1335 95.8913 86.2527 95.9563 86.3937 96.0322C86.5346 96.1081 86.7514 96.1514 87.0224 96.1514C87.2392 96.1514 87.4126 96.0864 87.5427 95.9671C87.6728 95.8479 87.7378 95.6853 87.7378 95.501C87.7378 95.3276 87.6728 95.1758 87.5536 95.0566C87.4343 94.9373 87.25 94.8723 87.0224 94.8723C86.8489 94.8723 86.6863 94.894 86.5454 94.9482C86.4045 95.0024 86.2636 95.024 86.1443 95.0349C86.0251 95.0349 85.9058 95.0024 85.8083 94.9156L85.3747 94.482C85.2879 94.3953 85.2554 94.2977 85.2663 94.2002C85.2771 94.1026 85.3205 93.9617 85.3963 93.7882L85.83 92.7909C84.7351 92.6609 83.792 92.3573 83.0006 91.8804C82.2093 91.4034 81.6023 90.753 81.1686 89.94C80.735 89.1269 80.4857 88.1405 80.4315 87.0023C80.4207 86.406 80.4098 85.7773 80.4098 85.0944C80.4098 84.4114 80.4098 83.761 80.4315 83.1431C80.4857 81.8856 80.7892 80.8125 81.3421 79.9344C81.8949 79.0563 82.6538 78.3842 83.6402 77.9398C84.6267 77.4953 85.7866 77.2677 87.1308 77.2677C88.0847 77.2677 88.9628 77.3869 89.7758 77.6254C90.5888 77.8639 91.2934 78.2108 91.9005 78.6661C92.5076 79.1214 92.9845 79.6742 93.3206 80.3138C93.6566 80.9534 93.8409 81.6797 93.8517 82.4927ZM55.5314 97.7775C55.4122 97.875 55.3038 97.9509 55.1845 98.0051C55.0653 98.0593 54.9135 98.081 54.7076 98.081H52.6046C52.3769 98.081 52.2577 97.9618 52.2577 97.7341C52.2577 97.6149 52.2902 97.5281 52.3661 97.4523L54.274 95.1324C54.4149 94.959 54.545 94.8506 54.6425 94.7964C54.7401 94.7422 54.8919 94.7205 55.0761 94.7205H58.1114C58.3824 94.7205 58.5233 94.8614 58.5233 95.1541C58.5233 95.2517 58.4908 95.3384 58.4149 95.4143L55.5314 97.7775ZM27.7912 78.0265C27.7912 77.8639 27.8454 77.7338 27.943 77.6363C28.0405 77.5387 28.1706 77.4845 28.3332 77.4845H34.2303C36.1057 77.4845 37.58 77.9181 38.6531 78.7745C39.7263 79.6309 40.2575 80.8558 40.2575 82.4277C40.2575 83.4575 40.0082 84.3247 39.5204 85.0293C39.0325 85.7339 38.3821 86.2759 37.5691 86.6337L40.5393 91.9671C40.5827 92.0538 40.6044 92.1297 40.6044 92.2056C40.6044 92.3248 40.561 92.4224 40.4635 92.5199C40.3659 92.6175 40.2683 92.6609 40.1491 92.6609H37.2656C36.9946 92.6609 36.7886 92.5958 36.6585 92.4549C36.5285 92.314 36.4309 92.1947 36.3767 92.0755L33.9051 87.3058H31.6937V92.1189C31.6937 92.2598 31.6395 92.3899 31.5311 92.4983C31.4227 92.6067 31.2926 92.6609 31.13 92.6609H28.3332C28.1706 92.6609 28.0405 92.6067 27.943 92.4983C27.8454 92.3899 27.7912 92.2598 27.7912 92.1189V78.0265ZM74.1875 86.2217V78.0265C74.1875 77.8639 74.2417 77.7338 74.3393 77.6363C74.4368 77.5387 74.5669 77.4845 74.7295 77.4845H77.3312C77.4938 77.4845 77.6239 77.5387 77.7214 77.6363C77.819 77.7338 77.8732 77.8639 77.8732 78.0265V92.0972C77.8732 92.2598 77.819 92.3899 77.7214 92.4983C77.6239 92.6067 77.4938 92.6609 77.3312 92.6609H75.0114C74.7837 92.6609 74.6103 92.6067 74.5019 92.4874C74.3935 92.3682 74.3284 92.2923 74.2959 92.2489L69.0059 84.2271V92.1189C69.0059 92.2598 68.9517 92.3899 68.8541 92.4983C68.7565 92.6067 68.6265 92.6609 68.4639 92.6609H65.8622C65.6996 92.6609 65.5695 92.6067 65.4719 92.4983C65.3744 92.3899 65.3202 92.2598 65.3202 92.1189V78.0265C65.3202 77.8639 65.3744 77.7338 65.4719 77.6363C65.5695 77.5387 65.6996 77.4845 65.8622 77.4845H68.1603C68.4097 77.4845 68.5831 77.5387 68.6915 77.6471C68.7999 77.7555 68.865 77.8422 68.8975 77.8964L74.1875 86.2217ZM53.1357 89.9942L52.3119 92.2056C52.2794 92.2923 52.2143 92.3899 52.1167 92.4983C52.0192 92.6067 51.8457 92.6609 51.5964 92.6609H48.9297C48.8105 92.6609 48.7129 92.6175 48.6153 92.5199C48.5178 92.4224 48.4744 92.3248 48.4744 92.2056C48.4744 92.1297 48.4744 92.0647 48.4961 92.0104L53.591 78.0916C53.6344 77.9289 53.7211 77.788 53.862 77.6688C54.0029 77.5495 54.1872 77.4845 54.4366 77.4845H57.6453C57.8946 77.4845 58.0789 77.5495 58.2198 77.6688C58.3607 77.788 58.4475 77.9289 58.4908 78.0916L63.5641 92.0104C63.5966 92.0647 63.6074 92.1297 63.6074 92.2056C63.6074 92.3248 63.5641 92.4224 63.4665 92.5199C63.3689 92.6175 63.2605 92.6609 63.1305 92.6609H60.4637C60.2469 92.6609 60.0843 92.6067 59.9759 92.4983C59.8675 92.3899 59.8025 92.2923 59.77 92.2056L58.9244 89.9942H53.1357ZM46.7833 92.1189C46.7833 92.2598 46.7291 92.3899 46.6207 92.4983C46.5123 92.6067 46.3822 92.6609 46.2196 92.6609H43.3145C43.1518 92.6609 43.0218 92.6067 42.9242 92.4983C42.8266 92.3899 42.7724 92.2598 42.7724 92.1189V78.0265C42.7724 77.8639 42.8266 77.7338 42.9242 77.6363C43.0218 77.5387 43.1518 77.4845 43.3145 77.4845H46.2196C46.3822 77.4845 46.5123 77.5387 46.6207 77.6363C46.7291 77.7338 46.7833 77.8639 46.7833 78.0265V92.1189ZM13.0051 90.2326C12.4631 89.3654 12.1595 88.2922 12.1053 87.0023C12.0945 86.406 12.0837 85.7773 12.0837 85.0944C12.0837 84.4114 12.0837 83.761 12.1053 83.1431C12.1595 81.8856 12.4631 80.8125 13.0159 79.9344C13.5688 79.0563 14.3276 78.3842 15.3141 77.9398C16.3005 77.4953 17.4604 77.2677 18.8046 77.2677C19.7586 77.2677 20.6366 77.3869 21.4496 77.6254C22.2627 77.8639 22.9673 78.2108 23.5743 78.6661C24.1814 79.1214 24.6584 79.6742 24.9944 80.3138C25.3305 80.9534 25.5147 81.6797 25.5256 82.4927C25.5364 82.6228 25.5039 82.7312 25.4063 82.8179C25.3088 82.9046 25.2004 82.948 25.0703 82.948H22.1434C21.9591 82.948 21.8074 82.9046 21.7098 82.8288C21.6122 82.7529 21.5255 82.6011 21.4496 82.3843C21.2437 81.6146 20.9185 81.0943 20.4632 80.8125C20.0079 80.5306 19.4442 80.3897 18.7829 80.3897C17.9916 80.3897 17.3629 80.6065 16.8967 81.0509C16.4306 81.4954 16.1813 82.2217 16.1379 83.2515C16.0946 84.4331 16.0946 85.6472 16.1379 86.8939C16.1813 87.9237 16.4306 88.65 16.8967 89.0944C17.3629 89.5389 17.9916 89.7557 18.7829 89.7557C19.4442 89.7557 20.0079 89.6148 20.474 89.3221C20.9402 89.0294 21.2654 88.509 21.4496 87.7611C21.5038 87.5443 21.5906 87.3925 21.699 87.3166C21.8074 87.2407 21.9591 87.1974 22.1434 87.1974H25.0703C25.2004 87.1974 25.3088 87.2407 25.4063 87.3275C25.5039 87.4142 25.5364 87.5226 25.5256 87.6527C25.5147 88.4657 25.3305 89.192 24.9944 89.8316C24.6584 90.4711 24.1814 91.024 23.5743 91.4793C22.9673 91.9346 22.2627 92.2815 21.4496 92.5199C20.6366 92.7584 19.7586 92.8777 18.8046 92.8777C17.4496 92.8777 16.2788 92.65 15.2924 92.2056C14.3059 91.7611 13.5471 91.0999 13.0051 90.2326ZM23.3792 114.558C22.0025 114.558 20.8209 114.331 19.8344 113.875C18.848 113.42 18.0783 112.759 17.5363 111.881C16.9943 111.003 16.6908 109.94 16.6366 108.683C16.6257 108.065 16.6149 107.404 16.6149 106.699C16.6149 105.994 16.6149 105.333 16.6366 104.694C16.6908 103.469 16.9943 102.428 17.5471 101.572C18.1 100.715 18.8697 100.065 19.867 99.6203C20.8643 99.1759 22.035 98.9482 23.3792 98.9482C24.4632 98.9482 25.428 99.0783 26.2627 99.3493C27.0974 99.6203 27.802 99.978 28.3766 100.422C28.9511 100.867 29.3847 101.366 29.6882 101.897C29.9918 102.428 30.1544 102.959 30.1652 103.479C30.1652 103.61 30.1219 103.718 30.0243 103.805C29.9267 103.891 29.8183 103.935 29.6882 103.935H26.5229C26.3603 103.935 26.241 103.913 26.1652 103.859C26.0893 103.805 26.0134 103.729 25.9592 103.631C25.8616 103.414 25.7099 103.187 25.5147 102.948C25.3196 102.71 25.0486 102.504 24.7126 102.33C24.3765 102.157 23.9321 102.07 23.3792 102.07C22.5662 102.07 21.9266 102.287 21.4496 102.721C20.9727 103.154 20.7125 103.848 20.6691 104.802C20.6258 106.049 20.6258 107.306 20.6691 108.574C20.7125 109.583 20.9835 110.32 21.4713 110.764C21.9591 111.209 22.6204 111.436 23.4443 111.436C23.9754 111.436 24.4632 111.339 24.886 111.154C25.3088 110.97 25.6448 110.677 25.8942 110.276C26.1435 109.875 26.2627 109.366 26.2627 108.748V108.336H24.2248C24.0621 108.336 23.9321 108.282 23.8345 108.173C23.7369 108.065 23.6827 107.935 23.6827 107.772V106.168C23.6827 106.005 23.7369 105.875 23.8345 105.767C23.9321 105.658 24.0621 105.604 24.2248 105.604H29.6882C29.8508 105.604 29.9809 105.658 30.0785 105.767C30.1761 105.875 30.2303 106.005 30.2303 106.168V108.639C30.2303 109.886 29.9484 110.948 29.3847 111.826C28.821 112.705 28.0188 113.387 26.989 113.854C25.9592 114.32 24.7559 114.558 23.3792 114.558ZM38.8374 108.986H36.626V113.799C36.626 113.94 36.5718 114.07 36.4634 114.179C36.355 114.287 36.2249 114.341 36.0623 114.341H33.2655C33.1029 114.341 32.9728 114.287 32.8753 114.179C32.7777 114.07 32.7235 113.94 32.7235 113.799V99.707C32.7235 99.5444 32.7777 99.4144 32.8753 99.3168C32.9728 99.2192 33.1029 99.165 33.2655 99.165H39.1626C41.038 99.165 42.5123 99.5986 43.5855 100.455C44.6586 101.311 45.1898 102.536 45.1898 104.108C45.1898 105.138 44.9405 106.005 44.4527 106.71C43.9649 107.414 43.3145 107.956 42.5014 108.314L45.4717 113.648C45.515 113.734 45.5367 113.81 45.5367 113.886C45.5367 114.005 45.4933 114.103 45.3958 114.2C45.2982 114.298 45.2007 114.341 45.0814 114.341H42.1979C41.9269 114.341 41.7209 114.276 41.5909 114.135C41.4608 113.994 41.3632 113.875 41.309 113.756L38.8374 108.986ZM57.8838 114.179C57.7754 114.07 57.7103 113.973 57.6778 113.886L56.8323 111.675H51.0436L50.2197 113.886C50.1872 113.973 50.1221 114.07 50.0246 114.179C49.927 114.287 49.7536 114.341 49.5042 114.341H46.8375C46.7183 114.341 46.6207 114.298 46.5232 114.2C46.4256 114.103 46.3822 114.005 46.3822 113.886C46.3822 113.81 46.3822 113.745 46.4039 113.691L51.4989 99.7721C51.5422 99.6095 51.6289 99.4686 51.7699 99.3493C51.9108 99.2301 52.0951 99.165 52.3444 99.165H55.5531C55.8024 99.165 55.9867 99.2301 56.1276 99.3493C56.2686 99.4686 56.3553 99.6095 56.3986 99.7721L61.4719 113.691C61.5044 113.745 61.5153 113.81 61.5153 113.886C61.5153 114.005 61.4719 114.103 61.3743 114.2C61.2768 114.298 61.1684 114.341 61.0383 114.341H58.3716C58.1548 114.341 57.9922 114.287 57.8838 114.179ZM68.9625 113.799C68.9625 113.94 68.9083 114.07 68.8107 114.179C68.7132 114.287 68.5831 114.341 68.4205 114.341H65.5587C65.3961 114.341 65.266 114.287 65.1684 114.179C65.0709 114.07 65.0167 113.94 65.0167 113.799V102.569H61.1575C60.9949 102.569 60.8648 102.515 60.7673 102.406C60.6697 102.298 60.6155 102.168 60.6155 102.027V99.707C60.6155 99.5444 60.6697 99.4144 60.7673 99.3168C60.8648 99.2192 60.9949 99.165 61.1575 99.165H72.8216C72.9843 99.165 73.1143 99.2192 73.2119 99.3168C73.3094 99.4144 73.3637 99.5444 73.3637 99.707V102.027C73.3637 102.168 73.3094 102.298 73.2119 102.406C73.1143 102.515 72.9843 102.569 72.8216 102.569H68.9625V113.799ZM75.4883 114.179C75.3908 114.07 75.3366 113.94 75.3366 113.799V99.707C75.3366 99.5444 75.3908 99.4144 75.4883 99.3168C75.5859 99.2192 75.716 99.165 75.8786 99.165H78.7838C78.9464 99.165 79.0765 99.2192 79.1849 99.3168C79.2933 99.4144 79.3475 99.5444 79.3475 99.707V113.799C79.3475 113.94 79.2933 114.07 79.1849 114.179C79.0765 114.287 78.9464 114.341 78.7838 114.341H75.8786C75.716 114.341 75.5859 114.287 75.4883 114.179ZM93.7217 112.347C93.158 113.051 92.3883 113.604 91.4127 113.984C90.4371 114.363 89.3097 114.558 88.0197 114.558C86.5779 114.558 85.3747 114.352 84.4207 113.94C83.4668 113.528 82.7405 112.986 82.2527 112.325C81.7649 111.664 81.5047 110.948 81.4722 110.2C81.4722 110.081 81.5155 109.984 81.6131 109.886C81.7107 109.788 81.8191 109.745 81.9491 109.745H84.6809C84.8869 109.745 85.0386 109.778 85.147 109.854C85.2554 109.929 85.353 110.016 85.4397 110.135C85.559 110.352 85.7216 110.558 85.9275 110.764C86.1335 110.97 86.4153 111.133 86.7622 111.252C87.1091 111.371 87.5319 111.436 88.0197 111.436C88.8544 111.436 89.494 111.306 89.9167 111.046C90.3395 110.786 90.5563 110.428 90.5563 109.984C90.5563 109.648 90.4371 109.387 90.2094 109.181C89.9818 108.975 89.6024 108.791 89.0929 108.629C88.5834 108.466 87.9004 108.293 87.0441 108.119C85.9492 107.891 85.0061 107.588 84.2364 107.219C83.4668 106.851 82.8706 106.363 82.4695 105.767C82.0684 105.171 81.8624 104.423 81.8624 103.523C81.8624 102.623 82.1117 101.853 82.6104 101.16C83.1091 100.466 83.8028 99.9238 84.7026 99.5336C85.6023 99.1433 86.6647 98.9482 87.8896 98.9482C88.8869 98.9482 89.765 99.0783 90.5238 99.3385C91.2826 99.5986 91.9222 99.9455 92.4425 100.379C92.9629 100.813 93.3531 101.268 93.6241 101.756C93.8951 102.244 94.036 102.71 94.0469 103.176C94.0469 103.295 94.0035 103.393 93.9276 103.49C93.8517 103.588 93.7325 103.631 93.5916 103.631H90.7298C90.5672 103.631 90.4371 103.599 90.3178 103.544C90.1986 103.49 90.101 103.393 90.0143 103.263C89.9276 102.948 89.6999 102.666 89.3314 102.428C88.9628 102.189 88.4858 102.07 87.8896 102.07C87.25 102.07 86.7622 102.179 86.4045 102.406C86.0468 102.634 85.8733 102.97 85.8733 103.436C85.8733 103.729 85.9709 103.978 86.166 104.195C86.3611 104.412 86.6863 104.596 87.1416 104.759C87.5969 104.921 88.2257 105.084 89.017 105.257C90.3287 105.507 91.391 105.81 92.204 106.179C93.0171 106.547 93.6133 107.024 93.9927 107.61C94.3721 108.195 94.5672 108.932 94.5672 109.81C94.5672 110.797 94.2854 111.642 93.7217 112.347ZM103.922 102.428C103.857 102.547 103.771 102.623 103.651 102.656C103.641 102.656 103.619 102.656 103.597 102.666C103.575 102.677 103.543 102.688 103.5 102.699L101.657 102.851L103.066 104.021C103.142 104.097 103.174 104.141 103.174 104.152C103.25 104.249 103.272 104.368 103.261 104.498C103.25 104.629 103.185 104.726 103.066 104.802L101.505 105.973C101.386 106.027 101.266 106.049 101.136 106.038C101.006 106.027 100.909 105.962 100.833 105.864C100.833 105.832 100.833 105.81 100.811 105.799C100.8 105.788 100.779 105.756 100.746 105.713L100.031 104L99.3369 105.713C99.3369 105.713 99.3044 105.788 99.2936 105.799C99.2827 105.81 99.261 105.832 99.2502 105.864C99.196 105.962 99.0984 106.027 98.9575 106.038C98.8166 106.049 98.6973 106.038 98.5781 105.973L97.0171 104.802C96.9195 104.726 96.8545 104.629 96.8437 104.498C96.8328 104.368 96.8437 104.249 96.9087 104.152C96.9087 104.141 96.9412 104.097 97.0171 104.021L98.4263 102.851L96.5835 102.699C96.5835 102.699 96.5076 102.677 96.4859 102.666C96.4642 102.656 96.4426 102.656 96.4317 102.656C96.3125 102.623 96.2258 102.547 96.1607 102.428C96.0957 102.309 96.074 102.179 96.1065 102.049L96.7353 100.206C96.7678 100.086 96.8437 99.9997 96.9737 99.9455C97.1038 99.8913 97.2231 99.8696 97.3206 99.9022C97.3315 99.9022 97.3965 99.9238 97.4941 99.9672L99.0334 100.943L98.5998 99.165C98.5998 99.165 98.5781 99.0891 98.5781 99.0566V98.9916C98.5781 98.8723 98.6215 98.7639 98.719 98.6664C98.8166 98.5688 98.925 98.5146 99.0551 98.5146H101.006C101.136 98.5146 101.245 98.5688 101.342 98.6664C101.44 98.7639 101.483 98.8723 101.483 98.9916V99.0566C101.483 99.0566 101.483 99.1217 101.462 99.165L101.028 100.943L102.589 99.9672C102.687 99.9238 102.752 99.9022 102.762 99.9022C102.882 99.8696 103.001 99.8913 103.12 99.9455C103.239 99.9997 103.315 100.086 103.348 100.206L103.977 102.049C104.009 102.179 103.977 102.309 103.922 102.428ZM103.781 77.4845C104.031 77.4845 104.215 77.5495 104.356 77.6688C104.497 77.788 104.584 77.9289 104.627 78.0916L109.7 92.0104C109.733 92.0647 109.744 92.1297 109.744 92.2056C109.744 92.3248 109.7 92.4224 109.603 92.5199C109.505 92.6175 109.397 92.6609 109.267 92.6609H106.6C106.383 92.6609 106.22 92.6067 106.112 92.4983C106.004 92.3899 105.939 92.2923 105.906 92.2056L105.061 89.9942H99.2719L98.448 92.2056C98.4155 92.2923 98.3505 92.3899 98.2529 92.4983C98.1553 92.6067 97.9819 92.6609 97.7326 92.6609H95.0659C94.9466 92.6609 94.8491 92.6175 94.7515 92.5199C94.6539 92.4224 94.6106 92.3248 94.6106 92.2056C94.6106 92.1297 94.6106 92.0647 94.6322 92.0104L99.7272 78.0916C99.7705 77.9289 99.8573 77.788 99.9982 77.6688C100.139 77.5495 100.323 77.4845 100.573 77.4845H103.781ZM114.362 51.728C113.928 55.9124 110.166 58.9585 105.982 58.514C105.852 58.5032 105.733 58.4707 105.613 58.4598C101.429 66.4708 92.6593 71.5657 83.1307 70.5576C73.6021 69.5603 66.079 62.7634 63.6508 54.0587C63.5315 54.0587 63.4231 54.0587 63.3039 54.037C59.6833 58.8392 54.1981 62.2322 47.7698 62.9694C38.252 64.0534 29.4389 59.056 25.1787 51.0776C25.0595 51.0993 24.9294 51.121 24.8101 51.1427C20.6366 51.6196 16.8425 48.606 16.3656 44.4325C15.932 40.6276 18.3819 37.1587 21.9808 36.2048C21.9375 34.3728 22.1326 32.595 22.512 30.8714C22.2193 30.9256 21.9158 30.9798 21.6014 31.0231C15.6176 31.7061 12.0837 27.4133 11.9319 27.229C11.6826 26.9255 11.6175 26.5027 11.7584 26.1342C11.8994 25.7656 12.2246 25.5054 12.6148 25.4404C12.6257 25.4404 14.2192 24.8225 16.2788 20.7574C17.0268 19.2831 17.7098 18.34 18.6203 17.527C22.0459 14.4701 25.8942 15.2289 28.1814 17.3319C28.6584 17.7763 29.092 18.3075 29.4498 18.8929C32.8428 15.8142 37.1789 13.7112 42.0787 13.1584C47.0001 12.5947 51.7157 13.6787 55.7374 15.9335C55.9542 15.2614 56.2577 14.6327 56.6371 14.0798C58.3933 11.5107 61.9705 9.9063 65.9923 12.1069C67.0655 12.6923 67.9435 13.4511 69.0059 14.7194C72.0086 18.3075 73.6672 18.4484 73.6347 18.4484C74.0249 18.4159 74.4043 18.6002 74.632 18.9362C74.8488 19.2614 74.8813 19.6842 74.7078 20.0419C74.6103 20.2588 72.1279 25.2344 66.144 25.9174C65.808 25.9607 65.472 25.9716 65.1467 25.9824C65.9056 27.5759 66.4909 29.2779 66.8703 31.0665C66.8703 31.0665 66.892 31.0665 66.9029 31.0665C71.3907 24.0637 79.5534 19.7601 88.3774 20.6924C100.128 21.9282 108.844 31.9662 108.692 43.5545C112.291 44.4759 114.784 47.9231 114.383 51.728H114.362Z" fill="white"/>
<path d="M22.6312 43.0016L22.1109 38.4704C19.7911 39.2943 18.2518 41.6249 18.5445 44.1724C18.8697 47.0125 21.3521 49.0722 24.1706 48.9421C23.4117 47.0776 22.8697 45.0938 22.6312 42.9908V43.0016Z" fill="white"/>
<path d="M64.995 33.3646C63.7158 22.145 53.5368 14.0581 42.3172 15.3481C31.0975 16.6273 23.0106 26.8063 24.3006 38.0259L24.8426 42.7523C26.1218 53.972 36.3008 62.0588 47.5205 60.7688C53.0056 60.1401 57.732 57.3867 60.9841 53.4191C58.0464 52.1183 56.1276 49.018 56.4854 45.6575C56.8865 41.8526 60.0301 39.0016 63.7483 38.839C64.0519 37.2888 64.518 35.7928 65.1142 34.3836L64.995 33.3755V33.3646ZM35.6287 43.11C34.1111 43.2835 32.7344 42.1561 32.5609 40.5842C32.3766 39.0124 33.4715 37.6032 34.9891 37.4297C36.5068 37.2563 37.8835 38.3837 38.0569 39.9555C38.2412 41.5274 37.1463 42.9366 35.6395 43.11H35.6287ZM54.003 47.6521C53.2225 51.1535 50.3173 53.766 46.7617 54.1779C43.2061 54.5899 39.7805 52.682 38.2304 49.4516C37.9702 48.8987 38.1978 48.2375 38.7507 47.9773C39.3036 47.7171 39.9648 47.9448 40.225 48.4976C41.3632 50.8825 43.889 52.2809 46.5123 51.9774C49.1357 51.6738 51.2712 49.7443 51.8457 47.1643C51.9758 46.5681 52.572 46.1995 53.1683 46.3296C53.7645 46.4597 54.1439 47.0559 54.003 47.6521ZM55.0978 40.8769C53.5802 41.0504 52.2035 39.923 52.03 38.3512C51.8457 36.7793 52.9406 35.3701 54.4582 35.1966C55.9759 35.0232 57.3526 36.1506 57.526 37.7224C57.7103 39.2943 56.6155 40.7035 55.1087 40.8769H55.0978ZM38.0136 22.7845C36.9079 25.6247 33.981 31.2725 27.5852 33.5706C27.4985 33.6031 27.4226 33.6248 27.3359 33.6248C26.8373 33.679 26.3494 33.3972 26.1652 32.8985C25.9592 32.324 26.2519 31.6952 26.8264 31.4784C34.2303 28.8117 36.3984 20.6382 36.42 20.5623C36.5176 20.172 36.8211 19.8685 37.2114 19.7601C37.6016 19.6625 38.0136 19.7818 38.2954 20.0745C42.1545 24.1504 54.1872 27.435 60.5071 26.1233C61.1033 26.0041 61.6887 26.3835 61.8188 26.9797C61.938 27.5759 61.5586 28.1613 60.9624 28.2914C54.4366 29.6356 43.2603 26.8388 38.0136 22.7737V22.7845Z" fill="white"/>
<path d="M60.9732 53.4191C57.7103 57.3758 52.9948 60.1401 47.5096 60.7688C36.29 62.048 26.1218 53.972 24.8318 42.7523L24.2898 38.0259C23.0106 26.8063 31.0866 16.6381 42.3063 15.3481C53.526 14.069 63.6941 22.145 64.9841 33.3646L65.1034 34.3728C65.602 33.2129 66.2091 32.1072 66.8812 31.0557C66.8812 31.0557 66.8595 31.0557 66.8487 31.0557C66.4801 29.267 65.8839 27.5651 65.1251 25.9716C65.4503 25.9716 65.7863 25.939 66.1224 25.9065C72.1062 25.2236 74.5886 20.2371 74.6862 20.0311C74.8596 19.6734 74.8271 19.2506 74.6103 18.9254C74.3935 18.6002 74.0141 18.4159 73.613 18.4376C73.6455 18.4376 71.9869 18.2858 68.9842 14.7085C67.9218 13.4402 67.0438 12.6814 65.9706 12.096C61.938 9.89546 58.3716 11.4998 56.6155 14.069C56.236 14.6218 55.9325 15.2506 55.7157 15.9226C51.694 13.6679 46.9785 12.5838 42.057 13.1475C37.168 13.7112 32.8319 15.8034 29.4281 18.882C29.0703 18.2967 28.6476 17.7655 28.1598 17.321C25.8725 15.218 22.0242 14.4592 18.5987 17.5162C17.6881 18.3292 17.0051 19.2723 16.2572 20.7466C14.1975 24.8008 12.604 25.4296 12.5932 25.4296C12.2029 25.4946 11.8777 25.7548 11.7368 26.1233C11.5958 26.4919 11.6609 26.9038 11.9102 27.2182C12.062 27.4025 15.5959 31.6952 21.5797 31.0123C21.8941 30.9798 22.1868 30.9256 22.4903 30.8605C22.1109 32.5841 21.9266 34.3728 21.9591 36.1939C18.371 37.1479 15.9103 40.6168 16.3439 44.4217C16.8209 48.5952 20.6149 51.6088 24.7884 51.1318C24.9185 51.121 25.0378 51.0885 25.157 51.0668C29.4172 59.0452 38.2304 64.0426 47.7481 62.9585C54.1872 62.2214 59.6724 58.8392 63.2822 54.0262C63.2822 54.0262 63.2605 54.0262 63.2497 54.0262C62.4367 53.9394 61.667 53.7226 60.9624 53.4083L60.9732 53.4191ZM18.5445 44.1724C18.2518 41.6249 19.7911 39.2943 22.1109 38.4704L22.6312 43.0016C22.8697 45.0938 23.4117 47.0776 24.1706 48.9529C21.3521 49.083 18.8697 47.0234 18.5445 44.1832V44.1724Z" fill="#F85600"/>
<path d="M54.4474 35.2075C52.9298 35.3809 51.8457 36.7901 52.0192 38.362C52.2035 39.9338 53.5693 41.0612 55.087 40.8878C56.6046 40.7143 57.6886 39.3051 57.5044 37.7333C57.3201 36.1614 55.9542 35.034 54.4366 35.2075H54.4474Z" fill="#F85600"/>
<path d="M34.9783 37.4297C33.4607 37.6032 32.3766 39.0124 32.5501 40.5842C32.7344 42.1561 34.1002 43.2835 35.6179 43.11C37.1355 42.9366 38.2195 41.5273 38.0352 39.9555C37.851 38.3837 36.4851 37.2563 34.9674 37.4297H34.9783Z" fill="#F85600"/>
<path d="M53.1574 46.3296C52.5612 46.1995 51.965 46.5681 51.8349 47.1643C51.2604 49.7443 49.114 51.6738 46.5015 51.9774C43.889 52.2809 41.3524 50.8825 40.2141 48.4976C39.954 47.9448 39.2927 47.7171 38.7399 47.9773C38.187 48.2375 37.9594 48.8987 38.2195 49.4516C39.7697 52.682 43.1952 54.579 46.7508 54.1779C50.3064 53.7768 53.2116 51.1535 53.9921 47.6521C54.1222 47.0559 53.7536 46.4705 53.1574 46.3296Z" fill="#F85600"/>
<path d="M61.8296 26.9906C61.7104 26.3943 61.125 26.0149 60.518 26.1342C54.1981 27.4458 42.1654 24.1612 38.3063 20.0853C38.0244 19.7926 37.6125 19.6734 37.2222 19.7709C36.832 19.8685 36.5285 20.1829 36.4309 20.5731C36.4092 20.649 34.252 28.8334 26.8373 31.4893C26.2627 31.6952 25.9592 32.324 26.176 32.9093C26.3494 33.3972 26.8481 33.6898 27.3467 33.6356C27.4335 33.6356 27.5094 33.6031 27.5961 33.5814C34.0027 31.2833 36.9295 25.6247 38.0244 22.7954C43.2711 26.8496 54.4474 29.6573 60.9732 28.3131C61.5695 28.1938 61.9597 27.6084 61.8296 27.0014V26.9906Z" fill="#F85600"/>
<path d="M108.54 45.8201L108.063 50.3513C107.847 52.4435 107.326 54.4381 106.578 56.3135C109.397 56.411 111.857 54.3405 112.161 51.4896C112.432 48.9421 110.86 46.6223 108.54 45.8201Z" fill="white"/>
<path d="M108.67 43.5545C108.822 31.9662 100.107 21.9282 88.3557 20.6924C79.5318 19.7709 71.369 24.0637 66.8812 31.0665C66.2091 32.118 65.602 33.2129 65.1034 34.3836C64.5072 35.7929 64.041 37.2888 63.7375 38.839C60.0193 38.9907 56.8756 41.8526 56.4745 45.6575C56.1168 49.0288 58.0355 52.1183 60.9732 53.4191C61.6887 53.7335 62.4475 53.9503 63.2605 54.037C63.2605 54.037 63.2822 54.037 63.2931 54.037C63.4123 54.0479 63.5207 54.0479 63.6399 54.0587C66.0682 62.7634 73.5913 69.5603 83.1199 70.5576C92.6485 71.5549 101.418 66.4708 105.603 58.4598C105.722 58.4815 105.852 58.5032 105.971 58.514C110.156 58.9477 113.917 55.9015 114.351 51.728C114.752 47.9231 112.259 44.4759 108.66 43.5545H108.67ZM112.161 51.4896C111.857 54.3297 109.397 56.411 106.578 56.3135C107.315 54.4381 107.836 52.4543 108.063 50.3513L108.54 45.8201C110.871 46.6223 112.432 48.9421 112.161 51.4896ZM83.3584 68.357C72.1279 67.1754 63.9435 57.0831 65.1251 45.8526L65.6237 41.1263C66.8053 29.8957 76.8976 21.7114 88.1281 22.8929C99.3586 24.0745 107.543 34.1668 106.361 45.3973L105.863 50.1237C104.681 61.3542 94.5889 69.5386 83.3584 68.357ZM58.6751 45.8851C58.9461 43.3377 60.9516 41.3973 63.3906 41.0829L62.9136 45.6141C62.6968 47.7171 62.7944 49.7659 63.1305 51.7497C60.3553 51.2619 58.3716 48.7144 58.6751 45.8743V45.8851Z" fill="#FFA901"/>
<path d="M63.1413 51.7606C62.8052 49.7768 62.7077 47.7171 62.9245 45.625L63.4015 41.0937C60.9624 41.3973 58.9461 43.3377 58.6859 45.896C58.3824 48.7361 60.3662 51.2836 63.1413 51.7714V51.7606Z" fill="white"/>
<path d="M105.863 50.1237L106.361 45.3973C107.543 34.1668 99.3586 24.0745 88.1281 22.8929C76.8976 21.7114 66.8053 29.8957 65.6237 41.1263L65.1251 45.8526C63.9435 57.0831 72.1279 67.1754 83.3584 68.357C94.5889 69.5386 104.681 61.3542 105.863 50.1237ZM81.2445 26.7195C81.4288 26.3618 81.7866 26.1233 82.1876 26.1125C82.5887 26.1017 82.9681 26.3076 83.1741 26.6545C86.0576 31.4784 97.1038 37.2888 103.554 37.3755C104.161 37.3864 104.649 37.885 104.649 38.4921C104.649 39.0991 104.139 39.5869 103.532 39.5869C96.8653 39.5002 86.5671 34.3294 82.3177 29.2345C80.6266 31.7711 76.5507 36.6492 69.7972 37.5056C69.7105 37.5164 69.6238 37.5164 69.537 37.5056C69.0384 37.4514 68.6265 37.0612 68.5614 36.5408C68.4855 35.9338 68.9083 35.3809 69.5154 35.305C77.3204 34.3077 81.212 26.7954 81.2445 26.7195ZM75.5859 48.541C74.0683 48.3784 72.9734 46.98 73.136 45.4082C73.2986 43.8363 74.6645 42.6981 76.1821 42.8607C77.6998 43.0233 78.7946 44.4217 78.632 45.9935C78.4694 47.5654 77.1036 48.7036 75.5859 48.541ZM92.5401 56.953C91.0225 60.1943 87.6078 62.1238 84.0522 61.7553C80.4966 61.3867 77.5588 58.785 76.7458 55.2945C76.6049 54.6983 76.9735 54.1021 77.5697 53.9611C78.1659 53.8202 78.7621 54.1888 78.8922 54.785C79.4884 57.3541 81.6565 59.2729 84.269 59.5439C86.8815 59.8149 89.4072 58.3948 90.5238 56.0099C90.784 55.4571 91.4344 55.2186 91.9981 55.4788C92.5509 55.7389 92.7894 56.4002 92.5292 56.953H92.5401ZM98.1228 48.0315C97.9602 49.6033 96.5943 50.7416 95.0767 50.579C93.5591 50.4164 92.4642 49.018 92.6268 47.4461C92.7894 45.8743 94.1553 44.7361 95.6729 44.8987C97.1906 45.0613 98.2854 46.4597 98.1228 48.0315Z" fill="white"/>
<path d="M95.6621 44.9095C94.1444 44.7469 92.7786 45.896 92.616 47.457C92.4534 49.0288 93.5482 50.4272 95.0659 50.5898C96.5835 50.7524 97.9494 49.6033 98.112 48.0423C98.2746 46.4705 97.1797 45.0721 95.6621 44.9095Z" fill="#FFA901"/>
<path d="M78.632 45.9935C78.7946 44.4217 77.6998 43.0233 76.1821 42.8607C74.6645 42.6981 73.2986 43.8472 73.136 45.4082C72.9734 46.98 74.0683 48.3784 75.5859 48.541C77.1036 48.7036 78.4694 47.5545 78.632 45.9935Z" fill="#FFA901"/>
<path d="M91.9981 55.4896C91.4452 55.2294 90.784 55.4679 90.5238 56.0208C89.4072 58.4165 86.8923 59.8366 84.269 59.5547C81.6456 59.2729 79.4884 57.365 78.8922 54.7958C78.7513 54.1996 78.1551 53.831 77.5697 53.972C76.9735 54.1129 76.6049 54.7091 76.7458 55.3053C77.5588 58.7959 80.4966 61.3867 84.0522 61.7661C87.6078 62.1347 91.0225 60.2051 92.5401 56.9639C92.8003 56.411 92.5618 55.7498 92.0089 55.4896H91.9981Z" fill="#FFA901"/>
<path d="M68.5614 36.5408C68.6265 37.0612 69.0384 37.4514 69.537 37.5056C69.6238 37.5056 69.7105 37.5056 69.7972 37.5056C76.5507 36.6492 80.6266 31.7603 82.3177 29.2345C86.5671 34.3403 96.8653 39.5002 103.532 39.5869C104.139 39.5869 104.649 39.11 104.649 38.4921C104.649 37.885 104.161 37.3864 103.554 37.3755C97.1038 37.2888 86.0576 31.4784 83.1741 26.6545C82.9681 26.3076 82.5887 26.1017 82.1876 26.1125C81.7866 26.1233 81.418 26.3618 81.2445 26.7195C81.212 26.7954 77.3204 34.3077 69.5154 35.305C68.9083 35.3809 68.4855 35.9338 68.5614 36.5408Z" fill="#FFA901"/>
<path d="M35.7263 83.7285C36.0623 83.3924 36.2358 82.948 36.2358 82.3843C36.2358 81.8206 36.0732 81.3653 35.7479 81.0184C35.4227 80.6715 34.9024 80.4981 34.1978 80.4981H31.7045V84.2271H34.1978C34.8807 84.2271 35.3902 84.0645 35.7263 83.7285Z" fill="white"/>
<path d="M56.0518 81.1485L54.0246 86.8722H58.0572L56.0518 81.1485Z" fill="white"/>
<path d="M104.193 86.8722L102.177 81.1485L100.161 86.8722H104.193Z" fill="white"/>
<path d="M40.6694 102.699C40.3442 102.352 39.8239 102.179 39.1193 102.179H36.626V105.908H39.1193C39.8022 105.908 40.3117 105.745 40.6477 105.409C40.9838 105.073 41.1572 104.629 41.1572 104.065C41.1572 103.501 40.9946 103.046 40.6694 102.699Z" fill="white"/>
<path d="M51.9325 108.553H55.965L53.9487 102.829L51.9325 108.553Z" fill="white"/>
<path d="M15.2815 92.2056C16.268 92.65 17.4387 92.8777 18.7938 92.8777C19.7477 92.8777 20.6258 92.7584 21.4388 92.5199C22.2518 92.2815 22.9564 91.9346 23.5635 91.4793C24.1705 91.024 24.6475 90.4711 24.9836 89.8316C25.3196 89.192 25.5039 88.4657 25.5147 87.6527C25.5256 87.5226 25.4931 87.4142 25.3955 87.3275C25.2979 87.2407 25.1895 87.1974 25.0595 87.1974H22.1326C21.9483 87.1974 21.7965 87.2407 21.6881 87.3166C21.5797 87.3925 21.493 87.5443 21.4388 87.7611C21.2545 88.509 20.9293 89.0294 20.4632 89.3221C19.997 89.6148 19.4334 89.7557 18.7721 89.7557C17.9808 89.7557 17.352 89.5389 16.8859 89.0944C16.4198 88.65 16.1704 87.9237 16.1271 86.8939C16.0837 85.6472 16.0837 84.4331 16.1271 83.2515C16.1704 82.2217 16.4198 81.4954 16.8859 81.0509C17.352 80.6065 17.9808 80.3897 18.7721 80.3897C19.4334 80.3897 19.997 80.5306 20.4523 80.8125C20.9076 81.0943 21.2328 81.6146 21.4388 82.3843C21.5147 82.6011 21.6014 82.7529 21.699 82.8288C21.7965 82.9046 21.9483 82.948 22.1326 82.948H25.0595C25.1895 82.948 25.2979 82.9046 25.3955 82.8179C25.4931 82.7312 25.5256 82.6228 25.5147 82.4927C25.5039 81.6797 25.3196 80.9534 24.9836 80.3138C24.6475 79.6742 24.1705 79.1214 23.5635 78.6661C22.9564 78.2108 22.2518 77.8639 21.4388 77.6254C20.6258 77.3869 19.7477 77.2677 18.7938 77.2677C17.4496 77.2677 16.2897 77.4953 15.3032 77.9398C14.3168 78.3842 13.5579 79.0563 13.0051 79.9344C12.4522 80.8125 12.1487 81.8856 12.0945 83.1431C12.0837 83.761 12.0728 84.4114 12.0728 85.0944C12.0728 85.7773 12.0728 86.406 12.0945 87.0023C12.1487 88.2922 12.4522 89.3654 12.9942 90.2326C13.5363 91.0999 14.2951 91.7611 15.2815 92.2056Z" fill="#F85600"/>
<path d="M28.3332 92.6609H31.13C31.2926 92.6609 31.4227 92.6067 31.5311 92.4983C31.6395 92.3899 31.6937 92.2598 31.6937 92.1189V87.3058H33.9051L36.3767 92.0755C36.4309 92.1947 36.5285 92.314 36.6585 92.4549C36.7886 92.5958 36.9946 92.6609 37.2656 92.6609H40.1491C40.2683 92.6609 40.3659 92.6175 40.4635 92.5199C40.561 92.4224 40.6044 92.3248 40.6044 92.2056C40.6044 92.1297 40.5827 92.0538 40.5393 91.9671L37.5691 86.6337C38.3821 86.2759 39.0325 85.7339 39.5204 85.0293C40.0082 84.3247 40.2575 83.4575 40.2575 82.4277C40.2575 80.8558 39.7263 79.6309 38.6531 78.7745C37.58 77.9181 36.1057 77.4845 34.2303 77.4845H28.3332C28.1706 77.4845 28.0405 77.5387 27.943 77.6363C27.8454 77.7338 27.7912 77.8639 27.7912 78.0265V92.1189C27.7912 92.2598 27.8454 92.3899 27.943 92.4983C28.0405 92.6067 28.1706 92.6609 28.3332 92.6609ZM31.7045 80.4981H34.1978C34.9024 80.4981 35.4227 80.6715 35.7479 81.0184C36.0732 81.3653 36.2358 81.8206 36.2358 82.3843C36.2358 82.948 36.0623 83.3924 35.7263 83.7285C35.3902 84.0645 34.8807 84.2271 34.1978 84.2271H31.7045V80.4981Z" fill="#F85600"/>
<path d="M46.2196 77.4845H43.3145C43.1518 77.4845 43.0218 77.5387 42.9242 77.6363C42.8266 77.7338 42.7724 77.8639 42.7724 78.0265V92.1189C42.7724 92.2598 42.8266 92.3899 42.9242 92.4983C43.0218 92.6067 43.1518 92.6609 43.3145 92.6609H46.2196C46.3822 92.6609 46.5123 92.6067 46.6207 92.4983C46.7291 92.3899 46.7833 92.2598 46.7833 92.1189V78.0265C46.7833 77.8639 46.7291 77.7338 46.6207 77.6363C46.5123 77.5387 46.3822 77.4845 46.2196 77.4845Z" fill="#F85600"/>
<path d="M59.77 92.2056C59.8025 92.2923 59.8675 92.3899 59.9759 92.4983C60.0843 92.6067 60.2469 92.6609 60.4637 92.6609H63.1305C63.2605 92.6609 63.3689 92.6175 63.4665 92.5199C63.5641 92.4224 63.6074 92.3248 63.6074 92.2056C63.6074 92.1297 63.5966 92.0647 63.5641 92.0104L58.4908 78.0916C58.4475 77.9289 58.3607 77.788 58.2198 77.6688C58.0789 77.5495 57.8946 77.4845 57.6453 77.4845H54.4366C54.1872 77.4845 54.0029 77.5495 53.862 77.6688C53.7211 77.788 53.6344 77.9289 53.591 78.0916L48.4961 92.0104C48.4853 92.0647 48.4744 92.1297 48.4744 92.2056C48.4744 92.3248 48.5178 92.4224 48.6153 92.5199C48.7129 92.6175 48.8105 92.6609 48.9297 92.6609H51.5964C51.8457 92.6609 52.0192 92.6067 52.1167 92.4983C52.2143 92.3899 52.2794 92.2923 52.3119 92.2056L53.1357 89.9942H58.9244L59.77 92.2056ZM56.0518 81.1485L58.0681 86.8722H54.0355L56.0518 81.1485Z" fill="#F85600"/>
<path d="M68.6915 77.6471C68.5831 77.5387 68.4097 77.4845 68.1603 77.4845H65.8622C65.6996 77.4845 65.5695 77.5387 65.4719 77.6363C65.3744 77.7338 65.3202 77.8639 65.3202 78.0265V92.1189C65.3202 92.2598 65.3744 92.3899 65.4719 92.4983C65.5695 92.6067 65.6996 92.6609 65.8622 92.6609H68.4639C68.6265 92.6609 68.7565 92.6067 68.8541 92.4983C68.9517 92.3899 69.0059 92.2598 69.0059 92.1189V84.2271L74.2959 92.2489C74.2959 92.2489 74.3935 92.3682 74.5019 92.4874C74.6103 92.6067 74.7837 92.6609 75.0114 92.6609H77.3312C77.4938 92.6609 77.6239 92.6067 77.7214 92.4983C77.819 92.3899 77.8732 92.2598 77.8732 92.0972V78.0265C77.8732 77.8639 77.819 77.7338 77.7214 77.6363C77.6239 77.5387 77.4938 77.4845 77.3312 77.4845H74.7295C74.5669 77.4845 74.4368 77.5387 74.3393 77.6363C74.2417 77.7338 74.1875 77.8639 74.1875 78.0265V86.2217L68.8975 77.8964C68.865 77.8422 68.7999 77.7555 68.6915 77.6471Z" fill="#F85600"/>
<path d="M91.9005 78.6661C91.2934 78.2108 90.5888 77.8639 89.7758 77.6254C88.9628 77.3869 88.0847 77.2677 87.1308 77.2677C85.7866 77.2677 84.6267 77.4953 83.6402 77.9398C82.6538 78.3842 81.8949 79.0563 81.3421 79.9344C80.7892 80.8125 80.4857 81.8856 80.4315 83.1431C80.4207 83.761 80.4098 84.4114 80.4098 85.0944C80.4098 85.7773 80.4098 86.406 80.4315 87.0023C80.4857 88.1405 80.735 89.1269 81.1686 89.94C81.6023 90.753 82.2093 91.4034 83.0006 91.8804C83.792 92.3573 84.7351 92.6609 85.83 92.7909L85.3963 93.7882C85.3205 93.9617 85.2771 94.1026 85.2663 94.2002C85.2554 94.2977 85.2879 94.3953 85.3747 94.482L85.8083 94.9156C85.9058 95.0024 86.0251 95.0457 86.1443 95.0349C86.2636 95.0349 86.4045 95.0024 86.5454 94.9482C86.6863 94.894 86.8489 94.8723 87.0224 94.8723C87.25 94.8723 87.4343 94.9373 87.5536 95.0566C87.6728 95.1758 87.7378 95.3276 87.7378 95.501C87.7378 95.6853 87.6728 95.8479 87.5427 95.9671C87.4126 96.0864 87.2392 96.1514 87.0224 96.1514C86.7514 96.1514 86.5346 96.1081 86.3937 96.0322C86.2527 95.9563 86.1335 95.8913 86.0359 95.8587C85.9384 95.8262 85.83 95.8587 85.6999 95.978L85.3096 96.3249C85.1687 96.455 85.1579 96.6067 85.2879 96.7802C85.418 96.9536 85.6457 97.1054 85.96 97.2355C86.2744 97.3655 86.6321 97.4306 87.0224 97.4306C87.6836 97.4306 88.204 97.2463 88.5725 96.8777C88.9411 96.5092 89.1254 96.0539 89.1254 95.501C89.1254 94.9482 88.9736 94.482 88.6593 94.1351C88.3449 93.7882 87.933 93.6148 87.4126 93.6148C87.3259 93.6148 87.2067 93.6148 87.0549 93.6473C86.9031 93.669 86.7839 93.7015 86.6972 93.7449L87.1308 92.8777C88.0847 92.8777 88.9628 92.7584 89.7758 92.5199C90.5888 92.2815 91.2934 91.9346 91.9005 91.4793C92.5076 91.024 92.9845 90.4711 93.3206 89.8316C93.6566 89.192 93.8409 88.4657 93.8517 87.6527C93.8626 87.5226 93.8301 87.4142 93.7325 87.3275C93.6349 87.2407 93.5265 87.1974 93.3965 87.1974H90.4696C90.2853 87.1974 90.1335 87.2407 90.0251 87.3166C89.9167 87.3925 89.83 87.5443 89.7758 87.7611C89.5915 88.509 89.2663 89.0294 88.8002 89.3221C88.3341 89.6148 87.7704 89.7557 87.1091 89.7557C86.3178 89.7557 85.689 89.5389 85.2229 89.0944C84.7568 88.65 84.5074 87.9237 84.4641 86.8939C84.4207 85.6472 84.4207 84.4331 84.4641 83.2515C84.5074 82.2217 84.7568 81.4954 85.2229 81.0509C85.689 80.6065 86.3178 80.3897 87.1091 80.3897C87.7704 80.3897 88.3341 80.5306 88.7893 80.8125C89.2446 81.0943 89.5699 81.6146 89.7758 82.3843C89.8517 82.6011 89.9384 82.7529 90.036 82.8288C90.1335 82.9046 90.2853 82.948 90.4696 82.948H93.3965C93.5265 82.948 93.6349 82.9046 93.7325 82.8179C93.8301 82.7312 93.8626 82.6228 93.8517 82.4927C93.8409 81.6797 93.6566 80.9534 93.3206 80.3138C92.9845 79.6742 92.5076 79.1214 91.9005 78.6661Z" fill="#F85600"/>
<path d="M99.9982 77.6688C99.8573 77.788 99.7705 77.9289 99.7272 78.0916L94.6322 92.0104C94.6214 92.0647 94.6106 92.1297 94.6106 92.2056C94.6106 92.3248 94.6539 92.4224 94.7515 92.5199C94.8491 92.6175 94.9466 92.6609 95.0659 92.6609H97.7326C97.9819 92.6609 98.1553 92.6067 98.2529 92.4983C98.3505 92.3899 98.4155 92.2923 98.448 92.2056L99.2719 89.9942H105.061L105.906 92.2056C105.939 92.2923 106.004 92.3899 106.112 92.4983C106.22 92.6067 106.383 92.6609 106.6 92.6609H109.267C109.397 92.6609 109.505 92.6175 109.603 92.5199C109.7 92.4224 109.744 92.3248 109.744 92.2056C109.744 92.1297 109.733 92.0647 109.7 92.0104L104.627 78.0916C104.584 77.9289 104.497 77.788 104.356 77.6688C104.215 77.5495 104.031 77.4845 103.781 77.4845H100.573C100.323 77.4845 100.139 77.5495 99.9982 77.6688ZM104.193 86.8722H100.161L102.177 81.1485L104.193 86.8722Z" fill="#F85600"/>
<path d="M29.3847 111.826C29.9484 110.948 30.2303 109.886 30.2303 108.639V106.168C30.2303 106.005 30.1761 105.875 30.0785 105.767C29.9809 105.658 29.8508 105.604 29.6882 105.604H24.2248C24.0621 105.604 23.9321 105.658 23.8345 105.767C23.7369 105.875 23.6827 106.005 23.6827 106.168V107.772C23.6827 107.935 23.7369 108.065 23.8345 108.173C23.9321 108.282 24.0621 108.336 24.2248 108.336H26.2627V108.748C26.2627 109.366 26.1435 109.875 25.8942 110.276C25.6448 110.677 25.3088 110.97 24.886 111.154C24.4632 111.339 23.9754 111.436 23.4443 111.436C22.6204 111.436 21.9591 111.209 21.4713 110.764C20.9835 110.32 20.7125 109.583 20.6691 108.574C20.6258 107.306 20.6258 106.049 20.6691 104.802C20.7125 103.848 20.9727 103.154 21.4496 102.721C21.9266 102.287 22.5662 102.07 23.3792 102.07C23.9321 102.07 24.3765 102.157 24.7126 102.33C25.0486 102.504 25.3196 102.71 25.5147 102.948C25.7099 103.187 25.8616 103.414 25.9592 103.631C26.0134 103.729 26.0893 103.805 26.1652 103.859C26.241 103.913 26.3603 103.935 26.5229 103.935H29.6882C29.8183 103.935 29.9267 103.891 30.0243 103.805C30.1219 103.718 30.1652 103.61 30.1652 103.479C30.1544 102.959 29.9918 102.428 29.6882 101.897C29.3847 101.366 28.9511 100.867 28.3766 100.422C27.802 99.978 27.0974 99.6203 26.2627 99.3493C25.428 99.0783 24.4632 98.9482 23.3792 98.9482C22.035 98.9482 20.8643 99.1759 19.867 99.6203C18.8697 100.065 18.1 100.715 17.5471 101.572C16.9943 102.428 16.6908 103.469 16.6366 104.694C16.6257 105.333 16.6149 105.994 16.6149 106.699C16.6149 107.404 16.6149 108.065 16.6366 108.683C16.6908 109.94 16.9943 111.003 17.5363 111.881C18.0783 112.759 18.848 113.42 19.8344 113.875C20.8209 114.331 22.0025 114.558 23.3792 114.558C24.7559 114.558 25.9592 114.32 26.989 113.854C28.0188 113.387 28.821 112.705 29.3847 111.826Z" fill="#F85600"/>
<path d="M41.309 113.756C41.3632 113.875 41.4608 113.994 41.5909 114.135C41.7209 114.276 41.9269 114.341 42.1979 114.341H45.0814C45.2007 114.341 45.2982 114.298 45.3958 114.2C45.4933 114.103 45.5367 114.005 45.5367 113.886C45.5367 113.81 45.515 113.734 45.4717 113.648L42.5014 108.314C43.3145 107.956 43.9649 107.414 44.4527 106.71C44.9405 106.005 45.1898 105.138 45.1898 104.108C45.1898 102.536 44.6586 101.311 43.5855 100.455C42.5123 99.5986 41.038 99.165 39.1626 99.165H33.2655C33.1029 99.165 32.9728 99.2192 32.8753 99.3168C32.7777 99.4144 32.7235 99.5444 32.7235 99.707V113.799C32.7235 113.94 32.7777 114.07 32.8753 114.179C32.9728 114.287 33.1029 114.341 33.2655 114.341H36.0623C36.2249 114.341 36.355 114.287 36.4634 114.179C36.5718 114.07 36.626 113.94 36.626 113.799V108.986H38.8374L41.309 113.756ZM39.1193 105.908H36.626V102.179H39.1193C39.8239 102.179 40.3442 102.352 40.6694 102.699C40.9946 103.046 41.1572 103.501 41.1572 104.065C41.1572 104.629 40.9838 105.073 40.6477 105.409C40.3117 105.745 39.8022 105.908 39.1193 105.908Z" fill="#F85600"/>
<path d="M61.0383 114.341C61.1684 114.341 61.2768 114.298 61.3743 114.2C61.4719 114.103 61.5153 114.005 61.5153 113.886C61.5153 113.81 61.5044 113.745 61.4719 113.691L56.3986 99.7721C56.3553 99.6095 56.2686 99.4686 56.1276 99.3493C55.9867 99.2301 55.8024 99.165 55.5531 99.165H52.3444C52.0951 99.165 51.9108 99.2301 51.7699 99.3493C51.6289 99.4686 51.5422 99.6095 51.4989 99.7721L46.4039 113.691C46.3931 113.745 46.3822 113.81 46.3822 113.886C46.3822 114.005 46.4256 114.103 46.5232 114.2C46.6207 114.298 46.7183 114.341 46.8375 114.341H49.5042C49.7536 114.341 49.927 114.287 50.0246 114.179C50.1221 114.07 50.1872 113.973 50.2197 113.886L51.0436 111.675H56.8323L57.6778 113.886C57.7103 113.973 57.7754 114.07 57.8838 114.179C57.9922 114.287 58.1548 114.341 58.3716 114.341H61.0383ZM51.9325 108.553L53.9487 102.829L55.965 108.553H51.9325Z" fill="#F85600"/>
<path d="M58.4149 95.4143C58.4908 95.3384 58.5233 95.2517 58.5233 95.1541C58.5233 94.8614 58.3824 94.7205 58.1114 94.7205H55.0761C54.8919 94.7205 54.7401 94.7422 54.6425 94.7964C54.545 94.8506 54.4149 94.959 54.274 95.1324L52.3661 97.4523C52.2902 97.5281 52.2577 97.6149 52.2577 97.7341C52.2577 97.9618 52.3769 98.081 52.6046 98.081H54.7076C54.9135 98.081 55.0653 98.0593 55.1845 98.0051C55.3038 97.9509 55.4122 97.875 55.5314 97.7775L58.4149 95.4143Z" fill="#F85600"/>
<path d="M72.8216 102.569C72.9843 102.569 73.1143 102.515 73.2119 102.406C73.3094 102.298 73.3637 102.168 73.3637 102.027V99.707C73.3637 99.5444 73.3094 99.4144 73.2119 99.3168C73.1143 99.2192 72.9843 99.165 72.8216 99.165H61.1575C60.9949 99.165 60.8648 99.2192 60.7673 99.3168C60.6697 99.4144 60.6155 99.5444 60.6155 99.707V102.027C60.6155 102.168 60.6697 102.298 60.7673 102.406C60.8648 102.515 60.9949 102.569 61.1575 102.569H65.0167V113.799C65.0167 113.94 65.0709 114.07 65.1684 114.179C65.266 114.287 65.3961 114.341 65.5587 114.341H68.4205C68.5831 114.341 68.7132 114.287 68.8107 114.179C68.9083 114.07 68.9625 113.94 68.9625 113.799V102.569H72.8216Z" fill="#F85600"/>
<path d="M78.7838 114.341C78.9464 114.341 79.0765 114.287 79.1849 114.179C79.2933 114.07 79.3475 113.94 79.3475 113.799V99.707C79.3475 99.5444 79.2933 99.4144 79.1849 99.3168C79.0765 99.2192 78.9464 99.165 78.7838 99.165H75.8786C75.716 99.165 75.5859 99.2192 75.4883 99.3168C75.3908 99.4144 75.3366 99.5444 75.3366 99.707V113.799C75.3366 113.94 75.3908 114.07 75.4883 114.179C75.5859 114.287 75.716 114.341 75.8786 114.341H78.7838Z" fill="#F85600"/>
<path d="M93.9927 107.61C93.6133 107.024 93.0171 106.547 92.204 106.179C91.391 105.81 90.3287 105.507 89.017 105.257C88.2257 105.084 87.5969 104.921 87.1416 104.759C86.6863 104.596 86.3611 104.412 86.166 104.195C85.9709 103.978 85.8733 103.729 85.8733 103.436C85.8733 102.97 86.0468 102.634 86.4045 102.406C86.7622 102.179 87.25 102.07 87.8896 102.07C88.4858 102.07 88.9628 102.189 89.3314 102.428C89.6999 102.666 89.9276 102.948 90.0143 103.263C90.101 103.393 90.1986 103.49 90.3178 103.544C90.4371 103.599 90.5672 103.631 90.7298 103.631H93.5916C93.7325 103.631 93.8517 103.588 93.9276 103.49C94.0035 103.393 94.0469 103.295 94.0469 103.176C94.036 102.71 93.8951 102.244 93.6241 101.756C93.3531 101.268 92.9629 100.813 92.4425 100.379C91.9222 99.9455 91.2826 99.5986 90.5238 99.3385C89.765 99.0783 88.8869 98.9482 87.8896 98.9482C86.6647 98.9482 85.6023 99.1433 84.7026 99.5336C83.8028 99.9238 83.1091 100.466 82.6104 101.16C82.1117 101.853 81.8624 102.645 81.8624 103.523C81.8624 104.401 82.0684 105.171 82.4695 105.767C82.8706 106.363 83.4668 106.851 84.2364 107.219C85.0061 107.588 85.9492 107.891 87.0441 108.119C87.9004 108.293 88.5834 108.466 89.0929 108.629C89.6024 108.791 89.9818 108.975 90.2094 109.181C90.4371 109.387 90.5563 109.648 90.5563 109.984C90.5563 110.428 90.3395 110.786 89.9167 111.046C89.494 111.306 88.8544 111.436 88.0197 111.436C87.5319 111.436 87.1091 111.371 86.7622 111.252C86.4153 111.133 86.1335 110.97 85.9275 110.764C85.7216 110.558 85.559 110.352 85.4397 110.135C85.353 110.016 85.2554 109.929 85.147 109.854C85.0386 109.778 84.8869 109.745 84.6809 109.745H81.9491C81.8191 109.745 81.7107 109.788 81.6131 109.886C81.5155 109.984 81.4722 110.081 81.4722 110.2C81.5047 110.948 81.7649 111.664 82.2527 112.325C82.7405 112.986 83.4668 113.528 84.4207 113.94C85.3747 114.352 86.5779 114.558 88.0197 114.558C89.3097 114.558 90.4371 114.363 91.4127 113.984C92.3883 113.604 93.158 113.051 93.7217 112.347C94.2854 111.642 94.5672 110.797 94.5672 109.81C94.5672 108.932 94.3721 108.195 93.9927 107.61Z" fill="#F85600"/>
<path d="M103.348 100.206C103.315 100.086 103.239 99.9997 103.12 99.9455C103.001 99.8913 102.882 99.8696 102.762 99.9022C102.752 99.9022 102.687 99.9238 102.589 99.9672L101.028 100.943L101.462 99.165C101.462 99.165 101.483 99.0891 101.483 99.0566V98.9916C101.483 98.8723 101.44 98.7639 101.342 98.6664C101.245 98.5688 101.136 98.5146 101.006 98.5146H99.0551C98.925 98.5146 98.8166 98.5688 98.719 98.6664C98.6215 98.7639 98.5781 98.8723 98.5781 98.9916V99.0566C98.5781 99.0566 98.5781 99.1217 98.5998 99.165L99.0334 100.943L97.4941 99.9672C97.3965 99.9238 97.3315 99.9022 97.3206 99.9022C97.2231 99.8696 97.1038 99.8913 96.9737 99.9455C96.8437 99.9997 96.7678 100.086 96.7353 100.206L96.1065 102.049C96.074 102.179 96.1065 102.309 96.1607 102.428C96.2149 102.547 96.3125 102.623 96.4317 102.656C96.4426 102.656 96.4642 102.656 96.4859 102.666C96.5076 102.677 96.5401 102.688 96.5835 102.699L98.4263 102.851L97.0171 104.021C96.9412 104.097 96.9087 104.141 96.9087 104.152C96.8545 104.249 96.8328 104.368 96.8437 104.498C96.8545 104.629 96.9195 104.726 97.0171 104.802L98.5781 105.973C98.6973 106.027 98.8166 106.049 98.9575 106.038C99.0984 106.027 99.196 105.962 99.2502 105.864C99.261 105.832 99.2827 105.81 99.2936 105.799C99.3044 105.788 99.3261 105.756 99.3369 105.713L100.031 104L100.746 105.713C100.746 105.713 100.8 105.788 100.811 105.799C100.822 105.81 100.833 105.832 100.833 105.864C100.909 105.962 101.006 106.027 101.136 106.038C101.266 106.049 101.386 106.038 101.505 105.973L103.066 104.802C103.185 104.726 103.25 104.629 103.261 104.498C103.272 104.368 103.25 104.249 103.174 104.152C103.174 104.141 103.142 104.097 103.066 104.021L101.657 102.851L103.5 102.699C103.5 102.699 103.575 102.677 103.597 102.666C103.619 102.656 103.641 102.656 103.651 102.656C103.771 102.623 103.857 102.547 103.922 102.428C103.987 102.309 104.009 102.179 103.977 102.049L103.348 100.206Z" fill="#F85600"/>
<path d="M106.513 22.4268C106.231 24.5298 107.771 25.8415 109.689 26.0908C109.212 26.0258 109.689 26.1667 109.939 26.2426C110.015 26.2859 110.221 26.3835 110.318 26.4269C110.99 26.7412 111.673 27.0556 112.378 27.3266C112.985 27.5542 113.679 27.7711 114.329 27.7711C114.741 27.7711 115.25 27.6952 115.652 27.5868C115.89 27.5109 117.191 26.687 116.725 26.9797C118.448 25.9065 118.058 23.5108 116.616 22.6978C116.204 22.3834 115.717 22.21 115.24 21.9715C115.359 22.0149 114.763 21.6571 114.763 21.6571C114.535 21.5162 114.318 21.3645 114.101 21.2235C113.028 20.5189 111.825 19.9119 110.546 19.7384C110.318 19.7059 110.101 19.6951 109.874 19.6951C108.215 19.6951 106.752 20.5623 106.502 22.4268H106.513Z" fill="#FFA901"/>
<path d="M114.578 9.46185C115.63 11.5323 119.337 11.1746 119.749 8.78976C120.009 7.28296 119.717 6.02549 119.055 4.67046C118.871 4.28021 118.676 3.86828 118.459 3.49971C118.459 3.48887 118.448 3.47803 118.437 3.46719C118.437 3.46719 118.437 3.45635 118.437 3.44551C118.372 3.19618 118.351 2.53492 118.372 3.3371C118.318 1.30997 116.584 -0.240182 114.557 0.0308241C112.573 0.301831 111.207 2.26392 111.76 4.23685C112.302 6.20977 113.668 7.67321 114.578 9.47269V9.46185Z" fill="#FFA901"/>
<path d="M98.8166 14.5459C99.9115 15.3048 101.527 14.9037 102.361 13.9606C102.405 13.9172 102.459 13.8738 102.491 13.8196C103.283 12.7573 103.261 11.3806 102.481 10.3399C102.437 10.2098 102.405 10.0689 102.372 9.93882C102.318 9.72202 102.264 9.51605 102.22 9.29925C102.21 9.24505 102.134 8.72471 102.134 8.76808C102.025 7.80329 101.949 6.83851 101.678 5.89541C101.299 4.6271 100.117 3.68399 98.7732 3.68399C98.5781 3.68399 98.3938 3.68399 98.1987 3.68399C96.9304 3.70567 95.7488 4.57289 95.4128 5.80868C95.2068 6.54582 95.3477 7.48892 95.7813 8.19354C95.868 9.27757 96.1065 10.405 96.5076 11.4348C97.0063 12.6923 97.7542 13.8088 98.8166 14.5568V14.5459Z" fill="#FFA901"/>
</svg>
