<svg width="142" height="120" viewBox="0 0 142 120" fill="none" xmlns="http://www.w3.org/2000/svg">
<path d="M88.0069 67.9722H89.9014L85.6577 58.3807L83.7524 58.3915L88.0069 67.9722Z" fill="white"/>
<path d="M76.456 55.7609H70.0256V56.2156H76.456V55.7609Z" fill="white"/>
<path d="M66.5181 61.0221H54.3501C54.0037 61.0221 53.6573 61.1087 53.3541 61.2928L47.2702 64.8111V68.2969C47.2702 68.4593 47.2485 68.6001 47.2052 68.7516H65.3381L66.5181 61.033V61.0221Z" fill="white"/>
<path d="M45.0942 60.4809L46.8804 59.4416L46.6531 59.0519L42.626 61.3794L42.8533 61.7691C43.3838 61.466 44.672 60.719 45.0834 60.4809H45.0942Z" fill="white"/>
<path d="M41.2204 62.1915L36.6565 64.8307L36.8841 65.2243L41.448 62.5851L41.2204 62.1915Z" fill="white"/>
<path d="M54.3501 58.8462H81.5765L81.3816 58.4023H54.0578C53.4408 58.3915 52.8237 58.5539 52.2932 58.857L47.2702 61.7366V62.2887L52.2716 59.3983C52.8995 59.0302 53.6248 58.8354 54.3609 58.8354L54.3501 58.8462Z" fill="white"/>
<path d="M51.1674 56.9842C51.5463 56.7677 51.9576 56.5945 52.3798 56.4646L52.2608 55.9882C51.8819 56.0965 51.5246 56.2589 51.189 56.4537L48.0713 58.2616L48.2986 58.6513L51.1674 56.995V56.9842Z" fill="white"/>
<path d="M84.9649 31.4358L63.4436 27.8958L63.7359 28.6644L84.4453 32.0745L84.9649 31.4358Z" fill="white"/>
<path d="M74.1826 32.5941L73.2841 32.4426L69.8957 53.585H70.8267L74.1826 32.5941Z" fill="white"/>
<path d="M60.3367 56.2156V55.7609H53.8846L53.9929 56.2156H60.3367Z" fill="white"/>
<path d="M68.4017 55.7609H61.9713V56.2156H68.4017V55.7609Z" fill="white"/>
<path d="M84.4128 55.7501C84.2829 55.7501 84.153 55.7609 84.0231 55.7609H78.0798V56.2156H84.5427L84.4128 55.7501Z" fill="white"/>
<path d="M67.5357 68.7408H68.4992L69.6467 61.0221H68.7157L67.5357 68.7408Z" fill="white"/>
<path d="M71.8443 61.0221L70.6968 68.7408H85.9717L82.54 61.0221H71.8443Z" fill="white"/>
<path d="M43.5462 67.9722H45.0942V62.9924L43.5462 63.8909V67.9722Z" fill="white"/>
<path d="M77.8741 15.9552C77.4952 15.8144 77.0947 15.7062 76.6941 15.6304C76.6725 15.6304 76.6508 15.6304 76.6292 15.6196C76.5859 15.6196 76.5534 15.6088 76.5209 15.5979C76.4668 15.5979 76.4127 15.5763 76.3477 15.5763C75.9363 15.5221 75.525 15.4897 75.1244 15.5005C70.621 15.5655 66.0742 19.4194 63.0647 25.6224L86.0474 29.4114C85.1922 22.5588 82.1178 17.4708 77.8741 15.9552Z" fill="white"/>
<path d="M77.2354 13.2055C77.1596 13.108 77.0622 13.0431 76.9431 13.0214C76.824 12.9998 76.705 13.0214 76.6075 13.0972C76.5101 13.173 76.4451 13.2704 76.4235 13.4003L76.3369 13.9308C76.4235 13.9416 76.4993 13.9524 76.5859 13.9633C76.6184 13.9633 76.64 13.9633 76.6725 13.9741C76.705 13.9741 76.7483 13.9849 76.7916 13.9957C76.8565 14.0066 76.9323 14.0174 77.0081 14.0282C77.0839 14.039 77.1596 14.0607 77.2354 14.0715L77.322 13.5302C77.3437 13.4112 77.322 13.2921 77.2462 13.1946L77.2354 13.2055Z" fill="white"/>
<path d="M88.2126 54.8191L90.6159 52.6973L90.2586 52.34L88.1151 54.2128C87.4981 54.7541 86.7944 55.1547 86.015 55.4253L86.1665 55.9558C86.9243 55.7176 87.628 55.3279 88.2126 54.8082V54.8191Z" fill="white"/>
<path d="M95.6931 48.2263L95.3575 47.8907L91.4927 51.2683L91.8391 51.6255L95.6931 48.2263Z" fill="white"/>
<path d="M100.565 43.9393L100.24 43.6146L96.5808 46.819L96.9164 47.1545L100.565 43.9393Z" fill="white"/>
<path d="M76.3261 13.9308L76.4127 13.4003C76.4343 13.2812 76.4993 13.173 76.5967 13.0972C76.6941 13.0323 76.8132 12.9998 76.9323 13.0214C77.0514 13.0431 77.1596 13.108 77.2246 13.2055C77.3004 13.3029 77.322 13.422 77.3004 13.5411L77.2138 14.0823C77.5818 14.1473 77.9499 14.2123 78.318 14.288C78.6644 14.3638 79 14.4504 79.3356 14.537L79.4438 13.8983C79.5521 13.2055 79.4005 12.5126 78.9892 11.9389C78.5778 11.3651 77.9716 10.9862 77.2787 10.878C76.5859 10.7697 75.893 10.9213 75.3193 11.3326C74.7455 11.744 74.3666 12.3502 74.2584 13.0431L74.1501 13.6818C74.4965 13.7143 74.8538 13.7359 75.2002 13.7792C75.5683 13.8225 75.9363 13.8767 76.3152 13.9308H76.3261Z" fill="#00DCE9"/>
<path d="M75.1244 15.5005C75.525 15.5005 75.9363 15.5221 76.3477 15.5763C76.4018 15.5763 76.456 15.5979 76.5209 15.5979C76.5534 15.5979 76.5859 15.6088 76.6292 15.6196C76.6508 15.6196 76.6725 15.6196 76.6941 15.6304C77.1055 15.7062 77.4952 15.8144 77.8741 15.9552C82.1178 17.4599 85.1814 22.5588 86.0474 29.4114L100.5 31.793C100.489 31.7389 100.478 31.6848 100.467 31.6306C97.436 23.414 89.4034 16.9403 79.3681 14.537C79.0325 14.4504 78.686 14.3638 78.3504 14.288C77.9824 14.2122 77.6035 14.1365 77.2462 14.0823C77.1705 14.0715 77.0947 14.0499 77.0189 14.039C76.9431 14.0282 76.8673 14.0174 76.8024 14.0066C76.7591 14.0066 76.7158 13.9957 76.6833 13.9849C76.6508 13.9849 76.6292 13.9849 76.5967 13.9741C76.5101 13.9633 76.4343 13.9524 76.3477 13.9416C75.9796 13.8875 75.6008 13.8334 75.2327 13.7901C74.8863 13.7467 74.529 13.7251 74.1826 13.6926C63.9091 12.7616 54.2202 16.3124 48.7208 23.1217C48.6883 23.165 48.6667 23.2191 48.6342 23.2625L63.0864 25.6441C66.0959 19.4302 70.6318 15.5871 75.1461 15.5221L75.1244 15.5005Z" fill="#F85600"/>
<path d="M48.2878 25.3951C48.2878 25.3951 48.2986 25.4817 48.3202 25.525L48.9914 27.3112C49.1971 27.8742 49.6951 28.2747 50.2905 28.3721L59.0159 29.8119C59.6005 29.9094 60.2068 29.682 60.5856 29.2165L61.2893 28.3613L60.9537 27.4844L48.2769 25.3951H48.2878Z" fill="#F85600"/>
<path d="M86.8377 32.5725L87.2274 33.6117C87.4331 34.1747 87.9311 34.5752 88.5265 34.6726L97.252 36.1124C97.3386 36.1233 97.436 36.1341 97.5226 36.1341C98.0206 36.1341 98.4969 35.9067 98.8217 35.517L100.034 34.0447C100.034 34.0447 100.077 33.969 100.11 33.9257L87.4331 31.8363L86.8377 32.5616V32.5725Z" fill="#F85600"/>
<path d="M35.2862 66.8138C35.7084 67.55 36.7369 67.8206 37.473 67.3984L41.381 65.1467V68.2969C41.381 68.4593 41.4027 68.6001 41.446 68.7516H36.8343C36.2389 68.7516 35.7517 69.2388 35.7517 69.8342C35.7517 70.4296 36.2389 70.9167 36.8343 70.9167H100.381C100.976 70.9167 101.463 70.4296 101.463 69.8342C101.463 69.2388 100.976 68.7516 100.381 68.7516H91.9907C92.1747 68.232 92.1639 67.6691 91.9258 67.1711L87.7471 57.6987C88.4507 57.3847 89.0894 56.9625 89.6632 56.4537L102.47 45.1735C102.805 44.8812 103 44.4698 103.011 44.0259C103.022 43.5821 102.86 43.1599 102.546 42.846L101.42 41.7201C100.824 41.1247 99.8609 41.0922 99.233 41.6443L86.7078 52.5998C85.9717 53.2494 85.019 53.6066 84.0447 53.6066H73.0459L76.3585 32.9622L84.2396 34.2613C84.9324 34.3695 85.6253 34.1097 86.0583 33.5684L86.8594 32.5833L87.4548 31.858L100.132 33.9473L100.37 33.9906C100.965 34.0881 101.528 33.6767 101.615 33.0921C101.658 32.8106 101.593 32.5183 101.431 32.2802C101.257 32.042 101.008 31.8905 100.727 31.8363L100.521 31.8039L48.6342 23.2516L48.4718 23.23C48.1903 23.1867 47.898 23.2516 47.6599 23.414C47.4217 23.5872 47.2702 23.8362 47.216 24.1177C47.1186 24.7131 47.5191 25.2652 48.1146 25.3734L48.2986 25.4059L60.9754 27.4953L61.311 28.3721L61.7548 29.5521C62.0038 30.2017 62.5776 30.678 63.2596 30.7862L71.1514 32.0853L67.7089 53.585H53.7439C52.4773 53.585 51.2215 53.9205 50.1173 54.5593L35.0805 63.2414C34.3119 63.6852 34.0521 64.6595 34.496 65.4282L35.2971 66.8138H35.2862ZM45.0942 67.9722H43.5462V63.8909L45.0942 63.0032V67.983V67.9722ZM68.4992 68.7408H67.5465L68.7265 61.0221H69.6575L68.51 68.7408H68.4992ZM70.6968 68.7408L71.8443 61.0221H82.54L85.9717 68.7408H70.6968ZM100.24 43.6146L100.554 43.9285L96.9055 47.1437L96.5699 46.8081L100.229 43.6037L100.24 43.6146ZM95.3575 47.8907L95.6931 48.2263L91.85 51.6147L91.5036 51.2683L95.3683 47.8907H95.3575ZM88.1151 54.2237L90.2586 52.3508L90.6159 52.7081L88.2126 54.8299C87.628 55.3495 86.9243 55.7392 86.1665 55.9774L86.015 55.447C86.7944 55.1871 87.4981 54.7758 88.1151 54.2345V54.2237ZM89.9014 67.9722H88.0069L83.7524 58.3915H85.6577L89.9014 67.9722ZM78.0798 55.7609H84.0231C84.153 55.7609 84.2829 55.7609 84.4128 55.7501L84.5427 56.2156H78.0798V55.7609ZM76.456 55.7609V56.2156H70.0256V55.7609H76.456ZM63.7359 28.6644L63.4436 27.8958L84.9649 31.4358L84.4453 32.0745L63.7359 28.6644ZM73.2841 32.4426L74.1826 32.5941L70.8158 53.585H69.8957L73.2841 32.4426ZM61.9713 55.7609H68.4017V56.2156H61.9713V55.7609ZM60.3475 55.7609V56.2156H54.0037L53.8954 55.7609H60.3475ZM51.189 56.4429C51.5246 56.248 51.8819 56.0965 52.2608 55.9774L52.3798 56.4537C51.9468 56.5836 51.5463 56.7569 51.1674 56.9734L48.2986 58.6297L48.0713 58.24L51.189 56.4321V56.4429ZM47.2702 61.7475L52.2932 58.8678C52.8345 58.5539 53.4408 58.3915 54.0578 58.3915H81.3816L81.5765 58.8462H54.3501C53.6248 58.8462 52.8995 59.041 52.2608 59.4091L47.2593 62.2996V61.7475H47.2702ZM47.2702 68.2861V64.8003L53.3541 61.2819C53.6573 61.1087 54.0037 61.0113 54.3501 61.0113H66.5181L65.3381 68.73H47.2052C47.2377 68.5892 47.2702 68.4377 47.2702 68.2753V68.2861ZM46.6531 59.0627L46.8804 59.4524L45.0942 60.4809C44.6828 60.719 43.3946 61.466 42.8641 61.7691L42.6368 61.3794L46.6639 59.0519L46.6531 59.0627ZM41.2187 62.2021L41.446 62.5919L36.8776 65.2333L36.6502 64.8436L41.2187 62.2021Z" fill="#00DCE9"/>
<path d="M51.2973 84.308H53.7872C54.4692 84.308 54.978 84.1456 55.3136 83.81C55.6492 83.4744 55.8224 83.0306 55.8224 82.4677C55.8224 81.9047 55.66 81.4501 55.3352 81.1036C55.0105 80.7572 54.4908 80.584 53.7872 80.584H51.2973V84.308Z" fill="white"/>
<path d="M115.309 83.81C115.645 83.4744 115.818 83.0306 115.818 82.4677C115.818 81.9047 115.655 81.4501 115.331 81.1036C115.006 80.7572 114.486 80.584 113.783 80.584H111.293V84.308H113.783C114.465 84.308 114.973 84.1456 115.309 83.81Z" fill="white"/>
<path d="M126.578 86.9494H130.606L128.592 81.2335L126.578 86.9494Z" fill="white"/>
<path d="M141.15 90.1213L136.159 76.4378C135.813 75.3985 135.206 74.4675 134.362 73.7206C133.236 72.7138 131.753 72.1617 130.183 72.1617H126.979C125.409 72.1617 123.915 72.7138 122.8 73.7206C122.432 74.0562 122.108 74.4242 121.826 74.8248C121.761 74.7707 121.696 74.6949 121.62 74.6407C119.574 72.9953 116.944 72.1617 113.815 72.1617H112.04C112.191 71.4039 112.278 70.6244 112.278 69.8233C112.278 64.443 108.695 59.8854 103.791 58.4132L109.604 53.2927C112.17 51.0409 113.696 47.7933 113.815 44.3724C113.902 41.7634 113.144 39.1869 111.693 37.0326C111.953 36.3398 112.148 35.6145 112.267 34.8567C112.787 31.7064 112.051 28.5453 110.21 25.9797C109.94 25.6008 109.647 25.2327 109.333 24.8863C105.241 16.4207 97.62 9.68715 88.0069 5.91984C87.9419 5.82241 87.8662 5.72498 87.8012 5.61673C85.701 2.69381 82.5941 0.766858 79.0108 0.17145C75.4708 -0.391481 71.9201 0.44209 69.0296 2.5206C68.9322 2.58556 68.8348 2.66134 68.7373 2.73712C60.2284 3.12684 52.3474 5.89819 46.1443 10.629C46.9454 11.3326 47.4109 12.3936 47.2485 13.5735C46.9779 15.5546 45.0184 16.9187 43.0482 16.3665C42.1388 16.1176 41.3377 15.6845 40.5583 15.2082C38.404 17.0269 36.9858 19.5276 36.5203 22.3315C36.3471 23.3491 36.3363 24.345 36.4229 25.3301C36.6069 25.4167 36.7802 25.5142 36.9534 25.6441C37.0833 25.6874 37.224 25.7199 37.3539 25.7523C37.5704 25.8065 37.7761 25.8606 37.9926 25.9039C38.0468 25.9147 38.5664 25.9905 38.5231 25.9905C39.4866 26.0988 40.45 26.1745 41.3919 26.4452C42.6585 26.8241 43.6003 28.0041 43.6003 29.3464C43.6003 29.5413 43.6003 29.7253 43.6003 29.9202C43.5786 31.1868 42.7126 32.3668 41.4785 32.7024C40.8831 32.8648 40.1577 32.7998 39.5299 32.54C41.3486 35.9609 44.672 38.4183 48.5368 39.0462L57.2622 40.486C57.7169 40.5618 58.1824 40.6159 58.637 40.6375C58.6912 40.6592 58.7453 40.6808 58.7994 40.7025L58.4747 42.7485H53.733C50.5611 42.7485 47.4434 43.5821 44.6937 45.1735L29.6461 53.8556C26.7773 55.5119 24.7204 58.1967 23.8652 61.401C23.0425 64.4972 23.4214 67.7232 24.937 70.5162C24.9694 71.0033 25.0344 71.4688 25.1102 71.9343C25.0993 71.9343 25.0885 71.9343 25.0777 71.9343C23.1074 71.9343 21.3104 72.2808 19.7298 72.9736C19.6649 73.0061 19.5999 73.0386 19.535 73.071C18.5932 72.4865 17.5106 72.1509 16.3631 72.1509H6.26279C4.67143 72.1509 3.1775 72.7679 2.04081 73.8938C0.925775 75.0088 0.308716 76.5136 0.308716 78.1049V92.1782C0.308716 93.6938 0.882473 95.1444 1.90008 96.2378C3.03677 97.4611 4.58483 98.1323 6.26279 98.1323H9.34809C9.18571 98.3488 9.0125 98.5653 8.86094 98.8035C7.82168 100.471 7.2371 102.43 7.13967 104.617C7.13967 104.66 7.13967 104.703 7.13967 104.736C7.12884 105.396 7.11802 106.089 7.11802 106.814C7.11802 107.54 7.11802 108.222 7.13967 108.85C7.13967 108.893 7.13967 108.925 7.13967 108.958C7.2371 111.177 7.82168 113.147 8.86094 114.815C9.97598 116.59 11.5349 117.954 13.4943 118.842C15.1831 119.61 17.1209 120 19.2427 120C20.7041 120 22.1115 119.805 23.4105 119.426C24.6771 119.058 25.8355 118.495 26.8639 117.781C27.4593 118.203 28.0764 118.582 28.7692 118.885C30.4364 119.621 32.3417 120 34.4202 120C36.4987 120 38.404 119.621 40.0711 118.896C40.2768 118.809 40.4609 118.69 40.6557 118.593C41.6733 119.361 42.8966 119.794 44.1957 119.794H46.7938C48.4393 119.794 49.9657 119.145 51.1024 117.954C51.1241 117.976 51.1566 118.008 51.1782 118.03C52.3041 119.166 53.8088 119.783 55.411 119.783H57.9875C58.702 119.783 59.3948 119.643 60.0335 119.405C60.6939 119.643 61.3867 119.783 62.1229 119.783H65.0458C66.648 119.783 68.1527 119.156 69.2786 118.03C70.1446 117.164 70.6968 116.059 70.9133 114.879C71.119 116.005 71.6278 117.045 72.4072 117.878C73.5439 119.101 75.0919 119.773 76.7699 119.773H86.7295C87.2383 119.773 87.7362 119.708 88.2126 119.578C88.6889 119.697 89.1869 119.773 89.6957 119.773H99.98C101.247 119.773 102.437 119.383 103.423 118.679C104.418 119.383 105.62 119.773 106.865 119.773H109.723C110.524 119.773 111.282 119.621 111.996 119.329C112.7 119.621 113.458 119.773 114.226 119.773H116.89C118.633 119.773 120.224 119.112 121.328 117.921C121.361 117.954 121.382 117.986 121.415 118.008C122.541 119.145 124.078 119.762 125.734 119.762H128.397C129.978 119.762 131.461 119.145 132.565 118.041C133.68 116.926 134.286 115.453 134.286 113.894C134.286 113.158 134.146 112.422 133.875 111.74L128.884 98.0565C128.722 97.5585 128.495 97.093 128.213 96.6492C128.354 96.5301 128.495 96.4002 128.614 96.2595C128.646 96.2919 128.668 96.3244 128.7 96.3461C129.826 97.4827 131.363 98.0998 133.02 98.0998H135.683C137.263 98.0998 138.746 97.4827 139.851 96.3785C140.966 95.2635 141.572 93.7912 141.572 92.2323C141.572 91.4962 141.431 90.7601 141.161 90.078L141.15 90.1213ZM104.516 86.9494C104.516 88.3243 104.245 89.4502 103.715 90.3379C103.184 91.2256 102.427 91.8859 101.463 92.3081C100.5 92.7303 99.3629 92.9468 98.0639 92.9468C96.7648 92.9468 95.6065 92.7303 94.6321 92.3081C93.6578 91.8859 92.9001 91.2256 92.3696 90.3379C91.8391 89.4502 91.5685 88.3243 91.5685 86.9494V78.1158C91.5685 77.9534 91.6226 77.8235 91.7201 77.726C91.8175 77.6286 91.9474 77.5745 92.1098 77.5745H94.9028C95.0652 77.5745 95.1951 77.6286 95.3033 77.726C95.4116 77.8235 95.4657 77.9534 95.4657 78.1158V86.9278C95.4657 87.8696 95.6931 88.5733 96.1369 89.0388C96.5808 89.5043 97.2195 89.7425 98.0422 89.7425C98.865 89.7425 99.482 89.5043 99.9367 89.0388C100.391 88.5733 100.619 87.8696 100.619 86.9278V78.1158C100.619 77.9534 100.673 77.8235 100.781 77.726C100.889 77.6286 101.019 77.5745 101.16 77.5745H103.975C104.115 77.5745 104.245 77.6286 104.354 77.726C104.462 77.8235 104.516 77.9534 104.516 78.1158V86.9494ZM47.5516 77.726C47.6491 77.6286 47.779 77.5745 47.9413 77.5745H53.8305C55.7033 77.5745 57.1756 78.0075 58.2473 78.8627C59.3191 79.7179 59.8495 80.9412 59.8495 82.5109C59.8495 83.5394 59.6005 84.4054 59.1134 85.1091C58.6262 85.8128 57.9767 86.354 57.1648 86.7113L60.131 92.0375C60.1743 92.1241 60.1959 92.1999 60.1959 92.2756C60.1959 92.3947 60.1526 92.4921 60.0552 92.5896C59.9578 92.687 59.8603 92.7303 59.7413 92.7303H56.8616C56.591 92.7303 56.3853 92.6654 56.2554 92.5246C56.1255 92.3839 56.0281 92.2648 55.9739 92.1457L53.5057 87.3825H51.2973V92.189C51.2973 92.3298 51.2432 92.4597 51.1349 92.5679C51.0266 92.6762 50.8967 92.7303 50.7344 92.7303H47.9413C47.779 92.7303 47.6491 92.6762 47.5516 92.5679C47.4542 92.4597 47.4001 92.3298 47.4001 92.189V78.1158C47.4001 77.9534 47.4542 77.8235 47.5516 77.726ZM62.2311 78.1158C62.2311 77.9534 62.2853 77.8235 62.3827 77.726C62.4801 77.6286 62.61 77.5745 62.7724 77.5745H65.5654C65.7278 77.5745 65.8577 77.6286 65.966 77.726C66.0742 77.8235 66.1283 77.9534 66.1283 78.1158V86.9278C66.1283 87.8696 66.3557 88.5733 66.7995 89.0388C67.2434 89.5043 67.8821 89.7425 68.7048 89.7425C69.5276 89.7425 70.1447 89.5043 70.5993 89.0388C71.054 88.5733 71.2813 87.8696 71.2813 86.9278V78.1158C71.2813 77.9534 71.3355 77.8235 71.4437 77.726C71.552 77.6286 71.6819 77.5745 71.8226 77.5745H74.6373C74.778 77.5745 74.9079 77.6286 75.0162 77.726C75.1244 77.8235 75.1786 77.9534 75.1786 78.1158V86.9494C75.1786 88.3243 74.9079 89.4502 74.3775 90.3379C73.847 91.2256 73.0892 91.8859 72.1257 92.3081C71.1623 92.7303 70.0256 92.9468 68.7265 92.9468C67.4274 92.9468 66.2691 92.7303 65.2948 92.3081C64.3205 91.8859 63.5627 91.2256 63.0322 90.3379C62.5018 89.4502 62.2311 88.3243 62.2311 86.9494V78.1158ZM76.9973 78.1158C76.9973 77.9534 77.0514 77.8235 77.1488 77.726C77.2462 77.6286 77.3761 77.5745 77.5385 77.5745H89.1869C89.3493 77.5745 89.4792 77.6286 89.5766 77.726C89.674 77.8235 89.7282 77.9534 89.7282 78.1158V80.4324C89.7282 80.5732 89.674 80.7031 89.5766 80.8113C89.4792 80.9196 89.3493 80.9737 89.1869 80.9737H85.333V92.189C85.333 92.3298 85.2788 92.4597 85.1814 92.5679C85.084 92.6762 84.9541 92.7303 84.7917 92.7303H81.9337C81.7713 92.7303 81.6414 92.6762 81.544 92.5679C81.4466 92.4597 81.3924 92.3298 81.3924 92.189V80.9737H77.5385C77.3761 80.9737 77.2462 80.9196 77.1488 80.8113C77.0514 80.7031 76.9973 80.5732 76.9973 80.4324V78.1158ZM32.6989 78.1158C32.6989 77.9534 32.753 77.8235 32.8505 77.726C32.9479 77.6286 33.0778 77.5745 33.2402 77.5745H44.8885C45.0509 77.5745 45.1808 77.6286 45.2783 77.726C45.3757 77.8235 45.4298 77.9534 45.4298 78.1158V80.4324C45.4298 80.5732 45.3757 80.7031 45.2783 80.8113C45.1808 80.9196 45.0509 80.9737 44.8885 80.9737H41.0346V92.189C41.0346 92.3298 40.9805 92.4597 40.8831 92.5679C40.7856 92.6762 40.6557 92.7303 40.4933 92.7303H37.6354C37.473 92.7303 37.3431 92.6762 37.2457 92.5679C37.1482 92.4597 37.0941 92.3298 37.0941 92.189V80.9737H33.2402C33.0778 80.9737 32.9479 80.9196 32.8505 80.8113C32.753 80.7031 32.6989 80.5732 32.6989 80.4324V78.1158ZM118.243 78.8627C119.315 79.7179 119.845 80.9412 119.845 82.5109C119.845 83.5394 119.596 84.4054 119.109 85.1091C118.622 85.8128 117.972 86.354 117.16 86.7113L120.126 92.0375C120.17 92.1241 120.191 92.1999 120.191 92.2756C120.191 92.3947 120.148 92.4921 120.051 92.5896C119.953 92.687 119.856 92.7303 119.737 92.7303H116.857C116.586 92.7303 116.381 92.6654 116.251 92.5246C116.121 92.3839 116.024 92.2648 115.969 92.1457L113.501 87.3825H111.293V92.189C111.293 92.3298 111.239 92.4597 111.13 92.5679C111.022 92.6762 110.892 92.7303 110.73 92.7303H107.937C107.774 92.7303 107.645 92.6762 107.547 92.5679C107.45 92.4597 107.396 92.3298 107.396 92.189V78.1158C107.396 77.9534 107.45 77.8235 107.547 77.726C107.645 77.6286 107.774 77.5745 107.937 77.5745H113.826C115.699 77.5745 117.171 78.0075 118.243 78.8627ZM35.0697 63.2414L50.1065 54.5593C51.2107 53.9205 52.4556 53.585 53.733 53.585H67.6981L71.1406 32.0853L63.2487 30.7862C62.5667 30.678 61.9821 30.2017 61.744 29.5521L61.3001 28.3721L60.5965 29.2274C60.2176 29.6929 59.6113 29.9202 59.0268 29.8228L50.3013 28.383C49.7167 28.2855 49.2188 27.8742 49.0023 27.3221L48.3311 25.5358C48.3311 25.5358 48.3094 25.4492 48.2986 25.4059L48.1146 25.3734C47.5191 25.276 47.1186 24.7131 47.216 24.1177C47.2593 23.8362 47.4217 23.5764 47.6599 23.414C47.898 23.2408 48.1795 23.1758 48.4718 23.23L48.6342 23.2516C48.6342 23.2516 48.6883 23.1542 48.7208 23.1109C54.2202 16.3016 63.9091 12.7508 74.1826 13.6818L74.2908 13.0431C74.3991 12.3502 74.778 11.744 75.3518 11.3326C75.9255 10.9213 76.6184 10.7589 77.3112 10.878C78.004 10.997 78.6103 11.3759 79.0216 11.9389C79.433 12.5126 79.5954 13.2055 79.4763 13.8983L79.3681 14.537C89.4034 16.9511 97.436 23.414 100.467 31.6306C100.489 31.6848 100.489 31.7389 100.5 31.793L100.705 31.8255C100.987 31.8688 101.247 32.0312 101.409 32.2693C101.582 32.5075 101.647 32.789 101.593 33.0813C101.496 33.6659 100.943 34.0772 100.348 33.9798L100.11 33.9365C100.11 33.9365 100.067 34.0123 100.034 34.0556L98.8217 35.5279C98.4969 35.9176 98.0206 36.1449 97.5226 36.1449C97.436 36.1449 97.3386 36.1449 97.252 36.1233L88.5265 34.6835C87.9419 34.586 87.444 34.1747 87.2274 33.6225L86.8377 32.5833L86.0366 33.5684C85.6036 34.0989 84.9108 34.3695 84.2179 34.2613L76.3369 32.9622L73.0243 53.6066H84.0231C85.0082 53.6066 85.95 53.2494 86.6862 52.5998L99.2114 41.6443C99.8393 41.0922 100.803 41.1247 101.398 41.7201L102.524 42.846C102.838 43.1599 103 43.5929 102.99 44.0259C102.979 44.4698 102.773 44.8812 102.448 45.1735L89.6415 56.4537C89.0678 56.9625 88.4183 57.3739 87.7254 57.6987L91.9041 67.1711C92.1423 67.6691 92.1531 68.2428 91.9691 68.7516H100.359C100.954 68.7516 101.441 69.2388 101.441 69.8342C101.441 70.4296 100.954 70.9167 100.359 70.9167H36.8126C36.2172 70.9167 35.7301 70.4296 35.7301 69.8342C35.7301 69.2388 36.2172 68.7516 36.8126 68.7516H41.4243C41.3919 68.6109 41.3594 68.4593 41.3594 68.2969V65.1467L37.4513 67.3984C36.7152 67.8206 35.6868 67.55 35.2646 66.8138L34.4635 65.4282C34.0196 64.6595 34.2794 63.6852 35.0481 63.2414H35.0697ZM27.7083 77.7477C28.4661 78.0075 29.1048 78.3539 29.6244 78.7869C30.1441 79.22 30.5338 79.6746 30.8044 80.1618C31.0751 80.6489 31.2158 81.1144 31.2266 81.5799C31.2266 81.699 31.1833 81.7965 31.1075 81.8939C31.0318 81.9913 30.9127 82.0346 30.7719 82.0346H27.914C27.7516 82.0346 27.6217 82.0022 27.5026 81.948C27.3835 81.8939 27.2861 81.7965 27.1995 81.6666C27.1129 81.3526 26.8856 81.0712 26.5175 80.833C26.1494 80.5948 25.6731 80.4757 25.0777 80.4757C24.439 80.4757 23.9518 80.584 23.5946 80.8113C23.2373 81.0387 23.0641 81.3743 23.0641 81.8398C23.0641 82.132 23.1616 82.3811 23.3564 82.5976C23.5513 82.8141 23.876 82.9981 24.3307 83.1605C24.7854 83.3229 25.4133 83.4853 26.2035 83.6585C27.5134 83.9074 28.5744 84.2106 29.3863 84.5786C30.1982 84.9467 30.7936 85.423 31.1725 86.0076C31.5514 86.5922 31.7463 87.3283 31.7463 88.2052C31.7463 89.1903 31.4648 90.0347 30.9019 90.7384C30.3389 91.4421 29.5703 91.9942 28.596 92.3731C27.6217 92.752 26.4958 92.9468 25.2076 92.9468C23.7678 92.9468 22.5661 92.7411 21.6135 92.3298C20.6608 91.9184 19.9355 91.3771 19.4484 90.7168C18.9612 90.0564 18.7014 89.3419 18.6689 88.5949C18.6689 88.4759 18.7122 88.3784 18.8097 88.281C18.9071 88.1836 19.0153 88.1403 19.1453 88.1403H21.8733C22.079 88.1403 22.2306 88.1727 22.3388 88.2485C22.4471 88.3243 22.5445 88.4109 22.6311 88.53C22.7502 88.7465 22.9126 88.9522 23.1183 89.1579C23.3239 89.3636 23.6054 89.5259 23.9518 89.645C24.2982 89.7641 24.7204 89.8291 25.2076 89.8291C26.0412 89.8291 26.6799 89.6992 27.1021 89.4393C27.5243 89.1795 27.7408 88.8223 27.7408 88.3784C27.7408 88.0428 27.6217 87.783 27.3944 87.5773C27.167 87.3716 26.7881 87.1876 26.2793 87.0252C25.7705 86.8628 25.0885 86.6896 24.2333 86.5164C23.1399 86.2891 22.1981 85.986 21.4295 85.6179C20.6608 85.2498 20.0654 84.7627 19.6649 84.1673C19.2643 83.5719 19.0587 82.8249 19.0587 81.9264C19.0587 81.0278 19.3076 80.2592 19.8056 79.5664C20.3036 78.8736 20.9964 78.3323 21.895 77.9426C22.7935 77.5528 23.8544 77.358 25.0777 77.358C26.0736 77.358 26.9505 77.4879 27.7083 77.7477ZM5.87307 92.5679C5.77564 92.4597 5.72151 92.3298 5.72151 92.189V78.1158C5.72151 77.9534 5.77564 77.8235 5.87307 77.726C5.9705 77.6286 6.10041 77.5745 6.26279 77.5745H16.3739C16.5363 77.5745 16.6662 77.6286 16.7636 77.726C16.8611 77.8235 16.9152 77.9534 16.9152 78.1158V80.151C16.9152 80.3134 16.8611 80.4433 16.7636 80.5407C16.6662 80.6381 16.5363 80.6923 16.3739 80.6923H9.46717V83.6152H15.8976C16.06 83.6152 16.1899 83.6693 16.2873 83.7775C16.3847 83.8858 16.4389 84.0157 16.4389 84.1781V86.0617C16.4389 86.2025 16.3847 86.3324 16.2873 86.4406C16.1899 86.5489 16.06 86.603 15.8976 86.603H9.46717V89.6125H16.5471C16.7095 89.6125 16.8394 89.6667 16.9368 89.7641C17.0343 89.8615 17.0884 89.9914 17.0884 90.1538V92.189C17.0884 92.3298 17.0343 92.4597 16.9368 92.5679C16.8394 92.6762 16.7095 92.7303 16.5471 92.7303H6.26279C6.10041 92.7303 5.9705 92.6762 5.87307 92.5679ZM19.2319 114.598C17.8787 114.598 16.7095 114.371 15.7244 113.927C14.7392 113.483 13.9814 112.823 13.4402 111.957C12.8989 111.091 12.5958 110.019 12.5416 108.731C12.5308 108.135 12.52 107.507 12.52 106.825C12.52 106.143 12.52 105.494 12.5416 104.877C12.5958 103.621 12.8989 102.549 13.451 101.672C14.0031 100.795 14.7609 100.124 15.746 99.6804C16.7311 99.2365 17.8895 99.0092 19.2319 99.0092C20.1845 99.0092 21.0614 99.1282 21.8733 99.3664C22.6852 99.6046 23.3889 99.951 23.9951 100.406C24.6014 100.86 25.0777 101.412 25.4133 102.051C25.7489 102.69 25.9329 103.415 25.9437 104.227C25.9546 104.357 25.9221 104.465 25.8246 104.552C25.7272 104.638 25.619 104.682 25.4891 104.682H22.5661C22.3821 104.682 22.2306 104.638 22.1331 104.563C22.0357 104.487 21.9491 104.335 21.8733 104.119C21.6676 103.35 21.3429 102.831 20.8882 102.549C20.4335 102.268 19.8706 102.127 19.2102 102.127C18.4199 102.127 17.7921 102.343 17.3266 102.787C16.8611 103.231 16.6121 103.956 16.5688 104.985C16.5255 106.165 16.5255 107.377 16.5688 108.622C16.6121 109.651 16.8611 110.376 17.3266 110.82C17.7921 111.264 18.4199 111.48 19.2102 111.48C19.8706 111.48 20.4335 111.34 20.899 111.047C21.3645 110.755 21.6893 110.235 21.8733 109.488C21.9274 109.272 22.014 109.12 22.1223 109.044C22.2306 108.969 22.3821 108.925 22.5661 108.925H25.4891C25.619 108.925 25.7272 108.969 25.8246 109.055C25.9221 109.142 25.9546 109.25 25.9437 109.38C25.9329 110.192 25.7489 110.917 25.4133 111.556C25.0777 112.195 24.6014 112.747 23.9951 113.202C23.3889 113.656 22.6852 114.003 21.8733 114.241C21.0614 114.479 20.1845 114.598 19.2319 114.598ZM34.4094 114.598C33.0778 114.598 31.9303 114.382 30.9452 113.948C29.96 113.515 29.2022 112.866 28.6501 111.989C28.098 111.112 27.7949 110.019 27.7408 108.709C27.73 108.092 27.7191 107.464 27.7191 106.836C27.7191 106.208 27.7191 105.58 27.7408 104.963C27.7949 103.664 28.1089 102.571 28.661 101.683C29.2131 100.795 29.9925 100.124 30.9776 99.6804C31.9628 99.2365 33.1103 99.0092 34.4094 99.0092C35.7084 99.0092 36.8668 99.2365 37.8519 99.6804C38.837 100.124 39.6056 100.795 40.1686 101.683C40.7315 102.571 41.0346 103.664 41.0779 104.963C41.1104 105.58 41.1212 106.208 41.1212 106.836C41.1212 107.464 41.1104 108.092 41.0779 108.709C41.0346 110.019 40.7315 111.112 40.1794 111.989C39.6273 112.866 38.8587 113.515 37.8735 113.948C36.8884 114.382 35.7409 114.598 34.4094 114.598ZM54.9888 114.219C54.8806 114.111 54.8264 113.981 54.8264 113.84V105.721L52.4015 110.246C52.3257 110.376 52.2391 110.495 52.12 110.593C52.0009 110.69 51.8494 110.744 51.6437 110.744H50.5178C50.3122 110.744 50.1606 110.69 50.0415 110.593C49.9224 110.495 49.8358 110.376 49.76 110.246L47.3135 105.721V113.84C47.3135 113.981 47.2593 114.111 47.1619 114.219C47.0645 114.327 46.9346 114.382 46.7722 114.382H44.174C44.0333 114.382 43.9034 114.327 43.7951 114.219C43.6869 114.111 43.6328 113.981 43.6328 113.84V99.767C43.6328 99.6046 43.6869 99.4747 43.7951 99.3772C43.9034 99.2798 44.0333 99.2257 44.174 99.2257H46.5124C46.7614 99.2257 46.9346 99.2906 47.0536 99.4097C47.1727 99.5288 47.2377 99.6262 47.2702 99.702L51.0808 106.522L54.8914 99.702C54.9347 99.6262 55.0105 99.5288 55.1187 99.4097C55.227 99.2906 55.4002 99.2257 55.6492 99.2257H57.9659C58.1282 99.2257 58.2581 99.2798 58.3664 99.3772C58.4747 99.4747 58.5288 99.6046 58.5288 99.767V113.84C58.5288 113.981 58.4747 114.111 58.3664 114.219C58.2581 114.327 58.1282 114.382 57.9659 114.382H55.3894C55.227 114.382 55.0971 114.327 54.9888 114.219ZM68.1636 109.099H65.5871V113.84C65.5871 113.981 65.5329 114.111 65.4247 114.219C65.3164 114.327 65.1865 114.382 65.0241 114.382H62.1012C61.9389 114.382 61.8089 114.327 61.7115 114.219C61.6141 114.111 61.56 113.981 61.56 113.84V99.767C61.56 99.6046 61.6141 99.4747 61.7115 99.3772C61.8089 99.2798 61.9389 99.2257 62.1012 99.2257H68.1636C69.3652 99.2257 70.4045 99.4097 71.2922 99.7778C72.1799 100.146 72.8727 100.698 73.3707 101.434C73.8687 102.17 74.1176 103.101 74.1176 104.227C74.1176 105.353 73.8687 106.251 73.3707 106.977C72.8727 107.702 72.1799 108.233 71.2922 108.579C70.4045 108.925 69.3652 109.099 68.1636 109.099ZM76.3477 114.219C76.2503 114.111 76.1962 113.981 76.1962 113.84V99.767C76.1962 99.6046 76.2503 99.4747 76.3477 99.3772C76.4451 99.2798 76.5751 99.2257 76.7374 99.2257H79.5954C79.7578 99.2257 79.8877 99.2798 79.9851 99.3772C80.0826 99.4747 80.1367 99.6046 80.1367 99.767V111.112H86.697C86.8594 111.112 86.9893 111.166 87.0867 111.275C87.1841 111.383 87.2383 111.513 87.2383 111.675V113.84C87.2383 113.981 87.1841 114.111 87.0867 114.219C86.9893 114.327 86.8594 114.382 86.697 114.382H76.7374C76.5751 114.382 76.4451 114.327 76.3477 114.219ZM100.489 113.84C100.489 113.981 100.435 114.111 100.337 114.219C100.24 114.327 100.11 114.382 99.9475 114.382H89.6632C89.5008 114.382 89.3709 114.327 89.2735 114.219C89.1761 114.111 89.1219 113.981 89.1219 113.84V99.767C89.1219 99.6046 89.1761 99.4747 89.2735 99.3772C89.3709 99.2798 89.5008 99.2257 89.6632 99.2257H99.7743C99.9367 99.2257 100.067 99.2798 100.164 99.3772C100.261 99.4747 100.316 99.6046 100.316 99.767V101.802C100.316 101.965 100.261 102.094 100.164 102.192C100.067 102.289 99.9367 102.343 99.7743 102.343H92.8676V105.266H99.298C99.4604 105.266 99.5903 105.32 99.6877 105.429C99.7851 105.537 99.8393 105.667 99.8393 105.829V107.713C99.8393 107.854 99.7851 107.984 99.6877 108.092C99.5903 108.2 99.4604 108.254 99.298 108.254H92.8676V111.264H99.9475C100.11 111.264 100.24 111.318 100.337 111.415C100.435 111.513 100.489 111.643 100.489 111.805V113.84ZM106.443 114.219C106.345 114.111 106.291 113.981 106.291 113.84V102.625H102.437C102.275 102.625 102.145 102.571 102.048 102.463C101.95 102.354 101.896 102.224 101.896 102.084V99.767C101.896 99.6046 101.95 99.4747 102.048 99.3772C102.145 99.2798 102.275 99.2257 102.437 99.2257H114.086C114.248 99.2257 114.378 99.2798 114.475 99.3772C114.573 99.4747 114.627 99.6046 114.627 99.767V102.084C114.627 102.224 114.573 102.354 114.475 102.463C114.378 102.571 114.248 102.625 114.086 102.625H110.232V113.84C110.232 113.981 110.178 114.111 110.08 114.219C109.983 114.327 109.853 114.382 109.691 114.382H106.833C106.67 114.382 106.54 114.327 106.443 114.219ZM128.852 113.927C128.852 114.046 128.809 114.143 128.711 114.241C128.614 114.338 128.505 114.382 128.376 114.382H125.712C125.496 114.382 125.334 114.327 125.225 114.219C125.117 114.111 125.052 114.013 125.02 113.927L124.175 111.718H118.394L117.572 113.927C117.539 114.013 117.474 114.111 117.377 114.219C117.279 114.327 117.106 114.382 116.857 114.382H114.194C114.075 114.382 113.978 114.338 113.88 114.241C113.783 114.143 113.739 114.046 113.739 113.927C113.739 113.851 113.739 113.786 113.761 113.732L118.849 99.8319C118.892 99.6695 118.979 99.5288 119.12 99.4097C119.26 99.2906 119.444 99.2257 119.693 99.2257H122.898C123.147 99.2257 123.331 99.2906 123.472 99.4097C123.612 99.5288 123.699 99.6695 123.742 99.8319L128.809 113.732C128.841 113.786 128.852 113.851 128.852 113.927ZM136.008 92.5896C135.91 92.687 135.802 92.7303 135.672 92.7303H133.009C132.792 92.7303 132.63 92.6762 132.522 92.5679C132.413 92.4597 132.349 92.3623 132.316 92.2756L131.472 90.0672H125.691L124.868 92.2756C124.836 92.3623 124.771 92.4597 124.673 92.5679C124.576 92.6762 124.403 92.7303 124.154 92.7303H121.49C121.371 92.7303 121.274 92.687 121.177 92.5896C121.079 92.4921 121.036 92.3947 121.036 92.2756C121.036 92.1999 121.036 92.1349 121.057 92.0808L126.145 78.1807C126.189 78.0183 126.275 77.8776 126.416 77.7585C126.557 77.6394 126.741 77.5745 126.99 77.5745H130.194C130.443 77.5745 130.627 77.6394 130.768 77.7585C130.909 77.8776 130.995 78.0183 131.039 78.1807L136.105 92.0808C136.137 92.1349 136.148 92.1999 136.148 92.2756C136.148 92.3947 136.105 92.4921 136.008 92.5896Z" fill="white"/>
<path d="M36.6719 103.372C36.4446 102.95 36.1414 102.636 35.7517 102.43C35.362 102.224 34.9182 102.127 34.4094 102.127C33.9005 102.127 33.4783 102.224 33.0886 102.43C32.6989 102.636 32.385 102.95 32.1576 103.372C31.9303 103.794 31.8004 104.346 31.7679 105.028C31.7571 105.634 31.7463 106.219 31.7463 106.782C31.7463 107.345 31.7463 107.94 31.7679 108.579C31.8112 109.586 32.071 110.322 32.5582 110.787C33.0453 111.253 33.6624 111.48 34.4094 111.48C35.1563 111.48 35.795 111.253 36.2822 110.787C36.7693 110.322 37.0183 109.586 37.0508 108.579C37.0833 107.94 37.0941 107.345 37.0941 106.782C37.0941 106.219 37.0833 105.634 37.0508 105.028C37.0183 104.346 36.8992 103.794 36.6719 103.372ZM35.7084 107.172C35.7084 107.172 35.6218 107.215 35.5785 107.237C35.0697 107.496 34.6259 107.54 34.4094 107.54C34.0521 107.54 33.6299 107.431 33.2618 107.237C33.2185 107.215 33.1752 107.193 33.1319 107.161C33.1319 107.053 33.1319 106.944 33.1319 106.836C33.1319 106.706 33.1319 106.565 33.1319 106.436C33.5974 106.165 34.0738 106.067 34.4094 106.067C34.7666 106.067 35.2429 106.176 35.7084 106.436C35.7084 106.565 35.7084 106.706 35.7084 106.836C35.7084 106.944 35.7084 107.053 35.7084 107.161V107.172Z" fill="white"/>
<path d="M68.0553 102.235H65.5221V106.111H68.0553C68.6724 106.111 69.1703 105.948 69.5384 105.634C69.9065 105.32 70.0905 104.833 70.0905 104.184C70.0905 103.632 69.9281 103.177 69.6142 102.798C69.3002 102.419 68.7806 102.235 68.0553 102.235Z" fill="white"/>
<path d="M119.282 108.601H123.309L121.296 102.885L119.282 108.601Z" fill="white"/>
<path d="M16.5471 92.7303C16.7095 92.7303 16.8394 92.6762 16.9368 92.5679C17.0343 92.4597 17.0884 92.3298 17.0884 92.189V90.1538C17.0884 89.9914 17.0343 89.8615 16.9368 89.7641C16.8394 89.6667 16.7095 89.6125 16.5471 89.6125H9.46717V86.603H15.8976C16.06 86.603 16.1899 86.5489 16.2873 86.4406C16.3847 86.3324 16.4389 86.2025 16.4389 86.0617V84.1781C16.4389 84.0157 16.3847 83.8858 16.2873 83.7775C16.1899 83.6693 16.06 83.6152 15.8976 83.6152H9.46717V80.6923H16.3739C16.5363 80.6923 16.6662 80.6381 16.7636 80.5407C16.8611 80.4433 16.9152 80.3134 16.9152 80.151V78.1158C16.9152 77.9534 16.8611 77.8235 16.7636 77.726C16.6662 77.6286 16.5363 77.5745 16.3739 77.5745H6.26279C6.10041 77.5745 5.9705 77.6286 5.87307 77.726C5.77564 77.8235 5.72151 77.9534 5.72151 78.1158V92.189C5.72151 92.3298 5.77564 92.4597 5.87307 92.5679C5.9705 92.6762 6.10041 92.7303 6.26279 92.7303H16.5471Z" fill="#F85600"/>
<path d="M21.895 77.9426C20.9964 78.3323 20.3036 78.8736 19.8056 79.5664C19.3076 80.2592 19.0587 81.0495 19.0587 81.9264C19.0587 82.8032 19.2643 83.5719 19.6649 84.1673C20.0654 84.7627 20.6608 85.2498 21.4295 85.6179C22.1981 85.986 23.1399 86.2891 24.2333 86.5164C25.0885 86.6896 25.7705 86.8628 26.2793 87.0252C26.7881 87.1876 27.167 87.3716 27.3944 87.5773C27.6217 87.783 27.7408 88.0428 27.7408 88.3784C27.7408 88.8223 27.5243 89.1795 27.1021 89.4393C26.6799 89.6992 26.0412 89.8291 25.2076 89.8291C24.7204 89.8291 24.2982 89.7641 23.9518 89.645C23.6054 89.5259 23.3239 89.3636 23.1183 89.1579C22.9126 88.9522 22.7502 88.7465 22.6311 88.53C22.5445 88.4109 22.4471 88.3243 22.3388 88.2485C22.2306 88.1727 22.079 88.1403 21.8733 88.1403H19.1453C19.0153 88.1403 18.9071 88.1836 18.8097 88.281C18.7122 88.3784 18.6689 88.4759 18.6689 88.5949C18.7014 89.3419 18.9612 90.0564 19.4484 90.7168C19.9355 91.3771 20.6608 91.9184 21.6135 92.3298C22.5661 92.7411 23.7678 92.9468 25.2076 92.9468C26.4958 92.9468 27.6217 92.752 28.596 92.3731C29.5703 91.9942 30.3389 91.4421 30.9019 90.7384C31.4648 90.0347 31.7463 89.1903 31.7463 88.2052C31.7463 87.3283 31.5514 86.5922 31.1725 86.0076C30.7936 85.423 30.1982 84.9467 29.3863 84.5786C28.5744 84.2106 27.5134 83.9074 26.2035 83.6585C25.4133 83.4853 24.7854 83.3229 24.3307 83.1605C23.876 82.9981 23.5513 82.8141 23.3564 82.5976C23.1616 82.3811 23.0641 82.132 23.0641 81.8398C23.0641 81.3743 23.2373 81.0387 23.5946 80.8113C23.9518 80.584 24.439 80.4757 25.0777 80.4757C25.6731 80.4757 26.1494 80.5948 26.5175 80.833C26.8856 81.0712 27.1129 81.3526 27.1995 81.6666C27.2861 81.7965 27.3835 81.8939 27.5026 81.948C27.6217 82.0022 27.7516 82.0346 27.914 82.0346H30.7719C30.9127 82.0346 31.0318 81.9913 31.1075 81.8939C31.1833 81.7965 31.2266 81.699 31.2266 81.5799C31.2158 81.1144 31.0751 80.6489 30.8044 80.1618C30.5338 79.6746 30.1441 79.22 29.6244 78.7869C29.1048 78.3539 28.4661 78.0075 27.7083 77.7477C26.9505 77.4879 26.0736 77.358 25.0777 77.358C23.8544 77.358 22.7935 77.5528 21.895 77.9426Z" fill="#F85600"/>
<path d="M33.2402 80.9737H37.0941V92.189C37.0941 92.3298 37.1482 92.4597 37.2457 92.5679C37.3431 92.6762 37.473 92.7303 37.6354 92.7303H40.4933C40.6557 92.7303 40.7856 92.6762 40.8831 92.5679C40.9805 92.4597 41.0346 92.3298 41.0346 92.189V80.9737H44.8885C45.0509 80.9737 45.1808 80.9196 45.2783 80.8113C45.3757 80.7031 45.4298 80.5732 45.4298 80.4324V78.1158C45.4298 77.9534 45.3757 77.8235 45.2783 77.726C45.1808 77.6286 45.0509 77.5745 44.8885 77.5745H33.2402C33.0778 77.5745 32.9479 77.6286 32.8505 77.726C32.753 77.8235 32.6989 77.9534 32.6989 78.1158V80.4324C32.6989 80.5732 32.753 80.7031 32.8505 80.8113C32.9479 80.9196 33.0778 80.9737 33.2402 80.9737Z" fill="#F85600"/>
<path d="M47.4001 92.189C47.4001 92.3298 47.4542 92.4597 47.5516 92.5679C47.6491 92.6762 47.779 92.7303 47.9413 92.7303H50.7344C50.8967 92.7303 51.0266 92.6762 51.1349 92.5679C51.2432 92.4597 51.2973 92.3298 51.2973 92.189V87.3825H53.5057L55.9739 92.1457C56.0281 92.2648 56.1255 92.3839 56.2554 92.5246C56.3853 92.6654 56.591 92.7303 56.8616 92.7303H59.7413C59.8603 92.7303 59.9578 92.687 60.0552 92.5896C60.1526 92.4921 60.1959 92.3947 60.1959 92.2756C60.1959 92.1999 60.1743 92.1241 60.131 92.0375L57.1648 86.7113C57.9767 86.354 58.6262 85.8128 59.1134 85.1091C59.6005 84.4054 59.8495 83.5394 59.8495 82.5109C59.8495 80.9412 59.3191 79.7179 58.2473 78.8627C57.1756 78.0075 55.7033 77.5745 53.8305 77.5745H47.9413C47.779 77.5745 47.6491 77.6286 47.5516 77.726C47.4542 77.8235 47.4001 77.9534 47.4001 78.1158V92.189ZM53.7872 80.584C54.4908 80.584 55.0105 80.7572 55.3352 81.1036C55.66 81.4501 55.8224 81.9047 55.8224 82.4677C55.8224 83.0306 55.6492 83.4744 55.3136 83.81C54.978 84.1456 54.4692 84.308 53.7872 84.308H51.2973V80.584H53.7872Z" fill="#F85600"/>
<path d="M63.0322 90.3379C63.5627 91.2256 64.3205 91.8859 65.2948 92.3081C66.2691 92.7303 67.4166 92.9468 68.7265 92.9468C70.0364 92.9468 71.1623 92.7303 72.1257 92.3081C73.0892 91.8859 73.847 91.2256 74.3775 90.3379C74.9079 89.4502 75.1786 88.3243 75.1786 86.9494V78.1158C75.1786 77.9534 75.1244 77.8235 75.0162 77.726C74.9079 77.6286 74.778 77.5745 74.6373 77.5745H71.8226C71.6819 77.5745 71.552 77.6286 71.4437 77.726C71.3355 77.8235 71.2813 77.9534 71.2813 78.1158V86.9278C71.2813 87.8696 71.054 88.5733 70.5993 89.0388C70.1447 89.5043 69.5168 89.7425 68.7048 89.7425C67.8929 89.7425 67.2434 89.5043 66.7995 89.0388C66.3557 88.5733 66.1283 87.8696 66.1283 86.9278V78.1158C66.1283 77.9534 66.0742 77.8235 65.966 77.726C65.8577 77.6286 65.7278 77.5745 65.5654 77.5745H62.7724C62.61 77.5745 62.4801 77.6286 62.3827 77.726C62.2853 77.8235 62.2311 77.9534 62.2311 78.1158V86.9494C62.2311 88.3243 62.5018 89.4502 63.0322 90.3379Z" fill="#F85600"/>
<path d="M77.5385 80.9737H81.3924V92.189C81.3924 92.3298 81.4466 92.4597 81.544 92.5679C81.6414 92.6762 81.7713 92.7303 81.9337 92.7303H84.7917C84.9541 92.7303 85.084 92.6762 85.1814 92.5679C85.2788 92.4597 85.333 92.3298 85.333 92.189V80.9737H89.1869C89.3493 80.9737 89.4792 80.9196 89.5766 80.8113C89.674 80.7031 89.7282 80.5732 89.7282 80.4324V78.1158C89.7282 77.9534 89.674 77.8235 89.5766 77.726C89.4792 77.6286 89.3493 77.5745 89.1869 77.5745H77.5385C77.3761 77.5745 77.2462 77.6286 77.1488 77.726C77.0514 77.8235 76.9973 77.9534 76.9973 78.1158V80.4324C76.9973 80.5732 77.0514 80.7031 77.1488 80.8113C77.2462 80.9196 77.3761 80.9737 77.5385 80.9737Z" fill="#F85600"/>
<path d="M103.975 77.5745H101.16C101.019 77.5745 100.889 77.6286 100.781 77.726C100.673 77.8235 100.619 77.9534 100.619 78.1158V86.9278C100.619 87.8696 100.391 88.5733 99.9367 89.0388C99.482 89.5043 98.8541 89.7425 98.0422 89.7425C97.2303 89.7425 96.5808 89.5043 96.1369 89.0388C95.6931 88.5733 95.4657 87.8696 95.4657 86.9278V78.1158C95.4657 77.9534 95.4116 77.8235 95.3033 77.726C95.1951 77.6286 95.0652 77.5745 94.9028 77.5745H92.1098C91.9474 77.5745 91.8175 77.6286 91.7201 77.726C91.6226 77.8235 91.5685 77.9534 91.5685 78.1158V86.9494C91.5685 88.3243 91.8391 89.4502 92.3696 90.3379C92.9001 91.2256 93.6578 91.8859 94.6321 92.3081C95.6065 92.7303 96.754 92.9468 98.0639 92.9468C99.3738 92.9468 100.5 92.7303 101.463 92.3081C102.427 91.8859 103.184 91.2256 103.715 90.3379C104.245 89.4502 104.516 88.3243 104.516 86.9494V78.1158C104.516 77.9534 104.462 77.8235 104.354 77.726C104.245 77.6286 104.115 77.5745 103.975 77.5745Z" fill="#F85600"/>
<path d="M107.937 77.5745C107.774 77.5745 107.645 77.6286 107.547 77.726C107.45 77.8235 107.396 77.9534 107.396 78.1158V92.189C107.396 92.3298 107.45 92.4597 107.547 92.5679C107.645 92.6762 107.774 92.7303 107.937 92.7303H110.73C110.892 92.7303 111.022 92.6762 111.13 92.5679C111.239 92.4597 111.293 92.3298 111.293 92.189V87.3825H113.501L115.969 92.1457C116.024 92.2648 116.121 92.3839 116.251 92.5246C116.381 92.6654 116.586 92.7303 116.857 92.7303H119.737C119.856 92.7303 119.953 92.687 120.051 92.5896C120.148 92.4921 120.191 92.3947 120.191 92.2756C120.191 92.1999 120.17 92.1241 120.126 92.0375L117.16 86.7113C117.972 86.354 118.622 85.8128 119.109 85.1091C119.596 84.4054 119.845 83.5394 119.845 82.5109C119.845 80.9412 119.315 79.7179 118.243 78.8627C117.171 78.0075 115.699 77.5745 113.826 77.5745H107.937ZM111.293 80.584H113.783C114.486 80.584 115.006 80.7572 115.331 81.1036C115.655 81.4501 115.818 81.9047 115.818 82.4677C115.818 83.0306 115.645 83.4744 115.309 83.81C114.973 84.1456 114.465 84.308 113.783 84.308H111.293V80.584Z" fill="#F85600"/>
<path d="M131.039 78.1807C130.995 78.0183 130.909 77.8776 130.768 77.7585C130.627 77.6394 130.443 77.5745 130.194 77.5745H126.99C126.741 77.5745 126.557 77.6394 126.416 77.7585C126.275 77.8776 126.189 78.0183 126.145 78.1807L121.057 92.0808C121.047 92.1349 121.036 92.1999 121.036 92.2756C121.036 92.3947 121.079 92.4921 121.177 92.5896C121.274 92.687 121.371 92.7303 121.49 92.7303H124.154C124.403 92.7303 124.576 92.6762 124.673 92.5679C124.771 92.4597 124.836 92.3623 124.868 92.2756L125.691 90.0672H131.472L132.316 92.2756C132.349 92.3623 132.413 92.4597 132.522 92.5679C132.63 92.6762 132.792 92.7303 133.009 92.7303H135.672C135.802 92.7303 135.91 92.687 136.008 92.5896C136.105 92.4921 136.148 92.3947 136.148 92.2756C136.148 92.1999 136.137 92.1349 136.105 92.0808L131.039 78.1807ZM126.578 86.9494L128.592 81.2335L130.606 86.9494H126.578Z" fill="#F85600"/>
<path d="M23.9951 113.202C24.6014 112.747 25.0777 112.195 25.4133 111.556C25.7489 110.917 25.9329 110.192 25.9437 109.38C25.9546 109.25 25.9221 109.142 25.8246 109.055C25.7272 108.969 25.619 108.925 25.4891 108.925H22.5661C22.3821 108.925 22.2306 108.969 22.1223 109.044C22.014 109.12 21.9274 109.272 21.8733 109.488C21.6893 110.235 21.3645 110.755 20.899 111.047C20.4335 111.34 19.8706 111.48 19.2102 111.48C18.4199 111.48 17.7921 111.264 17.3266 110.82C16.8611 110.376 16.6121 109.651 16.5688 108.622C16.5255 107.377 16.5255 106.165 16.5688 104.985C16.6121 103.956 16.8611 103.231 17.3266 102.787C17.7921 102.343 18.4199 102.127 19.2102 102.127C19.8706 102.127 20.4335 102.268 20.8882 102.549C21.3429 102.831 21.6676 103.35 21.8733 104.119C21.9491 104.335 22.0357 104.487 22.1331 104.563C22.2306 104.638 22.3821 104.682 22.5661 104.682H25.4891C25.619 104.682 25.7272 104.638 25.8246 104.552C25.9221 104.465 25.9546 104.357 25.9437 104.227C25.9329 103.415 25.7489 102.69 25.4133 102.051C25.0777 101.412 24.6014 100.86 23.9951 100.406C23.3889 99.951 22.6852 99.6046 21.8733 99.3664C21.0614 99.1282 20.1845 99.0092 19.2319 99.0092C17.8895 99.0092 16.7311 99.2365 15.746 99.6804C14.7609 100.124 14.0031 100.795 13.451 101.672C12.8989 102.549 12.5958 103.621 12.5416 104.877C12.5308 105.494 12.52 106.143 12.52 106.825C12.52 107.507 12.52 108.135 12.5416 108.731C12.5958 110.019 12.8989 111.091 13.4402 111.957C13.9814 112.823 14.7392 113.483 15.7244 113.927C16.7095 114.371 17.8787 114.598 19.2319 114.598C20.1845 114.598 21.0614 114.479 21.8733 114.241C22.6852 114.003 23.3889 113.656 23.9951 113.202Z" fill="#F85600"/>
<path d="M40.1794 111.989C40.7315 111.112 41.0346 110.019 41.0779 108.709C41.1104 108.092 41.1212 107.464 41.1212 106.836C41.1212 106.208 41.1104 105.58 41.0779 104.963C41.0346 103.664 40.7315 102.571 40.1686 101.683C39.6056 100.795 38.837 100.124 37.8519 99.6804C36.8668 99.2365 35.7192 99.0092 34.4094 99.0092C33.0995 99.0092 31.9628 99.2365 30.9776 99.6804C29.9925 100.124 29.2131 100.795 28.661 101.683C28.1089 102.571 27.7949 103.664 27.7408 104.963C27.73 105.58 27.7191 106.208 27.7191 106.836C27.7191 107.464 27.7191 108.092 27.7408 108.709C27.7949 110.019 28.098 111.112 28.6501 111.989C29.2022 112.866 29.96 113.515 30.9452 113.948C31.9303 114.382 33.0778 114.598 34.4094 114.598C35.7409 114.598 36.8884 114.382 37.8735 113.948C38.8587 113.515 39.6273 112.866 40.1794 111.989ZM37.0508 108.579C37.0183 109.586 36.7693 110.322 36.2822 110.787C35.795 111.253 35.178 111.48 34.4094 111.48C33.6407 111.48 33.0453 111.253 32.5582 110.787C32.071 110.322 31.8112 109.586 31.7679 108.579C31.7571 107.94 31.7463 107.345 31.7463 106.782C31.7463 106.219 31.7463 105.634 31.7679 105.028C31.8004 104.346 31.9303 103.794 32.1576 103.372C32.385 102.95 32.6989 102.636 33.0886 102.43C33.4783 102.224 33.9222 102.127 34.4094 102.127C34.8965 102.127 35.362 102.224 35.7517 102.43C36.1414 102.636 36.4446 102.95 36.6719 103.372C36.8992 103.794 37.0183 104.346 37.0508 105.028C37.0833 105.634 37.0941 106.219 37.0941 106.782C37.0941 107.345 37.0833 107.94 37.0508 108.579Z" fill="#F85600"/>
<path d="M57.9659 114.382C58.1282 114.382 58.2581 114.327 58.3664 114.219C58.4747 114.111 58.5288 113.981 58.5288 113.84V99.767C58.5288 99.6046 58.4747 99.4747 58.3664 99.3772C58.2581 99.2798 58.1282 99.2257 57.9659 99.2257H55.6492C55.4002 99.2257 55.227 99.2906 55.1187 99.4097C55.0105 99.5288 54.9347 99.6262 54.8914 99.702L51.0808 106.522L47.2702 99.702C47.2377 99.6262 47.1727 99.5288 47.0536 99.4097C46.9346 99.2906 46.7614 99.2257 46.5124 99.2257H44.174C44.0333 99.2257 43.9034 99.2798 43.7951 99.3772C43.6869 99.4747 43.6328 99.6046 43.6328 99.767V113.84C43.6328 113.981 43.6869 114.111 43.7951 114.219C43.9034 114.327 44.0333 114.382 44.174 114.382H46.7722C46.9346 114.382 47.0645 114.327 47.1619 114.219C47.2593 114.111 47.3135 113.981 47.3135 113.84V105.721L49.76 110.246C49.8358 110.376 49.9224 110.495 50.0415 110.593C50.1606 110.69 50.3122 110.744 50.5178 110.744H51.6437C51.8494 110.744 52.0009 110.69 52.12 110.593C52.2391 110.495 52.3257 110.376 52.4015 110.246L54.8264 105.721V113.84C54.8264 113.981 54.8806 114.111 54.9888 114.219C55.0971 114.327 55.227 114.382 55.3894 114.382H57.9659Z" fill="#F85600"/>
<path d="M71.2922 108.579C72.1799 108.233 72.8727 107.702 73.3707 106.977C73.8687 106.251 74.1176 105.342 74.1176 104.227C74.1176 103.112 73.8687 102.17 73.3707 101.434C72.8727 100.698 72.1799 100.146 71.2922 99.7778C70.4045 99.4097 69.3652 99.2257 68.1636 99.2257H62.1012C61.9389 99.2257 61.8089 99.2798 61.7115 99.3772C61.6141 99.4747 61.56 99.6046 61.56 99.767V113.84C61.56 113.981 61.6141 114.111 61.7115 114.219C61.8089 114.327 61.9389 114.382 62.1012 114.382H65.0241C65.1865 114.382 65.3164 114.327 65.4247 114.219C65.5329 114.111 65.5871 113.981 65.5871 113.84V109.099H68.1636C69.3652 109.099 70.4045 108.925 71.2922 108.579ZM69.5384 105.634C69.1703 105.948 68.6724 106.111 68.0553 106.111H65.5221V102.235H68.0553C68.7806 102.235 69.3002 102.419 69.6142 102.798C69.9281 103.177 70.0905 103.632 70.0905 104.184C70.0905 104.833 69.9065 105.32 69.5384 105.634Z" fill="#F85600"/>
<path d="M86.697 114.382C86.8594 114.382 86.9893 114.327 87.0867 114.219C87.1841 114.111 87.2383 113.981 87.2383 113.84V111.675C87.2383 111.513 87.1841 111.383 87.0867 111.275C86.9893 111.166 86.8594 111.112 86.697 111.112H80.1367V99.767C80.1367 99.6046 80.0826 99.4747 79.9851 99.3772C79.8877 99.2798 79.7578 99.2257 79.5954 99.2257H76.7374C76.5751 99.2257 76.4451 99.2798 76.3477 99.3772C76.2503 99.4747 76.1962 99.6046 76.1962 99.767V113.84C76.1962 113.981 76.2503 114.111 76.3477 114.219C76.4451 114.327 76.5751 114.382 76.7374 114.382H86.697Z" fill="#F85600"/>
<path d="M99.9475 111.264H92.8676V108.254H99.298C99.4604 108.254 99.5903 108.2 99.6877 108.092C99.7851 107.984 99.8393 107.854 99.8393 107.713V105.829C99.8393 105.667 99.7851 105.537 99.6877 105.429C99.5903 105.32 99.4604 105.266 99.298 105.266H92.8676V102.343H99.7743C99.9367 102.343 100.067 102.289 100.164 102.192C100.261 102.094 100.316 101.965 100.316 101.802V99.767C100.316 99.6046 100.261 99.4747 100.164 99.3772C100.067 99.2798 99.9367 99.2257 99.7743 99.2257H89.6632C89.5008 99.2257 89.3709 99.2798 89.2735 99.3772C89.1761 99.4747 89.1219 99.6046 89.1219 99.767V113.84C89.1219 113.981 89.1761 114.111 89.2735 114.219C89.3709 114.327 89.5008 114.382 89.6632 114.382H99.9475C100.11 114.382 100.24 114.327 100.337 114.219C100.435 114.111 100.489 113.981 100.489 113.84V111.805C100.489 111.643 100.435 111.513 100.337 111.415C100.24 111.318 100.11 111.264 99.9475 111.264Z" fill="#F85600"/>
<path d="M109.691 114.382C109.853 114.382 109.983 114.327 110.08 114.219C110.178 114.111 110.232 113.981 110.232 113.84V102.625H114.086C114.248 102.625 114.378 102.571 114.475 102.463C114.573 102.354 114.627 102.224 114.627 102.084V99.767C114.627 99.6046 114.573 99.4747 114.475 99.3772C114.378 99.2798 114.248 99.2257 114.086 99.2257H102.437C102.275 99.2257 102.145 99.2798 102.048 99.3772C101.95 99.4747 101.896 99.6046 101.896 99.767V102.084C101.896 102.224 101.95 102.354 102.048 102.463C102.145 102.571 102.275 102.625 102.437 102.625H106.291V113.84C106.291 113.981 106.345 114.111 106.443 114.219C106.54 114.327 106.67 114.382 106.833 114.382H109.691Z" fill="#F85600"/>
<path d="M123.472 99.4097C123.331 99.2906 123.147 99.2257 122.898 99.2257H119.693C119.444 99.2257 119.26 99.2906 119.12 99.4097C118.979 99.5288 118.892 99.6695 118.849 99.8319L113.761 113.732C113.75 113.786 113.739 113.851 113.739 113.927C113.739 114.046 113.783 114.143 113.88 114.241C113.978 114.338 114.075 114.382 114.194 114.382H116.857C117.106 114.382 117.279 114.327 117.377 114.219C117.474 114.111 117.539 114.013 117.572 113.927L118.394 111.718H124.175L125.02 113.927C125.052 114.013 125.117 114.111 125.225 114.219C125.334 114.327 125.496 114.382 125.712 114.382H128.376C128.505 114.382 128.614 114.338 128.711 114.241C128.809 114.143 128.852 114.046 128.852 113.927C128.852 113.851 128.841 113.786 128.809 113.732L123.742 99.8319C123.699 99.6695 123.612 99.5288 123.472 99.4097ZM119.282 108.601L121.296 102.885L123.309 108.601H119.282Z" fill="#F85600"/>
<path d="M20.8774 17.828C20.9207 17.9146 21.0181 18.1311 21.0614 18.2069C21.1372 18.4559 21.2779 18.943 21.2129 18.4559C21.4619 20.3828 22.7718 21.9201 24.872 21.6278C26.9938 21.3355 27.8274 19.506 27.5567 17.5898C27.3835 16.3124 26.7665 15.1108 26.0736 14.039C25.9329 13.8225 25.7813 13.606 25.6406 13.3787C25.6406 13.3787 25.2834 12.7833 25.3267 12.9024C25.0885 12.426 24.9153 11.9389 24.6014 11.5275C23.7894 10.0877 21.397 9.69798 20.3252 11.4192C20.6175 10.9537 19.7731 12.2745 19.719 12.5018C19.6108 12.9024 19.535 13.4112 19.535 13.8225C19.535 14.4721 19.7515 15.1649 19.9788 15.7711C20.2386 16.464 20.5526 17.1568 20.8774 17.828Z" fill="#F85600"/>
<path d="M47.2485 13.5844C47.4109 12.4152 46.9454 11.3543 46.1443 10.6398C45.5597 10.1202 44.8019 9.79541 43.9467 9.77376C44.7478 9.79541 44.0874 9.77376 43.8384 9.7088C43.8384 9.7088 43.8276 9.7088 43.8168 9.7088C43.8168 9.7088 43.7951 9.69798 43.7843 9.68715C43.4162 9.45981 43.0049 9.27578 42.6152 9.09174C41.262 8.43138 40.0062 8.13909 38.5014 8.3989C36.1198 8.8211 35.7517 12.5235 37.8302 13.5627C38.7937 14.0499 39.6598 14.6669 40.5691 15.219C41.3486 15.6954 42.1497 16.1176 43.059 16.3774C45.0293 16.9187 46.9887 15.5546 47.2593 13.5844H47.2485Z" fill="#F85600"/>
<path d="M41.4785 32.724C42.7126 32.3884 43.5786 31.2084 43.6003 29.9418C43.6003 29.747 43.6003 29.563 43.6003 29.3681C43.6003 28.0257 42.6585 26.8457 41.3919 26.4668C40.4609 26.1854 39.4866 26.1204 38.5231 26.0122C38.5664 26.0122 38.0468 25.9364 37.9926 25.9255C37.7761 25.8822 37.5704 25.8281 37.3539 25.774C37.224 25.7415 37.0833 25.6982 36.9534 25.6657C36.791 25.5358 36.6069 25.4384 36.4229 25.3518C35.4811 24.8971 34.366 24.9837 33.4783 25.6441C32.4283 26.4344 31.9411 28.1664 32.7422 29.314C34.0954 31.2626 36.6827 32.1719 39.0968 32.356C39.2267 32.4426 39.3783 32.4967 39.5299 32.5616C40.1577 32.8215 40.8831 32.8972 41.4785 32.724Z" fill="#F85600"/>
</svg>
