<svg width="148" height="142" viewBox="0 0 148 142" fill="none" xmlns="http://www.w3.org/2000/svg">
<path d="M80.118 59.051L80.1944 59.0838L81.6913 58.6795L81.0467 58.3627C80.9265 58.308 80.8172 58.2425 80.697 58.1879C78.4245 56.9969 76.2721 55.0958 74.1087 52.3862C72.6556 50.5616 69.203 45.6778 68.5693 39.8324L68.4819 39.0567L64.789 44.9129L64.8546 45.0441C67.8482 51.5122 73.4095 56.6255 80.107 59.0619L80.118 59.051Z" fill="white"/>
<path d="M81.7568 56.1447C82.4233 56.4943 84.2152 57.3356 85.9742 57.3356C86.8155 57.3356 87.6459 57.1499 88.3561 56.6255C89.9075 55.4892 90.6177 53.7083 90.5084 51.1844C90.5084 50.9768 90.4866 50.7692 90.4647 50.5507L90.432 50.1792L90.0823 50.3322C88.3014 51.097 86.5314 52.1568 84.969 53.0855L84.6085 53.304C84.4009 53.4242 84.1605 53.4679 83.9311 53.4023C83.7016 53.3477 83.505 53.1947 83.3848 52.9871C83.2646 52.7796 83.2318 52.5392 83.2865 52.3097C83.3411 52.0803 83.494 51.8836 83.7016 51.7635L84.0622 51.5449C85.8322 50.4961 87.8316 49.3051 89.9075 48.4748L90.126 48.3874L90.0714 48.1579C89.7109 46.672 89.2083 45.3281 88.8477 44.465C88.3451 43.2522 87.7224 42.1269 86.9357 40.8048L86.8373 40.6409L86.6516 40.6737C86.0725 40.7721 85.4826 40.7721 84.8926 40.6737C83.4066 40.4443 82.1065 39.6467 81.2215 38.4339C80.3365 37.2212 79.9759 35.7352 80.2054 34.2493C80.2163 34.1401 80.2381 34.0417 80.26 33.9325L80.3037 33.7467L80.1398 33.6484C79.3531 33.1567 78.5883 32.7743 77.8345 32.5121L77.5395 32.4029L77.4739 32.7197C77.1133 34.5443 76.5015 36.1832 76.0645 37.2649C75.9115 37.6582 75.5072 37.8876 75.0921 37.8221C75.0265 37.8221 74.961 37.7893 74.8954 37.7674C74.4365 37.5817 74.2071 37.0573 74.3928 36.5984C74.7971 35.5823 75.3761 34.0417 75.7039 32.3482L75.7695 32.0314H75.4526C75.3106 32.0095 75.1686 32.0205 75.0265 32.0314C73.0926 32.1188 71.5303 33.4408 71.0604 35.4293C69.7712 40.783 72.7102 46.967 75.8897 50.9659C77.8454 53.4242 79.7574 55.1286 81.7459 56.1666L81.7568 56.1447Z" fill="white"/>
<path d="M65.8925 62.7986L66.0018 62.886L69.5745 61.9245L69.1156 61.5858C65.6849 59.0947 62.7787 56.0355 60.4624 52.4846L60.2329 52.124L58.5285 54.8336L58.6268 54.9866C60.659 57.9256 63.1064 60.5588 65.8925 62.7986Z" fill="white"/>
<path d="M59.8724 64.4047L59.9816 64.5139L63.2812 63.6289L62.9098 63.2902C60.8885 61.4875 59.042 59.4662 57.4359 57.281L57.1955 56.9642L55.5457 59.5754L55.6659 59.7284C56.9443 61.3891 58.3646 62.9624 59.8724 64.4156V64.4047Z" fill="white"/>
<path d="M98.0254 58.5266C98.1675 58.8434 98.5717 59.1275 99.1399 59.3023C99.5769 59.4334 100.047 59.5099 100.495 59.5099C100.593 59.5099 100.691 59.5099 100.79 59.5099C101.38 59.4662 101.828 59.3132 102.101 59.051C102.647 58.5156 102.592 57.4886 102.461 56.7238C102.134 54.8882 101.314 53.1401 100.178 51.7853L99.8937 51.4466L99.7189 51.8509C99.0415 53.4351 98.4952 55.1832 98.0691 57.0734C97.9271 57.7071 97.8615 58.1879 98.0254 58.5375V58.5266Z" fill="white"/>
<path d="M106.023 46.9452C106.777 48.1033 108.044 49.3488 109.312 49.3488C109.454 49.3488 109.596 49.3379 109.738 49.2942C111.213 48.9446 112.153 47.0653 112.076 45.6013C112.011 44.4541 111.388 43.7767 110.284 43.6455C109.356 43.5254 108.361 43.6346 107.323 43.9296C106.591 44.1372 105.892 44.4541 105.226 44.8474L105.029 44.9676L105.116 45.1861C105.379 45.8198 105.684 46.4098 106.023 46.9452Z" fill="white"/>
<path d="M85.2531 38.4011C85.4279 38.423 85.6027 38.4449 85.7666 38.4449C86.4659 38.4449 87.1433 38.2263 87.7224 37.8002C88.4435 37.2758 88.9133 36.5 89.0444 35.626C89.1755 34.7519 88.9679 33.8669 88.4435 33.1567C87.919 32.4356 87.1433 31.9658 86.2692 31.8347C85.3952 31.7036 84.5102 31.9112 83.8 32.4356C83.0789 32.9601 82.6091 33.7358 82.478 34.6099C82.1939 36.4236 83.4394 38.128 85.2531 38.4121V38.4011Z" fill="white"/>
<path d="M56.0156 65.4972C56.2122 65.4972 56.4089 65.4754 56.6055 65.4208L57.4141 65.2022L57.0972 64.8635C56.1904 63.9239 55.3163 62.9297 54.4969 61.9245L54.2565 61.6186L54.0598 61.9463C53.5682 62.7439 53.6228 63.7491 54.1909 64.5139C54.6498 65.1367 55.3163 65.4754 56.0265 65.4754L56.0156 65.4972Z" fill="white"/>
<path d="M71.4319 23.1596C70.6562 23.0394 69.946 23.1596 69.356 23.5311C68.8643 23.837 68.5257 24.3396 68.5038 24.8094C68.471 25.2792 68.7879 25.7599 69.2686 25.9566C69.4106 26.0112 69.5636 26.0549 69.7056 26.0659C69.7603 26.0659 69.8258 26.0659 69.8804 26.0659C70.4486 26.0659 71.0932 25.8364 71.8471 25.3557C72.3715 25.0279 72.8195 24.6564 73.2019 24.2631L73.4204 24.0337L73.1582 23.8479C72.6556 23.4983 72.0328 23.247 71.421 23.1487L71.4319 23.1596Z" fill="white"/>
<path d="M72.4589 61.0723L72.5573 61.1378L76.5671 60.0562L75.9443 59.7284C70.6671 57.0079 66.3951 52.8123 63.5762 47.5898L63.3577 47.1746L61.6096 49.9498L61.697 50.0918C64.341 54.5495 68.0668 58.3299 72.4699 61.0504L72.4589 61.0723Z" fill="white"/>
<path d="M55.3272 67.737C55.95 67.8354 56.5837 67.8026 57.1955 67.6387L87.1324 59.5973C87.2088 59.5754 87.2744 59.5536 87.3509 59.5208L87.4164 59.499C88.2686 59.3241 89.0444 58.9854 89.7218 58.4938C91.8851 56.9205 92.9558 54.3638 92.8247 51.097C92.8029 50.6599 92.7701 50.2011 92.7045 49.7094L92.6718 49.4581L92.9231 49.4035C94.999 48.9555 96.7471 49.1959 98.2767 50.1137L98.4843 50.2448L98.386 50.4633C97.5338 52.3207 96.8454 54.4075 96.3319 56.6692C96.1462 57.5214 96.0151 58.4282 96.4084 59.2804C96.7799 60.078 97.5447 60.6789 98.6263 61.0176C98.9323 61.116 99.2382 61.1815 99.5441 61.2362C100.003 61.3017 100.462 61.3236 100.932 61.3017C101.948 61.2362 102.8 60.8975 103.379 60.3402C103.991 59.7502 104.646 58.5812 104.253 56.4069C103.794 53.894 102.614 51.5886 100.91 49.917L100.757 49.764L100.866 49.5783C101.587 48.3218 102.407 47.2402 103.292 46.377L103.565 46.1039L103.729 46.4535C103.969 46.967 104.242 47.4696 104.548 47.9285C105.695 49.6875 107.269 50.8785 108.755 51.1079C109.235 51.1844 109.716 51.1625 110.186 51.0533C112.633 50.4633 114.021 47.7209 113.89 45.5139C113.78 43.5035 112.48 42.1159 110.525 41.8756C109.356 41.7335 108.11 41.8428 106.843 42.2252C106.154 42.4219 105.488 42.695 104.843 43.0337L104.515 43.2085L104.45 42.848C104.308 42.0941 104.231 41.3293 104.231 40.5645V40.3241C104.264 38.6197 105.051 36.9808 105.739 35.5495C105.958 35.1015 105.772 34.5662 105.324 34.3477C105.105 34.2384 104.865 34.2275 104.636 34.304C104.406 34.3804 104.231 34.5443 104.122 34.7628C103.39 36.2815 102.472 38.1826 102.439 40.2804V40.5645C102.439 41.7772 102.592 42.9791 102.898 44.1263L102.942 44.2902L102.811 44.3994C101.653 45.3718 100.593 46.6174 99.6643 48.1033C99.5987 48.2126 99.5332 48.3109 99.4676 48.4201L99.3256 48.6496L99.0962 48.5076C97.2278 47.415 95.0427 47.12 92.5953 47.6444L92.3331 47.699L92.2675 47.4477C91.9507 46.2022 91.5245 44.902 90.9782 43.5909C90.421 42.2361 89.7218 40.9906 89.1099 39.9417L88.9897 39.7341L89.1864 39.5921C90.3446 38.7071 91.1094 37.4287 91.3388 35.9865C91.5682 34.5006 91.2077 33.0147 90.3227 31.8019C89.4377 30.5892 88.1266 29.7916 86.6516 29.5621C84.6959 29.2562 82.773 29.9773 81.4837 31.496L81.3307 31.6708L81.1341 31.5506C80.0743 30.9169 79.0145 30.4362 77.9984 30.1303L77.8017 30.0757V29.8681C77.8017 29.3983 77.7798 28.9394 77.7361 28.5023C77.5613 26.8853 76.8948 25.2792 75.8569 23.9681L75.7476 23.8261L75.8241 23.6731C76.3376 22.6898 76.6873 21.5426 76.8839 20.2752C77.1134 18.7456 77.1243 17.052 76.9167 15.0745C76.8184 14.113 76.6545 13.086 76.436 11.9278C76.3923 11.6984 76.2611 11.4908 76.0536 11.3488C75.8569 11.2176 75.6165 11.163 75.3762 11.2067C75.1467 11.2504 74.9391 11.3815 74.808 11.5782C74.6769 11.7749 74.6223 12.0152 74.666 12.2556C74.8736 13.3482 75.0265 14.3315 75.1249 15.2493C75.3215 17.063 75.3106 18.6144 75.103 19.9802C74.9828 20.7887 74.7862 21.5316 74.513 22.1872L74.3819 22.504L74.1088 22.3183C72.7321 21.4005 70.4158 20.7668 68.4273 22.0015C67.4331 22.6133 66.7884 23.6185 66.7229 24.6892C66.6464 25.9238 67.3894 27.0929 68.5803 27.6064C68.8971 27.7375 69.2249 27.8249 69.5745 27.8577C70.5906 27.9451 71.6614 27.6283 72.8304 26.8853C73.4314 26.5029 73.9667 26.0768 74.4256 25.607L74.666 25.3666L74.8517 25.6507C75.4417 26.5794 75.8241 27.6501 75.9443 28.6881C75.9662 28.9394 75.988 29.2016 75.9989 29.4529V29.7479L75.7149 29.7369C75.5837 29.7369 75.4417 29.7369 75.2997 29.7369C75.1904 29.7369 75.0702 29.7369 74.961 29.7369C73.4751 29.8025 72.1093 30.3379 71.0167 31.2884C70.4814 31.7473 70.0334 32.2936 69.6619 32.9054L52.1478 60.7226C51.1317 62.3287 51.2082 64.3719 52.3445 65.9124C53.0874 66.9176 54.1472 67.5732 55.3491 67.7589L55.3272 67.737ZM105.226 44.8474C105.892 44.4541 106.591 44.1481 107.323 43.9296C108.361 43.6237 109.356 43.5254 110.284 43.6455C111.388 43.7767 112.011 44.4541 112.076 45.6013C112.163 47.0653 111.224 48.9337 109.738 49.2942C109.596 49.327 109.454 49.3488 109.312 49.3488C108.044 49.3488 106.777 48.1033 106.023 46.9452C105.674 46.4098 105.368 45.8198 105.116 45.1861L105.029 44.9676L105.226 44.8474ZM99.7189 51.8509L99.8937 51.4466L100.178 51.7853C101.325 53.1401 102.134 54.8882 102.461 56.7238C102.603 57.4886 102.647 58.5266 102.101 59.051C101.828 59.3132 101.38 59.4771 100.79 59.5099C100.691 59.5099 100.593 59.5099 100.495 59.5099C100.036 59.5099 99.5769 59.4443 99.1399 59.3023C98.5608 59.1166 98.1675 58.8434 98.0254 58.5266C97.8615 58.1769 97.9271 57.6853 98.0691 57.0625C98.4952 55.1832 99.0415 53.4242 99.7189 51.8399V51.8509ZM73.2128 24.2631C72.8414 24.6674 72.3825 25.0279 71.858 25.3557C71.1041 25.8255 70.4595 26.0659 69.8914 26.0659C69.8367 26.0659 69.7712 26.0659 69.7166 26.0659C69.5636 26.0549 69.4216 26.0112 69.2795 25.9566C68.7988 25.749 68.4819 25.2792 68.5147 24.8094C68.5475 24.3396 68.8753 23.837 69.3669 23.5311C69.946 23.1705 70.6671 23.0394 71.4428 23.1596C72.0547 23.2579 72.6665 23.4983 73.1801 23.8588L73.4423 24.0446L73.2238 24.274L73.2128 24.2631ZM82.478 34.599C82.6091 33.7249 83.0898 32.9492 83.8 32.4247C84.5211 31.9003 85.3952 31.6927 86.2692 31.8238C87.1433 31.9549 87.919 32.4356 88.4435 33.1458C88.9679 33.8669 89.1864 34.741 89.0444 35.6151C88.9023 36.4891 88.4325 37.2649 87.7224 37.7893C87.1433 38.2154 86.4659 38.4339 85.7666 38.4339C85.5918 38.4339 85.417 38.423 85.2531 38.3902C83.4394 38.1061 82.1939 36.4017 82.478 34.588V34.599ZM71.0714 35.4075C71.5521 33.4299 73.1036 32.0969 75.0375 32.0095C75.1795 32.0095 75.3215 32.0095 75.4636 32.0095H75.7804L75.7149 32.3373C75.3871 34.0308 74.808 35.5714 74.4038 36.5875C74.218 37.0463 74.4475 37.5708 74.9063 37.7565C74.9719 37.7784 75.0375 37.8002 75.103 37.8111C75.5073 37.8767 75.9115 37.6473 76.0754 37.2539C76.5124 36.1723 77.1243 34.5334 77.4848 32.7088L77.5504 32.3919L77.8454 32.5012C78.5884 32.7743 79.3641 33.1567 80.1507 33.6375L80.3146 33.7358L80.2709 33.9215C80.2491 34.0199 80.2272 34.1291 80.2163 34.2384C79.9869 35.7243 80.3474 37.2102 81.2324 38.423C82.1174 39.6358 83.4285 40.4334 84.9035 40.6628C85.4935 40.7502 86.0835 40.7502 86.6625 40.6628L86.8483 40.63L86.9466 40.7939C87.7333 42.1159 88.356 43.2413 88.8586 44.4541C89.2192 45.3172 89.7218 46.6611 90.0823 48.147L90.137 48.3764L89.9184 48.4638C87.8425 49.2942 85.8431 50.4851 84.0731 51.534L83.7126 51.7525C83.505 51.8727 83.3629 52.0694 83.2974 52.2988C83.2428 52.5283 83.2755 52.7686 83.3957 52.9762C83.5159 53.1838 83.7126 53.3259 83.942 53.3914C84.1715 53.457 84.4118 53.4133 84.6194 53.2931L84.98 53.0746C86.5424 52.1459 88.3123 51.0861 90.0933 50.3212L90.4429 50.1683L90.4757 50.5398C90.4975 50.7474 90.5084 50.9659 90.5194 51.1735C90.6177 53.7083 89.9184 55.4892 88.367 56.6145C87.6568 57.128 86.8264 57.3247 85.9851 57.3247C84.2152 57.3247 82.4342 56.4834 81.7678 56.1338C79.7793 55.0849 77.8672 53.3914 75.9115 50.9331C72.7321 46.9342 69.793 40.7502 71.0823 35.3965L71.0714 35.4075ZM68.4819 39.0348L68.5693 39.8106C69.203 45.6559 72.6556 50.5398 74.1088 52.3644C76.2611 55.074 78.4245 56.9751 80.697 58.166C80.8172 58.2316 80.9265 58.2862 81.0467 58.3408L81.6913 58.6577L80.1945 59.0619L80.118 59.0291C73.4204 56.5818 67.8592 51.4794 64.8655 45.0113L64.7999 44.8802L68.4929 39.0239L68.4819 39.0348ZM63.3468 47.1855L63.5653 47.6007C66.3842 52.8123 70.6671 57.0188 75.9334 59.7393L76.5561 60.0671L72.5464 61.1488L72.448 61.0832C68.0449 58.3627 64.3192 54.5714 61.6751 50.1246L61.5877 49.9825L63.3359 47.2074L63.3468 47.1855ZM60.2329 52.1349L60.4624 52.4955C62.7787 56.0464 65.6849 59.1056 69.1156 61.5967L69.5745 61.9354L66.0018 62.8969L65.8925 62.8095C63.1064 60.5697 60.659 57.9366 58.6268 54.9975L58.5285 54.8445L60.2329 52.1349ZM57.1955 56.9532L57.4359 57.2701C59.042 59.4552 60.8885 61.4765 62.9098 63.2793L63.2812 63.618L59.9816 64.503L59.8724 64.3937C58.3646 62.9406 56.9443 61.3673 55.6659 59.7065L55.5457 59.5536L57.1955 56.9423V56.9532ZM54.0489 61.9573L54.2456 61.6295L54.4859 61.9354C55.3054 62.9406 56.1685 63.9239 57.0863 64.8745L57.4031 65.2132L56.5946 65.4317C56.398 65.4863 56.2013 65.5082 56.0046 65.5082C55.2944 65.5082 54.628 65.1695 54.1691 64.5467C53.6009 63.7819 53.5572 62.7658 54.038 61.9791L54.0489 61.9573Z" fill="#00DCE9"/>
<path d="M90.2462 24.5362L96.6597 26.3172L96.7143 26.4264L99.7299 32.1843C99.8719 32.4575 100.145 32.6542 100.451 32.6979C100.538 32.7088 100.626 32.7088 100.713 32.6979C101.117 32.6542 101.445 32.3701 101.554 31.9767L102.866 27.1366L107.837 26.4046C108.208 26.3499 108.525 26.0768 108.634 25.7162C108.744 25.3557 108.634 24.9514 108.339 24.7001L104.548 21.3459L105.783 16.4074C105.87 16.0359 105.739 15.6426 105.444 15.4022C105.149 15.1619 104.734 15.1182 104.395 15.2821L99.85 17.5219L95.7419 14.55C95.5671 14.4298 95.3704 14.3643 95.1628 14.3643C94.999 14.3643 94.8351 14.408 94.6821 14.4845C94.3543 14.6702 94.1577 15.0308 94.1795 15.4132L94.5401 20.3844L90.0605 22.7007C89.6999 22.8864 89.4923 23.2689 89.536 23.6731C89.5797 24.0774 89.8529 24.4051 90.2462 24.5144V24.5362Z" fill="#EF6124"/>
<path d="M83.0024 23.1814C83.7672 23.3016 84.532 23.1159 85.1657 22.657C85.7885 22.1981 86.2037 21.5207 86.3239 20.7559C86.5751 19.1717 85.4826 17.6857 83.8983 17.4345C83.7454 17.4126 83.5924 17.4017 83.4503 17.4017C82.8385 17.4017 82.2485 17.5983 81.7459 17.9589C81.1231 18.4178 80.708 19.0952 80.5878 19.86C80.4676 20.6248 80.6533 21.3896 81.1122 22.0233C81.5711 22.6461 82.2485 23.0613 83.0133 23.1814H83.0024Z" fill="#EF6124"/>
<path d="M96.6597 35.7789C96.0479 35.7789 95.4579 35.9756 94.9553 36.3362C94.3325 36.795 93.9173 37.4724 93.7971 38.2373C93.6769 39.0021 93.8627 39.7669 94.3216 40.4006C94.7805 41.0343 95.4579 41.4385 96.2227 41.5587C97.8178 41.7991 99.2928 40.7174 99.5441 39.1332C99.7845 37.5489 98.7028 36.063 97.1186 35.8117C96.9656 35.7899 96.8127 35.7789 96.6706 35.7789H96.6597Z" fill="#EF6124"/>
<path d="M26.931 89.1735C27.3461 88.9769 27.663 88.671 27.8706 88.2449C28.0782 87.8187 28.1984 87.2725 28.2093 86.5841C28.2421 86.158 28.253 85.7865 28.2639 85.4478C28.2639 85.1091 28.2639 84.7814 28.2639 84.4427C28.2639 84.104 28.2421 83.7325 28.2093 83.3282C28.1765 82.334 27.9252 81.6129 27.4335 81.154C26.9419 80.6951 26.2208 80.4657 25.2593 80.4657H23.0741V89.4686H25.3686C25.9913 89.4686 26.5158 89.3702 26.931 89.1735Z" fill="white"/>
<path d="M74.9063 80.3564V84.1149H77.4193C78.1076 84.1149 78.6211 83.951 78.9598 83.6123C79.2985 83.2736 79.4733 82.8256 79.4733 82.2575C79.4733 81.6894 79.3094 81.2305 78.9817 80.8808C78.6539 80.5312 78.1295 80.3564 77.4193 80.3564H74.9063Z" fill="white"/>
<path d="M104.581 86.7808H108.645L106.613 81.0119L104.581 86.7808Z" fill="white"/>
<path d="M120.019 88.9878C120.511 89.4576 121.134 89.6871 121.887 89.6871C122.641 89.6871 123.286 89.4576 123.778 88.9878C124.269 88.518 124.521 87.775 124.553 86.7589C124.586 86.1143 124.597 85.5134 124.597 84.9453C124.597 84.3771 124.586 83.7871 124.553 83.1753C124.521 82.4869 124.4 81.9297 124.171 81.5036C123.942 81.0775 123.636 80.7607 123.242 80.5531C122.849 80.3455 122.401 80.2471 121.887 80.2471C121.374 80.2471 120.948 80.3455 120.555 80.5531C120.161 80.7607 119.844 81.0775 119.615 81.5036C119.385 81.9297 119.254 82.4869 119.222 83.1753C119.211 83.7871 119.2 84.3771 119.2 84.9453C119.2 85.5134 119.2 86.1143 119.222 86.7589C119.265 87.775 119.527 88.518 120.019 88.9878ZM120.598 84.5956C121.068 84.3334 121.549 84.2241 121.887 84.2241C122.248 84.2241 122.729 84.3334 123.199 84.5956C123.199 84.7267 123.199 84.8688 123.199 84.9999C123.199 85.1091 123.199 85.2184 123.199 85.3277C123.155 85.3495 123.111 85.3714 123.078 85.3932C122.565 85.6664 122.117 85.6991 121.898 85.6991C121.538 85.6991 121.123 85.5899 120.74 85.3932C120.697 85.3714 120.653 85.3495 120.609 85.3167C120.609 85.2075 120.609 85.0982 120.609 84.989C120.609 84.8578 120.609 84.7158 120.609 84.5847L120.598 84.5956Z" fill="white"/>
<path d="M14.2898 102.776C13.9729 102.394 13.4485 102.208 12.7164 102.208H10.1598V106.12H12.7164C13.3392 106.12 13.8418 105.956 14.2133 105.639C14.5847 105.322 14.7705 104.83 14.7705 104.175C14.7705 103.618 14.6066 103.159 14.2898 102.776Z" fill="white"/>
<path d="M28.2093 108.632L26.1771 102.864L24.1449 108.632H28.2093Z" fill="white"/>
<path d="M43.5382 102.733C43.2105 102.383 42.686 102.208 41.9758 102.208H39.4629V105.967H41.9758C42.6642 105.967 43.1777 105.803 43.5164 105.464C43.8551 105.125 44.0299 104.677 44.0299 104.109C44.0299 103.541 43.866 103.082 43.5382 102.733Z" fill="white"/>
<path d="M56.9224 102.864L54.8902 108.632H58.9546L56.9224 102.864Z" fill="white"/>
<path d="M91.9397 103.355C91.7103 102.929 91.4044 102.612 91.011 102.405C90.6177 102.197 90.1697 102.099 89.6562 102.099C89.1427 102.099 88.7166 102.197 88.3233 102.405C87.9299 102.612 87.6131 102.929 87.3836 103.355C87.1542 103.781 87.0231 104.339 86.9903 105.027C86.9794 105.639 86.9685 106.229 86.9685 106.797C86.9685 107.365 86.9685 107.966 86.9903 108.611C87.034 109.627 87.2962 110.37 87.7879 110.84C88.2796 111.309 88.9023 111.539 89.6562 111.539C90.4101 111.539 91.0547 111.309 91.5464 110.84C92.0381 110.37 92.2894 109.627 92.3221 108.611C92.3549 107.966 92.3658 107.365 92.3658 106.797C92.3658 106.229 92.3549 105.639 92.3221 105.027C92.2894 104.339 92.1692 103.781 91.9397 103.355ZM90.9673 107.179C90.9673 107.179 90.8799 107.223 90.8362 107.256C90.3227 107.518 89.8747 107.562 89.6562 107.562C89.2957 107.562 88.8696 107.452 88.4981 107.256C88.4544 107.234 88.4107 107.212 88.367 107.179C88.367 107.07 88.367 106.961 88.367 106.852C88.367 106.72 88.367 106.578 88.367 106.447C88.8368 106.185 89.3066 106.076 89.6562 106.076C90.0059 106.076 90.4975 106.185 90.9673 106.447C90.9673 106.578 90.9673 106.72 90.9673 106.852C90.9673 106.961 90.9673 107.07 90.9673 107.179Z" fill="white"/>
<path d="M108.033 108.436C108.066 108.01 108.077 107.638 108.088 107.3C108.099 106.961 108.088 106.633 108.088 106.294C108.088 105.956 108.066 105.584 108.033 105.18C108.001 104.186 107.749 103.465 107.258 103.006C106.766 102.547 106.045 102.317 105.084 102.317H102.898V111.32H105.193C105.816 111.32 106.34 111.222 106.755 111.025C107.17 110.829 107.487 110.523 107.695 110.097C107.902 109.67 108.023 109.124 108.033 108.436Z" fill="white"/>
<path d="M118.544 108.632H122.609L120.576 102.864L118.544 108.632Z" fill="white"/>
<path d="M146.46 105.519C146.766 104.787 146.93 104.011 146.93 103.213C146.93 103.159 146.93 103.093 146.93 103.038C146.886 101.705 146.514 100.394 145.826 99.1379C145.225 98.0563 144.395 97.062 143.357 96.1989C142.319 95.3357 141.095 94.6583 139.697 94.1776C138.364 93.7187 136.878 93.4893 135.272 93.4893C134.015 93.4893 132.846 93.6422 131.743 93.9263C131.939 93.6641 132.147 93.4128 132.333 93.1396C133.425 91.4243 134.015 89.3921 134.092 87.1523C134.124 86.4421 134.135 85.7319 134.135 85.0108C134.135 84.2897 134.113 83.5795 134.092 82.9349C134.015 80.6405 133.425 78.6083 132.322 76.882C131.174 75.0792 129.601 73.7135 127.634 72.8176C125.93 72.0418 123.996 71.6485 121.898 71.6485C119.801 71.6485 117.889 72.0418 116.184 72.8066C116.053 72.8613 115.944 72.9377 115.824 73.0033C115.714 71.867 115.288 70.7635 114.523 69.813C113.759 68.8843 112.732 68.2396 111.595 67.9228C113.387 66.0217 114.611 63.7054 115.179 61.1378C121.341 58.5047 125.46 51.9273 125.056 44.8692C124.75 39.5374 121.866 35.036 117.528 32.5886C118.326 31.496 118.959 30.2614 119.353 28.9284C120.544 24.9405 119.593 20.6139 116.927 17.5109C117.375 13.4247 115.714 9.31655 112.458 6.69434C109.203 4.07214 104.832 3.32918 100.921 4.64029C97.3043 2.69549 92.8684 2.69549 89.2083 4.73862C88.2796 5.25213 87.4492 5.89676 86.7062 6.60694C86.5642 6.57416 86.4112 6.54138 86.2583 6.51953C85.3405 4.76047 84.0076 3.24178 82.3141 2.09456C79.6372 0.280874 76.4141 -0.385603 73.2456 0.215319C67.4986 1.3079 63.4779 6.32287 63.4123 11.9606C63.0955 12.1245 62.7896 12.2993 62.4837 12.485C58.4083 15.0089 55.808 19.3028 55.502 23.9681C55.3272 26.6777 55.95 29.2999 57.1846 31.5943L49.8643 43.2194C49.8643 43.2194 49.8971 43.285 49.908 43.3069C50.2249 43.9843 50.5417 44.6726 50.8148 45.3828C51.0443 45.9946 51.2628 46.6939 51.2628 47.3494C51.2628 47.7646 51.1863 48.2781 51.0771 48.6824C51.0115 48.9118 50.1702 50.2448 50.4652 49.7749C49.3836 51.5122 46.969 51.1188 46.1495 49.6657C46.084 49.5783 46.0403 49.4909 45.9966 49.3925L42.6314 54.7462C42.6314 54.7462 42.5877 54.8118 42.5658 54.8555C39.2881 60.1436 39.4192 66.7209 42.8281 71.8779H41.2984C40.774 71.8779 40.2714 71.9653 39.7797 72.0965C39.2772 71.9653 38.7746 71.8779 38.2392 71.8779H35.3111C33.9344 71.8779 32.6452 72.3587 31.5635 73.2218C31.4652 73.1672 31.3668 73.1126 31.2685 73.0579C29.5532 72.2713 27.5647 71.8779 25.3467 71.8779H19.6653C18.0482 71.8779 16.5405 72.5007 15.4151 73.6261C14.2788 74.7624 13.6561 76.2701 13.6561 77.8872V92.0908C13.6561 92.6698 13.7653 93.238 13.9183 93.7733C13.5468 93.7515 13.1753 93.7296 12.8038 93.7296H6.68536C5.07926 93.7296 3.58242 94.3415 2.41336 95.4996C1.29892 96.625 0.676147 98.1327 0.676147 99.7388V113.942C0.676147 115.472 1.25522 116.925 2.29317 118.051C3.44039 119.274 4.99186 119.952 6.68536 119.952H9.63534C11.2524 119.952 12.7601 119.329 13.9073 118.182C14.0712 118.018 14.2133 117.832 14.3553 117.646C14.5083 117.832 14.6394 118.029 14.8142 118.204C15.131 118.52 15.4697 118.783 15.8303 119.012C15.6883 119.296 15.5571 119.58 15.4588 119.886L10.3674 133.806C10.3018 133.97 10.2581 134.144 10.2144 134.308C10.0833 134.811 10.0177 135.335 10.0177 135.871C10.0177 137.444 10.6405 138.93 11.755 140.055C12.8803 141.181 14.3662 141.792 15.9396 141.792H18.6273C20.3754 141.792 21.9706 141.137 23.1069 139.924C23.1288 139.957 23.1615 139.979 23.1834 140.001C24.3197 141.148 25.8711 141.781 27.5537 141.781H30.2415C31.1483 141.781 32.0115 141.563 32.7981 141.181C34.3059 141.727 35.9776 142 37.9114 142C39.8453 142 41.7136 141.683 43.3306 141.039C44.6527 140.514 45.8108 139.793 46.7832 138.908C46.9908 139.247 47.2312 139.574 47.5043 139.869C48.6515 141.093 50.203 141.771 51.8965 141.771H54.8246C55.5457 141.771 56.2341 141.629 56.8896 141.388C57.5561 141.629 58.2554 141.771 58.9765 141.771H64.7672C66.6573 141.771 68.3618 141.476 69.8804 140.918C70.7873 141.454 71.8034 141.771 72.8741 141.771H75.5619C77.3319 141.771 78.938 141.093 80.0415 139.902C80.0743 139.935 80.107 139.968 80.1398 140.001C81.2761 141.137 82.8276 141.771 84.4992 141.771H87.187C87.6459 141.771 88.0938 141.705 88.5309 141.607C88.9897 141.716 89.4486 141.771 89.9294 141.771H95.7201C97.9052 141.771 99.85 141.399 101.522 140.667C101.642 140.612 101.751 140.536 101.871 140.481C102.92 141.301 104.22 141.771 105.575 141.771H115.955C117.047 141.771 118.085 141.486 118.992 140.951C120.642 141.65 122.51 141.989 124.695 141.989C126.673 141.989 128.498 141.672 130.115 141.028C132.005 140.285 133.545 139.159 134.714 137.695C136.047 136.013 136.758 133.959 136.758 131.73C136.758 130.113 136.43 128.649 135.763 127.348C136.069 126.616 136.233 125.841 136.233 125.043C136.233 124.988 136.233 124.923 136.233 124.868C136.189 123.535 135.818 122.224 135.13 120.968C134.966 120.673 134.78 120.378 134.583 120.094C134.846 120.094 135.097 120.126 135.37 120.126C137.348 120.126 139.172 119.81 140.789 119.165C142.679 118.422 144.22 117.297 145.389 115.833C146.722 114.15 147.432 112.096 147.432 109.867C147.432 108.25 147.104 106.786 146.438 105.486L146.46 105.519ZM116.534 135.772C116.534 135.914 116.479 136.045 116.381 136.155C116.283 136.264 116.151 136.319 115.988 136.319H105.608C105.444 136.319 105.313 136.264 105.215 136.155C105.116 136.045 105.062 135.914 105.062 135.772V121.569C105.062 121.405 105.116 121.274 105.215 121.175C105.313 121.077 105.444 121.022 105.608 121.022H115.813C115.977 121.022 116.108 121.077 116.206 121.175C116.304 121.274 116.359 121.405 116.359 121.569V123.623C116.359 123.787 116.304 123.918 116.206 124.016C116.108 124.114 115.977 124.169 115.813 124.169H108.842V127.119H115.332C115.496 127.119 115.627 127.174 115.725 127.283C115.824 127.392 115.878 127.523 115.878 127.687V129.588C115.878 129.73 115.824 129.861 115.725 129.971C115.627 130.08 115.496 130.135 115.332 130.135H108.842V133.172H115.988C116.151 133.172 116.283 133.227 116.381 133.325C116.479 133.423 116.534 133.554 116.534 133.718V135.772ZM34.7866 77.8653C34.7866 77.7014 34.8413 77.5703 34.9396 77.472C35.0379 77.3736 35.169 77.319 35.3329 77.319H38.2611C38.4249 77.319 38.5561 77.3736 38.6653 77.472C38.7746 77.5703 38.8292 77.7014 38.8292 77.8653V92.0689C38.8292 92.2109 38.7746 92.342 38.6653 92.4513C38.5561 92.5606 38.4249 92.6152 38.2611 92.6152H35.3329C35.169 92.6152 35.0379 92.5606 34.9396 92.4513C34.8413 92.342 34.7866 92.2109 34.7866 92.0689V77.8653ZM44.5762 77.5157C44.7073 77.6468 44.7838 77.767 44.8166 77.8872L47.9195 87.9826L51.0006 77.8872C51.0443 77.767 51.1317 77.6468 51.2519 77.5157C51.3721 77.3846 51.5578 77.319 51.7872 77.319H54.5187C54.6389 77.319 54.7372 77.3627 54.8356 77.4611C54.9339 77.5594 54.9776 77.6577 54.9776 77.7779C54.9776 77.8325 54.9667 77.8981 54.9339 77.9746L50.4762 91.9596C50.4324 92.1345 50.3341 92.2874 50.1921 92.4185C50.05 92.5496 49.8425 92.6152 49.5802 92.6152H46.2369C45.9856 92.6152 45.789 92.5496 45.6469 92.4185C45.5049 92.2874 45.3956 92.1345 45.341 91.9596L40.8833 77.9746C40.8505 77.8981 40.8396 77.8325 40.8396 77.7779C40.8396 77.6577 40.8833 77.5594 40.9816 77.4611C41.0799 77.3627 41.1892 77.319 41.3203 77.319H44.0299C44.2593 77.319 44.4451 77.3846 44.5762 77.5157ZM114.196 91.9596C114.228 92.0143 114.239 92.0798 114.239 92.1563C114.239 92.2765 114.196 92.3748 114.097 92.4732C113.999 92.5715 113.89 92.6152 113.759 92.6152H111.071C110.852 92.6152 110.688 92.5606 110.579 92.4513C110.47 92.342 110.404 92.2437 110.372 92.1563L109.519 89.9274H103.685L102.855 92.1563C102.822 92.2437 102.756 92.342 102.658 92.4513C102.56 92.5606 102.385 92.6152 102.134 92.6152H99.4458C99.3256 92.6152 99.2273 92.5715 99.1289 92.4732C99.0306 92.3748 98.9869 92.2765 98.9869 92.1563C98.9869 92.0798 98.9869 92.0143 99.0088 91.9596L104.144 77.9309C104.188 77.767 104.275 77.6249 104.417 77.5047C104.559 77.3846 104.745 77.319 104.996 77.319H108.23C108.481 77.319 108.667 77.3846 108.809 77.5047C108.951 77.6249 109.039 77.767 109.082 77.9309L114.196 91.9596ZM128.203 114.008C128.203 114.128 128.159 114.227 128.061 114.325C127.962 114.423 127.853 114.467 127.722 114.467H125.034C124.816 114.467 124.652 114.412 124.542 114.303C124.433 114.194 124.368 114.095 124.335 114.008L123.483 111.779H117.648L116.818 114.008C116.785 114.095 116.72 114.194 116.621 114.303C116.523 114.412 116.348 114.467 116.097 114.467H113.409C113.289 114.467 113.19 114.423 113.092 114.325C112.994 114.227 112.95 114.128 112.95 114.008C112.95 113.932 112.95 113.866 112.972 113.811L118.107 99.7825C118.151 99.6187 118.238 99.4766 118.38 99.3564C118.522 99.2363 118.708 99.1707 118.959 99.1707H122.193C122.445 99.1707 122.63 99.2363 122.772 99.3564C122.914 99.4766 123.002 99.6187 123.046 99.7825L128.159 113.811C128.192 113.866 128.203 113.932 128.203 114.008ZM44.1829 113.877L41.6918 109.07H39.4629V113.921C39.4629 114.063 39.4083 114.194 39.299 114.303C39.1898 114.412 39.0586 114.467 38.8948 114.467H36.0759C35.912 114.467 35.7809 114.412 35.6826 114.303C35.5842 114.194 35.5296 114.063 35.5296 113.921V99.717C35.5296 99.5531 35.5842 99.422 35.6826 99.3237C35.7809 99.2253 35.912 99.1707 36.0759 99.1707H42.0195C43.9097 99.1707 45.3956 99.6077 46.4773 100.471C47.5589 101.334 48.0943 102.569 48.0943 104.153C48.0943 105.191 47.843 106.065 47.3514 106.775C46.8597 107.485 46.2041 108.032 45.3847 108.392L48.3784 113.768C48.4221 113.855 48.4439 113.932 48.4439 114.008C48.4439 114.128 48.4002 114.227 48.3019 114.325C48.2036 114.423 48.1052 114.467 47.9851 114.467H45.0788C44.8056 114.467 44.598 114.401 44.4669 114.259C44.3358 114.117 44.2375 113.997 44.1829 113.877ZM57.1628 77.472C57.2611 77.3736 57.3922 77.319 57.5561 77.319H67.7608C67.9247 77.319 68.0558 77.3736 68.1542 77.472C68.2525 77.5703 68.3071 77.7014 68.3071 77.8653V79.9194C68.3071 80.0833 68.2525 80.2144 68.1542 80.3127C68.0558 80.411 67.9247 80.4657 67.7608 80.4657H60.7901V83.4156H67.2801C67.444 83.4156 67.5751 83.4703 67.6734 83.5795C67.7718 83.6888 67.8264 83.8199 67.8264 83.9838V85.8849C67.8264 86.0269 67.7718 86.158 67.6734 86.2673C67.5751 86.3765 67.444 86.4312 67.2801 86.4312H60.7901V89.4686H67.9357C68.0995 89.4686 68.2307 89.5232 68.329 89.6215C68.4273 89.7198 68.4819 89.851 68.4819 90.0148V92.0689C68.4819 92.2109 68.4273 92.342 68.329 92.4513C68.2307 92.5606 68.0995 92.6152 67.9357 92.6152H57.5561C57.3922 92.6152 57.2611 92.5606 57.1628 92.4513C57.0644 92.342 57.0098 92.2109 57.0098 92.0689V77.8653C57.0098 77.7014 57.0644 77.5703 57.1628 77.472ZM112.032 105.136C112.043 105.781 112.054 106.338 112.054 106.819C112.054 107.3 112.054 107.857 112.032 108.48C111.978 109.834 111.683 110.96 111.169 111.845C110.656 112.73 109.902 113.396 108.918 113.822C107.935 114.248 106.733 114.467 105.302 114.467H99.5113C99.3475 114.467 99.2163 114.412 99.118 114.303C99.0197 114.194 98.965 114.063 98.965 113.921V99.717C98.965 99.5531 99.0197 99.422 99.118 99.3237C99.2163 99.2253 99.3475 99.1707 99.5113 99.1707H105.193C106.624 99.1707 107.837 99.4001 108.842 99.859C109.847 100.318 110.623 100.984 111.158 101.869C111.694 102.754 111.989 103.836 112.032 105.136ZM93.1525 114.03C92.1582 114.467 91.0001 114.685 89.6562 114.685C88.3123 114.685 87.1542 114.467 86.16 114.03C85.1657 113.593 84.4009 112.937 83.8437 112.052C83.2865 111.167 82.9805 110.064 82.9259 108.742C82.915 108.119 82.9041 107.485 82.9041 106.852C82.9041 106.218 82.9041 105.584 82.9259 104.961C82.9805 103.65 83.2974 102.547 83.8546 101.651C84.4118 100.755 85.1985 100.078 86.1927 99.6296C87.187 99.1816 88.3451 98.9522 89.6562 98.9522C90.9673 98.9522 92.1364 99.1816 93.1306 99.6296C94.1249 100.078 94.9006 100.755 95.4688 101.651C96.0369 102.547 96.3428 103.65 96.3866 104.961C96.4193 105.584 96.4303 106.218 96.4303 106.852C96.4303 107.485 96.4193 108.119 96.3866 108.742C96.3428 110.064 96.0369 111.167 95.4797 112.052C94.9225 112.937 94.1468 113.593 93.1525 114.03ZM77.2226 102.601V113.921C77.2226 114.063 77.168 114.194 77.0697 114.303C76.9713 114.412 76.8402 114.467 76.6763 114.467H73.7919C73.628 114.467 73.4969 114.412 73.3986 114.303C73.3002 114.194 73.2456 114.063 73.2456 113.921V102.601H69.356C69.1921 102.601 69.061 102.547 68.9627 102.438C68.8643 102.328 68.8097 102.197 68.8097 102.055V99.717C68.8097 99.5531 68.8643 99.422 68.9627 99.3237C69.061 99.2253 69.1921 99.1707 69.356 99.1707H81.1122C81.2761 99.1707 81.4072 99.2253 81.5055 99.3237C81.6039 99.422 81.6585 99.5531 81.6585 99.717V102.055C81.6585 102.197 81.6039 102.328 81.5055 102.438C81.4072 102.547 81.2761 102.601 81.1122 102.601H77.2226ZM53.1639 114.008C53.1311 114.095 53.0656 114.194 52.9672 114.303C52.8689 114.412 52.6941 114.467 52.4428 114.467H49.755C49.6349 114.467 49.5365 114.423 49.4382 114.325C49.3399 114.227 49.2962 114.128 49.2962 114.008C49.2962 113.932 49.2962 113.866 49.318 113.811L54.4532 99.7825C54.4969 99.6187 54.5843 99.4766 54.7263 99.3564C54.8683 99.2363 55.0541 99.1707 55.3054 99.1707H58.5394C58.7907 99.1707 58.9765 99.2363 59.1185 99.3564C59.2605 99.4766 59.3479 99.6187 59.3916 99.7825L64.5049 113.811C64.5377 113.866 64.5486 113.932 64.5486 114.008C64.5486 114.128 64.5049 114.227 64.4066 114.325C64.3083 114.423 64.199 114.467 64.0679 114.467H61.3801C61.1616 114.467 60.9977 114.412 60.8885 114.303C60.7792 114.194 60.7137 114.095 60.6809 114.008L59.8287 111.779H53.9943L53.1639 114.008ZM81.9207 78.6192C83.0024 79.4823 83.5378 80.7169 83.5378 82.3012C83.5378 83.3391 83.2865 84.2132 82.7948 84.9234C82.3031 85.6336 81.6476 86.1799 80.8281 86.5404L83.8218 91.9159C83.8655 92.0033 83.8874 92.0798 83.8874 92.1563C83.8874 92.2765 83.8437 92.3748 83.7453 92.4732C83.647 92.5715 83.5487 92.6152 83.4285 92.6152H80.5222C80.2491 92.6152 80.0415 92.5496 79.9104 92.4076C79.7793 92.2656 79.6809 92.1454 79.6263 92.0252L77.1352 87.2178H74.9063V92.0689C74.9063 92.2109 74.8517 92.342 74.7424 92.4513C74.6332 92.5606 74.5021 92.6152 74.3382 92.6152H71.5193C71.3554 92.6152 71.2243 92.5606 71.126 92.4513C71.0277 92.342 70.973 92.2109 70.973 92.0689V77.8653C70.973 77.7014 71.0277 77.5703 71.126 77.472C71.2243 77.3736 71.3554 77.319 71.5193 77.319H77.463C79.3532 77.319 80.8391 77.756 81.9207 78.6192ZM97.5228 90.6048C96.9547 91.315 96.179 91.8722 95.1956 92.2546C94.2123 92.637 93.076 92.8337 91.7758 92.8337C90.3227 92.8337 89.1099 92.6261 88.1485 92.2109C87.187 91.7958 86.455 91.2495 85.9633 90.583C85.4716 89.9165 85.2094 89.1954 85.1766 88.4415C85.1766 88.3213 85.2203 88.223 85.3187 88.1247C85.417 88.0263 85.5263 87.9826 85.6574 87.9826H88.4107C88.6183 87.9826 88.7712 88.0154 88.8805 88.0919C88.9897 88.1684 89.0881 88.2558 89.1755 88.376C89.2957 88.5945 89.4596 88.8021 89.6672 89.0097C89.8747 89.2173 90.1588 89.3811 90.5084 89.5013C90.8581 89.6215 91.2842 89.6871 91.7758 89.6871C92.6171 89.6871 93.2618 89.556 93.6879 89.2937C94.114 89.0315 94.3325 88.671 94.3325 88.223C94.3325 87.8843 94.2123 87.6221 93.9829 87.4145C93.7534 87.2069 93.371 87.0212 92.8575 86.8573C92.344 86.6934 91.6557 86.5186 90.7925 86.3438C89.689 86.1143 88.7385 85.8084 87.9627 85.4369C87.187 85.0654 86.5861 84.5738 86.1818 83.9729C85.7775 83.3719 85.57 82.618 85.57 81.7112C85.57 80.8044 85.8213 80.0286 86.3238 79.3294C86.8264 78.6301 87.5257 78.0838 88.4325 77.6905C89.3394 77.2972 90.4101 77.1005 91.6447 77.1005C92.6499 77.1005 93.5349 77.2316 94.2997 77.4938C95.0645 77.756 95.7091 78.1057 96.2336 78.5427C96.758 78.9797 97.1514 79.4386 97.4245 79.9303C97.6976 80.4219 97.8397 80.8918 97.8506 81.3616C97.8506 81.4818 97.8069 81.5801 97.7304 81.6784C97.6539 81.7767 97.5338 81.8205 97.3917 81.8205H94.5073C94.3434 81.8205 94.2123 81.7877 94.0921 81.733C93.9719 81.6784 93.8736 81.5801 93.7862 81.449C93.6988 81.1321 93.4693 80.8481 93.0979 80.6077C92.7264 80.3673 92.2457 80.2471 91.6447 80.2471C91.0001 80.2471 90.5084 80.3564 90.1479 80.5858C89.7873 80.8153 89.6125 81.154 89.6125 81.6238C89.6125 81.9188 89.7109 82.1701 89.9075 82.3886C90.1042 82.6071 90.432 82.7929 90.8908 82.9567C91.3497 83.1206 91.9834 83.2845 92.781 83.4593C94.103 83.7106 95.1738 84.0166 95.9932 84.388C96.8127 84.7595 97.4136 85.2402 97.796 85.8302C98.1784 86.4202 98.3751 87.1632 98.3751 88.0482C98.3751 89.0424 98.091 89.8947 97.5228 90.6048ZM110.262 74.38C110.175 74.6968 110.033 75.0027 109.847 75.2977C109.661 75.5927 109.399 75.844 109.082 76.0407C108.766 76.2374 108.372 76.3357 107.924 76.3357C107.531 76.3357 107.203 76.2701 106.941 76.139C106.679 76.0079 106.438 75.8768 106.231 75.7566C106.023 75.6364 105.783 75.5709 105.521 75.5709C105.335 75.5709 105.193 75.6255 105.094 75.7238C104.996 75.8222 104.92 75.9314 104.843 76.0516C104.767 76.1718 104.657 76.2264 104.494 76.2264H103.182C103.084 76.2264 102.997 76.1827 102.92 76.1062C102.844 76.0298 102.811 75.9424 102.811 75.8549C102.811 75.6255 102.855 75.3414 102.931 75.0246C103.008 74.7077 103.15 74.3909 103.346 74.0959C103.543 73.8009 103.794 73.5496 104.111 73.3529C104.428 73.1563 104.81 73.0579 105.258 73.0579C105.663 73.0579 106.001 73.1235 106.264 73.2546C106.526 73.3857 106.766 73.5168 106.985 73.6479C107.203 73.779 107.433 73.8446 107.684 73.8446C107.891 73.8446 108.033 73.79 108.11 73.6698C108.186 73.5496 108.263 73.4403 108.339 73.3311C108.416 73.2218 108.525 73.1672 108.689 73.1672H110C110.131 73.1672 110.23 73.2109 110.295 73.2874C110.361 73.3638 110.393 73.4622 110.393 73.5605C110.393 73.79 110.35 74.0631 110.262 74.38ZM105.641 71.8561C105.739 71.7578 105.848 71.6594 105.958 71.572C106.1 71.6594 106.231 71.7578 106.362 71.8561H105.641ZM97.8397 73.0907C97.7741 73.0579 97.6976 73.0251 97.6321 72.9814C97.7195 72.9705 97.8069 72.9596 97.8943 72.9487C97.8725 72.9924 97.8615 73.047 97.8506 73.0907H97.8397ZM23.7078 99.7825C23.7515 99.6187 23.8389 99.4766 23.981 99.3564C24.123 99.2363 24.3088 99.1707 24.56 99.1707H27.7941C28.0454 99.1707 28.2311 99.2363 28.3732 99.3564C28.5152 99.4766 28.6026 99.6187 28.6463 99.7825L33.7596 113.811C33.7924 113.866 33.8033 113.932 33.8033 114.008C33.8033 114.128 33.7596 114.227 33.6613 114.325C33.5629 114.423 33.4537 114.467 33.3226 114.467H30.6348C30.4163 114.467 30.2524 114.412 30.1432 114.303C30.0339 114.194 29.9683 114.095 29.9356 114.008L29.0833 111.779H23.2489L22.4186 114.008C22.3858 114.095 22.3202 114.194 22.2219 114.303C22.1236 114.412 21.9488 114.467 21.6975 114.467H19.0097C18.8895 114.467 18.7912 114.423 18.6929 114.325C18.5945 114.227 18.5508 114.128 18.5508 114.008C18.5508 113.932 18.5508 113.866 18.5727 113.811L23.7078 99.7825ZM118.424 77.7779C119.418 77.3299 120.576 77.1005 121.887 77.1005C123.199 77.1005 124.368 77.3299 125.362 77.7779C126.356 78.2259 127.132 78.9033 127.7 79.7992C128.268 80.6951 128.574 81.7986 128.618 83.1097C128.651 83.7325 128.661 84.3662 128.661 84.9999C128.661 85.6336 128.651 86.2673 128.618 86.8901C128.574 88.2121 128.268 89.3156 127.711 90.2006C127.154 91.0856 126.378 91.7411 125.384 92.1782C124.389 92.6152 123.231 92.8337 121.887 92.8337C120.544 92.8337 119.385 92.6152 118.391 92.1782C117.397 91.7411 116.632 91.0856 116.075 90.2006C115.518 89.3156 115.212 88.2121 115.157 86.8901C115.146 86.2673 115.135 85.6336 115.135 84.9999C115.135 84.3662 115.135 83.7325 115.157 83.1097C115.212 81.7986 115.529 80.6951 116.086 79.7992C116.643 78.9033 117.43 78.2259 118.424 77.7779ZM90.0605 22.7226L94.5401 20.4063L94.1795 15.435C94.1577 15.0526 94.3543 14.6921 94.6821 14.5063C94.8351 14.4189 94.999 14.3861 95.1628 14.3861C95.3704 14.3861 95.5671 14.4517 95.7419 14.5719L99.85 17.5437L104.395 15.3039C104.734 15.1291 105.149 15.1837 105.444 15.4241C105.739 15.6645 105.87 16.0578 105.783 16.4293L104.548 21.3678L108.339 24.722C108.623 24.9733 108.744 25.3666 108.634 25.7381C108.525 26.0986 108.208 26.3718 107.837 26.4264L102.866 27.1585L101.554 31.9986C101.445 32.3919 101.117 32.676 100.713 32.7197C100.626 32.7197 100.538 32.7197 100.451 32.7197C100.145 32.676 99.8719 32.4793 99.7299 32.2062L96.7143 26.4483L96.6597 26.339L90.2462 24.5581C89.8529 24.4488 89.5688 24.1211 89.536 23.7168C89.4923 23.3126 89.6999 22.9301 90.0605 22.7444V22.7226ZM99.5332 39.1332C99.2819 40.7174 97.8069 41.7991 96.2117 41.5587C95.4469 41.4385 94.7695 41.0343 94.3106 40.4006C93.8518 39.7669 93.666 39.0021 93.7862 38.2373C93.9064 37.4724 94.3106 36.795 94.9443 36.3362C95.4469 35.9647 96.0369 35.7789 96.6488 35.7789C96.8017 35.7789 96.9438 35.7899 97.0967 35.8117C98.681 36.063 99.7626 37.5489 99.5223 39.1332H99.5332ZM80.5769 19.86C80.697 19.0952 81.1013 18.4178 81.735 17.9589C82.2376 17.5874 82.8276 17.4017 83.4394 17.4017C83.5924 17.4017 83.7344 17.4126 83.8874 17.4345C85.4716 17.6857 86.5533 19.1717 86.3129 20.7559C86.1927 21.5207 85.7775 22.1981 85.1548 22.657C84.532 23.1159 83.7672 23.3016 82.9915 23.1814C82.2266 23.0613 81.5492 22.657 81.0904 22.0233C80.6315 21.4005 80.4457 20.6248 80.5659 19.86H80.5769ZM52.1259 60.7008L69.6401 32.8836C70.0006 32.2717 70.4595 31.7255 70.9949 31.2666C72.0984 30.316 73.4641 29.7807 74.9391 29.7151C75.0484 29.7151 75.1686 29.7151 75.2778 29.7151C75.4089 29.7151 75.551 29.7151 75.693 29.7151H75.988V29.431C75.988 29.1797 75.9661 28.9284 75.9334 28.6662C75.8241 27.6392 75.4308 26.5575 74.8408 25.6288L74.655 25.3448L74.4147 25.5851C73.9558 26.0549 73.4204 26.492 72.8195 26.8635C71.6395 27.6064 70.5688 27.9233 69.5636 27.8359C69.2249 27.8031 68.8862 27.7266 68.5693 27.5846C67.3784 27.082 66.6355 25.902 66.712 24.6674C66.7775 23.6076 67.4221 22.6024 68.4164 21.9796C70.4158 20.745 72.7212 21.3787 74.0978 22.2964L74.371 22.4822L74.5021 22.1653C74.7643 21.5098 74.961 20.7668 75.0921 19.9583C75.2997 18.5926 75.3106 17.0411 75.1139 15.2274C75.0156 14.3097 74.8626 13.3263 74.655 12.2337C74.6113 11.9934 74.655 11.7639 74.7971 11.5563C74.9282 11.3597 75.1358 11.2286 75.3652 11.1849C75.6056 11.1412 75.846 11.1849 76.0426 11.3269C76.2393 11.458 76.3704 11.6656 76.425 11.906C76.6435 13.0532 76.7965 14.0802 76.9058 15.0526C77.1134 17.0193 77.1134 18.7237 76.873 20.2533C76.6763 21.5207 76.3267 22.6679 75.8132 23.6513L75.7367 23.8042L75.846 23.9463C76.8839 25.2574 77.5504 26.8635 77.7252 28.4805C77.7689 28.9175 77.7908 29.3764 77.7908 29.8462V30.0538L77.9874 30.1084C79.0145 30.4144 80.0633 30.8951 81.1231 31.5288L81.3198 31.649L81.4728 31.4742C82.7511 29.9664 84.685 29.2344 86.6407 29.5403C88.1266 29.7697 89.4268 30.5673 90.3118 31.7801C91.1968 32.9929 91.5573 34.4788 91.3279 35.9647C91.0984 37.4069 90.3446 38.6852 89.1755 39.5702L88.9788 39.7122L89.099 39.9198C89.7109 40.9578 90.4101 42.2143 90.9673 43.5691C91.5136 44.8802 91.9397 46.1694 92.2566 47.4259L92.3221 47.6772L92.5844 47.6226C95.0208 47.109 97.206 47.3931 99.0852 48.4857L99.3147 48.6277L99.4567 48.3983C99.5223 48.289 99.5878 48.1907 99.6534 48.0814C100.582 46.5955 101.631 45.3391 102.8 44.3776L102.931 44.2683L102.887 44.1044C102.592 42.9463 102.439 41.7554 102.429 40.5426V40.2585C102.472 38.1499 103.379 36.2597 104.122 34.741C104.22 34.5225 104.406 34.3586 104.636 34.2821C104.865 34.2056 105.105 34.2165 105.324 34.3258C105.772 34.5443 105.958 35.0797 105.739 35.5276C105.051 36.9589 104.264 38.5978 104.231 40.3022V40.5426C104.231 41.3074 104.308 42.0722 104.45 42.8261L104.515 43.1867L104.843 43.0119C105.477 42.6732 106.154 42.4109 106.843 42.2033C108.11 41.8319 109.356 41.7117 110.525 41.8537C112.491 42.0941 113.78 43.4926 113.89 45.492C114.021 47.699 112.633 50.4414 110.186 51.0314C109.716 51.1407 109.235 51.1625 108.755 51.0861C107.258 50.8566 105.684 49.6657 104.548 47.9066C104.253 47.4477 103.98 46.9561 103.729 46.4316L103.565 46.082L103.292 46.3552C102.407 47.2183 101.587 48.3 100.866 49.5564L100.757 49.7422L100.91 49.8951C102.614 51.5668 103.805 53.8721 104.253 56.3851C104.646 58.5593 103.991 59.7284 103.379 60.3184C102.8 60.8865 101.959 61.2143 100.932 61.2799C100.462 61.3126 99.9921 61.2799 99.5441 61.2143C99.2382 61.1706 98.9323 61.0941 98.6263 60.9958C97.5447 60.6571 96.7799 60.0562 96.4084 59.2586C96.0151 58.4064 96.1352 57.4995 96.3319 56.6473C96.8454 54.3857 97.5338 52.2879 98.386 50.4414L98.4843 50.2229L98.2767 50.0918C96.7471 49.174 94.999 48.9337 92.9231 49.3816L92.6718 49.4362L92.7045 49.6875C92.7701 50.1792 92.8029 50.6381 92.8247 51.0751C92.9558 54.342 91.8851 56.8986 89.7218 58.4719C89.0444 58.9636 88.2796 59.3023 87.4164 59.4771L87.3509 59.499C87.2853 59.5317 87.2088 59.5645 87.1324 59.5754L57.1955 67.6169C56.5837 67.7807 55.9609 67.8135 55.3272 67.7152C54.1254 67.5294 53.0656 66.8739 52.3226 65.8687C51.1863 64.3172 51.0989 62.285 52.1259 60.6789V60.7008ZM19.1408 77.8653C19.1408 77.7014 19.1955 77.5703 19.2938 77.472C19.3921 77.3736 19.5232 77.319 19.6871 77.319H25.3686C26.7998 77.319 28.0126 77.5485 29.0178 78.0073C30.023 78.4662 30.7987 79.1327 31.3341 80.0177C31.8694 80.9027 32.1644 81.9843 32.2081 83.2845C32.2191 83.9291 32.23 84.4864 32.23 84.9671C32.23 85.4478 32.23 86.0051 32.2081 86.6278C32.1535 87.9826 31.8585 89.108 31.345 89.993C30.8315 90.878 30.0776 91.5445 29.0943 91.9706C28.1109 92.3967 26.9091 92.6152 25.4778 92.6152H19.6871C19.5232 92.6152 19.3921 92.5606 19.2938 92.4513C19.1955 92.342 19.1408 92.2109 19.1408 92.0689V77.8653ZM10.2253 109.135V113.921C10.2253 114.063 10.1707 114.194 10.0614 114.303C9.95219 114.412 9.82108 114.467 9.65719 114.467H6.70721C6.54333 114.467 6.41222 114.412 6.31388 114.303C6.21555 114.194 6.16092 114.063 6.16092 113.921V99.717C6.16092 99.5531 6.21555 99.422 6.31388 99.3237C6.41222 99.2253 6.54333 99.1707 6.70721 99.1707H12.8257C14.0385 99.1707 15.0873 99.3564 15.9833 99.7279C16.8792 100.099 17.5784 100.657 18.081 101.4C18.5836 102.143 18.8349 103.082 18.8349 104.218C18.8349 105.355 18.5836 106.262 18.081 106.994C17.5784 107.726 16.8792 108.261 15.9833 108.611C15.0873 108.96 14.0385 109.135 12.8257 109.135H10.2253ZM20.1897 133.631L19.3593 135.86C19.3266 135.947 19.261 136.045 19.1627 136.155C19.0643 136.264 18.8895 136.319 18.6382 136.319H15.9505C15.8303 136.319 15.732 136.275 15.6336 136.177C15.5353 136.078 15.4916 135.98 15.4916 135.86C15.4916 135.783 15.4916 135.718 15.5134 135.663L20.6486 121.634C20.6923 121.47 20.7797 121.328 20.9217 121.208C21.0638 121.088 21.2495 121.022 21.5008 121.022H24.7349C24.9862 121.022 25.1719 121.088 25.3139 121.208C25.456 121.328 25.5434 121.47 25.5871 121.634L30.7004 135.663C30.7331 135.718 30.7441 135.783 30.7441 135.86C30.7441 135.98 30.7004 136.078 30.602 136.177C30.5037 136.275 30.3944 136.319 30.2633 136.319H27.5756C27.3571 136.319 27.1932 136.264 27.0839 136.155C26.9747 136.045 26.9091 135.947 26.8763 135.86L26.0241 133.631H20.1897ZM43.6803 134.308C43.1121 135.018 42.3364 135.576 41.3531 135.958C40.3697 136.34 39.2335 136.537 37.9333 136.537C36.4801 136.537 35.2674 136.329 34.3059 135.914C33.3444 135.499 32.6124 134.953 32.1207 134.286C31.6291 133.62 31.3668 132.899 31.3341 132.145C31.3341 132.025 31.3778 131.926 31.4761 131.828C31.5744 131.73 31.6837 131.686 31.8148 131.686H34.5681C34.7757 131.686 34.9287 131.719 35.0379 131.795C35.1472 131.872 35.2455 131.959 35.3329 132.079C35.4531 132.298 35.617 132.505 35.8246 132.713C36.0322 132.921 36.3163 133.085 36.6659 133.205C37.0155 133.325 37.4416 133.39 37.9333 133.39C38.7746 133.39 39.4192 133.259 39.8453 132.997C40.2714 132.735 40.4899 132.374 40.4899 131.926C40.4899 131.588 40.3697 131.325 40.1403 131.118C39.9109 130.91 39.5285 130.725 39.0149 130.561C38.5014 130.397 37.8131 130.222 36.95 130.047C35.8464 129.818 34.8959 129.512 34.1202 129.14C33.3444 128.769 32.7435 128.277 32.3392 127.676C31.935 127.075 31.7274 126.321 31.7274 125.415C31.7274 124.508 31.9787 123.732 32.4813 123.033C32.9839 122.333 33.6831 121.787 34.59 121.394C35.4968 121.001 36.5675 120.804 37.8022 120.804C38.8073 120.804 39.6923 120.935 40.4571 121.197C41.222 121.459 41.8666 121.809 42.391 122.246C42.9155 122.683 43.3088 123.142 43.5819 123.634C43.8551 124.125 43.9971 124.595 44.008 125.065C44.008 125.185 43.9643 125.283 43.8879 125.382C43.8114 125.48 43.6912 125.524 43.5492 125.524H40.6647C40.5009 125.524 40.3697 125.491 40.2496 125.436C40.1294 125.382 40.031 125.283 39.9436 125.152C39.8562 124.836 39.6268 124.551 39.2553 124.311C38.8838 124.071 38.4031 123.951 37.8022 123.951C37.1575 123.951 36.6659 124.06 36.3053 124.289C35.9448 124.519 35.77 124.857 35.77 125.327C35.77 125.622 35.8683 125.873 36.065 126.092C36.2616 126.31 36.5894 126.496 37.0483 126.66C37.5072 126.824 38.1409 126.988 38.9385 127.163C40.2605 127.414 41.3312 127.72 42.1507 128.091C42.9701 128.463 43.571 128.944 43.9534 129.534C44.3358 130.124 44.5325 130.867 44.5325 131.752C44.5325 132.746 44.2484 133.598 43.6803 134.308ZM51.525 136.155C51.4267 136.045 51.3721 135.914 51.3721 135.772V121.569C51.3721 121.405 51.4267 121.274 51.525 121.175C51.6234 121.077 51.7545 121.022 51.9184 121.022H54.8465C55.0104 121.022 55.1415 121.077 55.2507 121.175C55.36 121.274 55.4146 121.405 55.4146 121.569V135.772C55.4146 135.914 55.36 136.045 55.2507 136.155C55.1415 136.264 55.0104 136.319 54.8465 136.319H51.9184C51.7545 136.319 51.6234 136.264 51.525 136.155ZM58.9983 136.319C58.8344 136.319 58.7033 136.264 58.605 136.155C58.5066 136.045 58.452 135.914 58.452 135.772V121.569C58.452 121.405 58.5066 121.274 58.605 121.175C58.7033 121.077 58.8344 121.022 58.9983 121.022H64.6797C66.111 121.022 67.3238 121.252 68.329 121.711C69.3342 122.17 70.1099 122.836 70.6452 123.721C71.1806 124.606 71.4756 125.688 71.5193 126.988C71.5303 127.633 71.5412 128.19 71.5412 128.67C71.5412 129.151 71.5412 129.708 71.5193 130.331C71.4647 131.686 71.1697 132.811 70.6562 133.696C70.1427 134.581 69.3888 135.248 68.4055 135.674C67.4221 136.1 66.2203 136.319 64.789 136.319H58.9983ZM82.9696 133.631H77.1352L76.3048 135.86C76.2721 135.947 76.2065 136.045 76.1082 136.155C76.0098 136.264 75.835 136.319 75.5837 136.319H72.896C72.7758 136.319 72.6775 136.275 72.5791 136.177C72.4808 136.078 72.4371 135.98 72.4371 135.86C72.4371 135.783 72.4371 135.718 72.4589 135.663L77.5941 121.634C77.6378 121.47 77.7252 121.328 77.8672 121.208C78.0093 121.088 78.195 121.022 78.4463 121.022H81.6804C81.9317 121.022 82.1174 121.088 82.2594 121.208C82.4015 121.328 82.4889 121.47 82.5326 121.634L87.6459 135.663C87.6786 135.718 87.6896 135.783 87.6896 135.86C87.6896 135.98 87.6459 136.078 87.5475 136.177C87.4492 136.275 87.3399 136.319 87.2088 136.319H84.5211C84.3026 136.319 84.1387 136.264 84.0294 136.155C83.9202 136.045 83.8546 135.947 83.8218 135.86L82.9696 133.631ZM95.7528 136.319H89.9621C89.7983 136.319 89.6671 136.264 89.5688 136.155C89.4705 136.045 89.4159 135.914 89.4159 135.772V121.569C89.4159 121.405 89.4705 121.274 89.5688 121.175C89.6671 121.077 89.7983 121.022 89.9621 121.022H95.6436C97.0749 121.022 98.2876 121.252 99.2928 121.711C100.298 122.17 101.074 122.836 101.609 123.721C102.144 124.606 102.439 125.688 102.483 126.988C102.494 127.633 102.505 128.19 102.505 128.67C102.505 129.151 102.505 129.708 102.483 130.331C102.429 131.686 102.134 132.811 101.62 133.696C101.107 134.581 100.353 135.248 99.3693 135.674C98.386 136.1 97.1841 136.319 95.7528 136.319ZM130.475 134.308C129.907 135.018 129.131 135.576 128.148 135.958C127.165 136.34 126.028 136.537 124.728 136.537C123.275 136.537 122.062 136.329 121.101 135.914C120.139 135.499 119.407 134.953 118.916 134.286C118.424 133.62 118.162 132.899 118.129 132.145C118.129 132.025 118.173 131.926 118.271 131.828C118.369 131.73 118.479 131.686 118.61 131.686H121.363C121.571 131.686 121.724 131.719 121.833 131.795C121.942 131.872 122.04 131.959 122.128 132.079C122.248 132.298 122.412 132.505 122.619 132.713C122.827 132.921 123.111 133.085 123.461 133.205C123.81 133.325 124.237 133.39 124.728 133.39C125.569 133.39 126.214 133.259 126.64 132.997C127.066 132.735 127.285 132.374 127.285 131.926C127.285 131.588 127.165 131.325 126.935 131.118C126.706 130.91 126.323 130.725 125.81 130.561C125.296 130.397 124.608 130.222 123.745 130.047C122.641 129.818 121.691 129.512 120.915 129.14C120.139 128.769 119.538 128.277 119.134 127.676C118.73 127.075 118.522 126.321 118.522 125.415C118.522 124.508 118.774 123.732 119.276 123.033C119.779 122.333 120.478 121.787 121.385 121.394C122.292 121.001 123.362 120.804 124.597 120.804C125.602 120.804 126.487 120.935 127.252 121.197C128.017 121.459 128.661 121.809 129.186 122.246C129.71 122.683 130.104 123.142 130.377 123.634C130.65 124.125 130.792 124.595 130.803 125.065C130.803 125.185 130.759 125.283 130.683 125.382C130.606 125.48 130.486 125.524 130.344 125.524H127.46C127.296 125.524 127.165 125.491 127.044 125.436C126.924 125.382 126.826 125.283 126.739 125.152C126.651 124.836 126.422 124.551 126.05 124.311C125.679 124.071 125.198 123.951 124.597 123.951C123.952 123.951 123.461 124.06 123.1 124.289C122.74 124.519 122.565 124.857 122.565 125.327C122.565 125.622 122.663 125.873 122.86 126.092C123.057 126.31 123.384 126.496 123.843 126.66C124.302 126.824 124.936 126.988 125.733 127.163C127.055 127.414 128.126 127.72 128.946 128.091C129.765 128.463 130.366 128.944 130.748 129.534C131.131 130.124 131.327 130.867 131.327 131.752C131.327 132.746 131.043 133.598 130.475 134.308ZM141.139 112.457C140.571 113.167 139.795 113.724 138.812 114.106C137.828 114.489 136.692 114.685 135.392 114.685C133.939 114.685 132.726 114.478 131.764 114.063C130.803 113.647 130.071 113.101 129.579 112.435C129.088 111.768 128.825 111.047 128.793 110.293C128.793 110.173 128.836 110.075 128.935 109.976C129.033 109.878 129.142 109.834 129.273 109.834H132.027C132.234 109.834 132.387 109.867 132.496 109.944C132.606 110.02 132.704 110.107 132.791 110.228C132.912 110.446 133.076 110.654 133.283 110.861C133.491 111.069 133.775 111.233 134.124 111.353C134.474 111.473 134.9 111.539 135.392 111.539C136.233 111.539 136.878 111.408 137.304 111.145C137.73 110.883 137.948 110.523 137.948 110.075C137.948 109.736 137.828 109.474 137.599 109.266C137.369 109.059 136.987 108.873 136.473 108.709C135.96 108.545 135.272 108.37 134.408 108.195C133.305 107.966 132.354 107.66 131.579 107.289C130.803 106.917 130.202 106.425 129.798 105.825C129.394 105.224 129.186 104.47 129.186 103.563C129.186 102.656 129.437 101.88 129.94 101.181C130.442 100.482 131.142 99.9355 132.049 99.5422C132.955 99.1488 134.026 98.9522 135.261 98.9522C136.266 98.9522 137.151 99.0833 137.916 99.3455C138.68 99.6077 139.325 99.9574 139.85 100.394C140.374 100.831 140.767 101.29 141.04 101.782C141.314 102.274 141.456 102.743 141.467 103.213C141.467 103.333 141.423 103.432 141.346 103.53C141.27 103.628 141.15 103.672 141.008 103.672H138.123C137.959 103.672 137.828 103.639 137.708 103.585C137.588 103.53 137.49 103.432 137.402 103.301C137.315 102.984 137.085 102.7 136.714 102.459C136.342 102.219 135.862 102.099 135.261 102.099C134.616 102.099 134.124 102.208 133.764 102.438C133.403 102.667 133.229 103.006 133.229 103.475C133.229 103.77 133.327 104.022 133.523 104.24C133.72 104.459 134.048 104.645 134.507 104.808C134.966 104.972 135.599 105.136 136.397 105.311C137.719 105.562 138.79 105.868 139.609 106.24C140.429 106.611 141.03 107.092 141.412 107.682C141.794 108.272 141.991 109.015 141.991 109.9C141.991 110.894 141.707 111.746 141.139 112.457Z" fill="white"/>
<path d="M21.0856 130.484H25.15L23.1178 124.715L21.0856 130.484Z" fill="white"/>
<path d="M67.5205 130.288C67.5532 129.861 67.5642 129.49 67.5751 129.151C67.5751 128.813 67.5751 128.485 67.5751 128.146C67.5751 127.807 67.5532 127.436 67.5205 127.032C67.4877 126.037 67.2364 125.316 66.7447 124.857C66.2531 124.398 65.532 124.169 64.5705 124.169H62.3853V133.172H64.6797C65.3025 133.172 65.827 133.074 66.2421 132.877C66.6573 132.68 66.9742 132.374 67.1818 131.948C67.3894 131.522 67.5095 130.976 67.5205 130.288Z" fill="white"/>
<path d="M78.0311 130.484H82.0955L80.0633 124.715L78.0311 130.484Z" fill="white"/>
<path d="M97.7086 124.857C97.2169 124.398 96.4958 124.169 95.5343 124.169H93.3492V133.172H95.6436C96.2664 133.172 96.7908 133.074 97.206 132.877C97.6212 132.68 97.938 132.374 98.1456 131.948C98.3532 131.522 98.4734 130.976 98.4843 130.288C98.5171 129.861 98.528 129.49 98.5389 129.151C98.5499 128.813 98.5389 128.485 98.5389 128.146C98.5389 127.807 98.5171 127.436 98.4843 127.032C98.4515 126.037 98.2002 125.316 97.7086 124.857Z" fill="white"/>
<path d="M19.6871 92.6152H25.4778C26.9091 92.6152 28.1109 92.3967 29.0943 91.9706C30.0776 91.5445 30.8315 90.878 31.345 89.993C31.8585 89.108 32.1535 87.9826 32.2081 86.6278C32.2191 86.0051 32.23 85.4478 32.23 84.9671C32.23 84.4864 32.23 83.9291 32.2081 83.2845C32.1644 81.9843 31.8694 80.9027 31.3341 80.0177C30.7987 79.1327 30.023 78.4662 29.0178 78.0073C28.0126 77.5485 26.7998 77.319 25.3686 77.319H19.6871C19.5232 77.319 19.3921 77.3736 19.2938 77.472C19.1955 77.5703 19.1408 77.7014 19.1408 77.8653V92.0689C19.1408 92.2109 19.1955 92.342 19.2938 92.4513C19.3921 92.5606 19.5232 92.6152 19.6871 92.6152ZM23.0741 80.4657H25.2593C26.2208 80.4657 26.9419 80.6951 27.4335 81.154C27.9252 81.6129 28.1765 82.334 28.2093 83.3282C28.2421 83.7325 28.253 84.104 28.2639 84.4427C28.2639 84.7814 28.2639 85.1091 28.2639 85.4478C28.2639 85.7865 28.2421 86.158 28.2093 86.5841C28.1984 87.2725 28.0782 87.8187 27.8706 88.2449C27.663 88.671 27.3461 88.9769 26.931 89.1735C26.5158 89.3702 25.9913 89.4686 25.3686 89.4686H23.0741V80.4657Z" fill="#F85600"/>
<path d="M35.3329 92.6152H38.2611C38.4249 92.6152 38.5561 92.5606 38.6653 92.4513C38.7746 92.342 38.8292 92.2109 38.8292 92.0689V77.8653C38.8292 77.7014 38.7746 77.5703 38.6653 77.472C38.5561 77.3736 38.4249 77.319 38.2611 77.319H35.3329C35.169 77.319 35.0379 77.3736 34.9396 77.472C34.8413 77.5703 34.7866 77.7014 34.7866 77.8653V92.0689C34.7866 92.2109 34.8413 92.342 34.9396 92.4513C35.0379 92.5606 35.169 92.6152 35.3329 92.6152Z" fill="#F85600"/>
<path d="M40.9816 77.4611C40.8833 77.5594 40.8396 77.6577 40.8396 77.7779C40.8396 77.8325 40.8505 77.8981 40.8833 77.9746L45.341 91.9596C45.3956 92.1345 45.5049 92.2874 45.6469 92.4185C45.789 92.5496 45.9856 92.6152 46.2369 92.6152H49.5802C49.8425 92.6152 50.05 92.5496 50.1921 92.4185C50.3341 92.2874 50.4324 92.1345 50.4762 91.9596L54.9339 77.9746C54.9667 77.8981 54.9776 77.8325 54.9776 77.7779C54.9776 77.6577 54.9339 77.5594 54.8356 77.4611C54.7372 77.3627 54.6389 77.319 54.5187 77.319H51.7872C51.5578 77.319 51.3721 77.3846 51.2519 77.5157C51.1317 77.6468 51.0443 77.767 51.0006 77.8872L47.9195 87.9826L44.8166 77.8872C44.7838 77.767 44.7073 77.6468 44.5762 77.5157C44.4451 77.3846 44.2593 77.319 44.0299 77.319H41.3203C41.1892 77.319 41.0799 77.3627 40.9816 77.4611Z" fill="#F85600"/>
<path d="M57.0098 92.0689C57.0098 92.2109 57.0644 92.342 57.1628 92.4513C57.2611 92.5606 57.3922 92.6152 57.5561 92.6152H67.9357C68.0995 92.6152 68.2307 92.5606 68.329 92.4513C68.4273 92.342 68.4819 92.2109 68.4819 92.0689V90.0148C68.4819 89.851 68.4273 89.7198 68.329 89.6215C68.2307 89.5232 68.0995 89.4686 67.9357 89.4686H60.7901V86.4312H67.2801C67.444 86.4312 67.5751 86.3765 67.6734 86.2673C67.7718 86.158 67.8264 86.0269 67.8264 85.8849V83.9838C67.8264 83.8199 67.7718 83.6888 67.6734 83.5795C67.5751 83.4703 67.444 83.4156 67.2801 83.4156H60.7901V80.4657H67.7608C67.9247 80.4657 68.0558 80.411 68.1542 80.3127C68.2525 80.2144 68.3071 80.0833 68.3071 79.9194V77.8653C68.3071 77.7014 68.2525 77.5703 68.1542 77.472C68.0558 77.3736 67.9247 77.319 67.7608 77.319H57.5561C57.3922 77.319 57.2611 77.3736 57.1628 77.472C57.0644 77.5703 57.0098 77.7014 57.0098 77.8653V92.0689Z" fill="#F85600"/>
<path d="M71.5193 77.319C71.3554 77.319 71.2243 77.3736 71.126 77.472C71.0277 77.5703 70.973 77.7014 70.973 77.8653V92.0689C70.973 92.2109 71.0277 92.342 71.126 92.4513C71.2243 92.5606 71.3554 92.6152 71.5193 92.6152H74.3382C74.5021 92.6152 74.6332 92.5606 74.7424 92.4513C74.8517 92.342 74.9063 92.2109 74.9063 92.0689V87.2178H77.1352L79.6263 92.0252C79.6809 92.1454 79.7793 92.2656 79.9104 92.4076C80.0415 92.5496 80.2491 92.6152 80.5222 92.6152H83.4285C83.5487 92.6152 83.647 92.5715 83.7453 92.4732C83.8437 92.3748 83.8874 92.2765 83.8874 92.1563C83.8874 92.0798 83.8655 92.0033 83.8218 91.9159L80.8281 86.5404C81.6476 86.1799 82.3031 85.6336 82.7948 84.9234C83.2865 84.2132 83.5378 83.3391 83.5378 82.3012C83.5378 80.7169 83.0024 79.4823 81.9207 78.6192C80.8391 77.756 79.3532 77.319 77.463 77.319H71.5193ZM79.4733 82.2575C79.4733 82.8256 79.2985 83.2736 78.9598 83.6123C78.6211 83.951 78.1076 84.1149 77.4193 84.1149H74.9063V80.3564H77.4193C78.1295 80.3564 78.6539 80.5312 78.9817 80.8808C79.3094 81.2305 79.4733 81.6894 79.4733 82.2575Z" fill="#F85600"/>
<path d="M95.9932 84.388C95.1738 84.0166 94.103 83.7106 92.781 83.4593C91.9834 83.2845 91.3497 83.1206 90.8908 82.9567C90.432 82.7929 90.1042 82.6071 89.9075 82.3886C89.7109 82.1701 89.6125 81.9188 89.6125 81.6238C89.6125 81.154 89.7873 80.8153 90.1479 80.5858C90.5084 80.3564 91.0001 80.2471 91.6447 80.2471C92.2457 80.2471 92.7264 80.3673 93.0979 80.6077C93.4693 80.8481 93.6988 81.1321 93.7862 81.449C93.8736 81.5801 93.9719 81.6784 94.0921 81.733C94.2123 81.7877 94.3434 81.8205 94.5073 81.8205H97.3917C97.5338 81.8205 97.6539 81.7767 97.7304 81.6784C97.8069 81.5801 97.8506 81.4818 97.8506 81.3616C97.8397 80.8918 97.6976 80.4219 97.4245 79.9303C97.1514 79.4386 96.758 78.9797 96.2336 78.5427C95.7091 78.1057 95.0645 77.756 94.2997 77.4938C93.5349 77.2316 92.6499 77.1005 91.6447 77.1005C90.4101 77.1005 89.3394 77.2972 88.4325 77.6905C87.5257 78.0838 86.8264 78.6301 86.3238 79.3294C85.8213 80.0286 85.57 80.8262 85.57 81.7112C85.57 82.5962 85.7775 83.3719 86.1818 83.9729C86.5861 84.5738 87.187 85.0654 87.9627 85.4369C88.7385 85.8084 89.689 86.1143 90.7925 86.3438C91.6557 86.5186 92.344 86.6934 92.8575 86.8573C93.371 87.0212 93.7534 87.2069 93.9829 87.4145C94.2123 87.6221 94.3325 87.8843 94.3325 88.223C94.3325 88.671 94.114 89.0315 93.6879 89.2937C93.2618 89.556 92.6171 89.6871 91.7758 89.6871C91.2842 89.6871 90.8581 89.6215 90.5084 89.5013C90.1588 89.3811 89.8747 89.2173 89.6672 89.0097C89.4596 88.8021 89.2957 88.5945 89.1755 88.376C89.0881 88.2558 88.9897 88.1684 88.8805 88.0919C88.7712 88.0154 88.6183 87.9826 88.4107 87.9826H85.6574C85.5263 87.9826 85.417 88.0263 85.3187 88.1247C85.2203 88.223 85.1766 88.3213 85.1766 88.4415C85.2094 89.1954 85.4716 89.9165 85.9633 90.583C86.455 91.2495 87.187 91.7958 88.1485 92.2109C89.1099 92.6261 90.3227 92.8337 91.7758 92.8337C93.076 92.8337 94.2123 92.637 95.1956 92.2546C96.179 91.8722 96.9547 91.315 97.5228 90.6048C98.091 89.8947 98.3751 89.0424 98.3751 88.0482C98.3751 87.1632 98.1784 86.4202 97.796 85.8302C97.4136 85.2402 96.8127 84.7595 95.9932 84.388Z" fill="#F85600"/>
<path d="M108.809 77.5047C108.667 77.3846 108.481 77.319 108.23 77.319H104.996C104.745 77.319 104.559 77.3846 104.417 77.5047C104.275 77.6249 104.188 77.767 104.144 77.9309L99.0088 91.9596C98.9978 92.0143 98.9869 92.0798 98.9869 92.1563C98.9869 92.2765 99.0306 92.3748 99.1289 92.4732C99.2273 92.5715 99.3256 92.6152 99.4458 92.6152H102.134C102.385 92.6152 102.56 92.5606 102.658 92.4513C102.756 92.342 102.822 92.2437 102.855 92.1563L103.685 89.9274H109.519L110.372 92.1563C110.404 92.2437 110.47 92.342 110.579 92.4513C110.688 92.5606 110.852 92.6152 111.071 92.6152H113.759C113.89 92.6152 113.999 92.5715 114.097 92.4732C114.196 92.3748 114.239 92.2765 114.239 92.1563C114.239 92.0798 114.228 92.0143 114.196 91.9596L109.082 77.9309C109.039 77.767 108.951 77.6249 108.809 77.5047ZM104.581 86.7808L106.613 81.0119L108.645 86.7808H104.581Z" fill="#F85600"/>
<path d="M110 73.1672H108.689C108.525 73.1672 108.416 73.2218 108.339 73.3311C108.263 73.4403 108.186 73.5496 108.11 73.6698C108.033 73.79 107.891 73.8446 107.684 73.8446C107.433 73.8446 107.203 73.779 106.985 73.6479C106.766 73.5168 106.526 73.3857 106.264 73.2546C106.001 73.1235 105.663 73.0579 105.258 73.0579C104.81 73.0579 104.428 73.1563 104.111 73.3529C103.794 73.5496 103.543 73.8009 103.346 74.0959C103.15 74.3909 103.008 74.7077 102.931 75.0246C102.855 75.3414 102.811 75.6255 102.811 75.8549C102.811 75.9424 102.844 76.0298 102.92 76.1062C102.997 76.1827 103.084 76.2264 103.182 76.2264H104.494C104.657 76.2264 104.767 76.1718 104.843 76.0516C104.92 75.9314 104.996 75.8222 105.094 75.7238C105.193 75.6255 105.335 75.5709 105.521 75.5709C105.783 75.5709 106.023 75.6364 106.231 75.7566C106.438 75.8768 106.679 76.0079 106.941 76.139C107.203 76.2701 107.531 76.3357 107.924 76.3357C108.372 76.3357 108.766 76.2374 109.082 76.0407C109.399 75.844 109.661 75.5927 109.847 75.2977C110.033 75.0027 110.175 74.6968 110.262 74.38C110.35 74.0631 110.393 73.79 110.393 73.5605C110.393 73.4622 110.361 73.3638 110.295 73.2874C110.23 73.2109 110.131 73.1672 110 73.1672Z" fill="#F85600"/>
<path d="M115.157 83.1097C115.146 83.7325 115.135 84.3662 115.135 84.9999C115.135 85.6336 115.135 86.2673 115.157 86.8901C115.212 88.2121 115.518 89.3156 116.075 90.2006C116.632 91.0856 117.397 91.7411 118.391 92.1782C119.385 92.6152 120.544 92.8337 121.887 92.8337C123.231 92.8337 124.389 92.6152 125.384 92.1782C126.378 91.7411 127.154 91.0856 127.711 90.2006C128.268 89.3156 128.574 88.2121 128.618 86.8901C128.651 86.2673 128.661 85.6336 128.661 84.9999C128.661 84.3662 128.651 83.7325 128.618 83.1097C128.574 81.7986 128.268 80.6951 127.7 79.7992C127.132 78.9033 126.356 78.2259 125.362 77.7779C124.368 77.3299 123.209 77.1005 121.887 77.1005C120.565 77.1005 119.418 77.3299 118.424 77.7779C117.43 78.2259 116.643 78.9033 116.086 79.7992C115.529 80.6951 115.212 81.7986 115.157 83.1097ZM119.222 83.1753C119.254 82.4869 119.385 81.9297 119.615 81.5036C119.844 81.0775 120.161 80.7607 120.555 80.5531C120.948 80.3455 121.396 80.2471 121.887 80.2471C122.379 80.2471 122.849 80.3455 123.242 80.5531C123.636 80.7607 123.942 81.0775 124.171 81.5036C124.4 81.9297 124.521 82.4869 124.553 83.1753C124.586 83.7871 124.597 84.3771 124.597 84.9453C124.597 85.5134 124.586 86.1143 124.553 86.7589C124.521 87.775 124.269 88.518 123.778 88.9878C123.286 89.4576 122.663 89.6871 121.887 89.6871C121.112 89.6871 120.511 89.4576 120.019 88.9878C119.527 88.518 119.265 87.775 119.222 86.7589C119.211 86.1143 119.2 85.5134 119.2 84.9453C119.2 84.3771 119.2 83.7871 119.222 83.1753Z" fill="#F85600"/>
<path d="M15.9833 108.611C16.8792 108.261 17.5784 107.726 18.081 106.994C18.5836 106.262 18.8349 105.344 18.8349 104.218C18.8349 103.093 18.5836 102.143 18.081 101.4C17.5784 100.657 16.8792 100.099 15.9833 99.7279C15.0873 99.3564 14.0385 99.1707 12.8257 99.1707H6.70721C6.54333 99.1707 6.41222 99.2253 6.31388 99.3237C6.21555 99.422 6.16092 99.5531 6.16092 99.717V113.921C6.16092 114.063 6.21555 114.194 6.31388 114.303C6.41222 114.412 6.54333 114.467 6.70721 114.467H9.65719C9.82108 114.467 9.95219 114.412 10.0614 114.303C10.1707 114.194 10.2253 114.063 10.2253 113.921V109.135H12.8257C14.0385 109.135 15.0873 108.96 15.9833 108.611ZM12.7164 106.12H10.1598V102.208H12.7164C13.4485 102.208 13.9729 102.394 14.2898 102.776C14.6066 103.159 14.7705 103.618 14.7705 104.175C14.7705 104.83 14.5847 105.322 14.2133 105.639C13.8418 105.956 13.3392 106.12 12.7164 106.12Z" fill="#F85600"/>
<path d="M18.5727 113.811C18.5618 113.866 18.5508 113.932 18.5508 114.008C18.5508 114.128 18.5945 114.227 18.6929 114.325C18.7912 114.423 18.8895 114.467 19.0097 114.467H21.6975C21.9488 114.467 22.1236 114.412 22.2219 114.303C22.3202 114.194 22.3858 114.095 22.4186 114.008L23.2489 111.779H29.0833L29.9356 114.008C29.9683 114.095 30.0339 114.194 30.1432 114.303C30.2524 114.412 30.4163 114.467 30.6348 114.467H33.3226C33.4537 114.467 33.5629 114.423 33.6613 114.325C33.7596 114.227 33.8033 114.128 33.8033 114.008C33.8033 113.932 33.7924 113.866 33.7596 113.811L28.6463 99.7825C28.6026 99.6187 28.5152 99.4766 28.3732 99.3564C28.2311 99.2363 28.0454 99.1707 27.7941 99.1707H24.56C24.3088 99.1707 24.123 99.2363 23.981 99.3564C23.8389 99.4766 23.7515 99.6187 23.7078 99.7825L18.5727 113.811ZM26.1771 102.864L28.2093 108.632H24.1449L26.1771 102.864Z" fill="#F85600"/>
<path d="M47.9851 114.467C48.1052 114.467 48.2036 114.423 48.3019 114.325C48.4002 114.227 48.4439 114.128 48.4439 114.008C48.4439 113.932 48.4221 113.855 48.3784 113.768L45.3847 108.392C46.2041 108.032 46.8597 107.485 47.3514 106.775C47.843 106.065 48.0943 105.191 48.0943 104.153C48.0943 102.569 47.5589 101.334 46.4773 100.471C45.3956 99.6077 43.9097 99.1707 42.0195 99.1707H36.0759C35.912 99.1707 35.7809 99.2253 35.6826 99.3237C35.5842 99.422 35.5296 99.5531 35.5296 99.717V113.921C35.5296 114.063 35.5842 114.194 35.6826 114.303C35.7809 114.412 35.912 114.467 36.0759 114.467H38.8948C39.0586 114.467 39.1898 114.412 39.299 114.303C39.4083 114.194 39.4629 114.063 39.4629 113.921V109.07H41.6918L44.1829 113.877C44.2375 113.997 44.3358 114.117 44.4669 114.259C44.598 114.401 44.8056 114.467 45.0788 114.467H47.9851ZM41.9758 105.967H39.4629V102.208H41.9758C42.686 102.208 43.2105 102.383 43.5382 102.733C43.866 103.082 44.0299 103.541 44.0299 104.109C44.0299 104.677 43.8551 105.125 43.5164 105.464C43.1777 105.803 42.6642 105.967 41.9758 105.967Z" fill="#F85600"/>
<path d="M59.8287 111.779L60.6809 114.008C60.7137 114.095 60.7792 114.194 60.8885 114.303C60.9977 114.412 61.1616 114.467 61.3801 114.467H64.0679C64.199 114.467 64.3083 114.423 64.4066 114.325C64.5049 114.227 64.5486 114.128 64.5486 114.008C64.5486 113.932 64.5377 113.866 64.5049 113.811L59.3916 99.7825C59.3479 99.6187 59.2605 99.4766 59.1185 99.3564C58.9765 99.2363 58.7907 99.1707 58.5394 99.1707H55.3054C55.0541 99.1707 54.8683 99.2363 54.7263 99.3564C54.5843 99.4766 54.4969 99.6187 54.4532 99.7825L49.318 113.811C49.3071 113.866 49.2962 113.932 49.2962 114.008C49.2962 114.128 49.3399 114.227 49.4382 114.325C49.5365 114.423 49.6349 114.467 49.755 114.467H52.4428C52.6941 114.467 52.8689 114.412 52.9672 114.303C53.0656 114.194 53.1311 114.095 53.1639 114.008L53.9943 111.779H59.8287ZM56.9224 102.864L58.9546 108.632H54.8902L56.9224 102.864Z" fill="#F85600"/>
<path d="M81.5055 102.438C81.6039 102.328 81.6585 102.197 81.6585 102.055V99.717C81.6585 99.5531 81.6039 99.422 81.5055 99.3237C81.4072 99.2253 81.2761 99.1707 81.1122 99.1707H69.356C69.1921 99.1707 69.061 99.2253 68.9627 99.3237C68.8643 99.422 68.8097 99.5531 68.8097 99.717V102.055C68.8097 102.197 68.8643 102.328 68.9627 102.438C69.061 102.547 69.1921 102.601 69.356 102.601H73.2456V113.921C73.2456 114.063 73.3002 114.194 73.3986 114.303C73.4969 114.412 73.628 114.467 73.7919 114.467H76.6763C76.8402 114.467 76.9713 114.412 77.0697 114.303C77.168 114.194 77.2226 114.063 77.2226 113.921V102.601H81.1122C81.2761 102.601 81.4072 102.547 81.5055 102.438Z" fill="#F85600"/>
<path d="M96.4303 106.852C96.4303 106.218 96.4193 105.584 96.3866 104.961C96.3428 103.65 96.0369 102.547 95.4688 101.651C94.9006 100.755 94.1249 100.078 93.1306 99.6296C92.1364 99.1816 90.9782 98.9522 89.6562 98.9522C88.3342 98.9522 87.187 99.1816 86.1927 99.6296C85.1985 100.078 84.4118 100.755 83.8546 101.651C83.2974 102.547 82.9805 103.65 82.9259 104.961C82.915 105.584 82.9041 106.218 82.9041 106.852C82.9041 107.485 82.9041 108.119 82.9259 108.742C82.9805 110.064 83.2865 111.167 83.8437 112.052C84.4009 112.937 85.1657 113.593 86.16 114.03C87.1542 114.467 88.3123 114.685 89.6562 114.685C91.0001 114.685 92.1582 114.467 93.1525 114.03C94.1468 113.593 94.9225 112.937 95.4797 112.052C96.0369 111.167 96.3428 110.064 96.3866 108.742C96.4193 108.119 96.4303 107.485 96.4303 106.852ZM92.3221 108.611C92.2894 109.627 92.0381 110.37 91.5464 110.84C91.0547 111.309 90.432 111.539 89.6562 111.539C88.8805 111.539 88.2796 111.309 87.7879 110.84C87.2962 110.37 87.034 109.627 86.9903 108.611C86.9794 107.966 86.9685 107.365 86.9685 106.797C86.9685 106.229 86.9685 105.639 86.9903 105.027C87.0231 104.339 87.1542 103.781 87.3836 103.355C87.6131 102.929 87.9299 102.612 88.3233 102.405C88.7166 102.197 89.1646 102.099 89.6562 102.099C90.1479 102.099 90.6177 102.197 91.011 102.405C91.4044 102.612 91.7103 102.929 91.9397 103.355C92.1692 103.781 92.2894 104.339 92.3221 105.027C92.3549 105.639 92.3658 106.229 92.3658 106.797C92.3658 107.365 92.3549 107.966 92.3221 108.611Z" fill="#F85600"/>
<path d="M108.842 99.859C107.837 99.4001 106.624 99.1707 105.193 99.1707H99.5113C99.3475 99.1707 99.2163 99.2253 99.118 99.3237C99.0197 99.422 98.965 99.5531 98.965 99.717V113.921C98.965 114.063 99.0197 114.194 99.118 114.303C99.2163 114.412 99.3475 114.467 99.5113 114.467H105.302C106.733 114.467 107.935 114.248 108.918 113.822C109.902 113.396 110.656 112.73 111.169 111.845C111.683 110.96 111.978 109.834 112.032 108.48C112.043 107.857 112.054 107.3 112.054 106.819C112.054 106.338 112.054 105.781 112.032 105.136C111.989 103.836 111.694 102.754 111.158 101.869C110.623 100.984 109.847 100.318 108.842 99.859ZM106.755 111.025C106.34 111.222 105.816 111.32 105.193 111.32H102.898V102.317H105.084C106.045 102.317 106.766 102.547 107.258 103.006C107.749 103.465 108.001 104.186 108.033 105.18C108.066 105.584 108.077 105.956 108.088 106.294C108.088 106.633 108.088 106.961 108.088 107.3C108.088 107.638 108.066 108.01 108.033 108.436C108.023 109.124 107.902 109.67 107.695 110.097C107.487 110.523 107.17 110.829 106.755 111.025Z" fill="#F85600"/>
<path d="M123.046 99.7825C123.002 99.6187 122.914 99.4766 122.772 99.3564C122.63 99.2363 122.445 99.1707 122.193 99.1707H118.959C118.708 99.1707 118.522 99.2363 118.38 99.3564C118.238 99.4766 118.151 99.6187 118.107 99.7825L112.972 113.811C112.961 113.866 112.95 113.932 112.95 114.008C112.95 114.128 112.994 114.227 113.092 114.325C113.19 114.423 113.289 114.467 113.409 114.467H116.097C116.348 114.467 116.523 114.412 116.621 114.303C116.72 114.194 116.785 114.095 116.818 114.008L117.648 111.779H123.483L124.335 114.008C124.368 114.095 124.433 114.194 124.542 114.303C124.652 114.412 124.816 114.467 125.034 114.467H127.722C127.853 114.467 127.962 114.423 128.061 114.325C128.159 114.227 128.203 114.128 128.203 114.008C128.203 113.932 128.192 113.866 128.159 113.811L123.046 99.7825ZM118.544 108.632L120.576 102.864L122.609 108.632H118.544Z" fill="#F85600"/>
<path d="M139.609 106.24C138.79 105.868 137.719 105.562 136.397 105.311C135.599 105.136 134.966 104.972 134.507 104.808C134.048 104.645 133.72 104.459 133.523 104.24C133.327 104.022 133.229 103.77 133.229 103.475C133.229 103.006 133.403 102.667 133.764 102.438C134.124 102.208 134.616 102.099 135.261 102.099C135.862 102.099 136.342 102.219 136.714 102.459C137.085 102.7 137.315 102.984 137.402 103.301C137.49 103.432 137.588 103.53 137.708 103.585C137.828 103.639 137.959 103.672 138.123 103.672H141.008C141.15 103.672 141.27 103.628 141.346 103.53C141.423 103.432 141.467 103.333 141.467 103.213C141.456 102.743 141.314 102.274 141.04 101.782C140.767 101.29 140.374 100.831 139.85 100.394C139.325 99.9574 138.68 99.6077 137.916 99.3455C137.151 99.0833 136.266 98.9522 135.261 98.9522C134.026 98.9522 132.955 99.1488 132.049 99.5422C131.142 99.9355 130.442 100.482 129.94 101.181C129.437 101.88 129.186 102.678 129.186 103.563C129.186 104.448 129.394 105.224 129.798 105.825C130.202 106.425 130.803 106.917 131.579 107.289C132.354 107.66 133.305 107.966 134.408 108.195C135.272 108.37 135.96 108.545 136.473 108.709C136.987 108.873 137.369 109.059 137.599 109.266C137.828 109.474 137.948 109.736 137.948 110.075C137.948 110.523 137.73 110.883 137.304 111.145C136.878 111.408 136.233 111.539 135.392 111.539C134.9 111.539 134.474 111.473 134.124 111.353C133.775 111.233 133.491 111.069 133.283 110.861C133.076 110.654 132.912 110.446 132.791 110.228C132.704 110.107 132.606 110.02 132.496 109.944C132.387 109.867 132.234 109.834 132.027 109.834H129.273C129.142 109.834 129.033 109.878 128.935 109.976C128.836 110.075 128.793 110.173 128.793 110.293C128.825 111.047 129.088 111.768 129.579 112.435C130.071 113.101 130.803 113.647 131.764 114.063C132.726 114.478 133.939 114.685 135.392 114.685C136.692 114.685 137.828 114.489 138.812 114.106C139.795 113.724 140.571 113.167 141.139 112.457C141.707 111.746 141.991 110.894 141.991 109.9C141.991 109.015 141.794 108.272 141.412 107.682C141.03 107.092 140.429 106.611 139.609 106.24Z" fill="#F85600"/>
<path d="M26.0241 133.631L26.8763 135.86C26.9091 135.947 26.9747 136.045 27.0839 136.155C27.1932 136.264 27.3571 136.319 27.5756 136.319H30.2633C30.3944 136.319 30.5037 136.275 30.602 136.177C30.7004 136.078 30.7441 135.98 30.7441 135.86C30.7441 135.783 30.7331 135.718 30.7004 135.663L25.5871 121.634C25.5434 121.47 25.456 121.328 25.3139 121.208C25.1719 121.088 24.9862 121.022 24.7349 121.022H21.5008C21.2495 121.022 21.0638 121.088 20.9217 121.208C20.7797 121.328 20.6923 121.47 20.6486 121.634L15.5134 135.663C15.5025 135.718 15.4916 135.783 15.4916 135.86C15.4916 135.98 15.5353 136.078 15.6336 136.177C15.732 136.275 15.8303 136.319 15.9505 136.319H18.6382C18.8895 136.319 19.0643 136.264 19.1627 136.155C19.261 136.045 19.3266 135.947 19.3593 135.86L20.1897 133.631H26.0241ZM21.0856 130.484L23.1178 124.715L25.15 130.484H21.0856Z" fill="#F85600"/>
<path d="M42.1507 128.091C41.3312 127.72 40.2605 127.414 38.9385 127.163C38.1409 126.988 37.5072 126.824 37.0483 126.66C36.5894 126.496 36.2616 126.31 36.065 126.092C35.8683 125.873 35.77 125.622 35.77 125.327C35.77 124.857 35.9448 124.519 36.3053 124.289C36.6659 124.06 37.1575 123.951 37.8022 123.951C38.4031 123.951 38.8838 124.071 39.2553 124.311C39.6268 124.551 39.8562 124.836 39.9436 125.152C40.031 125.283 40.1294 125.382 40.2496 125.436C40.3697 125.491 40.5009 125.524 40.6647 125.524H43.5492C43.6912 125.524 43.8114 125.48 43.8879 125.382C43.9643 125.283 44.008 125.185 44.008 125.065C43.9971 124.595 43.8551 124.125 43.5819 123.634C43.3088 123.142 42.9155 122.683 42.391 122.246C41.8666 121.809 41.222 121.459 40.4571 121.197C39.6923 120.935 38.8073 120.804 37.8022 120.804C36.5675 120.804 35.4968 121.001 34.59 121.394C33.6831 121.787 32.9839 122.333 32.4813 123.033C31.9787 123.732 31.7274 124.53 31.7274 125.415C31.7274 126.3 31.935 127.075 32.3392 127.676C32.7435 128.277 33.3444 128.769 34.1202 129.14C34.8959 129.512 35.8464 129.818 36.95 130.047C37.8131 130.222 38.5014 130.397 39.0149 130.561C39.5285 130.725 39.9109 130.91 40.1403 131.118C40.3697 131.325 40.4899 131.588 40.4899 131.926C40.4899 132.374 40.2714 132.735 39.8453 132.997C39.4192 133.259 38.7746 133.39 37.9333 133.39C37.4416 133.39 37.0155 133.325 36.6659 133.205C36.3163 133.085 36.0322 132.921 35.8246 132.713C35.617 132.505 35.4531 132.298 35.3329 132.079C35.2455 131.959 35.1472 131.872 35.0379 131.795C34.9287 131.719 34.7757 131.686 34.5681 131.686H31.8148C31.6837 131.686 31.5744 131.73 31.4761 131.828C31.3778 131.926 31.3341 132.025 31.3341 132.145C31.3668 132.899 31.6291 133.62 32.1207 134.286C32.6124 134.953 33.3444 135.499 34.3059 135.914C35.2674 136.329 36.4801 136.537 37.9333 136.537C39.2335 136.537 40.3697 136.34 41.3531 135.958C42.3364 135.576 43.1121 135.018 43.6803 134.308C44.2484 133.598 44.5325 132.746 44.5325 131.752C44.5325 130.867 44.3358 130.124 43.9534 129.534C43.571 128.944 42.9701 128.463 42.1507 128.091Z" fill="#F85600"/>
<path d="M54.8465 136.319C55.0104 136.319 55.1415 136.264 55.2507 136.155C55.36 136.045 55.4146 135.914 55.4146 135.772V121.569C55.4146 121.405 55.36 121.274 55.2507 121.175C55.1415 121.077 55.0104 121.022 54.8465 121.022H51.9184C51.7545 121.022 51.6234 121.077 51.525 121.175C51.4267 121.274 51.3721 121.405 51.3721 121.569V135.772C51.3721 135.914 51.4267 136.045 51.525 136.155C51.6234 136.264 51.7545 136.319 51.9184 136.319H54.8465Z" fill="#F85600"/>
<path d="M68.4055 135.674C69.3888 135.248 70.1427 134.581 70.6562 133.696C71.1697 132.811 71.4647 131.686 71.5193 130.331C71.5303 129.708 71.5412 129.151 71.5412 128.67C71.5412 128.19 71.5412 127.633 71.5193 126.988C71.4756 125.688 71.1806 124.606 70.6452 123.721C70.1099 122.836 69.3342 122.17 68.329 121.711C67.3238 121.252 66.111 121.022 64.6797 121.022H58.9983C58.8344 121.022 58.7033 121.077 58.605 121.175C58.5066 121.274 58.452 121.405 58.452 121.569V135.772C58.452 135.914 58.5066 136.045 58.605 136.155C58.7033 136.264 58.8344 136.319 58.9983 136.319H64.789C66.2203 136.319 67.4221 136.1 68.4055 135.674ZM66.2421 132.877C65.827 133.074 65.3025 133.172 64.6797 133.172H62.3853V124.169H64.5705C65.532 124.169 66.2531 124.398 66.7447 124.857C67.2364 125.316 67.4877 126.037 67.5205 127.032C67.5532 127.436 67.5642 127.807 67.5751 128.146C67.5751 128.485 67.5751 128.813 67.5751 129.151C67.5751 129.49 67.5532 129.861 67.5205 130.288C67.5095 130.976 67.3894 131.522 67.1818 131.948C66.9742 132.374 66.6573 132.68 66.2421 132.877Z" fill="#F85600"/>
<path d="M84.0294 136.155C84.1387 136.264 84.3026 136.319 84.5211 136.319H87.2088C87.3399 136.319 87.4492 136.275 87.5475 136.177C87.6459 136.078 87.6896 135.98 87.6896 135.86C87.6896 135.783 87.6786 135.718 87.6459 135.663L82.5326 121.634C82.4889 121.47 82.4015 121.328 82.2594 121.208C82.1174 121.088 81.9317 121.022 81.6804 121.022H78.4463C78.195 121.022 78.0093 121.088 77.8672 121.208C77.7252 121.328 77.6378 121.47 77.5941 121.634L72.4589 135.663C72.448 135.718 72.4371 135.783 72.4371 135.86C72.4371 135.98 72.4808 136.078 72.5791 136.177C72.6775 136.275 72.7758 136.319 72.896 136.319H75.5837C75.835 136.319 76.0098 136.264 76.1082 136.155C76.2065 136.045 76.2721 135.947 76.3048 135.86L77.1352 133.631H82.9696L83.8218 135.86C83.8546 135.947 83.9202 136.045 84.0294 136.155ZM78.0311 130.484L80.0633 124.715L82.0955 130.484H78.0311Z" fill="#F85600"/>
<path d="M101.62 133.696C102.134 132.811 102.429 131.686 102.483 130.331C102.494 129.708 102.505 129.151 102.505 128.67C102.505 128.19 102.505 127.633 102.483 126.988C102.439 125.688 102.144 124.606 101.609 123.721C101.074 122.836 100.298 122.17 99.2928 121.711C98.2876 121.252 97.0749 121.022 95.6436 121.022H89.9621C89.7983 121.022 89.6671 121.077 89.5688 121.175C89.4705 121.274 89.4159 121.405 89.4159 121.569V135.772C89.4159 135.914 89.4705 136.045 89.5688 136.155C89.6671 136.264 89.7983 136.319 89.9621 136.319H95.7528C97.1841 136.319 98.386 136.1 99.3693 135.674C100.353 135.248 101.107 134.581 101.62 133.696ZM98.5389 129.151C98.5389 129.49 98.5171 129.861 98.4843 130.288C98.4734 130.976 98.3532 131.522 98.1456 131.948C97.938 132.374 97.6212 132.68 97.206 132.877C96.7908 133.074 96.2664 133.172 95.6436 133.172H93.3492V124.169H95.5343C96.4958 124.169 97.2169 124.398 97.7086 124.857C98.2002 125.316 98.4515 126.037 98.4843 127.032C98.5171 127.436 98.528 127.807 98.5389 128.146C98.5389 128.485 98.5389 128.813 98.5389 129.151Z" fill="#F85600"/>
<path d="M115.988 133.172H108.842V130.135H115.332C115.496 130.135 115.627 130.08 115.725 129.971C115.824 129.861 115.878 129.73 115.878 129.588V127.687C115.878 127.523 115.824 127.392 115.725 127.283C115.627 127.174 115.496 127.119 115.332 127.119H108.842V124.169H115.813C115.977 124.169 116.108 124.114 116.206 124.016C116.304 123.918 116.359 123.787 116.359 123.623V121.569C116.359 121.405 116.304 121.274 116.206 121.175C116.108 121.077 115.977 121.022 115.813 121.022H105.608C105.444 121.022 105.313 121.077 105.215 121.175C105.116 121.274 105.062 121.405 105.062 121.569V135.772C105.062 135.914 105.116 136.045 105.215 136.155C105.313 136.264 105.444 136.319 105.608 136.319H115.988C116.151 136.319 116.283 136.264 116.381 136.155C116.479 136.045 116.534 135.914 116.534 135.772V133.718C116.534 133.554 116.479 133.423 116.381 133.325C116.283 133.227 116.151 133.172 115.988 133.172Z" fill="#F85600"/>
<path d="M128.946 128.091C128.126 127.72 127.055 127.414 125.733 127.163C124.936 126.988 124.302 126.824 123.843 126.66C123.384 126.496 123.057 126.31 122.86 126.092C122.663 125.873 122.565 125.622 122.565 125.327C122.565 124.857 122.74 124.519 123.1 124.289C123.461 124.06 123.952 123.951 124.597 123.951C125.198 123.951 125.679 124.071 126.05 124.311C126.422 124.551 126.651 124.836 126.739 125.152C126.826 125.283 126.924 125.382 127.044 125.436C127.165 125.491 127.296 125.524 127.46 125.524H130.344C130.486 125.524 130.606 125.48 130.683 125.382C130.759 125.283 130.803 125.185 130.803 125.065C130.792 124.595 130.65 124.125 130.377 123.634C130.104 123.142 129.71 122.683 129.186 122.246C128.661 121.809 128.017 121.459 127.252 121.197C126.487 120.935 125.602 120.804 124.597 120.804C123.362 120.804 122.292 121.001 121.385 121.394C120.478 121.787 119.779 122.333 119.276 123.033C118.774 123.732 118.522 124.53 118.522 125.415C118.522 126.3 118.73 127.075 119.134 127.676C119.538 128.277 120.139 128.769 120.915 129.14C121.691 129.512 122.641 129.818 123.745 130.047C124.608 130.222 125.296 130.397 125.81 130.561C126.323 130.725 126.706 130.91 126.935 131.118C127.165 131.325 127.285 131.588 127.285 131.926C127.285 132.374 127.066 132.735 126.64 132.997C126.214 133.259 125.569 133.39 124.728 133.39C124.237 133.39 123.81 133.325 123.461 133.205C123.111 133.085 122.827 132.921 122.619 132.713C122.412 132.505 122.248 132.298 122.128 132.079C122.04 131.959 121.942 131.872 121.833 131.795C121.724 131.719 121.571 131.686 121.363 131.686H118.61C118.479 131.686 118.369 131.73 118.271 131.828C118.173 131.926 118.129 132.025 118.129 132.145C118.162 132.899 118.424 133.62 118.916 134.286C119.407 134.953 120.139 135.499 121.101 135.914C122.062 136.329 123.275 136.537 124.728 136.537C126.028 136.537 127.165 136.34 128.148 135.958C129.131 135.576 129.907 135.018 130.475 134.308C131.043 133.598 131.327 132.746 131.327 131.752C131.327 130.867 131.131 130.124 130.748 129.534C130.366 128.944 129.765 128.463 128.946 128.091Z" fill="#F85600"/>
<path d="M50.4871 49.764C50.1921 50.2338 51.0443 48.9009 51.0989 48.6714C51.2082 48.2672 51.2847 47.7537 51.2847 47.3385C51.2847 46.6829 51.0661 45.9837 50.8367 45.3718C50.5745 44.6726 50.2576 43.9733 49.9299 43.2959C49.9299 43.2741 49.8971 43.2413 49.8862 43.2085C49.8424 43.1102 49.7769 42.9791 49.7441 42.9135C49.6676 42.6622 49.5256 42.1706 49.5912 42.6622C49.3399 40.7174 48.0178 39.166 45.8982 39.461C43.7568 39.756 42.9155 41.6024 43.1886 43.5363C43.3634 44.8255 43.9862 46.0383 44.6854 47.12C44.8275 47.3385 44.9804 47.557 45.1225 47.7864C45.1225 47.7864 45.483 48.3874 45.4393 48.2672C45.6251 48.6496 45.7999 49.032 46.0075 49.3816C46.0621 49.469 46.1058 49.5674 46.1604 49.6548C46.9799 51.1079 49.3945 51.5012 50.4762 49.764H50.4871Z" fill="#EF6124"/>
<path d="M26.6687 51.4138C25.8602 51.392 26.5267 51.4138 26.778 51.4794C26.778 51.4794 26.7889 51.4794 26.7998 51.4794C26.7998 51.4794 26.8217 51.4903 26.8326 51.5012C27.2041 51.7307 27.6193 51.9164 28.0126 52.1022C29.3783 52.7686 30.6457 53.0636 32.1644 52.8014C34.5681 52.3753 34.9396 48.6387 32.8418 47.5898C31.0391 46.672 29.5641 45.2954 27.5647 44.7491C25.5761 44.2028 23.5986 45.5794 23.3254 47.5679C23.0523 49.6111 24.6147 51.3592 26.6578 51.4138H26.6687Z" fill="#EF6124"/>
<path d="M29.2363 34.5662C30.1759 34.8502 31.1593 34.9158 32.1317 35.0251C32.088 35.0251 32.6124 35.1015 32.667 35.1125C32.8855 35.1562 33.0931 35.2108 33.3116 35.2654C33.4428 35.2982 33.5848 35.3419 33.7159 35.3747C34.7648 36.1613 36.1524 36.1941 37.2231 35.3856C38.2829 34.588 38.7746 32.8399 37.9661 31.6818C36.6003 29.7151 33.989 28.7973 31.5526 28.6116C30.8424 28.1746 29.8919 28.0325 29.1489 28.2401C27.9034 28.5788 27.0293 29.7697 27.0074 31.0481C27.0074 31.2447 27.0074 31.4305 27.0074 31.6271C27.0074 32.9819 27.958 34.1728 29.2363 34.5552V34.5662Z" fill="#EF6124"/>
</svg>
