<svg width="125" height="120" viewBox="0 0 125 120" fill="none" xmlns="http://www.w3.org/2000/svg">
<path d="M52.7398 56.2551L64.4706 68.365C65.6188 65.7329 68.7275 61.0969 76.6238 59.6888C75.0424 56.3851 69.854 48.8029 56.3684 51.9766C56.076 52.0416 55.7727 51.9874 55.5236 51.8358C55.3611 51.7383 54.1479 50.9259 52.8481 49.6261C52.0574 51.7708 50.4543 53.3631 48.1688 54.3054C49.4686 54.9228 50.8551 55.4861 52.3174 55.9952C52.4798 56.0493 52.6315 56.1468 52.7506 56.266L52.7398 56.2551Z" fill="white"/>
<path d="M51.1259 47.6114C50.2918 46.4307 49.7719 45.2393 49.5769 44.0803C49.4361 43.2354 49.4578 42.4122 49.6636 41.6106C43.8361 41.4915 40.2616 39.1843 38.1711 36.9746C36.6547 43.6253 39.1026 48.9654 45.45 52.8323C48.797 52.1716 50.6601 50.4602 51.1367 47.6006L51.1259 47.6114Z" fill="white"/>
<path d="M50.6709 39.4226C50.7359 39.3251 50.8118 39.2276 50.8876 39.1301C51.7108 38.0686 52.8265 37.1913 54.1263 36.5955C55.3828 36.0323 56.7042 35.7506 58.0474 35.7506H68.1317C73.0277 35.7506 77.4687 33.0535 79.7325 28.7208L83.5236 21.4852H58.0907C56.3793 21.4852 54.657 21.7127 52.9564 22.146C53.0973 25.6771 53.9746 30.1398 57.1917 32.1978C57.4408 32.3495 57.6033 32.5986 57.6683 32.8802C57.7332 33.1618 57.6683 33.4543 57.5166 33.7034C57.2025 34.1909 56.5093 34.3425 56.011 34.0284C52.1874 31.5696 51.0501 26.717 50.8118 22.8067C45.3309 24.8647 40.9332 29.1866 38.9293 34.4941C40.7491 36.8771 44.226 39.5742 50.6818 39.4118L50.6709 39.4226ZM72.3886 24.4423C73.8834 24.4423 75.0965 25.6554 75.0965 27.1502C75.0965 28.645 73.8834 29.8582 72.3886 29.8582C70.8938 29.8582 69.6807 28.645 69.6807 27.1502C69.6807 25.6554 70.8938 24.4423 72.3886 24.4423Z" fill="white"/>
<path d="M64.1456 71.1705C64.3514 71.3763 64.6331 71.4954 64.9255 71.4954C65.0338 71.4954 65.1422 71.4846 65.2396 71.4521C65.6296 71.3329 65.9221 71.008 65.9979 70.5964C66.052 70.2823 67.5035 62.9492 78.2919 61.6385C78.6169 61.5952 78.8985 61.4219 79.0718 61.1511C79.2451 60.8803 79.2993 60.5445 79.2018 60.2412C79.1584 60.1004 74.7066 45.6834 56.3468 49.7344C55.3286 48.987 52.1982 46.4849 51.7216 43.7011C51.5266 42.5638 51.8299 41.4698 52.6098 40.4516C52.8806 40.0942 53.1947 39.7692 53.5522 39.4876C53.8446 41.394 54.852 44.4269 58.264 45.7592C58.8056 45.9758 59.4663 45.6833 59.6721 45.1418C59.7804 44.871 59.7696 44.5785 59.6505 44.3077C59.5313 44.0369 59.3147 43.8311 59.0439 43.7336C56.0868 42.5855 55.6535 39.6717 55.6102 38.3611C56.206 38.1553 56.8234 38.0253 57.4624 37.9711L60.2137 42.3147C61.871 44.936 64.7089 46.4957 67.8068 46.4957H69.5832C70.1898 46.4957 70.6772 46.0083 70.6772 45.4017C70.6772 44.7952 70.1898 44.3077 69.5832 44.3077H67.8068C65.4563 44.3077 63.3116 43.1271 62.0551 41.1448L60.0187 37.9386H62.2068L62.5425 38.4477C64.2106 40.9499 67.0052 42.4447 70.0164 42.4447H73.8076C74.4141 42.4447 74.9016 41.9572 74.9016 41.3507C74.9016 40.7441 74.4141 40.2566 73.8076 40.2566H70.0164C68.0342 40.2566 66.182 39.4009 64.893 37.9386H81.9314C87.8455 37.9386 93.2506 34.6566 95.7094 29.5765C97.9407 24.9405 98.5256 17.9649 88.6037 11.0542C88.1163 10.7076 87.4339 10.8376 87.0873 11.325C86.9248 11.5633 86.8598 11.8558 86.9032 12.1374C86.9573 12.419 87.1089 12.679 87.3581 12.8415C94.3121 17.6833 96.4676 23.0017 93.7488 28.6233C91.6583 32.956 87.0223 35.7615 81.9422 35.7615H75.9956C78.3894 34.3208 80.3608 32.2411 81.6714 29.739L86.2857 20.9003C86.459 20.5645 86.4482 20.1529 86.2532 19.828C86.0583 19.503 85.7008 19.2972 85.3217 19.2972H58.0907C56.0002 19.2972 53.8663 19.6005 51.7433 20.2071C51.6025 20.2179 51.4617 20.2721 51.3208 20.3479C43.6411 22.7309 37.792 28.8833 36.0481 36.4222C34.8133 41.7514 35.2898 49.2687 44.5402 54.8362C44.6268 54.912 44.7243 54.9662 44.8326 55.0095C46.7282 56.1252 48.927 57.1217 51.3533 57.9666L64.1456 71.1705ZM50.8009 22.8067C51.0501 26.7061 52.1874 31.5587 56.0002 34.0284C56.4984 34.3425 57.1917 34.1909 57.5058 33.7034C57.6683 33.4543 57.7224 33.1618 57.6574 32.8802C57.5924 32.5986 57.43 32.3495 57.1808 32.1978C53.9746 30.129 53.0973 25.6771 52.9456 22.146C54.6462 21.7127 56.3793 21.4852 58.0799 21.4852H83.5128L79.7217 28.7208C77.4579 33.0535 73.006 35.7506 68.1209 35.7506H58.0365C56.6934 35.7506 55.3719 36.0323 54.1154 36.5955C52.8156 37.1804 51.7 38.0578 50.8767 39.1301C50.8009 39.2276 50.7359 39.3251 50.6601 39.4226C44.2044 39.5851 40.7274 36.8988 38.9077 34.505C40.9115 29.1866 45.3092 24.8756 50.7901 22.8175L50.8009 22.8067ZM38.1603 36.9746C40.2508 39.1843 43.8253 41.4915 49.6528 41.6106C49.4578 42.4122 49.4253 43.2354 49.5661 44.0803C49.7611 45.2393 50.281 46.4307 51.115 47.6114C50.6384 50.4602 48.7754 52.1716 45.4284 52.8431C39.081 48.9654 36.633 43.6362 38.1494 36.9855L38.1603 36.9746ZM52.8481 49.6153C54.1479 50.9151 55.3719 51.7166 55.5236 51.825C55.7727 51.9874 56.076 52.0416 56.3684 51.9658C69.8648 48.7921 75.0532 56.3743 76.6238 59.678C68.7275 61.0969 65.6188 65.7221 64.4706 68.3542L52.7398 56.2443C52.6207 56.1252 52.4798 56.0277 52.3065 55.9735C50.8442 55.4753 49.4578 54.9012 48.158 54.2838C50.4543 53.3414 52.0466 51.7491 52.8373 49.6044L52.8481 49.6153Z" fill="#00DCE9"/>
<path d="M72.3886 29.8582C73.8834 29.8582 75.0965 28.645 75.0965 27.1502C75.0965 25.6554 73.8834 24.4423 72.3886 24.4423C70.8938 24.4423 69.6807 25.6554 69.6807 27.1502C69.6807 28.645 70.8938 29.8582 72.3886 29.8582Z" fill="#F85600"/>
<path d="M49.4361 81.2115L47.4214 86.9307H51.4508L49.4361 81.2115Z" fill="white"/>
<path d="M124.013 108.865C124.089 108.486 124.121 108.096 124.121 107.706V105.821C124.121 105.366 124.067 104.911 123.969 104.478C124.381 103.655 124.598 102.745 124.598 101.792V99.7555C124.598 98.1632 123.98 96.6684 122.843 95.5202C121.727 94.4154 120.232 93.798 118.64 93.798H108.523C108.003 93.798 107.494 93.8846 107.007 94.0146C106.519 93.8846 106.032 93.798 105.512 93.798H102.804C101.364 93.798 100.02 94.2638 98.9589 95.1086C97.8865 94.2529 96.5434 93.798 95.1136 93.798H92.4273C91.9074 93.798 91.4092 93.8846 90.9217 94.0146C90.4235 93.8846 89.9252 93.798 89.3945 93.798H87.8455C87.9972 93.2672 88.0946 92.7365 88.0946 92.1732V90.0069C88.0946 88.4796 87.5314 87.0282 86.4807 85.9016C85.3434 84.6885 83.8053 84.0277 82.1372 84.0277H80.989V78.092C80.989 76.4997 80.3716 75.0049 79.2451 73.8567C78.7902 73.4126 78.2702 73.066 77.7178 72.7844C78.2053 72.6328 78.8227 72.4811 79.635 72.3836C83.112 71.9503 86.2207 70.0115 88.138 67.0652C90.066 64.1082 90.586 60.4687 89.5894 57.1867C88.777 54.4137 87.2389 51.3809 84.9643 48.5754C93.803 47.5572 101.645 42.163 105.458 34.2559C107.548 29.9231 112.964 14.802 94.7995 2.1397C89.4161 -1.61892 81.9747 -0.297442 78.1944 5.09677C77.4687 6.13662 76.9271 7.26312 76.5588 8.44378H58.069C55.1553 8.44378 52.1874 8.84456 49.2628 9.62444C48.6454 9.75443 48.0388 9.9494 47.4539 10.1769C36.4164 13.838 28.0217 22.8933 25.4655 33.9634C23.1908 43.8095 25.8879 52.8106 32.896 59.5263C32.961 59.418 33.0152 59.3422 32.9935 59.3964C33.2318 58.9198 33.4051 58.4323 33.7192 58.0207C34.5316 56.5801 36.9254 56.1902 37.9978 57.9124C37.7053 57.4466 38.5502 58.7681 38.6044 58.9956C38.7127 59.3964 38.7885 59.9054 38.7885 60.317C38.7885 60.967 38.5719 61.6602 38.3444 62.2668C38.1928 62.6567 38.0303 63.0358 37.8678 63.4258C38.1061 63.5774 38.3227 63.7399 38.561 63.8807C38.9293 64.1298 39.3193 64.3573 39.7092 64.5631C41.4098 65.5271 43.2512 66.4262 45.2226 67.2277L49.9669 72.1237H47.8005C46.2299 72.1237 44.7351 72.6761 43.6195 73.6834C42.7854 74.4308 42.168 75.3624 41.8322 76.4022L36.7846 90.2019C36.7196 90.3643 36.6763 90.5376 36.633 90.7001C36.503 91.1984 36.438 91.7183 36.438 92.2491C36.438 92.7798 36.5355 93.2781 36.6655 93.7655C35.8748 93.6355 35.0624 93.5705 34.2283 93.5705C32.1161 93.5705 30.1881 93.9605 28.4983 94.7295C28.325 94.8054 28.1734 94.9137 28.0109 94.9895C26.9819 94.2204 25.7579 93.7872 24.4364 93.7872H21.8368C20.6778 93.7872 19.5621 94.1121 18.609 94.7187C17.6449 94.1121 16.4859 93.7872 15.2728 93.7872H12.9764C12.2615 93.7872 11.5791 93.928 10.9292 94.1663C10.2685 93.928 9.57527 93.7872 8.86037 93.7872H5.95746C4.3652 93.7872 2.87041 94.4046 1.73308 95.5311C0.61741 96.6467 0 98.1524 0 99.7446V113.826C0 115.342 0.574083 116.794 1.59227 117.888C2.7296 119.112 4.27854 119.783 5.95746 119.783H8.86037C9.57527 119.783 10.2577 119.643 10.8967 119.404C11.5466 119.643 12.2507 119.783 12.9764 119.783H15.5761C16.7459 119.783 17.8507 119.458 18.8039 118.841C19.768 119.458 20.9053 119.783 22.1184 119.783H24.4364C25.7579 119.783 27.0036 119.361 28.0109 118.592C28.1626 118.668 28.3142 118.765 28.4767 118.841C30.1664 119.61 32.1053 120 34.2283 120C35.6906 120 37.0988 119.805 38.3986 119.426C39.0701 119.231 39.6984 118.982 40.305 118.689C41.3015 119.404 42.493 119.783 43.7603 119.783H53.7255C54.8195 119.783 55.8594 119.491 56.7584 118.96C58.3832 119.653 60.2245 120 62.2393 120C64.254 120 66.1603 119.632 67.8284 118.906C68.4567 118.624 69.0416 118.278 69.594 117.888C70.1789 118.278 70.8072 118.646 71.5004 118.938C73.1577 119.653 75.0315 120 77.2412 120C79.2018 120 81.0107 119.686 82.6138 119.047C82.8196 118.971 82.9929 118.863 83.1879 118.776C84.1519 119.426 85.2892 119.773 86.4915 119.773H89.3945C90.8459 119.773 92.189 119.242 93.2722 118.321C94.3879 119.253 95.8068 119.773 97.3016 119.773H100.616C102.122 119.773 103.53 119.253 104.646 118.343C105.718 119.274 107.072 119.773 108.523 119.773H118.813C120.492 119.773 122.041 119.101 123.157 117.899C124.197 116.783 124.771 115.342 124.771 113.815V111.779C124.771 110.739 124.511 109.732 124.002 108.843L124.013 108.865ZM54.2887 113.837C54.2887 113.978 54.2346 114.108 54.1371 114.216C54.0396 114.324 53.9096 114.378 53.7472 114.378H43.7819C43.6195 114.378 43.4895 114.324 43.392 114.216C43.2945 114.108 43.2404 113.978 43.2404 113.837V99.7555C43.2404 99.593 43.2945 99.463 43.392 99.3655C43.4895 99.268 43.6195 99.2139 43.7819 99.2139H46.6415C46.804 99.2139 46.934 99.268 47.0315 99.3655C47.129 99.463 47.1831 99.593 47.1831 99.7555V111.107H53.7472C53.9096 111.107 54.0396 111.161 54.1371 111.27C54.2346 111.378 54.2887 111.508 54.2887 111.67V113.837ZM69.7565 92.1732C69.7565 92.314 69.7023 92.444 69.6048 92.5523C69.5074 92.6607 69.3774 92.7148 69.2149 92.7148H59.2497C59.0872 92.7148 58.9572 92.6607 58.8597 92.5523C58.7623 92.444 58.7081 92.314 58.7081 92.1732V78.092C58.7081 77.9295 58.7623 77.7995 58.8597 77.702C58.9572 77.6045 59.0872 77.5504 59.2497 77.5504H62.1093C62.2717 77.5504 62.4017 77.6045 62.4992 77.702C62.5967 77.7995 62.6509 77.9295 62.6509 78.092V89.4436H69.2149C69.3774 89.4436 69.5074 89.4978 69.6048 89.6061C69.7023 89.7144 69.7565 89.8444 69.7565 90.0069V92.1732ZM82.148 89.4436C82.3105 89.4436 82.4405 89.4978 82.538 89.6061C82.6354 89.7144 82.6896 89.8444 82.6896 90.0069V92.1732C82.6896 92.314 82.6354 92.444 82.538 92.5523C82.4405 92.6607 82.3105 92.7148 82.148 92.7148H72.1828C72.0203 92.7148 71.8903 92.6607 71.7929 92.5523C71.6954 92.444 71.6412 92.314 71.6412 92.1732V78.092C71.6412 77.9295 71.6954 77.7995 71.7929 77.702C71.8903 77.6045 72.0203 77.5504 72.1828 77.5504H75.0424C75.2049 77.5504 75.3348 77.6045 75.4323 77.702C75.5298 77.7995 75.584 77.9295 75.584 78.092V89.4436H82.148ZM44.8326 55.0095C44.7243 54.9662 44.6268 54.912 44.5402 54.8362C35.2898 49.2795 34.8133 41.7514 36.0481 36.4222C37.792 28.8833 43.6411 22.72 51.3208 20.3479C51.4617 20.2721 51.6025 20.2287 51.7433 20.2071C53.8771 19.6005 56.011 19.2972 58.0907 19.2972H85.3217C85.7008 19.2972 86.0583 19.503 86.2532 19.828C86.4482 20.1529 86.459 20.5645 86.2857 20.9003L81.6714 29.739C80.3608 32.2411 78.3894 34.3208 75.9956 35.7615H81.9422C87.0223 35.7615 91.6583 32.9669 93.7488 28.6233C96.4676 23.0017 94.3121 17.6833 87.3581 12.8415C87.1198 12.679 86.9573 12.4299 86.9032 12.1374C86.849 11.8558 86.914 11.5633 87.0873 11.325C87.4339 10.8376 88.1163 10.7076 88.6037 11.0542C98.5256 17.9649 97.9515 24.9405 95.7094 29.5765C93.2506 34.6566 87.8455 37.9386 81.9314 37.9386H64.893C66.182 39.4118 68.0342 40.2566 70.0164 40.2566H73.8076C74.4141 40.2566 74.9016 40.7441 74.9016 41.3507C74.9016 41.9572 74.4141 42.4447 73.8076 42.4447H70.0164C67.0052 42.4447 64.2106 40.9499 62.5425 38.4477L62.2068 37.9386H60.0187L62.0551 41.1448C63.3116 43.1271 65.4563 44.3077 67.8068 44.3077H69.5832C70.1898 44.3077 70.6772 44.7952 70.6772 45.4017C70.6772 46.0083 70.1898 46.4957 69.5832 46.4957H67.8068C64.7089 46.4957 61.871 44.936 60.2137 42.3147L57.4624 37.9711C56.8234 38.0145 56.206 38.1445 55.6102 38.3611C55.6535 39.6717 56.0977 42.5855 59.0439 43.7336C59.3147 43.842 59.5313 44.0478 59.6505 44.3077C59.7696 44.5785 59.7696 44.871 59.6721 45.1418C59.4555 45.6942 58.8056 45.9758 58.264 45.7592C54.852 44.4269 53.8446 41.4048 53.5522 39.4876C53.1947 39.78 52.8806 40.105 52.6098 40.4516C51.8299 41.4698 51.5266 42.5638 51.7216 43.7011C52.1982 46.4849 55.3286 48.987 56.3468 49.7344C74.7174 45.6834 79.1584 60.1004 79.2018 60.2412C79.2884 60.5445 79.2451 60.8803 79.0718 61.1511C78.8985 61.4219 78.6169 61.5952 78.2919 61.6385C67.5035 62.9492 66.052 70.2931 65.9979 70.5964C65.9221 70.9972 65.6404 71.3221 65.2396 71.4521C65.1313 71.4846 65.023 71.4954 64.9255 71.4954C64.6331 71.4954 64.3514 71.3763 64.1456 71.1705L51.3533 57.9666C48.9162 57.1109 46.7282 56.1143 44.8326 55.0095ZM41.8972 92.0649L46.9881 78.1569C47.0315 77.9945 47.1181 77.8537 47.2589 77.7345C47.3998 77.6154 47.5839 77.5504 47.833 77.5504H51.0392C51.2883 77.5504 51.4725 77.6154 51.6133 77.7345C51.7541 77.8537 51.8408 77.9945 51.8841 78.1569L56.9534 92.0649C56.9859 92.1191 56.9967 92.1841 56.9967 92.2599C56.9967 92.379 56.9534 92.4765 56.8559 92.574C56.7584 92.6715 56.6501 92.7148 56.5201 92.7148H53.8555C53.6388 92.7148 53.4764 92.6607 53.368 92.5523C53.2597 92.444 53.1947 92.3465 53.1622 92.2599L52.3174 90.0502H46.5332L45.71 92.2599C45.6775 92.3465 45.6125 92.444 45.515 92.5523C45.4175 92.6607 45.2442 92.7148 44.9951 92.7148H42.3305C42.2113 92.7148 42.1139 92.6715 42.0164 92.574C41.9189 92.4765 41.8756 92.379 41.8756 92.2599C41.8756 92.1841 41.8756 92.1191 41.8972 92.0649ZM5.58918 114.216C5.4917 114.108 5.43754 113.978 5.43754 113.837V99.7555C5.43754 99.593 5.4917 99.463 5.58918 99.3655C5.68667 99.268 5.81665 99.2139 5.97913 99.2139H8.88204C9.04451 99.2139 9.1745 99.268 9.28281 99.3655C9.39113 99.463 9.44529 99.593 9.44529 99.7555V113.837C9.44529 113.978 9.39113 114.108 9.28281 114.216C9.1745 114.324 9.04451 114.378 8.88204 114.378H5.97913C5.81665 114.378 5.68667 114.324 5.58918 114.216ZM21.631 114.205C21.5227 114.086 21.4577 114.01 21.4252 113.967L16.1393 105.951V113.837C16.1393 113.978 16.0852 114.108 15.9877 114.216C15.8902 114.324 15.7602 114.378 15.5977 114.378H12.9981C12.8356 114.378 12.7056 114.324 12.6082 114.216C12.5107 114.108 12.4565 113.978 12.4565 113.837V99.7555C12.4565 99.593 12.5107 99.463 12.6082 99.3655C12.7056 99.268 12.8356 99.2139 12.9981 99.2139H15.2944C15.5436 99.2139 15.7169 99.268 15.8252 99.3764C15.9335 99.4847 15.9985 99.5713 16.031 99.6255L21.3169 107.944V99.7555C21.3169 99.593 21.371 99.463 21.4685 99.3655C21.566 99.268 21.696 99.2139 21.8585 99.2139H24.4581C24.6206 99.2139 24.7506 99.268 24.848 99.3655C24.9455 99.463 24.9997 99.593 24.9997 99.7555V113.815C24.9997 113.978 24.9455 114.108 24.848 114.216C24.7506 114.324 24.6206 114.378 24.4581 114.378H22.1401C21.9126 114.378 21.7393 114.324 21.631 114.205ZM34.25 114.595C32.896 114.595 31.7262 114.368 30.7405 113.923C29.7548 113.479 28.9966 112.819 28.455 111.952C27.9134 111.085 27.6101 110.013 27.556 108.724C27.5451 108.128 27.5343 107.5 27.5343 106.818C27.5343 106.135 27.5343 105.485 27.556 104.868C27.6101 103.612 27.9134 102.539 28.4658 101.662C29.0183 100.784 29.7765 100.113 30.7622 99.6688C31.7479 99.2247 32.9069 98.9972 34.25 98.9972C35.2032 98.9972 36.0806 99.1164 36.893 99.3547C37.7053 99.593 38.4094 99.9396 39.016 100.395C39.6226 100.849 40.0992 101.402 40.4349 102.041C40.7707 102.68 40.9549 103.406 40.9657 104.218C40.9765 104.348 40.944 104.456 40.8465 104.543C40.7491 104.63 40.6407 104.673 40.5108 104.673H37.5862C37.402 104.673 37.2504 104.63 37.1529 104.554C37.0554 104.478 36.9688 104.326 36.893 104.11C36.6871 103.341 36.3622 102.821 35.9073 102.539C35.4523 102.258 34.8891 102.117 34.2283 102.117C33.4376 102.117 32.8094 102.333 32.3436 102.778C31.8778 103.222 31.6287 103.947 31.5854 104.976C31.5421 106.157 31.5421 107.37 31.5854 108.616C31.6287 109.645 31.8778 110.371 32.3436 110.815C32.8094 111.259 33.4376 111.475 34.2283 111.475C34.8891 111.475 35.4523 111.335 35.9181 111.042C36.3839 110.75 36.7088 110.23 36.893 109.482C36.9471 109.266 37.0338 109.114 37.1421 109.038C37.2504 108.962 37.402 108.919 37.5862 108.919H40.5108C40.6407 108.919 40.7491 108.962 40.8465 109.049C40.944 109.136 40.9765 109.244 40.9657 109.374C40.9549 110.186 40.7707 110.912 40.4349 111.551C40.0992 112.19 39.6226 112.743 39.016 113.198C38.4094 113.653 37.7053 113.999 36.893 114.238C36.0806 114.476 35.2032 114.595 34.25 114.595ZM62.2609 114.595C60.9503 114.595 59.8021 114.378 58.8273 113.956C57.8524 113.533 57.0942 112.873 56.5634 111.985C56.0327 111.096 55.7619 109.97 55.7619 108.594V99.7555C55.7619 99.593 55.816 99.463 55.9135 99.3655C56.011 99.268 56.141 99.2139 56.3035 99.2139H59.098C59.2605 99.2139 59.3905 99.268 59.4988 99.3655C59.6071 99.463 59.6613 99.593 59.6613 99.7555V108.573C59.6613 109.515 59.8888 110.219 60.3329 110.685C60.777 111.15 61.416 111.389 62.2393 111.389C63.0625 111.389 63.6799 111.15 64.1348 110.685C64.5897 110.219 64.8172 109.515 64.8172 108.573V99.7555C64.8172 99.593 64.8714 99.463 64.9797 99.3655C65.088 99.268 65.218 99.2139 65.3588 99.2139H68.175C68.3159 99.2139 68.4458 99.268 68.5542 99.3655C68.6625 99.463 68.7166 99.593 68.7166 99.7555V108.594C68.7166 109.97 68.4458 111.096 67.9151 111.985C67.3843 112.873 66.6261 113.533 65.6621 113.956C64.6981 114.378 63.5607 114.595 62.2609 114.595ZM73.6559 113.978C72.7027 113.566 71.977 113.024 71.4896 112.364C71.0021 111.703 70.7422 110.988 70.7097 110.241C70.7097 110.121 70.753 110.024 70.8505 109.926C70.948 109.829 71.0563 109.786 71.1863 109.786H73.9159C74.1217 109.786 74.2733 109.818 74.3816 109.894C74.49 109.97 74.5874 110.056 74.6741 110.176C74.7933 110.392 74.9557 110.598 75.1615 110.804C75.3673 111.01 75.649 111.172 75.9956 111.291C76.3422 111.41 76.7646 111.475 77.2521 111.475C78.0861 111.475 78.7252 111.345 79.1476 111.085C79.5701 110.826 79.7867 110.468 79.7867 110.024C79.7867 109.688 79.6675 109.428 79.4401 109.222C79.2126 109.017 78.8335 108.832 78.3244 108.67C77.8153 108.508 77.1329 108.334 76.2772 108.161C75.1832 107.933 74.2408 107.63 73.4718 107.262C72.7027 106.894 72.107 106.406 71.7062 105.81C71.3054 105.215 71.0996 104.467 71.0996 103.568C71.0996 102.669 71.3487 101.9 71.847 101.207C72.3453 100.514 73.0385 99.9721 73.9375 99.5821C74.8366 99.1922 75.8981 98.9972 77.1221 98.9972C78.1186 98.9972 78.996 99.1272 79.7542 99.3872C80.5124 99.6471 81.1515 99.9938 81.6714 100.427C82.1913 100.86 82.5813 101.315 82.8521 101.803C83.1229 102.29 83.2637 102.756 83.2745 103.222C83.2745 103.341 83.2312 103.438 83.1554 103.536C83.0795 103.633 82.9604 103.677 82.8196 103.677H79.96C79.7975 103.677 79.6675 103.644 79.5484 103.59C79.4292 103.536 79.3318 103.438 79.2451 103.308C79.1584 102.994 78.931 102.713 78.5627 102.474C78.1944 102.236 77.7178 102.117 77.1221 102.117C76.483 102.117 75.9956 102.225 75.6381 102.453C75.2807 102.68 75.1074 103.016 75.1074 103.482C75.1074 103.774 75.2049 104.023 75.3998 104.24C75.5948 104.456 75.9198 104.641 76.3747 104.803C76.8296 104.966 77.4579 105.128 78.2486 105.301C79.5592 105.55 80.6207 105.854 81.4331 106.222C82.2455 106.59 82.8412 107.067 83.2204 107.652C83.5995 108.237 83.7944 108.973 83.7944 109.851C83.7944 110.836 83.5128 111.681 82.9496 112.385C82.3863 113.089 81.6173 113.642 80.6424 114.021C79.6675 114.4 78.541 114.595 77.2521 114.595C75.8114 114.595 74.6091 114.389 73.6559 113.978ZM89.8061 114.216C89.6977 114.324 89.5678 114.378 89.4053 114.378H86.5024C86.3399 114.378 86.2099 114.324 86.1124 114.216C86.015 114.108 85.9608 113.978 85.9608 113.837V99.7555C85.9608 99.593 86.015 99.463 86.1124 99.3655C86.2099 99.268 86.3399 99.2139 86.5024 99.2139H89.4053C89.5678 99.2139 89.6977 99.268 89.8061 99.3655C89.9144 99.463 89.9685 99.593 89.9685 99.7555V113.837C89.9685 113.978 89.9144 114.108 89.8061 114.216ZM101.234 114.183C101.093 114.313 100.887 114.378 100.627 114.378H97.3125C97.0633 114.378 96.8684 114.313 96.7275 114.183C96.5867 114.053 96.4784 113.902 96.4243 113.728L92.0049 99.8638C91.9724 99.788 91.9616 99.723 91.9616 99.6688C91.9616 99.5497 92.0049 99.4522 92.1024 99.3547C92.1999 99.2572 92.3082 99.2139 92.4382 99.2139H95.1245C95.3519 99.2139 95.5361 99.2789 95.666 99.4088C95.796 99.5388 95.8718 99.658 95.9043 99.7771L98.9806 109.786L102.035 99.7771C102.078 99.658 102.165 99.5388 102.284 99.4088C102.403 99.2789 102.588 99.2139 102.815 99.2139H105.523C105.642 99.2139 105.74 99.2572 105.837 99.3547C105.935 99.4522 105.978 99.5497 105.978 99.6688C105.978 99.723 105.967 99.788 105.935 99.8638L101.515 113.728C101.472 113.902 101.374 114.053 101.234 114.183ZM119.366 113.837C119.366 113.978 119.312 114.108 119.214 114.216C119.117 114.324 118.987 114.378 118.824 114.378H108.534C108.372 114.378 108.242 114.324 108.144 114.216C108.047 114.108 107.993 113.978 107.993 113.837V99.7555C107.993 99.593 108.047 99.463 108.144 99.3655C108.242 99.268 108.372 99.2139 108.534 99.2139H118.651C118.813 99.2139 118.943 99.268 119.041 99.3655C119.138 99.463 119.193 99.593 119.193 99.7555V101.792C119.193 101.954 119.138 102.084 119.041 102.182C118.943 102.279 118.813 102.333 118.651 102.333H111.74V105.258H118.174C118.337 105.258 118.467 105.312 118.564 105.42C118.662 105.529 118.716 105.659 118.716 105.821V107.706C118.716 107.847 118.662 107.977 118.564 108.085C118.467 108.193 118.337 108.248 118.174 108.248H111.74V111.259H118.824C118.987 111.259 119.117 111.313 119.214 111.41C119.312 111.508 119.366 111.638 119.366 111.8V113.837Z" fill="white"/>
<path d="M42.3305 92.7148H44.9951C45.2442 92.7148 45.4175 92.6607 45.515 92.5523C45.6125 92.444 45.6775 92.3465 45.71 92.2599L46.5332 90.0502H52.3174L53.1622 92.2599C53.1947 92.3465 53.2597 92.444 53.368 92.5523C53.4764 92.6607 53.6388 92.7148 53.8555 92.7148H56.5201C56.6501 92.7148 56.7584 92.6715 56.8559 92.574C56.9534 92.4765 56.9967 92.379 56.9967 92.2599C56.9967 92.1841 56.9859 92.1191 56.9534 92.0649L51.8841 78.1569C51.8408 77.9945 51.7541 77.8537 51.6133 77.7345C51.4725 77.6154 51.2883 77.5504 51.0392 77.5504H47.833C47.5839 77.5504 47.3998 77.6154 47.2589 77.7345C47.1181 77.8537 47.0315 77.9945 46.9881 78.1569L41.8972 92.0649C41.8864 92.1191 41.8756 92.1841 41.8756 92.2599C41.8756 92.379 41.9189 92.4765 42.0164 92.574C42.1139 92.6715 42.2113 92.7148 42.3305 92.7148ZM49.4361 81.2115L51.4508 86.9307H47.4214L49.4361 81.2115Z" fill="#F85600"/>
<path d="M69.2149 89.4436H62.6509V78.092C62.6509 77.9295 62.5967 77.7995 62.4992 77.702C62.4017 77.6045 62.2717 77.5504 62.1093 77.5504H59.2497C59.0872 77.5504 58.9572 77.6045 58.8597 77.702C58.7623 77.7995 58.7081 77.9295 58.7081 78.092V92.1732C58.7081 92.314 58.7623 92.444 58.8597 92.5523C58.9572 92.6607 59.0872 92.7148 59.2497 92.7148H69.2149C69.3774 92.7148 69.5074 92.6607 69.6048 92.5523C69.7023 92.444 69.7565 92.314 69.7565 92.1732V90.0069C69.7565 89.8444 69.7023 89.7144 69.6048 89.6061C69.5074 89.4978 69.3774 89.4436 69.2149 89.4436Z" fill="#F85600"/>
<path d="M75.584 78.092C75.584 77.9295 75.5298 77.7995 75.4323 77.702C75.3348 77.6045 75.2049 77.5504 75.0424 77.5504H72.1828C72.0203 77.5504 71.8903 77.6045 71.7929 77.702C71.6954 77.7995 71.6412 77.9295 71.6412 78.092V92.1732C71.6412 92.314 71.6954 92.444 71.7929 92.5523C71.8903 92.6607 72.0203 92.7148 72.1828 92.7148H82.148C82.3105 92.7148 82.4405 92.6607 82.538 92.5523C82.6354 92.444 82.6896 92.314 82.6896 92.1732V90.0069C82.6896 89.8444 82.6354 89.7144 82.538 89.6061C82.4405 89.4978 82.3105 89.4436 82.148 89.4436H75.584V78.092Z" fill="#F85600"/>
<path d="M8.88204 114.378C9.04451 114.378 9.1745 114.324 9.28281 114.216C9.39113 114.108 9.44529 113.978 9.44529 113.837V99.7555C9.44529 99.593 9.39113 99.463 9.28281 99.3655C9.1745 99.268 9.04451 99.2139 8.88204 99.2139H5.97913C5.81665 99.2139 5.68667 99.268 5.58918 99.3655C5.4917 99.463 5.43754 99.593 5.43754 99.7555V113.837C5.43754 113.978 5.4917 114.108 5.58918 114.216C5.68667 114.324 5.81665 114.378 5.97913 114.378H8.88204Z" fill="#F85600"/>
<path d="M24.4581 114.378C24.6206 114.378 24.7506 114.324 24.848 114.216C24.9455 114.108 24.9997 113.978 24.9997 113.815V99.7555C24.9997 99.593 24.9455 99.463 24.848 99.3655C24.7506 99.268 24.6206 99.2139 24.4581 99.2139H21.8585C21.696 99.2139 21.566 99.268 21.4685 99.3655C21.371 99.463 21.3169 99.593 21.3169 99.7555V107.944L16.031 99.6255C15.9985 99.5713 15.9335 99.4847 15.8252 99.3764C15.7169 99.268 15.5436 99.2139 15.2944 99.2139H12.9981C12.8356 99.2139 12.7056 99.268 12.6082 99.3655C12.5107 99.463 12.4565 99.593 12.4565 99.7555V113.837C12.4565 113.978 12.5107 114.108 12.6082 114.216C12.7056 114.324 12.8356 114.378 12.9981 114.378H15.5977C15.7602 114.378 15.8902 114.324 15.9877 114.216C16.0852 114.108 16.1393 113.978 16.1393 113.837V105.951L21.4252 113.967C21.4252 113.967 21.5227 114.086 21.631 114.205C21.7393 114.324 21.9126 114.378 22.1401 114.378H24.4581Z" fill="#F85600"/>
<path d="M39.016 113.198C39.6226 112.743 40.0992 112.19 40.4349 111.551C40.7707 110.912 40.9549 110.186 40.9657 109.374C40.9765 109.244 40.944 109.136 40.8465 109.049C40.7491 108.962 40.6407 108.919 40.5108 108.919H37.5862C37.402 108.919 37.2504 108.962 37.1421 109.038C37.0338 109.114 36.9471 109.266 36.893 109.482C36.7088 110.23 36.3839 110.75 35.9181 111.042C35.4523 111.335 34.8891 111.475 34.2283 111.475C33.4376 111.475 32.8094 111.259 32.3436 110.815C31.8778 110.371 31.6287 109.645 31.5854 108.616C31.5421 107.37 31.5421 106.157 31.5854 104.976C31.6287 103.947 31.8778 103.222 32.3436 102.778C32.8094 102.333 33.4376 102.117 34.2283 102.117C34.8891 102.117 35.4523 102.258 35.9073 102.539C36.3622 102.821 36.6871 103.341 36.893 104.11C36.9688 104.326 37.0554 104.478 37.1529 104.554C37.2504 104.63 37.402 104.673 37.5862 104.673H40.5108C40.6407 104.673 40.7491 104.63 40.8465 104.543C40.944 104.456 40.9765 104.348 40.9657 104.218C40.9549 103.406 40.7707 102.68 40.4349 102.041C40.0992 101.402 39.6226 100.849 39.016 100.395C38.4094 99.9396 37.7053 99.593 36.893 99.3547C36.0806 99.1164 35.2032 98.9972 34.25 98.9972C32.9069 98.9972 31.7479 99.2247 30.7622 99.6688C29.7765 100.113 29.0183 100.784 28.4658 101.662C27.9134 102.539 27.6101 103.612 27.556 104.868C27.5451 105.485 27.5343 106.135 27.5343 106.818C27.5343 107.5 27.5343 108.128 27.556 108.724C27.6101 110.013 27.9134 111.085 28.455 111.952C28.9966 112.819 29.7548 113.479 30.7405 113.923C31.7262 114.368 32.896 114.595 34.25 114.595C35.2032 114.595 36.0806 114.476 36.893 114.238C37.7053 113.999 38.4094 113.653 39.016 113.198Z" fill="#F85600"/>
<path d="M53.7472 111.107H47.1831V99.7555C47.1831 99.593 47.129 99.463 47.0315 99.3655C46.934 99.268 46.804 99.2139 46.6415 99.2139H43.7819C43.6195 99.2139 43.4895 99.268 43.392 99.3655C43.2945 99.463 43.2404 99.593 43.2404 99.7555V113.837C43.2404 113.978 43.2945 114.108 43.392 114.216C43.4895 114.324 43.6195 114.378 43.7819 114.378H53.7472C53.9096 114.378 54.0396 114.324 54.1371 114.216C54.2346 114.108 54.2887 113.978 54.2887 113.837V111.67C54.2887 111.508 54.2346 111.378 54.1371 111.27C54.0396 111.161 53.9096 111.107 53.7472 111.107Z" fill="#F85600"/>
<path d="M67.9151 111.985C68.4458 111.096 68.7166 109.97 68.7166 108.594V99.7555C68.7166 99.593 68.6625 99.463 68.5542 99.3655C68.4458 99.268 68.3159 99.2139 68.175 99.2139H65.3588C65.218 99.2139 65.088 99.268 64.9797 99.3655C64.8714 99.463 64.8172 99.593 64.8172 99.7555V108.573C64.8172 109.515 64.5897 110.219 64.1348 110.685C63.6799 111.15 63.0516 111.389 62.2393 111.389C61.4269 111.389 60.777 111.15 60.3329 110.685C59.8888 110.219 59.6613 109.515 59.6613 108.573V99.7555C59.6613 99.593 59.6071 99.463 59.4988 99.3655C59.3905 99.268 59.2605 99.2139 59.098 99.2139H56.3035C56.141 99.2139 56.011 99.268 55.9135 99.3655C55.816 99.463 55.7619 99.593 55.7619 99.7555V108.594C55.7619 109.97 56.0327 111.096 56.5634 111.985C57.0942 112.873 57.8524 113.533 58.8273 113.956C59.8021 114.378 60.9503 114.595 62.2609 114.595C63.5716 114.595 64.6981 114.378 65.6621 113.956C66.6261 113.533 67.3843 112.873 67.9151 111.985Z" fill="#F85600"/>
<path d="M80.6424 114.021C81.6173 113.642 82.3863 113.089 82.9496 112.385C83.5128 111.681 83.7944 110.836 83.7944 109.851C83.7944 108.973 83.5995 108.237 83.2204 107.652C82.8412 107.067 82.2455 106.59 81.4331 106.222C80.6207 105.854 79.5592 105.55 78.2486 105.301C77.4579 105.128 76.8296 104.966 76.3747 104.803C75.9198 104.641 75.5948 104.456 75.3998 104.24C75.2049 104.023 75.1074 103.774 75.1074 103.482C75.1074 103.016 75.2807 102.68 75.6381 102.453C75.9956 102.225 76.483 102.117 77.1221 102.117C77.7178 102.117 78.1944 102.236 78.5627 102.474C78.931 102.713 79.1584 102.994 79.2451 103.308C79.3318 103.438 79.4292 103.536 79.5484 103.59C79.6675 103.644 79.7975 103.677 79.96 103.677H82.8196C82.9604 103.677 83.0795 103.633 83.1554 103.536C83.2312 103.438 83.2745 103.341 83.2745 103.222C83.2637 102.756 83.1229 102.29 82.8521 101.803C82.5813 101.315 82.1913 100.86 81.6714 100.427C81.1515 99.9938 80.5124 99.6471 79.7542 99.3872C78.996 99.1272 78.1186 98.9972 77.1221 98.9972C75.8981 98.9972 74.8366 99.1922 73.9375 99.5821C73.0385 99.9721 72.3453 100.514 71.847 101.207C71.3487 101.9 71.0996 102.691 71.0996 103.568C71.0996 104.446 71.3054 105.215 71.7062 105.81C72.107 106.406 72.7027 106.894 73.4718 107.262C74.2408 107.63 75.1832 107.933 76.2772 108.161C77.1329 108.334 77.8153 108.508 78.3244 108.67C78.8335 108.832 79.2126 109.017 79.4401 109.222C79.6675 109.428 79.7867 109.688 79.7867 110.024C79.7867 110.468 79.5701 110.826 79.1476 111.085C78.7252 111.345 78.0861 111.475 77.2521 111.475C76.7646 111.475 76.3422 111.41 75.9956 111.291C75.649 111.172 75.3673 111.01 75.1615 110.804C74.9557 110.598 74.7933 110.392 74.6741 110.176C74.5874 110.056 74.49 109.97 74.3816 109.894C74.2733 109.818 74.1217 109.786 73.9159 109.786H71.1863C71.0563 109.786 70.948 109.829 70.8505 109.926C70.753 110.024 70.7097 110.121 70.7097 110.241C70.7422 110.988 71.0021 111.703 71.4896 112.364C71.977 113.024 72.7027 113.566 73.6559 113.978C74.6091 114.389 75.8114 114.595 77.2521 114.595C78.541 114.595 79.6675 114.4 80.6424 114.021Z" fill="#F85600"/>
<path d="M89.9685 99.7555C89.9685 99.593 89.9144 99.463 89.8061 99.3655C89.6977 99.268 89.5678 99.2139 89.4053 99.2139H86.5024C86.3399 99.2139 86.2099 99.268 86.1124 99.3655C86.015 99.463 85.9608 99.593 85.9608 99.7555V113.837C85.9608 113.978 86.015 114.108 86.1124 114.216C86.2099 114.324 86.3399 114.378 86.5024 114.378H89.4053C89.5678 114.378 89.6977 114.324 89.8061 114.216C89.9144 114.108 89.9685 113.978 89.9685 113.837V99.7555Z" fill="#F85600"/>
<path d="M105.935 99.8638C105.967 99.788 105.978 99.723 105.978 99.6688C105.978 99.5497 105.935 99.4522 105.837 99.3547C105.74 99.2572 105.642 99.2139 105.523 99.2139H102.815C102.588 99.2139 102.403 99.2789 102.284 99.4088C102.165 99.5388 102.078 99.658 102.035 99.7771L98.9806 109.786L95.9043 99.7771C95.8718 99.658 95.796 99.5388 95.666 99.4088C95.5361 99.2789 95.3519 99.2139 95.1245 99.2139H92.4382C92.3082 99.2139 92.1999 99.2572 92.1024 99.3547C92.0049 99.4522 91.9616 99.5497 91.9616 99.6688C91.9616 99.723 91.9724 99.788 92.0049 99.8638L96.4243 113.728C96.4784 113.902 96.5867 114.053 96.7275 114.183C96.8684 114.313 97.0633 114.378 97.3125 114.378H100.627C100.887 114.378 101.093 114.313 101.234 114.183C101.374 114.053 101.472 113.902 101.515 113.728L105.935 99.8638Z" fill="#F85600"/>
<path d="M118.824 111.259H111.74V108.248H118.174C118.337 108.248 118.467 108.193 118.564 108.085C118.662 107.977 118.716 107.847 118.716 107.706V105.821C118.716 105.659 118.662 105.529 118.564 105.42C118.467 105.312 118.337 105.258 118.174 105.258H111.74V102.333H118.651C118.813 102.333 118.943 102.279 119.041 102.182C119.138 102.084 119.193 101.954 119.193 101.792V99.7555C119.193 99.593 119.138 99.463 119.041 99.3655C118.943 99.268 118.813 99.2139 118.651 99.2139H108.534C108.372 99.2139 108.242 99.268 108.144 99.3655C108.047 99.463 107.993 99.593 107.993 99.7555V113.837C107.993 113.978 108.047 114.108 108.144 114.216C108.242 114.324 108.372 114.378 108.534 114.378H118.824C118.987 114.378 119.117 114.324 119.214 114.216C119.312 114.108 119.366 113.978 119.366 113.837V111.8C119.366 111.638 119.312 111.508 119.214 111.41C119.117 111.313 118.987 111.259 118.824 111.259Z" fill="#F85600"/>
<path d="M38.821 60.3279C38.821 59.9163 38.7452 59.4072 38.6369 59.0064C38.5719 58.7789 37.7378 57.4575 38.0303 57.9232C36.9579 56.201 34.5641 56.5909 33.7517 58.0315C33.4376 58.4432 33.2643 58.9306 33.026 59.4072C33.0477 59.3639 32.9935 59.4397 32.9285 59.5372C32.831 59.6888 32.7119 59.8838 32.7119 59.8838C32.5711 60.1112 32.4194 60.3279 32.2786 60.5445C31.5746 61.6169 30.968 62.8192 30.7947 64.0973C30.5239 66.0145 31.3688 67.8451 33.4809 68.1376C35.5823 68.4192 36.893 66.8811 37.1421 64.9639C37.0771 65.4405 37.2179 64.9639 37.2937 64.7147C37.3371 64.6389 37.4345 64.4331 37.4779 64.3356C37.6187 64.0323 37.7595 63.7399 37.8895 63.4366C38.0628 63.0575 38.2253 62.6675 38.3661 62.2776C38.5935 61.671 38.8102 60.9778 38.8102 60.3279H38.821Z" fill="#F85600"/>
<path d="M15.3053 62.895C17.2766 62.3534 18.7389 60.9886 20.537 60.0787C22.6059 59.0281 22.2484 55.3236 19.8654 54.912C18.3598 54.652 17.1033 54.9445 15.7494 55.6052C15.3594 55.7894 14.9478 55.9843 14.5795 56.201C14.5687 56.201 14.5579 56.2118 14.547 56.2226C14.547 56.2226 14.5362 56.2226 14.5254 56.2226C14.2763 56.2876 13.6155 56.2985 14.4171 56.2876C12.3915 56.3418 10.8426 58.0749 11.1134 60.1004C11.3842 62.0826 13.3447 63.4474 15.3161 62.895H15.3053Z" fill="#F85600"/>
<path d="M21.0028 72.2861C20.7861 72.3403 20.5803 72.3944 20.3637 72.4378C20.3095 72.4486 19.7896 72.5244 19.8329 72.5244C18.8689 72.6328 17.9049 72.7086 16.9625 72.9794C15.6952 73.3585 14.7528 74.5391 14.7528 75.8823C14.7528 76.0772 14.7528 76.2614 14.7528 76.4564C14.7745 77.7237 15.6411 78.9043 16.8759 79.2401C17.6124 79.4459 18.5548 79.3051 19.2589 78.8718C21.6743 78.6877 24.2523 77.7778 25.6171 75.8281C26.4186 74.6799 25.942 72.9469 24.8805 72.1562C23.819 71.3654 22.4434 71.3871 21.4035 72.167C21.2736 72.2103 21.1328 72.2428 21.0028 72.2753V72.2861Z" fill="#F85600"/>
</svg>
