<svg width="126" height="121" viewBox="0 0 126 121" fill="none" xmlns="http://www.w3.org/2000/svg">
<path d="M118.973 37.0999C118.355 33.728 117.217 30.5296 115.677 27.5914C115.276 27.6998 114.767 27.7757 114.355 27.7757C113.704 27.7757 113.01 27.5588 112.403 27.3312C111.709 27.0709 111.015 26.7565 110.343 26.4313C110.256 26.3879 110.04 26.2903 109.964 26.2469C109.714 26.171 109.226 26.0301 109.714 26.0952C107.784 25.8458 106.245 24.5339 106.538 22.4305C106.787 20.5549 108.251 19.6875 109.909 19.6983C107.698 17.454 105.171 15.5133 102.385 13.9629C101.55 14.917 99.9347 15.3181 98.8397 14.5484C97.7663 13.8003 97.0182 12.6835 96.5303 11.4258C94.286 10.6994 91.955 10.1682 89.5155 9.90795C87.9434 9.74532 86.393 9.69111 84.8425 9.74532V9.64774L77.7193 8.21659C77.6 8.08648 77.4699 7.9347 77.3182 7.76122C75.3774 5.44102 73.4801 3.84724 71.1924 2.58956C64.9799 -0.80401 57.9325 -0.446222 52.5657 3.10998C48.7602 2.17756 44.8028 1.91735 40.8346 2.37272C36.8881 2.82808 33.1042 3.95566 29.6239 5.71207C23.5957 3.47861 16.6676 4.7146 11.3984 9.42006C9.44682 11.1548 7.9723 13.1389 6.59536 15.8386C6.45441 16.1205 6.3243 16.359 6.21588 16.5433C4.16673 17.8986 2.52958 19.8718 1.61885 22.2354C0.0901156 26.2036 0.805692 30.7247 3.48368 34.0424C4.31852 35.0832 5.39189 36.1349 6.64957 37.1324C5.64125 39.7995 5.2401 42.7052 5.58704 45.6759C6.15083 50.5765 8.57945 54.9676 12.4501 58.0359C14.4342 59.608 16.6676 60.7464 19.0204 61.3969C22.9777 66.3626 28.1928 70.0272 34.0366 72.0872H28.3445C27.0869 72.0872 25.9051 72.4775 24.8968 73.1931C24.2896 72.9004 23.6499 72.651 22.9777 72.4558C21.6767 72.0764 20.2672 71.8812 18.8035 71.8812C16.6893 71.8812 14.7594 72.2715 13.0681 73.0413C11.1057 73.9412 9.5444 75.2965 8.41682 77.1071C7.37598 78.7768 6.79051 80.7392 6.69293 82.9293C6.69293 82.9726 6.69293 83.016 6.69293 83.0485C6.68209 83.7099 6.67125 84.4038 6.67125 85.1302C6.67125 85.8566 6.67125 86.5397 6.69293 87.1685C6.69293 87.2119 6.69293 87.2444 6.69293 87.2769C6.79051 89.4996 7.37598 91.4728 8.41682 93.1425C9.53356 94.9206 11.0948 96.2867 13.0572 97.1758C13.3283 97.295 13.6102 97.3926 13.8921 97.501C13.5776 97.8696 13.2741 98.26 13.003 98.6828C11.9297 100.342 11.3333 102.293 11.2358 104.483C11.2358 104.527 11.2358 104.57 11.2358 104.613C11.2249 105.286 11.2141 106.001 11.2141 106.738C11.2141 107.476 11.2141 108.191 11.2358 108.853C11.2358 108.896 11.2358 108.939 11.2358 108.972C11.3333 111.162 11.908 113.114 12.938 114.772C14.0439 116.561 15.6051 117.927 17.5784 118.838C19.2806 119.619 21.2321 120.02 23.3897 120.02C25.5473 120.02 27.5097 119.619 29.2444 118.827C29.3962 118.762 29.5372 118.665 29.689 118.589C30.719 119.369 31.955 119.803 33.2885 119.803H36.0858C37.1591 119.803 38.1891 119.521 39.089 119.001C40.0215 119.521 41.084 119.803 42.2224 119.803H45.1064C45.41 119.803 45.6919 119.76 45.9846 119.716C46.2773 119.76 46.5592 119.803 46.8628 119.803H49.5299C51.2755 119.803 52.8693 119.142 53.9752 117.949C54.0077 117.982 54.0294 118.014 54.0619 118.036C55.1895 119.174 56.7291 119.792 58.3879 119.792H61.0551C61.8465 119.792 62.6163 119.641 63.321 119.337C64.0366 119.63 64.7956 119.792 65.587 119.792H68.4493C69.8371 119.792 71.1382 119.326 72.179 118.48C73.2307 119.326 74.5209 119.792 75.9087 119.792H78.8144C79.9961 119.792 81.1129 119.445 82.067 118.827C82.1537 118.86 82.2188 118.914 82.3055 118.947C83.9643 119.662 85.84 120.009 88.0518 120.009C90.0142 120.009 91.8248 119.695 93.4295 119.055C95.2943 118.318 96.8339 117.212 97.994 115.748C99.0023 114.491 99.642 113.005 99.8913 111.401C99.9455 111.401 100.011 111.39 100.065 111.379C100.227 111.411 100.39 111.433 100.553 111.455C101.713 111.585 102.884 111.379 103.935 110.858C104.228 110.707 104.521 110.533 104.781 110.338L106.256 109.232C107.611 108.267 108.489 106.782 108.673 105.123C108.695 105.09 108.717 105.047 108.738 105.015C109.4 103.768 109.606 102.315 109.302 100.938C109.259 100.743 109.205 100.548 109.14 100.352L108.543 98.5961C108.489 98.4334 108.402 98.2925 108.337 98.1299H109.302C110.885 98.1299 112.371 97.5119 113.476 96.406C114.593 95.2892 115.2 93.8147 115.2 92.2534C115.2 91.5162 115.059 90.7789 114.788 90.0959L109.79 76.3915C109.443 75.3507 108.836 74.4183 107.99 73.6702C107.849 73.54 107.676 73.4425 107.524 73.3232C109.107 71.9354 110.571 70.4067 111.883 68.7262C118.897 66.6987 124.351 60.5946 125.153 52.8967C125.793 46.8252 123.321 40.9922 118.973 37.1324V37.0999ZM93.8631 82.5064C93.874 82.6365 93.8415 82.745 93.7439 82.8317C93.6463 82.9184 93.5379 82.9618 93.4078 82.9618H90.4804C90.2961 82.9618 90.1443 82.9184 90.0467 82.8425C89.9492 82.7666 89.8624 82.6149 89.7865 82.398C89.5805 81.6282 89.2553 81.1078 88.7999 80.8259C88.3445 80.544 87.7807 80.4031 87.1194 80.4031C86.3279 80.4031 85.6991 80.6199 85.2329 81.0644C84.7667 81.509 84.5173 82.2354 84.4739 83.2654C84.4306 84.4472 84.4306 85.6615 84.4739 86.9083C84.5173 87.9383 84.7667 88.6647 85.2329 89.1093C85.6991 89.5538 86.3279 89.7706 87.1194 89.7706C87.7807 89.7706 88.3445 89.6297 88.8107 89.3369C89.277 89.0442 89.6022 88.5238 89.7865 87.7757C89.8407 87.5588 89.9275 87.4071 90.0359 87.3312C90.1443 87.2553 90.2961 87.2119 90.4804 87.2119H93.4078C93.5379 87.2119 93.6463 87.2553 93.7439 87.342C93.8415 87.4287 93.874 87.5372 93.8631 87.6673C93.8523 88.4804 93.668 89.2068 93.3319 89.8465C92.9958 90.4862 92.5187 91.0391 91.9116 91.4945C91.3044 91.9499 90.5997 92.2968 89.7865 92.5353C88.9734 92.7739 88.0952 92.8931 87.1411 92.8931L86.7074 93.7605C86.7941 93.7171 86.9134 93.6846 87.0652 93.6629C87.217 93.6412 87.3362 93.6304 87.423 93.6304C87.9434 93.6304 88.3554 93.8039 88.6698 94.1508C88.9842 94.4978 89.136 94.9531 89.136 95.5169C89.136 96.0807 88.9517 96.5252 88.5831 96.8939C88.2144 97.2625 87.694 97.4468 87.0326 97.4468C86.6423 97.4468 86.2845 97.3817 85.9701 97.2516C85.6557 97.1215 85.428 96.9697 85.2979 96.7963C85.1678 96.6228 85.1787 96.471 85.3196 96.3409L85.7099 95.994C85.84 95.8747 85.9484 95.8422 86.046 95.8747C86.1436 95.9072 86.2629 95.9723 86.4038 96.0482C86.5448 96.1241 86.7616 96.1674 87.0326 96.1674C87.2495 96.1674 87.423 96.1024 87.5531 95.9831C87.6832 95.8639 87.7482 95.7012 87.7482 95.5169C87.7482 95.3434 87.6832 95.1917 87.5639 95.0724C87.4446 94.9531 87.2603 94.8881 87.0326 94.8881C86.8592 94.8881 86.6965 94.9098 86.5556 94.964C86.4146 95.0182 86.2737 95.0399 86.1544 95.0507C86.0352 95.0507 85.9159 95.0182 85.8183 94.9314L85.3847 94.4978C85.2979 94.411 85.2654 94.3135 85.2762 94.2159C85.2871 94.1183 85.3304 93.9773 85.4063 93.8039L85.84 92.8064C84.745 92.6763 83.8017 92.3727 83.0102 91.8957C82.2188 91.4186 81.6116 90.7681 81.1779 89.9549C80.7442 89.1418 80.4949 88.1552 80.4407 87.0167C80.4298 86.4204 80.419 85.7916 80.419 85.1085C80.419 84.4255 80.419 83.775 80.4407 83.157C80.4949 81.8993 80.7985 80.8259 81.3514 79.9477C81.9044 79.0695 82.6633 78.3973 83.6499 77.9528C84.6366 77.5082 85.7967 77.2806 87.1411 77.2806C88.0952 77.2806 88.9734 77.3998 89.7865 77.6384C90.5997 77.8769 91.3044 78.2238 91.9116 78.6792C92.5187 79.1346 92.9958 79.6875 93.3319 80.3272C93.668 80.9669 93.8523 81.6933 93.8631 82.5064ZM55.5364 97.7937C55.4172 97.8913 55.3088 97.9672 55.1895 98.0214C55.0702 98.0756 54.9184 98.0973 54.7125 98.0973H52.6091C52.3814 98.0973 52.2621 97.9781 52.2621 97.7504C52.2621 97.6311 52.2947 97.5444 52.3706 97.4685L54.2788 95.1483C54.4197 94.9748 54.5498 94.8664 54.6474 94.8122C54.745 94.758 54.8968 94.7363 55.0811 94.7363H58.1169C58.3879 94.7363 58.5289 94.8772 58.5289 95.17C58.5289 95.2675 58.4963 95.3543 58.4204 95.4302L55.5364 97.7937ZM27.7916 78.0395C27.7916 77.8769 27.8458 77.7468 27.9434 77.6492C28.041 77.5516 28.1711 77.4974 28.3337 77.4974H34.2318C36.1075 77.4974 37.582 77.9311 38.6553 78.7876C39.7287 79.6441 40.26 80.8693 40.26 82.4414C40.26 83.4714 40.0106 84.3387 39.5227 85.0435C39.0348 85.7482 38.3843 86.2903 37.5711 86.6481L40.5419 91.9824C40.5852 92.0691 40.6069 92.145 40.6069 92.2209C40.6069 92.3402 40.5636 92.4378 40.466 92.5353C40.3684 92.6329 40.2708 92.6763 40.1516 92.6763H37.2676C36.9965 92.6763 36.7905 92.6112 36.6604 92.4703C36.5303 92.3294 36.4327 92.2101 36.3785 92.0908L33.9065 87.3203H31.6947V92.1342C31.6947 92.2751 31.6405 92.4052 31.5321 92.5137C31.4237 92.6221 31.2936 92.6763 31.131 92.6763H28.3337C28.1711 92.6763 28.041 92.6221 27.9434 92.5137C27.8458 92.4052 27.7916 92.2751 27.7916 92.1342V78.0395ZM74.1956 86.2361V78.0395C74.1956 77.8769 74.2498 77.7468 74.3474 77.6492C74.445 77.5516 74.5751 77.4974 74.7377 77.4974H77.3398C77.5025 77.4974 77.6326 77.5516 77.7302 77.6492C77.8277 77.7468 77.8819 77.8769 77.8819 78.0395V92.1125C77.8819 92.2751 77.8277 92.4052 77.7302 92.5137C77.6326 92.6221 77.5025 92.6763 77.3398 92.6763H75.0196C74.792 92.6763 74.6185 92.6221 74.5101 92.5028C74.4016 92.3836 74.3366 92.3077 74.3041 92.2643L69.0131 84.2412V92.1342C69.0131 92.2751 68.9589 92.4052 68.8613 92.5137C68.7638 92.6221 68.6337 92.6763 68.471 92.6763H65.8689C65.7063 92.6763 65.5762 92.6221 65.4786 92.5137C65.381 92.4052 65.3268 92.2751 65.3268 92.1342V78.0395C65.3268 77.8769 65.381 77.7468 65.4786 77.6492C65.5762 77.5516 65.7063 77.4974 65.8689 77.4974H68.1675C68.4168 77.4974 68.5903 77.5516 68.6987 77.66C68.8071 77.7684 68.8722 77.8552 68.9047 77.9094L74.1956 86.2361ZM53.1404 90.0091L52.3164 92.2209C52.2838 92.3077 52.2188 92.4052 52.1212 92.5137C52.0236 92.6221 51.8501 92.6763 51.6008 92.6763H48.9336C48.8144 92.6763 48.7168 92.6329 48.6192 92.5353C48.5216 92.4378 48.4783 92.3402 48.4783 92.2209C48.4783 92.145 48.4783 92.08 48.4999 92.0258L53.5957 78.1046C53.6391 77.9419 53.7258 77.801 53.8668 77.6817C54.0077 77.5625 54.192 77.4974 54.4414 77.4974H57.6507C57.9 77.4974 58.0843 77.5625 58.2253 77.6817C58.3662 77.801 58.453 77.9419 58.4963 78.1046L63.5704 92.0258C63.6029 92.08 63.6138 92.145 63.6138 92.2209C63.6138 92.3402 63.5704 92.4378 63.4728 92.5353C63.3753 92.6329 63.2668 92.6763 63.1367 92.6763H60.4696C60.2527 92.6763 60.0901 92.6221 59.9817 92.5137C59.8733 92.4052 59.8082 92.3077 59.7757 92.2209L58.93 90.0091H53.1404ZM46.7869 92.1342C46.7869 92.2751 46.7327 92.4052 46.6243 92.5137C46.5158 92.6221 46.3857 92.6763 46.2231 92.6763H43.3174C43.1548 92.6763 43.0247 92.6221 42.9271 92.5137C42.8295 92.4052 42.7753 92.2751 42.7753 92.1342V78.0395C42.7753 77.8769 42.8295 77.7468 42.9271 77.6492C43.0247 77.5516 43.1548 77.4974 43.3174 77.4974H46.2231C46.3857 77.4974 46.5158 77.5516 46.6243 77.6492C46.7327 77.7468 46.7869 77.8769 46.7869 78.0395V92.1342ZM13.003 90.2477C12.4609 89.3803 12.1573 88.3069 12.1031 87.0167C12.0923 86.4204 12.0814 85.7916 12.0814 85.1085C12.0814 84.4255 12.0814 83.775 12.1031 83.157C12.1573 81.8993 12.4609 80.8259 13.0139 79.9477C13.5668 79.0695 14.3257 78.3973 15.3124 77.9528C16.299 77.5082 17.4591 77.2806 18.8035 77.2806C19.7576 77.2806 20.6358 77.3998 21.449 77.6384C22.2621 77.8769 22.9669 78.2238 23.574 78.6792C24.1812 79.1346 24.6582 79.6875 24.9943 80.3272C25.3304 80.9669 25.5148 81.6933 25.5256 82.5064C25.5364 82.6365 25.5039 82.745 25.4063 82.8317C25.3088 82.9184 25.2003 82.9618 25.0702 82.9618H22.1429C21.9586 82.9618 21.8068 82.9184 21.7092 82.8425C21.6116 82.7666 21.5249 82.6149 21.449 82.398C21.243 81.6282 20.9177 81.1078 20.4624 80.8259C20.007 80.544 19.4432 80.4031 18.7818 80.4031C17.9904 80.4031 17.3615 80.6199 16.8953 81.0644C16.4291 81.509 16.1797 82.2354 16.1364 83.2654C16.093 84.4472 16.093 85.6615 16.1364 86.9083C16.1797 87.9383 16.4291 88.6647 16.8953 89.1093C17.3615 89.5538 17.9904 89.7706 18.7818 89.7706C19.4432 89.7706 20.007 89.6297 20.4732 89.3369C20.9394 89.0442 21.2647 88.5238 21.449 87.7757C21.5032 87.5588 21.5899 87.4071 21.6984 87.3312C21.8068 87.2553 21.9586 87.2119 22.1429 87.2119H25.0702C25.2003 87.2119 25.3088 87.2553 25.4063 87.342C25.5039 87.4287 25.5364 87.5372 25.5256 87.6673C25.5148 88.4804 25.3304 89.2068 24.9943 89.8465C24.6582 90.4862 24.1812 91.0391 23.574 91.4945C22.9669 91.9499 22.2621 92.2968 21.449 92.5353C20.6358 92.7739 19.7576 92.8931 18.8035 92.8931C17.4483 92.8931 16.2773 92.6655 15.2907 92.2209C14.3041 91.7764 13.5451 91.115 13.003 90.2477ZM23.3789 114.577C22.0019 114.577 20.8201 114.35 19.8335 113.894C18.8469 113.439 18.0771 112.777 17.535 111.899C16.9929 111.021 16.6893 109.959 16.6351 108.701C16.6243 108.083 16.6134 107.422 16.6134 106.717C16.6134 106.012 16.6134 105.351 16.6351 104.711C16.6893 103.486 16.9929 102.445 17.5458 101.588C18.0988 100.732 18.8686 100.081 19.866 99.6369C20.8635 99.1924 22.0345 98.9647 23.3789 98.9647C24.4631 98.9647 25.428 99.0948 26.2629 99.3659C27.0977 99.6369 27.8024 99.9947 28.3771 100.439C28.9517 100.884 29.3854 101.382 29.689 101.914C29.9925 102.445 30.1552 102.976 30.166 103.497C30.166 103.627 30.1226 103.735 30.0251 103.822C29.9275 103.909 29.8191 103.952 29.689 103.952H26.5231C26.3604 103.952 26.2412 103.93 26.1653 103.876C26.0894 103.822 26.0135 103.746 25.9593 103.648C25.8617 103.432 25.7099 103.204 25.5148 102.965C25.3196 102.727 25.0486 102.521 24.7125 102.347C24.3763 102.174 23.9318 102.087 23.3789 102.087C22.5657 102.087 21.926 102.304 21.449 102.738C20.9719 103.171 20.7117 103.865 20.6684 104.819C20.625 106.066 20.625 107.324 20.6684 108.592C20.7117 109.601 20.9828 110.338 21.4707 110.783C21.9586 111.227 22.6199 111.455 23.4439 111.455C23.9752 111.455 24.4631 111.357 24.8859 111.173C25.3088 110.989 25.6449 110.696 25.8942 110.295C26.1436 109.894 26.2629 109.384 26.2629 108.766V108.354H24.2246C24.0619 108.354 23.9318 108.3 23.8342 108.191C23.7367 108.083 23.6825 107.953 23.6825 107.79V106.186C23.6825 106.023 23.7367 105.893 23.8342 105.784C23.9318 105.676 24.0619 105.622 24.2246 105.622H29.689C29.8516 105.622 29.9817 105.676 30.0793 105.784C30.1769 105.893 30.2311 106.023 30.2311 106.186V108.658C30.2311 109.904 29.9492 110.967 29.3854 111.845C28.8216 112.723 28.0193 113.406 26.9893 113.873C25.9593 114.339 24.7558 114.577 23.3789 114.577ZM38.8397 109.004H36.6279V113.818C36.6279 113.959 36.5737 114.089 36.4652 114.198C36.3568 114.306 36.2267 114.36 36.0641 114.36H33.2668C33.1042 114.36 32.9741 114.306 32.8765 114.198C32.7789 114.089 32.7247 113.959 32.7247 113.818V99.7236C32.7247 99.561 32.7789 99.4309 32.8765 99.3333C32.9741 99.2357 33.1042 99.1815 33.2668 99.1815H39.1649C41.0406 99.1815 42.5151 99.6152 43.5885 100.472C44.6618 101.328 45.1931 102.553 45.1931 104.126C45.1931 105.156 44.9437 106.023 44.4559 106.728C43.968 107.432 43.3174 107.974 42.5043 108.332L45.475 113.667C45.5184 113.753 45.5401 113.829 45.5401 113.905C45.5401 114.024 45.4967 114.122 45.3991 114.219C45.3015 114.317 45.204 114.36 45.0847 114.36H42.2007C41.9296 114.36 41.7237 114.295 41.5935 114.154C41.4634 114.013 41.3659 113.894 41.3117 113.775L38.8397 109.004ZM57.8892 114.198C57.7808 114.089 57.7157 113.992 57.6832 113.905L56.8375 111.693H51.0478L50.2238 113.905C50.1913 113.992 50.1263 114.089 50.0287 114.198C49.9311 114.306 49.7576 114.36 49.5083 114.36H46.8411C46.7218 114.36 46.6243 114.317 46.5267 114.219C46.4291 114.122 46.3857 114.024 46.3857 113.905C46.3857 113.829 46.3857 113.764 46.4074 113.71L51.5032 99.7887C51.5466 99.6261 51.6333 99.4851 51.7743 99.3659C51.9152 99.2466 52.0995 99.1815 52.3489 99.1815H55.5581C55.8075 99.1815 55.9918 99.2466 56.1328 99.3659C56.2737 99.4851 56.3604 99.6261 56.4038 99.7887L61.4779 113.71C61.5104 113.764 61.5213 113.829 61.5213 113.905C61.5213 114.024 61.4779 114.122 61.3803 114.219C61.2827 114.317 61.1743 114.36 61.0442 114.36H58.3771C58.1602 114.36 57.9976 114.306 57.8892 114.198ZM68.9698 113.818C68.9698 113.959 68.9156 114.089 68.818 114.198C68.7204 114.306 68.5903 114.36 68.4277 114.36H65.5654C65.4027 114.36 65.2726 114.306 65.175 114.198C65.0775 114.089 65.0233 113.959 65.0233 113.818V102.586H61.1635C61.0009 102.586 60.8707 102.532 60.7732 102.423C60.6756 102.315 60.6214 102.185 60.6214 102.044V99.7236C60.6214 99.561 60.6756 99.4309 60.7732 99.3333C60.8707 99.2357 61.0009 99.1815 61.1635 99.1815H72.8295C72.9922 99.1815 73.1223 99.2357 73.2198 99.3333C73.3174 99.4309 73.3716 99.561 73.3716 99.7236V102.044C73.3716 102.185 73.3174 102.315 73.2198 102.423C73.1223 102.532 72.9922 102.586 72.8295 102.586H68.9698V113.818ZM75.4967 114.198C75.3991 114.089 75.3449 113.959 75.3449 113.818V99.7236C75.3449 99.561 75.3991 99.4309 75.4967 99.3333C75.5943 99.2357 75.7244 99.1815 75.887 99.1815H78.7927C78.9553 99.1815 79.0854 99.2357 79.1938 99.3333C79.3023 99.4309 79.3565 99.561 79.3565 99.7236V113.818C79.3565 113.959 79.3023 114.089 79.1938 114.198C79.0854 114.306 78.9553 114.36 78.7927 114.36H75.887C75.7244 114.36 75.5943 114.306 75.4967 114.198ZM93.733 112.365C93.1693 113.07 92.3995 113.623 91.4237 114.003C90.4479 114.382 89.3203 114.577 88.0301 114.577C86.5881 114.577 85.3847 114.371 84.4305 113.959C83.4764 113.547 82.75 113.005 82.2621 112.344C81.7742 111.682 81.514 110.967 81.4815 110.219C81.4815 110.1 81.5249 110.002 81.6225 109.904C81.72 109.807 81.8285 109.763 81.9586 109.763H84.6908C84.8968 109.763 85.0485 109.796 85.157 109.872C85.2654 109.948 85.363 110.034 85.4497 110.154C85.569 110.371 85.7316 110.577 85.9376 110.783C86.1436 110.989 86.4255 111.151 86.7724 111.27C87.1194 111.39 87.5422 111.455 88.0301 111.455C88.865 111.455 89.5046 111.325 89.9275 111.064C90.3503 110.804 90.5672 110.446 90.5672 110.002C90.5672 109.666 90.4479 109.406 90.2202 109.2C89.9925 108.994 89.6131 108.809 89.1035 108.647C88.5939 108.484 87.9109 108.311 87.0543 108.137C85.9593 107.909 85.016 107.606 84.2462 107.237C83.4765 106.869 82.8801 106.381 82.479 105.784C82.0778 105.188 81.8718 104.44 81.8718 103.54C81.8718 102.64 82.1212 101.87 82.6199 101.176C83.1187 100.483 83.8126 99.9405 84.7124 99.5502C85.6123 99.1599 86.6749 98.9647 87.9 98.9647C88.8975 98.9647 89.7757 99.0948 90.5346 99.355C91.2936 99.6152 91.9333 99.9622 92.4537 100.396C92.9741 100.83 93.3644 101.285 93.6355 101.773C93.9065 102.261 94.0475 102.727 94.0583 103.193C94.0583 103.312 94.0149 103.41 93.939 103.508C93.8631 103.605 93.7439 103.648 93.6029 103.648H90.7406C90.578 103.648 90.4479 103.616 90.3286 103.562C90.2094 103.508 90.1118 103.41 90.0251 103.28C89.9383 102.965 89.7106 102.684 89.342 102.445C88.9734 102.206 88.4963 102.087 87.9 102.087C87.2603 102.087 86.7724 102.196 86.4146 102.423C86.0569 102.651 85.8834 102.987 85.8834 103.453C85.8834 103.746 85.981 103.995 86.1761 104.212C86.3713 104.429 86.6965 104.613 87.1519 104.776C87.6073 104.939 88.2361 105.101 89.0276 105.275C90.3395 105.524 91.402 105.828 92.2152 106.196C93.0283 106.565 93.6246 107.042 94.0041 107.628C94.3836 108.213 94.5787 108.95 94.5787 109.828C94.5787 110.815 94.2968 111.661 93.733 112.365ZM103.935 102.445C103.87 102.564 103.784 102.64 103.664 102.673C103.654 102.673 103.632 102.673 103.61 102.684C103.588 102.694 103.556 102.705 103.513 102.716L101.669 102.868L103.079 104.039C103.155 104.115 103.187 104.158 103.187 104.169C103.263 104.266 103.285 104.386 103.274 104.516C103.263 104.646 103.198 104.744 103.079 104.819L101.518 105.99C101.398 106.045 101.279 106.066 101.149 106.055C101.019 106.045 100.921 105.98 100.845 105.882C100.845 105.849 100.845 105.828 100.824 105.817C100.813 105.806 100.791 105.774 100.759 105.73L100.043 104.017L99.3492 105.73C99.3492 105.73 99.3167 105.806 99.3059 105.817C99.295 105.828 99.2733 105.849 99.2625 105.882C99.2083 105.98 99.1107 106.045 98.9698 106.055C98.8288 106.066 98.7095 106.055 98.5903 105.99L97.029 104.819C96.9315 104.744 96.8664 104.646 96.8556 104.516C96.8447 104.386 96.8556 104.266 96.9206 104.169C96.9206 104.158 96.9531 104.115 97.029 104.039L98.4385 102.868L96.5954 102.716C96.5954 102.716 96.5195 102.694 96.4978 102.684C96.4761 102.673 96.4544 102.673 96.4436 102.673C96.3243 102.64 96.2376 102.564 96.1725 102.445C96.1075 102.326 96.0858 102.196 96.1183 102.066L96.7471 100.222C96.7797 100.103 96.8556 100.016 96.9857 99.9622C97.1158 99.908 97.235 99.8863 97.3326 99.9188C97.3435 99.9188 97.4085 99.9405 97.5061 99.9838L99.0457 100.96L98.612 99.1815C98.612 99.1815 98.5903 99.1056 98.5903 99.0731V99.0081C98.5903 98.8888 98.6337 98.7804 98.7312 98.6828C98.8288 98.5852 98.9372 98.531 99.0673 98.531H101.019C101.149 98.531 101.257 98.5852 101.355 98.6828C101.453 98.7804 101.496 98.8888 101.496 99.0081V99.0731C101.496 99.0731 101.496 99.1382 101.474 99.1815L101.041 100.96L102.602 99.9838C102.699 99.9405 102.764 99.9188 102.775 99.9188C102.895 99.8863 103.014 99.908 103.133 99.9622C103.252 100.016 103.328 100.103 103.361 100.222L103.99 102.066C104.022 102.196 103.99 102.326 103.935 102.445ZM103.794 77.4974C104.044 77.4974 104.228 77.5625 104.369 77.6817C104.51 77.801 104.597 77.9419 104.64 78.1046L109.714 92.0258C109.747 92.08 109.758 92.145 109.758 92.2209C109.758 92.3402 109.714 92.4378 109.617 92.5353C109.519 92.6329 109.411 92.6763 109.281 92.6763H106.613C106.397 92.6763 106.234 92.6221 106.126 92.5137C106.017 92.4052 105.952 92.3077 105.92 92.2209L105.074 90.0091H99.2842L98.4602 92.2209C98.4277 92.3077 98.3626 92.4052 98.265 92.5137C98.1674 92.6221 97.994 92.6763 97.7446 92.6763H95.0775C94.9582 92.6763 94.8606 92.6329 94.763 92.5353C94.6655 92.4378 94.6221 92.3402 94.6221 92.2209C94.6221 92.145 94.6221 92.08 94.6438 92.0258L99.7396 78.1046C99.7829 77.9419 99.8697 77.801 100.011 77.6817C100.152 77.5625 100.336 77.4974 100.585 77.4974H103.794ZM114.376 51.7366C113.943 55.9217 110.18 58.9683 105.995 58.5238C105.865 58.5129 105.746 58.4804 105.627 58.4696C101.442 66.4819 92.6705 71.5776 83.1403 70.5693C73.6102 69.5718 66.0858 62.7739 63.6572 54.0677C63.5379 54.0677 63.4295 54.0677 63.3102 54.046C59.689 58.849 54.2029 62.2426 47.7735 62.9799C38.2542 64.0641 29.4396 59.0659 25.1787 51.0861C25.0594 51.1078 24.9293 51.1295 24.81 51.1512C20.6358 51.6282 16.8411 48.6141 16.3641 44.4399C15.9304 40.6344 18.3807 37.1649 21.9802 36.2108C21.9369 34.3785 22.132 32.6004 22.5115 30.8765C22.2188 30.9307 21.9152 30.9849 21.6008 31.0283C15.616 31.7113 12.0814 27.4179 11.9297 27.2336C11.6803 26.93 11.6152 26.5072 11.7562 26.1385C11.8971 25.7699 12.2224 25.5097 12.6127 25.4446C12.6235 25.4446 14.2173 24.8266 16.2773 20.7609C17.0254 19.2863 17.7085 18.3431 18.6192 17.5299C22.0453 14.4725 25.8942 15.2314 28.1819 17.3348C28.659 17.7793 29.0926 18.3106 29.4504 18.896C32.844 15.8169 37.1808 13.7135 42.0814 13.1606C47.0037 12.5968 51.72 13.681 55.7424 15.9361C55.9593 15.2639 56.2629 14.6351 56.6423 14.0821C58.3988 11.5126 61.9766 9.90795 65.999 12.1089C67.0724 12.6944 67.9506 13.4533 69.0131 14.7218C72.0164 18.3106 73.6752 18.4515 73.6427 18.4515C74.033 18.419 74.4125 18.6033 74.6402 18.9394C74.857 19.2647 74.8895 19.6875 74.7161 20.0453C74.6185 20.2621 72.1357 25.2386 66.1508 25.9217C65.8147 25.9651 65.4786 25.9759 65.1534 25.9867C65.9123 27.5805 66.4978 29.2827 66.8772 31.0717C66.8772 31.0717 66.8989 31.0717 66.9098 31.0717C71.3984 24.0677 79.5625 19.7634 88.3879 20.6958C100.141 21.9318 108.858 31.9716 108.706 43.5617C112.306 44.4833 114.799 47.9311 114.398 51.7366H114.376Z" fill="white"/>
<path d="M22.6308 43.0088L22.1104 38.4768C19.7902 39.3008 18.2506 41.6318 18.5433 44.1797C18.8686 47.0203 21.3514 49.0803 24.1703 48.9502C23.4114 47.0854 22.8693 45.1013 22.6308 42.9979V43.0088Z" fill="white"/>
<path d="M65.0016 33.3702C63.7222 22.1486 53.5415 14.0605 42.32 15.3507C31.0984 16.63 23.0102 26.8107 24.3005 38.0323L24.8426 42.7594C26.1219 53.981 36.3026 62.0691 47.5242 60.7789C53.0102 60.1501 57.7374 57.3962 60.99 53.428C58.0518 52.127 56.1328 49.0261 56.4905 45.6651C56.8917 41.8595 60.0359 39.0081 63.7547 38.8454C64.0583 37.295 64.5245 35.7988 65.1208 34.3893L65.0016 33.381V33.3702ZM35.6304 43.1172C34.1125 43.2907 32.7356 42.1631 32.5621 40.591C32.3778 39.0189 33.4728 37.6094 34.9907 37.436C36.5086 37.2625 37.8856 38.3901 38.059 39.9622C38.2434 41.5343 37.1483 42.9437 35.6413 43.1172H35.6304ZM54.0077 47.66C53.2271 51.162 50.3214 53.775 46.7652 54.187C43.209 54.599 39.7829 52.6908 38.2325 49.4598C37.9723 48.9069 38.2 48.2455 38.7529 47.9853C39.3059 47.7251 39.9672 47.9528 40.2274 48.5057C41.3659 50.891 43.8921 52.2896 46.5158 51.986C49.1396 51.6824 51.2755 49.7525 51.8501 47.1721C51.9802 46.5758 52.5766 46.2072 53.1729 46.3373C53.7692 46.4674 54.1487 47.0637 54.0077 47.66ZM55.1028 40.8837C53.5849 41.0572 52.2079 39.9296 52.0345 38.3575C51.8501 36.7854 52.9452 35.376 54.4631 35.2025C55.981 35.029 57.3579 36.1566 57.5314 37.7287C57.7157 39.3008 56.6207 40.7103 55.1136 40.8837H55.1028ZM38.0157 22.7883C36.9098 25.629 33.9824 31.2777 27.5856 33.5762C27.4989 33.6087 27.423 33.6304 27.3362 33.6304C26.8375 33.6846 26.3496 33.4027 26.1653 32.904C25.9593 32.3293 26.252 31.7005 26.8267 31.4837C34.2318 28.8165 36.4002 20.6416 36.4219 20.5657C36.5195 20.1754 36.823 19.8718 37.2134 19.7634C37.6037 19.6658 38.0157 19.7851 38.2976 20.0778C42.1573 24.1544 54.192 27.4396 60.513 26.1277C61.1093 26.0084 61.6947 26.3879 61.8248 26.9842C61.9441 27.5805 61.5646 28.166 60.9683 28.2961C54.4414 29.6405 43.2632 26.8433 38.0157 22.7775V22.7883Z" fill="white"/>
<path d="M60.9792 53.428C57.7157 57.3854 52.9994 60.1501 47.5133 60.7789C36.2918 62.0583 26.1219 53.981 24.8317 42.7594L24.2896 38.0323C23.0102 26.8107 31.0876 16.6409 42.3091 15.3507C53.5307 14.0713 63.7005 22.1486 64.9907 33.3702L65.11 34.3785C65.6087 33.2184 66.2159 32.1125 66.8881 31.0608C66.8881 31.0608 66.8664 31.0608 66.8556 31.0608C66.4869 29.2719 65.8906 27.5697 65.1317 25.9759C65.4569 25.9759 65.793 25.9434 66.1291 25.9108C72.114 25.2278 74.5968 20.2404 74.6944 20.0344C74.8678 19.6767 74.8353 19.2538 74.6185 18.9286C74.4016 18.6033 74.0222 18.419 73.621 18.4407C73.6535 18.4407 71.9947 18.2889 68.9914 14.711C67.9289 13.4425 67.0507 12.6835 65.9774 12.0981C61.9441 9.89711 58.3771 11.5017 56.6207 14.0713C56.2412 14.6243 55.9376 15.2531 55.7208 15.9253C51.6984 13.6702 46.9821 12.5859 42.0598 13.1497C37.17 13.7135 32.8332 15.806 29.4287 18.8852C29.071 18.2997 28.6481 17.7685 28.1602 17.3239C25.8726 15.2206 22.0236 14.4616 18.5975 17.5191C17.6868 18.3322 17.0037 19.2755 16.2556 20.75C14.1956 24.805 12.6019 25.4338 12.591 25.4338C12.2007 25.4988 11.8754 25.7591 11.7345 26.1277C11.5935 26.4963 11.6586 26.9083 11.908 27.2227C12.0598 27.407 15.5943 31.7005 21.5791 31.0175C21.8935 30.9849 22.1862 30.9307 22.4898 30.8657C22.1104 32.5896 21.926 34.3785 21.9586 36.2C18.3698 37.1541 15.9087 40.6235 16.3424 44.4291C16.8194 48.6033 20.6141 51.6174 24.7883 51.1403C24.9184 51.1295 25.0377 51.097 25.157 51.0753C29.4179 59.055 38.2325 64.0532 47.7518 62.969C54.192 62.2318 59.6781 58.849 63.2885 54.0352C63.2885 54.0352 63.2668 54.0352 63.256 54.0352C62.4428 53.9484 61.6731 53.7316 60.9683 53.4172L60.9792 53.428ZM18.5433 44.1797C18.2506 41.6318 19.7902 39.3008 22.1104 38.4768L22.6308 43.0088C22.8693 45.1013 23.4114 47.0854 24.1703 48.9611C21.3514 49.0912 18.8686 47.0312 18.5433 44.1906L18.5433 44.1797Z" fill="#F85600"/>
<path d="M54.4522 35.2133C52.9343 35.3868 51.8501 36.7963 52.0236 38.3684C52.2079 39.9405 53.574 41.0681 55.0919 40.8946C56.6098 40.7211 57.694 39.3116 57.5097 37.7395C57.3254 36.1674 55.9593 35.0399 54.4414 35.2133H54.4522Z" fill="#F85600"/>
<path d="M34.9799 37.436C33.462 37.6094 32.3778 39.0189 32.5513 40.591C32.7356 42.1631 34.1017 43.2907 35.6196 43.1172C37.1375 42.9437 38.2217 41.5343 38.0373 39.9622C37.853 38.3901 36.4869 37.2625 34.969 37.436H34.9799Z" fill="#F85600"/>
<path d="M53.162 46.3373C52.5657 46.2072 51.9694 46.5758 51.8393 47.1721C51.2647 49.7526 49.1179 51.6824 46.505 51.986C43.8921 52.2896 41.355 50.891 40.2166 48.5057C39.9564 47.9528 39.295 47.7251 38.7421 47.9853C38.1891 48.2455 37.9615 48.9069 38.2217 49.4598C39.7721 52.6908 43.1982 54.5881 46.7544 54.187C50.3106 53.7858 53.2162 51.162 53.9969 47.66C54.127 47.0637 53.7584 46.4782 53.162 46.3373Z" fill="#F85600"/>
<path d="M61.8357 26.995C61.7164 26.3987 61.131 26.0193 60.5238 26.1385C54.2029 27.4504 42.1682 24.1653 38.3084 20.0887C38.0265 19.7959 37.6145 19.6767 37.2242 19.7742C36.8339 19.8718 36.5303 20.1862 36.4327 20.5765C36.411 20.6524 34.2535 28.8382 26.8375 31.4945C26.2629 31.7005 25.9593 32.3293 26.1761 32.9148C26.3496 33.4027 26.8483 33.6954 27.3471 33.6412C27.4338 33.6412 27.5097 33.6087 27.5964 33.587C34.0041 31.2885 36.9315 25.6289 38.0265 22.7992C43.2741 26.8541 54.4522 29.6622 60.9792 28.3178C61.5755 28.1985 61.9658 27.613 61.8357 27.0059V26.995Z" fill="#F85600"/>
<path d="M108.554 45.8277L108.077 50.3597C107.86 52.4522 107.34 54.4472 106.592 56.3228C109.411 56.4204 111.872 54.3496 112.175 51.4981C112.446 48.9502 110.874 46.63 108.554 45.8277Z" fill="white"/>
<path d="M108.684 43.5617C108.836 31.9716 100.119 21.9318 88.3662 20.6958C79.5408 19.7742 71.3767 24.0677 66.8881 31.0717C66.2159 32.1233 65.6087 33.2184 65.11 34.3893C64.5137 35.7988 64.0475 37.295 63.7439 38.8454C60.0251 38.9972 56.8809 41.8595 56.4797 45.6651C56.1219 49.037 58.041 52.127 60.9792 53.428C61.6947 53.7424 62.4537 53.9593 63.2668 54.046C63.2668 54.046 63.2885 54.046 63.2994 54.046C63.4186 54.0568 63.5271 54.0569 63.6463 54.0677C66.0749 62.7739 73.5993 69.5718 83.1295 70.5693C92.6597 71.5668 101.431 66.4819 105.616 58.4696C105.735 58.4913 105.865 58.5129 105.985 58.5238C110.17 58.9575 113.932 55.9108 114.366 51.7366C114.767 47.9311 112.273 44.4833 108.673 43.5617H108.684ZM112.175 51.4981C111.872 54.3387 109.411 56.4204 106.592 56.3228C107.329 54.4472 107.849 52.4631 108.077 50.3597L108.554 45.8277C110.885 46.63 112.446 48.9502 112.175 51.4981ZM83.368 68.3684C72.1357 67.1866 63.9499 57.0926 65.1317 45.8602L65.6304 41.1331C66.8122 29.9007 76.9062 21.715 88.1385 22.8968C99.3709 24.0785 107.557 34.1725 106.375 45.4049L105.876 50.132C104.694 61.3644 94.6004 69.5502 83.368 68.3684ZM58.6806 45.8928C58.9517 43.3449 60.9575 41.4042 63.3969 41.0897L62.9199 45.6217C62.7031 47.7251 62.8006 49.7742 63.1367 51.7583C60.3612 51.2704 58.3771 48.7226 58.6806 45.8819V45.8928Z" fill="#00DCE9"/>
<path d="M63.1476 51.7692C62.8115 49.7851 62.7139 47.7251 62.9307 45.6326L63.4078 41.1006C60.9683 41.4042 58.9517 43.3449 58.6915 45.9036C58.3879 48.7442 60.372 51.2921 63.1476 51.78V51.7692Z" fill="white"/>
<path d="M105.876 50.132L106.375 45.4049C107.557 34.1725 99.3709 24.0785 88.1385 22.8968C76.9062 21.715 66.8122 29.9007 65.6304 41.1331L65.1317 45.8602C63.9499 57.0926 72.1357 67.1866 83.368 68.3684C94.6004 69.5502 104.694 61.3644 105.876 50.132ZM81.2538 26.724C81.4382 26.3662 81.7959 26.1277 82.1971 26.1168C82.5983 26.106 82.9777 26.312 83.1837 26.6589C86.0677 31.4837 97.1158 37.295 103.567 37.3818C104.174 37.3926 104.662 37.8913 104.662 38.4985C104.662 39.1056 104.152 39.5935 103.545 39.5935C96.8773 39.5068 86.5773 34.3351 82.3272 29.2394C80.6358 31.7764 76.5592 36.6553 69.8046 37.5119C69.7179 37.5227 69.6311 37.5227 69.5444 37.5119C69.0457 37.4576 68.6337 37.0673 68.5686 36.5469C68.4927 35.9398 68.9156 35.3868 69.5227 35.3109C77.329 34.3134 81.2213 26.7999 81.2538 26.724ZM75.5943 48.5491C74.0764 48.3864 72.9813 46.9878 73.144 45.4157C73.3066 43.8436 74.6727 42.7052 76.1906 42.8678C77.7085 43.0305 78.8035 44.4291 78.6409 46.0012C78.4783 47.5733 77.1122 48.7117 75.5943 48.5491ZM92.5513 56.9625C91.0334 60.2043 87.6181 62.1342 84.0619 61.7656C80.5057 61.3969 77.5675 58.7948 76.7544 55.3037C76.6134 54.7074 76.9821 54.1111 77.5784 53.9701C78.1747 53.8292 78.771 54.1978 78.9011 54.7941C79.4974 57.3637 81.6658 59.2827 84.2788 59.5538C86.8917 59.8248 89.4179 58.4045 90.5346 56.0193C90.7949 55.4663 91.4454 55.2278 92.0092 55.488C92.5621 55.7482 92.8006 56.4096 92.5404 56.9625H92.5513ZM98.1349 48.0395C97.9723 49.6116 96.6062 50.75 95.0883 50.5874C93.5704 50.4248 92.4754 49.0261 92.638 47.454C92.8006 45.8819 94.1667 44.7435 95.6846 44.9061C97.2025 45.0688 98.2976 46.4674 98.1349 48.0395Z" fill="white"/>
<path d="M95.6738 44.917C94.1559 44.7544 92.7898 45.9036 92.6272 47.4649C92.4645 49.037 93.5596 50.4356 95.0775 50.5982C96.5954 50.7609 97.9615 49.6116 98.1241 48.0503C98.2867 46.4782 97.1917 45.0796 95.6738 44.917Z" fill="#00DCE9"/>
<path d="M78.6409 46.0012C78.8035 44.4291 77.7085 43.0305 76.1906 42.8678C74.6727 42.7052 73.3066 43.8545 73.144 45.4157C72.9813 46.9878 74.0764 48.3864 75.5943 48.5491C77.1122 48.7117 78.4783 47.5625 78.6409 46.0012Z" fill="#00DCE9"/>
<path d="M92.0092 55.4988C91.4562 55.2386 90.7949 55.4772 90.5346 56.0301C89.4179 58.4262 86.9026 59.8465 84.2788 59.5646C81.655 59.2827 79.4974 57.3745 78.9011 54.805C78.7602 54.2086 78.1638 53.84 77.5784 53.981C76.9821 54.1219 76.6134 54.7182 76.7544 55.3145C77.5675 58.8057 80.5057 61.3969 84.0619 61.7764C87.6181 62.145 91.0334 60.2151 92.5513 56.9734C92.8115 56.4204 92.573 55.7591 92.02 55.4988H92.0092Z" fill="#00DCE9"/>
<path d="M68.5686 36.5469C68.6337 37.0673 69.0457 37.4576 69.5444 37.5119C69.6311 37.5119 69.7179 37.5119 69.8046 37.5119C76.5592 36.6553 80.6358 31.7656 82.3272 29.2394C86.5773 34.346 96.8773 39.5068 103.545 39.5935C104.152 39.5935 104.662 39.1165 104.662 38.4985C104.662 37.8913 104.174 37.3926 103.567 37.3818C97.1158 37.295 86.0677 31.4837 83.1837 26.6589C82.9777 26.312 82.5983 26.106 82.1971 26.1168C81.7959 26.1277 81.4273 26.3662 81.2538 26.724C81.2213 26.7999 77.329 34.3134 69.5227 35.3109C68.9156 35.3868 68.4927 35.9398 68.5686 36.5469Z" fill="#00DCE9"/>
<path d="M35.728 83.7424C36.0641 83.4063 36.2376 82.9618 36.2376 82.398C36.2376 81.8342 36.0749 81.3789 35.7497 81.0319C35.4244 80.685 34.904 80.5115 34.1993 80.5115H31.7056V84.2412H34.1993C34.8823 84.2412 35.3919 84.0785 35.728 83.7424Z" fill="white"/>
<path d="M56.0569 81.162L54.0294 86.8866H58.0626L56.0569 81.162Z" fill="white"/>
<path d="M104.206 86.8866L102.19 81.162L100.173 86.8866H104.206Z" fill="white"/>
<path d="M40.672 102.716C40.3467 102.369 39.8263 102.196 39.1216 102.196H36.6279V105.925H39.1216C39.8046 105.925 40.3142 105.763 40.6503 105.427C40.9864 105.09 41.1599 104.646 41.1599 104.082C41.1599 103.518 40.9972 103.063 40.672 102.716Z" fill="white"/>
<path d="M51.9369 108.571H55.9701L53.9535 102.846L51.9369 108.571Z" fill="white"/>
<path d="M15.2799 92.2209C16.2665 92.6655 17.4374 92.8931 18.7927 92.8931C19.7468 92.8931 20.625 92.7739 21.4381 92.5353C22.2513 92.2968 22.956 91.9499 23.5632 91.4945C24.1703 91.0391 24.6474 90.4862 24.9835 89.8465C25.3196 89.2068 25.5039 88.4804 25.5148 87.6673C25.5256 87.5372 25.4931 87.4287 25.3955 87.342C25.2979 87.2553 25.1895 87.2119 25.0594 87.2119H22.132C21.9477 87.2119 21.7959 87.2553 21.6875 87.3312C21.5791 87.4071 21.4924 87.5588 21.4381 87.7757C21.2538 88.5238 20.9286 89.0442 20.4624 89.3369C19.9962 89.6297 19.4324 89.7706 18.771 89.7706C17.9795 89.7706 17.3507 89.5538 16.8845 89.1093C16.4183 88.6647 16.1689 87.9383 16.1255 86.9083C16.0822 85.6615 16.0822 84.4472 16.1255 83.2654C16.1689 82.2354 16.4183 81.509 16.8845 81.0644C17.3507 80.6199 17.9795 80.4031 18.771 80.4031C19.4324 80.4031 19.9962 80.544 20.4515 80.8259C20.9069 81.1078 21.2321 81.6282 21.4381 82.398C21.514 82.6149 21.6008 82.7666 21.6984 82.8425C21.7959 82.9184 21.9477 82.9618 22.132 82.9618H25.0594C25.1895 82.9618 25.2979 82.9184 25.3955 82.8317C25.4931 82.745 25.5256 82.6365 25.5148 82.5064C25.5039 81.6933 25.3196 80.9669 24.9835 80.3272C24.6474 79.6875 24.1703 79.1346 23.5632 78.6792C22.956 78.2238 22.2513 77.8769 21.4381 77.6384C20.625 77.3998 19.7468 77.2806 18.7927 77.2806C17.4483 77.2806 16.2882 77.5082 15.3015 77.9528C14.3149 78.3973 13.556 79.0695 13.003 79.9477C12.4501 80.8259 12.1465 81.8993 12.0923 83.157C12.0814 83.775 12.0706 84.4255 12.0706 85.1085C12.0706 85.7916 12.0706 86.4204 12.0923 87.0167C12.1465 88.3069 12.4501 89.3803 12.9922 90.2477C13.5343 91.115 14.2932 91.7764 15.2799 92.2209Z" fill="#F85600"/>
<path d="M28.3337 92.6763H31.131C31.2936 92.6763 31.4237 92.6221 31.5321 92.5137C31.6405 92.4052 31.6947 92.2751 31.6947 92.1342V87.3203H33.9065L36.3785 92.0908C36.4327 92.2101 36.5303 92.3294 36.6604 92.4703C36.7905 92.6112 36.9965 92.6763 37.2676 92.6763H40.1516C40.2708 92.6763 40.3684 92.6329 40.466 92.5353C40.5636 92.4378 40.6069 92.3402 40.6069 92.2209C40.6069 92.145 40.5852 92.0691 40.5419 91.9824L37.5711 86.6481C38.3843 86.2903 39.0348 85.7482 39.5227 85.0435C40.0106 84.3387 40.26 83.4714 40.26 82.4414C40.26 80.8693 39.7287 79.6441 38.6553 78.7876C37.582 77.9311 36.1075 77.4974 34.2318 77.4974H28.3337C28.1711 77.4974 28.041 77.5516 27.9434 77.6492C27.8458 77.7468 27.7916 77.8769 27.7916 78.0395V92.1342C27.7916 92.2751 27.8458 92.4052 27.9434 92.5137C28.041 92.6221 28.1711 92.6763 28.3337 92.6763ZM31.7056 80.5115H34.1993C34.904 80.5115 35.4244 80.685 35.7497 81.0319C36.0749 81.3789 36.2376 81.8342 36.2376 82.398C36.2376 82.9618 36.0641 83.4063 35.728 83.7424C35.3919 84.0785 34.8823 84.2412 34.1993 84.2412H31.7056V80.5115Z" fill="#F85600"/>
<path d="M46.2231 77.4974H43.3174C43.1548 77.4974 43.0247 77.5516 42.9271 77.6492C42.8295 77.7468 42.7753 77.8769 42.7753 78.0395V92.1342C42.7753 92.2751 42.8295 92.4052 42.9271 92.5137C43.0247 92.6221 43.1548 92.6763 43.3174 92.6763H46.2231C46.3857 92.6763 46.5158 92.6221 46.6243 92.5137C46.7327 92.4052 46.7869 92.2751 46.7869 92.1342V78.0395C46.7869 77.8769 46.7327 77.7468 46.6243 77.6492C46.5158 77.5516 46.3857 77.4974 46.2231 77.4974Z" fill="#F85600"/>
<path d="M59.7757 92.2209C59.8082 92.3077 59.8733 92.4052 59.9817 92.5137C60.0901 92.6221 60.2527 92.6763 60.4696 92.6763H63.1367C63.2668 92.6763 63.3753 92.6329 63.4728 92.5353C63.5704 92.4378 63.6138 92.3402 63.6138 92.2209C63.6138 92.145 63.6029 92.08 63.5704 92.0258L58.4963 78.1046C58.453 77.9419 58.3662 77.801 58.2253 77.6817C58.0843 77.5625 57.9 77.4974 57.6507 77.4974H54.4414C54.192 77.4974 54.0077 77.5625 53.8668 77.6817C53.7258 77.801 53.6391 77.9419 53.5957 78.1046L48.4999 92.0258C48.4891 92.08 48.4783 92.145 48.4783 92.2209C48.4783 92.3402 48.5216 92.4378 48.6192 92.5353C48.7168 92.6329 48.8144 92.6763 48.9336 92.6763H51.6008C51.8501 92.6763 52.0236 92.6221 52.1212 92.5137C52.2188 92.4052 52.2838 92.3077 52.3164 92.2209L53.1404 90.0091H58.93L59.7757 92.2209ZM56.0569 81.162L58.0735 86.8866H54.0402L56.0569 81.162Z" fill="#F85600"/>
<path d="M68.6987 77.66C68.5903 77.5516 68.4168 77.4974 68.1675 77.4974H65.8689C65.7063 77.4974 65.5762 77.5516 65.4786 77.6492C65.381 77.7468 65.3268 77.8769 65.3268 78.0395V92.1342C65.3268 92.2751 65.381 92.4052 65.4786 92.5137C65.5762 92.6221 65.7063 92.6763 65.8689 92.6763H68.471C68.6337 92.6763 68.7638 92.6221 68.8613 92.5137C68.9589 92.4052 69.0131 92.2751 69.0131 92.1342V84.2412L74.3041 92.2643C74.3041 92.2643 74.4016 92.3836 74.5101 92.5028C74.6185 92.6221 74.792 92.6763 75.0196 92.6763H77.3398C77.5025 92.6763 77.6326 92.6221 77.7302 92.5137C77.8277 92.4052 77.8819 92.2751 77.8819 92.1125V78.0395C77.8819 77.8769 77.8277 77.7468 77.7302 77.6492C77.6326 77.5516 77.5025 77.4974 77.3398 77.4974H74.7377C74.5751 77.4974 74.445 77.5516 74.3474 77.6492C74.2498 77.7468 74.1956 77.8769 74.1956 78.0395V86.2361L68.9047 77.9094C68.8722 77.8552 68.8071 77.7684 68.6987 77.66Z" fill="#F85600"/>
<path d="M91.9116 78.6792C91.3044 78.2238 90.5997 77.8769 89.7865 77.6384C88.9734 77.3998 88.0952 77.2806 87.1411 77.2806C85.7967 77.2806 84.6366 77.5082 83.6499 77.9528C82.6633 78.3973 81.9044 79.0695 81.3514 79.9477C80.7985 80.8259 80.4949 81.8993 80.4407 83.157C80.4298 83.775 80.419 84.4255 80.419 85.1085C80.419 85.7916 80.419 86.4204 80.4407 87.0167C80.4949 88.1552 80.7442 89.1418 81.1779 89.9549C81.6116 90.7681 82.2188 91.4186 83.0102 91.8957C83.8017 92.3727 84.745 92.6763 85.84 92.8064L85.4063 93.8039C85.3304 93.9773 85.2871 94.1183 85.2762 94.2159C85.2654 94.3135 85.2979 94.411 85.3847 94.4978L85.8183 94.9314C85.9159 95.0182 86.0352 95.0615 86.1544 95.0507C86.2737 95.0507 86.4146 95.0182 86.5556 94.964C86.6965 94.9098 86.8592 94.8881 87.0326 94.8881C87.2603 94.8881 87.4446 94.9531 87.5639 95.0724C87.6832 95.1917 87.7482 95.3434 87.7482 95.5169C87.7482 95.7012 87.6832 95.8639 87.5531 95.9831C87.423 96.1024 87.2495 96.1674 87.0326 96.1674C86.7616 96.1674 86.5448 96.1241 86.4038 96.0482C86.2629 95.9723 86.1436 95.9072 86.046 95.8747C85.9484 95.8422 85.84 95.8747 85.7099 95.994L85.3196 96.3409C85.1787 96.471 85.1678 96.6228 85.2979 96.7963C85.428 96.9697 85.6557 97.1215 85.9701 97.2516C86.2845 97.3817 86.6423 97.4468 87.0326 97.4468C87.694 97.4468 88.2144 97.2625 88.5831 96.8939C88.9517 96.5252 89.136 96.0699 89.136 95.5169C89.136 94.964 88.9842 94.4978 88.6698 94.1508C88.3554 93.8039 87.9434 93.6304 87.423 93.6304C87.3362 93.6304 87.217 93.6304 87.0652 93.6629C86.9134 93.6846 86.7941 93.7171 86.7074 93.7605L87.1411 92.8931C88.0952 92.8931 88.9734 92.7739 89.7865 92.5353C90.5997 92.2968 91.3044 91.9499 91.9116 91.4945C92.5187 91.0391 92.9958 90.4862 93.3319 89.8465C93.668 89.2068 93.8523 88.4804 93.8631 87.6673C93.874 87.5372 93.8415 87.4287 93.7439 87.342C93.6463 87.2553 93.5379 87.2119 93.4078 87.2119H90.4804C90.2961 87.2119 90.1443 87.2553 90.0359 87.3312C89.9275 87.4071 89.8407 87.5588 89.7865 87.7757C89.6022 88.5238 89.277 89.0442 88.8107 89.3369C88.3445 89.6297 87.7807 89.7706 87.1194 89.7706C86.3279 89.7706 85.6991 89.5538 85.2329 89.1093C84.7667 88.6647 84.5173 87.9383 84.4739 86.9083C84.4306 85.6615 84.4306 84.4472 84.4739 83.2654C84.5173 82.2354 84.7667 81.509 85.2329 81.0644C85.6991 80.6199 86.3279 80.4031 87.1194 80.4031C87.7807 80.4031 88.3445 80.544 88.7999 80.8259C89.2553 81.1078 89.5805 81.6282 89.7865 82.398C89.8624 82.6149 89.9492 82.7666 90.0467 82.8425C90.1443 82.9184 90.2961 82.9618 90.4804 82.9618H93.4078C93.5379 82.9618 93.6463 82.9184 93.7439 82.8317C93.8415 82.745 93.874 82.6365 93.8631 82.5064C93.8523 81.6933 93.668 80.9669 93.3319 80.3272C92.9958 79.6875 92.5187 79.1346 91.9116 78.6792Z" fill="#F85600"/>
<path d="M100.011 77.6817C99.8697 77.801 99.7829 77.9419 99.7396 78.1046L94.6438 92.0258C94.6329 92.08 94.6221 92.145 94.6221 92.2209C94.6221 92.3402 94.6655 92.4378 94.763 92.5353C94.8606 92.6329 94.9582 92.6763 95.0775 92.6763H97.7446C97.994 92.6763 98.1674 92.6221 98.265 92.5137C98.3626 92.4052 98.4277 92.3077 98.4602 92.2209L99.2842 90.0091H105.074L105.92 92.2209C105.952 92.3077 106.017 92.4052 106.126 92.5137C106.234 92.6221 106.397 92.6763 106.613 92.6763H109.281C109.411 92.6763 109.519 92.6329 109.617 92.5353C109.714 92.4378 109.758 92.3402 109.758 92.2209C109.758 92.145 109.747 92.08 109.714 92.0258L104.64 78.1046C104.597 77.9419 104.51 77.801 104.369 77.6817C104.228 77.5625 104.044 77.4974 103.794 77.4974H100.585C100.336 77.4974 100.152 77.5625 100.011 77.6817ZM104.206 86.8866H100.173L102.19 81.162L104.206 86.8866Z" fill="#F85600"/>
<path d="M29.3854 111.845C29.9492 110.967 30.2311 109.904 30.2311 108.658V106.186C30.2311 106.023 30.1769 105.893 30.0793 105.784C29.9817 105.676 29.8516 105.622 29.689 105.622H24.2246C24.0619 105.622 23.9318 105.676 23.8342 105.784C23.7367 105.893 23.6825 106.023 23.6825 106.186V107.79C23.6825 107.953 23.7367 108.083 23.8342 108.191C23.9318 108.3 24.0619 108.354 24.2246 108.354H26.2629V108.766C26.2629 109.384 26.1436 109.894 25.8942 110.295C25.6449 110.696 25.3088 110.989 24.8859 111.173C24.4631 111.357 23.9752 111.455 23.4439 111.455C22.6199 111.455 21.9586 111.227 21.4707 110.783C20.9828 110.338 20.7117 109.601 20.6684 108.592C20.625 107.324 20.625 106.066 20.6684 104.819C20.7117 103.865 20.9719 103.171 21.449 102.738C21.926 102.304 22.5657 102.087 23.3789 102.087C23.9318 102.087 24.3763 102.174 24.7125 102.347C25.0486 102.521 25.3196 102.727 25.5148 102.965C25.7099 103.204 25.8617 103.432 25.9593 103.648C26.0135 103.746 26.0894 103.822 26.1653 103.876C26.2412 103.93 26.3604 103.952 26.5231 103.952H29.689C29.8191 103.952 29.9275 103.909 30.0251 103.822C30.1226 103.735 30.166 103.627 30.166 103.497C30.1552 102.976 29.9925 102.445 29.689 101.914C29.3854 101.382 28.9517 100.884 28.3771 100.439C27.8024 99.9947 27.0977 99.6369 26.2629 99.3659C25.428 99.0948 24.4631 98.9647 23.3789 98.9647C22.0345 98.9647 20.8635 99.1924 19.866 99.6369C18.8686 100.081 18.0988 100.732 17.5458 101.588C16.9929 102.445 16.6893 103.486 16.6351 104.711C16.6243 105.351 16.6134 106.012 16.6134 106.717C16.6134 107.422 16.6134 108.083 16.6351 108.701C16.6893 109.959 16.9929 111.021 17.535 111.899C18.0771 112.777 18.8469 113.439 19.8335 113.894C20.8201 114.35 22.0019 114.577 23.3789 114.577C24.7558 114.577 25.9593 114.339 26.9893 113.873C28.0193 113.406 28.8216 112.723 29.3854 111.845Z" fill="#F85600"/>
<path d="M41.3117 113.775C41.3659 113.894 41.4634 114.013 41.5935 114.154C41.7237 114.295 41.9296 114.36 42.2007 114.36H45.0847C45.204 114.36 45.3015 114.317 45.3991 114.219C45.4967 114.122 45.5401 114.024 45.5401 113.905C45.5401 113.829 45.5184 113.753 45.475 113.667L42.5043 108.332C43.3174 107.974 43.968 107.432 44.4559 106.728C44.9437 106.023 45.1931 105.156 45.1931 104.126C45.1931 102.553 44.6618 101.328 43.5885 100.472C42.5151 99.6152 41.0406 99.1815 39.1649 99.1815H33.2668C33.1042 99.1815 32.9741 99.2357 32.8765 99.3333C32.7789 99.4309 32.7247 99.561 32.7247 99.7236V113.818C32.7247 113.959 32.7789 114.089 32.8765 114.198C32.9741 114.306 33.1042 114.36 33.2668 114.36H36.0641C36.2267 114.36 36.3568 114.306 36.4652 114.198C36.5737 114.089 36.6279 113.959 36.6279 113.818V109.004H38.8397L41.3117 113.775ZM39.1216 105.925H36.6279V102.196H39.1216C39.8263 102.196 40.3467 102.369 40.672 102.716C40.9972 103.063 41.1599 103.518 41.1599 104.082C41.1599 104.646 40.9864 105.09 40.6503 105.427C40.3142 105.763 39.8046 105.925 39.1216 105.925Z" fill="#F85600"/>
<path d="M61.0442 114.36C61.1743 114.36 61.2827 114.317 61.3803 114.219C61.4779 114.122 61.5213 114.024 61.5213 113.905C61.5213 113.829 61.5104 113.764 61.4779 113.71L56.4038 99.7887C56.3604 99.6261 56.2737 99.4851 56.1328 99.3659C55.9918 99.2466 55.8075 99.1815 55.5581 99.1815H52.3489C52.0995 99.1815 51.9152 99.2466 51.7743 99.3659C51.6333 99.4851 51.5466 99.6261 51.5032 99.7887L46.4074 113.71C46.3966 113.764 46.3857 113.829 46.3857 113.905C46.3857 114.024 46.4291 114.122 46.5267 114.219C46.6243 114.317 46.7218 114.36 46.8411 114.36H49.5083C49.7576 114.36 49.9311 114.306 50.0287 114.198C50.1263 114.089 50.1913 113.992 50.2238 113.905L51.0478 111.693H56.8375L57.6832 113.905C57.7157 113.992 57.7808 114.089 57.8892 114.198C57.9976 114.306 58.1602 114.36 58.3771 114.36H61.0442ZM51.9369 108.571L53.9535 102.846L55.9701 108.571H51.9369Z" fill="#F85600"/>
<path d="M58.4204 95.4302C58.4963 95.3543 58.5289 95.2675 58.5289 95.17C58.5289 94.8772 58.3879 94.7363 58.1169 94.7363H55.0811C54.8968 94.7363 54.745 94.758 54.6474 94.8122C54.5498 94.8664 54.4197 94.9748 54.2788 95.1483L52.3706 97.4685C52.2947 97.5444 52.2621 97.6311 52.2621 97.7504C52.2621 97.9781 52.3814 98.0973 52.6091 98.0973H54.7125C54.9184 98.0973 55.0702 98.0756 55.1895 98.0214C55.3088 97.9672 55.4172 97.8913 55.5364 97.7937L58.4204 95.4302Z" fill="#F85600"/>
<path d="M72.8295 102.586C72.9922 102.586 73.1223 102.532 73.2198 102.423C73.3174 102.315 73.3716 102.185 73.3716 102.044V99.7236C73.3716 99.561 73.3174 99.4309 73.2198 99.3333C73.1223 99.2357 72.9922 99.1815 72.8295 99.1815H61.1635C61.0009 99.1815 60.8707 99.2357 60.7732 99.3333C60.6756 99.4309 60.6214 99.561 60.6214 99.7236V102.044C60.6214 102.185 60.6756 102.315 60.7732 102.423C60.8707 102.532 61.0009 102.586 61.1635 102.586H65.0233V113.818C65.0233 113.959 65.0775 114.089 65.175 114.198C65.2726 114.306 65.4027 114.36 65.5654 114.36H68.4277C68.5903 114.36 68.7204 114.306 68.818 114.198C68.9156 114.089 68.9698 113.959 68.9698 113.818V102.586H72.8295Z" fill="#F85600"/>
<path d="M78.7927 114.36C78.9553 114.36 79.0854 114.306 79.1938 114.198C79.3023 114.089 79.3565 113.959 79.3565 113.818V99.7236C79.3565 99.561 79.3023 99.4309 79.1938 99.3333C79.0854 99.2357 78.9553 99.1815 78.7927 99.1815H75.887C75.7244 99.1815 75.5943 99.2357 75.4967 99.3333C75.3991 99.4309 75.3449 99.561 75.3449 99.7236V113.818C75.3449 113.959 75.3991 114.089 75.4967 114.198C75.5943 114.306 75.7244 114.36 75.887 114.36H78.7927Z" fill="#F85600"/>
<path d="M94.0041 107.628C93.6246 107.042 93.0283 106.565 92.2152 106.196C91.402 105.828 90.3395 105.524 89.0276 105.275C88.2361 105.101 87.6073 104.939 87.1519 104.776C86.6965 104.613 86.3713 104.429 86.1761 104.212C85.981 103.995 85.8834 103.746 85.8834 103.453C85.8834 102.987 86.0569 102.651 86.4146 102.423C86.7724 102.196 87.2603 102.087 87.9 102.087C88.4963 102.087 88.9734 102.206 89.342 102.445C89.7106 102.684 89.9383 102.965 90.0251 103.28C90.1118 103.41 90.2094 103.508 90.3286 103.562C90.4479 103.616 90.578 103.648 90.7406 103.648H93.6029C93.7439 103.648 93.8631 103.605 93.939 103.508C94.0149 103.41 94.0583 103.312 94.0583 103.193C94.0475 102.727 93.9065 102.261 93.6355 101.773C93.3644 101.285 92.9741 100.83 92.4537 100.396C91.9333 99.9622 91.2936 99.6152 90.5346 99.355C89.7757 99.0948 88.8975 98.9647 87.9 98.9647C86.6749 98.9647 85.6123 99.1599 84.7124 99.5502C83.8126 99.9405 83.1187 100.483 82.6199 101.176C82.1212 101.87 81.8718 102.662 81.8718 103.54C81.8718 104.418 82.0778 105.188 82.479 105.784C82.8801 106.381 83.4765 106.869 84.2462 107.237C85.016 107.606 85.9593 107.909 87.0543 108.137C87.9109 108.311 88.5939 108.484 89.1035 108.647C89.6131 108.809 89.9925 108.994 90.2202 109.2C90.4479 109.406 90.5672 109.666 90.5672 110.002C90.5672 110.446 90.3503 110.804 89.9275 111.064C89.5046 111.325 88.865 111.455 88.0301 111.455C87.5422 111.455 87.1194 111.39 86.7724 111.27C86.4255 111.151 86.1436 110.989 85.9376 110.783C85.7316 110.577 85.569 110.371 85.4497 110.154C85.363 110.034 85.2654 109.948 85.157 109.872C85.0485 109.796 84.8968 109.763 84.6908 109.763H81.9586C81.8285 109.763 81.72 109.807 81.6225 109.904C81.5249 110.002 81.4815 110.1 81.4815 110.219C81.514 110.967 81.7742 111.682 82.2621 112.344C82.75 113.005 83.4764 113.547 84.4305 113.959C85.3847 114.371 86.5881 114.577 88.0301 114.577C89.3203 114.577 90.4479 114.382 91.4237 114.003C92.3995 113.623 93.1693 113.07 93.733 112.365C94.2968 111.661 94.5787 110.815 94.5787 109.828C94.5787 108.95 94.3836 108.213 94.0041 107.628Z" fill="#F85600"/>
<path d="M103.361 100.222C103.328 100.103 103.252 100.016 103.133 99.9622C103.014 99.908 102.895 99.8863 102.775 99.9188C102.764 99.9188 102.699 99.9405 102.602 99.9838L101.041 100.96L101.474 99.1815C101.474 99.1815 101.496 99.1056 101.496 99.0731V99.0081C101.496 98.8888 101.453 98.7804 101.355 98.6828C101.257 98.5852 101.149 98.531 101.019 98.531H99.0673C98.9372 98.531 98.8288 98.5852 98.7312 98.6828C98.6337 98.7804 98.5903 98.8888 98.5903 99.0081V99.0731C98.5903 99.0731 98.5903 99.1382 98.612 99.1815L99.0457 100.96L97.5061 99.9838C97.4085 99.9405 97.3435 99.9188 97.3326 99.9188C97.235 99.8863 97.1158 99.908 96.9857 99.9622C96.8556 100.016 96.7797 100.103 96.7471 100.222L96.1183 102.066C96.0858 102.196 96.1183 102.326 96.1725 102.445C96.2267 102.564 96.3243 102.64 96.4436 102.673C96.4544 102.673 96.4761 102.673 96.4978 102.684C96.5195 102.694 96.552 102.705 96.5954 102.716L98.4385 102.868L97.029 104.039C96.9531 104.115 96.9206 104.158 96.9206 104.169C96.8664 104.266 96.8447 104.386 96.8556 104.516C96.8664 104.646 96.9315 104.744 97.029 104.819L98.5903 105.99C98.7095 106.045 98.8288 106.066 98.9698 106.055C99.1107 106.045 99.2083 105.98 99.2625 105.882C99.2733 105.849 99.295 105.828 99.3059 105.817C99.3167 105.806 99.3384 105.774 99.3492 105.73L100.043 104.017L100.759 105.73C100.759 105.73 100.813 105.806 100.824 105.817C100.835 105.828 100.845 105.849 100.845 105.882C100.921 105.98 101.019 106.045 101.149 106.055C101.279 106.066 101.398 106.055 101.518 105.99L103.079 104.819C103.198 104.744 103.263 104.646 103.274 104.516C103.285 104.386 103.263 104.266 103.187 104.169C103.187 104.158 103.155 104.115 103.079 104.039L101.669 102.868L103.513 102.716C103.513 102.716 103.588 102.694 103.61 102.684C103.632 102.673 103.654 102.673 103.664 102.673C103.784 102.64 103.87 102.564 103.935 102.445C104 102.326 104.022 102.196 103.99 102.066L103.361 100.222Z" fill="#F85600"/>
<path d="M106.527 22.4305C106.245 24.5339 107.784 25.8458 109.703 26.0952C109.226 26.0301 109.703 26.1711 109.953 26.2469C110.029 26.2903 110.235 26.3879 110.332 26.4313C111.004 26.7457 111.688 27.0601 112.392 27.3312C112.999 27.5588 113.693 27.7757 114.344 27.7757C114.756 27.7757 115.265 27.6998 115.667 27.5914C115.905 27.5155 117.206 26.6915 116.74 26.9842C118.464 25.9108 118.073 23.5147 116.631 22.7016C116.219 22.3872 115.732 22.2137 115.255 21.9752C115.374 22.0185 114.778 21.6608 114.778 21.6608C114.55 21.5198 114.333 21.368 114.116 21.2271C113.043 20.5223 111.839 19.9152 110.56 19.7417C110.332 19.7092 110.115 19.6983 109.888 19.6983C108.229 19.6983 106.765 20.5657 106.516 22.4305H106.527Z" fill="#F85600"/>
<path d="M114.593 9.46343C115.645 11.5343 119.353 11.1765 119.765 8.79122C120.025 7.28417 119.732 6.02649 119.071 4.67123C118.887 4.28092 118.691 3.86892 118.475 3.50029C118.475 3.48945 118.464 3.47861 118.453 3.46776C118.453 3.46776 118.453 3.45692 118.453 3.44608C118.388 3.19671 118.366 2.53535 118.388 3.33766C118.334 1.31019 116.599 -0.240222 114.572 0.0308292C112.587 0.301881 111.221 2.2643 111.774 4.23755C112.316 6.21081 113.682 7.67449 114.593 9.47427V9.46343Z" fill="#F85600"/>
<path d="M98.8288 14.5484C99.9239 15.3073 101.539 14.9061 102.374 13.9629C102.418 13.9195 102.472 13.8762 102.504 13.8219C103.296 12.7594 103.274 11.3825 102.493 10.3416C102.45 10.2115 102.418 10.0706 102.385 9.94048C102.331 9.72364 102.277 9.51764 102.233 9.3008C102.222 9.24659 102.146 8.72617 102.146 8.76954C102.038 7.80459 101.962 6.83965 101.691 5.89639C101.312 4.62787 100.13 3.68461 98.7855 3.68461C98.5903 3.68461 98.406 3.68461 98.2108 3.68461C96.9423 3.70629 95.7605 4.57366 95.4244 5.80965C95.2184 6.54691 95.3594 7.49017 95.793 8.19491C95.8798 9.27911 96.1183 10.4067 96.5195 11.4367C97.0182 12.6944 97.7663 13.8111 98.8288 14.5592V14.5484Z" fill="#F85600"/>
</svg>
