<svg width="148" height="142" viewBox="0 0 148 142" fill="none" xmlns="http://www.w3.org/2000/svg">
<path d="M80.1139 59.051L80.1904 59.0838L81.6873 58.6795L81.0426 58.3627C80.9224 58.308 80.8132 58.2425 80.693 58.1879C78.4204 56.9969 76.268 55.0958 74.1047 52.3862C72.6516 50.5616 69.199 45.6778 68.5653 39.8324L68.4779 39.0567L64.785 44.9129L64.8505 45.0441C67.8442 51.5122 73.4055 56.6255 80.103 59.0619L80.1139 59.051Z" fill="white"/>
<path d="M65.8885 62.7986L65.9977 62.886L69.5705 61.9245L69.1116 61.5858C65.6809 59.0947 62.7746 56.0355 60.4583 52.4846L60.2289 52.124L58.5245 54.8336L58.6228 54.9866C60.655 57.9256 63.1024 60.5588 65.8885 62.7986Z" fill="white"/>
<path d="M72.4549 61.0723L72.5532 61.1378L76.563 60.0562L75.9403 59.7284C70.6631 57.0079 66.3911 52.8123 63.5722 47.5898L63.3537 47.1746L61.6056 49.9498L61.693 50.0918C64.337 54.5495 68.0627 58.3299 72.4658 61.0504L72.4549 61.0723Z" fill="white"/>
<path d="M59.8683 64.4047L59.9776 64.5139L63.2772 63.6289L62.9057 63.2902C60.8844 61.4875 59.038 59.4662 57.4319 57.281L57.1915 56.9642L55.5417 59.5754L55.6619 59.7284C56.9402 61.3891 58.3606 62.9624 59.8683 64.4156V64.4047Z" fill="white"/>
<path d="M56.0115 65.4972C56.2082 65.4972 56.4049 65.4754 56.6015 65.4208L57.41 65.2022L57.0932 64.8635C56.1863 63.9239 55.3123 62.9297 54.4928 61.9245L54.2525 61.6186L54.0558 61.9463C53.5641 62.7439 53.6188 63.7491 54.1869 64.5139C54.6458 65.1367 55.3123 65.4754 56.0224 65.4754L56.0115 65.4972Z" fill="white"/>
<path d="M98.0214 58.5266C98.1634 58.8434 98.5677 59.1275 99.1358 59.3023C99.5729 59.4334 100.043 59.5099 100.491 59.5099C100.589 59.5099 100.687 59.5099 100.786 59.5099C101.376 59.4662 101.824 59.3132 102.097 59.051C102.643 58.5156 102.588 57.4886 102.457 56.7238C102.13 54.8882 101.31 53.1401 100.174 51.7853L99.8897 51.4466L99.7149 51.8509C99.0375 53.4351 98.4912 55.1832 98.0651 57.0734C97.9231 57.7071 97.8575 58.1879 98.0214 58.5375V58.5266Z" fill="white"/>
<path d="M106.019 46.9452C106.773 48.1033 108.04 49.3488 109.308 49.3488C109.45 49.3488 109.592 49.3379 109.734 49.2942C111.209 48.9446 112.149 47.0653 112.072 45.6013C112.006 44.4541 111.384 43.7767 110.28 43.6455C109.352 43.5254 108.357 43.6346 107.319 43.9296C106.587 44.1372 105.888 44.4541 105.222 44.8474L105.025 44.9676L105.112 45.1861C105.374 45.8198 105.68 46.4098 106.019 46.9452Z" fill="white"/>
<path d="M71.4279 23.1596C70.6522 23.0394 69.942 23.1596 69.352 23.5311C68.8603 23.837 68.5216 24.3396 68.4998 24.8094C68.467 25.2792 68.7838 25.7599 69.2646 25.9566C69.4066 26.0112 69.5596 26.0549 69.7016 26.0659C69.7562 26.0659 69.8218 26.0659 69.8764 26.0659C70.4446 26.0659 71.0892 25.8364 71.8431 25.3557C72.3675 25.0279 72.8155 24.6564 73.1979 24.2631L73.4164 24.0337L73.1542 23.8479C72.6516 23.4983 72.0288 23.247 71.417 23.1487L71.4279 23.1596Z" fill="white"/>
<path d="M81.7528 56.1447C82.4193 56.4943 84.2111 57.3356 85.9702 57.3356C86.8115 57.3356 87.6418 57.1499 88.352 56.6255C89.9035 55.4892 90.6137 53.7083 90.5044 51.1844C90.5044 50.9768 90.4826 50.7692 90.4607 50.5507L90.4279 50.1792L90.0783 50.3322C88.2974 51.097 86.5274 52.1568 84.965 53.0855L84.6045 53.304C84.3969 53.4242 84.1565 53.4679 83.9271 53.4023C83.6976 53.3477 83.5009 53.1947 83.3808 52.9871C83.2606 52.7796 83.2278 52.5392 83.2824 52.3097C83.3371 52.0803 83.49 51.8836 83.6976 51.7635L84.0582 51.5449C85.8282 50.4961 87.8276 49.3051 89.9035 48.4748L90.122 48.3874L90.0674 48.1579C89.7068 46.672 89.2042 45.3281 88.8437 44.465C88.3411 43.2522 87.7183 42.1269 86.9317 40.8048L86.8333 40.6409L86.6476 40.6737C86.0685 40.7721 85.4785 40.7721 84.8885 40.6737C83.4026 40.4443 82.1024 39.6467 81.2174 38.4339C80.3325 37.2212 79.9719 35.7352 80.2013 34.2493C80.2123 34.1401 80.2341 34.0417 80.256 33.9325L80.2997 33.7467L80.1358 33.6484C79.3491 33.1567 78.5843 32.7743 77.8304 32.5121L77.5354 32.4029L77.4699 32.7197C77.1093 34.5443 76.4975 36.1832 76.0604 37.2649C75.9075 37.6582 75.5032 37.8876 75.088 37.8221C75.0225 37.8221 74.9569 37.7893 74.8914 37.7674C74.4325 37.5817 74.203 37.0573 74.3888 36.5984C74.793 35.5823 75.3721 34.0417 75.6999 32.3482L75.7654 32.0314H75.4486C75.3066 32.0095 75.1645 32.0205 75.0225 32.0314C73.0886 32.1188 71.5262 33.4408 71.0564 35.4293C69.7672 40.783 72.7062 46.967 75.8856 50.9659C77.8414 53.4242 79.7534 55.1286 81.7419 56.1666L81.7528 56.1447Z" fill="white"/>
<path d="M85.2491 38.4011C85.4239 38.423 85.5987 38.4449 85.7626 38.4449C86.4619 38.4449 87.1393 38.2263 87.7183 37.8002C88.4394 37.2758 88.9092 36.5 89.0404 35.626C89.1715 34.7519 88.9639 33.8669 88.4394 33.1567C87.915 32.4356 87.1393 31.9658 86.2652 31.8347C85.3911 31.7036 84.5061 31.9112 83.796 32.4356C83.0748 32.9601 82.605 33.7358 82.4739 34.6099C82.1898 36.4236 83.4354 38.128 85.2491 38.4121V38.4011Z" fill="white"/>
<path d="M55.3232 67.737C55.946 67.8354 56.5797 67.8026 57.1915 67.6387L87.1283 59.5973C87.2048 59.5754 87.2704 59.5536 87.3468 59.5208L87.4124 59.499C88.2646 59.3241 89.0404 58.9854 89.7178 58.4938C91.8811 56.9205 92.9518 54.3638 92.8207 51.097C92.7988 50.6599 92.7661 50.2011 92.7005 49.7094L92.6677 49.4581L92.919 49.4035C94.9949 48.9555 96.7431 49.1959 98.2727 50.1137L98.4803 50.2448L98.382 50.4633C97.5297 52.3207 96.8414 54.4075 96.3279 56.6692C96.1421 57.5214 96.011 58.4282 96.4044 59.2804C96.7758 60.078 97.5407 60.6789 98.6223 61.0176C98.9282 61.116 99.2342 61.1815 99.5401 61.2362C99.999 61.3017 100.458 61.3236 100.928 61.3017C101.944 61.2362 102.796 60.8975 103.375 60.3402C103.987 59.7502 104.642 58.5812 104.249 56.4069C103.79 53.894 102.61 51.5886 100.906 49.917L100.753 49.764L100.862 49.5783C101.583 48.3218 102.403 47.2402 103.288 46.377L103.561 46.1039L103.725 46.4535C103.965 46.967 104.238 47.4696 104.544 47.9285C105.691 49.6875 107.265 50.8785 108.751 51.1079C109.231 51.1844 109.712 51.1625 110.182 51.0533C112.629 50.4633 114.017 47.7209 113.886 45.5139C113.776 43.5035 112.476 42.1159 110.521 41.8756C109.351 41.7335 108.106 41.8428 106.839 42.2252C106.15 42.4219 105.484 42.695 104.839 43.0337L104.511 43.2085L104.446 42.848C104.304 42.0941 104.227 41.3293 104.227 40.5645V40.3241C104.26 38.6197 105.047 36.9808 105.735 35.5495C105.954 35.1015 105.768 34.5662 105.32 34.3477C105.101 34.2384 104.861 34.2275 104.632 34.304C104.402 34.3804 104.227 34.5443 104.118 34.7628C103.386 36.2815 102.468 38.1826 102.435 40.2804V40.5645C102.435 41.7772 102.588 42.9791 102.894 44.1263L102.938 44.2902L102.807 44.3994C101.649 45.3718 100.589 46.6174 99.6603 48.1033C99.5947 48.2126 99.5292 48.3109 99.4636 48.4201L99.3216 48.6496L99.0921 48.5076C97.2238 47.415 95.0386 47.12 92.5912 47.6444L92.329 47.699L92.2635 47.4477C91.9466 46.2022 91.5205 44.902 90.9742 43.5909C90.417 42.2361 89.7178 40.9906 89.1059 39.9417L88.9857 39.7341L89.1824 39.5921C90.3405 38.7071 91.1053 37.4287 91.3348 35.9865C91.5642 34.5006 91.2037 33.0147 90.3187 31.8019C89.4337 30.5892 88.1226 29.7916 86.6476 29.5621C84.6919 29.2562 82.7689 29.9773 81.4797 31.496L81.3267 31.6708L81.1301 31.5506C80.0702 30.9169 79.0104 30.4362 77.9943 30.1303L77.7977 30.0757V29.8681C77.7977 29.3983 77.7758 28.9394 77.7321 28.5023C77.5573 26.8853 76.8908 25.2792 75.8529 23.9681L75.7436 23.8261L75.8201 23.6731C76.3336 22.6898 76.6832 21.5426 76.8799 20.2752C77.1093 18.7456 77.1203 17.052 76.9127 15.0745C76.8143 14.113 76.6505 13.086 76.4319 11.9278C76.3882 11.6984 76.2571 11.4908 76.0495 11.3488C75.8529 11.2176 75.6125 11.163 75.3721 11.2067C75.1427 11.2504 74.9351 11.3815 74.804 11.5782C74.6729 11.7749 74.6182 12.0152 74.6619 12.2556C74.8695 13.3482 75.0225 14.3315 75.1208 15.2493C75.3175 17.063 75.3066 18.6144 75.099 19.9802C74.9788 20.7887 74.7821 21.5316 74.509 22.1872L74.3779 22.504L74.1047 22.3183C72.7281 21.4005 70.4118 20.7668 68.4233 22.0015C67.429 22.6133 66.7844 23.6185 66.7188 24.6892C66.6424 25.9238 67.3853 27.0929 68.5762 27.6064C68.8931 27.7375 69.2209 27.8249 69.5705 27.8577C70.5866 27.9451 71.6573 27.6283 72.8264 26.8853C73.4273 26.5029 73.9627 26.0768 74.4216 25.607L74.6619 25.3666L74.8477 25.6507C75.4377 26.5794 75.8201 27.6501 75.9403 28.6881C75.9621 28.9394 75.984 29.2016 75.9949 29.4529V29.7479L75.7108 29.7369C75.5797 29.7369 75.4377 29.7369 75.2956 29.7369C75.1864 29.7369 75.0662 29.7369 74.9569 29.7369C73.471 29.8025 72.1053 30.3379 71.0127 31.2884C70.4773 31.7473 70.0294 32.2936 69.6579 32.9054L52.1438 60.7226C51.1277 62.3287 51.2042 64.3719 52.3404 65.9124C53.0834 66.9176 54.1432 67.5732 55.345 67.7589L55.3232 67.737ZM105.222 44.8474C105.888 44.4541 106.587 44.1481 107.319 43.9296C108.357 43.6237 109.352 43.5254 110.28 43.6455C111.384 43.7767 112.006 44.4541 112.072 45.6013C112.159 47.0653 111.22 48.9337 109.734 49.2942C109.592 49.327 109.45 49.3488 109.308 49.3488C108.04 49.3488 106.773 48.1033 106.019 46.9452C105.669 46.4098 105.364 45.8198 105.112 45.1861L105.025 44.9676L105.222 44.8474ZM99.7149 51.8509L99.8897 51.4466L100.174 51.7853C101.321 53.1401 102.13 54.8882 102.457 56.7238C102.599 57.4886 102.643 58.5266 102.097 59.051C101.824 59.3132 101.376 59.4771 100.786 59.5099C100.687 59.5099 100.589 59.5099 100.491 59.5099C100.032 59.5099 99.5729 59.4443 99.1358 59.3023C98.5568 59.1166 98.1634 58.8434 98.0214 58.5266C97.8575 58.1769 97.9231 57.6853 98.0651 57.0625C98.4912 55.1832 99.0375 53.4242 99.7149 51.8399V51.8509ZM73.2088 24.2631C72.8373 24.6674 72.3784 25.0279 71.854 25.3557C71.1001 25.8255 70.4555 26.0659 69.8874 26.0659C69.8327 26.0659 69.7672 26.0659 69.7125 26.0659C69.5596 26.0549 69.4175 26.0112 69.2755 25.9566C68.7948 25.749 68.4779 25.2792 68.5107 24.8094C68.5435 24.3396 68.8712 23.837 69.3629 23.5311C69.942 23.1705 70.6631 23.0394 71.4388 23.1596C72.0507 23.2579 72.6625 23.4983 73.176 23.8588L73.4383 24.0446L73.2197 24.274L73.2088 24.2631ZM82.4739 34.599C82.605 33.7249 83.0858 32.9492 83.796 32.4247C84.5171 31.9003 85.3911 31.6927 86.2652 31.8238C87.1393 31.9549 87.915 32.4356 88.4394 33.1458C88.9639 33.8669 89.1824 34.741 89.0404 35.6151C88.8983 36.4891 88.4285 37.2649 87.7183 37.7893C87.1393 38.2154 86.4619 38.4339 85.7626 38.4339C85.5878 38.4339 85.413 38.423 85.2491 38.3902C83.4354 38.1061 82.1898 36.4017 82.4739 34.588V34.599ZM71.0673 35.4075C71.5481 33.4299 73.0995 32.0969 75.0334 32.0095C75.1755 32.0095 75.3175 32.0095 75.4595 32.0095H75.7764L75.7108 32.3373C75.3831 34.0308 74.804 35.5714 74.3997 36.5875C74.214 37.0463 74.4434 37.5708 74.9023 37.7565C74.9679 37.7784 75.0334 37.8002 75.099 37.8111C75.5032 37.8767 75.9075 37.6473 76.0714 37.2539C76.5084 36.1723 77.1203 34.5334 77.4808 32.7088L77.5464 32.3919L77.8414 32.5012C78.5843 32.7743 79.3601 33.1567 80.1467 33.6375L80.3106 33.7358L80.2669 33.9215C80.2451 34.0199 80.2232 34.1291 80.2123 34.2384C79.9828 35.7243 80.3434 37.2102 81.2284 38.423C82.1134 39.6358 83.4245 40.4334 84.8995 40.6628C85.4895 40.7502 86.0794 40.7502 86.6585 40.6628L86.8443 40.63L86.9426 40.7939C87.7292 42.1159 88.352 43.2413 88.8546 44.4541C89.2152 45.3172 89.7178 46.6611 90.0783 48.147L90.1329 48.3764L89.9144 48.4638C87.8385 49.2942 85.8391 50.4851 84.0691 51.534L83.7085 51.7525C83.501 51.8727 83.3589 52.0694 83.2934 52.2988C83.2387 52.5283 83.2715 52.7686 83.3917 52.9762C83.5119 53.1838 83.7085 53.3259 83.938 53.3914C84.1674 53.457 84.4078 53.4133 84.6154 53.2931L84.9759 53.0746C86.5383 52.1459 88.3083 51.0861 90.0892 50.3212L90.4389 50.1683L90.4716 50.5398C90.4935 50.7474 90.5044 50.9659 90.5153 51.1735C90.6137 53.7083 89.9144 55.4892 88.3629 56.6145C87.6528 57.128 86.8224 57.3247 85.9811 57.3247C84.2111 57.3247 82.4302 56.4834 81.7637 56.1338C79.7752 55.0849 77.8632 53.3914 75.9075 50.9331C72.7281 46.9342 69.789 40.7502 71.0783 35.3965L71.0673 35.4075ZM68.4779 39.0348L68.5653 39.8106C69.199 45.6559 72.6516 50.5398 74.1047 52.3644C76.2571 55.074 78.4204 56.9751 80.693 58.166C80.8132 58.2316 80.9225 58.2862 81.0426 58.3408L81.6873 58.6577L80.1904 59.0619L80.1139 59.0291C73.4164 56.5818 67.8551 51.4794 64.8615 45.0113L64.7959 44.8802L68.4888 39.0239L68.4779 39.0348ZM63.3428 47.1855L63.5613 47.6007C66.3801 52.8123 70.6631 57.0188 75.9293 59.7393L76.5521 60.0671L72.5423 61.1488L72.444 61.0832C68.0409 58.3627 64.3152 54.5714 61.6711 50.1246L61.5837 49.9825L63.3318 47.2074L63.3428 47.1855ZM60.2289 52.1349L60.4583 52.4955C62.7746 56.0464 65.6809 59.1056 69.1116 61.5967L69.5705 61.9354L65.9977 62.8969L65.8885 62.8095C63.1024 60.5697 60.655 57.9366 58.6228 54.9975L58.5245 54.8445L60.2289 52.1349ZM57.1915 56.9532L57.4319 57.2701C59.038 59.4552 60.8844 61.4765 62.9057 63.2793L63.2772 63.618L59.9776 64.503L59.8683 64.3937C58.3606 62.9406 56.9402 61.3673 55.6619 59.7065L55.5417 59.5536L57.1915 56.9423V56.9532ZM54.0449 61.9573L54.2415 61.6295L54.4819 61.9354C55.3013 62.9406 56.1645 63.9239 57.0823 64.8745L57.3991 65.2132L56.5906 65.4317C56.3939 65.4863 56.1973 65.5082 56.0006 65.5082C55.2904 65.5082 54.6239 65.1695 54.1651 64.5467C53.5969 63.7819 53.5532 62.7658 54.0339 61.9791L54.0449 61.9573Z" fill="#FFA901"/>
<path d="M90.2422 24.5362L96.6557 26.3172L96.7103 26.4264L99.7258 32.1843C99.8679 32.4575 100.141 32.6542 100.447 32.6979C100.534 32.7088 100.622 32.7088 100.709 32.6979C101.113 32.6542 101.441 32.3701 101.55 31.9767L102.862 27.1366L107.833 26.4046C108.204 26.3499 108.521 26.0768 108.63 25.7162C108.74 25.3557 108.63 24.9514 108.335 24.7001L104.544 21.3459L105.779 16.4074C105.866 16.0359 105.735 15.6426 105.44 15.4022C105.145 15.1619 104.73 15.1182 104.391 15.2821L99.846 17.5219L95.7379 14.55C95.5631 14.4298 95.3664 14.3643 95.1588 14.3643C94.9949 14.3643 94.831 14.408 94.6781 14.4845C94.3503 14.6702 94.1536 15.0308 94.1755 15.4132L94.536 20.3844L90.0564 22.7007C89.6959 22.8864 89.4883 23.2689 89.532 23.6731C89.5757 24.0774 89.8489 24.4051 90.2422 24.5144V24.5362Z" fill="#EF6124"/>
<path d="M82.9984 23.1814C83.7632 23.3016 84.528 23.1159 85.1617 22.657C85.7845 22.1981 86.1996 21.5207 86.3198 20.7559C86.5711 19.1717 85.4785 17.6857 83.8943 17.4345C83.7413 17.4126 83.5884 17.4017 83.4463 17.4017C82.8345 17.4017 82.2445 17.5983 81.7419 17.9589C81.1191 18.4178 80.7039 19.0952 80.5838 19.86C80.4636 20.6248 80.6493 21.3896 81.1082 22.0233C81.5671 22.6461 82.2445 23.0613 83.0093 23.1814H82.9984Z" fill="#EF6124"/>
<path d="M96.6557 35.7789C96.0438 35.7789 95.4538 35.9756 94.9512 36.3362C94.3285 36.795 93.9133 37.4724 93.7931 38.2373C93.6729 39.0021 93.8587 39.7669 94.3175 40.4006C94.7764 41.0343 95.4538 41.4385 96.2186 41.5587C97.8138 41.7991 99.2888 40.7174 99.5401 39.1332C99.7805 37.5489 98.6988 36.063 97.1146 35.8117C96.9616 35.7899 96.8086 35.7789 96.6666 35.7789H96.6557Z" fill="#EF6124"/>
<path d="M26.9269 89.1735C27.3421 88.9769 27.659 88.671 27.8665 88.2449C28.0741 87.8187 28.1943 87.2725 28.2052 86.5841C28.238 86.158 28.249 85.7865 28.2599 85.4478C28.2599 85.1091 28.2599 84.7814 28.2599 84.4427C28.2599 84.104 28.238 83.7325 28.2052 83.3282C28.1725 82.334 27.9212 81.6129 27.4295 81.154C26.9379 80.6951 26.2167 80.4657 25.2553 80.4657H23.0701V89.4686H25.3645C25.9873 89.4686 26.5117 89.3702 26.9269 89.1735Z" fill="white"/>
<path d="M74.9023 80.3564V84.1149H77.4153C78.1036 84.1149 78.6171 83.951 78.9558 83.6123C79.2945 83.2736 79.4693 82.8256 79.4693 82.2575C79.4693 81.6894 79.3054 81.2305 78.9776 80.8808C78.6499 80.5312 78.1254 80.3564 77.4153 80.3564H74.9023Z" fill="white"/>
<path d="M104.577 86.7808H108.641L106.609 81.0119L104.577 86.7808Z" fill="white"/>
<path d="M120.015 88.9878C120.507 89.4576 121.13 89.6871 121.883 89.6871C122.637 89.6871 123.282 89.4576 123.774 88.9878C124.265 88.518 124.517 87.775 124.549 86.7589C124.582 86.1143 124.593 85.5134 124.593 84.9453C124.593 84.3771 124.582 83.7871 124.549 83.1753C124.517 82.4869 124.396 81.9297 124.167 81.5036C123.938 81.0775 123.632 80.7607 123.238 80.5531C122.845 80.3455 122.397 80.2471 121.883 80.2471C121.37 80.2471 120.944 80.3455 120.55 80.5531C120.157 80.7607 119.84 81.0775 119.611 81.5036C119.381 81.9297 119.25 82.4869 119.218 83.1753C119.207 83.7871 119.196 84.3771 119.196 84.9453C119.196 85.5134 119.196 86.1143 119.218 86.7589C119.261 87.775 119.523 88.518 120.015 88.9878ZM120.594 84.5956C121.064 84.3334 121.545 84.2241 121.883 84.2241C122.244 84.2241 122.725 84.3334 123.195 84.5956C123.195 84.7267 123.195 84.8688 123.195 84.9999C123.195 85.1091 123.195 85.2184 123.195 85.3277C123.151 85.3495 123.107 85.3714 123.074 85.3932C122.561 85.6664 122.113 85.6991 121.894 85.6991C121.534 85.6991 121.119 85.5899 120.736 85.3932C120.693 85.3714 120.649 85.3495 120.605 85.3167C120.605 85.2075 120.605 85.0982 120.605 84.989C120.605 84.8578 120.605 84.7158 120.605 84.5847L120.594 84.5956Z" fill="white"/>
<path d="M14.2857 102.776C13.9689 102.394 13.4444 102.208 12.7124 102.208H10.1558V106.12H12.7124C13.3352 106.12 13.8378 105.956 14.2092 105.639C14.5807 105.322 14.7665 104.83 14.7665 104.175C14.7665 103.618 14.6026 103.159 14.2857 102.776Z" fill="white"/>
<path d="M28.2052 108.632L26.173 102.864L24.1408 108.632H28.2052Z" fill="white"/>
<path d="M43.5342 102.733C43.2064 102.383 42.682 102.208 41.9718 102.208H39.4589V105.967H41.9718C42.6601 105.967 43.1737 105.803 43.5124 105.464C43.8511 105.125 44.0259 104.677 44.0259 104.109C44.0259 103.541 43.862 103.082 43.5342 102.733Z" fill="white"/>
<path d="M56.9184 102.864L54.8862 108.632H58.9506L56.9184 102.864Z" fill="white"/>
<path d="M91.9357 103.355C91.7063 102.929 91.4003 102.612 91.007 102.405C90.6137 102.197 90.1657 102.099 89.6522 102.099C89.1387 102.099 88.7126 102.197 88.3192 102.405C87.9259 102.612 87.6091 102.929 87.3796 103.355C87.1502 103.781 87.0191 104.339 86.9863 105.027C86.9754 105.639 86.9644 106.229 86.9644 106.797C86.9644 107.365 86.9644 107.966 86.9863 108.611C87.03 109.627 87.2922 110.37 87.7839 110.84C88.2755 111.309 88.8983 111.539 89.6522 111.539C90.4061 111.539 91.0507 111.309 91.5424 110.84C92.034 110.37 92.2853 109.627 92.3181 108.611C92.3509 107.966 92.3618 107.365 92.3618 106.797C92.3618 106.229 92.3509 105.639 92.3181 105.027C92.2853 104.339 92.1651 103.781 91.9357 103.355ZM90.9633 107.179C90.9633 107.179 90.8759 107.223 90.8322 107.256C90.3187 107.518 89.8707 107.562 89.6522 107.562C89.2916 107.562 88.8655 107.452 88.4941 107.256C88.4504 107.234 88.4066 107.212 88.3629 107.179C88.3629 107.07 88.3629 106.961 88.3629 106.852C88.3629 106.72 88.3629 106.578 88.3629 106.447C88.8328 106.185 89.3026 106.076 89.6522 106.076C90.0018 106.076 90.4935 106.185 90.9633 106.447C90.9633 106.578 90.9633 106.72 90.9633 106.852C90.9633 106.961 90.9633 107.07 90.9633 107.179Z" fill="white"/>
<path d="M108.029 108.436C108.062 108.01 108.073 107.638 108.084 107.3C108.095 106.961 108.084 106.633 108.084 106.294C108.084 105.956 108.062 105.584 108.029 105.18C107.997 104.186 107.745 103.465 107.254 103.006C106.762 102.547 106.041 102.317 105.079 102.317H102.894V111.32H105.189C105.812 111.32 106.336 111.222 106.751 111.025C107.166 110.829 107.483 110.523 107.691 110.097C107.898 109.67 108.019 109.124 108.029 108.436Z" fill="white"/>
<path d="M118.54 108.632H122.605L120.572 102.864L118.54 108.632Z" fill="white"/>
<path d="M146.456 105.519C146.762 104.787 146.925 104.011 146.925 103.213C146.925 103.159 146.925 103.093 146.925 103.038C146.882 101.705 146.51 100.394 145.822 99.1379C145.221 98.0563 144.391 97.062 143.353 96.1989C142.315 95.3357 141.091 94.6583 139.693 94.1776C138.36 93.7187 136.874 93.4893 135.268 93.4893C134.011 93.4893 132.842 93.6422 131.739 93.9263C131.935 93.6641 132.143 93.4128 132.329 93.1396C133.421 91.4243 134.011 89.3921 134.088 87.1523C134.12 86.4421 134.131 85.7319 134.131 85.0108C134.131 84.2897 134.109 83.5795 134.088 82.9349C134.011 80.6405 133.421 78.6083 132.318 76.882C131.17 75.0792 129.597 73.7135 127.63 72.8176C125.926 72.0418 123.992 71.6485 121.894 71.6485C119.797 71.6485 117.885 72.0418 116.18 72.8066C116.049 72.8613 115.94 72.9377 115.82 73.0033C115.71 71.867 115.284 70.7635 114.519 69.813C113.755 68.8843 112.728 68.2396 111.591 67.9228C113.383 66.0217 114.607 63.7054 115.175 61.1378C121.337 58.5047 125.456 51.9273 125.052 44.8692C124.746 39.5374 121.862 35.036 117.524 32.5886C118.322 31.496 118.955 30.2614 119.349 28.9284C120.54 24.9405 119.589 20.6139 116.923 17.5109C117.371 13.4247 115.71 9.31655 112.454 6.69434C109.199 4.07214 104.828 3.32918 100.917 4.64029C97.3003 2.69549 92.8644 2.69549 89.2042 4.73862C88.2755 5.25213 87.4452 5.89676 86.7022 6.60694C86.5602 6.57416 86.4072 6.54138 86.2543 6.51953C85.3365 4.76047 84.0035 3.24178 82.31 2.09456C79.6332 0.280874 76.4101 -0.385603 73.2416 0.215319C67.4946 1.3079 63.4739 6.32287 63.4083 11.9606C63.0915 12.1245 62.7855 12.2993 62.4796 12.485C58.4043 15.0089 55.8039 19.3028 55.498 23.9681C55.3232 26.6777 55.946 29.2999 57.1806 31.5943L49.8603 43.2194C49.8603 43.2194 49.8931 43.285 49.904 43.3069C50.2208 43.9843 50.5377 44.6726 50.8108 45.3828C51.0403 45.9946 51.2588 46.6939 51.2588 47.3494C51.2588 47.7646 51.1823 48.2781 51.073 48.6824C51.0075 48.9118 50.1662 50.2448 50.4612 49.7749C49.3795 51.5122 46.9649 51.1188 46.1455 49.6657C46.0799 49.5783 46.0362 49.4909 45.9925 49.3925L42.6274 54.7462C42.6274 54.7462 42.5837 54.8118 42.5618 54.8555C39.2841 60.1436 39.4152 66.7209 42.824 71.8779H41.2944C40.77 71.8779 40.2674 71.9653 39.7757 72.0965C39.2731 71.9653 38.7705 71.8779 38.2352 71.8779H35.307C33.9304 71.8779 32.6411 72.3587 31.5595 73.2218C31.4612 73.1672 31.3628 73.1126 31.2645 73.0579C29.5491 72.2713 27.5606 71.8779 25.3427 71.8779H19.6612C18.0442 71.8779 16.5364 72.5007 15.4111 73.6261C14.2748 74.7624 13.652 76.2701 13.652 77.8872V92.0908C13.652 92.6698 13.7613 93.238 13.9142 93.7733C13.5428 93.7515 13.1713 93.7296 12.7998 93.7296H6.68133C5.07523 93.7296 3.57839 94.3415 2.40933 95.4996C1.29489 96.625 0.672119 98.1327 0.672119 99.7388V113.942C0.672119 115.472 1.25119 116.925 2.28914 118.051C3.43636 119.274 4.98783 119.952 6.68133 119.952H9.63131C11.2483 119.952 12.7561 119.329 13.9033 118.182C14.0672 118.018 14.2092 117.832 14.3513 117.646C14.5042 117.832 14.6353 118.029 14.8102 118.204C15.127 118.52 15.4657 118.783 15.8263 119.012C15.6842 119.296 15.5531 119.58 15.4548 119.886L10.3633 133.806C10.2978 133.97 10.2541 134.144 10.2104 134.308C10.0793 134.811 10.0137 135.335 10.0137 135.871C10.0137 137.444 10.6365 138.93 11.7509 140.055C12.8763 141.181 14.3622 141.792 15.9355 141.792H18.6233C20.3714 141.792 21.9666 141.137 23.1029 139.924C23.1247 139.957 23.1575 139.979 23.1794 140.001C24.3156 141.148 25.8671 141.781 27.5497 141.781H30.2375C31.1443 141.781 32.0074 141.563 32.7941 141.181C34.3019 141.727 35.9735 142 37.9074 142C39.8413 142 41.7096 141.683 43.3266 141.039C44.6486 140.514 45.8068 139.793 46.7792 138.908C46.9868 139.247 47.2271 139.574 47.5003 139.869C48.6475 141.093 50.199 141.771 51.8925 141.771H54.8206C55.5417 141.771 56.23 141.629 56.8856 141.388C57.5521 141.629 58.2513 141.771 58.9724 141.771H64.7631C66.6533 141.771 68.3577 141.476 69.8764 140.918C70.7833 141.454 71.7994 141.771 72.8701 141.771H75.5579C77.3278 141.771 78.9339 141.093 80.0375 139.902C80.0702 139.935 80.103 139.968 80.1358 140.001C81.2721 141.137 82.8235 141.771 84.4952 141.771H87.183C87.6418 141.771 88.0898 141.705 88.5268 141.607C88.9857 141.716 89.4446 141.771 89.9253 141.771H95.716C97.9012 141.771 99.846 141.399 101.518 140.667C101.638 140.612 101.747 140.536 101.867 140.481C102.916 141.301 104.216 141.771 105.571 141.771H115.951C117.043 141.771 118.081 141.486 118.988 140.951C120.638 141.65 122.506 141.989 124.691 141.989C126.669 141.989 128.494 141.672 130.111 141.028C132.001 140.285 133.541 139.159 134.71 137.695C136.043 136.013 136.754 133.959 136.754 131.73C136.754 130.113 136.426 128.649 135.759 127.348C136.065 126.616 136.229 125.841 136.229 125.043C136.229 124.988 136.229 124.923 136.229 124.868C136.185 123.535 135.814 122.224 135.126 120.968C134.962 120.673 134.776 120.378 134.579 120.094C134.841 120.094 135.093 120.126 135.366 120.126C137.344 120.126 139.168 119.81 140.785 119.165C142.675 118.422 144.216 117.297 145.385 115.833C146.718 114.15 147.428 112.096 147.428 109.867C147.428 108.25 147.1 106.786 146.434 105.486L146.456 105.519ZM116.53 135.772C116.53 135.914 116.475 136.045 116.377 136.155C116.278 136.264 116.147 136.319 115.983 136.319H105.604C105.44 136.319 105.309 136.264 105.211 136.155C105.112 136.045 105.058 135.914 105.058 135.772V121.569C105.058 121.405 105.112 121.274 105.211 121.175C105.309 121.077 105.44 121.022 105.604 121.022H115.809C115.973 121.022 116.104 121.077 116.202 121.175C116.3 121.274 116.355 121.405 116.355 121.569V123.623C116.355 123.787 116.3 123.918 116.202 124.016C116.104 124.114 115.973 124.169 115.809 124.169H108.838V127.119H115.328C115.492 127.119 115.623 127.174 115.721 127.283C115.82 127.392 115.874 127.523 115.874 127.687V129.588C115.874 129.73 115.82 129.861 115.721 129.971C115.623 130.08 115.492 130.135 115.328 130.135H108.838V133.172H115.983C116.147 133.172 116.278 133.227 116.377 133.325C116.475 133.423 116.53 133.554 116.53 133.718V135.772ZM34.7826 77.8653C34.7826 77.7014 34.8372 77.5703 34.9356 77.472C35.0339 77.3736 35.165 77.319 35.3289 77.319H38.257C38.4209 77.319 38.552 77.3736 38.6613 77.472C38.7705 77.5703 38.8252 77.7014 38.8252 77.8653V92.0689C38.8252 92.2109 38.7705 92.342 38.6613 92.4513C38.552 92.5606 38.4209 92.6152 38.257 92.6152H35.3289C35.165 92.6152 35.0339 92.5606 34.9356 92.4513C34.8372 92.342 34.7826 92.2109 34.7826 92.0689V77.8653ZM44.5722 77.5157C44.7033 77.6468 44.7798 77.767 44.8125 77.8872L47.9155 87.9826L50.9966 77.8872C51.0403 77.767 51.1277 77.6468 51.2479 77.5157C51.368 77.3846 51.5538 77.319 51.7832 77.319H54.5147C54.6349 77.319 54.7332 77.3627 54.8315 77.4611C54.9299 77.5594 54.9736 77.6577 54.9736 77.7779C54.9736 77.8325 54.9626 77.8981 54.9299 77.9746L50.4721 91.9596C50.4284 92.1345 50.3301 92.2874 50.188 92.4185C50.046 92.5496 49.8384 92.6152 49.5762 92.6152H46.2329C45.9816 92.6152 45.7849 92.5496 45.6429 92.4185C45.5009 92.2874 45.3916 92.1345 45.337 91.9596L40.8792 77.9746C40.8465 77.8981 40.8355 77.8325 40.8355 77.7779C40.8355 77.6577 40.8792 77.5594 40.9776 77.4611C41.0759 77.3627 41.1852 77.319 41.3163 77.319H44.0259C44.2553 77.319 44.4411 77.3846 44.5722 77.5157ZM114.192 91.9596C114.224 92.0143 114.235 92.0798 114.235 92.1563C114.235 92.2765 114.192 92.3748 114.093 92.4732C113.995 92.5715 113.886 92.6152 113.755 92.6152H111.067C110.848 92.6152 110.684 92.5606 110.575 92.4513C110.466 92.342 110.4 92.2437 110.368 92.1563L109.515 89.9274H103.681L102.851 92.1563C102.818 92.2437 102.752 92.342 102.654 92.4513C102.556 92.5606 102.381 92.6152 102.13 92.6152H99.4417C99.3216 92.6152 99.2232 92.5715 99.1249 92.4732C99.0266 92.3748 98.9829 92.2765 98.9829 92.1563C98.9829 92.0798 98.9829 92.0143 99.0047 91.9596L104.14 77.9309C104.184 77.767 104.271 77.6249 104.413 77.5047C104.555 77.3846 104.741 77.319 104.992 77.319H108.226C108.477 77.319 108.663 77.3846 108.805 77.5047C108.947 77.6249 109.035 77.767 109.078 77.9309L114.192 91.9596ZM128.199 114.008C128.199 114.128 128.155 114.227 128.057 114.325C127.958 114.423 127.849 114.467 127.718 114.467H125.03C124.812 114.467 124.648 114.412 124.538 114.303C124.429 114.194 124.364 114.095 124.331 114.008L123.479 111.779H117.644L116.814 114.008C116.781 114.095 116.716 114.194 116.617 114.303C116.519 114.412 116.344 114.467 116.093 114.467H113.405C113.285 114.467 113.186 114.423 113.088 114.325C112.99 114.227 112.946 114.128 112.946 114.008C112.946 113.932 112.946 113.866 112.968 113.811L118.103 99.7825C118.147 99.6187 118.234 99.4766 118.376 99.3564C118.518 99.2363 118.704 99.1707 118.955 99.1707H122.189C122.441 99.1707 122.626 99.2363 122.768 99.3564C122.91 99.4766 122.998 99.6187 123.042 99.7825L128.155 113.811C128.188 113.866 128.199 113.932 128.199 114.008ZM44.1788 113.877L41.6877 109.07H39.4589V113.921C39.4589 114.063 39.4042 114.194 39.295 114.303C39.1857 114.412 39.0546 114.467 38.8907 114.467H36.0719C35.908 114.467 35.7769 114.412 35.6785 114.303C35.5802 114.194 35.5256 114.063 35.5256 113.921V99.717C35.5256 99.5531 35.5802 99.422 35.6785 99.3237C35.7769 99.2253 35.908 99.1707 36.0719 99.1707H42.0155C43.9057 99.1707 45.3916 99.6077 46.4733 100.471C47.5549 101.334 48.0903 102.569 48.0903 104.153C48.0903 105.191 47.839 106.065 47.3473 106.775C46.8557 107.485 46.2001 108.032 45.3807 108.392L48.3744 113.768C48.4181 113.855 48.4399 113.932 48.4399 114.008C48.4399 114.128 48.3962 114.227 48.2979 114.325C48.1995 114.423 48.1012 114.467 47.981 114.467H45.0748C44.8016 114.467 44.594 114.401 44.4629 114.259C44.3318 114.117 44.2335 113.997 44.1788 113.877ZM57.1587 77.472C57.2571 77.3736 57.3882 77.319 57.5521 77.319H67.7568C67.9207 77.319 68.0518 77.3736 68.1501 77.472C68.2485 77.5703 68.3031 77.7014 68.3031 77.8653V79.9194C68.3031 80.0833 68.2485 80.2144 68.1501 80.3127C68.0518 80.411 67.9207 80.4657 67.7568 80.4657H60.7861V83.4156H67.2761C67.44 83.4156 67.5711 83.4703 67.6694 83.5795C67.7677 83.6888 67.8224 83.8199 67.8224 83.9838V85.8849C67.8224 86.0269 67.7677 86.158 67.6694 86.2673C67.5711 86.3765 67.44 86.4312 67.2761 86.4312H60.7861V89.4686H67.9316C68.0955 89.4686 68.2266 89.5232 68.325 89.6215C68.4233 89.7198 68.4779 89.851 68.4779 90.0148V92.0689C68.4779 92.2109 68.4233 92.342 68.325 92.4513C68.2266 92.5606 68.0955 92.6152 67.9316 92.6152H57.5521C57.3882 92.6152 57.2571 92.5606 57.1587 92.4513C57.0604 92.342 57.0058 92.2109 57.0058 92.0689V77.8653C57.0058 77.7014 57.0604 77.5703 57.1587 77.472ZM112.028 105.136C112.039 105.781 112.05 106.338 112.05 106.819C112.05 107.3 112.05 107.857 112.028 108.48C111.974 109.834 111.679 110.96 111.165 111.845C110.652 112.73 109.898 113.396 108.914 113.822C107.931 114.248 106.729 114.467 105.298 114.467H99.5073C99.3434 114.467 99.2123 114.412 99.114 114.303C99.0156 114.194 98.961 114.063 98.961 113.921V99.717C98.961 99.5531 99.0156 99.422 99.114 99.3237C99.2123 99.2253 99.3434 99.1707 99.5073 99.1707H105.189C106.62 99.1707 107.833 99.4001 108.838 99.859C109.843 100.318 110.619 100.984 111.154 101.869C111.69 102.754 111.985 103.836 112.028 105.136ZM93.1485 114.03C92.1542 114.467 90.9961 114.685 89.6522 114.685C88.3083 114.685 87.1502 114.467 86.1559 114.03C85.1617 113.593 84.3969 112.937 83.8396 112.052C83.2824 111.167 82.9765 110.064 82.9219 108.742C82.9109 108.119 82.9 107.485 82.9 106.852C82.9 106.218 82.9 105.584 82.9219 104.961C82.9765 103.65 83.2934 102.547 83.8506 101.651C84.4078 100.755 85.1945 100.078 86.1887 99.6296C87.183 99.1816 88.3411 98.9522 89.6522 98.9522C90.9633 98.9522 92.1324 99.1816 93.1266 99.6296C94.1209 100.078 94.8966 100.755 95.4647 101.651C96.0329 102.547 96.3388 103.65 96.3825 104.961C96.4153 105.584 96.4262 106.218 96.4262 106.852C96.4262 107.485 96.4153 108.119 96.3825 108.742C96.3388 110.064 96.0329 111.167 95.4757 112.052C94.9185 112.937 94.1427 113.593 93.1485 114.03ZM77.2186 102.601V113.921C77.2186 114.063 77.164 114.194 77.0656 114.303C76.9673 114.412 76.8362 114.467 76.6723 114.467H73.7879C73.624 114.467 73.4929 114.412 73.3945 114.303C73.2962 114.194 73.2416 114.063 73.2416 113.921V102.601H69.352C69.1881 102.601 69.057 102.547 68.9586 102.438C68.8603 102.328 68.8057 102.197 68.8057 102.055V99.717C68.8057 99.5531 68.8603 99.422 68.9586 99.3237C69.057 99.2253 69.1881 99.1707 69.352 99.1707H81.1082C81.2721 99.1707 81.4032 99.2253 81.5015 99.3237C81.5998 99.422 81.6545 99.5531 81.6545 99.717V102.055C81.6545 102.197 81.5998 102.328 81.5015 102.438C81.4032 102.547 81.2721 102.601 81.1082 102.601H77.2186ZM53.1599 114.008C53.1271 114.095 53.0615 114.194 52.9632 114.303C52.8649 114.412 52.6901 114.467 52.4388 114.467H49.751C49.6308 114.467 49.5325 114.423 49.4342 114.325C49.3358 114.227 49.2921 114.128 49.2921 114.008C49.2921 113.932 49.2921 113.866 49.314 113.811L54.4491 99.7825C54.4928 99.6187 54.5802 99.4766 54.7223 99.3564C54.8643 99.2363 55.05 99.1707 55.3013 99.1707H58.5354C58.7867 99.1707 58.9724 99.2363 59.1145 99.3564C59.2565 99.4766 59.3439 99.6187 59.3876 99.7825L64.5009 113.811C64.5337 113.866 64.5446 113.932 64.5446 114.008C64.5446 114.128 64.5009 114.227 64.4026 114.325C64.3042 114.423 64.195 114.467 64.0639 114.467H61.3761C61.1576 114.467 60.9937 114.412 60.8845 114.303C60.7752 114.194 60.7096 114.095 60.6769 114.008L59.8246 111.779H53.9902L53.1599 114.008ZM81.9167 78.6192C82.9984 79.4823 83.5337 80.7169 83.5337 82.3012C83.5337 83.3391 83.2824 84.2132 82.7908 84.9234C82.2991 85.6336 81.6435 86.1799 80.8241 86.5404L83.8178 91.9159C83.8615 92.0033 83.8833 92.0798 83.8833 92.1563C83.8833 92.2765 83.8397 92.3748 83.7413 92.4732C83.643 92.5715 83.5446 92.6152 83.4245 92.6152H80.5182C80.245 92.6152 80.0375 92.5496 79.9063 92.4076C79.7752 92.2656 79.6769 92.1454 79.6223 92.0252L77.1312 87.2178H74.9023V92.0689C74.9023 92.2109 74.8477 92.342 74.7384 92.4513C74.6292 92.5606 74.4981 92.6152 74.3342 92.6152H71.5153C71.3514 92.6152 71.2203 92.5606 71.122 92.4513C71.0236 92.342 70.969 92.2109 70.969 92.0689V77.8653C70.969 77.7014 71.0236 77.5703 71.122 77.472C71.2203 77.3736 71.3514 77.319 71.5153 77.319H77.459C79.3491 77.319 80.835 77.756 81.9167 78.6192ZM97.5188 90.6048C96.9507 91.315 96.1749 91.8722 95.1916 92.2546C94.2083 92.637 93.072 92.8337 91.7718 92.8337C90.3187 92.8337 89.1059 92.6261 88.1444 92.2109C87.183 91.7958 86.4509 91.2495 85.9593 90.583C85.4676 89.9165 85.2054 89.1954 85.1726 88.4415C85.1726 88.3213 85.2163 88.223 85.3146 88.1247C85.413 88.0263 85.5222 87.9826 85.6533 87.9826H88.4066C88.6142 87.9826 88.7672 88.0154 88.8765 88.0919C88.9857 88.1684 89.0841 88.2558 89.1715 88.376C89.2916 88.5945 89.4555 88.8021 89.6631 89.0097C89.8707 89.2173 90.1548 89.3811 90.5044 89.5013C90.854 89.6215 91.2802 89.6871 91.7718 89.6871C92.6131 89.6871 93.2577 89.556 93.6838 89.2937C94.1099 89.0315 94.3285 88.671 94.3285 88.223C94.3285 87.8843 94.2083 87.6221 93.9788 87.4145C93.7494 87.2069 93.367 87.0212 92.8535 86.8573C92.34 86.6934 91.6516 86.5186 90.7885 86.3438C89.685 86.1143 88.7344 85.8084 87.9587 85.4369C87.183 85.0654 86.582 84.5738 86.1778 83.9729C85.7735 83.3719 85.5659 82.618 85.5659 81.7112C85.5659 80.8044 85.8172 80.0286 86.3198 79.3294C86.8224 78.6301 87.5217 78.0838 88.4285 77.6905C89.3354 77.2972 90.4061 77.1005 91.6407 77.1005C92.6459 77.1005 93.5309 77.2316 94.2957 77.4938C95.0605 77.756 95.7051 78.1057 96.2296 78.5427C96.754 78.9797 97.1473 79.4386 97.4205 79.9303C97.6936 80.4219 97.8357 80.8918 97.8466 81.3616C97.8466 81.4818 97.8029 81.5801 97.7264 81.6784C97.6499 81.7767 97.5297 81.8205 97.3877 81.8205H94.5033C94.3394 81.8205 94.2083 81.7877 94.0881 81.733C93.9679 81.6784 93.8696 81.5801 93.7822 81.449C93.6948 81.1321 93.4653 80.8481 93.0938 80.6077C92.7224 80.3673 92.2416 80.2471 91.6407 80.2471C90.9961 80.2471 90.5044 80.3564 90.1439 80.5858C89.7833 80.8153 89.6085 81.154 89.6085 81.6238C89.6085 81.9188 89.7068 82.1701 89.9035 82.3886C90.1002 82.6071 90.4279 82.7929 90.8868 82.9567C91.3457 83.1206 91.9794 83.2845 92.777 83.4593C94.099 83.7106 95.1697 84.0166 95.9892 84.388C96.8086 84.7595 97.4095 85.2402 97.792 85.8302C98.1744 86.4202 98.371 87.1632 98.371 88.0482C98.371 89.0424 98.087 89.8947 97.5188 90.6048ZM110.258 74.38C110.171 74.6968 110.029 75.0027 109.843 75.2977C109.657 75.5927 109.395 75.844 109.078 76.0407C108.761 76.2374 108.368 76.3357 107.92 76.3357C107.527 76.3357 107.199 76.2701 106.937 76.139C106.675 76.0079 106.434 75.8768 106.227 75.7566C106.019 75.6364 105.779 75.5709 105.517 75.5709C105.331 75.5709 105.189 75.6255 105.09 75.7238C104.992 75.8222 104.916 75.9314 104.839 76.0516C104.763 76.1718 104.653 76.2264 104.489 76.2264H103.178C103.08 76.2264 102.993 76.1827 102.916 76.1062C102.84 76.0298 102.807 75.9424 102.807 75.8549C102.807 75.6255 102.851 75.3414 102.927 75.0246C103.004 74.7077 103.146 74.3909 103.342 74.0959C103.539 73.8009 103.79 73.5496 104.107 73.3529C104.424 73.1563 104.806 73.0579 105.254 73.0579C105.659 73.0579 105.997 73.1235 106.259 73.2546C106.522 73.3857 106.762 73.5168 106.981 73.6479C107.199 73.779 107.429 73.8446 107.68 73.8446C107.887 73.8446 108.029 73.79 108.106 73.6698C108.182 73.5496 108.259 73.4403 108.335 73.3311C108.412 73.2218 108.521 73.1672 108.685 73.1672H109.996C110.127 73.1672 110.226 73.2109 110.291 73.2874C110.357 73.3638 110.389 73.4622 110.389 73.5605C110.389 73.79 110.346 74.0631 110.258 74.38ZM105.637 71.8561C105.735 71.7578 105.844 71.6594 105.954 71.572C106.096 71.6594 106.227 71.7578 106.358 71.8561H105.637ZM97.8357 73.0907C97.7701 73.0579 97.6936 73.0251 97.6281 72.9814C97.7155 72.9705 97.8029 72.9596 97.8903 72.9487C97.8684 72.9924 97.8575 73.047 97.8466 73.0907H97.8357ZM23.7038 99.7825C23.7475 99.6187 23.8349 99.4766 23.9769 99.3564C24.119 99.2363 24.3047 99.1707 24.556 99.1707H27.7901C28.0414 99.1707 28.2271 99.2363 28.3691 99.3564C28.5112 99.4766 28.5986 99.6187 28.6423 99.7825L33.7556 113.811C33.7884 113.866 33.7993 113.932 33.7993 114.008C33.7993 114.128 33.7556 114.227 33.6572 114.325C33.5589 114.423 33.4497 114.467 33.3185 114.467H30.6308C30.4123 114.467 30.2484 114.412 30.1391 114.303C30.0299 114.194 29.9643 114.095 29.9315 114.008L29.0793 111.779H23.2449L22.4146 114.008C22.3818 114.095 22.3162 114.194 22.2179 114.303C22.1196 114.412 21.9447 114.467 21.6934 114.467H19.0057C18.8855 114.467 18.7872 114.423 18.6888 114.325C18.5905 114.227 18.5468 114.128 18.5468 114.008C18.5468 113.932 18.5468 113.866 18.5687 113.811L23.7038 99.7825ZM118.42 77.7779C119.414 77.3299 120.572 77.1005 121.883 77.1005C123.195 77.1005 124.364 77.3299 125.358 77.7779C126.352 78.2259 127.128 78.9033 127.696 79.7992C128.264 80.6951 128.57 81.7986 128.614 83.1097C128.647 83.7325 128.657 84.3662 128.657 84.9999C128.657 85.6336 128.647 86.2673 128.614 86.8901C128.57 88.2121 128.264 89.3156 127.707 90.2006C127.15 91.0856 126.374 91.7411 125.38 92.1782C124.385 92.6152 123.227 92.8337 121.883 92.8337C120.54 92.8337 119.381 92.6152 118.387 92.1782C117.393 91.7411 116.628 91.0856 116.071 90.2006C115.514 89.3156 115.208 88.2121 115.153 86.8901C115.142 86.2673 115.131 85.6336 115.131 84.9999C115.131 84.3662 115.131 83.7325 115.153 83.1097C115.208 81.7986 115.525 80.6951 116.082 79.7992C116.639 78.9033 117.426 78.2259 118.42 77.7779ZM90.0564 22.7226L94.536 20.4063L94.1755 15.435C94.1536 15.0526 94.3503 14.6921 94.6781 14.5063C94.831 14.4189 94.9949 14.3861 95.1588 14.3861C95.3664 14.3861 95.5631 14.4517 95.7379 14.5719L99.846 17.5437L104.391 15.3039C104.73 15.1291 105.145 15.1837 105.44 15.4241C105.735 15.6645 105.866 16.0578 105.779 16.4293L104.544 21.3678L108.335 24.722C108.619 24.9733 108.74 25.3666 108.63 25.7381C108.521 26.0986 108.204 26.3718 107.833 26.4264L102.862 27.1585L101.55 31.9986C101.441 32.3919 101.113 32.676 100.709 32.7197C100.622 32.7197 100.534 32.7197 100.447 32.7197C100.141 32.676 99.8679 32.4793 99.7258 32.2062L96.7103 26.4483L96.6557 26.339L90.2422 24.5581C89.8489 24.4488 89.5648 24.1211 89.532 23.7168C89.4883 23.3126 89.6959 22.9301 90.0564 22.7444V22.7226ZM99.5292 39.1332C99.2779 40.7174 97.8029 41.7991 96.2077 41.5587C95.4429 41.4385 94.7655 41.0343 94.3066 40.4006C93.8477 39.7669 93.662 39.0021 93.7822 38.2373C93.9023 37.4724 94.3066 36.795 94.9403 36.3362C95.4429 35.9647 96.0329 35.7789 96.6447 35.7789C96.7977 35.7789 96.9397 35.7899 97.0927 35.8117C98.6769 36.063 99.7586 37.5489 99.5182 39.1332H99.5292ZM80.5728 19.86C80.693 19.0952 81.0973 18.4178 81.731 17.9589C82.2335 17.5874 82.8235 17.4017 83.4354 17.4017C83.5884 17.4017 83.7304 17.4126 83.8833 17.4345C85.4676 17.6857 86.5493 19.1717 86.3089 20.7559C86.1887 21.5207 85.7735 22.1981 85.1507 22.657C84.528 23.1159 83.7632 23.3016 82.9874 23.1814C82.2226 23.0613 81.5452 22.657 81.0863 22.0233C80.6274 21.4005 80.4417 20.6248 80.5619 19.86H80.5728ZM52.1219 60.7008L69.636 32.8836C69.9966 32.2717 70.4555 31.7255 70.9909 31.2666C72.0944 30.316 73.4601 29.7807 74.9351 29.7151C75.0443 29.7151 75.1645 29.7151 75.2738 29.7151C75.4049 29.7151 75.5469 29.7151 75.689 29.7151H75.984V29.431C75.984 29.1797 75.9621 28.9284 75.9293 28.6662C75.8201 27.6392 75.4268 26.5575 74.8368 25.6288L74.651 25.3448L74.4106 25.5851C73.9518 26.0549 73.4164 26.492 72.8155 26.8635C71.6355 27.6064 70.5648 27.9233 69.5596 27.8359C69.2209 27.8031 68.8822 27.7266 68.5653 27.5846C67.3744 27.082 66.6314 25.902 66.7079 24.6674C66.7735 23.6076 67.4181 22.6024 68.4124 21.9796C70.4118 20.745 72.7171 21.3787 74.0938 22.2964L74.3669 22.4822L74.4981 22.1653C74.7603 21.5098 74.9569 20.7668 75.088 19.9583C75.2956 18.5926 75.3066 17.0411 75.1099 15.2274C75.0116 14.3097 74.8586 13.3263 74.651 12.2337C74.6073 11.9934 74.651 11.7639 74.793 11.5563C74.9242 11.3597 75.1317 11.2286 75.3612 11.1849C75.6016 11.1412 75.8419 11.1849 76.0386 11.3269C76.2353 11.458 76.3664 11.6656 76.421 11.906C76.6395 13.0532 76.7925 14.0802 76.9017 15.0526C77.1093 17.0193 77.1093 18.7237 76.869 20.2533C76.6723 21.5207 76.3227 22.6679 75.8092 23.6513L75.7327 23.8042L75.8419 23.9463C76.8799 25.2574 77.5464 26.8635 77.7212 28.4805C77.7649 28.9175 77.7867 29.3764 77.7867 29.8462V30.0538L77.9834 30.1084C79.0104 30.4144 80.0593 30.8951 81.1191 31.5288L81.3158 31.649L81.4687 31.4742C82.7471 29.9664 84.6809 29.2344 86.6367 29.5403C88.1226 29.7697 89.4228 30.5673 90.3077 31.7801C91.1927 32.9929 91.5533 34.4788 91.3238 35.9647C91.0944 37.4069 90.3405 38.6852 89.1715 39.5702L88.9748 39.7122L89.095 39.9198C89.7068 40.9578 90.4061 42.2143 90.9633 43.5691C91.5096 44.8802 91.9357 46.1694 92.2525 47.4259L92.3181 47.6772L92.5803 47.6226C95.0168 47.109 97.202 47.3931 99.0812 48.4857L99.3106 48.6277L99.4527 48.3983C99.5182 48.289 99.5838 48.1907 99.6493 48.0814C100.578 46.5955 101.627 45.3391 102.796 44.3776L102.927 44.2683L102.883 44.1044C102.588 42.9463 102.435 41.7554 102.425 40.5426V40.2585C102.468 38.1499 103.375 36.2597 104.118 34.741C104.216 34.5225 104.402 34.3586 104.632 34.2821C104.861 34.2056 105.101 34.2165 105.32 34.3258C105.768 34.5443 105.954 35.0797 105.735 35.5276C105.047 36.9589 104.26 38.5978 104.227 40.3022V40.5426C104.227 41.3074 104.304 42.0722 104.446 42.8261L104.511 43.1867L104.839 43.0119C105.473 42.6732 106.15 42.4109 106.839 42.2033C108.106 41.8319 109.351 41.7117 110.521 41.8537C112.487 42.0941 113.776 43.4926 113.886 45.492C114.017 47.699 112.629 50.4414 110.182 51.0314C109.712 51.1407 109.231 51.1625 108.751 51.0861C107.254 50.8566 105.68 49.6657 104.544 47.9066C104.249 47.4477 103.976 46.9561 103.725 46.4316L103.561 46.082L103.288 46.3552C102.403 47.2183 101.583 48.3 100.862 49.5564L100.753 49.7422L100.906 49.8951C102.61 51.5668 103.801 53.8721 104.249 56.3851C104.642 58.5593 103.987 59.7284 103.375 60.3184C102.796 60.8865 101.955 61.2143 100.928 61.2799C100.458 61.3126 99.988 61.2799 99.5401 61.2143C99.2342 61.1706 98.9282 61.0941 98.6223 60.9958C97.5407 60.6571 96.7758 60.0562 96.4044 59.2586C96.011 58.4064 96.1312 57.4995 96.3279 56.6473C96.8414 54.3857 97.5297 52.2879 98.382 50.4414L98.4803 50.2229L98.2727 50.0918C96.7431 49.174 94.9949 48.9337 92.919 49.3816L92.6677 49.4362L92.7005 49.6875C92.7661 50.1792 92.7988 50.6381 92.8207 51.0751C92.9518 54.342 91.8811 56.8986 89.7178 58.4719C89.0404 58.9636 88.2755 59.3023 87.4124 59.4771L87.3468 59.499C87.2813 59.5317 87.2048 59.5645 87.1283 59.5754L57.1915 67.6169C56.5797 67.7807 55.9569 67.8135 55.3232 67.7152C54.1214 67.5294 53.0615 66.8739 52.3186 65.8687C51.1823 64.3172 51.0949 62.285 52.1219 60.6789V60.7008ZM19.1368 77.8653C19.1368 77.7014 19.1914 77.5703 19.2898 77.472C19.3881 77.3736 19.5192 77.319 19.6831 77.319H25.3645C26.7958 77.319 28.0086 77.5485 29.0138 78.0073C30.0189 78.4662 30.7947 79.1327 31.33 80.0177C31.8654 80.9027 32.1604 81.9843 32.2041 83.2845C32.215 83.9291 32.226 84.4864 32.226 84.9671C32.226 85.4478 32.226 86.0051 32.2041 86.6278C32.1495 87.9826 31.8545 89.108 31.341 89.993C30.8275 90.878 30.0736 91.5445 29.0902 91.9706C28.1069 92.3967 26.9051 92.6152 25.4738 92.6152H19.6831C19.5192 92.6152 19.3881 92.5606 19.2898 92.4513C19.1914 92.342 19.1368 92.2109 19.1368 92.0689V77.8653ZM10.2213 109.135V113.921C10.2213 114.063 10.1667 114.194 10.0574 114.303C9.94816 114.412 9.81705 114.467 9.65316 114.467H6.70319C6.5393 114.467 6.40819 114.412 6.30985 114.303C6.21152 114.194 6.15689 114.063 6.15689 113.921V99.717C6.15689 99.5531 6.21152 99.422 6.30985 99.3237C6.40819 99.2253 6.5393 99.1707 6.70319 99.1707H12.8217C14.0344 99.1707 15.0833 99.3564 15.9792 99.7279C16.8751 100.099 17.5744 100.657 18.077 101.4C18.5796 102.143 18.8309 103.082 18.8309 104.218C18.8309 105.355 18.5796 106.262 18.077 106.994C17.5744 107.726 16.8751 108.261 15.9792 108.611C15.0833 108.96 14.0344 109.135 12.8217 109.135H10.2213ZM20.1857 133.631L19.3553 135.86C19.3225 135.947 19.257 136.045 19.1586 136.155C19.0603 136.264 18.8855 136.319 18.6342 136.319H15.9465C15.8263 136.319 15.7279 136.275 15.6296 136.177C15.5313 136.078 15.4876 135.98 15.4876 135.86C15.4876 135.783 15.4876 135.718 15.5094 135.663L20.6446 121.634C20.6883 121.47 20.7757 121.328 20.9177 121.208C21.0597 121.088 21.2455 121.022 21.4968 121.022H24.7308C24.9821 121.022 25.1679 121.088 25.3099 121.208C25.4519 121.328 25.5393 121.47 25.583 121.634L30.6963 135.663C30.7291 135.718 30.74 135.783 30.74 135.86C30.74 135.98 30.6963 136.078 30.598 136.177C30.4997 136.275 30.3904 136.319 30.2593 136.319H27.5716C27.353 136.319 27.1891 136.264 27.0799 136.155C26.9706 136.045 26.9051 135.947 26.8723 135.86L26.0201 133.631H20.1857ZM43.6762 134.308C43.1081 135.018 42.3324 135.576 41.349 135.958C40.3657 136.34 39.2294 136.537 37.9293 136.537C36.4761 136.537 35.2633 136.329 34.3019 135.914C33.3404 135.499 32.6084 134.953 32.1167 134.286C31.625 133.62 31.3628 132.899 31.33 132.145C31.33 132.025 31.3737 131.926 31.4721 131.828C31.5704 131.73 31.6797 131.686 31.8108 131.686H34.5641C34.7717 131.686 34.9246 131.719 35.0339 131.795C35.1432 131.872 35.2415 131.959 35.3289 132.079C35.4491 132.298 35.613 132.505 35.8206 132.713C36.0282 132.921 36.3122 133.085 36.6618 133.205C37.0115 133.325 37.4376 133.39 37.9293 133.39C38.7705 133.39 39.4152 133.259 39.8413 132.997C40.2674 132.735 40.4859 132.374 40.4859 131.926C40.4859 131.588 40.3657 131.325 40.1363 131.118C39.9068 130.91 39.5244 130.725 39.0109 130.561C38.4974 130.397 37.8091 130.222 36.9459 130.047C35.8424 129.818 34.8919 129.512 34.1161 129.14C33.3404 128.769 32.7395 128.277 32.3352 127.676C31.931 127.075 31.7234 126.321 31.7234 125.415C31.7234 124.508 31.9747 123.732 32.4773 123.033C32.9798 122.333 33.6791 121.787 34.5859 121.394C35.4928 121.001 36.5635 120.804 37.7981 120.804C38.8033 120.804 39.6883 120.935 40.4531 121.197C41.2179 121.459 41.8626 121.809 42.387 122.246C42.9114 122.683 43.3048 123.142 43.5779 123.634C43.8511 124.125 43.9931 124.595 44.004 125.065C44.004 125.185 43.9603 125.283 43.8838 125.382C43.8074 125.48 43.6872 125.524 43.5451 125.524H40.6607C40.4968 125.524 40.3657 125.491 40.2455 125.436C40.1253 125.382 40.027 125.283 39.9396 125.152C39.8522 124.836 39.6228 124.551 39.2513 124.311C38.8798 124.071 38.3991 123.951 37.7981 123.951C37.1535 123.951 36.6619 124.06 36.3013 124.289C35.9407 124.519 35.7659 124.857 35.7659 125.327C35.7659 125.622 35.8643 125.873 36.0609 126.092C36.2576 126.31 36.5854 126.496 37.0443 126.66C37.5031 126.824 38.1368 126.988 38.9344 127.163C40.2565 127.414 41.3272 127.72 42.1466 128.091C42.9661 128.463 43.567 128.944 43.9494 129.534C44.3318 130.124 44.5285 130.867 44.5285 131.752C44.5285 132.746 44.2444 133.598 43.6762 134.308ZM51.521 136.155C51.4227 136.045 51.368 135.914 51.368 135.772V121.569C51.368 121.405 51.4227 121.274 51.521 121.175C51.6193 121.077 51.7504 121.022 51.9143 121.022H54.8425C55.0063 121.022 55.1375 121.077 55.2467 121.175C55.356 121.274 55.4106 121.405 55.4106 121.569V135.772C55.4106 135.914 55.356 136.045 55.2467 136.155C55.1375 136.264 55.0063 136.319 54.8425 136.319H51.9143C51.7504 136.319 51.6193 136.264 51.521 136.155ZM58.9943 136.319C58.8304 136.319 58.6993 136.264 58.6009 136.155C58.5026 136.045 58.448 135.914 58.448 135.772V121.569C58.448 121.405 58.5026 121.274 58.6009 121.175C58.6993 121.077 58.8304 121.022 58.9943 121.022H64.6757C66.107 121.022 67.3198 121.252 68.325 121.711C69.3301 122.17 70.1059 122.836 70.6412 123.721C71.1766 124.606 71.4716 125.688 71.5153 126.988C71.5262 127.633 71.5371 128.19 71.5371 128.67C71.5371 129.151 71.5371 129.708 71.5153 130.331C71.4607 131.686 71.1657 132.811 70.6522 133.696C70.1386 134.581 69.3848 135.248 68.4014 135.674C67.4181 136.1 66.2163 136.319 64.785 136.319H58.9943ZM82.9656 133.631H77.1312L76.3008 135.86C76.268 135.947 76.2025 136.045 76.1041 136.155C76.0058 136.264 75.831 136.319 75.5797 136.319H72.892C72.7718 136.319 72.6734 136.275 72.5751 136.177C72.4768 136.078 72.4331 135.98 72.4331 135.86C72.4331 135.783 72.4331 135.718 72.4549 135.663L77.5901 121.634C77.6338 121.47 77.7212 121.328 77.8632 121.208C78.0052 121.088 78.191 121.022 78.4423 121.022H81.6763C81.9276 121.022 82.1134 121.088 82.2554 121.208C82.3974 121.328 82.4848 121.47 82.5285 121.634L87.6418 135.663C87.6746 135.718 87.6855 135.783 87.6855 135.86C87.6855 135.98 87.6418 136.078 87.5435 136.177C87.4452 136.275 87.3359 136.319 87.2048 136.319H84.5171C84.2985 136.319 84.1346 136.264 84.0254 136.155C83.9161 136.045 83.8506 135.947 83.8178 135.86L82.9656 133.631ZM95.7488 136.319H89.9581C89.7942 136.319 89.6631 136.264 89.5648 136.155C89.4665 136.045 89.4118 135.914 89.4118 135.772V121.569C89.4118 121.405 89.4665 121.274 89.5648 121.175C89.6631 121.077 89.7942 121.022 89.9581 121.022H95.6396C97.0708 121.022 98.2836 121.252 99.2888 121.711C100.294 122.17 101.07 122.836 101.605 123.721C102.14 124.606 102.435 125.688 102.479 126.988C102.49 127.633 102.501 128.19 102.501 128.67C102.501 129.151 102.501 129.708 102.479 130.331C102.425 131.686 102.13 132.811 101.616 133.696C101.102 134.581 100.349 135.248 99.3653 135.674C98.3819 136.1 97.1801 136.319 95.7488 136.319ZM130.471 134.308C129.903 135.018 129.127 135.576 128.144 135.958C127.161 136.34 126.024 136.537 124.724 136.537C123.271 136.537 122.058 136.329 121.097 135.914C120.135 135.499 119.403 134.953 118.912 134.286C118.42 133.62 118.158 132.899 118.125 132.145C118.125 132.025 118.169 131.926 118.267 131.828C118.365 131.73 118.475 131.686 118.606 131.686H121.359C121.567 131.686 121.72 131.719 121.829 131.795C121.938 131.872 122.036 131.959 122.124 132.079C122.244 132.298 122.408 132.505 122.615 132.713C122.823 132.921 123.107 133.085 123.457 133.205C123.806 133.325 124.232 133.39 124.724 133.39C125.565 133.39 126.21 133.259 126.636 132.997C127.062 132.735 127.281 132.374 127.281 131.926C127.281 131.588 127.161 131.325 126.931 131.118C126.702 130.91 126.319 130.725 125.806 130.561C125.292 130.397 124.604 130.222 123.741 130.047C122.637 129.818 121.687 129.512 120.911 129.14C120.135 128.769 119.534 128.277 119.13 127.676C118.726 127.075 118.518 126.321 118.518 125.415C118.518 124.508 118.77 123.732 119.272 123.033C119.775 122.333 120.474 121.787 121.381 121.394C122.288 121.001 123.358 120.804 124.593 120.804C125.598 120.804 126.483 120.935 127.248 121.197C128.013 121.459 128.657 121.809 129.182 122.246C129.706 122.683 130.1 123.142 130.373 123.634C130.646 124.125 130.788 124.595 130.799 125.065C130.799 125.185 130.755 125.283 130.679 125.382C130.602 125.48 130.482 125.524 130.34 125.524H127.456C127.292 125.524 127.161 125.491 127.04 125.436C126.92 125.382 126.822 125.283 126.735 125.152C126.647 124.836 126.418 124.551 126.046 124.311C125.675 124.071 125.194 123.951 124.593 123.951C123.948 123.951 123.457 124.06 123.096 124.289C122.736 124.519 122.561 124.857 122.561 125.327C122.561 125.622 122.659 125.873 122.856 126.092C123.052 126.31 123.38 126.496 123.839 126.66C124.298 126.824 124.932 126.988 125.729 127.163C127.051 127.414 128.122 127.72 128.942 128.091C129.761 128.463 130.362 128.944 130.744 129.534C131.127 130.124 131.323 130.867 131.323 131.752C131.323 132.746 131.039 133.598 130.471 134.308ZM141.135 112.457C140.567 113.167 139.791 113.724 138.808 114.106C137.824 114.489 136.688 114.685 135.388 114.685C133.935 114.685 132.722 114.478 131.76 114.063C130.799 113.647 130.067 113.101 129.575 112.435C129.084 111.768 128.821 111.047 128.789 110.293C128.789 110.173 128.832 110.075 128.931 109.976C129.029 109.878 129.138 109.834 129.269 109.834H132.023C132.23 109.834 132.383 109.867 132.492 109.944C132.602 110.02 132.7 110.107 132.787 110.228C132.908 110.446 133.072 110.654 133.279 110.861C133.487 111.069 133.771 111.233 134.12 111.353C134.47 111.473 134.896 111.539 135.388 111.539C136.229 111.539 136.874 111.408 137.3 111.145C137.726 110.883 137.944 110.523 137.944 110.075C137.944 109.736 137.824 109.474 137.595 109.266C137.365 109.059 136.983 108.873 136.469 108.709C135.956 108.545 135.268 108.37 134.404 108.195C133.301 107.966 132.35 107.66 131.575 107.289C130.799 106.917 130.198 106.425 129.794 105.825C129.389 105.224 129.182 104.47 129.182 103.563C129.182 102.656 129.433 101.88 129.936 101.181C130.438 100.482 131.138 99.9355 132.044 99.5422C132.951 99.1488 134.022 98.9522 135.257 98.9522C136.262 98.9522 137.147 99.0833 137.912 99.3455C138.676 99.6077 139.321 99.9574 139.846 100.394C140.37 100.831 140.763 101.29 141.036 101.782C141.31 102.274 141.452 102.743 141.463 103.213C141.463 103.333 141.419 103.432 141.342 103.53C141.266 103.628 141.146 103.672 141.004 103.672H138.119C137.955 103.672 137.824 103.639 137.704 103.585C137.584 103.53 137.486 103.432 137.398 103.301C137.311 102.984 137.081 102.7 136.71 102.459C136.338 102.219 135.858 102.099 135.257 102.099C134.612 102.099 134.12 102.208 133.76 102.438C133.399 102.667 133.224 103.006 133.224 103.475C133.224 103.77 133.323 104.022 133.519 104.24C133.716 104.459 134.044 104.645 134.503 104.808C134.962 104.972 135.595 105.136 136.393 105.311C137.715 105.562 138.786 105.868 139.605 106.24C140.425 106.611 141.026 107.092 141.408 107.682C141.79 108.272 141.987 109.015 141.987 109.9C141.987 110.894 141.703 111.746 141.135 112.457Z" fill="white"/>
<path d="M21.0816 130.484H25.146L23.1138 124.715L21.0816 130.484Z" fill="white"/>
<path d="M67.5164 130.288C67.5492 129.861 67.5601 129.49 67.5711 129.151C67.5711 128.813 67.5711 128.485 67.5711 128.146C67.5711 127.807 67.5492 127.436 67.5164 127.032C67.4837 126.037 67.2324 125.316 66.7407 124.857C66.249 124.398 65.5279 124.169 64.5665 124.169H62.3813V133.172H64.6757C65.2985 133.172 65.8229 133.074 66.2381 132.877C66.6533 132.68 66.9701 132.374 67.1777 131.948C67.3853 131.522 67.5055 130.976 67.5164 130.288Z" fill="white"/>
<path d="M78.0271 130.484H82.0915L80.0593 124.715L78.0271 130.484Z" fill="white"/>
<path d="M97.7045 124.857C97.2129 124.398 96.4918 124.169 95.5303 124.169H93.3451V133.172H95.6396C96.2623 133.172 96.7868 133.074 97.202 132.877C97.6171 132.68 97.934 132.374 98.1416 131.948C98.3492 131.522 98.4694 130.976 98.4803 130.288C98.5131 129.861 98.524 129.49 98.5349 129.151C98.5458 128.813 98.5349 128.485 98.5349 128.146C98.5349 127.807 98.5131 127.436 98.4803 127.032C98.4475 126.037 98.1962 125.316 97.7045 124.857Z" fill="white"/>
<path d="M19.6831 92.6152H25.4738C26.9051 92.6152 28.1069 92.3967 29.0902 91.9706C30.0736 91.5445 30.8275 90.878 31.341 89.993C31.8545 89.108 32.1495 87.9826 32.2041 86.6278C32.215 86.0051 32.226 85.4478 32.226 84.9671C32.226 84.4864 32.226 83.9291 32.2041 83.2845C32.1604 81.9843 31.8654 80.9027 31.33 80.0177C30.7947 79.1327 30.0189 78.4662 29.0138 78.0073C28.0086 77.5485 26.7958 77.319 25.3645 77.319H19.6831C19.5192 77.319 19.3881 77.3736 19.2898 77.472C19.1914 77.5703 19.1368 77.7014 19.1368 77.8653V92.0689C19.1368 92.2109 19.1914 92.342 19.2898 92.4513C19.3881 92.5606 19.5192 92.6152 19.6831 92.6152ZM23.0701 80.4657H25.2553C26.2167 80.4657 26.9379 80.6951 27.4295 81.154C27.9212 81.6129 28.1725 82.334 28.2052 83.3282C28.238 83.7325 28.249 84.104 28.2599 84.4427C28.2599 84.7814 28.2599 85.1091 28.2599 85.4478C28.2599 85.7865 28.238 86.158 28.2052 86.5841C28.1943 87.2725 28.0741 87.8187 27.8665 88.2449C27.659 88.671 27.3421 88.9769 26.9269 89.1735C26.5117 89.3702 25.9873 89.4686 25.3645 89.4686H23.0701V80.4657Z" fill="#F85600"/>
<path d="M35.3289 92.6152H38.257C38.4209 92.6152 38.552 92.5606 38.6613 92.4513C38.7705 92.342 38.8252 92.2109 38.8252 92.0689V77.8653C38.8252 77.7014 38.7705 77.5703 38.6613 77.472C38.552 77.3736 38.4209 77.319 38.257 77.319H35.3289C35.165 77.319 35.0339 77.3736 34.9356 77.472C34.8372 77.5703 34.7826 77.7014 34.7826 77.8653V92.0689C34.7826 92.2109 34.8372 92.342 34.9356 92.4513C35.0339 92.5606 35.165 92.6152 35.3289 92.6152Z" fill="#F85600"/>
<path d="M40.9776 77.4611C40.8792 77.5594 40.8355 77.6577 40.8355 77.7779C40.8355 77.8325 40.8465 77.8981 40.8792 77.9746L45.337 91.9596C45.3916 92.1345 45.5009 92.2874 45.6429 92.4185C45.7849 92.5496 45.9816 92.6152 46.2329 92.6152H49.5762C49.8384 92.6152 50.046 92.5496 50.188 92.4185C50.3301 92.2874 50.4284 92.1345 50.4721 91.9596L54.9299 77.9746C54.9626 77.8981 54.9736 77.8325 54.9736 77.7779C54.9736 77.6577 54.9299 77.5594 54.8315 77.4611C54.7332 77.3627 54.6349 77.319 54.5147 77.319H51.7832C51.5538 77.319 51.368 77.3846 51.2479 77.5157C51.1277 77.6468 51.0403 77.767 50.9966 77.8872L47.9155 87.9826L44.8125 77.8872C44.7798 77.767 44.7033 77.6468 44.5722 77.5157C44.4411 77.3846 44.2553 77.319 44.0259 77.319H41.3163C41.1852 77.319 41.0759 77.3627 40.9776 77.4611Z" fill="#F85600"/>
<path d="M57.0058 92.0689C57.0058 92.2109 57.0604 92.342 57.1587 92.4513C57.2571 92.5606 57.3882 92.6152 57.5521 92.6152H67.9316C68.0955 92.6152 68.2266 92.5606 68.325 92.4513C68.4233 92.342 68.4779 92.2109 68.4779 92.0689V90.0148C68.4779 89.851 68.4233 89.7198 68.325 89.6215C68.2266 89.5232 68.0955 89.4686 67.9316 89.4686H60.7861V86.4312H67.2761C67.44 86.4312 67.5711 86.3765 67.6694 86.2673C67.7677 86.158 67.8224 86.0269 67.8224 85.8849V83.9838C67.8224 83.8199 67.7677 83.6888 67.6694 83.5795C67.5711 83.4703 67.44 83.4156 67.2761 83.4156H60.7861V80.4657H67.7568C67.9207 80.4657 68.0518 80.411 68.1501 80.3127C68.2485 80.2144 68.3031 80.0833 68.3031 79.9194V77.8653C68.3031 77.7014 68.2485 77.5703 68.1501 77.472C68.0518 77.3736 67.9207 77.319 67.7568 77.319H57.5521C57.3882 77.319 57.2571 77.3736 57.1587 77.472C57.0604 77.5703 57.0058 77.7014 57.0058 77.8653V92.0689Z" fill="#F85600"/>
<path d="M71.5153 77.319C71.3514 77.319 71.2203 77.3736 71.122 77.472C71.0236 77.5703 70.969 77.7014 70.969 77.8653V92.0689C70.969 92.2109 71.0236 92.342 71.122 92.4513C71.2203 92.5606 71.3514 92.6152 71.5153 92.6152H74.3342C74.4981 92.6152 74.6292 92.5606 74.7384 92.4513C74.8477 92.342 74.9023 92.2109 74.9023 92.0689V87.2178H77.1312L79.6223 92.0252C79.6769 92.1454 79.7752 92.2656 79.9063 92.4076C80.0375 92.5496 80.245 92.6152 80.5182 92.6152H83.4245C83.5446 92.6152 83.643 92.5715 83.7413 92.4732C83.8397 92.3748 83.8833 92.2765 83.8833 92.1563C83.8833 92.0798 83.8615 92.0033 83.8178 91.9159L80.8241 86.5404C81.6435 86.1799 82.2991 85.6336 82.7908 84.9234C83.2824 84.2132 83.5337 83.3391 83.5337 82.3012C83.5337 80.7169 82.9984 79.4823 81.9167 78.6192C80.835 77.756 79.3491 77.319 77.459 77.319H71.5153ZM79.4693 82.2575C79.4693 82.8256 79.2945 83.2736 78.9558 83.6123C78.6171 83.951 78.1036 84.1149 77.4153 84.1149H74.9023V80.3564H77.4153C78.1254 80.3564 78.6499 80.5312 78.9776 80.8808C79.3054 81.2305 79.4693 81.6894 79.4693 82.2575Z" fill="#F85600"/>
<path d="M95.9892 84.388C95.1697 84.0166 94.099 83.7106 92.777 83.4593C91.9794 83.2845 91.3457 83.1206 90.8868 82.9567C90.4279 82.7929 90.1002 82.6071 89.9035 82.3886C89.7068 82.1701 89.6085 81.9188 89.6085 81.6238C89.6085 81.154 89.7833 80.8153 90.1439 80.5858C90.5044 80.3564 90.9961 80.2471 91.6407 80.2471C92.2416 80.2471 92.7224 80.3673 93.0938 80.6077C93.4653 80.8481 93.6948 81.1321 93.7822 81.449C93.8696 81.5801 93.9679 81.6784 94.0881 81.733C94.2083 81.7877 94.3394 81.8205 94.5033 81.8205H97.3877C97.5297 81.8205 97.6499 81.7767 97.7264 81.6784C97.8029 81.5801 97.8466 81.4818 97.8466 81.3616C97.8357 80.8918 97.6936 80.4219 97.4205 79.9303C97.1473 79.4386 96.754 78.9797 96.2296 78.5427C95.7051 78.1057 95.0605 77.756 94.2957 77.4938C93.5309 77.2316 92.6459 77.1005 91.6407 77.1005C90.4061 77.1005 89.3354 77.2972 88.4285 77.6905C87.5217 78.0838 86.8224 78.6301 86.3198 79.3294C85.8172 80.0286 85.5659 80.8262 85.5659 81.7112C85.5659 82.5962 85.7735 83.3719 86.1778 83.9729C86.582 84.5738 87.183 85.0654 87.9587 85.4369C88.7344 85.8084 89.685 86.1143 90.7885 86.3438C91.6516 86.5186 92.34 86.6934 92.8535 86.8573C93.367 87.0212 93.7494 87.2069 93.9788 87.4145C94.2083 87.6221 94.3285 87.8843 94.3285 88.223C94.3285 88.671 94.1099 89.0315 93.6838 89.2937C93.2577 89.556 92.6131 89.6871 91.7718 89.6871C91.2802 89.6871 90.854 89.6215 90.5044 89.5013C90.1548 89.3811 89.8707 89.2173 89.6631 89.0097C89.4555 88.8021 89.2916 88.5945 89.1715 88.376C89.0841 88.2558 88.9857 88.1684 88.8765 88.0919C88.7672 88.0154 88.6142 87.9826 88.4066 87.9826H85.6533C85.5222 87.9826 85.413 88.0263 85.3146 88.1247C85.2163 88.223 85.1726 88.3213 85.1726 88.4415C85.2054 89.1954 85.4676 89.9165 85.9593 90.583C86.4509 91.2495 87.183 91.7958 88.1444 92.2109C89.1059 92.6261 90.3187 92.8337 91.7718 92.8337C93.072 92.8337 94.2083 92.637 95.1916 92.2546C96.1749 91.8722 96.9507 91.315 97.5188 90.6048C98.087 89.8947 98.371 89.0424 98.371 88.0482C98.371 87.1632 98.1744 86.4202 97.792 85.8302C97.4095 85.2402 96.8086 84.7595 95.9892 84.388Z" fill="#F85600"/>
<path d="M108.805 77.5047C108.663 77.3846 108.477 77.319 108.226 77.319H104.992C104.741 77.319 104.555 77.3846 104.413 77.5047C104.271 77.6249 104.184 77.767 104.14 77.9309L99.0047 91.9596C98.9938 92.0143 98.9829 92.0798 98.9829 92.1563C98.9829 92.2765 99.0266 92.3748 99.1249 92.4732C99.2232 92.5715 99.3216 92.6152 99.4417 92.6152H102.13C102.381 92.6152 102.556 92.5606 102.654 92.4513C102.752 92.342 102.818 92.2437 102.851 92.1563L103.681 89.9274H109.515L110.368 92.1563C110.4 92.2437 110.466 92.342 110.575 92.4513C110.684 92.5606 110.848 92.6152 111.067 92.6152H113.755C113.886 92.6152 113.995 92.5715 114.093 92.4732C114.192 92.3748 114.235 92.2765 114.235 92.1563C114.235 92.0798 114.224 92.0143 114.192 91.9596L109.078 77.9309C109.035 77.767 108.947 77.6249 108.805 77.5047ZM104.577 86.7808L106.609 81.0119L108.641 86.7808H104.577Z" fill="#F85600"/>
<path d="M109.996 73.1672H108.685C108.521 73.1672 108.412 73.2218 108.335 73.3311C108.259 73.4403 108.182 73.5496 108.106 73.6698C108.029 73.79 107.887 73.8446 107.68 73.8446C107.429 73.8446 107.199 73.779 106.981 73.6479C106.762 73.5168 106.522 73.3857 106.259 73.2546C105.997 73.1235 105.659 73.0579 105.254 73.0579C104.806 73.0579 104.424 73.1563 104.107 73.3529C103.79 73.5496 103.539 73.8009 103.342 74.0959C103.146 74.3909 103.004 74.7077 102.927 75.0246C102.851 75.3414 102.807 75.6255 102.807 75.8549C102.807 75.9424 102.84 76.0298 102.916 76.1062C102.993 76.1827 103.08 76.2264 103.178 76.2264H104.489C104.653 76.2264 104.763 76.1718 104.839 76.0516C104.916 75.9314 104.992 75.8222 105.09 75.7238C105.189 75.6255 105.331 75.5709 105.517 75.5709C105.779 75.5709 106.019 75.6364 106.227 75.7566C106.434 75.8768 106.675 76.0079 106.937 76.139C107.199 76.2701 107.527 76.3357 107.92 76.3357C108.368 76.3357 108.761 76.2374 109.078 76.0407C109.395 75.844 109.657 75.5927 109.843 75.2977C110.029 75.0027 110.171 74.6968 110.258 74.38C110.346 74.0631 110.389 73.79 110.389 73.5605C110.389 73.4622 110.357 73.3638 110.291 73.2874C110.226 73.2109 110.127 73.1672 109.996 73.1672Z" fill="#F85600"/>
<path d="M115.153 83.1097C115.142 83.7325 115.131 84.3662 115.131 84.9999C115.131 85.6336 115.131 86.2673 115.153 86.8901C115.208 88.2121 115.514 89.3156 116.071 90.2006C116.628 91.0856 117.393 91.7411 118.387 92.1782C119.381 92.6152 120.54 92.8337 121.883 92.8337C123.227 92.8337 124.385 92.6152 125.38 92.1782C126.374 91.7411 127.15 91.0856 127.707 90.2006C128.264 89.3156 128.57 88.2121 128.614 86.8901C128.647 86.2673 128.657 85.6336 128.657 84.9999C128.657 84.3662 128.647 83.7325 128.614 83.1097C128.57 81.7986 128.264 80.6951 127.696 79.7992C127.128 78.9033 126.352 78.2259 125.358 77.7779C124.364 77.3299 123.205 77.1005 121.883 77.1005C120.561 77.1005 119.414 77.3299 118.42 77.7779C117.426 78.2259 116.639 78.9033 116.082 79.7992C115.525 80.6951 115.208 81.7986 115.153 83.1097ZM119.218 83.1753C119.25 82.4869 119.381 81.9297 119.611 81.5036C119.84 81.0775 120.157 80.7607 120.55 80.5531C120.944 80.3455 121.392 80.2471 121.883 80.2471C122.375 80.2471 122.845 80.3455 123.238 80.5531C123.632 80.7607 123.938 81.0775 124.167 81.5036C124.396 81.9297 124.517 82.4869 124.549 83.1753C124.582 83.7871 124.593 84.3771 124.593 84.9453C124.593 85.5134 124.582 86.1143 124.549 86.7589C124.517 87.775 124.265 88.518 123.774 88.9878C123.282 89.4576 122.659 89.6871 121.883 89.6871C121.108 89.6871 120.507 89.4576 120.015 88.9878C119.523 88.518 119.261 87.775 119.218 86.7589C119.207 86.1143 119.196 85.5134 119.196 84.9453C119.196 84.3771 119.196 83.7871 119.218 83.1753Z" fill="#F85600"/>
<path d="M15.9792 108.611C16.8751 108.261 17.5744 107.726 18.077 106.994C18.5796 106.262 18.8309 105.344 18.8309 104.218C18.8309 103.093 18.5796 102.143 18.077 101.4C17.5744 100.657 16.8751 100.099 15.9792 99.7279C15.0833 99.3564 14.0344 99.1707 12.8217 99.1707H6.70319C6.5393 99.1707 6.40819 99.2253 6.30985 99.3237C6.21152 99.422 6.15689 99.5531 6.15689 99.717V113.921C6.15689 114.063 6.21152 114.194 6.30985 114.303C6.40819 114.412 6.5393 114.467 6.70319 114.467H9.65316C9.81705 114.467 9.94816 114.412 10.0574 114.303C10.1667 114.194 10.2213 114.063 10.2213 113.921V109.135H12.8217C14.0344 109.135 15.0833 108.96 15.9792 108.611ZM12.7124 106.12H10.1558V102.208H12.7124C13.4444 102.208 13.9689 102.394 14.2857 102.776C14.6026 103.159 14.7665 103.618 14.7665 104.175C14.7665 104.83 14.5807 105.322 14.2092 105.639C13.8378 105.956 13.3352 106.12 12.7124 106.12Z" fill="#F85600"/>
<path d="M18.5687 113.811C18.5577 113.866 18.5468 113.932 18.5468 114.008C18.5468 114.128 18.5905 114.227 18.6888 114.325C18.7872 114.423 18.8855 114.467 19.0057 114.467H21.6934C21.9447 114.467 22.1196 114.412 22.2179 114.303C22.3162 114.194 22.3818 114.095 22.4146 114.008L23.2449 111.779H29.0793L29.9315 114.008C29.9643 114.095 30.0299 114.194 30.1391 114.303C30.2484 114.412 30.4123 114.467 30.6308 114.467H33.3185C33.4497 114.467 33.5589 114.423 33.6572 114.325C33.7556 114.227 33.7993 114.128 33.7993 114.008C33.7993 113.932 33.7884 113.866 33.7556 113.811L28.6423 99.7825C28.5986 99.6187 28.5112 99.4766 28.3691 99.3564C28.2271 99.2363 28.0414 99.1707 27.7901 99.1707H24.556C24.3047 99.1707 24.119 99.2363 23.9769 99.3564C23.8349 99.4766 23.7475 99.6187 23.7038 99.7825L18.5687 113.811ZM26.173 102.864L28.2052 108.632H24.1408L26.173 102.864Z" fill="#F85600"/>
<path d="M47.981 114.467C48.1012 114.467 48.1995 114.423 48.2979 114.325C48.3962 114.227 48.4399 114.128 48.4399 114.008C48.4399 113.932 48.4181 113.855 48.3744 113.768L45.3807 108.392C46.2001 108.032 46.8557 107.485 47.3473 106.775C47.839 106.065 48.0903 105.191 48.0903 104.153C48.0903 102.569 47.5549 101.334 46.4733 100.471C45.3916 99.6077 43.9057 99.1707 42.0155 99.1707H36.0719C35.908 99.1707 35.7769 99.2253 35.6785 99.3237C35.5802 99.422 35.5256 99.5531 35.5256 99.717V113.921C35.5256 114.063 35.5802 114.194 35.6785 114.303C35.7769 114.412 35.908 114.467 36.0719 114.467H38.8907C39.0546 114.467 39.1857 114.412 39.295 114.303C39.4042 114.194 39.4589 114.063 39.4589 113.921V109.07H41.6877L44.1788 113.877C44.2335 113.997 44.3318 114.117 44.4629 114.259C44.594 114.401 44.8016 114.467 45.0748 114.467H47.981ZM41.9718 105.967H39.4589V102.208H41.9718C42.682 102.208 43.2064 102.383 43.5342 102.733C43.862 103.082 44.0259 103.541 44.0259 104.109C44.0259 104.677 43.8511 105.125 43.5124 105.464C43.1737 105.803 42.6601 105.967 41.9718 105.967Z" fill="#F85600"/>
<path d="M59.8246 111.779L60.6769 114.008C60.7096 114.095 60.7752 114.194 60.8845 114.303C60.9937 114.412 61.1576 114.467 61.3761 114.467H64.0639C64.195 114.467 64.3042 114.423 64.4026 114.325C64.5009 114.227 64.5446 114.128 64.5446 114.008C64.5446 113.932 64.5337 113.866 64.5009 113.811L59.3876 99.7825C59.3439 99.6187 59.2565 99.4766 59.1145 99.3564C58.9724 99.2363 58.7867 99.1707 58.5354 99.1707H55.3013C55.05 99.1707 54.8643 99.2363 54.7223 99.3564C54.5802 99.4766 54.4928 99.6187 54.4491 99.7825L49.314 113.811C49.3031 113.866 49.2921 113.932 49.2921 114.008C49.2921 114.128 49.3358 114.227 49.4342 114.325C49.5325 114.423 49.6308 114.467 49.751 114.467H52.4388C52.6901 114.467 52.8649 114.412 52.9632 114.303C53.0615 114.194 53.1271 114.095 53.1599 114.008L53.9902 111.779H59.8246ZM56.9184 102.864L58.9506 108.632H54.8862L56.9184 102.864Z" fill="#F85600"/>
<path d="M81.5015 102.438C81.5998 102.328 81.6545 102.197 81.6545 102.055V99.717C81.6545 99.5531 81.5998 99.422 81.5015 99.3237C81.4032 99.2253 81.2721 99.1707 81.1082 99.1707H69.352C69.1881 99.1707 69.057 99.2253 68.9586 99.3237C68.8603 99.422 68.8057 99.5531 68.8057 99.717V102.055C68.8057 102.197 68.8603 102.328 68.9586 102.438C69.057 102.547 69.1881 102.601 69.352 102.601H73.2416V113.921C73.2416 114.063 73.2962 114.194 73.3945 114.303C73.4929 114.412 73.624 114.467 73.7879 114.467H76.6723C76.8362 114.467 76.9673 114.412 77.0656 114.303C77.164 114.194 77.2186 114.063 77.2186 113.921V102.601H81.1082C81.2721 102.601 81.4032 102.547 81.5015 102.438Z" fill="#F85600"/>
<path d="M96.4262 106.852C96.4262 106.218 96.4153 105.584 96.3825 104.961C96.3388 103.65 96.0329 102.547 95.4647 101.651C94.8966 100.755 94.1209 100.078 93.1266 99.6296C92.1324 99.1816 90.9742 98.9522 89.6522 98.9522C88.3302 98.9522 87.183 99.1816 86.1887 99.6296C85.1945 100.078 84.4078 100.755 83.8506 101.651C83.2934 102.547 82.9765 103.65 82.9219 104.961C82.9109 105.584 82.9 106.218 82.9 106.852C82.9 107.485 82.9 108.119 82.9219 108.742C82.9765 110.064 83.2824 111.167 83.8396 112.052C84.3969 112.937 85.1617 113.593 86.1559 114.03C87.1502 114.467 88.3083 114.685 89.6522 114.685C90.9961 114.685 92.1542 114.467 93.1485 114.03C94.1427 113.593 94.9185 112.937 95.4757 112.052C96.0329 111.167 96.3388 110.064 96.3825 108.742C96.4153 108.119 96.4262 107.485 96.4262 106.852ZM92.3181 108.611C92.2853 109.627 92.034 110.37 91.5424 110.84C91.0507 111.309 90.4279 111.539 89.6522 111.539C88.8765 111.539 88.2755 111.309 87.7839 110.84C87.2922 110.37 87.03 109.627 86.9863 108.611C86.9754 107.966 86.9644 107.365 86.9644 106.797C86.9644 106.229 86.9644 105.639 86.9863 105.027C87.0191 104.339 87.1502 103.781 87.3796 103.355C87.6091 102.929 87.9259 102.612 88.3192 102.405C88.7126 102.197 89.1605 102.099 89.6522 102.099C90.1439 102.099 90.6137 102.197 91.007 102.405C91.4003 102.612 91.7063 102.929 91.9357 103.355C92.1651 103.781 92.2853 104.339 92.3181 105.027C92.3509 105.639 92.3618 106.229 92.3618 106.797C92.3618 107.365 92.3509 107.966 92.3181 108.611Z" fill="#F85600"/>
<path d="M108.838 99.859C107.833 99.4001 106.62 99.1707 105.189 99.1707H99.5073C99.3434 99.1707 99.2123 99.2253 99.114 99.3237C99.0156 99.422 98.961 99.5531 98.961 99.717V113.921C98.961 114.063 99.0156 114.194 99.114 114.303C99.2123 114.412 99.3434 114.467 99.5073 114.467H105.298C106.729 114.467 107.931 114.248 108.914 113.822C109.898 113.396 110.652 112.73 111.165 111.845C111.679 110.96 111.974 109.834 112.028 108.48C112.039 107.857 112.05 107.3 112.05 106.819C112.05 106.338 112.05 105.781 112.028 105.136C111.985 103.836 111.69 102.754 111.154 101.869C110.619 100.984 109.843 100.318 108.838 99.859ZM106.751 111.025C106.336 111.222 105.812 111.32 105.189 111.32H102.894V102.317H105.079C106.041 102.317 106.762 102.547 107.254 103.006C107.745 103.465 107.997 104.186 108.029 105.18C108.062 105.584 108.073 105.956 108.084 106.294C108.084 106.633 108.084 106.961 108.084 107.3C108.084 107.638 108.062 108.01 108.029 108.436C108.019 109.124 107.898 109.67 107.691 110.097C107.483 110.523 107.166 110.829 106.751 111.025Z" fill="#F85600"/>
<path d="M123.042 99.7825C122.998 99.6187 122.91 99.4766 122.768 99.3564C122.626 99.2363 122.441 99.1707 122.189 99.1707H118.955C118.704 99.1707 118.518 99.2363 118.376 99.3564C118.234 99.4766 118.147 99.6187 118.103 99.7825L112.968 113.811C112.957 113.866 112.946 113.932 112.946 114.008C112.946 114.128 112.99 114.227 113.088 114.325C113.186 114.423 113.285 114.467 113.405 114.467H116.093C116.344 114.467 116.519 114.412 116.617 114.303C116.716 114.194 116.781 114.095 116.814 114.008L117.644 111.779H123.479L124.331 114.008C124.364 114.095 124.429 114.194 124.538 114.303C124.648 114.412 124.812 114.467 125.03 114.467H127.718C127.849 114.467 127.958 114.423 128.057 114.325C128.155 114.227 128.199 114.128 128.199 114.008C128.199 113.932 128.188 113.866 128.155 113.811L123.042 99.7825ZM118.54 108.632L120.572 102.864L122.605 108.632H118.54Z" fill="#F85600"/>
<path d="M139.605 106.24C138.786 105.868 137.715 105.562 136.393 105.311C135.595 105.136 134.962 104.972 134.503 104.808C134.044 104.645 133.716 104.459 133.519 104.24C133.323 104.022 133.224 103.77 133.224 103.475C133.224 103.006 133.399 102.667 133.76 102.438C134.12 102.208 134.612 102.099 135.257 102.099C135.858 102.099 136.338 102.219 136.71 102.459C137.081 102.7 137.311 102.984 137.398 103.301C137.486 103.432 137.584 103.53 137.704 103.585C137.824 103.639 137.955 103.672 138.119 103.672H141.004C141.146 103.672 141.266 103.628 141.342 103.53C141.419 103.432 141.463 103.333 141.463 103.213C141.452 102.743 141.31 102.274 141.036 101.782C140.763 101.29 140.37 100.831 139.846 100.394C139.321 99.9574 138.676 99.6077 137.912 99.3455C137.147 99.0833 136.262 98.9522 135.257 98.9522C134.022 98.9522 132.951 99.1488 132.044 99.5422C131.138 99.9355 130.438 100.482 129.936 101.181C129.433 101.88 129.182 102.678 129.182 103.563C129.182 104.448 129.389 105.224 129.794 105.825C130.198 106.425 130.799 106.917 131.575 107.289C132.35 107.66 133.301 107.966 134.404 108.195C135.268 108.37 135.956 108.545 136.469 108.709C136.983 108.873 137.365 109.059 137.595 109.266C137.824 109.474 137.944 109.736 137.944 110.075C137.944 110.523 137.726 110.883 137.3 111.145C136.874 111.408 136.229 111.539 135.388 111.539C134.896 111.539 134.47 111.473 134.12 111.353C133.771 111.233 133.487 111.069 133.279 110.861C133.072 110.654 132.908 110.446 132.787 110.228C132.7 110.107 132.602 110.02 132.492 109.944C132.383 109.867 132.23 109.834 132.023 109.834H129.269C129.138 109.834 129.029 109.878 128.931 109.976C128.832 110.075 128.789 110.173 128.789 110.293C128.821 111.047 129.084 111.768 129.575 112.435C130.067 113.101 130.799 113.647 131.76 114.063C132.722 114.478 133.935 114.685 135.388 114.685C136.688 114.685 137.824 114.489 138.808 114.106C139.791 113.724 140.567 113.167 141.135 112.457C141.703 111.746 141.987 110.894 141.987 109.9C141.987 109.015 141.79 108.272 141.408 107.682C141.026 107.092 140.425 106.611 139.605 106.24Z" fill="#F85600"/>
<path d="M26.0201 133.631L26.8723 135.86C26.9051 135.947 26.9706 136.045 27.0799 136.155C27.1891 136.264 27.353 136.319 27.5716 136.319H30.2593C30.3904 136.319 30.4997 136.275 30.598 136.177C30.6963 136.078 30.74 135.98 30.74 135.86C30.74 135.783 30.7291 135.718 30.6963 135.663L25.583 121.634C25.5393 121.47 25.4519 121.328 25.3099 121.208C25.1679 121.088 24.9821 121.022 24.7308 121.022H21.4968C21.2455 121.022 21.0597 121.088 20.9177 121.208C20.7757 121.328 20.6883 121.47 20.6446 121.634L15.5094 135.663C15.4985 135.718 15.4876 135.783 15.4876 135.86C15.4876 135.98 15.5313 136.078 15.6296 136.177C15.7279 136.275 15.8263 136.319 15.9465 136.319H18.6342C18.8855 136.319 19.0603 136.264 19.1586 136.155C19.257 136.045 19.3225 135.947 19.3553 135.86L20.1857 133.631H26.0201ZM21.0816 130.484L23.1138 124.715L25.146 130.484H21.0816Z" fill="#F85600"/>
<path d="M42.1466 128.091C41.3272 127.72 40.2565 127.414 38.9344 127.163C38.1368 126.988 37.5031 126.824 37.0443 126.66C36.5854 126.496 36.2576 126.31 36.0609 126.092C35.8643 125.873 35.7659 125.622 35.7659 125.327C35.7659 124.857 35.9407 124.519 36.3013 124.289C36.6619 124.06 37.1535 123.951 37.7981 123.951C38.3991 123.951 38.8798 124.071 39.2513 124.311C39.6228 124.551 39.8522 124.836 39.9396 125.152C40.027 125.283 40.1253 125.382 40.2455 125.436C40.3657 125.491 40.4968 125.524 40.6607 125.524H43.5451C43.6872 125.524 43.8074 125.48 43.8838 125.382C43.9603 125.283 44.004 125.185 44.004 125.065C43.9931 124.595 43.8511 124.125 43.5779 123.634C43.3048 123.142 42.9114 122.683 42.387 122.246C41.8626 121.809 41.2179 121.459 40.4531 121.197C39.6883 120.935 38.8033 120.804 37.7981 120.804C36.5635 120.804 35.4928 121.001 34.5859 121.394C33.6791 121.787 32.9798 122.333 32.4773 123.033C31.9747 123.732 31.7234 124.53 31.7234 125.415C31.7234 126.3 31.931 127.075 32.3352 127.676C32.7395 128.277 33.3404 128.769 34.1161 129.14C34.8919 129.512 35.8424 129.818 36.9459 130.047C37.8091 130.222 38.4974 130.397 39.0109 130.561C39.5244 130.725 39.9068 130.91 40.1363 131.118C40.3657 131.325 40.4859 131.588 40.4859 131.926C40.4859 132.374 40.2674 132.735 39.8413 132.997C39.4152 133.259 38.7705 133.39 37.9293 133.39C37.4376 133.39 37.0115 133.325 36.6618 133.205C36.3122 133.085 36.0282 132.921 35.8206 132.713C35.613 132.505 35.4491 132.298 35.3289 132.079C35.2415 131.959 35.1432 131.872 35.0339 131.795C34.9246 131.719 34.7717 131.686 34.5641 131.686H31.8108C31.6797 131.686 31.5704 131.73 31.4721 131.828C31.3737 131.926 31.33 132.025 31.33 132.145C31.3628 132.899 31.625 133.62 32.1167 134.286C32.6084 134.953 33.3404 135.499 34.3019 135.914C35.2633 136.329 36.4761 136.537 37.9293 136.537C39.2294 136.537 40.3657 136.34 41.349 135.958C42.3324 135.576 43.1081 135.018 43.6762 134.308C44.2444 133.598 44.5285 132.746 44.5285 131.752C44.5285 130.867 44.3318 130.124 43.9494 129.534C43.567 128.944 42.9661 128.463 42.1466 128.091Z" fill="#F85600"/>
<path d="M54.8425 136.319C55.0063 136.319 55.1375 136.264 55.2467 136.155C55.356 136.045 55.4106 135.914 55.4106 135.772V121.569C55.4106 121.405 55.356 121.274 55.2467 121.175C55.1375 121.077 55.0063 121.022 54.8425 121.022H51.9143C51.7504 121.022 51.6193 121.077 51.521 121.175C51.4227 121.274 51.368 121.405 51.368 121.569V135.772C51.368 135.914 51.4227 136.045 51.521 136.155C51.6193 136.264 51.7504 136.319 51.9143 136.319H54.8425Z" fill="#F85600"/>
<path d="M68.4014 135.674C69.3848 135.248 70.1386 134.581 70.6522 133.696C71.1657 132.811 71.4607 131.686 71.5153 130.331C71.5262 129.708 71.5371 129.151 71.5371 128.67C71.5371 128.19 71.5371 127.633 71.5153 126.988C71.4716 125.688 71.1766 124.606 70.6412 123.721C70.1059 122.836 69.3301 122.17 68.325 121.711C67.3198 121.252 66.107 121.022 64.6757 121.022H58.9943C58.8304 121.022 58.6993 121.077 58.6009 121.175C58.5026 121.274 58.448 121.405 58.448 121.569V135.772C58.448 135.914 58.5026 136.045 58.6009 136.155C58.6993 136.264 58.8304 136.319 58.9943 136.319H64.785C66.2163 136.319 67.4181 136.1 68.4014 135.674ZM66.2381 132.877C65.8229 133.074 65.2985 133.172 64.6757 133.172H62.3813V124.169H64.5665C65.5279 124.169 66.249 124.398 66.7407 124.857C67.2324 125.316 67.4837 126.037 67.5164 127.032C67.5492 127.436 67.5601 127.807 67.5711 128.146C67.5711 128.485 67.5711 128.813 67.5711 129.151C67.5711 129.49 67.5492 129.861 67.5164 130.288C67.5055 130.976 67.3853 131.522 67.1777 131.948C66.9701 132.374 66.6533 132.68 66.2381 132.877Z" fill="#F85600"/>
<path d="M84.0254 136.155C84.1346 136.264 84.2985 136.319 84.5171 136.319H87.2048C87.3359 136.319 87.4452 136.275 87.5435 136.177C87.6418 136.078 87.6855 135.98 87.6855 135.86C87.6855 135.783 87.6746 135.718 87.6418 135.663L82.5285 121.634C82.4848 121.47 82.3974 121.328 82.2554 121.208C82.1134 121.088 81.9276 121.022 81.6763 121.022H78.4423C78.191 121.022 78.0052 121.088 77.8632 121.208C77.7212 121.328 77.6338 121.47 77.5901 121.634L72.4549 135.663C72.444 135.718 72.4331 135.783 72.4331 135.86C72.4331 135.98 72.4768 136.078 72.5751 136.177C72.6734 136.275 72.7718 136.319 72.892 136.319H75.5797C75.831 136.319 76.0058 136.264 76.1041 136.155C76.2025 136.045 76.268 135.947 76.3008 135.86L77.1312 133.631H82.9656L83.8178 135.86C83.8506 135.947 83.9161 136.045 84.0254 136.155ZM78.0271 130.484L80.0593 124.715L82.0915 130.484H78.0271Z" fill="#F85600"/>
<path d="M101.616 133.696C102.13 132.811 102.425 131.686 102.479 130.331C102.49 129.708 102.501 129.151 102.501 128.67C102.501 128.19 102.501 127.633 102.479 126.988C102.435 125.688 102.14 124.606 101.605 123.721C101.07 122.836 100.294 122.17 99.2888 121.711C98.2836 121.252 97.0708 121.022 95.6396 121.022H89.9581C89.7942 121.022 89.6631 121.077 89.5648 121.175C89.4665 121.274 89.4118 121.405 89.4118 121.569V135.772C89.4118 135.914 89.4665 136.045 89.5648 136.155C89.6631 136.264 89.7942 136.319 89.9581 136.319H95.7488C97.1801 136.319 98.3819 136.1 99.3653 135.674C100.349 135.248 101.102 134.581 101.616 133.696ZM98.5349 129.151C98.5349 129.49 98.5131 129.861 98.4803 130.288C98.4694 130.976 98.3492 131.522 98.1416 131.948C97.934 132.374 97.6171 132.68 97.202 132.877C96.7868 133.074 96.2623 133.172 95.6396 133.172H93.3451V124.169H95.5303C96.4918 124.169 97.2129 124.398 97.7045 124.857C98.1962 125.316 98.4475 126.037 98.4803 127.032C98.5131 127.436 98.524 127.807 98.5349 128.146C98.5349 128.485 98.5349 128.813 98.5349 129.151Z" fill="#F85600"/>
<path d="M115.983 133.172H108.838V130.135H115.328C115.492 130.135 115.623 130.08 115.721 129.971C115.82 129.861 115.874 129.73 115.874 129.588V127.687C115.874 127.523 115.82 127.392 115.721 127.283C115.623 127.174 115.492 127.119 115.328 127.119H108.838V124.169H115.809C115.973 124.169 116.104 124.114 116.202 124.016C116.3 123.918 116.355 123.787 116.355 123.623V121.569C116.355 121.405 116.3 121.274 116.202 121.175C116.104 121.077 115.973 121.022 115.809 121.022H105.604C105.44 121.022 105.309 121.077 105.211 121.175C105.112 121.274 105.058 121.405 105.058 121.569V135.772C105.058 135.914 105.112 136.045 105.211 136.155C105.309 136.264 105.44 136.319 105.604 136.319H115.983C116.147 136.319 116.278 136.264 116.377 136.155C116.475 136.045 116.53 135.914 116.53 135.772V133.718C116.53 133.554 116.475 133.423 116.377 133.325C116.278 133.227 116.147 133.172 115.983 133.172Z" fill="#F85600"/>
<path d="M128.942 128.091C128.122 127.72 127.051 127.414 125.729 127.163C124.932 126.988 124.298 126.824 123.839 126.66C123.38 126.496 123.052 126.31 122.856 126.092C122.659 125.873 122.561 125.622 122.561 125.327C122.561 124.857 122.736 124.519 123.096 124.289C123.457 124.06 123.948 123.951 124.593 123.951C125.194 123.951 125.675 124.071 126.046 124.311C126.418 124.551 126.647 124.836 126.735 125.152C126.822 125.283 126.92 125.382 127.04 125.436C127.161 125.491 127.292 125.524 127.456 125.524H130.34C130.482 125.524 130.602 125.48 130.679 125.382C130.755 125.283 130.799 125.185 130.799 125.065C130.788 124.595 130.646 124.125 130.373 123.634C130.1 123.142 129.706 122.683 129.182 122.246C128.657 121.809 128.013 121.459 127.248 121.197C126.483 120.935 125.598 120.804 124.593 120.804C123.358 120.804 122.288 121.001 121.381 121.394C120.474 121.787 119.775 122.333 119.272 123.033C118.77 123.732 118.518 124.53 118.518 125.415C118.518 126.3 118.726 127.075 119.13 127.676C119.534 128.277 120.135 128.769 120.911 129.14C121.687 129.512 122.637 129.818 123.741 130.047C124.604 130.222 125.292 130.397 125.806 130.561C126.319 130.725 126.702 130.91 126.931 131.118C127.161 131.325 127.281 131.588 127.281 131.926C127.281 132.374 127.062 132.735 126.636 132.997C126.21 133.259 125.565 133.39 124.724 133.39C124.232 133.39 123.806 133.325 123.457 133.205C123.107 133.085 122.823 132.921 122.615 132.713C122.408 132.505 122.244 132.298 122.124 132.079C122.036 131.959 121.938 131.872 121.829 131.795C121.72 131.719 121.567 131.686 121.359 131.686H118.606C118.475 131.686 118.365 131.73 118.267 131.828C118.169 131.926 118.125 132.025 118.125 132.145C118.158 132.899 118.42 133.62 118.912 134.286C119.403 134.953 120.135 135.499 121.097 135.914C122.058 136.329 123.271 136.537 124.724 136.537C126.024 136.537 127.161 136.34 128.144 135.958C129.127 135.576 129.903 135.018 130.471 134.308C131.039 133.598 131.323 132.746 131.323 131.752C131.323 130.867 131.127 130.124 130.744 129.534C130.362 128.944 129.761 128.463 128.942 128.091Z" fill="#F85600"/>
<path d="M50.483 49.764C50.188 50.2338 51.0403 48.9009 51.0949 48.6714C51.2042 48.2672 51.2806 47.7537 51.2806 47.3385C51.2806 46.6829 51.0621 45.9837 50.8327 45.3718C50.5705 44.6726 50.2536 43.9733 49.9258 43.2959C49.9258 43.2741 49.8931 43.2413 49.8821 43.2085C49.8384 43.1102 49.7729 42.9791 49.7401 42.9135C49.6636 42.6622 49.5216 42.1706 49.5871 42.6622C49.3358 40.7174 48.0138 39.166 45.8942 39.461C43.7527 39.756 42.9114 41.6024 43.1846 43.5363C43.3594 44.8255 43.9822 46.0383 44.6814 47.12C44.8235 47.3385 44.9764 47.557 45.1185 47.7864C45.1185 47.7864 45.479 48.3874 45.4353 48.2672C45.621 48.6496 45.7959 49.032 46.0035 49.3816C46.0581 49.469 46.1018 49.5674 46.1564 49.6548C46.9758 51.1079 49.3905 51.5012 50.4721 49.764H50.483Z" fill="#FFA901"/>
<path d="M26.6647 51.4138C25.8562 51.392 26.5227 51.4138 26.774 51.4794C26.774 51.4794 26.7849 51.4794 26.7958 51.4794C26.7958 51.4794 26.8177 51.4903 26.8286 51.5012C27.2001 51.7307 27.6153 51.9164 28.0086 52.1022C29.3743 52.7686 30.6417 53.0636 32.1604 52.8014C34.5641 52.3753 34.9356 48.6387 32.8378 47.5898C31.035 46.672 29.5601 45.2954 27.5606 44.7491C25.5721 44.2028 23.5945 45.5794 23.3214 47.5679C23.0482 49.6111 24.6106 51.3592 26.6538 51.4138H26.6647Z" fill="#FFA901"/>
<path d="M29.2323 34.5662C30.1719 34.8502 31.1552 34.9158 32.1276 35.0251C32.0839 35.0251 32.6084 35.1015 32.663 35.1125C32.8815 35.1562 33.0891 35.2108 33.3076 35.2654C33.4387 35.2982 33.5808 35.3419 33.7119 35.3747C34.7608 36.1613 36.1483 36.1941 37.2191 35.3856C38.2789 34.588 38.7705 32.8399 37.962 31.6818C36.5963 29.7151 33.985 28.7973 31.5486 28.6116C30.8384 28.1746 29.8878 28.0325 29.1449 28.2401C27.8993 28.5788 27.0253 29.7697 27.0034 31.0481C27.0034 31.2447 27.0034 31.4305 27.0034 31.6271C27.0034 32.9819 27.954 34.1728 29.2323 34.5552V34.5662Z" fill="#FFA901"/>
</svg>
