<svg width="97" height="120" viewBox="0 0 97 120" fill="none" xmlns="http://www.w3.org/2000/svg">
<path d="M46.1837 86.7694H50.2301L48.2069 81.0261L46.1837 86.7694Z" fill="white"/>
<path d="M85.8864 85.8774V83.9848C85.8864 83.5279 85.832 83.0711 85.7341 82.636C86.1474 81.8093 86.365 80.8956 86.365 79.9384V77.8934C86.365 76.5337 85.919 75.2502 85.0815 74.1842C85.125 73.9014 85.1467 73.6186 85.1467 73.3249C85.1467 70.029 82.5797 67.451 79.2947 67.451H76.249C75.2265 67.451 74.2802 67.6577 73.3556 68.1146C73.1707 68.2125 72.9966 68.3104 72.8226 68.4191C73.41 66.8093 73.7363 65.0906 73.7363 63.285V62.839C73.1598 62.6976 72.5941 62.4365 72.0829 62.045C72.4636 62.3386 72.0176 62.0993 71.7892 61.9688C71.7022 61.9471 71.4846 61.8709 71.3976 61.8383C70.6906 61.5881 69.9836 61.327 69.2983 61.0116C68.7109 60.7397 68.0691 60.4025 67.6014 59.9456C67.3077 59.6519 67.0031 59.2386 66.7965 58.8796C66.6768 58.673 66.3396 57.1392 66.4593 57.6722C65.9915 55.6817 67.9712 54.2567 69.5702 54.7136C70.0815 54.7897 70.5492 55.0073 71.0604 55.1704C70.9408 55.1269 71.6261 55.2901 71.6261 55.2901C71.8871 55.3553 72.1482 55.3988 72.3984 55.4532C73.5622 55.6925 74.7479 56.095 75.7377 56.7694C79.7189 54.6157 82.6123 50.6889 83.3955 46.0442C82.4056 46.2727 81.394 46.4576 80.4042 46.773C78.1852 47.5018 75.8139 44.6193 77.2171 42.6178C78.0981 41.3561 79.1968 40.6817 80.6326 40.1813C81.0459 40.0399 81.4701 39.8767 81.8835 39.7788C81.8944 39.7788 81.9052 39.7788 81.9161 39.7788C81.9161 39.7788 81.927 39.7788 81.9379 39.7679C82.1554 39.6374 82.6449 39.1806 82.0575 39.7353C82.5144 39.3002 83.0474 39.0283 83.613 38.8869V15.0435C83.613 6.75489 76.9125 0 68.6783 0H27.6594C19.4252 0 12.7247 6.74402 12.7247 15.0435V20.6671C6.97051 22.7556 2.83708 28.314 2.83708 34.8296V63.285C2.83708 66.5373 3.87044 69.5395 5.6217 71.9978C4.34904 72.1827 3.1634 72.7375 2.23882 73.6621C1.10756 74.7933 0.487549 76.2944 0.487549 77.9043V92.045C0.487549 93.5787 1.06405 95.0363 2.07566 96.1131C3.19603 97.3314 4.79502 98.0276 6.47014 98.0276H16.8037C17.4455 98.0276 18.0546 97.9297 18.642 97.7447C19.1968 97.9188 19.7733 98.0276 20.3715 98.0276H21.3287L20.4042 98.7455C19.0771 99.6918 18.196 101.128 17.9785 102.716C17.7609 104.195 18.0981 105.696 18.9357 106.947C19.001 107.045 19.0662 107.143 19.1424 107.241L20.4585 108.959C21.1438 109.84 22.0466 110.504 23.0474 110.896V113.811C23.0474 115.399 23.6674 116.9 24.7986 118.031C25.9299 119.162 27.431 119.793 29.03 119.793H31.8581C33.1416 119.793 34.349 119.402 35.3606 118.662C35.7305 118.858 36.1112 119.032 36.5028 119.184C37.8951 119.728 39.4723 120 41.191 120C42.9096 120 44.5086 119.728 45.9009 119.184C46.0314 119.13 46.1511 119.065 46.2816 119.01C47.1518 119.5 48.1308 119.782 49.1532 119.782H52.2859C53.613 119.782 54.8639 119.38 55.8973 118.651C56.9306 119.38 58.1924 119.782 59.5086 119.782H62.7501C64.3925 119.782 65.9698 119.097 67.0793 117.89C68.0909 116.791 68.6456 115.366 68.6456 113.887C68.6456 113.539 68.613 113.191 68.5586 112.843C68.4281 112.059 68.1344 111.309 67.6449 110.58L64.8929 106.512L67.2642 102.901C67.9277 101.933 68.2976 100.769 68.2976 99.5722C68.2976 98.876 68.1562 98.2125 67.9277 97.5816C68.6348 97.8753 69.4071 98.0276 70.212 98.0276H80.5456C82.2098 98.0276 83.8088 97.3314 84.8965 96.1566C85.9517 95.0363 86.5282 93.5787 86.5282 92.045V90C86.5282 88.9449 86.2562 87.9333 85.7559 87.0522C85.832 86.6715 85.8646 86.2799 85.8646 85.8883L85.8864 85.8774ZM74.8567 70.9645C74.8567 70.9645 74.8893 70.9645 74.9002 70.9645C75.629 71.1385 76.3034 71.4648 76.8799 71.9217H74.476C74.5738 71.5954 74.7044 71.2799 74.8567 70.9753V70.9645ZM73.5296 75.6309L75.444 73.3031C75.5854 73.1291 75.716 73.0203 75.8139 72.9659C75.9118 72.9115 76.0641 72.8898 76.249 72.8898H79.2947C79.5666 72.8898 79.708 73.0312 79.708 73.3249C79.708 73.4228 79.6754 73.5098 79.5992 73.5859L76.7058 75.9572C76.5862 76.0551 76.4774 76.1313 76.3577 76.1856C76.2381 76.24 76.0858 76.2618 75.8791 76.2618H73.7689C73.5405 76.2618 73.4208 76.1421 73.4208 75.9137C73.4208 75.7941 73.4535 75.707 73.5296 75.6309ZM67.6993 80.2212C67.6993 80.3626 67.6449 80.4931 67.547 80.6019C67.4491 80.7107 67.3186 80.765 67.1554 80.765H63.2831V92.0341C63.2831 92.1755 63.2287 92.306 63.1308 92.4148C63.0329 92.5236 62.9023 92.5779 62.7392 92.5779H59.8675C59.7044 92.5779 59.5738 92.5236 59.4759 92.4148C59.378 92.306 59.3237 92.1755 59.3237 92.0341V80.765H55.4513C55.2881 80.765 55.1576 80.7107 55.0597 80.6019C54.9618 80.4931 54.9074 80.3626 54.9074 80.2212V78.3176H58.8124C60.6507 78.3176 62.4129 77.9587 64.0445 77.3495H67.1554C67.3186 77.3495 67.4491 77.4039 67.547 77.5018C67.6449 77.5997 67.6993 77.7302 67.6993 77.8934V80.2212ZM55.7559 91.9253C55.7885 91.9797 55.7994 92.045 55.7994 92.1211C55.7994 92.2408 55.7559 92.3387 55.658 92.4365C55.5601 92.5344 55.4513 92.5779 55.3208 92.5779H52.6449C52.4274 92.5779 52.2642 92.5236 52.1554 92.4148C52.0466 92.306 51.9814 92.2081 51.9487 92.1211L51.1003 89.9021H45.2918L44.4651 92.1211C44.4324 92.2081 44.3672 92.306 44.2693 92.4148C44.1714 92.5236 43.9973 92.5779 43.7472 92.5779H41.0713C40.9516 92.5779 40.8538 92.5344 40.7559 92.4365C40.658 92.3387 40.6145 92.2408 40.6145 92.1211C40.6145 92.045 40.6145 91.9797 40.6362 91.9253L45.6181 78.3176H50.7957L55.7559 91.9253ZM19.8385 78.3176H23.7653L27.3222 84.6809L30.8791 78.3176H34.8059V92.0341C34.8059 92.1755 34.7515 92.306 34.6427 92.4148C34.534 92.5236 34.4034 92.5779 34.2403 92.5779H31.6514C31.4883 92.5779 31.3577 92.5236 31.249 92.4148C31.1402 92.306 31.0858 92.1755 31.0858 92.0341V83.876L28.6493 88.4228C28.5731 88.5533 28.4861 88.673 28.3664 88.7708C28.2468 88.8687 28.0945 88.9231 27.8878 88.9231H26.7566C26.5499 88.9231 26.3976 88.8687 26.278 88.7708C26.1583 88.673 26.0713 88.5533 25.9952 88.4228L23.5369 83.876V92.0341C23.5369 92.1755 23.4825 92.306 23.3846 92.4148C23.2867 92.5236 23.1561 92.5779 22.993 92.5779H20.3824C20.241 92.5779 20.1105 92.5236 20.0017 92.4148C19.8929 92.306 19.8385 92.1755 19.8385 92.0341V78.3176ZM13.7145 34.8187C13.7145 32.5236 15.5311 30.6526 17.7718 30.6526H23.6021V15.0435C23.6021 12.7484 25.4187 10.8774 27.6594 10.8774H68.7C70.9408 10.8774 72.7573 12.7484 72.7573 15.0435V43.4989C72.7573 45.7941 70.9408 47.665 68.7 47.665H62.8697V63.2741C62.8697 65.5693 61.0532 67.4402 58.8124 67.4402H17.7718C15.5311 67.4402 13.7145 65.5693 13.7145 63.2741V34.8187ZM6.08943 92.4148C5.99154 92.306 5.93715 92.1755 5.93715 92.0341V77.8934C5.93715 77.7302 5.99154 77.5997 6.08943 77.5018C6.18733 77.4039 6.31786 77.3495 6.48102 77.3495H12.5398C13.9973 77.9043 15.5528 78.2306 17.1844 78.2959V79.9384C17.1844 80.1015 17.13 80.232 17.0321 80.3299C16.9342 80.4278 16.8037 80.4822 16.6406 80.4822H9.70075V83.4191H16.162C16.3251 83.4191 16.4556 83.4735 16.5535 83.5823C16.6514 83.6911 16.7058 83.8216 16.7058 83.9848V85.8774C16.7058 86.0189 16.6514 86.1494 16.5535 86.2582C16.4556 86.3669 16.3251 86.4213 16.162 86.4213H9.70075V89.4453H16.8146C16.9778 89.4453 17.1083 89.4996 17.2062 89.5975C17.3041 89.6954 17.3585 89.826 17.3585 89.9891V92.0341C17.3585 92.1755 17.3041 92.306 17.2062 92.4148C17.1083 92.5236 16.9778 92.5779 16.8146 92.5779H6.48102C6.31786 92.5779 6.18733 92.5236 6.08943 92.4148ZM28.6601 114.17C28.5514 114.061 28.497 113.93 28.497 113.789V103.434L25.5166 105.718C25.386 105.816 25.2555 105.859 25.1141 105.827C24.9727 105.794 24.853 105.718 24.7551 105.587L23.4716 103.912C23.3846 103.782 23.3519 103.64 23.3737 103.488C23.3955 103.336 23.4825 103.216 23.6239 103.129L28.6275 99.2567C28.7145 99.2023 28.8015 99.1588 28.8777 99.1371C28.9538 99.1153 29.0517 99.1044 29.1496 99.1044H31.869C32.0321 99.1044 32.1627 99.1588 32.2606 99.2567C32.3585 99.3546 32.4129 99.4851 32.4129 99.6483V113.789C32.4129 113.93 32.3585 114.061 32.2606 114.17C32.1627 114.278 32.0321 114.333 31.869 114.333H29.0408C28.8994 114.333 28.7689 114.278 28.6601 114.17ZM38.4933 114.104C37.7319 113.811 37.101 113.397 36.5898 112.875C36.0786 112.353 35.6978 111.744 35.4368 111.048C35.1757 110.352 35.0234 109.601 34.9799 108.807C34.9691 108.416 34.9582 107.97 34.9473 107.469C34.9364 106.969 34.9473 106.458 34.9473 105.946C34.9473 105.435 34.9691 104.967 34.9799 104.565C35.0234 103.771 35.1757 103.02 35.4477 102.335C35.7196 101.65 36.1112 101.041 36.6224 100.529C37.1337 100.018 37.7754 99.6157 38.5369 99.322C39.2983 99.0283 40.1902 98.8869 41.2018 98.8869C42.2134 98.8869 43.1271 99.0283 43.8886 99.322C44.65 99.6157 45.2809 100.018 45.7921 100.529C46.3034 101.041 46.6949 101.65 46.9669 102.335C47.2388 103.02 47.402 103.771 47.4455 104.565C47.4564 104.967 47.4672 105.435 47.4781 105.946C47.489 106.458 47.4781 106.969 47.4781 107.469C47.4781 107.97 47.4564 108.416 47.4455 108.807C47.402 109.601 47.2497 110.352 46.9778 111.048C46.7058 111.744 46.3251 112.353 45.8247 112.875C45.3244 113.397 44.6935 113.811 43.9321 114.104C43.1707 114.398 42.2569 114.55 41.2018 114.55C40.1467 114.55 39.2548 114.398 38.4933 114.104ZM63.0873 114.191C63.0002 114.289 62.8915 114.333 62.7609 114.333H59.5195C59.3019 114.333 59.1279 114.278 59.0082 114.17C58.8886 114.061 58.8015 113.974 58.758 113.898L55.8864 109.721L53.0365 113.898C52.993 113.974 52.9168 114.061 52.7972 114.17C52.6775 114.278 52.5144 114.333 52.2968 114.333H49.1641C49.0336 114.333 48.9248 114.289 48.8269 114.191C48.729 114.094 48.6855 113.996 48.6855 113.876C48.6855 113.832 48.6855 113.789 48.7073 113.745C48.7181 113.702 48.7399 113.658 48.7725 113.615L53.5151 106.566L49.1206 99.8223C49.0771 99.7353 49.0553 99.6483 49.0553 99.5613C49.0553 99.4416 49.0989 99.3437 49.1859 99.2458C49.2729 99.1479 49.3817 99.1044 49.5122 99.1044H52.6667C52.8842 99.1044 53.0474 99.1588 53.167 99.2676C53.2867 99.3764 53.3737 99.4743 53.4281 99.5613L56.0169 103.499L58.6493 99.5613C58.7036 99.4743 58.7907 99.3764 58.9103 99.2676C59.03 99.1588 59.1931 99.1044 59.4107 99.1044H62.4129C62.5325 99.1044 62.6304 99.1479 62.7283 99.2458C62.8262 99.3437 62.8697 99.4416 62.8697 99.5613C62.8697 99.6592 62.8371 99.7462 62.7827 99.8223L58.3664 106.545L63.1525 113.615C63.1525 113.615 63.196 113.702 63.2069 113.745C63.2178 113.789 63.2178 113.832 63.2178 113.876C63.2178 113.996 63.1743 114.094 63.0873 114.191ZM81.1003 92.0341C81.1003 92.1755 81.0459 92.306 80.948 92.4148C80.8501 92.5236 80.7196 92.5779 80.5564 92.5779H70.2229C70.0597 92.5779 69.9292 92.5236 69.8313 92.4148C69.7334 92.306 69.679 92.1755 69.679 92.0341V77.8934C69.679 77.7302 69.7334 77.5997 69.8313 77.5018C69.9292 77.4039 70.0597 77.3495 70.2229 77.3495H80.3824C80.5456 77.3495 80.6761 77.4039 80.774 77.5018C80.8719 77.5997 80.9263 77.7302 80.9263 77.8934V79.9384C80.9263 80.1015 80.8719 80.232 80.774 80.3299C80.6761 80.4278 80.5456 80.4822 80.3824 80.4822H73.4426V83.4191H79.9038C80.067 83.4191 80.1975 83.4735 80.2954 83.5823C80.3933 83.6911 80.4477 83.8216 80.4477 83.9848V85.8774C80.4477 86.0189 80.3933 86.1494 80.2954 86.2582C80.1975 86.3669 80.067 86.4213 79.9038 86.4213H73.4426V89.4453H80.5564C80.7196 89.4453 80.8501 89.4996 80.948 89.5975C81.0459 89.6954 81.1003 89.826 81.1003 89.9891V92.0341Z" fill="white"/>
<path d="M43.4317 107.371C43.4317 106.904 43.4317 106.447 43.4317 105.979C43.4317 105.511 43.41 105.087 43.3773 104.695C43.3664 103.901 43.1815 103.249 42.8443 102.759C42.5071 102.27 41.9524 102.009 41.2018 101.998C40.4622 102.009 39.9183 102.27 39.5811 102.759C39.2439 103.249 39.059 103.901 39.0263 104.695C39.0263 105.087 39.0263 105.511 39.0263 105.979C39.0263 106.447 39.0263 106.904 39.0263 107.371C39.0263 107.839 39.0263 108.274 39.0263 108.698C39.059 109.525 39.2439 110.178 39.592 110.667C39.94 111.157 40.473 111.396 41.2018 111.396C41.9306 111.396 42.5071 111.157 42.8443 110.667C43.1815 110.178 43.3664 109.525 43.3773 108.698C43.41 108.274 43.4208 107.839 43.4317 107.371ZM41.0931 107.437C40.8755 107.437 40.6362 107.393 40.386 107.317C40.386 106.914 40.386 106.501 40.386 106.088C40.6471 106.012 40.8973 105.968 41.1257 105.957L41.0931 107.437ZM41.3106 107.437L41.278 105.957C41.5173 105.957 41.7675 106.012 42.0394 106.088C42.0394 106.501 42.0394 106.914 42.0394 107.317C41.7783 107.393 41.5282 107.437 41.3106 107.437Z" fill="white"/>
<path d="M16.8146 92.5779C16.9778 92.5779 17.1083 92.5236 17.2062 92.4148C17.3041 92.306 17.3585 92.1755 17.3585 92.0341V89.9891C17.3585 89.826 17.3041 89.6954 17.2062 89.5975C17.1083 89.4996 16.9778 89.4453 16.8146 89.4453H9.70075V86.4213H16.162C16.3251 86.4213 16.4556 86.3669 16.5535 86.2582C16.6514 86.1494 16.7058 86.0189 16.7058 85.8774V83.9848C16.7058 83.8216 16.6514 83.6911 16.5535 83.5823C16.4556 83.4735 16.3251 83.4191 16.162 83.4191H9.70075V80.4822H16.6406C16.8037 80.4822 16.9342 80.4278 17.0321 80.3299C17.13 80.232 17.1844 80.1015 17.1844 79.9384V78.2959C15.5528 78.2306 13.9973 77.9043 12.5398 77.3495H6.48102C6.31786 77.3495 6.18733 77.4039 6.08943 77.5018C5.99154 77.5997 5.93715 77.7302 5.93715 77.8934V92.0341C5.93715 92.1755 5.99154 92.306 6.08943 92.4148C6.18733 92.5236 6.31786 92.5779 6.48102 92.5779H16.8146Z" fill="#F85600"/>
<path d="M20.3824 92.5779H22.993C23.1561 92.5779 23.2867 92.5236 23.3846 92.4148C23.4825 92.306 23.5369 92.1755 23.5369 92.0341V83.876L25.9952 88.4228C26.0713 88.5533 26.1583 88.673 26.278 88.7708C26.3976 88.8687 26.5499 88.9231 26.7566 88.9231H27.8878C28.0945 88.9231 28.2468 88.8687 28.3664 88.7708C28.4861 88.673 28.5731 88.5533 28.6493 88.4228L31.0858 83.876V92.0341C31.0858 92.1755 31.1402 92.306 31.249 92.4148C31.3577 92.5236 31.4883 92.5779 31.6514 92.5779H34.2403C34.4034 92.5779 34.534 92.5236 34.6427 92.4148C34.7515 92.306 34.8059 92.1755 34.8059 92.0341V78.3176H30.8791L27.3222 84.6809L23.7653 78.3176H19.8385V92.0341C19.8385 92.1755 19.8929 92.306 20.0017 92.4148C20.1105 92.5236 20.241 92.5779 20.3824 92.5779Z" fill="#F85600"/>
<path d="M45.6181 78.3176L40.6362 91.9253C40.6253 91.9797 40.6145 92.045 40.6145 92.1211C40.6145 92.2408 40.658 92.3387 40.7559 92.4365C40.8538 92.5344 40.9516 92.5779 41.0713 92.5779H43.7472C43.9973 92.5779 44.1714 92.5236 44.2693 92.4148C44.3672 92.306 44.4324 92.2081 44.4651 92.1211L45.2918 89.9021H51.1003L51.9487 92.1211C51.9814 92.2081 52.0466 92.306 52.1554 92.4148C52.2642 92.5236 52.4274 92.5779 52.6449 92.5779H55.3208C55.4513 92.5779 55.5601 92.5344 55.658 92.4365C55.7559 92.3387 55.7994 92.2408 55.7994 92.1211C55.7994 92.045 55.7885 91.9797 55.7559 91.9253L50.7957 78.3176H45.6181ZM46.1837 86.7694L48.2069 81.0261L50.2301 86.7694H46.1837Z" fill="#F85600"/>
<path d="M67.1554 77.3495H64.0445C62.4129 77.9695 60.6507 78.3176 58.8124 78.3176H54.9074V80.2212C54.9074 80.3626 54.9618 80.4931 55.0597 80.6019C55.1576 80.7107 55.2881 80.765 55.4513 80.765H59.3237V92.0341C59.3237 92.1755 59.378 92.306 59.4759 92.4148C59.5738 92.5236 59.7044 92.5779 59.8675 92.5779H62.7392C62.9023 92.5779 63.0329 92.5236 63.1308 92.4148C63.2287 92.306 63.2831 92.1755 63.2831 92.0341V80.765H67.1554C67.3186 80.765 67.4491 80.7107 67.547 80.6019C67.6449 80.4931 67.6993 80.3626 67.6993 80.2212V77.8934C67.6993 77.7302 67.6449 77.5997 67.547 77.5018C67.4491 77.4039 67.3186 77.3495 67.1554 77.3495Z" fill="#F85600"/>
<path d="M80.5564 89.4453H73.4426V86.4213H79.9038C80.067 86.4213 80.1975 86.3669 80.2954 86.2582C80.3933 86.1494 80.4477 86.0189 80.4477 85.8774V83.9848C80.4477 83.8216 80.3933 83.6911 80.2954 83.5823C80.1975 83.4735 80.067 83.4191 79.9038 83.4191H73.4426V80.4822H80.3824C80.5456 80.4822 80.6761 80.4278 80.774 80.3299C80.8719 80.232 80.9263 80.1015 80.9263 79.9384V77.8934C80.9263 77.7302 80.8719 77.5997 80.774 77.5018C80.6761 77.4039 80.5456 77.3495 80.3824 77.3495H70.2229C70.0597 77.3495 69.9292 77.4039 69.8313 77.5018C69.7334 77.5997 69.679 77.7302 69.679 77.8934V92.0341C69.679 92.1755 69.7334 92.306 69.8313 92.4148C69.9292 92.5236 70.0597 92.5779 70.2229 92.5779H80.5564C80.7196 92.5779 80.8501 92.5236 80.948 92.4148C81.0459 92.306 81.1003 92.1755 81.1003 92.0341V89.9891C81.1003 89.826 81.0459 89.6954 80.948 89.5975C80.8501 89.4996 80.7196 89.4453 80.5564 89.4453Z" fill="#F85600"/>
<path d="M73.7689 76.2618H75.8791C76.0858 76.2618 76.2381 76.24 76.3577 76.1856C76.4774 76.1313 76.5862 76.0551 76.7058 75.9572L79.5992 73.5859C79.6754 73.5098 79.708 73.4228 79.708 73.3249C79.708 73.0312 79.5666 72.8898 79.2947 72.8898H76.249C76.0641 72.8898 75.9118 72.9115 75.8139 72.9659C75.716 73.0203 75.5854 73.1291 75.444 73.3031L73.5296 75.6309C73.4535 75.707 73.4208 75.7941 73.4208 75.9137C73.4208 76.1421 73.5405 76.2618 73.7689 76.2618Z" fill="#F85600"/>
<path d="M31.869 114.333C32.0321 114.333 32.1627 114.278 32.2606 114.17C32.3585 114.061 32.4129 113.93 32.4129 113.789V99.6483C32.4129 99.4851 32.3585 99.3546 32.2606 99.2567C32.1627 99.1588 32.0321 99.1044 31.869 99.1044H29.1496C29.0517 99.1044 28.9538 99.1044 28.8777 99.1371C28.8015 99.1588 28.7145 99.2023 28.6275 99.2567L23.6239 103.129C23.4825 103.216 23.3955 103.336 23.3737 103.488C23.3519 103.64 23.3737 103.782 23.4716 103.912L24.7551 105.587C24.853 105.718 24.9727 105.794 25.1141 105.827C25.2555 105.859 25.386 105.827 25.5166 105.718L28.497 103.434V113.789C28.497 113.93 28.5514 114.061 28.6601 114.17C28.7689 114.278 28.8994 114.333 29.0408 114.333H31.869Z" fill="#F85600"/>
<path d="M43.9321 114.104C44.6935 113.811 45.3244 113.397 45.8247 112.875C46.3251 112.353 46.7058 111.744 46.9778 111.048C47.2497 110.352 47.402 109.601 47.4455 108.807C47.4564 108.416 47.4672 107.97 47.4781 107.469C47.489 106.969 47.4781 106.458 47.4781 105.946C47.4781 105.435 47.4564 104.967 47.4455 104.565C47.402 103.771 47.2388 103.02 46.9669 102.335C46.6949 101.65 46.3034 101.041 45.7921 100.529C45.2809 100.018 44.65 99.6157 43.8886 99.322C43.1271 99.0283 42.2352 98.8869 41.2018 98.8869C40.1685 98.8869 39.2983 99.0283 38.5369 99.322C37.7754 99.6157 37.1337 100.018 36.6224 100.529C36.1112 101.041 35.7196 101.65 35.4477 102.335C35.1757 103.02 35.0234 103.771 34.9799 104.565C34.9691 104.967 34.9582 105.435 34.9473 105.946C34.9364 106.458 34.9473 106.969 34.9473 107.469C34.9473 107.97 34.9691 108.416 34.9799 108.807C35.0234 109.601 35.1757 110.352 35.4368 111.048C35.6978 111.744 36.0786 112.353 36.5898 112.875C37.101 113.397 37.7319 113.811 38.4933 114.104C39.2548 114.398 40.1576 114.55 41.2018 114.55C42.2461 114.55 43.1707 114.398 43.9321 114.104ZM41.2018 111.396C40.473 111.396 39.94 111.157 39.592 110.667C39.2439 110.178 39.059 109.525 39.0263 108.698C39.0263 108.274 39.0263 107.839 39.0263 107.371C39.0263 106.904 39.0263 106.447 39.0263 105.979C39.0263 105.511 39.0263 105.087 39.0263 104.695C39.059 103.901 39.2439 103.249 39.5811 102.759C39.9183 102.27 40.4622 102.009 41.2018 101.998C41.9524 102.009 42.5071 102.27 42.8443 102.759C43.1815 103.249 43.3664 103.901 43.3773 104.695C43.41 105.087 43.4208 105.511 43.4317 105.979C43.4426 106.447 43.4317 106.904 43.4317 107.371C43.4317 107.839 43.41 108.274 43.3773 108.698C43.3664 109.525 43.1815 110.178 42.8443 110.667C42.5071 111.157 41.9524 111.396 41.2018 111.396Z" fill="#F85600"/>
<path d="M63.1525 113.615L58.3664 106.545L62.7827 99.8223C62.8371 99.7462 62.8697 99.6592 62.8697 99.5613C62.8697 99.4416 62.8262 99.3437 62.7283 99.2458C62.6304 99.1479 62.5325 99.1044 62.4129 99.1044H59.4107C59.1931 99.1044 59.03 99.1588 58.9103 99.2676C58.7907 99.3764 58.7036 99.4743 58.6493 99.5613L56.0169 103.499L53.4281 99.5613C53.3737 99.4743 53.2867 99.3764 53.167 99.2676C53.0474 99.1588 52.8842 99.1044 52.6667 99.1044H49.5122C49.3817 99.1044 49.2729 99.1479 49.1859 99.2458C49.0989 99.3437 49.0553 99.4416 49.0553 99.5613C49.0553 99.6483 49.0771 99.7353 49.1206 99.8223L53.5151 106.566L48.7725 113.615C48.7725 113.615 48.7181 113.702 48.7073 113.745C48.6964 113.789 48.6855 113.832 48.6855 113.876C48.6855 113.996 48.729 114.094 48.8269 114.191C48.9248 114.289 49.0336 114.333 49.1641 114.333H52.2968C52.5144 114.333 52.6775 114.278 52.7972 114.17C52.9168 114.061 52.993 113.974 53.0365 113.898L55.8864 109.721L58.758 113.898C58.8015 113.974 58.8886 114.061 59.0082 114.17C59.1279 114.278 59.3019 114.333 59.5195 114.333H62.7609C62.8915 114.333 63.0002 114.289 63.0873 114.191C63.1743 114.094 63.2178 113.996 63.2178 113.876C63.2178 113.832 63.2178 113.789 63.2069 113.745C63.196 113.702 63.1852 113.658 63.1525 113.615Z" fill="#F85600"/>
<path d="M62.8697 34.8187V45.4895H68.7C69.7334 45.4895 70.5818 44.5975 70.5818 43.4989V26.6497H25.7776V30.6526H58.8015C61.0423 30.6526 62.8588 32.5236 62.8588 34.8187H62.8697Z" fill="white"/>
<path d="M70.5818 15.0435C70.5818 13.9449 69.7334 13.0529 68.7 13.0529H27.6594C26.6261 13.0529 25.7776 13.9449 25.7776 15.0435V18.2959H70.5709V15.0435H70.5818Z" fill="white"/>
<path d="M70.5709 20.4714H25.7776V24.4743H70.5709V20.4714Z" fill="white"/>
<path d="M17.7718 65.2647H58.8124C59.8458 65.2647 60.6942 64.3727 60.6942 63.2741V34.8187C60.6942 33.7201 59.8458 32.8281 58.8124 32.8281H17.7718C16.7385 32.8281 15.89 33.7201 15.89 34.8187V63.2741C15.89 64.3727 16.7385 65.2647 17.7718 65.2647ZM45.8574 40.1813C45.8574 39.0174 46.8037 38.0711 47.9676 38.0711H54.5811C55.745 38.0711 56.6804 39.0174 56.6804 40.1813V44.3256C56.6804 45.4895 55.7341 46.4358 54.5811 46.4358H47.9676C46.8037 46.4358 45.8574 45.4895 45.8574 44.3256V40.1813ZM22.2207 52.9079H34.5775C35.1757 52.9079 35.6652 53.3974 35.6652 53.9956C35.6652 54.5939 35.1757 55.0834 34.5775 55.0834H22.2207C21.6224 55.0834 21.1329 54.5939 21.1329 53.9956C21.1329 53.3974 21.6224 52.9079 22.2207 52.9079ZM22.2207 59.0863H44.4759C45.0742 59.0863 45.5637 59.5758 45.5637 60.174C45.5637 60.7723 45.0742 61.2618 44.4759 61.2618H22.2207C21.6224 61.2618 21.1329 60.7723 21.1329 60.174C21.1329 59.5758 21.6224 59.0863 22.2207 59.0863Z" fill="white"/>
<path d="M47.9567 38.0711H54.5702C55.7341 38.0711 56.6696 39.0174 56.6696 40.1704V44.3147C56.6696 45.4786 55.7232 46.4249 54.5593 46.4249H47.9458C46.782 46.4249 45.8356 45.4786 45.8356 44.3147V40.1704C45.8356 39.0065 46.782 38.0602 47.9458 38.0602L47.9567 38.0711Z" fill="#F85600"/>
<path d="M22.2207 61.2618H44.4759C45.0742 61.2618 45.5637 60.7723 45.5637 60.174C45.5637 59.5758 45.0742 59.0863 44.4759 59.0863H22.2207C21.6224 59.0863 21.1329 59.5758 21.1329 60.174C21.1329 60.7723 21.6224 61.2618 22.2207 61.2618Z" fill="#F85600"/>
<path d="M22.2207 55.0834H34.5775C35.1757 55.0834 35.6652 54.5939 35.6652 53.9956C35.6652 53.3974 35.1757 52.9079 34.5775 52.9079H22.2207C21.6224 52.9079 21.1329 53.3974 21.1329 53.9956C21.1329 54.5939 21.6224 55.0834 22.2207 55.0834Z" fill="#F85600"/>
<path d="M17.7718 67.4402H58.8124C61.0532 67.4402 62.8697 65.5693 62.8697 63.2741V47.665H68.7C70.9408 47.665 72.7573 45.7941 72.7573 43.4989V15.0435C72.7573 12.7484 70.9408 10.8774 68.7 10.8774H27.6594C25.4187 10.8774 23.6021 12.7484 23.6021 15.0435V30.6526H17.7718C15.5311 30.6526 13.7145 32.5236 13.7145 34.8187V63.2741C13.7145 65.5693 15.5311 67.4402 17.7718 67.4402ZM25.7776 15.0435C25.7776 13.9449 26.6261 13.0529 27.6594 13.0529H68.7C69.7334 13.0529 70.5818 13.9449 70.5818 15.0435L70.5818 18.2959H25.7776V15.0435ZM25.7776 20.4714H70.5709V24.4743H25.7776V20.4714ZM25.7776 26.6497H70.5709V43.4989C70.5709 44.5975 69.7225 45.4895 68.6891 45.4895H62.8588L62.8588 34.8187C62.8588 32.5236 61.0423 30.6526 58.8015 30.6526H25.7776V26.6497ZM15.89 34.8187C15.89 33.7201 16.7385 32.8281 17.7718 32.8281H58.8124C59.8458 32.8281 60.6942 33.7201 60.6942 34.8187V63.2741C60.6942 64.3727 59.8458 65.2647 58.8124 65.2647H17.7718C16.7385 65.2647 15.89 64.3727 15.89 63.2741V34.8187Z" fill="#FFA901"/>
<path d="M71.6369 55.2683C71.6369 55.2683 70.9517 55.1051 71.0713 55.1487C70.5601 54.9746 70.1032 54.7571 69.5811 54.6918C67.9821 54.2458 66.0024 55.6708 66.4701 57.6505C66.3396 57.1066 66.6877 58.6512 66.8073 58.8579C67.014 59.2277 67.3186 59.6302 67.6123 59.9239C68.0691 60.3916 68.7109 60.7288 69.3092 60.9898C69.9944 61.2944 70.7015 61.5664 71.4085 61.8165C71.5064 61.8492 71.724 61.9253 71.8001 61.9471C72.0285 62.0667 72.4745 62.3169 72.0938 62.0232C72.605 62.4148 73.1706 62.6867 73.7472 62.8173C74.9002 63.1001 76.0967 62.8173 76.956 61.6751C78.2613 59.9674 77.5434 58.0638 75.9988 56.8999C75.9227 56.8455 75.8356 56.802 75.7595 56.7476C74.7696 56.0732 73.584 55.6817 72.4201 55.4315C72.159 55.3771 71.898 55.3336 71.6478 55.2683H71.6369Z" fill="#FFA901"/>
<path d="M81.9596 39.7462C81.9596 39.7462 81.9488 39.7462 81.9379 39.7571C81.9379 39.7571 81.9161 39.7571 81.9052 39.7571C81.481 39.855 81.0568 40.0181 80.6543 40.1595C79.2185 40.6599 78.1199 41.3343 77.2388 42.5961C75.8465 44.5867 78.2178 47.4692 80.4259 46.7513C81.4158 46.4249 82.4274 46.2509 83.4172 46.0225C84.3527 45.8049 85.2773 45.533 86.1366 45.0435C87.9205 44.0319 88.3447 41.6715 87.1373 40.0725C86.278 38.9413 84.8965 38.5497 83.6348 38.8651C83.0691 39.0065 82.5361 39.2785 82.0793 39.7136C82.6667 39.1588 82.1772 39.6157 81.9596 39.7462Z" fill="#FFA901"/>
<path d="M96.1656 54.2893C96.035 54.1479 95.8936 54.0174 95.7631 53.876C94.8168 52.9188 93.3048 52.7447 92.13 53.3865C91.2707 53.8542 90.5311 54.496 89.7696 55.0943C89.8023 55.0616 89.3781 55.3771 89.3237 55.4097C89.1387 55.5294 88.9538 55.649 88.758 55.7578C88.6384 55.8339 88.5187 55.8992 88.3991 55.9645C87.1047 56.1494 86.1148 57.1066 85.919 58.4228C85.7341 59.7281 86.6152 61.3053 88.0075 61.5555C90.357 61.9797 92.8371 60.7832 94.6754 59.2059C95.4912 59.0102 96.2526 58.4445 96.6333 57.781C97.2751 56.6606 97.0466 55.2139 96.1656 54.3002V54.2893Z" fill="#FFA901"/>
</svg>
