<svg width="83" height="120" viewBox="0 0 83 120" fill="none" xmlns="http://www.w3.org/2000/svg">
<path d="M53.1604 62.1615C53.1604 62.1615 53.2255 62.1615 53.2581 62.1832L53.2364 61.4888C52.9218 61.4888 52.4986 61.4888 51.9996 61.4888C51.9996 61.4888 52.0104 61.5105 52.0213 61.5213C52.325 61.8794 52.6722 62.0747 53.1604 62.1832V62.1615Z" fill="#EF6124"/>
<path d="M16.4675 62.769C19.3535 65.3838 27.8703 63.6261 29.552 63.2464C33.1215 62.4436 35.9749 62.2591 38.4052 62.6822C38.1882 62.769 38.058 62.8992 38.058 63.0403C38.058 63.3115 38.5571 63.5285 39.1646 63.5285C39.7071 63.5285 40.1302 63.3549 40.2387 63.1271C40.6836 63.279 41.1284 63.4417 41.5515 63.6478C45.338 65.438 51.1099 65.579 52.8458 65.579C53.1279 65.579 53.3015 65.579 53.3449 65.579L53.3232 64.6894C53.0737 64.6568 52.835 64.6134 52.618 64.57C51.609 64.3314 50.8604 63.9082 50.1768 63.1271C49.7754 62.6714 49.3848 62.053 49.016 61.2827C47.0305 61.0765 44.8498 60.6751 43.3091 59.9482C40.7812 58.7547 38.0254 58.234 34.7489 58.375C33.8375 58.1038 32.8936 57.8434 31.9497 57.6047C31.9714 57.5613 31.9931 57.5179 31.9931 57.4636C31.9931 57.1056 31.5049 56.8127 30.8973 56.8127C30.4742 56.8127 30.1162 56.9646 29.9317 57.1707C28.9444 56.9863 28.0114 56.8561 27.176 56.8235V55.4565H23.5305C18.9304 55.4565 15.8383 57.2467 15.4694 60.1218C15.3392 61.1199 15.7081 62.0855 16.4675 62.769Z" fill="#EF6124"/>
<path d="M39.1646 57.366C39.1646 57.5721 39.5769 57.7349 40.0977 57.7349C40.6185 57.7349 41.0307 57.5721 41.0307 57.366C41.0307 57.1599 40.6185 56.9971 40.0977 56.9971C39.5769 56.9971 39.1646 57.1599 39.1646 57.366Z" fill="#EF6124"/>
<path d="M34.0871 55.348C34.597 55.348 35.0201 55.1853 35.0201 54.99C35.0201 54.7947 34.6079 54.6319 34.0871 54.6319C33.5663 54.6319 33.154 54.7947 33.154 54.99C33.154 55.1853 33.5663 55.348 34.0871 55.348Z" fill="#EF6124"/>
<path d="M36.1593 57.5613C36.6042 57.5613 36.9622 57.4202 36.9622 57.2467C36.9622 57.0731 36.6042 56.932 36.1593 56.932C35.7145 56.932 35.3565 57.0731 35.3565 57.2467C35.3565 57.4202 35.7145 57.5613 36.1593 57.5613Z" fill="#EF6124"/>
<path d="M46.1083 57.6589C46.1083 57.4094 45.6743 57.2033 45.1427 57.2033C44.6111 57.2033 44.1771 57.4094 44.1771 57.6589C44.1771 57.9085 44.6111 58.1146 45.1427 58.1146C45.6743 58.1146 46.1083 57.9085 46.1083 57.6589Z" fill="#EF6124"/>
<path d="M69.1851 66.6314C68.4908 66.6314 67.9266 66.9027 67.9266 67.2282C67.9266 67.5536 68.4908 67.8249 69.1851 67.8249C69.8795 67.8249 70.4437 67.5536 70.4437 67.2282C70.4437 66.9027 69.8795 66.6314 69.1851 66.6314Z" fill="#EF6124"/>
<path d="M56.8059 66.6314C55.8077 66.6314 55.0049 67.0112 55.0049 67.4886C55.0049 67.9659 55.8077 68.3457 56.8059 68.3457C57.804 68.3457 58.6069 67.9551 58.6069 67.4886C58.6069 67.022 57.804 66.6314 56.8059 66.6314Z" fill="#EF6124"/>
<path d="M34.7598 64.8413C35.4009 64.8413 35.9206 64.5498 35.9206 64.1903C35.9206 63.8308 35.4009 63.5393 34.7598 63.5393C34.1186 63.5393 33.5989 63.8308 33.5989 64.1903C33.5989 64.5498 34.1186 64.8413 34.7598 64.8413Z" fill="#EF6124"/>
<path d="M20.2649 64.7762C19.2667 64.7762 18.453 65.0366 18.453 65.3729C18.453 65.7092 19.2667 65.9696 20.2649 65.9696C21.263 65.9696 22.0767 65.7092 22.0767 65.3729C22.0767 65.0366 21.263 64.7762 20.2649 64.7762Z" fill="#EF6124"/>
<path d="M14.6123 58.1255C15.1114 58.1255 15.5236 57.8976 15.5236 57.6264C15.5236 57.3551 15.1114 57.1273 14.6123 57.1273C14.1132 57.1273 13.7009 57.3551 13.7009 57.6264C13.7009 57.8976 14.1132 58.1255 14.6123 58.1255Z" fill="#EF6124"/>
<path d="M12.8547 62.3025C13.6033 62.3025 14.2 61.9987 14.2 61.6298C14.2 61.261 13.5924 60.9572 12.8547 60.9572C12.1169 60.9572 11.5093 61.261 11.5093 61.6298C11.5093 61.9987 12.1169 62.3025 12.8547 62.3025Z" fill="#EF6124"/>
<path d="M29.4001 63.5719C28.901 63.5719 28.4888 63.8431 28.4888 64.1903C28.4888 64.5375 28.901 64.8087 29.4001 64.8087C29.8992 64.8087 30.3115 64.5375 30.3115 64.1903C30.3115 63.8431 29.8992 63.5719 29.4001 63.5719Z" fill="#EF6124"/>
<path d="M45.6635 66.1541C45.6635 65.872 45.1861 65.6441 44.6111 65.6441C44.036 65.6441 43.5587 65.872 43.5587 66.1541C43.5587 66.4362 44.036 66.664 44.6111 66.664C45.1861 66.664 45.6635 66.4362 45.6635 66.1541Z" fill="#EF6124"/>
<path d="M42.3869 54.5234C42.3869 54.2414 41.66 54.0135 40.7704 54.0135C39.8807 54.0135 39.1538 54.2414 39.1538 54.5234C39.1538 54.8055 39.8807 55.0334 40.7704 55.0334C41.66 55.0334 42.3869 54.8055 42.3869 54.5234Z" fill="#EF6124"/>
<path d="M54.1152 27.8446C54.1912 27.0092 54.2346 26.0544 54.0393 25.2299C53.9091 24.6765 53.3557 24.3294 52.8024 24.4596C52.2491 24.5898 51.9019 25.1431 52.0321 25.6964C52.1731 26.2931 52.1189 27.0526 52.0647 27.6602C51.9779 28.6041 52.2274 29.4069 52.6831 30.0362C53.4968 31.1428 54.9289 31.5985 56.2634 31.349C57.1748 31.1754 58.0861 30.6763 58.7696 29.7866C59.1168 29.3418 59.03 28.6909 58.5852 28.3437C58.1404 27.9965 57.4894 28.0833 57.1422 28.5281C56.795 28.9838 56.3393 29.2333 55.8837 29.3201C55.3303 29.4286 54.6902 29.2767 54.343 28.8102C54.1695 28.5715 54.0718 28.246 54.1152 27.8446Z" fill="#00DCE9"/>
<path d="M52.6071 64.5701C52.8241 64.6243 53.0628 64.6568 53.3123 64.6894C54.0176 64.7762 54.8313 64.8087 55.862 64.8196C59.388 64.863 62.8707 65.5248 66.3751 65.6333C67.7638 65.6767 68.8379 65.4814 69.6516 65.1125C71.1163 64.4399 71.8541 63.062 71.7781 61.478C71.7131 60.0675 70.9427 58.9066 69.5974 58.4293C69.2502 58.2991 68.8488 58.2231 68.404 58.1906C67.8398 57.6264 67.3407 57.1707 66.7548 56.7801C66.0822 56.3353 65.3553 55.999 64.3571 55.7169C63.5217 55.0442 62.8707 54.5885 62.2306 54.2088C61.7207 53.905 61.1999 53.6555 60.5706 53.3842C60.5381 52.6248 60.5381 51.4747 60.7225 50.8129C60.7985 50.5634 60.9395 50.1837 61.1131 49.7171C61.8075 47.8836 62.9684 44.7915 63.0877 41.3522C63.1203 40.5276 63.1203 39.7031 63.1311 38.9111C63.1528 35.8407 63.1745 33.2042 64.5849 30.1881C65.4746 28.2677 66.0171 26.5861 66.5378 24.503C67.6445 20.0113 70.3569 15.5087 71.3008 13.9139L71.5829 13.4365C71.9192 12.8398 71.713 12.0912 71.1272 11.7548C70.5304 11.4185 69.7818 11.6246 69.4455 12.2105C69.3153 12.4383 69.2611 12.5251 69.1851 12.6553C68.187 14.3262 65.3336 19.0674 64.1401 23.9171C63.6627 25.8591 63.1745 27.3672 62.35 29.1465C60.7225 32.6292 60.7008 35.526 60.6791 38.9002C60.6791 39.6488 60.6683 40.43 60.6357 41.2871C60.5381 44.3141 59.4531 47.1675 58.813 48.86C58.6069 49.4025 58.4441 49.8365 58.3573 50.1511C57.9885 51.4313 58.1078 53.547 58.1404 54.1437C58.1729 54.6862 58.3573 55.1419 58.9107 55.3697C59.7569 55.7169 60.3753 55.999 60.9829 56.357C61.5796 56.7042 62.1655 57.1273 62.9575 57.7674C63.0986 57.8976 63.2722 57.9953 63.4674 58.0387C64.3137 58.2665 64.8887 58.5052 65.3878 58.8415C65.8869 59.167 66.3426 59.6227 66.9176 60.2194C67.1997 60.5123 67.4926 60.6751 67.9157 60.6534C68.2629 60.6425 68.545 60.6751 68.7511 60.751C69.1309 60.8921 69.2828 61.1959 69.3045 61.5864C69.3262 62.1615 69.1526 62.6171 68.6101 62.8667C68.1327 63.0837 67.4275 63.1922 66.4402 63.1596C62.9141 63.0511 59.4423 62.4002 55.8837 62.3459C54.7228 62.3351 53.8874 62.3025 53.2472 62.1615C53.2147 62.1615 53.1822 62.1615 53.1496 62.1398C52.6722 62.0313 52.325 61.836 52.0104 61.478C52.0104 61.478 51.9996 61.4563 51.9887 61.4454C51.5547 60.9355 51.1099 60.1543 50.7302 58.9826C50.383 57.9085 50.1009 56.5523 49.9382 54.8381C49.6778 52.0823 49.298 49.0445 48.3324 45.8873C47.3668 42.6975 45.8045 39.421 43.2115 36.2746C41.8119 34.5713 40.5859 32.4339 40.1302 30.3291C39.7939 28.7559 39.8915 27.2045 40.7378 25.9459C42.7341 22.9623 44.9149 22.8755 46.7484 22.7996C49.1136 22.7128 51.0774 22.6368 52.184 19.3495C53.1713 16.4418 54.6794 12.4926 54.6794 12.4817C54.9181 11.8416 54.5817 11.1364 53.9416 10.8977C53.3015 10.659 52.5963 10.9954 52.3576 11.6355C52.3576 11.6463 50.8821 15.487 49.8405 18.5574C49.2655 20.2391 48.0829 20.2825 46.6508 20.3368C44.2422 20.4344 41.3779 20.5429 38.6764 24.5681C37.4179 26.4559 37.2226 28.6475 37.7 30.839C38.2424 33.3453 39.6746 35.8624 41.302 37.8261C43.6672 40.7012 45.0884 43.6848 45.9673 46.5925C46.8569 49.5327 47.2258 52.4295 47.4753 55.0659C47.6598 56.9754 47.9744 58.5052 48.3758 59.7312C48.5603 60.3062 48.7664 60.7944 48.9834 61.2501C49.3523 62.0204 49.7429 62.6388 50.1443 63.0945C50.8278 63.8757 51.5656 64.2988 52.5854 64.5375L52.6071 64.5701Z" fill="#00DCE9"/>
<path d="M20.2974 84.1099C20.6663 83.7953 20.8507 83.3071 20.8507 82.6561C20.8507 82.1028 20.688 81.6471 20.3734 81.2674C20.0587 80.8877 19.5379 80.7032 18.811 80.7032H16.2723V84.5873H18.811C19.4295 84.5873 19.9285 84.4246 20.2974 84.1099Z" fill="white"/>
<path d="M65.2902 87.0827H69.3262L67.3082 81.3542L65.2902 87.0827Z" fill="white"/>
<path d="M15.1982 108.782H19.2342L17.2162 103.053L15.1982 108.782Z" fill="white"/>
<path d="M32.9045 102.402H30.4091V106.134H32.9045C33.588 106.134 34.0979 105.972 34.4343 105.635C34.7706 105.299 34.9442 104.854 34.9442 104.29C34.9442 103.726 34.7815 103.27 34.456 102.923C34.1305 102.576 33.6097 102.402 32.9045 102.402Z" fill="white"/>
<path d="M76.2264 98.2468C76.2047 98.1709 76.1613 98.0949 76.1288 98.019C77.0401 97.7369 77.8755 97.2703 78.5699 96.576C79.6874 95.4585 80.295 93.983 80.295 92.4206C80.295 91.6829 80.1539 90.9451 79.8827 90.2616L75.1306 77.2314C78.6242 75.387 81.011 71.9694 81.2497 67.9008C82.2262 65.796 82.7144 63.4417 82.6059 61.0006C82.3455 55.3154 78.8303 50.4006 73.6009 48.3609C73.4273 48.2307 73.2428 48.0897 73.0475 47.9595C73.4924 46.1151 73.8395 44.0103 73.9155 41.7319C73.948 40.864 73.9589 40.0068 73.9589 39.1714V39.0195C73.9806 36.3506 74.0348 35.5694 74.4037 34.7883C75.5321 32.3688 76.3241 30.0796 77.051 27.1177C77.5284 25.1865 78.7218 22.626 80.5879 19.5122L80.87 19.0348C80.9134 18.9697 80.9459 18.9046 80.9893 18.8395C84.2984 13.0568 82.2804 5.65743 76.4977 2.34834C71.8541 -0.309781 66.169 0.471381 62.3934 3.87811C61.1348 2.52193 59.5508 1.43698 57.6955 0.742618C54.6685 -0.364028 51.3811 -0.233835 48.4518 1.1332C45.5441 2.47853 43.3308 4.87627 42.2133 7.87072C42.0614 8.2613 41.7577 9.07501 41.3671 10.1057C37.8085 10.9411 33.3819 13.0459 29.6822 18.5683C26.8939 22.7345 25.9825 27.9205 27.1109 33.1717C27.1868 33.508 27.2736 33.8444 27.3604 34.1807C27.8269 33.8118 28.3043 33.4646 28.8251 33.1825C29.9968 32.5533 31.4941 32.7269 32.4488 33.6708C32.5899 33.801 32.7201 33.942 32.8502 34.083C33.7399 34.9944 33.9569 36.4374 33.3168 37.5549C32.937 38.2275 32.1776 38.7809 31.3639 38.9762C30.8756 39.3884 30.344 39.779 29.7798 40.1153C30.5068 41.4281 31.3313 42.6975 32.2644 43.9127C31.1469 44.0645 30.0945 44.3683 29.1072 44.7915C28.4671 44.6721 27.8161 44.607 27.1434 44.607H23.498C20.0479 44.607 17.0968 45.2363 14.6014 46.2778C14.6014 46.2778 14.5906 46.2778 14.5797 46.2778C9.16585 46.2778 4.71757 49.6412 3.29629 54.3607C1.62547 56.3353 0.627319 58.8524 0.627319 61.6298C0.627319 67.239 4.67417 71.7741 10.2074 72.8807C9.61068 73.1628 9.05736 73.5317 8.57998 74.0091C7.45164 75.1374 6.83322 76.6347 6.83322 78.2404V92.3447C6.83322 93.8745 7.40824 95.3283 8.41724 96.4024C8.84037 96.8581 9.32859 97.2487 9.87107 97.5416C9.76257 97.7694 9.66493 98.0081 9.57813 98.2468L4.52228 112.069C4.45718 112.232 4.41378 112.405 4.37039 112.568C4.24019 113.067 4.1751 113.588 4.1751 114.12C4.1751 115.682 4.79352 117.157 5.90016 118.275C7.01766 119.392 8.49318 120 10.0555 120H12.7245C14.4604 120 16.0444 119.349 17.1728 118.145C17.1945 118.177 17.227 118.199 17.2487 118.221C18.3771 119.36 19.9177 119.989 21.5885 119.989H24.2575C24.7131 119.989 25.158 119.924 25.5919 119.826C26.0476 119.935 26.5142 119.989 26.9915 119.989H29.7907C30.8648 119.989 31.8955 119.707 32.796 119.186C33.7291 119.707 34.7923 119.989 35.9315 119.989H38.8175C39.3491 119.989 39.859 119.891 40.3581 119.761C40.8789 119.913 41.4322 119.989 41.9855 119.989H52.2925C52.9109 119.989 53.5076 119.902 54.0718 119.718C54.636 119.891 55.2327 119.989 55.8511 119.989H58.7588C59.2253 119.989 59.681 119.924 60.1258 119.816C60.5598 119.924 61.0046 119.989 61.4711 119.989H64.1401C65.876 119.989 67.4601 119.338 68.5884 118.134C68.6101 118.166 68.6426 118.188 68.6643 118.21C69.7927 119.349 71.3333 119.978 73.0041 119.978H75.6731C77.2463 119.978 78.7327 119.36 79.8393 118.253C80.9568 117.136 81.5644 115.66 81.5644 114.098C81.5644 113.36 81.4233 112.622 81.1521 111.939L76.1505 98.2251L76.2264 98.2468ZM55.9054 114.575C55.7426 114.575 55.6124 114.521 55.5148 114.413C55.4171 114.304 55.3629 114.174 55.3629 114.033V99.9285C55.3629 99.7657 55.4171 99.6355 55.5148 99.5379C55.6124 99.4402 55.7426 99.386 55.9054 99.386H58.813C58.9758 99.386 59.106 99.4402 59.2145 99.5379C59.323 99.6355 59.3772 99.7657 59.3772 99.9285V114.033C59.3772 114.174 59.323 114.304 59.2145 114.413C59.106 114.521 58.9758 114.575 58.813 114.575H55.9054ZM33.6097 64.1903C33.6097 63.8323 34.1305 63.5393 34.7706 63.5393C35.4107 63.5393 35.9315 63.8323 35.9315 64.1903C35.9315 64.5483 35.4107 64.8413 34.7706 64.8413C34.1305 64.8413 33.6097 64.5483 33.6097 64.1903ZM43.5478 66.1541C43.5478 65.872 44.0252 65.6441 44.6002 65.6441C45.1752 65.6441 45.6526 65.872 45.6526 66.1541C45.6526 66.4362 45.1752 66.664 44.6002 66.664C44.0252 66.664 43.5478 66.4362 43.5478 66.1541ZM69.1851 67.8249C68.4908 67.8249 67.9266 67.5536 67.9266 67.2282C67.9266 66.9027 68.4908 66.6314 69.1851 66.6314C69.8795 66.6314 70.4437 66.9027 70.4437 67.2282C70.4437 67.5536 69.8795 67.8249 69.1851 67.8249ZM32.7201 73.6511C32.8611 73.4775 32.9913 73.369 33.0889 73.3147C33.1866 73.2605 33.3385 73.2388 33.5229 73.2388H36.5608C36.832 73.2388 36.973 73.3798 36.973 73.6728C36.973 73.7704 36.9405 73.8572 36.8645 73.9331L33.9786 76.2983C33.8592 76.396 33.7508 76.4719 33.6314 76.5262C33.5121 76.5804 33.3602 76.6021 33.154 76.6021H31.0492C30.8214 76.6021 30.7021 76.4828 30.7021 76.2549C30.7021 76.1356 30.7346 76.0488 30.8105 75.9728L32.7201 73.6511ZM58.021 92.3121C58.021 92.4749 57.9668 92.6051 57.8691 92.7136C57.7715 92.8221 57.6413 92.8763 57.4785 92.8763H55.1568C54.9289 92.8763 54.7553 92.8221 54.6468 92.7027C54.5383 92.5834 54.4732 92.5074 54.4407 92.464L49.1461 84.4354V92.3338C49.1461 92.4749 49.0919 92.6051 48.9943 92.7136C48.8966 92.8221 48.7664 92.8763 48.6037 92.8763H45.9998C45.8371 92.8763 45.7069 92.8221 45.6092 92.7136C45.5116 92.6051 45.4573 92.4749 45.4573 92.3338V78.2295C45.4573 78.0668 45.5116 77.9366 45.6092 77.839C45.7069 77.7413 45.8371 77.6871 45.9998 77.6871H48.2999C48.5494 77.6871 48.723 77.7413 48.8315 77.8498C48.94 77.9583 49.0051 78.0451 49.0377 78.0993L54.3322 86.4317V78.2295C54.3322 78.0668 54.3864 77.9366 54.4841 77.839C54.5817 77.7413 54.7119 77.6871 54.8747 77.6871H57.4785C57.6413 77.6871 57.7715 77.7413 57.8691 77.839C57.9668 77.9366 58.021 78.0668 58.021 78.2295V92.3121ZM26.9698 78.2295C26.9698 78.0668 27.0241 77.9366 27.1217 77.839C27.2194 77.7413 27.3496 77.6871 27.5123 77.6871H37.6457C37.8085 77.6871 37.9386 77.7413 38.0363 77.839C38.1339 77.9366 38.1882 78.0668 38.1882 78.2295V80.2692C38.1882 80.432 38.1339 80.5622 38.0363 80.6598C37.9386 80.7575 37.8085 80.8117 37.6457 80.8117H30.7237V83.7411H37.1683C37.3311 83.7411 37.4613 83.7953 37.5589 83.9038C37.6566 84.0123 37.7108 84.1425 37.7108 84.3052V86.193C37.7108 86.3341 37.6566 86.4643 37.5589 86.5728C37.4613 86.6813 37.3311 86.7355 37.1683 86.7355H30.7237V89.7517H37.8193C37.982 89.7517 38.1122 89.8059 38.2099 89.9036C38.3075 90.0012 38.3618 90.1314 38.3618 90.2942V92.3338C38.3618 92.4749 38.3075 92.6051 38.2099 92.7136C38.1122 92.8221 37.982 92.8763 37.8193 92.8763H27.5123C27.3496 92.8763 27.2194 92.8221 27.1217 92.7136C27.0241 92.6051 26.9698 92.4749 26.9698 92.3338V78.2295ZM56.8059 68.3565C55.8077 68.3565 55.0049 67.9659 55.0049 67.4994C55.0049 67.0329 55.8077 66.6423 56.8059 66.6423C57.804 66.6423 58.6069 67.022 58.6069 67.4994C58.6069 67.9768 57.804 68.3565 56.8059 68.3565ZM29.4001 64.7979C28.901 64.7979 28.4888 64.5266 28.4888 64.1795C28.4888 63.8323 28.901 63.561 29.4001 63.561C29.8992 63.561 30.3115 63.8323 30.3115 64.1795C30.3115 64.5266 29.8992 64.7979 29.4001 64.7979ZM20.2649 65.9696C19.2667 65.9696 18.453 65.7092 18.453 65.3729C18.453 65.0366 19.2667 64.7762 20.2649 64.7762C21.263 64.7762 22.0767 65.0366 22.0767 65.3729C22.0767 65.7092 21.263 65.9696 20.2649 65.9696ZM12.3013 78.2295C12.3013 78.0668 12.3556 77.9366 12.4532 77.839C12.5509 77.7413 12.6811 77.6871 12.8438 77.6871H18.9195C20.1238 77.6871 21.1654 77.8715 22.055 78.2404C22.9447 78.6093 23.639 79.1626 24.1381 79.9004C24.6372 80.6381 24.8867 81.5712 24.8867 82.6995C24.8867 83.8279 24.6372 84.7284 24.1381 85.4553C23.639 86.1822 22.9447 86.7138 22.055 87.061C21.1654 87.4082 20.1238 87.5818 18.9195 87.5818H16.3374V92.3338C16.3374 92.4749 16.2831 92.6051 16.1746 92.7136C16.0661 92.8221 15.9359 92.8763 15.7732 92.8763H12.8438C12.6811 92.8763 12.5509 92.8221 12.4532 92.7136C12.3556 92.6051 12.3013 92.4749 12.3013 92.3338V78.2295ZM21.6427 93.3971C21.7404 93.9179 21.914 94.4169 22.1418 94.8943C21.8814 94.7424 21.6102 94.6122 21.339 94.4929C21.48 94.1349 21.5776 93.7768 21.6427 93.3971ZM41.4973 99.9285C41.4973 99.7657 41.5515 99.6355 41.6492 99.5379C41.7468 99.4402 41.877 99.386 42.0397 99.386H52.1731C52.3359 99.386 52.4661 99.4402 52.5637 99.5379C52.6614 99.6355 52.7156 99.7657 52.7156 99.9285V101.968C52.7156 102.131 52.6614 102.261 52.5637 102.359C52.4661 102.456 52.3359 102.511 52.1731 102.511H45.2512V105.44H51.6958C51.8585 105.44 51.9887 105.494 52.0864 105.603C52.184 105.711 52.2382 105.841 52.2382 106.004V107.892C52.2382 108.033 52.184 108.163 52.0864 108.272C51.9887 108.38 51.8585 108.434 51.6958 108.434H45.2512V111.451H52.3467C52.5095 111.451 52.6397 111.505 52.7373 111.603C52.835 111.7 52.8892 111.83 52.8892 111.993V114.033C52.8892 114.174 52.835 114.304 52.7373 114.413C52.6397 114.521 52.5095 114.575 52.3467 114.575H42.0397C41.877 114.575 41.7468 114.521 41.6492 114.413C41.5515 114.304 41.4973 114.174 41.4973 114.033V99.9285ZM74.8377 92.2253C74.8702 92.2796 74.8811 92.3447 74.8811 92.4206C74.8811 92.54 74.8377 92.6376 74.74 92.7353C74.6424 92.8329 74.5339 92.8763 74.4037 92.8763H71.7347C71.5178 92.8763 71.355 92.8221 71.2465 92.7136C71.138 92.6051 71.0729 92.5074 71.0404 92.4206L70.1941 90.2074H64.4005L63.5759 92.4206C63.5434 92.5074 63.4783 92.6051 63.3807 92.7136C63.283 92.8221 63.1094 92.8763 62.8599 92.8763H60.1909C60.0716 92.8763 59.9739 92.8329 59.8763 92.7353C59.7786 92.6376 59.7352 92.54 59.7352 92.4206C59.7352 92.3447 59.7352 92.2796 59.7569 92.2253L64.8562 78.2946C64.8996 78.1319 64.9864 77.9908 65.1274 77.8715C65.2685 77.7522 65.4529 77.6871 65.7024 77.6871H68.9139C69.1634 77.6871 69.3479 77.7522 69.4889 77.8715C69.6299 77.9908 69.7167 78.1319 69.7601 78.2946L74.8377 92.2253ZM55.8837 29.331C56.3393 29.2442 56.7842 28.9838 57.1422 28.539C57.4894 28.0941 58.1295 28.0073 58.5852 28.3545C59.03 28.7017 59.1168 29.3418 58.7696 29.7975C58.0861 30.6763 57.1856 31.1862 56.2634 31.3598C54.9289 31.6094 53.5076 31.1537 52.6831 30.047C52.2274 29.4286 51.9779 28.6258 52.0647 27.671C52.1189 27.0634 52.1731 26.304 52.0321 25.7072C51.9019 25.1539 52.2491 24.6006 52.8024 24.4704C53.3557 24.3402 53.9091 24.6874 54.0393 25.2407C54.2346 26.0653 54.1912 27.0092 54.1152 27.8554C54.0827 28.2569 54.1695 28.5932 54.343 28.821C54.6902 29.2876 55.3303 29.4395 55.8837 29.331ZM36.1593 56.9429C36.6042 56.9429 36.9622 57.0839 36.9622 57.2575C36.9622 57.4311 36.6042 57.5721 36.1593 57.5721C35.7145 57.5721 35.3565 57.4311 35.3565 57.2575C35.3565 57.0839 35.7145 56.9429 36.1593 56.9429ZM34.0871 54.6211C34.597 54.6211 35.0201 54.7838 35.0201 54.9791C35.0201 55.1744 34.6079 55.3371 34.0871 55.3371C33.5663 55.3371 33.154 55.1744 33.154 54.9791C33.154 54.7838 33.5663 54.6211 34.0871 54.6211ZM23.5305 55.4565H27.176V56.8235C28.0114 56.8669 28.9444 56.9863 29.9317 57.1707C30.1162 56.9646 30.4742 56.8127 30.8973 56.8127C31.5049 56.8127 31.9931 57.1056 31.9931 57.4636C31.9931 57.5179 31.9606 57.5613 31.9497 57.6047C32.8936 57.8325 33.8375 58.1038 34.7489 58.375C38.0146 58.234 40.7812 58.7439 43.3091 59.9482C44.8498 60.6751 47.0305 61.0765 49.016 61.2827C48.799 60.827 48.5928 60.3388 48.4084 59.7637C48.0178 58.5377 47.6923 57.008 47.5079 55.0985C47.2583 52.462 46.9003 49.5652 45.9998 46.625C45.121 43.7174 43.6997 40.7338 41.3345 37.8587C39.7071 35.8841 38.275 33.3778 37.7325 30.8716C37.2551 28.68 37.4504 26.4884 38.709 24.6006C41.4105 20.5754 44.2747 20.4561 46.6833 20.3693C48.1154 20.3151 49.298 20.2717 49.8731 18.59C50.9146 15.5196 52.3901 11.6789 52.3901 11.668C52.6288 11.0279 53.334 10.7024 53.9742 10.9303C54.6143 11.169 54.9398 11.8742 54.7119 12.5143C54.7119 12.5143 53.2038 16.4743 52.2165 19.382C51.0991 22.6694 49.1353 22.7453 46.781 22.8321C44.9474 22.8972 42.7667 22.984 40.7704 25.9785C39.9241 27.237 39.8156 28.7776 40.1628 30.3617C40.6185 32.4665 41.8445 34.6147 43.244 36.3072C45.8479 39.4644 47.3994 42.7301 48.365 45.9198C49.3306 49.077 49.7103 52.1149 49.9707 54.8706C50.1334 56.5848 50.4155 57.941 50.7627 59.0151C51.1424 60.1869 51.5873 60.9789 52.0213 61.4779C52.5203 61.4888 52.9435 61.4888 53.2581 61.4779L53.2798 62.1723C53.9091 62.3025 54.7553 62.3351 55.9162 62.3568C59.4748 62.4002 62.9467 63.062 66.4727 63.1705C67.4601 63.203 68.1761 63.0945 68.6426 62.8775C69.1851 62.628 69.3696 62.1615 69.337 61.5973C69.3153 61.2067 69.1634 60.8921 68.7837 60.7619C68.5776 60.6859 68.3063 60.6534 67.9483 60.6642C67.5251 60.6859 67.2322 60.5123 66.9501 60.2303C66.3751 59.6335 65.9086 59.1887 65.4203 58.8524C64.9213 58.5269 64.3463 58.2774 63.5 58.0495C63.3047 57.9953 63.1311 57.8976 62.9901 57.7783C62.1981 57.1382 61.6122 56.715 61.0155 56.3678C60.397 56.0098 59.7895 55.7277 58.9432 55.3805C58.379 55.1527 58.2055 54.697 58.1729 54.1546C58.1295 53.5578 58.021 51.4422 58.3899 50.162C58.4767 49.8473 58.6394 49.4133 58.8456 48.8709C59.4857 47.1783 60.5598 44.3249 60.6683 41.2979C60.7008 40.4517 60.7008 39.6705 60.7117 38.911C60.7334 35.5369 60.7659 32.6509 62.3825 29.1574C63.2179 27.3672 63.6953 25.87 64.1727 23.9279C65.3661 19.0782 68.2195 14.337 69.2177 12.6662C69.2936 12.5468 69.3479 12.4492 69.4781 12.2214C69.8144 11.6246 70.5739 11.4185 71.1597 11.7657C71.7564 12.102 71.9517 12.8615 71.6154 13.4473L71.3333 13.9247C70.3786 15.5087 67.677 20.0113 66.5704 24.5138C66.0605 26.5969 65.518 28.2786 64.6175 30.1989C63.2071 33.2259 63.1854 35.8515 63.1637 38.9219C63.1637 39.7139 63.1528 40.5385 63.1203 41.363C63.0118 44.8023 61.84 47.9053 61.1457 49.728C60.9721 50.1945 60.831 50.5742 60.7551 50.8238C60.5706 51.4856 60.5706 52.6356 60.6032 53.3951C61.2325 53.6663 61.7532 53.9267 62.2632 54.2197C62.9141 54.5994 63.5542 55.0551 64.3897 55.7277C65.3878 56.0098 66.1147 56.3461 66.7874 56.791C67.3733 57.1816 67.8723 57.6372 68.4365 58.2014C68.8813 58.234 69.2719 58.3099 69.6299 58.4401C70.9753 58.9283 71.7564 60.0784 71.8107 61.4888C71.8866 63.062 71.1489 64.4507 69.6842 65.1234C68.8813 65.4922 67.8072 65.6875 66.4077 65.6441C62.9033 65.5357 59.4206 64.8847 55.8945 64.8304C54.8747 64.8196 54.0501 64.787 53.3449 64.7002L53.3666 65.5899C53.3666 65.5899 53.1496 65.5899 52.8675 65.5899C51.1316 65.5899 45.3597 65.4489 41.5732 63.6587C41.1501 63.4634 40.7161 63.2898 40.2604 63.1379C40.1628 63.3658 39.7288 63.5393 39.1863 63.5393C38.5679 63.5393 38.0797 63.3224 38.0797 63.0511C38.0797 62.9101 38.2207 62.7799 38.4269 62.6931C35.9966 62.27 33.1432 62.4544 29.5737 63.2573C27.892 63.637 19.3644 65.3946 16.4892 62.7799C15.7298 62.0855 15.3609 61.1199 15.4911 60.1326C15.86 57.2575 18.9521 55.4673 23.5522 55.4673L23.5305 55.4565ZM40.7812 55.0334C39.8915 55.0334 39.1646 54.8055 39.1646 54.5234C39.1646 54.2414 39.8915 54.0135 40.7812 54.0135C41.6709 54.0135 42.3978 54.2414 42.3978 54.5234C42.3978 54.8055 41.6709 55.0334 40.7812 55.0334ZM41.0199 57.366C41.0199 57.5721 40.6076 57.7349 40.0868 57.7349C39.5661 57.7349 39.1538 57.5721 39.1538 57.366C39.1538 57.1599 39.5661 56.9971 40.0868 56.9971C40.6076 56.9971 41.0199 57.1599 41.0199 57.366ZM44.1771 57.6589C44.1771 57.4094 44.6111 57.2033 45.1427 57.2033C45.6743 57.2033 46.1083 57.4094 46.1083 57.6589C46.1083 57.9085 45.6743 58.1146 45.1427 58.1146C44.6111 58.1146 44.1771 57.9085 44.1771 57.6589ZM14.6123 57.1165C15.1114 57.1165 15.5236 57.3443 15.5236 57.6155C15.5236 57.8868 15.1114 58.1146 14.6123 58.1146C14.1132 58.1146 13.7009 57.8868 13.7009 57.6155C13.7009 57.3443 14.1132 57.1165 14.6123 57.1165ZM12.8547 60.9572C13.6033 60.9572 14.2 61.261 14.2 61.6298C14.2 61.9987 13.5924 62.3025 12.8547 62.3025C12.1169 62.3025 11.5093 61.9987 11.5093 61.6298C11.5093 61.261 12.1169 60.9572 12.8547 60.9572ZM20.1021 111.906H14.3085L13.4839 114.12C13.4514 114.206 13.3863 114.304 13.2887 114.413C13.191 114.521 13.0174 114.575 12.7679 114.575H10.0989C9.97956 114.575 9.88192 114.532 9.78427 114.434C9.68663 114.337 9.64323 114.239 9.64323 114.12C9.64323 114.044 9.64323 113.979 9.66493 113.924L14.7642 99.9936C14.8076 99.8308 14.8944 99.6898 15.0354 99.5704C15.1765 99.4511 15.3609 99.386 15.6104 99.386H18.8219C19.0714 99.386 19.2559 99.4511 19.3969 99.5704C19.5379 99.6898 19.6247 99.8308 19.6681 99.9936L24.7457 113.924C24.7782 113.979 24.7891 114.044 24.7891 114.12C24.7891 114.239 24.7457 114.337 24.648 114.434C24.5504 114.532 24.4419 114.575 24.3117 114.575H21.6427C21.4258 114.575 21.263 114.521 21.1545 114.413C21.046 114.304 20.9809 114.206 20.9484 114.12L20.1021 111.906ZM35.3782 114.369C35.248 114.228 35.1503 114.109 35.0961 113.989L32.6224 109.216H30.4091V114.033C30.4091 114.174 30.3549 114.304 30.2464 114.413C30.1379 114.521 30.0077 114.575 29.8449 114.575H27.0458C26.883 114.575 26.7528 114.521 26.6552 114.413C26.5576 114.304 26.5033 114.174 26.5033 114.033V99.9285C26.5033 99.7657 26.5576 99.6355 26.6552 99.5379C26.7528 99.4402 26.883 99.386 27.0458 99.386H32.9479C34.8248 99.386 36.3004 99.82 37.3745 100.677C38.4486 101.534 38.9802 102.76 38.9802 104.333C38.9802 105.364 38.7307 106.232 38.2424 106.937C37.7542 107.642 37.1032 108.185 36.2895 108.543L39.2623 113.881C39.3057 113.968 39.3274 114.044 39.3274 114.12C39.3274 114.239 39.284 114.337 39.1863 114.434C39.0887 114.532 38.991 114.575 38.8717 114.575H35.9857C35.7145 114.575 35.5084 114.51 35.3782 114.369ZM76.0745 114.434C75.9769 114.532 75.8684 114.575 75.7382 114.575H73.0692C72.8522 114.575 72.6895 114.521 72.581 114.413C72.4725 114.304 72.4074 114.206 72.3749 114.12L71.5286 111.906H65.735L64.9104 114.12C64.8779 114.206 64.8128 114.304 64.7151 114.413C64.6175 114.521 64.4439 114.575 64.1944 114.575H61.5254C61.406 114.575 61.3084 114.532 61.2108 114.434C61.1131 114.337 61.0697 114.239 61.0697 114.12C61.0697 114.044 61.0697 113.979 61.0914 113.924L66.1907 99.9936C66.2341 99.8308 66.3209 99.6898 66.4619 99.5704C66.6029 99.4511 66.7874 99.386 67.0369 99.386H70.2484C70.4979 99.386 70.6823 99.4511 70.8234 99.5704C70.9644 99.6898 71.0512 99.8308 71.0946 99.9936L76.1722 113.924C76.2047 113.979 76.2156 114.044 76.2156 114.12C76.2156 114.239 76.1722 114.337 76.0745 114.434Z" fill="white"/>
<path d="M66.6246 108.782H70.6606L68.6426 103.053L66.6246 108.782Z" fill="white"/>
<path d="M12.8438 92.8763H15.7732C15.9359 92.8763 16.0661 92.8221 16.1746 92.7136C16.2831 92.6051 16.3374 92.4749 16.3374 92.3338V87.5818H18.9195C20.1238 87.5818 21.1654 87.4082 22.055 87.061C22.9447 86.7138 23.639 86.1822 24.1381 85.4553C24.6372 84.7284 24.8867 83.817 24.8867 82.6995C24.8867 81.582 24.6372 80.6381 24.1381 79.9004C23.639 79.1626 22.9447 78.6093 22.055 78.2404C21.1654 77.8715 20.1238 77.6871 18.9195 77.6871H12.8438C12.6811 77.6871 12.5509 77.7413 12.4532 77.839C12.3556 77.9366 12.3013 78.0668 12.3013 78.2295V92.3338C12.3013 92.4749 12.3556 92.6051 12.4532 92.7136C12.5509 92.8221 12.6811 92.8763 12.8438 92.8763ZM16.2723 80.7032H18.811C19.5379 80.7032 20.0587 80.8877 20.3734 81.2674C20.688 81.6471 20.8507 82.1028 20.8507 82.6561C20.8507 83.3071 20.6663 83.7953 20.2974 84.1099C19.9285 84.4246 19.4295 84.5873 18.811 84.5873H16.2723V80.7032Z" fill="#F85600"/>
<path d="M30.8105 75.9728C30.7346 76.0488 30.7021 76.1356 30.7021 76.2549C30.7021 76.4828 30.8214 76.6021 31.0492 76.6021H33.154C33.3602 76.6021 33.5121 76.5804 33.6314 76.5262C33.7508 76.4719 33.8592 76.396 33.9786 76.2983L36.8645 73.9331C36.9405 73.8572 36.973 73.7704 36.973 73.6728C36.973 73.3798 36.832 73.2388 36.5608 73.2388H33.5229C33.3385 73.2388 33.1866 73.2605 33.0889 73.3147C32.9913 73.369 32.8611 73.4775 32.7201 73.6511L30.8105 75.9728Z" fill="#F85600"/>
<path d="M27.1217 92.7136C27.2194 92.8221 27.3496 92.8763 27.5123 92.8763H37.8193C37.982 92.8763 38.1122 92.8221 38.2099 92.7136C38.3075 92.6051 38.3618 92.4749 38.3618 92.3338V90.2942C38.3618 90.1314 38.3075 90.0012 38.2099 89.9036C38.1122 89.8059 37.982 89.7517 37.8193 89.7517H30.7237V86.7355H37.1683C37.3311 86.7355 37.4613 86.6813 37.5589 86.5728C37.6566 86.4643 37.7108 86.3341 37.7108 86.193V84.3052C37.7108 84.1425 37.6566 84.0123 37.5589 83.9038C37.4613 83.7953 37.3311 83.7411 37.1683 83.7411H30.7237V80.8117H37.6457C37.8085 80.8117 37.9386 80.7575 38.0363 80.6598C38.1339 80.5622 38.1882 80.432 38.1882 80.2692V78.2295C38.1882 78.0668 38.1339 77.9366 38.0363 77.839C37.9386 77.7413 37.8085 77.6871 37.6457 77.6871H27.5123C27.3496 77.6871 27.2194 77.7413 27.1217 77.839C27.0241 77.9366 26.9698 78.0668 26.9698 78.2295V92.3338C26.9698 92.4749 27.0241 92.6051 27.1217 92.7136Z" fill="#F85600"/>
<path d="M57.4785 77.6871H54.8747C54.7119 77.6871 54.5817 77.7413 54.4841 77.839C54.3864 77.9366 54.3322 78.0668 54.3322 78.2295V86.4317L49.0377 78.0993C49.0051 78.0451 48.94 77.9583 48.8315 77.8498C48.723 77.7413 48.5494 77.6871 48.2999 77.6871H45.9998C45.8371 77.6871 45.7069 77.7413 45.6092 77.839C45.5116 77.9366 45.4573 78.0668 45.4573 78.2295V92.3338C45.4573 92.4749 45.5116 92.6051 45.6092 92.7136C45.7069 92.8221 45.8371 92.8763 45.9998 92.8763H48.6037C48.7664 92.8763 48.8966 92.8221 48.9943 92.7136C49.0919 92.6051 49.1461 92.4749 49.1461 92.3338V84.4354L54.4407 92.464C54.4407 92.464 54.5383 92.5834 54.6468 92.7027C54.7553 92.8221 54.9289 92.8763 55.1568 92.8763H57.4785C57.6413 92.8763 57.7715 92.8221 57.8691 92.7136C57.9668 92.6051 58.021 92.4749 58.021 92.3121V78.2295C58.021 78.0668 57.9668 77.9366 57.8691 77.839C57.7715 77.7413 57.6413 77.6871 57.4785 77.6871Z" fill="#F85600"/>
<path d="M69.4889 77.8715C69.3479 77.7522 69.1634 77.6871 68.9139 77.6871H65.7024C65.4529 77.6871 65.2685 77.7522 65.1274 77.8715C64.9864 77.9908 64.8996 78.1319 64.8562 78.2946L59.7569 92.2253C59.7461 92.2796 59.7352 92.3447 59.7352 92.4206C59.7352 92.54 59.7786 92.6376 59.8763 92.7353C59.9739 92.8329 60.0716 92.8763 60.1909 92.8763H62.8599C63.1094 92.8763 63.283 92.8221 63.3807 92.7136C63.4783 92.6051 63.5434 92.5074 63.5759 92.4206L64.4005 90.2074H70.1941L71.0404 92.4206C71.0729 92.5074 71.138 92.6051 71.2465 92.7136C71.355 92.8221 71.5178 92.8763 71.7347 92.8763H74.4037C74.5339 92.8763 74.6424 92.8329 74.74 92.7353C74.8377 92.6376 74.8811 92.54 74.8811 92.4206C74.8811 92.3447 74.8702 92.2796 74.8377 92.2253L69.7601 78.2946C69.7167 78.1319 69.6299 77.9908 69.4889 77.8715ZM65.2902 87.0827L67.3082 81.3542L69.3262 87.0827H65.2902Z" fill="#F85600"/>
<path d="M21.1545 114.413C21.263 114.521 21.4258 114.575 21.6427 114.575H24.3117C24.4419 114.575 24.5504 114.532 24.648 114.434C24.7457 114.337 24.7891 114.239 24.7891 114.12C24.7891 114.044 24.7782 113.979 24.7457 113.924L19.6681 99.9936C19.6247 99.8308 19.5379 99.6898 19.3969 99.5704C19.2559 99.4511 19.0714 99.386 18.8219 99.386H15.6104C15.3609 99.386 15.1765 99.4511 15.0354 99.5704C14.8944 99.6898 14.8076 99.8308 14.7642 99.9936L9.66493 113.924C9.65408 113.979 9.64323 114.044 9.64323 114.12C9.64323 114.239 9.68663 114.337 9.78427 114.434C9.88192 114.532 9.97956 114.575 10.0989 114.575H12.7679C13.0174 114.575 13.191 114.521 13.2887 114.413C13.3863 114.304 13.4514 114.206 13.4839 114.12L14.3085 111.906H20.1021L20.9484 114.12C20.9809 114.206 21.046 114.304 21.1545 114.413ZM15.1982 108.782L17.2162 103.053L19.2342 108.782H15.1982Z" fill="#F85600"/>
<path d="M38.8717 114.575C38.991 114.575 39.0887 114.532 39.1863 114.434C39.284 114.337 39.3274 114.239 39.3274 114.12C39.3274 114.044 39.3057 113.968 39.2623 113.881L36.2895 108.543C37.1032 108.185 37.7542 107.642 38.2424 106.937C38.7307 106.232 38.9802 105.364 38.9802 104.333C38.9802 102.76 38.4486 101.534 37.3745 100.677C36.3004 99.82 34.8248 99.386 32.9479 99.386H27.0458C26.883 99.386 26.7528 99.4402 26.6552 99.5379C26.5576 99.6355 26.5033 99.7657 26.5033 99.9285V114.033C26.5033 114.174 26.5576 114.304 26.6552 114.413C26.7528 114.521 26.883 114.575 27.0458 114.575H29.8449C30.0077 114.575 30.1379 114.521 30.2464 114.413C30.3549 114.304 30.4091 114.174 30.4091 114.033V109.216H32.6224L35.0961 113.989C35.1503 114.109 35.248 114.228 35.3782 114.369C35.5084 114.51 35.7145 114.575 35.9857 114.575H38.8717ZM34.4343 105.635C34.0979 105.972 33.588 106.134 32.9045 106.134H30.4091V102.402H32.9045C33.6097 102.402 34.1305 102.576 34.456 102.923C34.7815 103.27 34.9442 103.726 34.9442 104.29C34.9442 104.854 34.7706 105.299 34.4343 105.635Z" fill="#F85600"/>
<path d="M42.0397 114.575H52.3467C52.5095 114.575 52.6397 114.521 52.7373 114.413C52.835 114.304 52.8892 114.174 52.8892 114.033V111.993C52.8892 111.83 52.835 111.7 52.7373 111.603C52.6397 111.505 52.5095 111.451 52.3467 111.451H45.2512V108.434H51.6958C51.8585 108.434 51.9887 108.38 52.0864 108.272C52.184 108.163 52.2382 108.033 52.2382 107.892V106.004C52.2382 105.841 52.184 105.711 52.0864 105.603C51.9887 105.494 51.8585 105.44 51.6958 105.44H45.2512V102.511H52.1731C52.3359 102.511 52.4661 102.456 52.5637 102.359C52.6614 102.261 52.7156 102.131 52.7156 101.968V99.9285C52.7156 99.7657 52.6614 99.6355 52.5637 99.5379C52.4661 99.4402 52.3359 99.386 52.1731 99.386H42.0397C41.877 99.386 41.7468 99.4402 41.6492 99.5379C41.5515 99.6355 41.4973 99.7657 41.4973 99.9285V114.033C41.4973 114.174 41.5515 114.304 41.6492 114.413C41.7468 114.521 41.877 114.575 42.0397 114.575Z" fill="#F85600"/>
<path d="M59.2145 114.413C59.323 114.304 59.3772 114.174 59.3772 114.033V99.9285C59.3772 99.7657 59.323 99.6355 59.2145 99.5379C59.106 99.4402 58.9758 99.386 58.813 99.386H55.9054C55.7426 99.386 55.6124 99.4402 55.5148 99.5379C55.4171 99.6355 55.3629 99.7657 55.3629 99.9285V114.033C55.3629 114.174 55.4171 114.304 55.5148 114.413C55.6124 114.521 55.7426 114.575 55.9054 114.575H58.813C58.9758 114.575 59.106 114.521 59.2145 114.413Z" fill="#F85600"/>
<path d="M71.0946 99.9936C71.0512 99.8308 70.9644 99.6898 70.8234 99.5704C70.6823 99.4511 70.4979 99.386 70.2484 99.386H67.0369C66.7874 99.386 66.6029 99.4511 66.4619 99.5704C66.3209 99.6898 66.2341 99.8308 66.1907 99.9936L61.0914 113.924C61.0806 113.979 61.0697 114.044 61.0697 114.12C61.0697 114.239 61.1131 114.337 61.2108 114.434C61.3084 114.532 61.406 114.575 61.5254 114.575H64.1944C64.4439 114.575 64.6175 114.521 64.7151 114.413C64.8128 114.304 64.8779 114.206 64.9104 114.12L65.735 111.906H71.5286L72.3749 114.12C72.4074 114.206 72.4725 114.304 72.581 114.413C72.6895 114.521 72.8522 114.575 73.0692 114.575H75.7382C75.8684 114.575 75.9769 114.532 76.0745 114.434C76.1722 114.337 76.2156 114.239 76.2156 114.12C76.2156 114.044 76.2047 113.979 76.1722 113.924L71.0946 99.9936ZM66.6246 108.782L68.6426 103.053L70.6606 108.782H66.6246Z" fill="#F85600"/>
<path d="M3.58922 38.629C3.79536 38.9978 4.09915 39.3993 4.39209 39.6922C4.84776 40.1587 5.48788 40.4951 6.0846 40.7555C6.76812 41.0592 7.47333 41.3305 8.17855 41.58C8.2762 41.6126 8.49319 41.6885 8.56913 41.7102C8.79697 41.8296 9.2418 42.0791 8.86207 41.7862C10.4027 42.9688 12.4207 43.1315 13.7118 41.439C15.0137 39.7356 14.2977 37.837 12.757 36.6761C11.7263 35.8949 10.4461 35.4718 9.18755 35.2114C8.92716 35.1571 8.66678 35.1137 8.41724 35.0486C8.41724 35.0486 7.73372 34.8859 7.85307 34.9293C7.34314 34.7557 6.88746 34.5387 6.36669 34.4736C4.77182 34.0288 2.79721 35.4501 3.26374 37.4247C3.13355 36.8822 3.48073 38.4228 3.60007 38.629H3.58922Z" fill="#F85600"/>
<path d="M17.1728 26.5644C19.0823 25.9351 21.0894 25.87 22.8687 24.861C24.648 23.852 25.0712 21.4977 23.8669 19.9028C22.6192 18.2754 20.2974 18.1452 18.8219 19.5448C19.4078 18.9914 18.9195 19.4471 18.7025 19.5773C18.7025 19.5773 18.6917 19.5773 18.6808 19.5881C18.6808 19.5881 18.6591 19.5881 18.6483 19.5881C18.2252 19.6858 17.802 19.8485 17.4006 19.9896C15.9685 20.4887 14.8727 21.1613 13.9939 22.4199C12.6051 24.4053 14.9703 27.2804 17.1728 26.5644Z" fill="#F85600"/>
<path d="M33.3385 37.544C33.9786 36.4265 33.7508 34.9835 32.8719 34.0722C32.7417 33.9311 32.6007 33.801 32.4705 33.6599C31.5266 32.7052 30.0185 32.5316 28.8468 33.1717C28.326 33.4538 27.8486 33.801 27.3821 34.1698C27.0783 34.4085 26.7854 34.6472 26.4925 34.8859C26.525 34.8533 26.1019 35.168 26.0476 35.2005C25.8632 35.3199 25.6787 35.4392 25.4835 35.5477C25.3641 35.6237 25.2448 35.6888 25.1254 35.7539C23.8343 35.9383 22.847 36.8931 22.6517 38.2058C22.4673 39.5078 23.3461 41.0809 24.7348 41.3305C26.4599 41.6451 28.2501 41.0701 29.8124 40.1262C30.3766 39.7899 30.9082 39.3993 31.3964 38.987C32.2101 38.7917 32.9696 38.2275 33.3493 37.5657L33.3385 37.544Z" fill="#F85600"/>
</svg>
