<svg width="83" height="120" viewBox="0 0 83 120" fill="none" xmlns="http://www.w3.org/2000/svg">
<path d="M53.1523 62.1615C53.1523 62.1615 53.2174 62.1615 53.2499 62.1832L53.2282 61.4888C52.9136 61.4888 52.4905 61.4888 51.9914 61.4888C51.9914 61.4888 52.0022 61.5105 52.0131 61.5213C52.3169 61.8794 52.664 62.0747 53.1523 62.1832V62.1615Z" fill="#EF6124"/>
<path d="M16.4594 62.769C19.3453 65.3838 27.8622 63.6261 29.5438 63.2464C33.1133 62.4436 35.9667 62.2591 38.397 62.6822C38.18 62.769 38.0498 62.8992 38.0498 63.0403C38.0498 63.3115 38.5489 63.5285 39.1565 63.5285C39.6989 63.5285 40.1221 63.3549 40.2306 63.1271C40.6754 63.279 41.1202 63.4417 41.5433 63.6478C45.3298 65.438 51.1017 65.579 52.8376 65.579C53.1197 65.579 53.2933 65.579 53.3367 65.579L53.315 64.6894C53.0655 64.6568 52.8268 64.6134 52.6098 64.57C51.6008 64.3314 50.8522 63.9082 50.1687 63.1271C49.7672 62.6714 49.3767 62.053 49.0078 61.2827C47.0223 61.0765 44.8416 60.6751 43.301 59.9482C40.773 58.7547 38.0173 58.234 34.7407 58.375C33.8294 58.1038 32.8855 57.8434 31.9416 57.6047C31.9633 57.5613 31.985 57.5179 31.985 57.4636C31.985 57.1056 31.4967 56.8127 30.8892 56.8127C30.466 56.8127 30.108 56.9646 29.9236 57.1707C28.9363 56.9863 28.0032 56.8561 27.1678 56.8235V55.4565H23.5224C18.9222 55.4565 15.8301 57.2467 15.4612 60.1218C15.331 61.1199 15.6999 62.0855 16.4594 62.769Z" fill="#EF6124"/>
<path d="M39.1565 57.366C39.1565 57.5721 39.5687 57.7349 40.0895 57.7349C40.6103 57.7349 41.0226 57.5721 41.0226 57.366C41.0226 57.1599 40.6103 56.9971 40.0895 56.9971C39.5687 56.9971 39.1565 57.1599 39.1565 57.366Z" fill="#EF6124"/>
<path d="M34.0789 55.348C34.5888 55.348 35.012 55.1853 35.012 54.99C35.012 54.7947 34.5997 54.6319 34.0789 54.6319C33.5581 54.6319 33.1459 54.7947 33.1459 54.99C33.1459 55.1853 33.5581 55.348 34.0789 55.348Z" fill="#EF6124"/>
<path d="M36.1512 57.5613C36.596 57.5613 36.954 57.4202 36.954 57.2467C36.954 57.0731 36.596 56.932 36.1512 56.932C35.7063 56.932 35.3483 57.0731 35.3483 57.2467C35.3483 57.4202 35.7063 57.5613 36.1512 57.5613Z" fill="#EF6124"/>
<path d="M46.1001 57.6589C46.1001 57.4094 45.6661 57.2033 45.1345 57.2033C44.6029 57.2033 44.1689 57.4094 44.1689 57.6589C44.1689 57.9085 44.6029 58.1146 45.1345 58.1146C45.6661 58.1146 46.1001 57.9085 46.1001 57.6589Z" fill="#EF6124"/>
<path d="M69.1769 66.6314C68.4826 66.6314 67.9184 66.9027 67.9184 67.2282C67.9184 67.5536 68.4826 67.8249 69.1769 67.8249C69.8713 67.8249 70.4355 67.5536 70.4355 67.2282C70.4355 66.9027 69.8713 66.6314 69.1769 66.6314Z" fill="#EF6124"/>
<path d="M56.7977 66.6314C55.7995 66.6314 54.9967 67.0112 54.9967 67.4886C54.9967 67.9659 55.7995 68.3457 56.7977 68.3457C57.7958 68.3457 58.5987 67.9551 58.5987 67.4886C58.5987 67.022 57.7958 66.6314 56.7977 66.6314Z" fill="#EF6124"/>
<path d="M34.7516 64.8413C35.3927 64.8413 35.9125 64.5498 35.9125 64.1903C35.9125 63.8308 35.3927 63.5393 34.7516 63.5393C34.1104 63.5393 33.5907 63.8308 33.5907 64.1903C33.5907 64.5498 34.1104 64.8413 34.7516 64.8413Z" fill="#EF6124"/>
<path d="M20.2567 64.7762C19.2585 64.7762 18.4448 65.0366 18.4448 65.3729C18.4448 65.7092 19.2585 65.9696 20.2567 65.9696C21.2548 65.9696 22.0685 65.7092 22.0685 65.3729C22.0685 65.0366 21.2548 64.7762 20.2567 64.7762Z" fill="#EF6124"/>
<path d="M14.6041 58.1255C15.1032 58.1255 15.5155 57.8976 15.5155 57.6264C15.5155 57.3551 15.1032 57.1273 14.6041 57.1273C14.105 57.1273 13.6928 57.3551 13.6928 57.6264C13.6928 57.8976 14.105 58.1255 14.6041 58.1255Z" fill="#EF6124"/>
<path d="M12.8465 62.3025C13.5951 62.3025 14.1918 61.9987 14.1918 61.6298C14.1918 61.261 13.5843 60.9572 12.8465 60.9572C12.1087 60.9572 11.5012 61.261 11.5012 61.6298C11.5012 61.9987 12.1087 62.3025 12.8465 62.3025Z" fill="#EF6124"/>
<path d="M29.3919 63.5719C28.8929 63.5719 28.4806 63.8431 28.4806 64.1903C28.4806 64.5375 28.8929 64.8087 29.3919 64.8087C29.891 64.8087 30.3033 64.5375 30.3033 64.1903C30.3033 63.8431 29.891 63.5719 29.3919 63.5719Z" fill="#EF6124"/>
<path d="M45.6553 66.1541C45.6553 65.872 45.1779 65.6441 44.6029 65.6441C44.0279 65.6441 43.5505 65.872 43.5505 66.1541C43.5505 66.4362 44.0279 66.664 44.6029 66.664C45.1779 66.664 45.6553 66.4362 45.6553 66.1541Z" fill="#EF6124"/>
<path d="M42.3787 54.5234C42.3787 54.2414 41.6518 54.0135 40.7622 54.0135C39.8725 54.0135 39.1456 54.2414 39.1456 54.5234C39.1456 54.8055 39.8725 55.0334 40.7622 55.0334C41.6518 55.0334 42.3787 54.8055 42.3787 54.5234Z" fill="#EF6124"/>
<path d="M54.107 27.8446C54.183 27.0092 54.2264 26.0544 54.0311 25.2299C53.9009 24.6765 53.3476 24.3294 52.7942 24.4596C52.2409 24.5898 51.8937 25.1431 52.0239 25.6964C52.165 26.2931 52.1107 27.0526 52.0565 27.6602C51.9697 28.6041 52.2192 29.4069 52.6749 30.0362C53.4886 31.1428 54.9207 31.5985 56.2552 31.349C57.1666 31.1754 58.0779 30.6763 58.7615 29.7866C59.1086 29.3418 59.0218 28.6909 58.577 28.3437C58.1322 27.9965 57.4812 28.0833 57.134 28.5281C56.7868 28.9838 56.3312 29.2333 55.8755 29.3201C55.3222 29.4286 54.682 29.2767 54.3349 28.8102C54.1613 28.5715 54.0636 28.246 54.107 27.8446Z" fill="#FFA901"/>
<path d="M52.5989 64.5701C52.8159 64.6243 53.0546 64.6568 53.3042 64.6894C54.0094 64.7762 54.8231 64.8087 55.8538 64.8196C59.3799 64.863 62.8625 65.5248 66.3669 65.6333C67.7557 65.6767 68.8298 65.4814 69.6435 65.1125C71.1081 64.4399 71.8459 63.062 71.77 61.478C71.7049 60.0675 70.9346 58.9066 69.5892 58.4293C69.242 58.2991 68.8406 58.2231 68.3958 58.1906C67.8316 57.6264 67.3325 57.1707 66.7467 56.7801C66.074 56.3353 65.3471 55.999 64.3489 55.7169C63.5135 55.0442 62.8625 54.5885 62.2224 54.2088C61.7125 53.905 61.1917 53.6555 60.5625 53.3842C60.5299 52.6248 60.5299 51.4747 60.7144 50.8129C60.7903 50.5634 60.9313 50.1837 61.1049 49.7171C61.7993 47.8836 62.9602 44.7915 63.0795 41.3522C63.1121 40.5276 63.1121 39.7031 63.1229 38.9111C63.1446 35.8407 63.1663 33.2042 64.5768 30.1881C65.4664 28.2677 66.0089 26.5861 66.5297 24.503C67.6363 20.0113 70.3487 15.5087 71.2926 13.9139L71.5747 13.4365C71.911 12.8398 71.7049 12.0912 71.119 11.7548C70.5223 11.4185 69.7737 11.6246 69.4373 12.2105C69.3071 12.4383 69.2529 12.5251 69.1769 12.6553C68.1788 14.3262 65.3254 19.0674 64.1319 23.9171C63.6546 25.8591 63.1663 27.3672 62.3418 29.1465C60.7144 32.6292 60.6927 35.526 60.671 38.9002C60.671 39.6488 60.6601 40.43 60.6276 41.2871C60.5299 44.3141 59.445 47.1675 58.8048 48.86C58.5987 49.4025 58.436 49.8365 58.3492 50.1511C57.9803 51.4313 58.0996 53.547 58.1322 54.1437C58.1647 54.6862 58.3492 55.1419 58.9025 55.3697C59.7487 55.7169 60.3672 55.999 60.9747 56.357C61.5715 56.7042 62.1573 57.1273 62.9493 57.7674C63.0904 57.8976 63.264 57.9953 63.4593 58.0387C64.3055 58.2665 64.8805 58.5052 65.3796 58.8415C65.8787 59.167 66.3344 59.6227 66.9094 60.2194C67.1915 60.5123 67.4844 60.6751 67.9076 60.6534C68.2547 60.6425 68.5368 60.6751 68.743 60.751C69.1227 60.8921 69.2746 61.1959 69.2963 61.5864C69.318 62.1615 69.1444 62.6171 68.6019 62.8667C68.1245 63.0837 67.4193 63.1922 66.432 63.1596C62.9059 63.0511 59.4341 62.4002 55.8755 62.3459C54.7146 62.3351 53.8792 62.3025 53.2391 62.1615C53.2065 62.1615 53.174 62.1615 53.1414 62.1398C52.664 62.0313 52.3169 61.836 52.0022 61.478C52.0022 61.478 51.9914 61.4563 51.9805 61.4454C51.5466 60.9355 51.1017 60.1543 50.722 58.9826C50.3748 57.9085 50.0927 56.5523 49.93 54.8381C49.6696 52.0823 49.2899 49.0445 48.3243 45.8873C47.3587 42.6975 45.7963 39.421 43.2033 36.2746C41.8037 34.5713 40.5777 32.4339 40.1221 30.3291C39.7857 28.7559 39.8834 27.2045 40.7296 25.9459C42.7259 22.9623 44.9067 22.8755 46.7402 22.7996C49.1054 22.7128 51.0692 22.6368 52.1758 19.3495C53.1631 16.4418 54.6712 12.4926 54.6712 12.4817C54.9099 11.8416 54.5736 11.1364 53.9334 10.8977C53.2933 10.659 52.5881 10.9954 52.3494 11.6355C52.3494 11.6463 50.8739 15.487 49.8323 18.5574C49.2573 20.2391 48.0747 20.2825 46.6426 20.3368C44.234 20.4344 41.3698 20.5429 38.6682 24.5681C37.4097 26.4559 37.2144 28.6475 37.6918 30.839C38.2342 33.3453 39.6664 35.8624 41.2938 37.8261C43.659 40.7012 45.0803 43.6848 45.9591 46.5925C46.8487 49.5327 47.2176 52.4295 47.4672 55.0659C47.6516 56.9754 47.9662 58.5052 48.3677 59.7312C48.5521 60.3062 48.7582 60.7944 48.9752 61.2501C49.3441 62.0204 49.7347 62.6388 50.1361 63.0945C50.8196 63.8757 51.5574 64.2988 52.5773 64.5375L52.5989 64.5701Z" fill="#FFA901"/>
<path d="M20.2892 84.1099C20.6581 83.7953 20.8426 83.3071 20.8426 82.6561C20.8426 82.1028 20.6798 81.6471 20.3652 81.2674C20.0505 80.8877 19.5298 80.7032 18.8029 80.7032H16.2641V84.5873H18.8029C19.4213 84.5873 19.9203 84.4246 20.2892 84.1099Z" fill="white"/>
<path d="M65.282 87.0827H69.318L67.3 81.3542L65.282 87.0827Z" fill="white"/>
<path d="M15.19 108.782H19.226L17.208 103.053L15.19 108.782Z" fill="white"/>
<path d="M32.8963 102.402H30.4009V106.134H32.8963C33.5798 106.134 34.0898 105.972 34.4261 105.635C34.7624 105.299 34.936 104.854 34.936 104.29C34.936 103.726 34.7733 103.27 34.4478 102.923C34.1223 102.576 33.6015 102.402 32.8963 102.402Z" fill="white"/>
<path d="M76.2182 98.2468C76.1965 98.1709 76.1531 98.0949 76.1206 98.019C77.032 97.7369 77.8674 97.2703 78.5617 96.576C79.6792 95.4585 80.2868 93.983 80.2868 92.4206C80.2868 91.6829 80.1458 90.9451 79.8745 90.2616L75.1225 77.2314C78.616 75.387 81.0029 71.9694 81.2415 67.9008C82.218 65.796 82.7062 63.4417 82.5977 61.0006C82.3373 55.3154 78.8221 50.4006 73.5927 48.3609C73.4191 48.2307 73.2346 48.0897 73.0394 47.9595C73.4842 46.1151 73.8314 44.0103 73.9073 41.7319C73.9398 40.864 73.9507 40.0068 73.9507 39.1714V39.0195C73.9724 36.3506 74.0267 35.5694 74.3955 34.7883C75.5239 32.3688 76.3159 30.0796 77.0428 27.1177C77.5202 25.1865 78.7136 22.626 80.5797 19.5122L80.8618 19.0348C80.9052 18.9697 80.9378 18.9046 80.9812 18.8395C84.2903 13.0568 82.2723 5.65743 76.4895 2.34834C71.8459 -0.309781 66.1608 0.471381 62.3852 3.87811C61.1266 2.52193 59.5426 1.43698 57.6874 0.742618C54.6603 -0.364028 51.373 -0.233835 48.4436 1.1332C45.5359 2.47853 43.3227 4.87627 42.2052 7.87072C42.0533 8.2613 41.7495 9.07501 41.3589 10.1057C37.8003 10.9411 33.3737 13.0459 29.674 18.5683C26.8857 22.7345 25.9744 27.9205 27.1027 33.1717C27.1786 33.508 27.2654 33.8444 27.3522 34.1807C27.8188 33.8118 28.2961 33.4646 28.8169 33.1825C29.9887 32.5533 31.4859 32.7269 32.4406 33.6708C32.5817 33.801 32.7119 33.942 32.8421 34.083C33.7317 34.9944 33.9487 36.4374 33.3086 37.5549C32.9289 38.2275 32.1694 38.7809 31.3557 38.9762C30.8675 39.3884 30.3358 39.779 29.7717 40.1153C30.4986 41.4281 31.3231 42.6975 32.2562 43.9127C31.1387 44.0645 30.0863 44.3683 29.099 44.7915C28.4589 44.6721 27.8079 44.607 27.1352 44.607H23.4898C20.0397 44.607 17.0886 45.2363 14.5933 46.2778C14.5933 46.2778 14.5824 46.2778 14.5716 46.2778C9.15767 46.2778 4.70939 49.6412 3.28811 54.3607C1.61729 56.3353 0.619141 58.8524 0.619141 61.6298C0.619141 67.239 4.66599 71.7741 10.1992 72.8807C9.6025 73.1628 9.04918 73.5317 8.5718 74.0091C7.44346 75.1374 6.82504 76.6347 6.82504 78.2404V92.3447C6.82504 93.8745 7.40006 95.3283 8.40906 96.4024C8.83219 96.8581 9.32041 97.2487 9.86289 97.5416C9.75439 97.7694 9.65675 98.0081 9.56995 98.2468L4.5141 112.069C4.449 112.232 4.40561 112.405 4.36221 112.568C4.23201 113.067 4.16692 113.588 4.16692 114.12C4.16692 115.682 4.78534 117.157 5.89198 118.275C7.00948 119.392 8.48501 120 10.0473 120H12.7163C14.4522 120 16.0362 119.349 17.1646 118.145C17.1863 118.177 17.2188 118.199 17.2405 118.221C18.3689 119.36 19.9095 119.989 21.5803 119.989H24.2493C24.705 119.989 25.1498 119.924 25.5838 119.826C26.0394 119.935 26.506 119.989 26.9834 119.989H29.7825C30.8566 119.989 31.8873 119.707 32.7878 119.186C33.7209 119.707 34.7841 119.989 35.9233 119.989H38.8093C39.3409 119.989 39.8508 119.891 40.3499 119.761C40.8707 119.913 41.424 119.989 41.9773 119.989H52.2843C52.9027 119.989 53.4995 119.902 54.0636 119.718C54.6278 119.891 55.2245 119.989 55.8429 119.989H58.7506C59.2171 119.989 59.6728 119.924 60.1176 119.816C60.5516 119.924 60.9964 119.989 61.463 119.989H64.1319C65.8679 119.989 67.4519 119.338 68.5802 118.134C68.6019 118.166 68.6345 118.188 68.6562 118.21C69.7845 119.349 71.3251 119.978 72.996 119.978H75.6649C77.2381 119.978 78.7245 119.36 79.8311 118.253C80.9486 117.136 81.5562 115.66 81.5562 114.098C81.5562 113.36 81.4151 112.622 81.1439 111.939L76.1423 98.2251L76.2182 98.2468ZM55.8972 114.575C55.7344 114.575 55.6043 114.521 55.5066 114.413C55.409 114.304 55.3547 114.174 55.3547 114.033V99.9285C55.3547 99.7657 55.409 99.6355 55.5066 99.5379C55.6043 99.4402 55.7344 99.386 55.8972 99.386H58.8048C58.9676 99.386 59.0978 99.4402 59.2063 99.5379C59.3148 99.6355 59.369 99.7657 59.369 99.9285V114.033C59.369 114.174 59.3148 114.304 59.2063 114.413C59.0978 114.521 58.9676 114.575 58.8048 114.575H55.8972ZM33.6015 64.1903C33.6015 63.8323 34.1223 63.5393 34.7624 63.5393C35.4025 63.5393 35.9233 63.8323 35.9233 64.1903C35.9233 64.5483 35.4025 64.8413 34.7624 64.8413C34.1223 64.8413 33.6015 64.5483 33.6015 64.1903ZM43.5396 66.1541C43.5396 65.872 44.017 65.6441 44.592 65.6441C45.1671 65.6441 45.6444 65.872 45.6444 66.1541C45.6444 66.4362 45.1671 66.664 44.592 66.664C44.017 66.664 43.5396 66.4362 43.5396 66.1541ZM69.1769 67.8249C68.4826 67.8249 67.9184 67.5536 67.9184 67.2282C67.9184 66.9027 68.4826 66.6314 69.1769 66.6314C69.8713 66.6314 70.4355 66.9027 70.4355 67.2282C70.4355 67.5536 69.8713 67.8249 69.1769 67.8249ZM32.7119 73.6511C32.8529 73.4775 32.9831 73.369 33.0808 73.3147C33.1784 73.2605 33.3303 73.2388 33.5147 73.2388H36.5526C36.8238 73.2388 36.9649 73.3798 36.9649 73.6728C36.9649 73.7704 36.9323 73.8572 36.8564 73.9331L33.9704 76.2983C33.8511 76.396 33.7426 76.4719 33.6232 76.5262C33.5039 76.5804 33.352 76.6021 33.1459 76.6021H31.0411C30.8132 76.6021 30.6939 76.4828 30.6939 76.2549C30.6939 76.1356 30.7264 76.0488 30.8024 75.9728L32.7119 73.6511ZM58.0128 92.3121C58.0128 92.4749 57.9586 92.6051 57.8609 92.7136C57.7633 92.8221 57.6331 92.8763 57.4704 92.8763H55.1486C54.9207 92.8763 54.7471 92.8221 54.6386 92.7027C54.5302 92.5834 54.4651 92.5074 54.4325 92.464L49.138 84.4354V92.3338C49.138 92.4749 49.0837 92.6051 48.9861 92.7136C48.8884 92.8221 48.7582 92.8763 48.5955 92.8763H45.9916C45.8289 92.8763 45.6987 92.8221 45.601 92.7136C45.5034 92.6051 45.4492 92.4749 45.4492 92.3338V78.2295C45.4492 78.0668 45.5034 77.9366 45.601 77.839C45.6987 77.7413 45.8289 77.6871 45.9916 77.6871H48.2917C48.5412 77.6871 48.7148 77.7413 48.8233 77.8498C48.9318 77.9583 48.9969 78.0451 49.0295 78.0993L54.324 86.4317V78.2295C54.324 78.0668 54.3783 77.9366 54.4759 77.839C54.5736 77.7413 54.7037 77.6871 54.8665 77.6871H57.4704C57.6331 77.6871 57.7633 77.7413 57.8609 77.839C57.9586 77.9366 58.0128 78.0668 58.0128 78.2295V92.3121ZM26.9617 78.2295C26.9617 78.0668 27.0159 77.9366 27.1135 77.839C27.2112 77.7413 27.3414 77.6871 27.5041 77.6871H37.6375C37.8003 77.6871 37.9305 77.7413 38.0281 77.839C38.1258 77.9366 38.18 78.0668 38.18 78.2295V80.2692C38.18 80.432 38.1258 80.5622 38.0281 80.6598C37.9305 80.7575 37.8003 80.8117 37.6375 80.8117H30.7156V83.7411H37.1602C37.3229 83.7411 37.4531 83.7953 37.5507 83.9038C37.6484 84.0123 37.7026 84.1425 37.7026 84.3052V86.193C37.7026 86.3341 37.6484 86.4643 37.5507 86.5728C37.4531 86.6813 37.3229 86.7355 37.1602 86.7355H30.7156V89.7517H37.8111C37.9739 89.7517 38.1041 89.8059 38.2017 89.9036C38.2994 90.0012 38.3536 90.1314 38.3536 90.2942V92.3338C38.3536 92.4749 38.2994 92.6051 38.2017 92.7136C38.1041 92.8221 37.9739 92.8763 37.8111 92.8763H27.5041C27.3414 92.8763 27.2112 92.8221 27.1135 92.7136C27.0159 92.6051 26.9617 92.4749 26.9617 92.3338V78.2295ZM56.7977 68.3565C55.7995 68.3565 54.9967 67.9659 54.9967 67.4994C54.9967 67.0329 55.7995 66.6423 56.7977 66.6423C57.7958 66.6423 58.5987 67.022 58.5987 67.4994C58.5987 67.9768 57.7958 68.3565 56.7977 68.3565ZM29.3919 64.7979C28.8929 64.7979 28.4806 64.5266 28.4806 64.1795C28.4806 63.8323 28.8929 63.561 29.3919 63.561C29.891 63.561 30.3033 63.8323 30.3033 64.1795C30.3033 64.5266 29.891 64.7979 29.3919 64.7979ZM20.2567 65.9696C19.2585 65.9696 18.4448 65.7092 18.4448 65.3729C18.4448 65.0366 19.2585 64.7762 20.2567 64.7762C21.2548 64.7762 22.0685 65.0366 22.0685 65.3729C22.0685 65.7092 21.2548 65.9696 20.2567 65.9696ZM12.2932 78.2295C12.2932 78.0668 12.3474 77.9366 12.4451 77.839C12.5427 77.7413 12.6729 77.6871 12.8356 77.6871H18.9113C20.1156 77.6871 21.1572 77.8715 22.0468 78.2404C22.9365 78.6093 23.6309 79.1626 24.1299 79.9004C24.629 80.6381 24.8786 81.5712 24.8786 82.6995C24.8786 83.8279 24.629 84.7284 24.1299 85.4553C23.6309 86.1822 22.9365 86.7138 22.0468 87.061C21.1572 87.4082 20.1156 87.5818 18.9113 87.5818H16.3292V92.3338C16.3292 92.4749 16.2749 92.6051 16.1664 92.7136C16.0579 92.8221 15.9277 92.8763 15.765 92.8763H12.8356C12.6729 92.8763 12.5427 92.8221 12.4451 92.7136C12.3474 92.6051 12.2932 92.4749 12.2932 92.3338V78.2295ZM21.6346 93.3971C21.7322 93.9179 21.9058 94.4169 22.1336 94.8943C21.8733 94.7424 21.602 94.6122 21.3308 94.4929C21.4718 94.1349 21.5695 93.7768 21.6346 93.3971ZM41.4891 99.9285C41.4891 99.7657 41.5433 99.6355 41.641 99.5379C41.7386 99.4402 41.8688 99.386 42.0316 99.386H52.165C52.3277 99.386 52.4579 99.4402 52.5556 99.5379C52.6532 99.6355 52.7074 99.7657 52.7074 99.9285V101.968C52.7074 102.131 52.6532 102.261 52.5556 102.359C52.4579 102.456 52.3277 102.511 52.165 102.511H45.243V105.44H51.6876C51.8503 105.44 51.9805 105.494 52.0782 105.603C52.1758 105.711 52.2301 105.841 52.2301 106.004V107.892C52.2301 108.033 52.1758 108.163 52.0782 108.272C51.9805 108.38 51.8503 108.434 51.6876 108.434H45.243V111.451H52.3386C52.5013 111.451 52.6315 111.505 52.7291 111.603C52.8268 111.7 52.881 111.83 52.881 111.993V114.033C52.881 114.174 52.8268 114.304 52.7291 114.413C52.6315 114.521 52.5013 114.575 52.3386 114.575H42.0316C41.8688 114.575 41.7386 114.521 41.641 114.413C41.5433 114.304 41.4891 114.174 41.4891 114.033V99.9285ZM74.8295 92.2253C74.8621 92.2796 74.8729 92.3447 74.8729 92.4206C74.8729 92.54 74.8295 92.6376 74.7319 92.7353C74.6342 92.8329 74.5257 92.8763 74.3955 92.8763H71.7266C71.5096 92.8763 71.3468 92.8221 71.2383 92.7136C71.1298 92.6051 71.0648 92.5074 71.0322 92.4206L70.1859 90.2074H64.3923L63.5678 92.4206C63.5352 92.5074 63.4701 92.6051 63.3725 92.7136C63.2748 92.8221 63.1012 92.8763 62.8517 92.8763H60.1827C60.0634 92.8763 59.9657 92.8329 59.8681 92.7353C59.7705 92.6376 59.7271 92.54 59.7271 92.4206C59.7271 92.3447 59.7271 92.2796 59.7488 92.2253L64.848 78.2946C64.8914 78.1319 64.9782 77.9908 65.1192 77.8715C65.2603 77.7522 65.4447 77.6871 65.6943 77.6871H68.9057C69.1552 77.6871 69.3397 77.7522 69.4807 77.8715C69.6218 77.9908 69.7086 78.1319 69.752 78.2946L74.8295 92.2253ZM55.8755 29.331C56.3312 29.2442 56.776 28.9838 57.134 28.539C57.4812 28.0941 58.1213 28.0073 58.577 28.3545C59.0218 28.7017 59.1086 29.3418 58.7615 29.7975C58.0779 30.6763 57.1774 31.1862 56.2552 31.3598C54.9207 31.6094 53.4995 31.1537 52.6749 30.047C52.2192 29.4286 51.9697 28.6258 52.0565 27.671C52.1107 27.0634 52.165 26.304 52.0239 25.7072C51.8937 25.1539 52.2409 24.6006 52.7942 24.4704C53.3476 24.3402 53.9009 24.6874 54.0311 25.2407C54.2264 26.0653 54.183 27.0092 54.107 27.8554C54.0745 28.2569 54.1613 28.5932 54.3349 28.821C54.682 29.2876 55.3222 29.4395 55.8755 29.331ZM36.1512 56.9429C36.596 56.9429 36.954 57.0839 36.954 57.2575C36.954 57.4311 36.596 57.5721 36.1512 57.5721C35.7063 57.5721 35.3483 57.4311 35.3483 57.2575C35.3483 57.0839 35.7063 56.9429 36.1512 56.9429ZM34.0789 54.6211C34.5888 54.6211 35.012 54.7838 35.012 54.9791C35.012 55.1744 34.5997 55.3371 34.0789 55.3371C33.5581 55.3371 33.1459 55.1744 33.1459 54.9791C33.1459 54.7838 33.5581 54.6211 34.0789 54.6211ZM23.5224 55.4565H27.1678V56.8235C28.0032 56.8669 28.9363 56.9863 29.9236 57.1707C30.108 56.9646 30.466 56.8127 30.8892 56.8127C31.4967 56.8127 31.985 57.1056 31.985 57.4636C31.985 57.5179 31.9524 57.5613 31.9416 57.6047C32.8855 57.8325 33.8294 58.1038 34.7407 58.375C38.0064 58.234 40.773 58.7439 43.301 59.9482C44.8416 60.6751 47.0223 61.0765 49.0078 61.2827C48.7908 60.827 48.5846 60.3388 48.4002 59.7637C48.0096 58.5377 47.6841 57.008 47.4997 55.0985C47.2502 52.462 46.8921 49.5652 45.9916 46.625C45.1128 43.7174 43.6915 40.7338 41.3264 37.8587C39.6989 35.8841 38.2668 33.3778 37.7243 30.8716C37.2469 28.68 37.4422 26.4884 38.7008 24.6006C41.4023 20.5754 44.2666 20.4561 46.6751 20.3693C48.1073 20.3151 49.2899 20.2717 49.8649 18.59C50.9064 15.5196 52.382 11.6789 52.382 11.668C52.6206 11.0279 53.3259 10.7024 53.966 10.9303C54.6061 11.169 54.9316 11.8742 54.7037 12.5143C54.7037 12.5143 53.1957 16.4743 52.2084 19.382C51.0909 22.6694 49.1271 22.7453 46.7728 22.8321C44.9392 22.8972 42.7585 22.984 40.7622 25.9785C39.9159 27.237 39.8074 28.7776 40.1546 30.3617C40.6103 32.4665 41.8363 34.6147 43.2359 36.3072C45.8397 39.4644 47.3912 42.7301 48.3568 45.9198C49.3224 49.077 49.7021 52.1149 49.9625 54.8706C50.1253 56.5848 50.4074 57.941 50.7545 59.0151C51.1343 60.1869 51.5791 60.9789 52.0131 61.4779C52.5122 61.4888 52.9353 61.4888 53.2499 61.4779L53.2716 62.1723C53.9009 62.3025 54.7471 62.3351 55.908 62.3568C59.4667 62.4002 62.9385 63.062 66.4646 63.1705C67.4519 63.203 68.1679 63.0945 68.6345 62.8775C69.1769 62.628 69.3614 62.1615 69.3288 61.5973C69.3071 61.2067 69.1552 60.8921 68.7755 60.7619C68.5694 60.6859 68.2981 60.6534 67.9401 60.6642C67.517 60.6859 67.224 60.5123 66.9419 60.2303C66.3669 59.6335 65.9004 59.1887 65.4122 58.8524C64.9131 58.5269 64.3381 58.2774 63.4918 58.0495C63.2965 57.9953 63.1229 57.8976 62.9819 57.7783C62.1899 57.1382 61.604 56.715 61.0073 56.3678C60.3889 56.0098 59.7813 55.7277 58.935 55.3805C58.3709 55.1527 58.1973 54.697 58.1647 54.1546C58.1213 53.5578 58.0128 51.4422 58.3817 50.162C58.4685 49.8473 58.6313 49.4133 58.8374 48.8709C59.4775 47.1783 60.5516 44.3249 60.6601 41.2979C60.6927 40.4517 60.6927 39.6705 60.7035 38.911C60.7252 35.5369 60.7578 32.6509 62.3743 29.1574C63.2097 27.3672 63.6871 25.87 64.1645 23.9279C65.3579 19.0782 68.2113 14.337 69.2095 12.6662C69.2854 12.5468 69.3397 12.4492 69.4699 12.2214C69.8062 11.6246 70.5657 11.4185 71.1516 11.7657C71.7483 12.102 71.9436 12.8615 71.6072 13.4473L71.3251 13.9247C70.3704 15.5087 67.6689 20.0113 66.5622 24.5138C66.0523 26.5969 65.5098 28.2786 64.6093 30.1989C63.1989 33.2259 63.1772 35.8515 63.1555 38.9219C63.1555 39.7139 63.1446 40.5385 63.1121 41.363C63.0036 44.8023 61.8318 47.9053 61.1375 49.728C60.9639 50.1945 60.8228 50.5742 60.7469 50.8238C60.5625 51.4856 60.5625 52.6356 60.595 53.3951C61.2243 53.6663 61.7451 53.9267 62.255 54.2197C62.9059 54.5994 63.5461 55.0551 64.3815 55.7277C65.3796 56.0098 66.1065 56.3461 66.7792 56.791C67.3651 57.1816 67.8642 57.6372 68.4283 58.2014C68.8732 58.234 69.2637 58.3099 69.6218 58.4401C70.9671 58.9283 71.7483 60.0784 71.8025 61.4888C71.8785 63.062 71.1407 64.4507 69.676 65.1234C68.8732 65.4922 67.7991 65.6875 66.3995 65.6441C62.8951 65.5357 59.4124 64.8847 55.8863 64.8304C54.8665 64.8196 54.0419 64.787 53.3367 64.7002L53.3584 65.5899C53.3584 65.5899 53.1414 65.5899 52.8593 65.5899C51.1234 65.5899 45.3515 65.4489 41.565 63.6587C41.1419 63.4634 40.7079 63.2898 40.2523 63.1379C40.1546 63.3658 39.7206 63.5393 39.1782 63.5393C38.5597 63.5393 38.0715 63.3224 38.0715 63.0511C38.0715 62.9101 38.2126 62.7799 38.4187 62.6931C35.9884 62.27 33.135 62.4544 29.5655 63.2573C27.8839 63.637 19.3562 65.3946 16.4811 62.7799C15.7216 62.0855 15.3527 61.1199 15.4829 60.1326C15.8518 57.2575 18.9439 55.4673 23.5441 55.4673L23.5224 55.4565ZM40.773 55.0334C39.8834 55.0334 39.1565 54.8055 39.1565 54.5234C39.1565 54.2414 39.8834 54.0135 40.773 54.0135C41.6627 54.0135 42.3896 54.2414 42.3896 54.5234C42.3896 54.8055 41.6627 55.0334 40.773 55.0334ZM41.0117 57.366C41.0117 57.5721 40.5994 57.7349 40.0787 57.7349C39.5579 57.7349 39.1456 57.5721 39.1456 57.366C39.1456 57.1599 39.5579 56.9971 40.0787 56.9971C40.5994 56.9971 41.0117 57.1599 41.0117 57.366ZM44.1689 57.6589C44.1689 57.4094 44.6029 57.2033 45.1345 57.2033C45.6661 57.2033 46.1001 57.4094 46.1001 57.6589C46.1001 57.9085 45.6661 58.1146 45.1345 58.1146C44.6029 58.1146 44.1689 57.9085 44.1689 57.6589ZM14.6041 57.1165C15.1032 57.1165 15.5155 57.3443 15.5155 57.6155C15.5155 57.8868 15.1032 58.1146 14.6041 58.1146C14.105 58.1146 13.6928 57.8868 13.6928 57.6155C13.6928 57.3443 14.105 57.1165 14.6041 57.1165ZM12.8465 60.9572C13.5951 60.9572 14.1918 61.261 14.1918 61.6298C14.1918 61.9987 13.5843 62.3025 12.8465 62.3025C12.1087 62.3025 11.5012 61.9987 11.5012 61.6298C11.5012 61.261 12.1087 60.9572 12.8465 60.9572ZM20.0939 111.906H14.3003L13.4758 114.12C13.4432 114.206 13.3781 114.304 13.2805 114.413C13.1828 114.521 13.0092 114.575 12.7597 114.575H10.0907C9.97138 114.575 9.87374 114.532 9.77609 114.434C9.67845 114.337 9.63505 114.239 9.63505 114.12C9.63505 114.044 9.63505 113.979 9.65675 113.924L14.756 99.9936C14.7994 99.8308 14.8862 99.6898 15.0272 99.5704C15.1683 99.4511 15.3527 99.386 15.6023 99.386H18.8137C19.0632 99.386 19.2477 99.4511 19.3887 99.5704C19.5298 99.6898 19.6166 99.8308 19.66 99.9936L24.7375 113.924C24.7701 113.979 24.7809 114.044 24.7809 114.12C24.7809 114.239 24.7375 114.337 24.6399 114.434C24.5422 114.532 24.4337 114.575 24.3035 114.575H21.6346C21.4176 114.575 21.2548 114.521 21.1463 114.413C21.0378 114.304 20.9727 114.206 20.9402 114.12L20.0939 111.906ZM35.37 114.369C35.2398 114.228 35.1422 114.109 35.0879 113.989L32.6142 109.216H30.4009V114.033C30.4009 114.174 30.3467 114.304 30.2382 114.413C30.1297 114.521 29.9995 114.575 29.8368 114.575H27.0376C26.8749 114.575 26.7447 114.521 26.647 114.413C26.5494 114.304 26.4951 114.174 26.4951 114.033V99.9285C26.4951 99.7657 26.5494 99.6355 26.647 99.5379C26.7447 99.4402 26.8749 99.386 27.0376 99.386H32.9397C34.8167 99.386 36.2922 99.82 37.3663 100.677C38.4404 101.534 38.972 102.76 38.972 104.333C38.972 105.364 38.7225 106.232 38.2342 106.937C37.746 107.642 37.0951 108.185 36.2813 108.543L39.2541 113.881C39.2975 113.968 39.3192 114.044 39.3192 114.12C39.3192 114.239 39.2758 114.337 39.1782 114.434C39.0805 114.532 38.9829 114.575 38.8635 114.575H35.9776C35.7063 114.575 35.5002 114.51 35.37 114.369ZM76.0664 114.434C75.9687 114.532 75.8602 114.575 75.73 114.575H73.0611C72.8441 114.575 72.6813 114.521 72.5728 114.413C72.4643 114.304 72.3992 114.206 72.3667 114.12L71.5204 111.906H65.7268L64.9023 114.12C64.8697 114.206 64.8046 114.304 64.707 114.413C64.6093 114.521 64.4357 114.575 64.1862 114.575H61.5172C61.3979 114.575 61.3002 114.532 61.2026 114.434C61.1049 114.337 61.0615 114.239 61.0615 114.12C61.0615 114.044 61.0615 113.979 61.0832 113.924L66.1825 99.9936C66.2259 99.8308 66.3127 99.6898 66.4537 99.5704C66.5948 99.4511 66.7792 99.386 67.0287 99.386H70.2402C70.4897 99.386 70.6742 99.4511 70.8152 99.5704C70.9563 99.6898 71.043 99.8308 71.0864 99.9936L76.164 113.924C76.1965 113.979 76.2074 114.044 76.2074 114.12C76.2074 114.239 76.164 114.337 76.0664 114.434Z" fill="white"/>
<path d="M66.6165 108.782H70.6525L68.6345 103.053L66.6165 108.782Z" fill="white"/>
<path d="M12.8356 92.8763H15.765C15.9277 92.8763 16.0579 92.8221 16.1664 92.7136C16.2749 92.6051 16.3292 92.4749 16.3292 92.3338V87.5818H18.9113C20.1156 87.5818 21.1572 87.4082 22.0468 87.061C22.9365 86.7138 23.6309 86.1822 24.1299 85.4553C24.629 84.7284 24.8786 83.817 24.8786 82.6995C24.8786 81.582 24.629 80.6381 24.1299 79.9004C23.6309 79.1626 22.9365 78.6093 22.0468 78.2404C21.1572 77.8715 20.1156 77.6871 18.9113 77.6871H12.8356C12.6729 77.6871 12.5427 77.7413 12.4451 77.839C12.3474 77.9366 12.2932 78.0668 12.2932 78.2295V92.3338C12.2932 92.4749 12.3474 92.6051 12.4451 92.7136C12.5427 92.8221 12.6729 92.8763 12.8356 92.8763ZM16.2641 80.7032H18.8029C19.5298 80.7032 20.0505 80.8877 20.3652 81.2674C20.6798 81.6471 20.8426 82.1028 20.8426 82.6561C20.8426 83.3071 20.6581 83.7953 20.2892 84.1099C19.9203 84.4246 19.4213 84.5873 18.8029 84.5873H16.2641V80.7032Z" fill="#F85600"/>
<path d="M27.1135 92.7136C27.2112 92.8221 27.3414 92.8763 27.5041 92.8763H37.8111C37.9739 92.8763 38.1041 92.8221 38.2017 92.7136C38.2994 92.6051 38.3536 92.4749 38.3536 92.3338V90.2942C38.3536 90.1314 38.2994 90.0012 38.2017 89.9036C38.1041 89.8059 37.9739 89.7517 37.8111 89.7517H30.7156V86.7355H37.1602C37.3229 86.7355 37.4531 86.6813 37.5507 86.5728C37.6484 86.4643 37.7026 86.3341 37.7026 86.193V84.3052C37.7026 84.1425 37.6484 84.0123 37.5507 83.9038C37.4531 83.7953 37.3229 83.7411 37.1602 83.7411H30.7156V80.8117H37.6375C37.8003 80.8117 37.9305 80.7575 38.0281 80.6598C38.1258 80.5622 38.18 80.432 38.18 80.2692V78.2295C38.18 78.0668 38.1258 77.9366 38.0281 77.839C37.9305 77.7413 37.8003 77.6871 37.6375 77.6871H27.5041C27.3414 77.6871 27.2112 77.7413 27.1135 77.839C27.0159 77.9366 26.9617 78.0668 26.9617 78.2295V92.3338C26.9617 92.4749 27.0159 92.6051 27.1135 92.7136Z" fill="#F85600"/>
<path d="M30.8024 75.9728C30.7264 76.0488 30.6939 76.1356 30.6939 76.2549C30.6939 76.4828 30.8132 76.6021 31.0411 76.6021H33.1459C33.352 76.6021 33.5039 76.5804 33.6232 76.5262C33.7426 76.4719 33.8511 76.396 33.9704 76.2983L36.8564 73.9331C36.9323 73.8572 36.9649 73.7704 36.9649 73.6728C36.9649 73.3798 36.8238 73.2388 36.5526 73.2388H33.5147C33.3303 73.2388 33.1784 73.2605 33.0808 73.3147C32.9831 73.369 32.8529 73.4775 32.7119 73.6511L30.8024 75.9728Z" fill="#F85600"/>
<path d="M57.4704 77.6871H54.8665C54.7037 77.6871 54.5736 77.7413 54.4759 77.839C54.3783 77.9366 54.324 78.0668 54.324 78.2295V86.4317L49.0295 78.0993C48.9969 78.0451 48.9318 77.9583 48.8233 77.8498C48.7148 77.7413 48.5412 77.6871 48.2917 77.6871H45.9916C45.8289 77.6871 45.6987 77.7413 45.601 77.839C45.5034 77.9366 45.4492 78.0668 45.4492 78.2295V92.3338C45.4492 92.4749 45.5034 92.6051 45.601 92.7136C45.6987 92.8221 45.8289 92.8763 45.9916 92.8763H48.5955C48.7582 92.8763 48.8884 92.8221 48.9861 92.7136C49.0837 92.6051 49.138 92.4749 49.138 92.3338V84.4354L54.4325 92.464C54.4325 92.464 54.5302 92.5834 54.6386 92.7027C54.7471 92.8221 54.9207 92.8763 55.1486 92.8763H57.4704C57.6331 92.8763 57.7633 92.8221 57.8609 92.7136C57.9586 92.6051 58.0128 92.4749 58.0128 92.3121V78.2295C58.0128 78.0668 57.9586 77.9366 57.8609 77.839C57.7633 77.7413 57.6331 77.6871 57.4704 77.6871Z" fill="#F85600"/>
<path d="M69.4807 77.8715C69.3397 77.7522 69.1552 77.6871 68.9057 77.6871H65.6943C65.4447 77.6871 65.2603 77.7522 65.1192 77.8715C64.9782 77.9908 64.8914 78.1319 64.848 78.2946L59.7488 92.2253C59.7379 92.2796 59.7271 92.3447 59.7271 92.4206C59.7271 92.54 59.7705 92.6376 59.8681 92.7353C59.9657 92.8329 60.0634 92.8763 60.1827 92.8763H62.8517C63.1012 92.8763 63.2748 92.8221 63.3725 92.7136C63.4701 92.6051 63.5352 92.5074 63.5678 92.4206L64.3923 90.2074H70.1859L71.0322 92.4206C71.0648 92.5074 71.1298 92.6051 71.2383 92.7136C71.3468 92.8221 71.5096 92.8763 71.7266 92.8763H74.3955C74.5257 92.8763 74.6342 92.8329 74.7319 92.7353C74.8295 92.6376 74.8729 92.54 74.8729 92.4206C74.8729 92.3447 74.8621 92.2796 74.8295 92.2253L69.752 78.2946C69.7086 78.1319 69.6218 77.9908 69.4807 77.8715ZM65.282 87.0827L67.3 81.3542L69.318 87.0827H65.282Z" fill="#F85600"/>
<path d="M21.1463 114.413C21.2548 114.521 21.4176 114.575 21.6346 114.575H24.3035C24.4337 114.575 24.5422 114.532 24.6399 114.434C24.7375 114.337 24.7809 114.239 24.7809 114.12C24.7809 114.044 24.7701 113.979 24.7375 113.924L19.66 99.9936C19.6166 99.8308 19.5298 99.6898 19.3887 99.5704C19.2477 99.4511 19.0632 99.386 18.8137 99.386H15.6023C15.3527 99.386 15.1683 99.4511 15.0272 99.5704C14.8862 99.6898 14.7994 99.8308 14.756 99.9936L9.65675 113.924C9.6459 113.979 9.63505 114.044 9.63505 114.12C9.63505 114.239 9.67845 114.337 9.77609 114.434C9.87374 114.532 9.97138 114.575 10.0907 114.575H12.7597C13.0092 114.575 13.1828 114.521 13.2805 114.413C13.3781 114.304 13.4432 114.206 13.4758 114.12L14.3003 111.906H20.0939L20.9402 114.12C20.9727 114.206 21.0378 114.304 21.1463 114.413ZM15.19 108.782L17.208 103.053L19.226 108.782H15.19Z" fill="#F85600"/>
<path d="M38.8635 114.575C38.9829 114.575 39.0805 114.532 39.1782 114.434C39.2758 114.337 39.3192 114.239 39.3192 114.12C39.3192 114.044 39.2975 113.968 39.2541 113.881L36.2813 108.543C37.0951 108.185 37.746 107.642 38.2342 106.937C38.7225 106.232 38.972 105.364 38.972 104.333C38.972 102.76 38.4404 101.534 37.3663 100.677C36.2922 99.82 34.8167 99.386 32.9397 99.386H27.0376C26.8749 99.386 26.7447 99.4402 26.647 99.5379C26.5494 99.6355 26.4951 99.7657 26.4951 99.9285V114.033C26.4951 114.174 26.5494 114.304 26.647 114.413C26.7447 114.521 26.8749 114.575 27.0376 114.575H29.8368C29.9995 114.575 30.1297 114.521 30.2382 114.413C30.3467 114.304 30.4009 114.174 30.4009 114.033V109.216H32.6142L35.0879 113.989C35.1422 114.109 35.2398 114.228 35.37 114.369C35.5002 114.51 35.7063 114.575 35.9776 114.575H38.8635ZM34.4261 105.635C34.0898 105.972 33.5798 106.134 32.8963 106.134H30.4009V102.402H32.8963C33.6015 102.402 34.1223 102.576 34.4478 102.923C34.7733 103.27 34.936 103.726 34.936 104.29C34.936 104.854 34.7624 105.299 34.4261 105.635Z" fill="#F85600"/>
<path d="M42.0316 114.575H52.3386C52.5013 114.575 52.6315 114.521 52.7291 114.413C52.8268 114.304 52.881 114.174 52.881 114.033V111.993C52.881 111.83 52.8268 111.7 52.7291 111.603C52.6315 111.505 52.5013 111.451 52.3386 111.451H45.243V108.434H51.6876C51.8503 108.434 51.9805 108.38 52.0782 108.272C52.1758 108.163 52.2301 108.033 52.2301 107.892V106.004C52.2301 105.841 52.1758 105.711 52.0782 105.603C51.9805 105.494 51.8503 105.44 51.6876 105.44H45.243V102.511H52.165C52.3277 102.511 52.4579 102.456 52.5556 102.359C52.6532 102.261 52.7074 102.131 52.7074 101.968V99.9285C52.7074 99.7657 52.6532 99.6355 52.5556 99.5379C52.4579 99.4402 52.3277 99.386 52.165 99.386H42.0316C41.8688 99.386 41.7386 99.4402 41.641 99.5379C41.5433 99.6355 41.4891 99.7657 41.4891 99.9285V114.033C41.4891 114.174 41.5433 114.304 41.641 114.413C41.7386 114.521 41.8688 114.575 42.0316 114.575Z" fill="#F85600"/>
<path d="M59.2063 114.413C59.3148 114.304 59.369 114.174 59.369 114.033V99.9285C59.369 99.7657 59.3148 99.6355 59.2063 99.5379C59.0978 99.4402 58.9676 99.386 58.8048 99.386H55.8972C55.7344 99.386 55.6043 99.4402 55.5066 99.5379C55.409 99.6355 55.3547 99.7657 55.3547 99.9285V114.033C55.3547 114.174 55.409 114.304 55.5066 114.413C55.6043 114.521 55.7344 114.575 55.8972 114.575H58.8048C58.9676 114.575 59.0978 114.521 59.2063 114.413Z" fill="#F85600"/>
<path d="M71.0864 99.9936C71.043 99.8308 70.9563 99.6898 70.8152 99.5704C70.6742 99.4511 70.4897 99.386 70.2402 99.386H67.0287C66.7792 99.386 66.5948 99.4511 66.4537 99.5704C66.3127 99.6898 66.2259 99.8308 66.1825 99.9936L61.0832 113.924C61.0724 113.979 61.0615 114.044 61.0615 114.12C61.0615 114.239 61.1049 114.337 61.2026 114.434C61.3002 114.532 61.3979 114.575 61.5172 114.575H64.1862C64.4357 114.575 64.6093 114.521 64.707 114.413C64.8046 114.304 64.8697 114.206 64.9023 114.12L65.7268 111.906H71.5204L72.3667 114.12C72.3992 114.206 72.4643 114.304 72.5728 114.413C72.6813 114.521 72.8441 114.575 73.0611 114.575H75.73C75.8602 114.575 75.9687 114.532 76.0664 114.434C76.164 114.337 76.2074 114.239 76.2074 114.12C76.2074 114.044 76.1965 113.979 76.164 113.924L71.0864 99.9936ZM66.6165 108.782L68.6345 103.053L70.6525 108.782H66.6165Z" fill="#F85600"/>
<path d="M3.58105 38.629C3.78719 38.9978 4.09097 39.3993 4.38391 39.6922C4.83958 40.1587 5.4797 40.4951 6.07642 40.7555C6.75994 41.0592 7.46516 41.3305 8.17037 41.58C8.26802 41.6126 8.48501 41.6885 8.56095 41.7102C8.78879 41.8296 9.23362 42.0791 8.85389 41.7862C10.3945 42.9688 12.4125 43.1315 13.7036 41.439C15.0055 39.7356 14.2895 37.837 12.7488 36.6761C11.7181 35.8949 10.4379 35.4718 9.17937 35.2114C8.91899 35.1571 8.6586 35.1137 8.40906 35.0486C8.40906 35.0486 7.72554 34.8859 7.84489 34.9293C7.33496 34.7557 6.87929 34.5387 6.35851 34.4736C4.76364 34.0288 2.78903 35.4501 3.25556 37.4247C3.12537 36.8822 3.47255 38.4228 3.5919 38.629H3.58105Z" fill="#FFA901"/>
<path d="M17.1646 26.5644C19.0741 25.9351 21.0812 25.87 22.8606 24.861C24.6399 23.852 25.063 21.4977 23.8587 19.9028C22.611 18.2754 20.2892 18.1452 18.8137 19.5448C19.3996 18.9914 18.9113 19.4471 18.6944 19.5773C18.6944 19.5773 18.6835 19.5773 18.6727 19.5881C18.6727 19.5881 18.651 19.5881 18.6401 19.5881C18.217 19.6858 17.7939 19.8485 17.3924 19.9896C15.9603 20.4887 14.8645 21.1613 13.9857 22.4199C12.597 24.4053 14.9621 27.2804 17.1646 26.5644Z" fill="#FFA901"/>
<path d="M33.3303 37.544C33.9704 36.4265 33.7426 34.9835 32.8638 34.0722C32.7336 33.9311 32.5925 33.801 32.4623 33.6599C31.5184 32.7052 30.0104 32.5316 28.8386 33.1717C28.3178 33.4538 27.8405 33.801 27.3739 34.1698C27.0701 34.4085 26.7772 34.6472 26.4843 34.8859C26.5168 34.8533 26.0937 35.168 26.0394 35.2005C25.855 35.3199 25.6706 35.4392 25.4753 35.5477C25.3559 35.6237 25.2366 35.6888 25.1172 35.7539C23.8262 35.9383 22.8389 36.8931 22.6436 38.2058C22.4591 39.5078 23.3379 41.0809 24.7267 41.3305C26.4517 41.6451 28.2419 41.0701 29.8042 40.1262C30.3684 39.7899 30.9 39.3993 31.3882 38.987C32.2019 38.7917 32.9614 38.2275 33.3411 37.5657L33.3303 37.544Z" fill="#FFA901"/>
</svg>
