<svg width="142" height="120" viewBox="0 0 142 120" fill="none" xmlns="http://www.w3.org/2000/svg">
<path d="M84.9524 31.4358L63.4312 27.8958L63.7234 28.6644L84.4328 32.0745L84.9524 31.4358Z" fill="white"/>
<path d="M76.4435 55.7609H70.0131V56.2156H76.4435V55.7609Z" fill="white"/>
<path d="M84.4003 55.7501C84.2704 55.7501 84.1405 55.7609 84.0106 55.7609H78.0674V56.2156H84.5302L84.4003 55.7501Z" fill="white"/>
<path d="M87.9944 67.9722H89.8889L85.6453 58.3807L83.74 58.3915L87.9944 67.9722Z" fill="white"/>
<path d="M74.1701 32.5941L73.2716 32.4426L69.8832 53.585H70.8142L74.1701 32.5941Z" fill="white"/>
<path d="M60.3242 56.2156V55.7609H53.8722L53.9804 56.2156H60.3242Z" fill="white"/>
<path d="M68.3893 55.7609H61.9589V56.2156H68.3893V55.7609Z" fill="white"/>
<path d="M71.8318 61.0221L70.6843 68.7408H85.9592L82.5275 61.0221H71.8318Z" fill="white"/>
<path d="M77.223 13.2055C77.1472 13.108 77.0498 13.0431 76.9307 13.0214C76.8116 12.9998 76.6925 13.0214 76.5951 13.0972C76.4977 13.173 76.4327 13.2704 76.411 13.4003L76.3244 13.9308C76.411 13.9416 76.4868 13.9524 76.5734 13.9633C76.6059 13.9633 76.6276 13.9633 76.66 13.9741C76.6925 13.9741 76.7358 13.9849 76.7791 13.9957C76.8441 14.0066 76.9198 14.0174 76.9956 14.0282C77.0714 14.039 77.1472 14.0607 77.223 14.0715L77.3096 13.5302C77.3312 13.4112 77.3096 13.2921 77.2338 13.1946L77.223 13.2055Z" fill="white"/>
<path d="M51.1549 56.9842C51.5338 56.7677 51.9452 56.5945 52.3674 56.4646L52.2483 55.9882C51.8694 56.0965 51.5122 56.2589 51.1766 56.4537L48.0588 58.2616L48.2861 58.6513L51.1549 56.995V56.9842Z" fill="white"/>
<path d="M67.5232 68.7408H68.4867L69.6342 61.0221H68.7032L67.5232 68.7408Z" fill="white"/>
<path d="M77.8617 15.9552C77.4828 15.8144 77.0822 15.7062 76.6817 15.6304C76.66 15.6304 76.6384 15.6304 76.6167 15.6196C76.5734 15.6196 76.541 15.6088 76.5085 15.5979C76.4544 15.5979 76.4002 15.5763 76.3353 15.5763C75.9239 15.5221 75.5125 15.4897 75.112 15.5005C70.6085 15.5655 66.0618 19.4194 63.0523 25.6224L86.035 29.4114C85.1798 22.5588 82.1053 17.4708 77.8617 15.9552Z" fill="white"/>
<path d="M100.552 43.9393L100.227 43.6146L96.5683 46.819L96.9039 47.1545L100.552 43.9393Z" fill="white"/>
<path d="M95.6806 48.2263L95.345 47.8907L91.4803 51.2683L91.8267 51.6255L95.6806 48.2263Z" fill="white"/>
<path d="M88.2001 54.8191L90.6034 52.6973L90.2462 52.34L88.1027 54.2128C87.4856 54.7541 86.782 55.1547 86.0025 55.4253L86.1541 55.9558C86.9119 55.7176 87.6155 55.3279 88.2001 54.8082V54.8191Z" fill="white"/>
<path d="M43.5337 67.9722H45.0818V62.9924L43.5337 63.8909V67.9722Z" fill="white"/>
<path d="M54.3377 58.8462H81.564L81.3692 58.4023H54.0454C53.4283 58.3915 52.8112 58.5539 52.2808 58.857L47.2577 61.7366V62.2887L52.2591 59.3983C52.887 59.0302 53.6123 58.8354 54.3485 58.8354L54.3377 58.8462Z" fill="white"/>
<path d="M41.2079 62.1915L36.644 64.8307L36.8716 65.2243L41.4355 62.5851L41.2079 62.1915Z" fill="white"/>
<path d="M45.0818 60.4809L46.868 59.4416L46.6407 59.0519L42.6135 61.3794L42.8409 61.7691C43.3713 61.466 44.6596 60.719 45.0709 60.4809H45.0818Z" fill="white"/>
<path d="M66.5056 61.0221H54.3377C53.9912 61.0221 53.6448 61.1087 53.3417 61.2928L47.2577 64.8111V68.2969C47.2577 68.4593 47.2361 68.6001 47.1928 68.7516H65.3256L66.5056 61.033V61.0221Z" fill="white"/>
<path d="M76.3136 13.9308L76.4002 13.4003C76.4219 13.2812 76.4868 13.173 76.5843 13.0972C76.6817 13.0323 76.8008 12.9998 76.9198 13.0214C77.0389 13.0431 77.1472 13.108 77.2121 13.2055C77.2879 13.3029 77.3096 13.422 77.2879 13.5411L77.2013 14.0823C77.5694 14.1473 77.9375 14.2123 78.3055 14.288C78.6519 14.3638 78.9875 14.4504 79.3231 14.537L79.4314 13.8983C79.5396 13.2055 79.3881 12.5126 78.9767 11.9389C78.5653 11.3651 77.9591 10.9862 77.2663 10.878C76.5734 10.7697 75.8806 10.9213 75.3068 11.3326C74.7331 11.744 74.3542 12.3502 74.2459 13.0431L74.1377 13.6818C74.4841 13.7143 74.8413 13.7359 75.1878 13.7792C75.5558 13.8225 75.9239 13.8767 76.3028 13.9308H76.3136Z" fill="#FFA901"/>
<path d="M75.112 15.5005C75.5125 15.5005 75.9239 15.5221 76.3353 15.5763C76.3894 15.5763 76.4435 15.5979 76.5085 15.5979C76.541 15.5979 76.5734 15.6088 76.6167 15.6196C76.6384 15.6196 76.66 15.6196 76.6817 15.6304C77.0931 15.7062 77.4828 15.8144 77.8617 15.9552C82.1053 17.4599 85.169 22.5588 86.035 29.4114L100.487 31.793C100.476 31.7389 100.466 31.6848 100.455 31.6306C97.4235 23.414 89.3909 16.9403 79.3556 14.537C79.02 14.4504 78.6736 14.3638 78.338 14.288C77.9699 14.2122 77.591 14.1365 77.2338 14.0823C77.158 14.0715 77.0822 14.0499 77.0065 14.039C76.9307 14.0282 76.8549 14.0174 76.7899 14.0066C76.7466 14.0066 76.7033 13.9957 76.6709 13.9849C76.6384 13.9849 76.6167 13.9849 76.5843 13.9741C76.4977 13.9633 76.4219 13.9524 76.3353 13.9416C75.9672 13.8875 75.5883 13.8334 75.2202 13.7901C74.8738 13.7467 74.5166 13.7251 74.1701 13.6926C63.8967 12.7616 54.2077 16.3124 48.7083 23.1217C48.6759 23.165 48.6542 23.2191 48.6217 23.2625L63.0739 25.6441C66.0834 19.4302 70.6193 15.5871 75.1336 15.5221L75.112 15.5005Z" fill="#F85600"/>
<path d="M48.2753 25.3951C48.2753 25.3951 48.2861 25.4817 48.3078 25.525L48.979 27.3112C49.1847 27.8742 49.6826 28.2747 50.278 28.3721L59.0035 29.8119C59.5881 29.9094 60.1943 29.682 60.5732 29.2165L61.2769 28.3613L60.9413 27.4844L48.2645 25.3951H48.2753Z" fill="#F85600"/>
<path d="M86.8253 32.5725L87.215 33.6117C87.4207 34.1747 87.9187 34.5752 88.5141 34.6726L97.2395 36.1124C97.3261 36.1233 97.4235 36.1341 97.5101 36.1341C98.0081 36.1341 98.4844 35.9067 98.8092 35.517L100.022 34.0447C100.022 34.0447 100.065 33.969 100.097 33.9257L87.4207 31.8363L86.8253 32.5616V32.5725Z" fill="#F85600"/>
<path d="M35.2738 66.8138C35.696 67.55 36.7244 67.8206 37.4605 67.3984L41.3686 65.1467V68.2969C41.3686 68.4593 41.3902 68.6001 41.4335 68.7516H36.8218C36.2264 68.7516 35.7393 69.2388 35.7393 69.8342C35.7393 70.4296 36.2264 70.9167 36.8218 70.9167H100.368C100.964 70.9167 101.451 70.4296 101.451 69.8342C101.451 69.2388 100.964 68.7516 100.368 68.7516H91.9783C92.1623 68.232 92.1515 67.6691 91.9133 67.1711L87.7346 57.6987C88.4383 57.3847 89.077 56.9625 89.6508 56.4537L102.457 45.1735C102.793 44.8812 102.988 44.4698 102.999 44.0259C103.01 43.5821 102.847 43.1599 102.533 42.846L101.407 41.7201C100.812 41.1247 99.8485 41.0922 99.2206 41.6443L86.6954 52.5998C85.9592 53.2494 85.0066 53.6066 84.0323 53.6066H73.0335L76.3461 32.9622L84.2271 34.2613C84.92 34.3695 85.6128 34.1097 86.0458 33.5684L86.8469 32.5833L87.4423 31.858L100.119 33.9473L100.357 33.9906C100.953 34.0881 101.516 33.6767 101.602 33.0921C101.646 32.8106 101.581 32.5183 101.418 32.2802C101.245 32.042 100.996 31.8905 100.715 31.8363L100.509 31.8039L48.6217 23.2516L48.4594 23.23C48.1779 23.1867 47.8856 23.2516 47.6474 23.414C47.4093 23.5872 47.2577 23.8362 47.2036 24.1177C47.1062 24.7131 47.5067 25.2652 48.1021 25.3734L48.2861 25.4059L60.9629 27.4953L61.2985 28.3721L61.7424 29.5521C61.9913 30.2017 62.5651 30.678 63.2471 30.7862L71.139 32.0853L67.6964 53.585H53.7314C52.4648 53.585 51.2091 53.9205 50.1048 54.5593L35.0681 63.2414C34.2995 63.6852 34.0397 64.6595 34.4835 65.4282L35.2846 66.8138H35.2738ZM45.0818 67.9722H43.5337V63.8909L45.0818 63.0032V67.983V67.9722ZM68.4867 68.7408H67.5341L68.714 61.0221H69.645L68.4975 68.7408H68.4867ZM70.6843 68.7408L71.8318 61.0221H82.5275L85.9592 68.7408H70.6843ZM100.227 43.6146L100.541 43.9285L96.8931 47.1437L96.5575 46.8081L100.217 43.6037L100.227 43.6146ZM95.345 47.8907L95.6806 48.2263L91.8375 51.6147L91.4911 51.2683L95.3558 47.8907H95.345ZM88.1027 54.2237L90.2462 52.3508L90.6034 52.7081L88.2001 54.8299C87.6155 55.3495 86.9119 55.7392 86.1541 55.9774L86.0025 55.447C86.782 55.1871 87.4856 54.7758 88.1027 54.2345V54.2237ZM89.8889 67.9722H87.9944L83.74 58.3915H85.6453L89.8889 67.9722ZM78.0674 55.7609H84.0106C84.1405 55.7609 84.2704 55.7609 84.4003 55.7501L84.5302 56.2156H78.0674V55.7609ZM76.4435 55.7609V56.2156H70.0131V55.7609H76.4435ZM63.7234 28.6644L63.4312 27.8958L84.9524 31.4358L84.4328 32.0745L63.7234 28.6644ZM73.2716 32.4426L74.1701 32.5941L70.8034 53.585H69.8832L73.2716 32.4426ZM61.9589 55.7609H68.3893V56.2156H61.9589V55.7609ZM60.335 55.7609V56.2156H53.9912L53.883 55.7609H60.335ZM51.1766 56.4429C51.5122 56.248 51.8694 56.0965 52.2483 55.9774L52.3674 56.4537C51.9344 56.5836 51.5338 56.7569 51.1549 56.9734L48.2861 58.6297L48.0588 58.24L51.1766 56.4321V56.4429ZM47.2577 61.7475L52.2808 58.8678C52.8221 58.5539 53.4283 58.3915 54.0454 58.3915H81.3692L81.564 58.8462H54.3377C53.6123 58.8462 52.887 59.041 52.2483 59.4091L47.2469 62.2996V61.7475H47.2577ZM47.2577 68.2861V64.8003L53.3417 61.2819C53.6448 61.1087 53.9912 61.0113 54.3377 61.0113H66.5056L65.3256 68.73H47.1928C47.2252 68.5892 47.2577 68.4377 47.2577 68.2753V68.2861ZM46.6407 59.0627L46.868 59.4524L45.0818 60.4809C44.6704 60.719 43.3821 61.466 42.8517 61.7691L42.6244 61.3794L46.6515 59.0519L46.6407 59.0627ZM41.2062 62.2021L41.4335 62.5919L36.8651 65.2333L36.6378 64.8436L41.2062 62.2021Z" fill="#FFA901"/>
<path d="M51.2848 84.308H53.7747C54.4567 84.308 54.9655 84.1456 55.3011 83.81C55.6367 83.4744 55.8099 83.0306 55.8099 82.4677C55.8099 81.9047 55.6475 81.4501 55.3228 81.1036C54.998 80.7572 54.4784 80.584 53.7747 80.584H51.2848V84.308Z" fill="white"/>
<path d="M115.297 83.81C115.632 83.4744 115.805 83.0306 115.805 82.4677C115.805 81.9047 115.643 81.4501 115.318 81.1036C114.993 80.7572 114.474 80.584 113.77 80.584H111.28V84.308H113.77C114.452 84.308 114.961 84.1456 115.297 83.81Z" fill="white"/>
<path d="M141.137 90.1213L136.147 76.4378C135.8 75.3985 135.194 74.4675 134.35 73.7206C133.224 72.7138 131.741 72.1617 130.171 72.1617H126.967C125.397 72.1617 123.903 72.7138 122.788 73.7206C122.42 74.0562 122.095 74.4242 121.814 74.8248C121.749 74.7707 121.684 74.6949 121.608 74.6407C119.562 72.9953 116.931 72.1617 113.803 72.1617H112.027C112.179 71.4039 112.265 70.6244 112.265 69.8233C112.265 64.443 108.682 59.8854 103.778 58.4132L109.592 53.2927C112.157 51.0409 113.684 47.7933 113.803 44.3724C113.889 41.7634 113.131 39.1869 111.681 37.0326C111.941 36.3398 112.136 35.6145 112.255 34.8567C112.774 31.7064 112.038 28.5453 110.198 25.9797C109.927 25.6008 109.635 25.2327 109.321 24.8863C105.229 16.4207 97.6076 9.68715 87.9944 5.91984C87.9295 5.82241 87.8537 5.72498 87.7887 5.61673C85.6886 2.69381 82.5816 0.766858 78.9984 0.17145C75.4584 -0.391481 71.9076 0.44209 69.0172 2.5206C68.9197 2.58556 68.8223 2.66134 68.7249 2.73712C60.216 3.12684 52.3349 5.89819 46.1318 10.629C46.9329 11.3326 47.3984 12.3936 47.2361 13.5735C46.9654 15.5546 45.006 16.9187 43.0357 16.3665C42.1264 16.1176 41.3253 15.6845 40.5458 15.2082C38.3915 17.0269 36.9734 19.5276 36.5079 22.3315C36.3347 23.3491 36.3239 24.345 36.4105 25.3301C36.5945 25.4167 36.7677 25.5142 36.9409 25.6441C37.0708 25.6874 37.2116 25.7199 37.3415 25.7523C37.558 25.8065 37.7637 25.8606 37.9802 25.9039C38.0343 25.9147 38.5539 25.9905 38.5106 25.9905C39.4741 26.0988 40.4376 26.1745 41.3794 26.4452C42.646 26.8241 43.5878 28.0041 43.5878 29.3464C43.5878 29.5413 43.5878 29.7253 43.5878 29.9202C43.5662 31.1868 42.7001 32.3668 41.466 32.7024C40.8706 32.8648 40.1453 32.7998 39.5174 32.54C41.3361 35.9609 44.6596 38.4183 48.5243 39.0462L57.2497 40.486C57.7044 40.5618 58.1699 40.6159 58.6246 40.6375C58.6787 40.6592 58.7328 40.6808 58.787 40.7025L58.4622 42.7485H53.7206C50.5487 42.7485 47.4309 43.5821 44.6812 45.1735L29.6336 53.8556C26.7649 55.5119 24.708 58.1967 23.8528 61.401C23.03 64.4972 23.4089 67.7232 24.9245 70.5162C24.957 71.0033 25.0219 71.4688 25.0977 71.9343C25.0869 71.9343 25.0761 71.9343 25.0652 71.9343C23.095 71.9343 21.2979 72.2808 19.7174 72.9736C19.6524 73.0061 19.5875 73.0386 19.5225 73.071C18.5807 72.4865 17.4981 72.1509 16.3506 72.1509H6.25034C4.65898 72.1509 3.16505 72.7679 2.02836 73.8938C0.913324 75.0088 0.296265 76.5136 0.296265 78.1049V92.1782C0.296265 93.6938 0.870021 95.1444 1.88763 96.2378C3.02432 97.4611 4.57238 98.1323 6.25034 98.1323H9.33564C9.17326 98.3488 9.00005 98.5653 8.84849 98.8035C7.80923 100.471 7.22465 102.43 7.12722 104.617C7.12722 104.66 7.12722 104.703 7.12722 104.736C7.11639 105.396 7.10557 106.089 7.10557 106.814C7.10557 107.54 7.10557 108.222 7.12722 108.85C7.12722 108.893 7.12722 108.925 7.12722 108.958C7.22465 111.177 7.80923 113.147 8.84849 114.815C9.96352 116.59 11.5224 117.954 13.4818 118.842C15.1706 119.61 17.1084 120 19.2302 120C20.6917 120 22.099 119.805 23.3981 119.426C24.6647 119.058 25.823 118.495 26.8515 117.781C27.4469 118.203 28.0639 118.582 28.7568 118.885C30.4239 119.621 32.3292 120 34.4077 120C36.4862 120 38.3915 119.621 40.0587 118.896C40.2644 118.809 40.4484 118.69 40.6433 118.593C41.6609 119.361 42.8842 119.794 44.1832 119.794H46.7814C48.4269 119.794 49.9533 119.145 51.09 117.954C51.1116 117.976 51.1441 118.008 51.1658 118.03C52.2916 119.166 53.7964 119.783 55.3986 119.783H57.9751C58.6895 119.783 59.3824 119.643 60.0211 119.405C60.6814 119.643 61.3743 119.783 62.1104 119.783H65.0333C66.6355 119.783 68.1403 119.156 69.2662 118.03C70.1322 117.164 70.6843 116.059 70.9008 114.879C71.1065 116.005 71.6153 117.045 72.3947 117.878C73.5314 119.101 75.0795 119.773 76.7575 119.773H86.717C87.2258 119.773 87.7238 119.708 88.2001 119.578C88.6764 119.697 89.1744 119.773 89.6832 119.773H99.9675C101.234 119.773 102.425 119.383 103.41 118.679C104.406 119.383 105.608 119.773 106.853 119.773H109.711C110.512 119.773 111.269 119.621 111.984 119.329C112.688 119.621 113.445 119.773 114.214 119.773H116.877C118.62 119.773 120.211 119.112 121.316 117.921C121.348 117.954 121.37 117.986 121.402 118.008C122.528 119.145 124.065 119.762 125.722 119.762H128.385C129.965 119.762 131.448 119.145 132.553 118.041C133.668 116.926 134.274 115.453 134.274 113.894C134.274 113.158 134.133 112.422 133.862 111.74L128.872 98.0565C128.71 97.5585 128.482 97.093 128.201 96.6492C128.341 96.5301 128.482 96.4002 128.601 96.2595C128.634 96.2919 128.655 96.3244 128.688 96.3461C129.814 97.4827 131.351 98.0998 133.007 98.0998H135.67C137.251 98.0998 138.734 97.4827 139.838 96.3785C140.953 95.2635 141.56 93.7912 141.56 92.2323C141.56 91.4962 141.419 90.7601 141.148 90.078L141.137 90.1213ZM104.503 86.9494C104.503 88.3243 104.233 89.4502 103.702 90.3379C103.172 91.2256 102.414 91.8859 101.451 92.3081C100.487 92.7303 99.3505 92.9468 98.0514 92.9468C96.7523 92.9468 95.594 92.7303 94.6197 92.3081C93.6454 91.8859 92.8876 91.2256 92.3572 90.3379C91.8267 89.4502 91.5561 88.3243 91.5561 86.9494V78.1158C91.5561 77.9534 91.6102 77.8235 91.7076 77.726C91.805 77.6286 91.935 77.5745 92.0973 77.5745H94.8903C95.0527 77.5745 95.1826 77.6286 95.2909 77.726C95.3991 77.8235 95.4533 77.9534 95.4533 78.1158V86.9278C95.4533 87.8696 95.6806 88.5733 96.1245 89.0388C96.5683 89.5043 97.207 89.7425 98.0298 89.7425C98.8525 89.7425 99.4696 89.5043 99.9242 89.0388C100.379 88.5733 100.606 87.8696 100.606 86.9278V78.1158C100.606 77.9534 100.66 77.8235 100.769 77.726C100.877 77.6286 101.007 77.5745 101.148 77.5745H103.962C104.103 77.5745 104.233 77.6286 104.341 77.726C104.449 77.8235 104.503 77.9534 104.503 78.1158V86.9494ZM47.5392 77.726C47.6366 77.6286 47.7665 77.5745 47.9289 77.5745H53.818C55.6908 77.5745 57.1631 78.0075 58.2349 78.8627C59.3066 79.7179 59.8371 80.9412 59.8371 82.5109C59.8371 83.5394 59.5881 84.4054 59.1009 85.1091C58.6138 85.8128 57.9642 86.354 57.1523 86.7113L60.1185 92.0375C60.1618 92.1241 60.1835 92.1999 60.1835 92.2756C60.1835 92.3947 60.1402 92.4921 60.0427 92.5896C59.9453 92.687 59.8479 92.7303 59.7288 92.7303H56.8492C56.5786 92.7303 56.3729 92.6654 56.243 92.5246C56.113 92.3839 56.0156 92.2648 55.9615 92.1457L53.4933 87.3825H51.2848V92.189C51.2848 92.3298 51.2307 92.4597 51.1224 92.5679C51.0142 92.6762 50.8843 92.7303 50.7219 92.7303H47.9289C47.7665 92.7303 47.6366 92.6762 47.5392 92.5679C47.4417 92.4597 47.3876 92.3298 47.3876 92.189V78.1158C47.3876 77.9534 47.4417 77.8235 47.5392 77.726ZM62.2187 78.1158C62.2187 77.9534 62.2728 77.8235 62.3702 77.726C62.4677 77.6286 62.5976 77.5745 62.76 77.5745H65.553C65.7154 77.5745 65.8453 77.6286 65.9535 77.726C66.0618 77.8235 66.1159 77.9534 66.1159 78.1158V86.9278C66.1159 87.8696 66.3432 88.5733 66.7871 89.0388C67.2309 89.5043 67.8697 89.7425 68.6924 89.7425C69.5151 89.7425 70.1322 89.5043 70.5869 89.0388C71.0415 88.5733 71.2689 87.8696 71.2689 86.9278V78.1158C71.2689 77.9534 71.323 77.8235 71.4313 77.726C71.5395 77.6286 71.6694 77.5745 71.8102 77.5745H74.6248C74.7656 77.5745 74.8955 77.6286 75.0037 77.726C75.112 77.8235 75.1661 77.9534 75.1661 78.1158V86.9494C75.1661 88.3243 74.8955 89.4502 74.365 90.3379C73.8345 91.2256 73.0768 91.8859 72.1133 92.3081C71.1498 92.7303 70.0131 92.9468 68.714 92.9468C67.415 92.9468 66.2566 92.7303 65.2823 92.3081C64.308 91.8859 63.5502 91.2256 63.0198 90.3379C62.4893 89.4502 62.2187 88.3243 62.2187 86.9494V78.1158ZM76.9848 78.1158C76.9848 77.9534 77.0389 77.8235 77.1364 77.726C77.2338 77.6286 77.3637 77.5745 77.5261 77.5745H89.1744C89.3368 77.5745 89.4667 77.6286 89.5641 77.726C89.6616 77.8235 89.7157 77.9534 89.7157 78.1158V80.4324C89.7157 80.5732 89.6616 80.7031 89.5641 80.8113C89.4667 80.9196 89.3368 80.9737 89.1744 80.9737H85.3205V92.189C85.3205 92.3298 85.2664 92.4597 85.169 92.5679C85.0715 92.6762 84.9416 92.7303 84.7792 92.7303H81.9213C81.7589 92.7303 81.629 92.6762 81.5316 92.5679C81.4341 92.4597 81.38 92.3298 81.38 92.189V80.9737H77.5261C77.3637 80.9737 77.2338 80.9196 77.1364 80.8113C77.0389 80.7031 76.9848 80.5732 76.9848 80.4324V78.1158ZM32.6865 78.1158C32.6865 77.9534 32.7406 77.8235 32.838 77.726C32.9354 77.6286 33.0653 77.5745 33.2277 77.5745H44.8761C45.0385 77.5745 45.1684 77.6286 45.2658 77.726C45.3632 77.8235 45.4174 77.9534 45.4174 78.1158V80.4324C45.4174 80.5732 45.3632 80.7031 45.2658 80.8113C45.1684 80.9196 45.0385 80.9737 44.8761 80.9737H41.0222V92.189C41.0222 92.3298 40.968 92.4597 40.8706 92.5679C40.7732 92.6762 40.6433 92.7303 40.4809 92.7303H37.6229C37.4605 92.7303 37.3306 92.6762 37.2332 92.5679C37.1358 92.4597 37.0816 92.3298 37.0816 92.189V80.9737H33.2277C33.0653 80.9737 32.9354 80.9196 32.838 80.8113C32.7406 80.7031 32.6865 80.5732 32.6865 80.4324V78.1158ZM118.23 78.8627C119.302 79.7179 119.833 80.9412 119.833 82.5109C119.833 83.5394 119.584 84.4054 119.096 85.1091C118.609 85.8128 117.96 86.354 117.148 86.7113L120.114 92.0375C120.157 92.1241 120.179 92.1999 120.179 92.2756C120.179 92.3947 120.136 92.4921 120.038 92.5896C119.941 92.687 119.843 92.7303 119.724 92.7303H116.845C116.574 92.7303 116.368 92.6654 116.238 92.5246C116.109 92.3839 116.011 92.2648 115.957 92.1457L113.489 87.3825H111.28V92.189C111.28 92.3298 111.226 92.4597 111.118 92.5679C111.01 92.6762 110.88 92.7303 110.717 92.7303H107.924C107.762 92.7303 107.632 92.6762 107.535 92.5679C107.437 92.4597 107.383 92.3298 107.383 92.189V78.1158C107.383 77.9534 107.437 77.8235 107.535 77.726C107.632 77.6286 107.762 77.5745 107.924 77.5745H113.813C115.686 77.5745 117.159 78.0075 118.23 78.8627ZM35.0573 63.2414L50.094 54.5593C51.1982 53.9205 52.4432 53.585 53.7206 53.585H67.6856L71.1282 32.0853L63.2363 30.7862C62.5543 30.678 61.9697 30.2017 61.7315 29.5521L61.2877 28.3721L60.584 29.2274C60.2051 29.6929 59.5989 29.9202 59.0143 29.8228L50.2889 28.383C49.7043 28.2855 49.2063 27.8742 48.9898 27.3221L48.3186 25.5358C48.3186 25.5358 48.297 25.4492 48.2861 25.4059L48.1021 25.3734C47.5067 25.276 47.1062 24.7131 47.2036 24.1177C47.2469 23.8362 47.4093 23.5764 47.6474 23.414C47.8856 23.2408 48.1671 23.1758 48.4594 23.23L48.6217 23.2516C48.6217 23.2516 48.6759 23.1542 48.7083 23.1109C54.2077 16.3016 63.8967 12.7508 74.1701 13.6818L74.2784 13.0431C74.3867 12.3502 74.7656 11.744 75.3393 11.3326C75.9131 10.9213 76.6059 10.7589 77.2987 10.878C77.9916 10.997 78.5978 11.3759 79.0092 11.9389C79.4206 12.5126 79.5829 13.2055 79.4639 13.8983L79.3556 14.537C89.3909 16.9511 97.4235 23.414 100.455 31.6306C100.476 31.6848 100.476 31.7389 100.487 31.793L100.693 31.8255C100.974 31.8688 101.234 32.0312 101.397 32.2693C101.57 32.5075 101.635 32.789 101.581 33.0813C101.483 33.6659 100.931 34.0772 100.336 33.9798L100.097 33.9365C100.097 33.9365 100.054 34.0123 100.022 34.0556L98.8092 35.5279C98.4844 35.9176 98.0081 36.1449 97.5101 36.1449C97.4235 36.1449 97.3261 36.1449 97.2395 36.1233L88.5141 34.6835C87.9295 34.586 87.4315 34.1747 87.215 33.6225L86.8253 32.5833L86.0242 33.5684C85.5912 34.0989 84.8983 34.3695 84.2055 34.2613L76.3244 32.9622L73.0118 53.6066H84.0106C84.9958 53.6066 85.9376 53.2494 86.6737 52.5998L99.1989 41.6443C99.8268 41.0922 100.79 41.1247 101.386 41.7201L102.512 42.846C102.826 43.1599 102.988 43.5929 102.977 44.0259C102.966 44.4698 102.761 44.8812 102.436 45.1735L89.6291 56.4537C89.0553 56.9625 88.4058 57.3739 87.713 57.6987L91.8917 67.1711C92.1298 67.6691 92.1406 68.2428 91.9566 68.7516H100.346C100.942 68.7516 101.429 69.2388 101.429 69.8342C101.429 70.4296 100.942 70.9167 100.346 70.9167H36.8002C36.2048 70.9167 35.7176 70.4296 35.7176 69.8342C35.7176 69.2388 36.2048 68.7516 36.8002 68.7516H41.4119C41.3794 68.6109 41.3469 68.4593 41.3469 68.2969V65.1467L37.4389 67.3984C36.7028 67.8206 35.6743 67.55 35.2521 66.8138L34.451 65.4282C34.0072 64.6595 34.267 63.6852 35.0356 63.2414H35.0573ZM27.6959 77.7477C28.4536 78.0075 29.0924 78.3539 29.612 78.7869C30.1316 79.22 30.5213 79.6746 30.792 80.1618C31.0626 80.6489 31.2033 81.1144 31.2142 81.5799C31.2142 81.699 31.1709 81.7965 31.0951 81.8939C31.0193 81.9913 30.9002 82.0346 30.7595 82.0346H27.9015C27.7392 82.0346 27.6092 82.0022 27.4902 81.948C27.3711 81.8939 27.2737 81.7965 27.1871 81.6666C27.1004 81.3526 26.8731 81.0712 26.505 80.833C26.137 80.5948 25.6606 80.4757 25.0652 80.4757C24.4265 80.4757 23.9394 80.584 23.5821 80.8113C23.2249 81.0387 23.0517 81.3743 23.0517 81.8398C23.0517 82.132 23.1491 82.3811 23.344 82.5976C23.5388 82.8141 23.8636 82.9981 24.3183 83.1605C24.7729 83.3229 25.4008 83.4853 26.1911 83.6585C27.501 83.9074 28.5619 84.2106 29.3738 84.5786C30.1857 84.9467 30.7811 85.423 31.16 86.0076C31.5389 86.5922 31.7338 87.3283 31.7338 88.2052C31.7338 89.1903 31.4523 90.0347 30.8894 90.7384C30.3265 91.4421 29.5579 91.9942 28.5836 92.3731C27.6092 92.752 26.4834 92.9468 25.1951 92.9468C23.7553 92.9468 22.5537 92.7411 21.601 92.3298C20.6484 91.9184 19.9231 91.3771 19.4359 90.7168C18.9488 90.0564 18.689 89.3419 18.6565 88.5949C18.6565 88.4759 18.6998 88.3784 18.7972 88.281C18.8946 88.1836 19.0029 88.1403 19.1328 88.1403H21.8609C22.0665 88.1403 22.2181 88.1727 22.3264 88.2485C22.4346 88.3243 22.532 88.4109 22.6186 88.53C22.7377 88.7465 22.9001 88.9522 23.1058 89.1579C23.3115 89.3636 23.593 89.5259 23.9394 89.645C24.2858 89.7641 24.708 89.8291 25.1951 89.8291C26.0287 89.8291 26.6674 89.6992 27.0896 89.4393C27.5118 89.1795 27.7283 88.8223 27.7283 88.3784C27.7283 88.0428 27.6092 87.783 27.3819 87.5773C27.1546 87.3716 26.7757 87.1876 26.2669 87.0252C25.7581 86.8628 25.0761 86.6896 24.2208 86.5164C23.1275 86.2891 22.1856 85.986 21.417 85.6179C20.6484 85.2498 20.053 84.7627 19.6524 84.1673C19.2519 83.5719 19.0462 82.8249 19.0462 81.9264C19.0462 81.0278 19.2952 80.2592 19.7932 79.5664C20.2911 78.8736 20.984 78.3323 21.8825 77.9426C22.781 77.5528 23.8419 77.358 25.0652 77.358C26.0612 77.358 26.9381 77.4879 27.6959 77.7477ZM5.86062 92.5679C5.76319 92.4597 5.70906 92.3298 5.70906 92.189V78.1158C5.70906 77.9534 5.76319 77.8235 5.86062 77.726C5.95805 77.6286 6.08796 77.5745 6.25034 77.5745H16.3615C16.5238 77.5745 16.6537 77.6286 16.7512 77.726C16.8486 77.8235 16.9027 77.9534 16.9027 78.1158V80.151C16.9027 80.3134 16.8486 80.4433 16.7512 80.5407C16.6537 80.6381 16.5238 80.6923 16.3615 80.6923H9.45472V83.6152H15.8851C16.0475 83.6152 16.1774 83.6693 16.2748 83.7775C16.3723 83.8858 16.4264 84.0157 16.4264 84.1781V86.0617C16.4264 86.2025 16.3723 86.3324 16.2748 86.4406C16.1774 86.5489 16.0475 86.603 15.8851 86.603H9.45472V89.6125H16.5347C16.697 89.6125 16.827 89.6667 16.9244 89.7641C17.0218 89.8615 17.0759 89.9914 17.0759 90.1538V92.189C17.0759 92.3298 17.0218 92.4597 16.9244 92.5679C16.827 92.6762 16.697 92.7303 16.5347 92.7303H6.25034C6.08796 92.7303 5.95805 92.6762 5.86062 92.5679ZM19.2194 114.598C17.8662 114.598 16.697 114.371 15.7119 113.927C14.7268 113.483 13.969 112.823 13.4277 111.957C12.8864 111.091 12.5833 110.019 12.5292 108.731C12.5184 108.135 12.5075 107.507 12.5075 106.825C12.5075 106.143 12.5075 105.494 12.5292 104.877C12.5833 103.621 12.8864 102.549 13.4385 101.672C13.9906 100.795 14.7484 100.124 15.7336 99.6804C16.7187 99.2365 17.877 99.0092 19.2194 99.0092C20.1721 99.0092 21.0489 99.1282 21.8609 99.3664C22.6728 99.6046 23.3764 99.951 23.9827 100.406C24.5889 100.86 25.0652 101.412 25.4008 102.051C25.7364 102.69 25.9205 103.415 25.9313 104.227C25.9421 104.357 25.9096 104.465 25.8122 104.552C25.7148 104.638 25.6065 104.682 25.4766 104.682H22.5537C22.3697 104.682 22.2181 104.638 22.1207 104.563C22.0232 104.487 21.9366 104.335 21.8609 104.119C21.6552 103.35 21.3304 102.831 20.8757 102.549C20.4211 102.268 19.8581 102.127 19.1978 102.127C18.4075 102.127 17.7796 102.343 17.3141 102.787C16.8486 103.231 16.5996 103.956 16.5563 104.985C16.513 106.165 16.513 107.377 16.5563 108.622C16.5996 109.651 16.8486 110.376 17.3141 110.82C17.7796 111.264 18.4075 111.48 19.1978 111.48C19.8581 111.48 20.4211 111.34 20.8866 111.047C21.3521 110.755 21.6768 110.235 21.8609 109.488C21.915 109.272 22.0016 109.12 22.1098 109.044C22.2181 108.969 22.3697 108.925 22.5537 108.925H25.4766C25.6065 108.925 25.7148 108.969 25.8122 109.055C25.9096 109.142 25.9421 109.25 25.9313 109.38C25.9205 110.192 25.7364 110.917 25.4008 111.556C25.0652 112.195 24.5889 112.747 23.9827 113.202C23.3764 113.656 22.6728 114.003 21.8609 114.241C21.0489 114.479 20.1721 114.598 19.2194 114.598ZM34.3969 114.598C33.0653 114.598 31.9178 114.382 30.9327 113.948C29.9476 113.515 29.1898 112.866 28.6377 111.989C28.0856 111.112 27.7825 110.019 27.7283 108.709C27.7175 108.092 27.7067 107.464 27.7067 106.836C27.7067 106.208 27.7067 105.58 27.7283 104.963C27.7825 103.664 28.0964 102.571 28.6485 101.683C29.2006 100.795 29.9801 100.124 30.9652 99.6804C31.9503 99.2365 33.0978 99.0092 34.3969 99.0092C35.696 99.0092 36.8543 99.2365 37.8394 99.6804C38.8246 100.124 39.5932 100.795 40.1561 101.683C40.719 102.571 41.0222 103.664 41.0655 104.963C41.0979 105.58 41.1088 106.208 41.1088 106.836C41.1088 107.464 41.0979 108.092 41.0655 108.709C41.0222 110.019 40.7191 111.112 40.1669 111.989C39.6148 112.866 38.8462 113.515 37.8611 113.948C36.876 114.382 35.7284 114.598 34.3969 114.598ZM54.9764 114.219C54.8681 114.111 54.814 113.981 54.814 113.84V105.721L52.389 110.246C52.3133 110.376 52.2267 110.495 52.1076 110.593C51.9885 110.69 51.8369 110.744 51.6312 110.744H50.5054C50.2997 110.744 50.1481 110.69 50.0291 110.593C49.91 110.495 49.8234 110.376 49.7476 110.246L47.301 105.721V113.84C47.301 113.981 47.2469 114.111 47.1495 114.219C47.052 114.327 46.9221 114.382 46.7597 114.382H44.1616C44.0209 114.382 43.8909 114.327 43.7827 114.219C43.6744 114.111 43.6203 113.981 43.6203 113.84V99.767C43.6203 99.6046 43.6744 99.4747 43.7827 99.3772C43.8909 99.2798 44.0209 99.2257 44.1616 99.2257H46.4999C46.7489 99.2257 46.9221 99.2906 47.0412 99.4097C47.1603 99.5288 47.2252 99.6262 47.2577 99.702L51.0683 106.522L54.8789 99.702C54.9222 99.6262 54.998 99.5288 55.1063 99.4097C55.2145 99.2906 55.3877 99.2257 55.6367 99.2257H57.9534C58.1158 99.2257 58.2457 99.2798 58.354 99.3772C58.4622 99.4747 58.5163 99.6046 58.5163 99.767V113.84C58.5163 113.981 58.4622 114.111 58.354 114.219C58.2457 114.327 58.1158 114.382 57.9534 114.382H55.3769C55.2145 114.382 55.0846 114.327 54.9764 114.219ZM68.1511 109.099H65.5746V113.84C65.5746 113.981 65.5205 114.111 65.4122 114.219C65.304 114.327 65.1741 114.382 65.0117 114.382H62.0888C61.9264 114.382 61.7965 114.327 61.6991 114.219C61.6016 114.111 61.5475 113.981 61.5475 113.84V99.767C61.5475 99.6046 61.6016 99.4747 61.6991 99.3772C61.7965 99.2798 61.9264 99.2257 62.0888 99.2257H68.1511C69.3528 99.2257 70.392 99.4097 71.2797 99.7778C72.1674 100.146 72.8602 100.698 73.3582 101.434C73.8562 102.17 74.1052 103.101 74.1052 104.227C74.1052 105.353 73.8562 106.251 73.3582 106.977C72.8602 107.702 72.1674 108.233 71.2797 108.579C70.392 108.925 69.3528 109.099 68.1511 109.099ZM76.3353 114.219C76.2378 114.111 76.1837 113.981 76.1837 113.84V99.767C76.1837 99.6046 76.2378 99.4747 76.3353 99.3772C76.4327 99.2798 76.5626 99.2257 76.725 99.2257H79.5829C79.7453 99.2257 79.8752 99.2798 79.9727 99.3772C80.0701 99.4747 80.1242 99.6046 80.1242 99.767V111.112H86.6845C86.8469 111.112 86.9768 111.166 87.0743 111.275C87.1717 111.383 87.2258 111.513 87.2258 111.675V113.84C87.2258 113.981 87.1717 114.111 87.0743 114.219C86.9768 114.327 86.8469 114.382 86.6845 114.382H76.725C76.5626 114.382 76.4327 114.327 76.3353 114.219ZM100.476 113.84C100.476 113.981 100.422 114.111 100.325 114.219C100.227 114.327 100.097 114.382 99.9351 114.382H89.6508C89.4884 114.382 89.3585 114.327 89.261 114.219C89.1636 114.111 89.1095 113.981 89.1095 113.84V99.767C89.1095 99.6046 89.1636 99.4747 89.261 99.3772C89.3585 99.2798 89.4884 99.2257 89.6508 99.2257H99.7619C99.9242 99.2257 100.054 99.2798 100.152 99.3772C100.249 99.4747 100.303 99.6046 100.303 99.767V101.802C100.303 101.965 100.249 102.094 100.152 102.192C100.054 102.289 99.9242 102.343 99.7619 102.343H92.8551V105.266H99.2855C99.4479 105.266 99.5778 105.32 99.6753 105.429C99.7727 105.537 99.8268 105.667 99.8268 105.829V107.713C99.8268 107.854 99.7727 107.984 99.6753 108.092C99.5778 108.2 99.4479 108.254 99.2855 108.254H92.8551V111.264H99.9351C100.097 111.264 100.227 111.318 100.325 111.415C100.422 111.513 100.476 111.643 100.476 111.805V113.84ZM106.43 114.219C106.333 114.111 106.279 113.981 106.279 113.84V102.625H102.425C102.263 102.625 102.133 102.571 102.035 102.463C101.938 102.354 101.884 102.224 101.884 102.084V99.767C101.884 99.6046 101.938 99.4747 102.035 99.3772C102.133 99.2798 102.263 99.2257 102.425 99.2257H114.073C114.236 99.2257 114.366 99.2798 114.463 99.3772C114.56 99.4747 114.615 99.6046 114.615 99.767V102.084C114.615 102.224 114.56 102.354 114.463 102.463C114.366 102.571 114.236 102.625 114.073 102.625H110.219V113.84C110.219 113.981 110.165 114.111 110.068 114.219C109.97 114.327 109.84 114.382 109.678 114.382H106.82C106.658 114.382 106.528 114.327 106.43 114.219ZM128.839 113.927C128.839 114.046 128.796 114.143 128.699 114.241C128.601 114.338 128.493 114.382 128.363 114.382H125.7C125.483 114.382 125.321 114.327 125.213 114.219C125.105 114.111 125.04 114.013 125.007 113.927L124.163 111.718H118.382L117.559 113.927C117.527 114.013 117.462 114.111 117.364 114.219C117.267 114.327 117.094 114.382 116.845 114.382H114.182C114.062 114.382 113.965 114.338 113.868 114.241C113.77 114.143 113.727 114.046 113.727 113.927C113.727 113.851 113.727 113.786 113.749 113.732L118.837 99.8319C118.88 99.6695 118.966 99.5288 119.107 99.4097C119.248 99.2906 119.432 99.2257 119.681 99.2257H122.885C123.134 99.2257 123.318 99.2906 123.459 99.4097C123.6 99.5288 123.686 99.6695 123.73 99.8319L128.796 113.732C128.829 113.786 128.839 113.851 128.839 113.927ZM135.995 92.5896C135.898 92.687 135.789 92.7303 135.66 92.7303H132.996C132.78 92.7303 132.618 92.6762 132.509 92.5679C132.401 92.4597 132.336 92.3623 132.304 92.2756L131.459 90.0672H125.678L124.856 92.2756C124.823 92.3623 124.758 92.4597 124.661 92.5679C124.563 92.6762 124.39 92.7303 124.141 92.7303H121.478C121.359 92.7303 121.261 92.687 121.164 92.5896C121.067 92.4921 121.023 92.3947 121.023 92.2756C121.023 92.1999 121.023 92.1349 121.045 92.0808L126.133 78.1807C126.176 78.0183 126.263 77.8776 126.404 77.7585C126.544 77.6394 126.728 77.5745 126.977 77.5745H130.182C130.431 77.5745 130.615 77.6394 130.756 77.7585C130.896 77.8776 130.983 78.0183 131.026 78.1807L136.093 92.0808C136.125 92.1349 136.136 92.1999 136.136 92.2756C136.136 92.3947 136.093 92.4921 135.995 92.5896Z" fill="white"/>
<path d="M126.566 86.9494H130.593L128.58 81.2335L126.566 86.9494Z" fill="white"/>
<path d="M36.6595 103.372C36.4321 102.95 36.129 102.636 35.7393 102.43C35.3496 102.224 34.9057 102.127 34.3969 102.127C33.8881 102.127 33.4659 102.224 33.0762 102.43C32.6865 102.636 32.3725 102.95 32.1452 103.372C31.9178 103.794 31.7879 104.346 31.7555 105.028C31.7446 105.634 31.7338 106.219 31.7338 106.782C31.7338 107.345 31.7338 107.94 31.7555 108.579C31.7988 109.586 32.0586 110.322 32.5457 110.787C33.0329 111.253 33.6499 111.48 34.3969 111.48C35.1439 111.48 35.7826 111.253 36.2697 110.787C36.7569 110.322 37.0059 109.586 37.0383 108.579C37.0708 107.94 37.0816 107.345 37.0816 106.782C37.0816 106.219 37.0708 105.634 37.0383 105.028C37.0059 104.346 36.8868 103.794 36.6595 103.372ZM35.696 107.172C35.696 107.172 35.6094 107.215 35.5661 107.237C35.0573 107.496 34.6134 107.54 34.3969 107.54C34.0397 107.54 33.6175 107.431 33.2494 107.237C33.2061 107.215 33.1628 107.193 33.1195 107.161C33.1195 107.053 33.1195 106.944 33.1195 106.836C33.1195 106.706 33.1195 106.565 33.1195 106.436C33.585 106.165 34.0613 106.067 34.3969 106.067C34.7541 106.067 35.2305 106.176 35.696 106.436C35.696 106.565 35.696 106.706 35.696 106.836C35.696 106.944 35.696 107.053 35.696 107.161V107.172Z" fill="white"/>
<path d="M68.0429 102.235H65.5097V106.111H68.0429C68.6599 106.111 69.1579 105.948 69.526 105.634C69.894 105.32 70.0781 104.833 70.0781 104.184C70.0781 103.632 69.9157 103.177 69.6017 102.798C69.2878 102.419 68.7682 102.235 68.0429 102.235Z" fill="white"/>
<path d="M119.27 108.601H123.297L121.283 102.885L119.27 108.601Z" fill="white"/>
<path d="M16.5347 92.7303C16.697 92.7303 16.827 92.6762 16.9244 92.5679C17.0218 92.4597 17.0759 92.3298 17.0759 92.189V90.1538C17.0759 89.9914 17.0218 89.8615 16.9244 89.7641C16.827 89.6667 16.697 89.6125 16.5347 89.6125H9.45472V86.603H15.8851C16.0475 86.603 16.1774 86.5489 16.2748 86.4406C16.3723 86.3324 16.4264 86.2025 16.4264 86.0617V84.1781C16.4264 84.0157 16.3723 83.8858 16.2748 83.7775C16.1774 83.6693 16.0475 83.6152 15.8851 83.6152H9.45472V80.6923H16.3615C16.5238 80.6923 16.6537 80.6381 16.7512 80.5407C16.8486 80.4433 16.9027 80.3134 16.9027 80.151V78.1158C16.9027 77.9534 16.8486 77.8235 16.7512 77.726C16.6537 77.6286 16.5238 77.5745 16.3615 77.5745H6.25034C6.08796 77.5745 5.95805 77.6286 5.86062 77.726C5.76319 77.8235 5.70906 77.9534 5.70906 78.1158V92.189C5.70906 92.3298 5.76319 92.4597 5.86062 92.5679C5.95805 92.6762 6.08796 92.7303 6.25034 92.7303H16.5347Z" fill="#F85600"/>
<path d="M21.8825 77.9426C20.984 78.3323 20.2911 78.8736 19.7932 79.5664C19.2952 80.2592 19.0462 81.0495 19.0462 81.9264C19.0462 82.8032 19.2519 83.5719 19.6524 84.1673C20.053 84.7627 20.6484 85.2498 21.417 85.6179C22.1856 85.986 23.1275 86.2891 24.2208 86.5164C25.0761 86.6896 25.7581 86.8628 26.2669 87.0252C26.7757 87.1876 27.1546 87.3716 27.3819 87.5773C27.6092 87.783 27.7283 88.0428 27.7283 88.3784C27.7283 88.8223 27.5118 89.1795 27.0896 89.4393C26.6674 89.6992 26.0287 89.8291 25.1951 89.8291C24.708 89.8291 24.2858 89.7641 23.9394 89.645C23.593 89.5259 23.3115 89.3636 23.1058 89.1579C22.9001 88.9522 22.7377 88.7465 22.6186 88.53C22.532 88.4109 22.4346 88.3243 22.3264 88.2485C22.2181 88.1727 22.0665 88.1403 21.8609 88.1403H19.1328C19.0029 88.1403 18.8946 88.1836 18.7972 88.281C18.6998 88.3784 18.6565 88.4759 18.6565 88.5949C18.689 89.3419 18.9488 90.0564 19.4359 90.7168C19.9231 91.3771 20.6484 91.9184 21.601 92.3298C22.5537 92.7411 23.7553 92.9468 25.1951 92.9468C26.4834 92.9468 27.6092 92.752 28.5836 92.3731C29.5579 91.9942 30.3265 91.4421 30.8894 90.7384C31.4523 90.0347 31.7338 89.1903 31.7338 88.2052C31.7338 87.3283 31.5389 86.5922 31.16 86.0076C30.7811 85.423 30.1857 84.9467 29.3738 84.5786C28.5619 84.2106 27.501 83.9074 26.1911 83.6585C25.4008 83.4853 24.7729 83.3229 24.3183 83.1605C23.8636 82.9981 23.5388 82.8141 23.344 82.5976C23.1491 82.3811 23.0517 82.132 23.0517 81.8398C23.0517 81.3743 23.2249 81.0387 23.5821 80.8113C23.9394 80.584 24.4265 80.4757 25.0652 80.4757C25.6606 80.4757 26.137 80.5948 26.505 80.833C26.8731 81.0712 27.1004 81.3526 27.1871 81.6666C27.2737 81.7965 27.3711 81.8939 27.4902 81.948C27.6092 82.0022 27.7392 82.0346 27.9015 82.0346H30.7595C30.9002 82.0346 31.0193 81.9913 31.0951 81.8939C31.1709 81.7965 31.2142 81.699 31.2142 81.5799C31.2033 81.1144 31.0626 80.6489 30.792 80.1618C30.5213 79.6746 30.1316 79.22 29.612 78.7869C29.0924 78.3539 28.4536 78.0075 27.6959 77.7477C26.9381 77.4879 26.0612 77.358 25.0652 77.358C23.8419 77.358 22.781 77.5528 21.8825 77.9426Z" fill="#F85600"/>
<path d="M33.2277 80.9737H37.0816V92.189C37.0816 92.3298 37.1358 92.4597 37.2332 92.5679C37.3306 92.6762 37.4605 92.7303 37.6229 92.7303H40.4809C40.6433 92.7303 40.7732 92.6762 40.8706 92.5679C40.968 92.4597 41.0222 92.3298 41.0222 92.189V80.9737H44.8761C45.0385 80.9737 45.1684 80.9196 45.2658 80.8113C45.3632 80.7031 45.4174 80.5732 45.4174 80.4324V78.1158C45.4174 77.9534 45.3632 77.8235 45.2658 77.726C45.1684 77.6286 45.0385 77.5745 44.8761 77.5745H33.2277C33.0653 77.5745 32.9354 77.6286 32.838 77.726C32.7406 77.8235 32.6865 77.9534 32.6865 78.1158V80.4324C32.6865 80.5732 32.7406 80.7031 32.838 80.8113C32.9354 80.9196 33.0653 80.9737 33.2277 80.9737Z" fill="#F85600"/>
<path d="M47.3876 92.189C47.3876 92.3298 47.4417 92.4597 47.5392 92.5679C47.6366 92.6762 47.7665 92.7303 47.9289 92.7303H50.7219C50.8843 92.7303 51.0142 92.6762 51.1224 92.5679C51.2307 92.4597 51.2848 92.3298 51.2848 92.189V87.3825H53.4933L55.9615 92.1457C56.0156 92.2648 56.113 92.3839 56.243 92.5246C56.3729 92.6654 56.5786 92.7303 56.8492 92.7303H59.7288C59.8479 92.7303 59.9453 92.687 60.0427 92.5896C60.1402 92.4921 60.1835 92.3947 60.1835 92.2756C60.1835 92.1999 60.1618 92.1241 60.1185 92.0375L57.1523 86.7113C57.9642 86.354 58.6138 85.8128 59.1009 85.1091C59.5881 84.4054 59.8371 83.5394 59.8371 82.5109C59.8371 80.9412 59.3066 79.7179 58.2349 78.8627C57.1631 78.0075 55.6908 77.5745 53.818 77.5745H47.9289C47.7665 77.5745 47.6366 77.6286 47.5392 77.726C47.4417 77.8235 47.3876 77.9534 47.3876 78.1158V92.189ZM53.7747 80.584C54.4784 80.584 54.998 80.7572 55.3228 81.1036C55.6475 81.4501 55.8099 81.9047 55.8099 82.4677C55.8099 83.0306 55.6367 83.4744 55.3011 83.81C54.9655 84.1456 54.4567 84.308 53.7747 84.308H51.2848V80.584H53.7747Z" fill="#F85600"/>
<path d="M63.0198 90.3379C63.5502 91.2256 64.308 91.8859 65.2823 92.3081C66.2566 92.7303 67.4042 92.9468 68.714 92.9468C70.0239 92.9468 71.1498 92.7303 72.1133 92.3081C73.0768 91.8859 73.8345 91.2256 74.365 90.3379C74.8955 89.4502 75.1661 88.3243 75.1661 86.9494V78.1158C75.1661 77.9534 75.112 77.8235 75.0037 77.726C74.8955 77.6286 74.7656 77.5745 74.6248 77.5745H71.8102C71.6694 77.5745 71.5395 77.6286 71.4313 77.726C71.323 77.8235 71.2689 77.9534 71.2689 78.1158V86.9278C71.2689 87.8696 71.0415 88.5733 70.5869 89.0388C70.1322 89.5043 69.5043 89.7425 68.6924 89.7425C67.8805 89.7425 67.2309 89.5043 66.7871 89.0388C66.3432 88.5733 66.1159 87.8696 66.1159 86.9278V78.1158C66.1159 77.9534 66.0618 77.8235 65.9535 77.726C65.8453 77.6286 65.7154 77.5745 65.553 77.5745H62.76C62.5976 77.5745 62.4677 77.6286 62.3702 77.726C62.2728 77.8235 62.2187 77.9534 62.2187 78.1158V86.9494C62.2187 88.3243 62.4893 89.4502 63.0198 90.3379Z" fill="#F85600"/>
<path d="M77.5261 80.9737H81.38V92.189C81.38 92.3298 81.4341 92.4597 81.5316 92.5679C81.629 92.6762 81.7589 92.7303 81.9213 92.7303H84.7792C84.9416 92.7303 85.0715 92.6762 85.169 92.5679C85.2664 92.4597 85.3205 92.3298 85.3205 92.189V80.9737H89.1744C89.3368 80.9737 89.4667 80.9196 89.5641 80.8113C89.6616 80.7031 89.7157 80.5732 89.7157 80.4324V78.1158C89.7157 77.9534 89.6616 77.8235 89.5641 77.726C89.4667 77.6286 89.3368 77.5745 89.1744 77.5745H77.5261C77.3637 77.5745 77.2338 77.6286 77.1364 77.726C77.0389 77.8235 76.9848 77.9534 76.9848 78.1158V80.4324C76.9848 80.5732 77.0389 80.7031 77.1364 80.8113C77.2338 80.9196 77.3637 80.9737 77.5261 80.9737Z" fill="#F85600"/>
<path d="M103.962 77.5745H101.148C101.007 77.5745 100.877 77.6286 100.769 77.726C100.66 77.8235 100.606 77.9534 100.606 78.1158V86.9278C100.606 87.8696 100.379 88.5733 99.9242 89.0388C99.4696 89.5043 98.8417 89.7425 98.0298 89.7425C97.2178 89.7425 96.5683 89.5043 96.1245 89.0388C95.6806 88.5733 95.4533 87.8696 95.4533 86.9278V78.1158C95.4533 77.9534 95.3991 77.8235 95.2909 77.726C95.1826 77.6286 95.0527 77.5745 94.8903 77.5745H92.0973C91.935 77.5745 91.805 77.6286 91.7076 77.726C91.6102 77.8235 91.5561 77.9534 91.5561 78.1158V86.9494C91.5561 88.3243 91.8267 89.4502 92.3572 90.3379C92.8876 91.2256 93.6454 91.8859 94.6197 92.3081C95.594 92.7303 96.7415 92.9468 98.0514 92.9468C99.3613 92.9468 100.487 92.7303 101.451 92.3081C102.414 91.8859 103.172 91.2256 103.702 90.3379C104.233 89.4502 104.503 88.3243 104.503 86.9494V78.1158C104.503 77.9534 104.449 77.8235 104.341 77.726C104.233 77.6286 104.103 77.5745 103.962 77.5745Z" fill="#F85600"/>
<path d="M107.924 77.5745C107.762 77.5745 107.632 77.6286 107.535 77.726C107.437 77.8235 107.383 77.9534 107.383 78.1158V92.189C107.383 92.3298 107.437 92.4597 107.535 92.5679C107.632 92.6762 107.762 92.7303 107.924 92.7303H110.717C110.88 92.7303 111.01 92.6762 111.118 92.5679C111.226 92.4597 111.28 92.3298 111.28 92.189V87.3825H113.489L115.957 92.1457C116.011 92.2648 116.109 92.3839 116.238 92.5246C116.368 92.6654 116.574 92.7303 116.845 92.7303H119.724C119.843 92.7303 119.941 92.687 120.038 92.5896C120.136 92.4921 120.179 92.3947 120.179 92.2756C120.179 92.1999 120.157 92.1241 120.114 92.0375L117.148 86.7113C117.96 86.354 118.609 85.8128 119.096 85.1091C119.584 84.4054 119.833 83.5394 119.833 82.5109C119.833 80.9412 119.302 79.7179 118.23 78.8627C117.159 78.0075 115.686 77.5745 113.813 77.5745H107.924ZM111.28 80.584H113.77C114.474 80.584 114.993 80.7572 115.318 81.1036C115.643 81.4501 115.805 81.9047 115.805 82.4677C115.805 83.0306 115.632 83.4744 115.297 83.81C114.961 84.1456 114.452 84.308 113.77 84.308H111.28V80.584Z" fill="#F85600"/>
<path d="M131.026 78.1807C130.983 78.0183 130.896 77.8776 130.756 77.7585C130.615 77.6394 130.431 77.5745 130.182 77.5745H126.977C126.728 77.5745 126.544 77.6394 126.404 77.7585C126.263 77.8776 126.176 78.0183 126.133 78.1807L121.045 92.0808C121.034 92.1349 121.023 92.1999 121.023 92.2756C121.023 92.3947 121.067 92.4921 121.164 92.5896C121.261 92.687 121.359 92.7303 121.478 92.7303H124.141C124.39 92.7303 124.563 92.6762 124.661 92.5679C124.758 92.4597 124.823 92.3623 124.856 92.2756L125.678 90.0672H131.459L132.304 92.2756C132.336 92.3623 132.401 92.4597 132.509 92.5679C132.618 92.6762 132.78 92.7303 132.996 92.7303H135.66C135.789 92.7303 135.898 92.687 135.995 92.5896C136.093 92.4921 136.136 92.3947 136.136 92.2756C136.136 92.1999 136.125 92.1349 136.093 92.0808L131.026 78.1807ZM126.566 86.9494L128.58 81.2335L130.593 86.9494H126.566Z" fill="#F85600"/>
<path d="M23.9827 113.202C24.5889 112.747 25.0652 112.195 25.4008 111.556C25.7364 110.917 25.9205 110.192 25.9313 109.38C25.9421 109.25 25.9096 109.142 25.8122 109.055C25.7148 108.969 25.6065 108.925 25.4766 108.925H22.5537C22.3697 108.925 22.2181 108.969 22.1098 109.044C22.0016 109.12 21.915 109.272 21.8609 109.488C21.6768 110.235 21.3521 110.755 20.8866 111.047C20.4211 111.34 19.8581 111.48 19.1978 111.48C18.4075 111.48 17.7796 111.264 17.3141 110.82C16.8486 110.376 16.5996 109.651 16.5563 108.622C16.513 107.377 16.513 106.165 16.5563 104.985C16.5996 103.956 16.8486 103.231 17.3141 102.787C17.7796 102.343 18.4075 102.127 19.1978 102.127C19.8581 102.127 20.4211 102.268 20.8757 102.549C21.3304 102.831 21.6552 103.35 21.8609 104.119C21.9366 104.335 22.0232 104.487 22.1207 104.563C22.2181 104.638 22.3697 104.682 22.5537 104.682H25.4766C25.6065 104.682 25.7148 104.638 25.8122 104.552C25.9096 104.465 25.9421 104.357 25.9313 104.227C25.9205 103.415 25.7364 102.69 25.4008 102.051C25.0652 101.412 24.5889 100.86 23.9827 100.406C23.3764 99.951 22.6728 99.6046 21.8609 99.3664C21.0489 99.1282 20.1721 99.0092 19.2194 99.0092C17.877 99.0092 16.7187 99.2365 15.7336 99.6804C14.7484 100.124 13.9906 100.795 13.4385 101.672C12.8864 102.549 12.5833 103.621 12.5292 104.877C12.5184 105.494 12.5075 106.143 12.5075 106.825C12.5075 107.507 12.5075 108.135 12.5292 108.731C12.5833 110.019 12.8864 111.091 13.4277 111.957C13.969 112.823 14.7268 113.483 15.7119 113.927C16.697 114.371 17.8662 114.598 19.2194 114.598C20.1721 114.598 21.0489 114.479 21.8609 114.241C22.6728 114.003 23.3764 113.656 23.9827 113.202Z" fill="#F85600"/>
<path d="M40.1669 111.989C40.7191 111.112 41.0222 110.019 41.0655 108.709C41.0979 108.092 41.1088 107.464 41.1088 106.836C41.1088 106.208 41.0979 105.58 41.0655 104.963C41.0222 103.664 40.719 102.571 40.1561 101.683C39.5932 100.795 38.8246 100.124 37.8394 99.6804C36.8543 99.2365 35.7068 99.0092 34.3969 99.0092C33.087 99.0092 31.9503 99.2365 30.9652 99.6804C29.9801 100.124 29.2006 100.795 28.6485 101.683C28.0964 102.571 27.7825 103.664 27.7283 104.963C27.7175 105.58 27.7067 106.208 27.7067 106.836C27.7067 107.464 27.7067 108.092 27.7283 108.709C27.7825 110.019 28.0856 111.112 28.6377 111.989C29.1898 112.866 29.9476 113.515 30.9327 113.948C31.9178 114.382 33.0653 114.598 34.3969 114.598C35.7284 114.598 36.876 114.382 37.8611 113.948C38.8462 113.515 39.6148 112.866 40.1669 111.989ZM37.0383 108.579C37.0059 109.586 36.7569 110.322 36.2697 110.787C35.7826 111.253 35.1655 111.48 34.3969 111.48C33.6283 111.48 33.0329 111.253 32.5457 110.787C32.0586 110.322 31.7988 109.586 31.7555 108.579C31.7446 107.94 31.7338 107.345 31.7338 106.782C31.7338 106.219 31.7338 105.634 31.7555 105.028C31.7879 104.346 31.9178 103.794 32.1452 103.372C32.3725 102.95 32.6865 102.636 33.0762 102.43C33.4659 102.224 33.9097 102.127 34.3969 102.127C34.8841 102.127 35.3496 102.224 35.7393 102.43C36.129 102.636 36.4321 102.95 36.6595 103.372C36.8868 103.794 37.0059 104.346 37.0383 105.028C37.0708 105.634 37.0816 106.219 37.0816 106.782C37.0816 107.345 37.0708 107.94 37.0383 108.579Z" fill="#F85600"/>
<path d="M57.9534 114.382C58.1158 114.382 58.2457 114.327 58.354 114.219C58.4622 114.111 58.5163 113.981 58.5163 113.84V99.767C58.5163 99.6046 58.4622 99.4747 58.354 99.3772C58.2457 99.2798 58.1158 99.2257 57.9534 99.2257H55.6367C55.3877 99.2257 55.2145 99.2906 55.1063 99.4097C54.998 99.5288 54.9222 99.6262 54.8789 99.702L51.0683 106.522L47.2577 99.702C47.2252 99.6262 47.1603 99.5288 47.0412 99.4097C46.9221 99.2906 46.7489 99.2257 46.4999 99.2257H44.1616C44.0209 99.2257 43.8909 99.2798 43.7827 99.3772C43.6744 99.4747 43.6203 99.6046 43.6203 99.767V113.84C43.6203 113.981 43.6744 114.111 43.7827 114.219C43.8909 114.327 44.0209 114.382 44.1616 114.382H46.7597C46.9221 114.382 47.052 114.327 47.1495 114.219C47.2469 114.111 47.301 113.981 47.301 113.84V105.721L49.7476 110.246C49.8234 110.376 49.91 110.495 50.0291 110.593C50.1481 110.69 50.2997 110.744 50.5054 110.744H51.6312C51.8369 110.744 51.9885 110.69 52.1076 110.593C52.2267 110.495 52.3133 110.376 52.389 110.246L54.814 105.721V113.84C54.814 113.981 54.8681 114.111 54.9764 114.219C55.0846 114.327 55.2145 114.382 55.3769 114.382H57.9534Z" fill="#F85600"/>
<path d="M71.2797 108.579C72.1674 108.233 72.8602 107.702 73.3582 106.977C73.8562 106.251 74.1052 105.342 74.1052 104.227C74.1052 103.112 73.8562 102.17 73.3582 101.434C72.8602 100.698 72.1674 100.146 71.2797 99.7778C70.392 99.4097 69.3528 99.2257 68.1511 99.2257H62.0888C61.9264 99.2257 61.7965 99.2798 61.6991 99.3772C61.6016 99.4747 61.5475 99.6046 61.5475 99.767V113.84C61.5475 113.981 61.6016 114.111 61.6991 114.219C61.7965 114.327 61.9264 114.382 62.0888 114.382H65.0117C65.1741 114.382 65.304 114.327 65.4122 114.219C65.5205 114.111 65.5746 113.981 65.5746 113.84V109.099H68.1511C69.3528 109.099 70.392 108.925 71.2797 108.579ZM69.526 105.634C69.1579 105.948 68.6599 106.111 68.0429 106.111H65.5097V102.235H68.0429C68.7682 102.235 69.2878 102.419 69.6017 102.798C69.9157 103.177 70.0781 103.632 70.0781 104.184C70.0781 104.833 69.894 105.32 69.526 105.634Z" fill="#F85600"/>
<path d="M86.6845 114.382C86.8469 114.382 86.9768 114.327 87.0743 114.219C87.1717 114.111 87.2258 113.981 87.2258 113.84V111.675C87.2258 111.513 87.1717 111.383 87.0743 111.275C86.9768 111.166 86.8469 111.112 86.6845 111.112H80.1242V99.767C80.1242 99.6046 80.0701 99.4747 79.9727 99.3772C79.8752 99.2798 79.7453 99.2257 79.5829 99.2257H76.725C76.5626 99.2257 76.4327 99.2798 76.3353 99.3772C76.2378 99.4747 76.1837 99.6046 76.1837 99.767V113.84C76.1837 113.981 76.2378 114.111 76.3353 114.219C76.4327 114.327 76.5626 114.382 76.725 114.382H86.6845Z" fill="#F85600"/>
<path d="M99.9351 111.264H92.8551V108.254H99.2855C99.4479 108.254 99.5778 108.2 99.6753 108.092C99.7727 107.984 99.8268 107.854 99.8268 107.713V105.829C99.8268 105.667 99.7727 105.537 99.6753 105.429C99.5778 105.32 99.4479 105.266 99.2855 105.266H92.8551V102.343H99.7619C99.9242 102.343 100.054 102.289 100.152 102.192C100.249 102.094 100.303 101.965 100.303 101.802V99.767C100.303 99.6046 100.249 99.4747 100.152 99.3772C100.054 99.2798 99.9242 99.2257 99.7619 99.2257H89.6508C89.4884 99.2257 89.3585 99.2798 89.261 99.3772C89.1636 99.4747 89.1095 99.6046 89.1095 99.767V113.84C89.1095 113.981 89.1636 114.111 89.261 114.219C89.3585 114.327 89.4884 114.382 89.6508 114.382H99.9351C100.097 114.382 100.227 114.327 100.325 114.219C100.422 114.111 100.476 113.981 100.476 113.84V111.805C100.476 111.643 100.422 111.513 100.325 111.415C100.227 111.318 100.097 111.264 99.9351 111.264Z" fill="#F85600"/>
<path d="M109.678 114.382C109.84 114.382 109.97 114.327 110.068 114.219C110.165 114.111 110.219 113.981 110.219 113.84V102.625H114.073C114.236 102.625 114.366 102.571 114.463 102.463C114.56 102.354 114.615 102.224 114.615 102.084V99.767C114.615 99.6046 114.56 99.4747 114.463 99.3772C114.366 99.2798 114.236 99.2257 114.073 99.2257H102.425C102.263 99.2257 102.133 99.2798 102.035 99.3772C101.938 99.4747 101.884 99.6046 101.884 99.767V102.084C101.884 102.224 101.938 102.354 102.035 102.463C102.133 102.571 102.263 102.625 102.425 102.625H106.279V113.84C106.279 113.981 106.333 114.111 106.43 114.219C106.528 114.327 106.658 114.382 106.82 114.382H109.678Z" fill="#F85600"/>
<path d="M123.459 99.4097C123.318 99.2906 123.134 99.2257 122.885 99.2257H119.681C119.432 99.2257 119.248 99.2906 119.107 99.4097C118.966 99.5288 118.88 99.6695 118.837 99.8319L113.749 113.732C113.738 113.786 113.727 113.851 113.727 113.927C113.727 114.046 113.77 114.143 113.868 114.241C113.965 114.338 114.062 114.382 114.182 114.382H116.845C117.094 114.382 117.267 114.327 117.364 114.219C117.462 114.111 117.527 114.013 117.559 113.927L118.382 111.718H124.163L125.007 113.927C125.04 114.013 125.105 114.111 125.213 114.219C125.321 114.327 125.483 114.382 125.7 114.382H128.363C128.493 114.382 128.601 114.338 128.699 114.241C128.796 114.143 128.839 114.046 128.839 113.927C128.839 113.851 128.829 113.786 128.796 113.732L123.73 99.8319C123.686 99.6695 123.6 99.5288 123.459 99.4097ZM119.27 108.601L121.283 102.885L123.297 108.601H119.27Z" fill="#F85600"/>
<path d="M20.8649 17.828C20.9082 17.9146 21.0056 18.1311 21.0489 18.2069C21.1247 18.4559 21.2654 18.943 21.2005 18.4559C21.4495 20.3828 22.7594 21.9201 24.8595 21.6278C26.9814 21.3355 27.8149 19.506 27.5443 17.5898C27.3711 16.3124 26.754 15.1108 26.0612 14.039C25.9205 13.8225 25.7689 13.606 25.6282 13.3787C25.6282 13.3787 25.2709 12.7833 25.3142 12.9024C25.0761 12.426 24.9028 11.9389 24.5889 11.5275C23.777 10.0877 21.3845 9.69798 20.3128 11.4192C20.6051 10.9537 19.7607 12.2745 19.7066 12.5018C19.5983 12.9024 19.5225 13.4112 19.5225 13.8225C19.5225 14.4721 19.739 15.1649 19.9664 15.7711C20.2262 16.464 20.5401 17.1568 20.8649 17.828Z" fill="#FFA901"/>
<path d="M47.2361 13.5844C47.3984 12.4152 46.9329 11.3543 46.1318 10.6398C45.5473 10.1202 44.7895 9.79541 43.9343 9.77376C44.7353 9.79541 44.075 9.77376 43.826 9.7088C43.826 9.7088 43.8152 9.7088 43.8043 9.7088C43.8043 9.7088 43.7827 9.69798 43.7719 9.68715C43.4038 9.45981 42.9924 9.27578 42.6027 9.09174C41.2495 8.43138 39.9937 8.13909 38.489 8.3989C36.1073 8.8211 35.7393 12.5235 37.8178 13.5627C38.7813 14.0499 39.6473 14.6669 40.5567 15.219C41.3361 15.6954 42.1372 16.1176 43.0466 16.3774C45.0168 16.9187 46.9762 15.5546 47.2469 13.5844H47.2361Z" fill="#FFA901"/>
<path d="M41.466 32.724C42.7001 32.3884 43.5662 31.2084 43.5878 29.9418C43.5878 29.747 43.5878 29.563 43.5878 29.3681C43.5878 28.0257 42.646 26.8457 41.3794 26.4668C40.4484 26.1854 39.4741 26.1204 38.5106 26.0122C38.5539 26.0122 38.0343 25.9364 37.9802 25.9255C37.7637 25.8822 37.558 25.8281 37.3415 25.774C37.2116 25.7415 37.0708 25.6982 36.9409 25.6657C36.7785 25.5358 36.5945 25.4384 36.4105 25.3518C35.4686 24.8971 34.3536 24.9837 33.4659 25.6441C32.4158 26.4344 31.9287 28.1664 32.7298 29.314C34.083 31.2626 36.6703 32.1719 39.0844 32.356C39.2143 32.4426 39.3658 32.4967 39.5174 32.5616C40.1453 32.8215 40.8706 32.8972 41.466 32.724Z" fill="#FFA901"/>
</svg>
